<svg xmlns="http://www.w3.org/2000/svg"  style="display: none;">
<symbol viewBox="0 0 24 24" id="gc-logo"><path d="M15.62,21.35c0,0.13-0.1,0.23-0.23,0.23H8.61c-0.13,0-0.23-0.1-0.23-0.23v-2.08c0-0.13,0.1-0.23,0.23-0.23h6.78 c0.13,0,0.23,0.1,0.23,0.23V21.35z"/><path d="M19.29,12.7l-5.91-0.47c-0.33-0.36-0.81-0.58-1.33-0.58c-1,0-1.81,0.81-1.81,1.81c0,1,0.81,1.81,1.81,1.81 c0.55,0,1.04-0.25,1.38-0.63l5.87-0.45c0.52,0,0.93-0.29,0.93-0.66v-0.18C20.22,12.99,19.8,12.7,19.29,12.7z"/><path class="st1" d="M12,2.41c-6.08,0-11,4.92-11,11c0,2.55,0.87,4.89,2.32,6.76l1.45-0.96l1.18-0.78c0.15-0.1,0.22-0.27,0.15-0.37l-0.63-0.95 C5.4,17,5.22,17,5.07,17.09l-1.19,0.78c-0.72-1.31-1.12-2.82-1.12-4.42c0-1.39,0.31-2.72,0.86-3.9l1.3,0.76 c0.11,0.06,0.25,0.03,0.32-0.08l0.57-0.99c0.06-0.11,0.03-0.25-0.08-0.32L4.43,8.17C5.95,6,8.38,4.51,11.16,4.26v1.51 c0,0.13,0.1,0.23,0.23,0.23h1.14c0.13,0,0.23-0.1,0.23-0.23V4.25c2.79,0.23,5.23,1.7,6.76,3.86l-1.3,0.76 c-0.11,0.06-0.15,0.21-0.08,0.32l0.57,0.99c0.06,0.11,0.21,0.15,0.32,0.08l1.31-0.76c0.57,1.2,0.89,2.54,0.89,3.96	c0,1.6-0.41,3.1-1.12,4.42l-1.18-0.79c-0.15-0.1-0.33-0.09-0.4,0.01l-0.63,0.95c-0.07,0.11-0.01,0.27,0.14,0.37l1.18,0.79l1.45,0.97	c1.46-1.87,2.33-4.22,2.33-6.77C23,7.34,18.08,2.41,12,2.41z"/></symbol>
<symbol viewBox="0 0 24 24" id="ti-logo"><path d="m 18.782995,5.3478114 v 0 h 0.719 l 0.717,0.026 0.719,0.054 0.664,0.08 0.611,0.053 0.293,0.026 0.266,0.054 0.24,0.054 0.213,0.053 0.371,0.106 -0.078,1.223 -0.055,1.037 v 0.213 0.213 l 0.027,0.213 0.027,0.212 0.078,0.32 0.08,0.292 0.08,0.267 0.08,0.1049999 0.053,0.1329997 0.107,0.187 0.133,0.159 0.133,0.106 0.105,0.134 0.135,0.079 0.078,0.054 0.186,0.08 0.055,0.025 v 0.16 l 0.053,0.452 0.027,0.346 0.025,0.319 v 0.398 l -0.025,0.452 -0.055,0.585 -0.025,0.532 -0.08,0.451 -0.08,0.372 -0.08,0.32 -0.025,0.213 -0.053,0.186 -0.666,0.239 -0.451,0.16 -0.533,0.212 -0.291,0.133 -0.266,0.134 -0.639,0.319 -0.639,0.371 -0.32,0.213 -0.371,0.239 -0.266,0.187 -0.24,0.213 -0.238,0.213 -0.24,0.238 -0.238,0.214 -0.213,0.265 -0.213,0.24 -0.188,0.239 -0.186,0.266 -0.158,0.267 -0.107,0.266 -0.08,0.159 -0.053,0.134 -0.08,0.292 -0.08,0.292 -0.053,0.292 v 0.16 0.159 0.319 l 0.027,0.346 0.053,0.319 0.053,0.292 0.053,0.294 0.08,0.239 0.08,0.266 0.107,0.213 -0.107,0.052 -0.16,0.081 -0.213,0.079 -0.105,0.054 h -0.16 l -0.291,0.08 h -0.188 l -0.213,0.025 h -0.186 -0.213 l -0.133,-0.025 h -0.16 l -0.266,-0.08 -0.293,-0.054 -0.318,-0.132 -0.133,-0.054 -0.134,-0.053 -0.292,-0.161 -0.293,-0.212 -0.292,-0.187 -0.267,-0.238 -0.266,-0.24 -0.266,-0.267 -0.239,-0.267 -0.239,-0.291 -0.24,-0.319 -0.105,-0.16 -0.105,-0.159 -0.215,-0.346 -0.239,-0.452 -0.238,-0.479 -0.427,-0.904 -0.398,-0.904 -0.186,-0.424 -0.213,-0.373 -0.212,-0.371 -0.08,-0.186 -0.1339996,-0.16 -0.212,-0.266 -0.08,-0.133 -0.133,-0.134 -0.107,-0.105 -0.133,-0.106 -0.106,-0.054 -0.159,-0.079 -0.106,-0.08 -0.133,-0.026 h -0.16 l -0.133,-0.026 -0.133,0.026 h -0.133 -0.107 l -0.132,0.026 -0.08,0.053 -0.106,0.054 -0.107,0.053 -0.079,0.027 -0.16,0.159 -0.16,0.133 -0.107,0.16 -0.158,0.133 -0.107,0.159 -0.133,0.135 -0.132,0.131 -0.133,0.134 -0.08,0.053 -0.08,0.053 -0.187,0.079 -0.079,0.027 -0.107,0.026 h -0.106 -0.106 -0.133 l -0.133,-0.026 h -0.107 l -0.132,-0.053 -0.107,-0.054 -0.106,-0.079 -0.212,-0.16 -0.107,-0.079 -0.106,-0.106 -0.106,-0.08 -0.08,-0.106 -0.159,-0.239 -0.08,-0.133 -0.08,-0.133 -0.133,-0.267 -0.16,-0.266 -0.239,-0.531 -0.426,-0.931 -0.053,-0.134 -0.106,-0.133 -0.16,-0.267 -0.213,-0.239 -0.212,-0.238 -0.479,-0.453 -0.266,-0.212 -0.24,-0.239 -0.239,-0.239 -0.21299996,-0.267 -0.21199996,-0.238 -0.187,-0.294 -0.159,-0.319 -0.08,-0.186 -0.08,-0.16 -0.053,-0.186 -0.027,-0.213 -0.053,-0.213 -0.027,-0.2389996 H 6.6029954 V 0.69581143 H 12.719995 V 4.5498114 l 0.105,0.08 0.106,0.08 0.134,0.08 0.186,0.079 0.186,0.053 0.24,0.08 0.212,0.054 0.267,0.053 -0.691,3.084 h -1.942 l -0.665,2.7399996 h 1.995 l -0.719,3.351 -0.105,0.506 -0.027,0.292 -0.053,0.318 v 0.347 0.292 l 0.026,0.293 0.026,0.133 0.027,0.133 0.08,0.213 0.078,0.188 0.107,0.185 0.107,0.16 0.131,0.186 0.107,0.133 0.16,0.133 0.159,0.107 0.106,0.105 0.213,0.054 0.159,0.08 0.187,0.079 0.186,0.026 0.187,0.026 0.212,0.026 h 0.213 0.293 l 0.319,-0.026 0.292,-0.026 0.32,-0.053 0.557,-0.106 0.268,-0.08 0.211,-0.053 0.24,-0.08 0.213,-0.054 0.293,-0.106 0.293,-0.133 0.611,-2.339 -0.08,0.026 -0.133,0.026 h -0.293 l -0.293,0.025 -0.266,0.027 h -0.133 l -0.107,-0.027 -0.078,-0.025 h -0.027 l -0.025,-0.026 -0.027,-0.026 -0.053,-0.027 -0.027,-0.08 -0.053,-0.053 -0.027,-0.133 -0.025,-0.105 0.025,-0.081 0.027,-0.267 0.824,-3.563 h 1.941 l 0.639,-2.7399996 h -1.994 z m -3.749,1.091 v 0 h 2.394 l -1.969,8.7219996 h -2.313 z m 1.648,-3.35 v 0 h 0.16 l 0.107,0.026 0.133,0.025 0.106,0.029 0.107,0.052 0.105,0.08 0.107,0.053 0.078,0.08 0.16,0.187 0.08,0.106 0.053,0.106 0.027,0.106 0.025,0.159 0.027,0.106 v 0.133 0.134 l -0.027,0.133 -0.025,0.106 -0.027,0.133 -0.053,0.106 -0.08,0.079 -0.053,0.134 -0.08,0.053 -0.08,0.106 -0.104,0.054 -0.107,0.054 -0.105,0.053 -0.108,0.027 -0.133,0.025 -0.133,0.027 h -0.16 -0.131 l -0.107,-0.027 -0.133,-0.025 -0.107,-0.027 -0.133,-0.053 -0.105,-0.054 -0.08,-0.053 -0.107,-0.079 -0.078,-0.08 -0.08,-0.106 -0.053,-0.106 -0.055,-0.079 -0.025,-0.16 -0.053,-0.106 -0.027,-0.133 v -0.135 -0.133 l 0.027,-0.106 0.053,-0.133 0.025,-0.106 0.055,-0.106 0.053,-0.133 0.107,-0.08 0.051,-0.079 0.107,-0.106 0.105,-0.054 0.107,-0.079 0.105,-0.053 0.133,-0.027 0.107,-0.026 0.133,-0.026 h 0.106 z"/></symbol>
</svg>
