<?xml version="1.0" encoding="utf-8"?>
<!-- Generator: Adobe Illustrator 20.0.0, SVG Export Plug-In . SVG Version: 6.00 Build 0)  -->
<svg version="1.1" id="gui-composer" xmlns="http://www.w3.org/2000/svg" xmlns:xlink="http://www.w3.org/1999/xlink" x="0px"
	 y="0px" viewBox="0 0 24 24" style="enable-background:new 0 0 24 24;" xml:space="preserve">
<style type="text/css">
	.st0{fill-rule:evenodd;clip-rule:evenodd;}
	.st1{fill-rule:evenodd;clip-rule:evenodd;fill:#fff;}
</style>
<path class="st1" d="M15.62,21.35c0,0.13-0.1,0.23-0.23,0.23H8.61c-0.13,0-0.23-0.1-0.23-0.23v-2.08c0-0.13,0.1-0.23,0.23-0.23h6.78
	c0.13,0,0.23,0.1,0.23,0.23V21.35z"/>
<path class="st1" d="M19.29,12.7l-5.91-0.47c-0.33-0.36-0.81-0.58-1.33-0.58c-1,0-1.81,0.81-1.81,1.81c0,1,0.81,1.81,1.81,1.81
	c0.55,0,1.04-0.25,1.38-0.63l5.87-0.45c0.52,0,0.93-0.29,0.93-0.66v-0.18C20.22,12.99,19.8,12.7,19.29,12.7z"/>
<path class="st1" d="M12,2.41c-6.08,0-11,4.92-11,11c0,2.55,0.87,4.89,2.32,6.76l1.45-0.96l1.18-0.78c0.15-0.1,0.22-0.27,0.15-0.37l-0.63-0.95
	C5.4,17,5.22,17,5.07,17.09l-1.19,0.78c-0.72-1.31-1.12-2.82-1.12-4.42c0-1.39,0.31-2.72,0.86-3.9l1.3,0.76
	c0.11,0.06,0.25,0.03,0.32-0.08l0.57-0.99c0.06-0.11,0.03-0.25-0.08-0.32L4.43,8.17C5.95,6,8.38,4.51,11.16,4.26v1.51
	c0,0.13,0.1,0.23,0.23,0.23h1.14c0.13,0,0.23-0.1,0.23-0.23V4.25c2.79,0.23,5.23,1.7,6.76,3.86l-1.3,0.76
	c-0.11,0.06-0.15,0.21-0.08,0.32l0.57,0.99c0.06,0.11,0.21,0.15,0.32,0.08l1.31-0.76c0.57,1.2,0.89,2.54,0.89,3.96
	c0,1.6-0.41,3.1-1.12,4.42l-1.18-0.79c-0.15-0.1-0.33-0.09-0.4,0.01l-0.63,0.95c-0.07,0.11-0.01,0.27,0.14,0.37l1.18,0.79l1.45,0.97
	c1.46-1.87,2.33-4.22,2.33-6.77C23,7.34,18.08,2.41,12,2.41z"/>
</svg>
