<svg xmlns="http://www.w3.org/2000/svg">
<symbol id="add_alert" viewBox="0 0 24 24"><path d="M12 23c1.1 0 1.99-.89 1.99-1.99h-3.98c0 1.1.89 1.99 1.99 1.99zm7-6v-6c0-3.35-2.36-6.15-5.5-6.83V3c0-.83-.67-1.5-1.5-1.5s-1.5.67-1.5 1.5v1.17C7.36 4.85 5 7.65 5 11v6l-1.29 1.29c-.63.63-.19 1.71.7 1.71h15.17c.89 0 1.34-1.08.71-1.71L19 17zm-4-3.99h-2v2c0 .55-.45 1-1 1s-1-.45-1-1v-2H9c-.55 0-1-.45-1-1V12c0-.55.45-1 1-1h2V9c0-.55.45-1 1-1s1 .45 1 1v2h2c.55 0 1 .45 1 1v.01c0 .55-.45 1-1 1z"/></symbol>
<symbol id="auto_delete" viewBox="0 0 24 24"><g><rect fill="none" height="24" width="24"/><rect fill="none" height="24" width="24"/></g><g><g><path d="M16,9c-0.7,0-1.37,0.1-2,0.29V7c0-1.1-0.9-2-2-2H4C2.9,5,2,5.9,2,7v10c0,1.1,0.9,2,2,2h5.68c1.12,2.36,3.53,4,6.32,4 c3.87,0,7-3.13,7-7C23,12.13,19.87,9,16,9z M16,21c-2.76,0-5-2.24-5-5s2.24-5,5-5s5,2.24,5,5S18.76,21,16,21z"/><path d="M14,4c0.55,0,1-0.45,1-1c0-0.55-0.45-1-1-1h-2.5l-0.71-0.71C10.61,1.11,10.35,1,10.09,1H5.91C5.65,1,5.39,1.11,5.21,1.29 L4.5,2H2C1.45,2,1,2.45,1,3c0,0.55,0.45,1,1,1H14z"/><path d="M15.75,12L15.75,12C15.34,12,15,12.34,15,12.75v3.68c0,0.36,0.19,0.68,0.5,0.86l2.52,1.47c0.33,0.19,0.75,0.09,0.96-0.22 v0c0.23-0.34,0.12-0.81-0.24-1.02L16.5,16.2v-3.45C16.5,12.34,16.16,12,15.75,12z"/></g></g></symbol>
<symbol id="error" viewBox="0 0 24 24"><path d="M12 2C6.48 2 2 6.48 2 12s4.48 10 10 10 10-4.48 10-10S17.52 2 12 2zm0 11c-.55 0-1-.45-1-1V8c0-.55.45-1 1-1s1 .45 1 1v4c0 .55-.45 1-1 1zm1 4h-2v-2h2v2z"/></symbol>
<symbol id="error_outline" viewBox="0 0 24 24"><path d="M12 7c.55 0 1 .45 1 1v4c0 .55-.45 1-1 1s-1-.45-1-1V8c0-.55.45-1 1-1zm-.01-5C6.47 2 2 6.48 2 12s4.47 10 9.99 10C17.52 22 22 17.52 22 12S17.52 2 11.99 2zM12 20c-4.42 0-8-3.58-8-8s3.58-8 8-8 8 3.58 8 8-3.58 8-8 8zm1-3h-2v-2h2v2z"/></symbol>
<symbol id="notification_important" viewBox="0 0 24 24"><path d="M12 23c1.1 0 1.99-.89 1.99-1.99h-3.98c0 1.1.89 1.99 1.99 1.99zm8.29-4.71L19 17v-6c0-3.35-2.36-6.15-5.5-6.83V3c0-.83-.67-1.5-1.5-1.5s-1.5.67-1.5 1.5v1.17C7.36 4.85 5 7.65 5 11v6l-1.29 1.29c-.63.63-.19 1.71.7 1.71h15.17c.9 0 1.34-1.08.71-1.71zM13 16h-2v-2h2v2zm0-5c0 .55-.45 1-1 1s-1-.45-1-1V9c0-.55.45-1 1-1s1 .45 1 1v2z"/></symbol>
<symbol id="warning" viewBox="0 0 24 24"><path d="M4.47 21h15.06c1.54 0 2.5-1.67 1.73-3L13.73 4.99c-.77-1.33-2.69-1.33-3.46 0L2.74 18c-.77 1.33.19 3 1.73 3zM12 14c-.55 0-1-.45-1-1v-2c0-.55.45-1 1-1s1 .45 1 1v2c0 .55-.45 1-1 1zm1 4h-2v-2h2v2z"/></symbol>
<symbol id="warning_amber" viewBox="0 0 24 24"><path d="M12 5.99L19.53 19H4.47L12 5.99M2.74 18c-.77 1.33.19 3 1.73 3h15.06c1.54 0 2.5-1.67 1.73-3L13.73 4.99c-.77-1.33-2.69-1.33-3.46 0L2.74 18zM11 11v2c0 .55.45 1 1 1s1-.45 1-1v-2c0-.55-.45-1-1-1s-1 .45-1 1zm0 5h2v2h-2z"/></symbol>
</svg>