<svg xmlns="http://www.w3.org/2000/svg">
<symbol id="4k" viewBox="0 0 24 24"><path d="M19 3H5c-1.1 0-2 .9-2 2v14c0 1.1.89 2 2 2h14c1.1 0 2-.9 2-2V5c0-1.1-.89-2-2-2zm-7 9.76c0 .41-.34.75-.75.75H11v.74c0 .41-.34.75-.75.75s-.75-.34-.75-.75v-.75h-2c-.55 0-1-.45-1-1V9.75c0-.41.34-.75.75-.75s.75.34.75.75V12h1.5V9.75c0-.41.34-.75.75-.75s.75.34.75.75V12h.25c.41 0 .75.34.75.75v.01zm5.47 1.14c.22.33.13.77-.2.98-.12.08-.26.12-.39.12-.23 0-.45-.11-.59-.32L14.5 12v2.24c0 .41-.34.75-.75.75-.41.01-.75-.33-.75-.74v-4.5c0-.41.34-.75.75-.75s.75.34.75.75v2.24l1.79-2.68c.22-.33.66-.41.98-.2.33.22.41.66.2.98L16.2 12l1.27 1.9z"/></symbol>
<symbol id="5g" viewBox="0 0 24 24"><g><rect fill="none" height="24" width="24"/><rect fill="none" height="24" width="24"/></g><g><g><path d="M18,13h1v2h-5V9h6c0.55,0,1-0.45,1-1v0c0-0.55-0.45-1-1-1h-6c-1.1,0-2,0.9-2,2v6c0,1.1,0.9,2,2,2h5c1.1,0,2-0.9,2-2v-3 c0-0.55-0.45-1-1-1h-2c-0.55,0-1,0.45-1,1v0C17,12.55,17.45,13,18,13z"/><path d="M4,13h4v2H4c-0.55,0-1,0.45-1,1v0c0,0.55,0.45,1,1,1h4c1.1,0,2-0.9,2-2v-2c0-1.1-0.9-2-2-2H5V9h4c0.55,0,1-0.45,1-1v0 c0-0.55-0.45-1-1-1H4C3.45,7,3,7.45,3,8v4C3,12.55,3.45,13,4,13z"/></g></g></symbol>
<symbol id="add_to_queue" viewBox="0 0 24 24"><path d="M21 3H3c-1.1 0-2 .9-2 2v12c0 1.1.9 2 2 2h5v1c0 .55.45 1 1 1h6c.55 0 1-.45 1-1v-1h5c1.1 0 2-.9 2-2V5c0-1.11-.9-2-2-2zm-1 14H4c-.55 0-1-.45-1-1V6c0-.55.45-1 1-1h16c.55 0 1 .45 1 1v10c0 .55-.45 1-1 1zm-4-6c0 .55-.45 1-1 1h-2v2c0 .55-.45 1-1 1s-1-.45-1-1v-2H9c-.55 0-1-.45-1-1s.45-1 1-1h2V8c0-.55.45-1 1-1s1 .45 1 1v2h2c.55 0 1 .45 1 1z"/></symbol>
<symbol id="airplay" viewBox="0 0 24 24"><path d="M8.41 22h7.17c.89 0 1.34-1.08.71-1.71L12.7 16.7c-.39-.39-1.02-.39-1.41 0L7.7 20.29c-.62.63-.18 1.71.71 1.71zM21 3H3c-1.1 0-2 .9-2 2v12c0 1.1.9 2 2 2h3c.55 0 1-.45 1-1s-.45-1-1-1H4c-.55 0-1-.45-1-1V6c0-.55.45-1 1-1h16c.55 0 1 .45 1 1v10c0 .55-.45 1-1 1h-2c-.55 0-1 .45-1 1s.45 1 1 1h3c1.1 0 2-.9 2-2V5c0-1.1-.9-2-2-2z"/></symbol>
<symbol id="album" viewBox="0 0 24 24"><path d="M12 2C6.48 2 2 6.48 2 12s4.48 10 10 10 10-4.48 10-10S17.52 2 12 2zm0 14.5c-2.49 0-4.5-2.01-4.5-4.5S9.51 7.5 12 7.5s4.5 2.01 4.5 4.5-2.01 4.5-4.5 4.5zm0-5.5c-.55 0-1 .45-1 1s.45 1 1 1 1-.45 1-1-.45-1-1-1z"/></symbol>
<symbol id="art_track" viewBox="0 0 24 24"><path d="M21 13h-6c-.55 0-1-.45-1-1s.45-1 1-1h6c.55 0 1 .45 1 1s-.45 1-1 1zm0-6h-6c-.55 0-1 .45-1 1s.45 1 1 1h6c.55 0 1-.45 1-1s-.45-1-1-1zm-6 10h6c.55 0 1-.45 1-1s-.45-1-1-1h-6c-.55 0-1 .45-1 1s.45 1 1 1zm-3-8v6c0 1.1-.9 2-2 2H4c-1.1 0-2-.9-2-2V9c0-1.1.9-2 2-2h6c1.1 0 2 .9 2 2zm-2.1 5.2l-1.26-1.68c-.2-.26-.59-.27-.8-.01L6.5 14.26l-.85-1.03c-.2-.25-.58-.24-.78.01l-.74.95c-.26.33-.02.81.39.81H9.5c.41 0 .65-.47.4-.8z"/></symbol>
<symbol id="av_timer" viewBox="0 0 24 24"><circle cx="12" cy="17" r="1"/><circle cx="7" cy="12" r="1"/><circle cx="17" cy="12" r="1"/><path d="M12 3c-.55 0-1 .45-1 1v2c0 .55.45 1 1 1s1-.45 1-1v-.92c3.31.48 5.87 3.25 6 6.66.14 3.85-3.03 7.2-6.88 7.26C8.19 19.06 5 15.91 5 12c0-1.68.59-3.22 1.58-4.42l4.71 4.72c.39.39 1.02.39 1.41 0 .39-.39.39-1.02 0-1.41L7.26 5.46c-.38-.38-1-.39-1.4-.02C4.1 7.07 3 9.4 3 12c0 5.04 4.14 9.12 9.21 9 4.7-.11 8.63-4.01 8.78-8.71C21.16 7.19 17.07 3 12 3z"/></symbol>
<symbol id="branding_watermark" viewBox="0 0 24 24"><path d="M21 3H3c-1.1 0-2 .9-2 2v14c0 1.1.9 2 2 2h18c1.1 0 2-.9 2-2V5c0-1.1-.9-2-2-2zm-1 16h-7c-.55 0-1-.45-1-1v-4c0-.55.45-1 1-1h7c.55 0 1 .45 1 1v4c0 .55-.45 1-1 1z"/></symbol>
<symbol id="call_to_action" viewBox="0 0 24 24"><path d="M21 3H3c-1.1 0-2 .9-2 2v14c0 1.1.9 2 2 2h18c1.1 0 2-.9 2-2V5c0-1.1-.9-2-2-2zm-1 16H4c-.55 0-1-.45-1-1v-1c0-.55.45-1 1-1h16c.55 0 1 .45 1 1v1c0 .55-.45 1-1 1z"/></symbol>
<symbol id="closed_caption" viewBox="0 0 24 24"><path d="M19 4H5c-1.11 0-2 .9-2 2v12c0 1.1.89 2 2 2h14c1.1 0 2-.9 2-2V6c0-1.1-.9-2-2-2zm-8 6.5c0 .28-.22.5-.5.5H10c-.28 0-.5-.22-.5-.5h-2v3h2c0-.28.22-.5.5-.5h.5c.28 0 .5.22.5.5v.5c0 .55-.45 1-1 1H7c-.55 0-1-.45-1-1v-4c0-.55.45-1 1-1h3c.55 0 1 .45 1 1v.5zm7 0c0 .28-.22.5-.5.5H17c-.28 0-.5-.22-.5-.5h-2v3h2c0-.28.22-.5.5-.5h.5c.28 0 .5.22.5.5v.5c0 .55-.45 1-1 1h-3c-.55 0-1-.45-1-1v-4c0-.55.45-1 1-1h3c.55 0 1 .45 1 1v.5z"/></symbol>
<symbol id="closed_caption_disabled" viewBox="0 0 24 24"><rect fill="none" height="24" width="24"/><path d="M6.83,4H19c1.1,0,2,0.9,2,2v12c0,0.05-0.01,0.1-0.02,0.16l-3.38-3.38C17.84,14.59,18,14.32,18,14v-0.5 c0-0.28-0.22-0.5-0.5-0.5H17c-0.28,0-0.5,0.22-0.5,0.5h-0.17l-1.83-1.83V10.5h2c0,0.28,0.22,0.5,0.5,0.5h0.5 c0.28,0,0.5-0.22,0.5-0.5V10c0-0.55-0.45-1-1-1h-3c-0.55,0-1,0.45-1,1v0.17L6.83,4z M20.49,21.9c-0.39,0.39-1.02,0.39-1.41,0 l-1.9-1.9H5c-1.11,0-2-0.9-2-2V6c0-0.05,0.02-0.1,0.02-0.15L2.1,4.93c-0.39-0.39-0.39-1.02,0-1.41c0.39-0.39,1.02-0.39,1.41,0 l16.97,16.97C20.88,20.88,20.88,21.51,20.49,21.9z M11,13.83L10.17,13H10c-0.28,0-0.5,0.22-0.5,0.5h-2v-3h0.17L6.4,9.22 C6.16,9.41,6,9.68,6,10v4c0,0.55,0.45,1,1,1h3c0.55,0,1-0.45,1-1V13.83z"/></symbol>
<symbol id="control_camera" viewBox="0 0 24 24"><path d="M4.65 9.35L2.7 11.3c-.39.39-.39 1.02 0 1.41l1.95 1.95c.49.49 1.28.49 1.77 0 .48-.49.48-1.27 0-1.76l-.88-.9.88-.89c.48-.49.48-1.27 0-1.76s-1.28-.49-1.77 0zm12.93 0c-.48.49-.48 1.27 0 1.76l.88.89-.88.89c-.48.49-.48 1.27 0 1.76.49.49 1.28.49 1.77 0l1.95-1.95c.39-.39.39-1.02 0-1.41l-1.95-1.95c-.49-.48-1.29-.48-1.77.01zM12 18.46l-.89-.88c-.49-.48-1.27-.48-1.76 0-.49.49-.49 1.28 0 1.77l1.95 1.95c.39.39 1.02.39 1.41 0l1.95-1.95c.49-.49.49-1.28 0-1.77-.49-.48-1.27-.48-1.76 0l-.9.88zM9.35 6.42c.49.48 1.27.48 1.76 0l.89-.88.89.88c.49.48 1.27.48 1.76 0 .49-.49.49-1.28 0-1.77L12.7 2.7c-.39-.39-1.02-.39-1.41 0L9.35 4.65c-.49.49-.49 1.29 0 1.77z"/><circle cx="12" cy="12" r="3"/></symbol>
<symbol id="equalizer" viewBox="0 0 24 24"><path d="M12 20c1.1 0 2-.9 2-2V6c0-1.1-.9-2-2-2s-2 .9-2 2v12c0 1.1.9 2 2 2zm-6 0c1.1 0 2-.9 2-2v-4c0-1.1-.9-2-2-2s-2 .9-2 2v4c0 1.1.9 2 2 2zm10-9v7c0 1.1.9 2 2 2s2-.9 2-2v-7c0-1.1-.9-2-2-2s-2 .9-2 2z"/></symbol>
<symbol id="explicit" viewBox="0 0 24 24"><path d="M19 3H5c-1.1 0-2 .9-2 2v14c0 1.1.9 2 2 2h14c1.1 0 2-.9 2-2V5c0-1.1-.9-2-2-2zm-5 6h-3v2h3c.55 0 1 .45 1 1s-.45 1-1 1h-3v2h3c.55 0 1 .45 1 1s-.45 1-1 1h-4c-.55 0-1-.45-1-1V8c0-.55.45-1 1-1h4c.55 0 1 .45 1 1s-.45 1-1 1z"/></symbol>
<symbol id="fast_forward" viewBox="0 0 24 24"><path d="M5.58 16.89l5.77-4.07c.56-.4.56-1.24 0-1.63L5.58 7.11C4.91 6.65 4 7.12 4 7.93v8.14c0 .81.91 1.28 1.58.82zM13 7.93v8.14c0 .81.91 1.28 1.58.82l5.77-4.07c.56-.4.56-1.24 0-1.63l-5.77-4.07c-.67-.47-1.58 0-1.58.81z"/></symbol>
<symbol id="fast_rewind" viewBox="0 0 24 24"><path d="M11 16.07V7.93c0-.81-.91-1.28-1.58-.82l-5.77 4.07c-.56.4-.56 1.24 0 1.63l5.77 4.07c.67.47 1.58 0 1.58-.81zm1.66-3.25l5.77 4.07c.66.47 1.58-.01 1.58-.82V7.93c0-.81-.91-1.28-1.58-.82l-5.77 4.07c-.57.4-.57 1.24 0 1.64z"/></symbol>
<symbol id="featured_play_list" viewBox="0 0 24 24"><path d="M21 3H3c-1.1 0-2 .9-2 2v14c0 1.1.9 2 2 2h18c1.1 0 2-.9 2-2V5c0-1.1-.9-2-2-2zm-10 8H4c-.55 0-1-.45-1-1s.45-1 1-1h7c.55 0 1 .45 1 1s-.45 1-1 1zm0-4H4c-.55 0-1-.45-1-1s.45-1 1-1h7c.55 0 1 .45 1 1s-.45 1-1 1z"/></symbol>
<symbol id="featured_video" viewBox="0 0 24 24"><path d="M21 3H3c-1.1 0-2 .9-2 2v14c0 1.1.9 2 2 2h18c1.1 0 2-.9 2-2V5c0-1.1-.9-2-2-2zm-10 9H4c-.55 0-1-.45-1-1V6c0-.55.45-1 1-1h7c.55 0 1 .45 1 1v5c0 .55-.45 1-1 1z"/></symbol>
<symbol id="fiber_dvr" viewBox="0 0 24 24"><path d="M4.5 10.5h2v3h-2zm13 0h2v1h-2zM21 3H3c-1.11 0-2 .89-2 2v14c0 1.1.89 2 2 2h18c1.11 0 2-.9 2-2V5c0-1.11-.89-2-2-2zM8 13.5c0 .83-.67 1.5-1.5 1.5h-3c-.28 0-.5-.22-.5-.5v-5c0-.28.22-.5.5-.5h3c.83 0 1.5.67 1.5 1.5v3zm6.1-3.58l-1.27 4.36c-.12.43-.52.72-.96.72s-.84-.29-.96-.72L9.64 9.92c-.14-.46.21-.92.69-.92.32 0 .6.21.69.52l.85 2.91.85-2.91c.09-.31.37-.52.69-.52.48 0 .83.46.69.92zM21 11.5c0 .6-.4 1.15-.9 1.4l.63 1.48c.19.45-.14.96-.63.96-.28 0-.53-.16-.63-.42L18.65 13H17.5v1.31c0 .38-.31.69-.69.69h-.12c-.38 0-.69-.31-.69-.69V9.64c0-.35.29-.64.64-.64h2.86c.83 0 1.5.67 1.5 1.5v1z"/></symbol>
<symbol id="fiber_manual_record" viewBox="0 0 24 24"><circle cx="12" cy="12" r="8"/></symbol>
<symbol id="fiber_new" viewBox="0 0 24 24"><path d="M20 4H4c-1.11 0-1.99.89-1.99 2L2 18c0 1.11.89 2 2 2h16c1.11 0 2-.89 2-2V6c0-1.11-.89-2-2-2zM8.5 14.21c0 .43-.36.79-.79.79-.25 0-.49-.12-.64-.33L4.75 11.5v2.88c0 .35-.28.62-.62.62s-.63-.28-.63-.62V9.79c0-.43.36-.79.79-.79h.05c.26 0 .5.12.65.33l2.26 3.17V9.62c0-.34.28-.62.63-.62s.62.28.62.62v4.59zm5-4.57c0 .35-.28.62-.62.62H11v1.12h1.88c.35 0 .62.28.62.62v.01c0 .35-.28.62-.62.62H11v1.11h1.88c.35 0 .62.28.62.62 0 .35-.28.62-.62.62h-2.53c-.47 0-.85-.38-.85-.85v-4.3c0-.45.38-.83.85-.83h2.53c.35 0 .62.28.62.62v.02zm7 4.36c0 .55-.45 1-1 1h-4c-.55 0-1-.45-1-1V9.62c0-.34.28-.62.62-.62s.62.28.62.62v3.89h1.13v-2.9c0-.35.28-.62.62-.62s.62.28.62.62v2.89h1.12V9.62c0-.35.28-.62.62-.62s.62.28.62.62V14z"/></symbol>
<symbol id="fiber_pin" viewBox="0 0 24 24"><path d="M20 4H4c-1.11 0-1.99.89-1.99 2L2 18c0 1.11.89 2 2 2h16c1.11 0 2-.89 2-2V6c0-1.11-.89-2-2-2zM9 11.5c0 .83-.67 1.5-1.5 1.5h-2v1.25c0 .41-.34.75-.75.75S4 14.66 4 14.25V10c0-.55.45-1 1-1h2.5c.83 0 1.5.67 1.5 1.5v1zm3.5 2.75c0 .41-.34.75-.75.75s-.75-.34-.75-.75v-4.5c0-.41.34-.75.75-.75s.75.34.75.75v4.5zm7.5-.04c0 .44-.35.79-.79.79-.25 0-.49-.12-.64-.33l-2.31-3.17v2.88c0 .34-.28.62-.62.62h-.01c-.35 0-.63-.28-.63-.62V9.83c0-.46.37-.83.83-.83.27 0 .52.13.67.35l2.25 3.15V9.62c0-.34.28-.62.62-.62h.01c.34 0 .62.28.62.62v4.59zM5.5 10.5h2v1h-2z"/></symbol>
<symbol id="fiber_smart_record" viewBox="0 0 24 24"><circle cx="9" cy="12" r="8"/><path d="M17 5.55v.18c0 .37.23.69.57.85C19.6 7.54 21 9.61 21 12s-1.4 4.46-3.43 5.42c-.34.16-.57.47-.57.84v.18c0 .68.71 1.11 1.32.82C21.08 18.01 23 15.23 23 12s-1.92-6.01-4.68-7.27c-.61-.28-1.32.14-1.32.82z"/></symbol>
<symbol id="forward_10" viewBox="0 0 24 24"><path d="M18.92 13c-.5 0-.91.37-.98.86-.48 3.37-3.77 5.84-7.42 4.96-2.25-.54-3.91-2.27-4.39-4.53C5.32 10.42 8.27 7 12 7v2.79c0 .45.54.67.85.35l3.79-3.79c.2-.2.2-.51 0-.71l-3.79-3.79c-.31-.31-.85-.09-.85.36V5c-4.94 0-8.84 4.48-7.84 9.6.6 3.11 2.9 5.5 5.99 6.19 4.83 1.08 9.15-2.2 9.77-6.67.09-.59-.4-1.12-1-1.12zm-8.02 3v-4.27h-.09l-1.77.63v.69l1.01-.31V16zm3.42-4.22c-.18-.07-.37-.1-.59-.1s-.41.03-.59.1-.33.18-.45.33-.23.34-.29.57-.1.5-.1.82v.74c0 .32.04.6.11.82s.17.42.3.57.28.26.46.33.37.1.59.1.41-.03.59-.1.33-.18.45-.33.22-.34.29-.57.1-.5.1-.82v-.74c0-.32-.04-.6-.11-.82s-.17-.42-.3-.57-.29-.26-.46-.33zm.01 2.57c0 .19-.01.35-.04.48s-.06.24-.11.32-.11.14-.19.17-.16.05-.25.05-.18-.02-.25-.05-.14-.09-.19-.17-.09-.19-.12-.32-.04-.29-.04-.48v-.97c0-.19.01-.35.04-.48s.06-.23.12-.31.11-.14.19-.17.16-.05.25-.05.18.02.25.05.14.09.19.17.09.18.12.31.04.29.04.48v.97z"/></symbol>
<symbol id="forward_30" viewBox="0 0 24 24"><path d="M18.92 13c-.5 0-.91.37-.98.86-.48 3.37-3.77 5.84-7.42 4.96-2.25-.54-3.91-2.27-4.39-4.53C5.32 10.42 8.27 7 12 7v2.79c0 .45.54.67.85.35l3.79-3.79c.2-.2.2-.51 0-.71l-3.79-3.79c-.31-.31-.85-.09-.85.36V5c-4.94 0-8.84 4.48-7.84 9.6.6 3.11 2.9 5.5 5.99 6.19 4.83 1.08 9.15-2.2 9.77-6.67.09-.59-.4-1.12-1-1.12zm-8.38 2.22c-.06.05-.12.09-.2.12s-.17.04-.27.04c-.09 0-.17-.01-.25-.04s-.14-.06-.2-.11-.1-.1-.13-.17-.05-.14-.05-.22h-.85c0 .21.04.39.12.55s.19.28.33.38.29.18.46.23.35.07.53.07c.21 0 .41-.03.6-.08s.34-.14.48-.24.24-.24.32-.39.12-.33.12-.53c0-.23-.06-.44-.18-.61s-.3-.3-.54-.39c.1-.05.2-.1.28-.17s.15-.14.2-.22.1-.16.13-.25.04-.18.04-.27c0-.2-.04-.37-.11-.53s-.17-.28-.3-.38-.28-.18-.46-.23-.37-.08-.59-.08c-.19 0-.38.03-.54.08s-.32.13-.44.23-.23.22-.3.37-.11.3-.11.48h.85c0-.07.02-.14.05-.2s.07-.11.12-.15.11-.07.18-.1.14-.03.22-.03c.1 0 .18.01.25.04s.13.06.18.11.08.11.11.17.04.14.04.22c0 .18-.05.32-.16.43s-.26.16-.48.16h-.43v.66h.45c.11 0 .2.01.29.04s.16.06.22.11.11.12.14.2.05.18.05.29c0 .09-.01.17-.04.24s-.08.11-.13.17zm3.9-3.44c-.18-.07-.37-.1-.59-.1s-.41.03-.59.1-.33.18-.45.33-.23.34-.29.57-.1.5-.1.82v.74c0 .32.04.6.11.82s.17.42.3.57.28.26.46.33.37.1.59.1.41-.03.59-.1.33-.18.45-.33.22-.34.29-.57.1-.5.1-.82v-.74c0-.32-.04-.6-.11-.82s-.17-.42-.3-.57-.28-.26-.46-.33zm.01 2.57c0 .19-.01.35-.04.48s-.06.24-.11.32-.11.14-.19.17-.16.05-.25.05-.18-.02-.25-.05-.14-.09-.19-.17-.09-.19-.12-.32-.04-.29-.04-.48v-.97c0-.19.01-.35.04-.48s.06-.23.12-.31.11-.14.19-.17.16-.05.25-.05.18.02.25.05.14.09.19.17.09.18.12.31.04.29.04.48v.97z"/></symbol>
<symbol id="forward_5" viewBox="0 0 24 24"><path d="M18.87 13c-.5 0-.91.37-.98.86-.48 3.37-3.77 5.84-7.42 4.96-2.25-.54-3.91-2.27-4.39-4.53C5.27 10.42 8.22 7 11.95 7v2.79c0 .45.54.67.85.35l3.79-3.79c.2-.2.2-.51 0-.71L12.8 1.85c-.31-.31-.85-.09-.85.35V5c-4.94 0-8.84 4.48-7.84 9.6.6 3.11 2.9 5.5 5.99 6.19 4.83 1.08 9.15-2.2 9.77-6.67.09-.59-.4-1.12-1-1.12zm-6.44 2.15c-.05.07-.11.13-.18.17s-.17.06-.27.06c-.17 0-.31-.05-.42-.15s-.17-.24-.19-.41h-.84c.01.2.05.37.13.53s.19.28.32.39.29.19.46.24.35.08.53.08c.24 0 .46-.04.64-.12s.33-.18.45-.31.21-.28.27-.45.09-.35.09-.54c0-.22-.03-.43-.09-.6s-.14-.33-.25-.45-.25-.22-.41-.28-.34-.1-.55-.1c-.07 0-.14.01-.2.02s-.13.02-.18.04-.1.03-.15.05-.08.04-.11.05l.11-.92h1.7v-.71H10.9l-.25 2.17.67.17c.03-.03.06-.06.1-.09s.07-.05.12-.07.1-.04.15-.05.13-.02.2-.02c.12 0 .22.02.3.05s.16.09.21.15.1.14.13.24.04.19.04.31-.01.22-.03.31-.06.17-.11.24z"/></symbol>
<symbol id="games" viewBox="0 0 24 24"><path d="M15 7.29V3c0-.55-.45-1-1-1h-4c-.55 0-1 .45-1 1v4.29c0 .13.05.26.15.35l2.5 2.5c.2.2.51.2.71 0l2.5-2.5c.09-.09.14-.21.14-.35zM7.29 9H3c-.55 0-1 .45-1 1v4c0 .55.45 1 1 1h4.29c.13 0 .26-.05.35-.15l2.5-2.5c.2-.2.2-.51 0-.71l-2.5-2.5C7.55 9.05 7.43 9 7.29 9zM9 16.71V21c0 .55.45 1 1 1h4c.55 0 1-.45 1-1v-4.29c0-.13-.05-.26-.15-.35l-2.5-2.5c-.2-.2-.51-.2-.71 0l-2.5 2.5c-.09.09-.14.21-.14.35zm7.35-7.56l-2.5 2.5c-.2.2-.2.51 0 .71l2.5 2.5c.09.09.22.15.35.15H21c.55 0 1-.45 1-1v-4c0-.55-.45-1-1-1h-4.29c-.14-.01-.26.04-.36.14z"/></symbol>
<symbol id="hd" viewBox="0 0 24 24"><path d="M19 3H5c-1.11 0-2 .9-2 2v14c0 1.1.89 2 2 2h14c1.1 0 2-.9 2-2V5c0-1.1-.9-2-2-2zm-8.75 12c-.41 0-.75-.34-.75-.75V13h-2v1.25c0 .41-.34.75-.75.75S6 14.66 6 14.25v-4.5c0-.41.34-.75.75-.75s.75.34.75.75v1.75h2V9.75c0-.41.34-.75.75-.75s.75.34.75.75v4.5c0 .41-.34.75-.75.75zm3.25-6H17c.55 0 1 .45 1 1v4c0 .55-.45 1-1 1h-3.5c-.28 0-.5-.22-.5-.5v-5c0-.28.22-.5.5-.5zm1 4.5h2v-3h-2v3z"/></symbol>
<symbol id="hearing" viewBox="0 0 24 24"><path d="M17 20c-.29 0-.56-.06-.76-.15-.71-.37-1.21-.88-1.71-2.38-.51-1.56-1.47-2.29-2.39-3-.79-.61-1.61-1.24-2.32-2.53C9.29 10.98 9 9.93 9 9c0-2.8 2.2-5 5-5 2.56 0 4.63 1.85 4.95 4.31.06.4.41.69.82.69h.34c.5 0 .89-.44.83-.94C20.49 4.59 17.61 2 14 2c-3.93 0-7 3.07-7 7 0 1.26.38 2.65 1.07 3.9.91 1.65 1.98 2.48 2.85 3.15.81.62 1.39 1.07 1.71 2.05.6 1.82 1.37 2.84 2.73 3.55.51.23 1.07.35 1.64.35 1.84 0 3.39-1.24 3.86-2.93.14-.54-.25-1.07-.81-1.07h-.35c-.38 0-.68.27-.81.63-.26.79-1.01 1.37-1.89 1.37zM6.97 1.97c-.43-.43-1.12-.39-1.5.07C3.93 3.94 3 6.36 3 9s.93 5.06 2.47 6.95c.38.46 1.07.5 1.49.08.36-.36.39-.93.07-1.32C5.77 13.16 5 11.17 5 9s.77-4.16 2.04-5.7c.33-.4.29-.97-.07-1.33zM11.5 9c0 1.38 1.12 2.5 2.5 2.5s2.5-1.12 2.5-2.5-1.12-2.5-2.5-2.5-2.5 1.12-2.5 2.5z"/></symbol>
<symbol id="hearing_disabled" viewBox="0 0 24 24"><g><rect fill="none" height="24" width="24"/><path d="M16.96,3.3c-0.32-0.39-0.29-0.96,0.07-1.32l0.01-0.01c0.42-0.42,1.12-0.38,1.49,0.08C20.07,3.94,21,6.36,21,9 c0,2.57-0.89,4.94-2.36,6.81l-1.43-1.43C18.33,12.88,19,11.02,19,9C19,6.83,18.23,4.84,16.96,3.3z M7.49,4.66 C8.23,4.24,9.08,4,10,4c2.8,0,5,2.2,5,5c0,0.8-0.23,1.69-0.63,2.54l1.48,1.48c0.02-0.04,0.05-0.08,0.08-0.13 C16.62,11.65,17,10.26,17,9c0-3.93-3.07-7-7-7C8.51,2,7.15,2.44,6.03,3.2L7.49,4.66z M10,6.5c-0.21,0-0.4,0.03-0.59,0.08l3.01,3.01 C12.47,9.4,12.5,9.21,12.5,9C12.5,7.62,11.38,6.5,10,6.5z M20.49,20.49L3.51,3.51c-0.39-0.39-1.02-0.39-1.41,0 c-0.39,0.39-0.39,1.02,0,1.41l1.42,1.42c-0.2,0.49-0.35,1-0.43,1.54C2.99,8.47,3.47,9,4.06,9H4.1c0.48,0,0.89-0.35,0.96-0.82 C5.08,8.1,5.1,8.02,5.12,7.95l6.62,6.62c-0.88,0.68-1.78,1.41-2.27,2.9c-0.5,1.5-1,2.01-1.71,2.38C7.56,19.94,7.29,20,7,20 c-0.88,0-1.63-0.58-1.9-1.37C4.97,18.24,4.57,18,4.15,18C3.49,18,3,18.64,3.2,19.26C3.73,20.85,5.23,22,7,22 c0.57,0,1.13-0.12,1.64-0.35c1.36-0.71,2.13-1.73,2.73-3.55c0.32-0.98,0.9-1.43,1.71-2.05c0.03-0.02,0.05-0.04,0.08-0.06l5.91,5.91 c0.39,0.39,1.02,0.39,1.41,0C20.88,21.51,20.88,20.88,20.49,20.49z"/></g></symbol>
<symbol id="high_quality" viewBox="0 0 24 24"><path d="M19 4H5c-1.11 0-2 .9-2 2v12c0 1.1.89 2 2 2h14c1.1 0 2-.9 2-2V6c0-1.1-.9-2-2-2zm-8.75 11c-.41 0-.75-.34-.75-.75V13h-2v1.25c0 .41-.34.75-.75.75S6 14.66 6 14.25v-4.5c0-.41.34-.75.75-.75s.75.34.75.75v1.75h2V9.75c0-.41.34-.75.75-.75s.75.34.75.75v4.5c0 .41-.34.75-.75.75zM18 14c0 .55-.45 1-1 1h-.75v.75c0 .41-.34.75-.75.75s-.75-.34-.75-.75V15H14c-.55 0-1-.45-1-1v-4c0-.55.45-1 1-1h3c.55 0 1 .45 1 1v4zm-3.5-.5h2v-3h-2v3z"/></symbol>
<symbol id="library_add" viewBox="0 0 24 24"><path d="M3 6c-.55 0-1 .45-1 1v13c0 1.1.9 2 2 2h13c.55 0 1-.45 1-1s-.45-1-1-1H5c-.55 0-1-.45-1-1V7c0-.55-.45-1-1-1zm17-4H8c-1.1 0-2 .9-2 2v12c0 1.1.9 2 2 2h12c1.1 0 2-.9 2-2V4c0-1.1-.9-2-2-2zm-2 9h-3v3c0 .55-.45 1-1 1s-1-.45-1-1v-3h-3c-.55 0-1-.45-1-1s.45-1 1-1h3V6c0-.55.45-1 1-1s1 .45 1 1v3h3c.55 0 1 .45 1 1s-.45 1-1 1z"/></symbol>
<symbol id="library_add_check" viewBox="0 0 24 24"><path d="M20,2H8C6.9,2,6,2.9,6,4v12c0,1.1,0.9,2,2,2h12c1.1,0,2-0.9,2-2V4C22,2.9,21.1,2,20,2z M11.76,13.28L9.69,11.2 c-0.38-0.39-0.38-1.01,0-1.4l0,0c0.39-0.39,1.02-0.39,1.41,0l1.36,1.37l4.42-4.46c0.39-0.39,1.02-0.39,1.41,0l0,0 c0.38,0.39,0.38,1.01,0,1.4l-5.13,5.17C12.79,13.68,12.15,13.68,11.76,13.28z M3,6L3,6C2.45,6,2,6.45,2,7v13c0,1.1,0.9,2,2,2h13 c0.55,0,1-0.45,1-1v0c0-0.55-0.45-1-1-1H5c-0.55,0-1-0.45-1-1V7C4,6.45,3.55,6,3,6z"/><path d="M0,0h24v24H0V0z" fill="none"/></symbol>
<symbol id="library_books" viewBox="0 0 24 24"><path d="M3 6c-.55 0-1 .45-1 1v13c0 1.1.9 2 2 2h13c.55 0 1-.45 1-1s-.45-1-1-1H5c-.55 0-1-.45-1-1V7c0-.55-.45-1-1-1zm17-4H8c-1.1 0-2 .9-2 2v12c0 1.1.9 2 2 2h12c1.1 0 2-.9 2-2V4c0-1.1-.9-2-2-2zm-2 9h-8c-.55 0-1-.45-1-1s.45-1 1-1h8c.55 0 1 .45 1 1s-.45 1-1 1zm-4 4h-4c-.55 0-1-.45-1-1s.45-1 1-1h4c.55 0 1 .45 1 1s-.45 1-1 1zm4-8h-8c-.55 0-1-.45-1-1s.45-1 1-1h8c.55 0 1 .45 1 1s-.45 1-1 1z"/></symbol>
<symbol id="library_music" viewBox="0 0 24 24"><path d="M20 2H8c-1.1 0-2 .9-2 2v12c0 1.1.9 2 2 2h12c1.1 0 2-.9 2-2V4c0-1.1-.9-2-2-2zm-3 5h-2v5.37c0 1.27-.9 2.44-2.16 2.6-1.69.23-3.11-1.25-2.8-2.95.2-1.1 1.18-1.95 2.3-2.02.63-.04 1.2.16 1.66.51V6c0-.55.45-1 1-1h2c.55 0 1 .45 1 1s-.45 1-1 1zM3 6c-.55 0-1 .45-1 1v13c0 1.1.9 2 2 2h13c.55 0 1-.45 1-1s-.45-1-1-1H5c-.55 0-1-.45-1-1V7c0-.55-.45-1-1-1z"/></symbol>
<symbol id="loop" viewBox="0 0 24 24"><path d="M12 4V2.21c0-.45-.54-.67-.85-.35l-2.8 2.79c-.2.2-.2.51 0 .71l2.79 2.79c.32.31.86.09.86-.36V6c3.31 0 6 2.69 6 6 0 .79-.15 1.56-.44 2.25-.15.36-.04.77.23 1.04.51.51 1.37.33 1.64-.34.37-.91.57-1.91.57-2.95 0-4.42-3.58-8-8-8zm0 14c-3.31 0-6-2.69-6-6 0-.79.15-1.56.44-2.25.15-.36.04-.77-.23-1.04-.51-.51-1.37-.33-1.64.34C4.2 9.96 4 10.96 4 12c0 4.42 3.58 8 8 8v1.79c0 .45.54.67.85.35l2.79-2.79c.2-.2.2-.51 0-.71l-2.79-2.79c-.31-.31-.85-.09-.85.36V18z"/></symbol>
<symbol id="mic" viewBox="0 0 24 24"><path d="M12 14c1.66 0 3-1.34 3-3V5c0-1.66-1.34-3-3-3S9 3.34 9 5v6c0 1.66 1.34 3 3 3zm5.91-3c-.49 0-.9.36-.98.85C16.52 14.2 14.47 16 12 16s-4.52-1.8-4.93-4.15c-.08-.49-.49-.85-.98-.85-.61 0-1.09.54-1 1.14.49 3 2.89 5.35 5.91 5.78V20c0 .55.45 1 1 1s1-.45 1-1v-2.08c3.02-.43 5.42-2.78 5.91-5.78.1-.6-.39-1.14-1-1.14z"/></symbol>
<symbol id="mic_none" viewBox="0 0 24 24"><path d="M12 14c1.66 0 3-1.34 3-3V5c0-1.66-1.34-3-3-3S9 3.34 9 5v6c0 1.66 1.34 3 3 3zm-1-9c0-.55.45-1 1-1s1 .45 1 1v6c0 .55-.45 1-1 1s-1-.45-1-1V5zm6.91 6c-.49 0-.9.36-.98.85C16.52 14.2 14.47 16 12 16s-4.52-1.8-4.93-4.15c-.08-.49-.49-.85-.98-.85-.61 0-1.09.54-1 1.14.49 3 2.89 5.35 5.91 5.78V20c0 .55.45 1 1 1s1-.45 1-1v-2.08c3.02-.43 5.42-2.78 5.91-5.78.1-.6-.39-1.14-1-1.14z"/></symbol>
<symbol id="mic_off" viewBox="0 0 24 24"><path d="M15 10.6V5c0-1.66-1.34-3-3-3-1.54 0-2.79 1.16-2.96 2.65L15 10.6zm3.08.4c-.41 0-.77.3-.83.71-.05.32-.12.64-.22.93l1.27 1.27c.3-.6.52-1.25.63-1.94.07-.51-.33-.97-.85-.97zM3.71 3.56c-.39.39-.39 1.02 0 1.41L9 10.27v.43c0 1.19.6 2.32 1.63 2.91.75.43 1.41.44 2.02.31l1.66 1.66c-.71.33-1.5.52-2.31.52-2.54 0-4.88-1.77-5.25-4.39-.06-.41-.42-.71-.83-.71-.52 0-.92.46-.85.97.46 2.96 2.96 5.3 5.93 5.75V20c0 .55.45 1 1 1s1-.45 1-1v-2.28c.91-.13 1.77-.45 2.55-.9l3.49 3.49c.39.39 1.02.39 1.41 0 .39-.39.39-1.02 0-1.41L5.12 3.56c-.39-.39-1.02-.39-1.41 0z"/></symbol>
<symbol id="missed_video_call" viewBox="0 0 24 24"><path d="M17 10.5V7c0-.55-.45-1-1-1H4c-.55 0-1 .45-1 1v10c0 .55.45 1 1 1h12c.55 0 1-.45 1-1v-3.5l2.29 2.29c.63.63 1.71.18 1.71-.71V8.91c0-.89-1.08-1.34-1.71-.71L17 10.5zm-6.29 3.79c-.39.39-1.02.39-1.41 0l-3.18-3.18v2.55H5V9.72c0-.28.22-.5.5-.5h3.94v1.11H6.89l3.11 3.1 4.22-4.22.78.79-4.29 4.29z"/></symbol>
<symbol id="movie" viewBox="0 0 24 24"><path d="M18 4l1.82 3.64c.08.16-.04.36-.22.36h-1.98c-.38 0-.73-.21-.89-.55L15 4h-2l1.82 3.64c.08.16-.04.36-.22.36h-1.98c-.38 0-.73-.21-.89-.55L10 4H8l1.82 3.64c.08.16-.04.36-.22.36H7.62c-.38 0-.73-.21-.9-.55L5 4H4c-1.1 0-2 .9-2 2v12c0 1.1.9 2 2 2h16c1.1 0 2-.9 2-2V5c0-.55-.45-1-1-1h-3z"/></symbol>
<symbol id="music_video" viewBox="0 0 24 24"><path d="M21 3H3c-1.1 0-2 .9-2 2v14c0 1.1.9 2 2 2h18c1.1 0 2-.9 2-2V5c0-1.1-.9-2-2-2zm-1 16H4c-.55 0-1-.45-1-1V6c0-.55.45-1 1-1h16c.55 0 1 .45 1 1v12c0 .55-.45 1-1 1zM8.05 15.54C7.72 13.64 9.16 12 11 12c.35 0 .69.07 1 .18V8c0-1.1.9-2 2-2h2c.55 0 1 .45 1 1s-.45 1-1 1h-2v7.03c-.02 1.82-1.66 3.26-3.55 2.92-1.21-.21-2.2-1.2-2.4-2.41z"/></symbol>
<symbol id="new_releases" viewBox="0 0 24 24"><path d="M22.42 11.34l-1.86-2.12.26-2.81c.05-.5-.29-.96-.77-1.07l-2.76-.63-1.44-2.43c-.26-.43-.79-.61-1.25-.41L12 3 9.41 1.89c-.46-.2-1-.02-1.25.41L6.71 4.72l-2.75.62c-.49.11-.83.56-.78 1.07l.26 2.8-1.86 2.13c-.33.38-.33.94 0 1.32l1.86 2.12-.26 2.82c-.05.5.29.96.77 1.07l2.76.63 1.44 2.42c.26.43.79.61 1.26.41L12 21l2.59 1.11c.46.2 1 .02 1.25-.41l1.44-2.43 2.76-.63c.49-.11.82-.57.77-1.07l-.26-2.81 1.86-2.12c.34-.36.34-.92.01-1.3zM13 17h-2v-2h2v2zm-1-4c-.55 0-1-.45-1-1V8c0-.55.45-1 1-1s1 .45 1 1v4c0 .55-.45 1-1 1z"/></symbol>
<symbol id="note" viewBox="0 0 24 24"><path d="M21.41 9.41l-4.83-4.83c-.37-.37-.88-.58-1.41-.58H4c-1.1 0-2 .9-2 2v12.01c0 1.1.89 1.99 1.99 1.99H20c1.1 0 2-.9 2-2v-7.17c0-.53-.21-1.04-.59-1.42zM15 5.5l5.5 5.5H16c-.55 0-1-.45-1-1V5.5z"/></symbol>
<symbol id="not_interested" viewBox="0 0 24 24"><path d="M12 2C6.48 2 2 6.48 2 12s4.48 10 10 10 10-4.48 10-10S17.52 2 12 2zm0 18c-4.42 0-8-3.58-8-8 0-1.85.63-3.55 1.69-4.9L16.9 18.31C15.55 19.37 13.85 20 12 20zm6.31-3.1L7.1 5.69C8.45 4.63 10.15 4 12 4c4.42 0 8 3.58 8 8 0 1.85-.63 3.55-1.69 4.9z"/></symbol>
<symbol id="pause" viewBox="0 0 24 24"><path d="M8 19c1.1 0 2-.9 2-2V7c0-1.1-.9-2-2-2s-2 .9-2 2v10c0 1.1.9 2 2 2zm6-12v10c0 1.1.9 2 2 2s2-.9 2-2V7c0-1.1-.9-2-2-2s-2 .9-2 2z"/></symbol>
<symbol id="pause_circle_filled" viewBox="0 0 24 24"><path d="M12 2C6.48 2 2 6.48 2 12s4.48 10 10 10 10-4.48 10-10S17.52 2 12 2zm-2 14c-.55 0-1-.45-1-1V9c0-.55.45-1 1-1s1 .45 1 1v6c0 .55-.45 1-1 1zm4 0c-.55 0-1-.45-1-1V9c0-.55.45-1 1-1s1 .45 1 1v6c0 .55-.45 1-1 1z"/></symbol>
<symbol id="pause_circle_outline" viewBox="0 0 24 24"><path d="M10 16c.55 0 1-.45 1-1V9c0-.55-.45-1-1-1s-1 .45-1 1v6c0 .55.45 1 1 1zm2-14C6.48 2 2 6.48 2 12s4.48 10 10 10 10-4.48 10-10S17.52 2 12 2zm0 18c-4.41 0-8-3.59-8-8s3.59-8 8-8 8 3.59 8 8-3.59 8-8 8zm2-4c.55 0 1-.45 1-1V9c0-.55-.45-1-1-1s-1 .45-1 1v6c0 .55.45 1 1 1z"/></symbol>
<symbol id="playlist_add" viewBox="0 0 24 24"><path d="M13 10H3c-.55 0-1 .45-1 1s.45 1 1 1h10c.55 0 1-.45 1-1s-.45-1-1-1zm0-4H3c-.55 0-1 .45-1 1s.45 1 1 1h10c.55 0 1-.45 1-1s-.45-1-1-1zm5 8v-3c0-.55-.45-1-1-1s-1 .45-1 1v3h-3c-.55 0-1 .45-1 1s.45 1 1 1h3v3c0 .55.45 1 1 1s1-.45 1-1v-3h3c.55 0 1-.45 1-1s-.45-1-1-1h-3zM3 16h6c.55 0 1-.45 1-1s-.45-1-1-1H3c-.55 0-1 .45-1 1s.45 1 1 1z"/></symbol>
<symbol id="playlist_add_check" viewBox="0 0 24 24"><path d="M13 10H3c-.55 0-1 .45-1 1s.45 1 1 1h10c.55 0 1-.45 1-1s-.45-1-1-1zm0-4H3c-.55 0-1 .45-1 1s.45 1 1 1h10c.55 0 1-.45 1-1s-.45-1-1-1zM3 16h6c.55 0 1-.45 1-1s-.45-1-1-1H3c-.55 0-1 .45-1 1s.45 1 1 1zm19.21-3.79l.09.09c.39.39.39 1.02 0 1.41l-5.58 5.59c-.39.39-1.02.39-1.41 0l-3.09-3.09c-.39-.39-.39-1.02 0-1.41l.09-.09c.39-.39 1.02-.39 1.41 0l2.3 2.3 4.78-4.79c.38-.4 1.02-.4 1.41-.01z"/></symbol>
<symbol id="playlist_play" viewBox="0 0 24 24"><path d="M5 10h10c.55 0 1 .45 1 1s-.45 1-1 1H5c-.55 0-1-.45-1-1s.45-1 1-1zm0-4h10c.55 0 1 .45 1 1s-.45 1-1 1H5c-.55 0-1-.45-1-1s.45-1 1-1zm0 8h6c.55 0 1 .45 1 1s-.45 1-1 1H5c-.55 0-1-.45-1-1s.45-1 1-1zm9 .88v4.23c0 .39.42.63.76.43l3.53-2.12c.32-.19.32-.66 0-.86l-3.53-2.12c-.34-.19-.76.05-.76.44z"/></symbol>
<symbol id="play_arrow" viewBox="0 0 24 24"><path d="M8 6.82v10.36c0 .79.87 1.27 1.54.84l8.14-5.18c.62-.39.62-1.29 0-1.69L9.54 5.98C8.87 5.55 8 6.03 8 6.82z"/></symbol>
<symbol id="play_circle_filled" viewBox="0 0 24 24"><path d="M12 2C6.48 2 2 6.48 2 12s4.48 10 10 10 10-4.48 10-10S17.52 2 12 2zm-2 13.5v-7c0-.41.47-.65.8-.4l4.67 3.5c.27.2.27.6 0 .8l-4.67 3.5c-.33.25-.8.01-.8-.4z"/></symbol>
<symbol id="play_circle_outline" viewBox="0 0 24 24"><path d="M10.8 15.9l4.67-3.5c.27-.2.27-.6 0-.8L10.8 8.1c-.33-.25-.8-.01-.8.4v7c0 .41.47.65.8.4zM12 2C6.48 2 2 6.48 2 12s4.48 10 10 10 10-4.48 10-10S17.52 2 12 2zm0 18c-4.41 0-8-3.59-8-8s3.59-8 8-8 8 3.59 8 8-3.59 8-8 8z"/></symbol>
<symbol id="queue" viewBox="0 0 24 24"><path d="M3 6c-.55 0-1 .45-1 1v13c0 1.1.9 2 2 2h13c.55 0 1-.45 1-1s-.45-1-1-1H5c-.55 0-1-.45-1-1V7c0-.55-.45-1-1-1zm17-4H8c-1.1 0-2 .9-2 2v12c0 1.1.9 2 2 2h12c1.1 0 2-.9 2-2V4c0-1.1-.9-2-2-2zm-2 9h-3v3c0 .55-.45 1-1 1s-1-.45-1-1v-3h-3c-.55 0-1-.45-1-1s.45-1 1-1h3V6c0-.55.45-1 1-1s1 .45 1 1v3h3c.55 0 1 .45 1 1s-.45 1-1 1z"/></symbol>
<symbol id="queue_music" viewBox="0 0 24 24"><path d="M14 6H4c-.55 0-1 .45-1 1s.45 1 1 1h10c.55 0 1-.45 1-1s-.45-1-1-1zm0 4H4c-.55 0-1 .45-1 1s.45 1 1 1h10c.55 0 1-.45 1-1s-.45-1-1-1zM4 16h6c.55 0 1-.45 1-1s-.45-1-1-1H4c-.55 0-1 .45-1 1s.45 1 1 1zM19 6c-1.1 0-2 .9-2 2v6.18c-.31-.11-.65-.18-1-.18-1.84 0-3.28 1.64-2.95 3.54.21 1.21 1.2 2.2 2.41 2.41 1.9.33 3.54-1.11 3.54-2.95V8h2c.55 0 1-.45 1-1s-.45-1-1-1h-2z"/></symbol>
<symbol id="queue_play_next" viewBox="0 0 24 24"><path d="M21 3H3c-1.1 0-2 .9-2 2v12c0 1.1.9 2 2 2h5v1c0 .55.45 1 1 1h6c.55 0 1-.45 1-1v-1h1c.55 0 1-.45 1-1s-.45-1-1-1H4c-.55 0-1-.45-1-1V6c0-.55.45-1 1-1h16c.55 0 1 .45 1 1v6c0 .55.45 1 1 1s1-.45 1-1V5c0-1.1-.9-2-2-2zm-8 7V8c0-.55-.45-1-1-1s-1 .45-1 1v2H9c-.55 0-1 .45-1 1s.45 1 1 1h2v2c0 .55.45 1 1 1s1-.45 1-1v-2h2c.55 0 1-.45 1-1s-.45-1-1-1h-2zm10.29 8.71l-3.04 3.04c-.41.41-1.09.41-1.5 0-.41-.41-.41-1.09 0-1.5L21 18l-2.25-2.25c-.41-.41-.41-1.09 0-1.5.41-.41 1.09-.41 1.5 0l3.04 3.04c.39.39.39 1.03 0 1.42z"/></symbol>
<symbol id="radio" viewBox="0 0 24 24"><path d="M3.24 6.15C2.51 6.43 2 7.17 2 8v12c0 1.1.9 2 2 2h16c1.11 0 2-.9 2-2V8c0-1.1-.9-2-2-2H8.3l7.43-3c.46-.19.68-.71.49-1.17-.19-.46-.71-.68-1.17-.49L3.24 6.15zM7 20c-1.66 0-3-1.34-3-3s1.34-3 3-3 3 1.34 3 3-1.34 3-3 3zm13-8h-2v-1c0-.55-.45-1-1-1s-1 .45-1 1v1H4V9c0-.55.45-1 1-1h14c.55 0 1 .45 1 1v3z"/></symbol>
<symbol id="recent_actors" viewBox="0 0 24 24"><path d="M21 6v12c0 .55.45 1 1 1s1-.45 1-1V6c0-.55-.45-1-1-1s-1 .45-1 1zm-3 13c.55 0 1-.45 1-1V6c0-.55-.45-1-1-1s-1 .45-1 1v12c0 .55.45 1 1 1zM14 5H2c-.55 0-1 .45-1 1v12c0 .55.45 1 1 1h12c.55 0 1-.45 1-1V6c0-.55-.45-1-1-1zM8 7.75c1.24 0 2.25 1.01 2.25 2.25S9.24 12.25 8 12.25 5.75 11.24 5.75 10 6.76 7.75 8 7.75zM12.5 17h-9v-.75c0-1.5 3-2.25 4.5-2.25s4.5.75 4.5 2.25V17z"/></symbol>
<symbol id="remove_from_queue" viewBox="0 0 24 24"><path d="M21 3H3c-1.1 0-2 .9-2 2v12c0 1.1.9 2 2 2h5v1c0 .55.45 1 1 1h6c.55 0 1-.45 1-1v-1h5c1.1 0 2-.9 2-2V5c0-1.11-.9-2-2-2zm-1 14H4c-.55 0-1-.45-1-1V6c0-.55.45-1 1-1h16c.55 0 1 .45 1 1v10c0 .55-.45 1-1 1zm-4-6c0 .55-.45 1-1 1H9c-.55 0-1-.45-1-1s.45-1 1-1h6c.55 0 1 .45 1 1z"/></symbol>
<symbol id="repeat" viewBox="0 0 24 24"><path d="M7 7h10v1.79c0 .45.54.67.85.35l2.79-2.79c.2-.2.2-.51 0-.71l-2.79-2.79c-.31-.31-.85-.09-.85.36V5H6c-.55 0-1 .45-1 1v4c0 .55.45 1 1 1s1-.45 1-1V7zm10 10H7v-1.79c0-.45-.54-.67-.85-.35l-2.79 2.79c-.2.2-.2.51 0 .71l2.79 2.79c.31.31.85.09.85-.36V19h11c.55 0 1-.45 1-1v-4c0-.55-.45-1-1-1s-1 .45-1 1v3z"/></symbol>
<symbol id="repeat_one" viewBox="0 0 24 24"><path d="M7 7h10v1.79c0 .45.54.67.85.35l2.79-2.79c.2-.2.2-.51 0-.71l-2.79-2.79c-.31-.31-.85-.09-.85.36V5H6c-.55 0-1 .45-1 1v4c0 .55.45 1 1 1s1-.45 1-1V7zm10 10H7v-1.79c0-.45-.54-.67-.85-.35l-2.79 2.79c-.2.2-.2.51 0 .71l2.79 2.79c.31.31.85.09.85-.36V19h11c.55 0 1-.45 1-1v-4c0-.55-.45-1-1-1s-1 .45-1 1v3zm-4-2.75V9.81c0-.45-.36-.81-.81-.81-.13 0-.25.03-.36.09l-1.49.74c-.21.1-.34.32-.34.55 0 .34.28.62.62.62h.88v3.25c0 .41.34.75.75.75s.75-.34.75-.75z"/></symbol>
<symbol id="replay" viewBox="0 0 24 24"><path d="M12 5V2.21c0-.45-.54-.67-.85-.35l-3.8 3.79c-.2.2-.2.51 0 .71l3.79 3.79c.32.31.86.09.86-.36V7c3.73 0 6.68 3.42 5.86 7.29-.47 2.27-2.31 4.1-4.57 4.57-3.57.75-6.75-1.7-7.23-5.01-.07-.48-.49-.85-.98-.85-.6 0-1.08.53-1 1.13.62 4.39 4.8 7.64 9.53 6.72 3.12-.61 5.63-3.12 6.24-6.24C20.84 9.48 16.94 5 12 5z"/></symbol>
<symbol id="replay_10" viewBox="0 0 24 24"><path d="M11.99 5V2.21c0-.45-.54-.67-.85-.35L7.35 5.65c-.2.2-.2.51 0 .71l3.79 3.79c.31.31.85.09.85-.35V7c3.73 0 6.68 3.42 5.86 7.29-.47 2.27-2.31 4.1-4.57 4.57-3.57.75-6.75-1.7-7.23-5.01-.06-.48-.48-.85-.98-.85-.6 0-1.08.53-1 1.13.62 4.39 4.8 7.64 9.53 6.72 3.12-.61 5.63-3.12 6.24-6.24.99-5.13-2.9-9.61-7.85-9.61zm-1.1 11h-.85v-3.26l-1.01.31v-.69l1.77-.63h.09V16zm4.28-1.76c0 .32-.03.6-.1.82s-.17.42-.29.57-.28.26-.45.33-.37.1-.59.1-.41-.03-.59-.1-.33-.18-.46-.33-.23-.34-.3-.57-.11-.5-.11-.82v-.74c0-.32.03-.6.1-.82s.17-.42.29-.57.28-.26.45-.33.37-.1.59-.1.41.03.59.1.33.18.46.33.23.34.3.57.11.5.11.82v.74zm-.85-.86c0-.19-.01-.35-.04-.48s-.07-.23-.12-.31-.11-.14-.19-.17-.16-.05-.25-.05-.18.02-.25.05-.14.09-.19.17-.09.18-.12.31-.04.29-.04.48v.97c0 .19.01.35.04.48s.07.24.12.32.11.14.19.17.16.05.25.05.18-.02.25-.05.14-.09.19-.17.09-.19.11-.32.04-.29.04-.48v-.97z"/></symbol>
<symbol id="replay_30" viewBox="0 0 24 24"><path d="M12 5V2.21c0-.45-.54-.67-.85-.35l-3.8 3.79c-.2.2-.2.51 0 .71l3.79 3.79c.32.31.86.09.86-.36V7c3.73 0 6.68 3.42 5.86 7.29-.47 2.27-2.31 4.1-4.57 4.57-3.57.75-6.75-1.7-7.23-5.01-.07-.48-.49-.85-.98-.85-.6 0-1.08.53-1 1.13.62 4.39 4.8 7.64 9.53 6.72 3.12-.61 5.63-3.12 6.24-6.24C20.84 9.48 16.94 5 12 5zm-2.44 8.49h.45c.21 0 .37-.05.48-.16s.16-.25.16-.43c0-.08-.01-.15-.04-.22s-.06-.12-.11-.17-.11-.09-.18-.11-.16-.04-.25-.04c-.08 0-.15.01-.22.03s-.13.05-.18.1-.09.09-.12.15-.05.13-.05.2h-.85c0-.18.04-.34.11-.48s.17-.27.3-.37.27-.18.44-.23.35-.08.54-.08c.21 0 .41.03.59.08s.33.13.46.23.23.23.3.38.11.33.11.53c0 .09-.01.18-.04.27s-.07.17-.13.25-.12.15-.2.22-.17.12-.28.17c.24.09.42.21.54.39s.18.38.18.61c0 .2-.04.38-.12.53s-.18.29-.32.39-.29.19-.48.24-.38.08-.6.08c-.18 0-.36-.02-.53-.07s-.33-.12-.46-.23-.25-.23-.33-.38-.12-.34-.12-.55h.85c0 .08.02.15.05.22s.07.12.13.17.12.09.2.11.16.04.25.04c.1 0 .19-.01.27-.04s.15-.07.2-.12.1-.11.13-.18.04-.15.04-.24c0-.11-.02-.21-.05-.29s-.08-.15-.14-.2-.13-.09-.22-.11-.18-.04-.29-.04h-.47v-.65zm5.74.75c0 .32-.03.6-.1.82s-.17.42-.29.57-.28.26-.45.33-.37.1-.59.1-.41-.03-.59-.1-.33-.18-.46-.33-.23-.34-.3-.57-.11-.5-.11-.82v-.74c0-.32.03-.6.1-.82s.17-.42.29-.57.28-.26.45-.33.37-.1.59-.1.41.03.59.1.33.18.46.33.23.34.3.57.11.5.11.82v.74zm-.85-.86c0-.19-.01-.35-.04-.48s-.07-.23-.12-.31-.11-.14-.19-.17-.16-.05-.25-.05-.18.02-.25.05-.14.09-.19.17-.09.18-.12.31-.04.29-.04.48v.97c0 .19.01.35.04.48s.07.24.12.32.11.14.19.17.16.05.25.05.18-.02.25-.05.14-.09.19-.17.09-.19.11-.32c.03-.13.04-.29.04-.48v-.97z"/></symbol>
<symbol id="replay_5" viewBox="0 0 24 24"><path d="M12 5V2.21c0-.45-.54-.67-.85-.35l-3.8 3.79c-.2.2-.2.51 0 .71l3.79 3.79c.32.31.86.09.86-.36V7c3.73 0 6.68 3.42 5.86 7.29-.47 2.26-2.14 3.99-4.39 4.53-3.64.88-6.93-1.6-7.42-4.96-.06-.49-.48-.86-.97-.86-.6 0-1.08.53-1 1.13.63 4.47 4.94 7.75 9.77 6.67 3.09-.69 5.39-3.08 5.99-6.19C20.84 9.48 16.94 5 12 5zm-1.31 8.9l.25-2.17h2.39v.71h-1.7l-.11.92c.03-.02.07-.03.11-.05s.09-.04.15-.05.12-.03.18-.04.13-.02.2-.02c.21 0 .39.03.55.1s.3.16.41.28.2.27.25.45.09.38.09.6c0 .19-.03.37-.09.54s-.15.32-.27.45-.27.24-.45.31-.39.12-.64.12c-.18 0-.36-.03-.53-.08s-.32-.14-.46-.24-.24-.24-.32-.39-.13-.33-.13-.53h.84c.02.18.08.32.19.41s.25.15.42.15c.11 0 .2-.02.27-.06s.14-.1.18-.17.08-.15.11-.25.03-.2.03-.31-.01-.21-.04-.31-.07-.17-.13-.24-.13-.12-.21-.15-.19-.05-.3-.05c-.08 0-.15.01-.2.02s-.11.03-.15.05-.08.05-.12.07-.07.06-.1.09l-.67-.16z"/></symbol>
<symbol id="shuffle" viewBox="0 0 24 24"><path d="M10.59 9.17L6.12 4.7c-.39-.39-1.02-.39-1.41 0-.39.39-.39 1.02 0 1.41l4.46 4.46 1.42-1.4zm4.76-4.32l1.19 1.19L4.7 17.88c-.39.39-.39 1.02 0 1.41.39.39 1.02.39 1.41 0L17.96 7.46l1.19 1.19c.31.31.85.09.85-.36V4.5c0-.28-.22-.5-.5-.5h-3.79c-.45 0-.67.54-.36.85zm-.52 8.56l-1.41 1.41 3.13 3.13-1.2 1.2c-.31.31-.09.85.36.85h3.79c.28 0 .5-.22.5-.5v-3.79c0-.45-.54-.67-.85-.35l-1.19 1.19-3.13-3.14z"/></symbol>
<symbol id="skip_next" viewBox="0 0 24 24"><path d="M7.58 16.89l5.77-4.07c.56-.4.56-1.24 0-1.63L7.58 7.11C6.91 6.65 6 7.12 6 7.93v8.14c0 .81.91 1.28 1.58.82zM16 7v10c0 .55.45 1 1 1s1-.45 1-1V7c0-.55-.45-1-1-1s-1 .45-1 1z"/></symbol>
<symbol id="skip_previous" viewBox="0 0 24 24"><path d="M7 6c.55 0 1 .45 1 1v10c0 .55-.45 1-1 1s-1-.45-1-1V7c0-.55.45-1 1-1zm3.66 6.82l5.77 4.07c.66.47 1.58-.01 1.58-.82V7.93c0-.81-.91-1.28-1.58-.82l-5.77 4.07c-.57.4-.57 1.24 0 1.64z"/></symbol>
<symbol id="slow_motion_video" viewBox="0 0 24 24"><path d="M10 8.5v7c0 .41.47.65.8.4l4.67-3.5c.27-.2.27-.6 0-.8L10.8 8.1c-.33-.25-.8-.01-.8.4zm1-5.27c0-.64-.59-1.13-1.21-.99-1.12.26-2.18.7-3.12 1.3-.53.34-.61 1.1-.16 1.55.32.32.83.4 1.21.16.77-.49 1.62-.85 2.54-1.05.44-.1.74-.51.74-.97zM5.1 6.51c-.46-.45-1.21-.38-1.55.16-.6.94-1.04 2-1.3 3.12-.14.62.34 1.21.98 1.21.45 0 .87-.3.96-.74.2-.91.57-1.77 1.05-2.53.26-.39.18-.9-.14-1.22zM3.23 13c-.64 0-1.13.59-.99 1.21.26 1.12.7 2.17 1.3 3.12.34.54 1.1.61 1.55.16.32-.32.4-.83.15-1.21-.49-.76-.85-1.61-1.05-2.53-.09-.45-.5-.75-.96-.75zm3.44 7.45c.95.6 2 1.04 3.12 1.3.62.14 1.21-.35 1.21-.98 0-.45-.3-.87-.74-.96-.91-.2-1.77-.57-2.53-1.05-.39-.24-.89-.17-1.21.16-.46.44-.39 1.19.15 1.53zM22 12c0 4.73-3.3 8.71-7.73 9.74-.62.15-1.22-.34-1.22-.98 0-.46.31-.86.75-.97 3.55-.82 6.2-4 6.2-7.79s-2.65-6.97-6.2-7.79c-.44-.1-.75-.51-.75-.97 0-.64.6-1.13 1.22-.98C18.7 3.29 22 7.27 22 12z"/></symbol>
<symbol id="snooze" viewBox="0 0 24 24"><path d="M10 11h2.63l-3.72 4.35C8.36 16 8.82 17 9.67 17H14c.55 0 1-.45 1-1s-.45-1-1-1h-2.63l3.72-4.35c.55-.65.09-1.65-.76-1.65H10c-.55 0-1 .45-1 1s.45 1 1 1zm11.3-4.58c-.35.42-.98.48-1.41.13l-3.07-2.56c-.42-.36-.48-.99-.12-1.41.35-.42.98-.48 1.41-.13l3.07 2.56c.42.36.48.99.12 1.41zm-18.6 0c.35.43.98.48 1.4.13l3.07-2.56c.43-.36.49-.99.13-1.41-.35-.43-.98-.48-1.4-.13L2.82 5.01c-.42.36-.48.99-.12 1.41zM12 6c3.86 0 7 3.14 7 7s-3.14 7-7 7-7-3.14-7-7 3.14-7 7-7m0-2c-4.97 0-9 4.03-9 9s4.03 9 9 9 9-4.03 9-9-4.03-9-9-9z"/></symbol>
<symbol id="sort_by_alpha" viewBox="0 0 24 24"><path d="M12.93 2.65c-.2-.2-.51-.2-.71 0l-2.01 2.01h4.72l-2-2.01zm-.7 18.7c.2.2.51.2.71 0l1.98-1.98h-4.66l1.97 1.98zm-1.25-3.62c.6 0 1.01-.6.79-1.16L8.04 7.03c-.18-.46-.63-.76-1.12-.76-.49 0-.94.3-1.12.76l-3.74 9.53c-.22.56.19 1.16.79 1.16.35 0 .67-.22.8-.55l.71-1.9h5.11l.71 1.9c.13.34.45.56.8.56zm-6.01-4.09l1.94-5.18 1.94 5.18H4.97zm16.08 2.5h-5.33l5.72-8.29c.46-.66-.02-1.57-.82-1.57h-6.48c-.44 0-.79.36-.79.8v.01c0 .44.36.8.79.8h5.09l-5.73 8.28c-.46.66.02 1.57.82 1.57h6.72c.44 0 .79-.36.79-.79.02-.45-.34-.81-.78-.81z"/></symbol>
<symbol id="speed" viewBox="0 0 24 24"><path d="M0 0h24v24H0z" fill="none"/><path d="M19.46 10a1 1 0 0 0-.07 1 7.55 7.55 0 0 1 .52 1.81 8 8 0 0 1-.69 4.73 1 1 0 0 1-.89.53H5.68a1 1 0 0 1-.89-.54A8 8 0 0 1 13 6.06a7.69 7.69 0 0 1 2.11.56 1 1 0 0 0 1-.07 1 1 0 0 0-.17-1.76A10 10 0 0 0 3.35 19a2 2 0 0 0 1.72 1h13.85a2 2 0 0 0 1.74-1 10 10 0 0 0 .55-8.89 1 1 0 0 0-1.75-.11z"/><path d="M10.59 12.59a2 2 0 0 0 2.83 2.83l5.66-8.49z"/></symbol>
<symbol id="stop" viewBox="0 0 24 24"><path d="M8 6h8c1.1 0 2 .9 2 2v8c0 1.1-.9 2-2 2H8c-1.1 0-2-.9-2-2V8c0-1.1.9-2 2-2z"/></symbol>
<symbol id="stop_circle" viewBox="0 0 24 24"><g><rect fill="none" height="24" width="24"/><rect fill="none" height="24" width="24"/></g><g><path d="M9,16h6c0.55,0,1-0.45,1-1V9c0-0.55-0.45-1-1-1H9C8.45,8,8,8.45,8,9v6 C8,15.55,8.45,16,9,16z M12,2C6.48,2,2,6.48,2,12s4.48,10,10,10s10-4.48,10-10S17.52,2,12,2L12,2z" fill-rule="evenodd"/></g></symbol>
<symbol id="subscriptions" viewBox="0 0 24 24"><path d="M19 8H5c-.55 0-1-.45-1-1s.45-1 1-1h14c.55 0 1 .45 1 1s-.45 1-1 1zm-2-6H7c-.55 0-1 .45-1 1s.45 1 1 1h10c.55 0 1-.45 1-1s-.45-1-1-1zm5 10v8c0 1.1-.9 2-2 2H4c-1.1 0-2-.9-2-2v-8c0-1.1.9-2 2-2h16c1.1 0 2 .9 2 2zm-6.81 3.56L10 12.73v6.53l5.19-2.82c.35-.19.35-.69 0-.88z"/></symbol>
<symbol id="subtitles" viewBox="0 0 24 24"><path d="M20 4H4c-1.1 0-2 .9-2 2v12c0 1.1.9 2 2 2h16c1.1 0 2-.9 2-2V6c0-1.1-.9-2-2-2zM5 12h2c.55 0 1 .45 1 1s-.45 1-1 1H5c-.55 0-1-.45-1-1s.45-1 1-1zm8 6H5c-.55 0-1-.45-1-1s.45-1 1-1h8c.55 0 1 .45 1 1s-.45 1-1 1zm6 0h-2c-.55 0-1-.45-1-1s.45-1 1-1h2c.55 0 1 .45 1 1s-.45 1-1 1zm0-4h-8c-.55 0-1-.45-1-1s.45-1 1-1h8c.55 0 1 .45 1 1s-.45 1-1 1z"/></symbol>
<symbol id="surround_sound" viewBox="0 0 24 24"><path d="M20 4H4c-1.1 0-2 .9-2 2v12c0 1.1.9 2 2 2h16c1.1 0 2-.9 2-2V6c0-1.1-.9-2-2-2zM7.11 16.89c-.43.43-1.14.39-1.51-.09C4.53 15.39 4 13.69 4 12s.53-3.38 1.59-4.8c.37-.48 1.08-.53 1.51-.1.35.35.39.9.1 1.29C6.4 9.46 6 10.73 6 12s.4 2.53 1.2 3.6c.3.39.26.94-.09 1.29zM12 16c-2.21 0-4-1.79-4-4s1.79-4 4-4 4 1.79 4 4-1.79 4-4 4zm4.9.9c-.35-.35-.39-.9-.09-1.29C17.6 14.54 18 13.27 18 12s-.4-2.53-1.2-3.6c-.3-.39-.26-.95.09-1.3.43-.43 1.14-.39 1.51.09 1.07 1.41 1.6 3.1 1.6 4.8 0 1.69-.53 3.38-1.59 4.8-.37.49-1.08.54-1.51.11zM12 10c-1.1 0-2 .9-2 2s.9 2 2 2 2-.9 2-2-.9-2-2-2z"/></symbol>
<symbol id="videocam" viewBox="0 0 24 24"><path d="M17 10.5V7c0-.55-.45-1-1-1H4c-.55 0-1 .45-1 1v10c0 .55.45 1 1 1h12c.55 0 1-.45 1-1v-3.5l2.29 2.29c.63.63 1.71.18 1.71-.71V8.91c0-.89-1.08-1.34-1.71-.71L17 10.5z"/></symbol>
<symbol id="videocam_off" viewBox="0 0 24 24"><path d="M21 14.2V8.91c0-.89-1.08-1.34-1.71-.71L17 10.5V7c0-.55-.45-1-1-1h-5.61l8.91 8.91c.62.63 1.7.18 1.7-.71zM2.71 2.56c-.39.39-.39 1.02 0 1.41L4.73 6H4c-.55 0-1 .45-1 1v10c0 .55.45 1 1 1h12c.21 0 .39-.08.55-.18l2.48 2.48c.39.39 1.02.39 1.41 0 .39-.39.39-1.02 0-1.41L4.12 2.56c-.39-.39-1.02-.39-1.41 0z"/></symbol>
<symbol id="video_call" viewBox="0 0 24 24"><path d="M17 10.5V7c0-.55-.45-1-1-1H4c-.55 0-1 .45-1 1v10c0 .55.45 1 1 1h12c.55 0 1-.45 1-1v-3.5l2.29 2.29c.63.63 1.71.18 1.71-.71V8.91c0-.89-1.08-1.34-1.71-.71L17 10.5zM13 13h-2v2c0 .55-.45 1-1 1s-1-.45-1-1v-2H7c-.55 0-1-.45-1-1s.45-1 1-1h2V9c0-.55.45-1 1-1s1 .45 1 1v2h2c.55 0 1 .45 1 1s-.45 1-1 1z"/></symbol>
<symbol id="video_label" viewBox="0 0 24 24"><path d="M21 3H3c-1.1 0-2 .9-2 2v14c0 1.1.9 2 2 2h18c1.1 0 2-.9 2-2V5c0-1.1-.9-2-2-2zm0 13H3V6c0-.55.45-1 1-1h16c.55 0 1 .45 1 1v10z"/></symbol>
<symbol id="video_library" viewBox="0 0 24 24"><path d="M3 6c-.55 0-1 .45-1 1v13c0 1.1.9 2 2 2h13c.55 0 1-.45 1-1s-.45-1-1-1H5c-.55 0-1-.45-1-1V7c0-.55-.45-1-1-1zm17-4H8c-1.1 0-2 .9-2 2v12c0 1.1.9 2 2 2h12c1.1 0 2-.9 2-2V4c0-1.1-.9-2-2-2zm-8 12.5v-9l5.47 4.1c.27.2.27.6 0 .8L12 14.5z"/></symbol>
<symbol id="video_settings" viewBox="0 0 24 24"><g><rect fill="none" height="24" width="24"/><rect fill="none" height="24" width="24"/></g><g><g><path d="M4,6h16c0.55,0,1,0.45,1,1v4h2V6c0-1.1-0.9-2-2-2H3C1.9,4,1,4.9,1,6v12c0,1.1,0.9,2,2,2h9v-2H4c-0.55,0-1-0.45-1-1V7 C3,6.45,3.45,6,4,6z"/><polygon points="15,12 9,8 9,16"/><path d="M22.71,18.43c0.03-0.29,0.04-0.58,0.01-0.86l1.07-0.85c0.1-0.08,0.12-0.21,0.06-0.32l-1.03-1.79 c-0.06-0.11-0.19-0.15-0.31-0.11L21.23,15c-0.23-0.17-0.48-0.31-0.75-0.42l-0.2-1.36C20.26,13.09,20.16,13,20.03,13h-2.07 c-0.12,0-0.23,0.09-0.25,0.21l-0.2,1.36c-0.26,0.11-0.51,0.26-0.74,0.42l-1.28-0.5c-0.12-0.05-0.25,0-0.31,0.11l-1.03,1.79 c-0.06,0.11-0.04,0.24,0.06,0.32l1.07,0.86c-0.03,0.29-0.04,0.58-0.01,0.86l-1.07,0.85c-0.1,0.08-0.12,0.21-0.06,0.32l1.03,1.79 c0.06,0.11,0.19,0.15,0.31,0.11l1.27-0.5c0.23,0.17,0.48,0.31,0.75,0.42l0.2,1.36c0.02,0.12,0.12,0.21,0.25,0.21h2.07 c0.12,0,0.23-0.09,0.25-0.21l0.2-1.36c0.26-0.11,0.51-0.26,0.74-0.42l1.28,0.5c0.12,0.05,0.25,0,0.31-0.11l1.03-1.79 c0.06-0.11,0.04-0.24-0.06-0.32L22.71,18.43z M19,19.5c-0.83,0-1.5-0.67-1.5-1.5s0.67-1.5,1.5-1.5s1.5,0.67,1.5,1.5 S19.83,19.5,19,19.5z"/></g></g></symbol>
<symbol id="volume_down" viewBox="0 0 24 24"><path d="M18.5 12c0-1.77-1.02-3.29-2.5-4.03v8.05c1.48-.73 2.5-2.25 2.5-4.02zM5 10v4c0 .55.45 1 1 1h3l3.29 3.29c.63.63 1.71.18 1.71-.71V6.41c0-.89-1.08-1.34-1.71-.71L9 9H6c-.55 0-1 .45-1 1z"/></symbol>
<symbol id="volume_mute" viewBox="0 0 24 24"><path d="M7 10v4c0 .55.45 1 1 1h3l3.29 3.29c.63.63 1.71.18 1.71-.71V6.41c0-.89-1.08-1.34-1.71-.71L11 9H8c-.55 0-1 .45-1 1z"/></symbol>
<symbol id="volume_off" viewBox="0 0 24 24"><path d="M3.63 3.63c-.39.39-.39 1.02 0 1.41L7.29 8.7 7 9H4c-.55 0-1 .45-1 1v4c0 .55.45 1 1 1h3l3.29 3.29c.63.63 1.71.18 1.71-.71v-4.17l4.18 4.18c-.49.37-1.02.68-1.6.91-.36.15-.58.53-.58.92 0 .72.73 1.18 1.39.91.8-.33 1.55-.77 2.22-1.31l1.34 1.34c.39.39 1.02.39 1.41 0 .39-.39.39-1.02 0-1.41L5.05 3.63c-.39-.39-1.02-.39-1.42 0zM19 12c0 .82-.15 1.61-.41 2.34l1.53 1.53c.56-1.17.88-2.48.88-3.87 0-3.83-2.4-7.11-5.78-8.4-.59-.23-1.22.23-1.22.86v.19c0 .38.25.71.61.85C17.18 6.54 19 9.06 19 12zm-8.71-6.29l-.17.17L12 7.76V6.41c0-.89-1.08-1.33-1.71-.7zM16.5 12c0-1.77-1.02-3.29-2.5-4.03v1.79l2.48 2.48c.01-.08.02-.16.02-.24z"/></symbol>
<symbol id="volume_up" viewBox="0 0 24 24"><path d="M3 10v4c0 .55.45 1 1 1h3l3.29 3.29c.63.63 1.71.18 1.71-.71V6.41c0-.89-1.08-1.34-1.71-.71L7 9H4c-.55 0-1 .45-1 1zm13.5 2c0-1.77-1.02-3.29-2.5-4.03v8.05c1.48-.73 2.5-2.25 2.5-4.02zM14 4.45v.2c0 .38.25.71.6.85C17.18 6.53 19 9.06 19 12s-1.82 5.47-4.4 6.5c-.36.14-.6.47-.6.85v.2c0 .63.63 1.07 1.21.85C18.6 19.11 21 15.84 21 12s-2.4-7.11-5.79-8.4c-.58-.23-1.21.22-1.21.85z"/></symbol>
<symbol id="web" viewBox="0 0 24 24"><path d="M20 4H4c-1.1 0-1.99.9-1.99 2L2 18c0 1.1.9 2 2 2h16c1.1 0 2-.9 2-2V6c0-1.1-.9-2-2-2zM4 9h10.5v3.5H4V9zm0 5.5h10.5V18H5c-.55 0-1-.45-1-1v-2.5zM19 18h-2.5V9H20v8c0 .55-.45 1-1 1z"/></symbol>
<symbol id="web_asset" viewBox="0 0 24 24"><path d="M19 4H5c-1.11 0-2 .9-2 2v12c0 1.1.89 2 2 2h14c1.1 0 2-.9 2-2V6c0-1.1-.89-2-2-2zm-1 14H6c-.55 0-1-.45-1-1V8h14v9c0 .55-.45 1-1 1z"/></symbol>
</svg>