<svg xmlns="http://www.w3.org/2000/svg">
<symbol id="add_ic_call" viewBox="0 0 24 24"><path d="M0 0h24v24H0V0z" fill="none"/><path d="M14 8h2v2c0 .55.45 1 1 1s1-.45 1-1V8h2c.55 0 1-.45 1-1s-.45-1-1-1h-2V4c0-.55-.45-1-1-1s-1 .45-1 1v2h-2c-.55 0-1 .45-1 1s.45 1 1 1zm5.21 7.27l-2.54-.29c-.61-.07-1.21.14-1.64.57l-1.84 1.84c-2.83-1.44-5.15-3.75-6.59-6.59l1.85-1.85c.43-.43.64-1.04.57-1.64l-.29-2.52c-.11-1.01-.97-1.78-1.98-1.78H5.02c-1.13 0-2.07.94-2 2.07.53 8.54 7.36 15.36 15.89 15.89 1.13.07 2.07-.87 2.07-2v-1.73c.01-1-.76-1.86-1.77-1.97z"/></symbol>
<symbol id="alternate_email" viewBox="0 0 24 24"><path d="M0 0h24v24H0V0z" fill="none"/><path d="M12.72 2.03C6.63 1.6 1.6 6.63 2.03 12.72 2.39 18.01 7.01 22 12.31 22H16c.55 0 1-.45 1-1s-.45-1-1-1h-3.67c-3.73 0-7.15-2.42-8.08-6.03-1.49-5.8 3.91-11.21 9.71-9.71C17.58 5.18 20 8.6 20 12.33v1.1c0 .79-.71 1.57-1.5 1.57s-1.5-.78-1.5-1.57v-1.25c0-2.51-1.78-4.77-4.26-5.12-3.4-.49-6.27 2.45-5.66 5.87.34 1.91 1.83 3.49 3.72 3.94 1.84.43 3.59-.16 4.74-1.33.89 1.22 2.67 1.86 4.3 1.21 1.34-.53 2.16-1.9 2.16-3.34v-1.09c0-5.31-3.99-9.93-9.28-10.29zM12 15c-1.66 0-3-1.34-3-3s1.34-3 3-3 3 1.34 3 3-1.34 3-3 3z"/></symbol>
<symbol id="business" viewBox="0 0 24 24"><path d="M0 0h24v24H0V0z" fill="none"/><path d="M12 7V5c0-1.1-.9-2-2-2H4c-1.1 0-2 .9-2 2v14c0 1.1.9 2 2 2h16c1.1 0 2-.9 2-2V9c0-1.1-.9-2-2-2h-8zM6 19H4v-2h2v2zm0-4H4v-2h2v2zm0-4H4V9h2v2zm0-4H4V5h2v2zm4 12H8v-2h2v2zm0-4H8v-2h2v2zm0-4H8V9h2v2zm0-4H8V5h2v2zm9 12h-7v-2h2v-2h-2v-2h2v-2h-2V9h7c.55 0 1 .45 1 1v8c0 .55-.45 1-1 1zm-1-8h-2v2h2v-2zm0 4h-2v2h2v-2z"/></symbol>
<symbol id="call" viewBox="0 0 24 24"><path d="M0 0h24v24H0V0z" fill="none"/><path d="M19.23 15.26l-2.54-.29c-.61-.07-1.21.14-1.64.57l-1.84 1.84c-2.83-1.44-5.15-3.75-6.59-6.59l1.85-1.85c.43-.43.64-1.03.57-1.64l-.29-2.52c-.12-1.01-.97-1.77-1.99-1.77H5.03c-1.13 0-2.07.94-2 2.07.53 8.54 7.36 15.36 15.89 15.89 1.13.07 2.07-.87 2.07-2v-1.73c.01-1.01-.75-1.86-1.76-1.98z"/></symbol>
<symbol id="call_end" viewBox="0 0 24 24"><path d="M0 0h24v24H0V0z" fill="none"/><path d="M4.51 15.48l2-1.59c.48-.38.76-.96.76-1.57v-2.6c3.02-.98 6.29-.99 9.32 0v2.61c0 .61.28 1.19.76 1.57l1.99 1.58c.8.63 1.94.57 2.66-.15l1.22-1.22c.8-.8.8-2.13-.05-2.88-6.41-5.66-16.07-5.66-22.48 0-.85.75-.85 2.08-.05 2.88l1.22 1.22c.71.72 1.85.78 2.65.15z"/></symbol>
<symbol id="call_made" viewBox="0 0 24 24"><path d="M0 0h24v24H0V0z" fill="none"/><path d="M9 6c0 .56.45 1 1 1h5.59L4.7 17.89c-.39.39-.39 1.02 0 1.41.39.39 1.02.39 1.41 0L17 8.41V14c0 .55.45 1 1 1s1-.45 1-1V6c0-.55-.45-1-1-1h-8c-.55 0-1 .45-1 1z"/></symbol>
<symbol id="call_merge" viewBox="0 0 24 24"><path d="M0 0h24v24H0V0z" fill="none"/><path d="M17.7 19.7c.39-.39.39-1.02 0-1.41l-2.7-2.7L13.59 17l2.7 2.7c.39.39 1.03.39 1.41 0zM8.71 8H11v5.59l-4.71 4.7c-.39.39-.39 1.02 0 1.41.39.39 1.02.39 1.41 0l5.3-5.3V8h2.29c.45 0 .67-.54.35-.85l-3.29-3.29c-.2-.2-.51-.2-.71 0L8.35 7.15c-.31.31-.09.85.36.85z"/></symbol>
<symbol id="call_missed" viewBox="0 0 24 24"><path d="M0 0h24v24H0V0z" fill="none"/><path d="M18.89 7.7L12 14.59 6.41 9H10c.55 0 1-.45 1-1s-.45-1-1-1H4c-.55 0-1 .45-1 1v6c0 .55.45 1 1 1s1-.45 1-1v-3.59l6.29 6.29c.39.39 1.02.39 1.41 0l7.59-7.59c.39-.39.39-1.02 0-1.41-.38-.38-1.02-.38-1.4 0z"/></symbol>
<symbol id="call_missed_outgoing" viewBox="0 0 24 24"><path d="M0 0h24v24H0z" fill="none"/><path d="M3.7 9.11l7.59 7.59c.39.39 1.02.39 1.41 0l6.3-6.3V14c0 .55.45 1 1 1s1-.45 1-1V8c0-.55-.45-1-1-1h-6c-.55 0-1 .45-1 1s.45 1 1 1h3.59L12 14.59 5.11 7.7c-.39-.39-1.02-.39-1.41 0-.38.39-.38 1.03 0 1.41z"/></symbol>
<symbol id="call_received" viewBox="0 0 24 24"><path d="M0 0h24v24H0V0z" fill="none"/><path d="M19.3 4.71c-.39-.39-1.02-.39-1.41 0L7 15.59V10c0-.55-.45-1-1-1s-1 .45-1 1v8c0 .55.45 1 1 1h8c.55 0 1-.45 1-1s-.45-1-1-1H8.41L19.3 6.11c.38-.38.38-1.02 0-1.4z"/></symbol>
<symbol id="call_split" viewBox="0 0 24 24"><path d="M0 0h24v24H0V0z" fill="none"/><path d="M14.85 4.85l1.44 1.44-2.88 2.88 1.42 1.42 2.88-2.88 1.44 1.44c.31.31.85.09.85-.36V4.5c0-.28-.22-.5-.5-.5h-4.29c-.45 0-.67.54-.36.85zM8.79 4H4.5c-.28 0-.5.22-.5.5v4.29c0 .45.54.67.85.35L6.29 7.7 11 12.4V19c0 .55.45 1 1 1s1-.45 1-1v-7c0-.26-.11-.52-.29-.71l-5-5.01 1.44-1.44c.31-.3.09-.84-.36-.84z"/></symbol>
<symbol id="cancel_presentation" viewBox="0 0 24 24"><path d="M0 0h24v24H0V0z" fill="none"/><path d="M21 3H3c-1.1 0-2 .9-2 2v14c0 1.1.9 2 2 2h18c1.1 0 2-.9 2-2V5c0-1.1-.9-2-2-2zm0 15c0 .55-.45 1-1 1H4c-.55 0-1-.45-1-1V6c0-.55.45-1 1-1h16c.55 0 1 .45 1 1v12zm-5.71-9.3c-.39-.39-1.02-.39-1.41 0L12 10.59 10.11 8.7c-.39-.39-1.02-.39-1.41 0-.39.39-.39 1.02 0 1.41L10.59 12 8.7 13.89c-.39.39-.39 1.02 0 1.41.39.39 1.02.39 1.41 0L12 13.41l1.89 1.89c.39.39 1.02.39 1.41 0 .39-.39.39-1.02 0-1.41L13.41 12l1.89-1.89c.38-.38.38-1.02-.01-1.41z"/></symbol>
<symbol id="chat" viewBox="0 0 24 24"><path d="M0 0h24v24H0V0z" fill="none"/><path d="M20 2H4c-1.1 0-1.99.9-1.99 2L2 22l4-4h14c1.1 0 2-.9 2-2V4c0-1.1-.9-2-2-2zM7 9h10c.55 0 1 .45 1 1s-.45 1-1 1H7c-.55 0-1-.45-1-1s.45-1 1-1zm6 5H7c-.55 0-1-.45-1-1s.45-1 1-1h6c.55 0 1 .45 1 1s-.45 1-1 1zm4-6H7c-.55 0-1-.45-1-1s.45-1 1-1h10c.55 0 1 .45 1 1s-.45 1-1 1z"/></symbol>
<symbol id="chat_bubble" viewBox="0 0 24 24"><path d="M0 0h24v24H0V0z" fill="none"/><path d="M20 2H4c-1.1 0-2 .9-2 2v18l4-4h14c1.1 0 2-.9 2-2V4c0-1.1-.9-2-2-2z"/></symbol>
<symbol id="chat_bubble_outline" viewBox="0 0 24 24"><path d="M0 0h24v24H0V0z" fill="none"/><path d="M20 2H4c-1.1 0-2 .9-2 2v18l4-4h14c1.1 0 2-.9 2-2V4c0-1.1-.9-2-2-2zm-1 14H6l-2 2V5c0-.55.45-1 1-1h14c.55 0 1 .45 1 1v10c0 .55-.45 1-1 1z"/></symbol>
<symbol id="clear_all" viewBox="0 0 24 24"><path d="M0 0h24v24H0V0z" fill="none"/><path d="M6 13h12c.55 0 1-.45 1-1s-.45-1-1-1H6c-.55 0-1 .45-1 1s.45 1 1 1zm-2 4h12c.55 0 1-.45 1-1s-.45-1-1-1H4c-.55 0-1 .45-1 1s.45 1 1 1zm3-9c0 .55.45 1 1 1h12c.55 0 1-.45 1-1s-.45-1-1-1H8c-.55 0-1 .45-1 1z"/></symbol>
<symbol id="comment" viewBox="0 0 24 24"><path d="M0 0h24v24H0V0z" fill="none"/><path d="M21.99 4c0-1.1-.89-2-1.99-2H4c-1.1 0-2 .9-2 2v12c0 1.1.9 2 2 2h14l4 4-.01-18zM17 14H7c-.55 0-1-.45-1-1s.45-1 1-1h10c.55 0 1 .45 1 1s-.45 1-1 1zm0-3H7c-.55 0-1-.45-1-1s.45-1 1-1h10c.55 0 1 .45 1 1s-.45 1-1 1zm0-3H7c-.55 0-1-.45-1-1s.45-1 1-1h10c.55 0 1 .45 1 1s-.45 1-1 1z"/></symbol>
<symbol id="contacts" viewBox="0 0 24 24"><path d="M0 0h24v24H0V0z" fill="none"/><path d="M19 0H5c-.55 0-1 .45-1 1s.45 1 1 1h14c.55 0 1-.45 1-1s-.45-1-1-1zM5 24h14c.55 0 1-.45 1-1s-.45-1-1-1H5c-.55 0-1 .45-1 1s.45 1 1 1zM20 4H4c-1.1 0-2 .9-2 2v12c0 1.1.9 2 2 2h16c1.1 0 2-.9 2-2V6c0-1.1-.9-2-2-2zm-8 2.75c1.24 0 2.25 1.01 2.25 2.25s-1.01 2.25-2.25 2.25S9.75 10.24 9.75 9 10.76 6.75 12 6.75zM17 17H7v-1.5c0-1.67 3.33-2.5 5-2.5s5 .83 5 2.5V17z"/></symbol>
<symbol id="contact_mail" viewBox="0 0 24 24"><path d="M0 0h24v24H0z" fill="none"/><path d="M21 8V7l-3 2-3-2v1l2.72 1.82c.17.11.39.11.55 0L21 8zm1-5H2C.9 3 0 3.9 0 5v14c0 1.1.9 2 2 2h20c1.1 0 1.99-.9 1.99-2L24 5c0-1.1-.9-2-2-2zM8 6c1.66 0 3 1.34 3 3s-1.34 3-3 3-3-1.34-3-3 1.34-3 3-3zm6 12H2v-1c0-2 4-3.1 6-3.1s6 1.1 6 3.1v1zm7.5-6h-7c-.28 0-.5-.22-.5-.5v-5c0-.28.22-.5.5-.5h7c.28 0 .5.22.5.5v5c0 .28-.22.5-.5.5z"/></symbol>
<symbol id="contact_phone" viewBox="0 0 24 24"><path d="M0 0h24v24H0V0z" fill="none"/><path d="M22 3H2C.9 3 0 3.9 0 5v14c0 1.1.9 2 2 2h20c1.1 0 1.99-.9 1.99-2L24 5c0-1.1-.9-2-2-2zM8 6c1.66 0 3 1.34 3 3s-1.34 3-3 3-3-1.34-3-3 1.34-3 3-3zm6 12H2v-1c0-2 4-3.1 6-3.1s6 1.1 6 3.1v1zm3.85-4h1.39c.16 0 .3.07.4.2l1.1 1.45c.15.2.13.48-.05.65l-1.36 1.36c-.18.18-.48.2-.67.04-1.13-.96-1.97-2.25-2.38-3.71-.18-.63-.28-1.3-.28-1.99s.1-1.36.28-2c.41-1.47 1.25-2.75 2.38-3.71.2-.17.49-.14.67.04l1.36 1.36c.18.18.2.46.05.65l-1.1 1.45c-.09.13-.24.2-.4.2h-1.39c-.22.63-.35 1.3-.35 2s.13 1.38.35 2.01z"/></symbol>
<symbol id="desktop_access_disabled" viewBox="0 0 24 24"><path d="M0 0h24v24H0V0z" fill="none"/><path d="M.31 2c-.39.39-.39 1.02 0 1.41l.69.68V16c0 1.1.9 2 2 2h7v2H9c-.55 0-1 .45-1 1s.45 1 1 1h6c.55 0 1-.45 1-1s-.45-1-1-1h-1v-2h.9l5.29 5.29c.39.39 1.02.39 1.41 0 .39-.39.39-1.02 0-1.41L1.72 2C1.33 1.61.7 1.61.31 2zm2.68 13V6.09L12.9 16H3.99c-.55 0-1-.45-1-1zM4.55 2l2 2H20c.55 0 1 .45 1 1v10c0 .55-.45 1-1 1h-1.45l2 2h.44c1.1 0 2-.9 2-2V4c0-1.1-.9-2-2-2H4.55z"/></symbol>
<symbol id="dialer_sip" viewBox="0 0 24 24"><path d="M0 0h24v24H0V0z" fill="none"/><path d="M16.5 8c.28 0 .5-.22.5-.5v-4c0-.28-.22-.5-.5-.5s-.5.22-.5.5v4c0 .28.22.5.5.5zm-4-1c-.28 0-.5.22-.5.5s.22.5.5.5h1.95c.3 0 .55-.25.55-.55v-1.9c0-.3-.25-.55-.55-.55H13V4h1.5c.28 0 .5-.22.5-.5s-.22-.5-.5-.5h-1.95c-.3 0-.55.25-.55.55v1.89c0 .31.25.56.55.56H14v1h-1.5zm7.95-4h-1.89c-.31 0-.56.25-.56.55V7.5c0 .28.22.5.5.5s.5-.22.5-.5V6h1.45c.3 0 .55-.25.55-.55v-1.9c0-.3-.25-.55-.55-.55zM20 5h-1V4h1v1zm-.79 10.27l-2.54-.29c-.61-.07-1.21.14-1.64.57l-1.84 1.84c-2.83-1.44-5.15-3.75-6.59-6.59l1.85-1.85c.43-.43.64-1.04.57-1.64l-.29-2.52c-.11-1.01-.97-1.78-1.98-1.78H5.02c-1.13 0-2.07.94-2 2.07.53 8.54 7.36 15.36 15.89 15.89 1.13.07 2.07-.87 2.07-2v-1.73c.01-1-.76-1.86-1.77-1.97z"/></symbol>
<symbol id="dialpad" viewBox="0 0 24 24"><path d="M0 0h24v24H0V0z" fill="none"/><path d="M12 19c-1.1 0-2 .9-2 2s.9 2 2 2 2-.9 2-2-.9-2-2-2zM6 1c-1.1 0-2 .9-2 2s.9 2 2 2 2-.9 2-2-.9-2-2-2zm0 6c-1.1 0-2 .9-2 2s.9 2 2 2 2-.9 2-2-.9-2-2-2zm0 6c-1.1 0-2 .9-2 2s.9 2 2 2 2-.9 2-2-.9-2-2-2zm12-8c1.1 0 2-.9 2-2s-.9-2-2-2-2 .9-2 2 .9 2 2 2zm-6 8c-1.1 0-2 .9-2 2s.9 2 2 2 2-.9 2-2-.9-2-2-2zm6 0c-1.1 0-2 .9-2 2s.9 2 2 2 2-.9 2-2-.9-2-2-2zm0-6c-1.1 0-2 .9-2 2s.9 2 2 2 2-.9 2-2-.9-2-2-2zm-6 0c-1.1 0-2 .9-2 2s.9 2 2 2 2-.9 2-2-.9-2-2-2zm0-6c-1.1 0-2 .9-2 2s.9 2 2 2 2-.9 2-2-.9-2-2-2z"/></symbol>
<symbol id="domain_disabled" viewBox="0 0 24 24"><path d="M0 0h24v24H0V0z" fill="none"/><path d="M.71 2.39c-.39.39-.39 1.02 0 1.41L2 5.1V19c0 1.1.9 2 2 2h13.9l2.29 2.29c.39.39 1.02.39 1.41 0 .39-.39.39-1.02 0-1.41L2.12 2.39C1.73 2 1.1 2 .71 2.39zM6 19H4v-2h2v2zm0-4H4v-2h2v2zm-2-4V9h2v2H4zm6 8H8v-2h2v2zm-2-4v-2h2v2H8zm4 4v-2h1.9l2 2H12zM8 5h2v2h-.45L12 9.45V9h7c.55 0 1 .45 1 1v7.45l2 2V9c0-1.1-.9-2-2-2h-8V5c0-1.1-.9-2-2-2H5.55L8 5.45V5zm8 6h2v2h-2z"/></symbol>
<symbol id="domain_verification" viewBox="0 0 24 24"><g><rect fill="none" height="24" width="24"/><rect fill="none" height="24" width="24"/></g><g><g><path d="M10.23,15.83c0.39,0.39,1.02,0.39,1.41,0l4.24-4.24c0.39-0.39,0.39-1.02,0-1.42v0c-0.39-0.39-1.02-0.39-1.41,0l-3.54,3.53 l-1.41-1.41c-0.39-0.39-1.02-0.39-1.42,0s-0.39,1.02,0,1.41L10.23,15.83z"/><path d="M19,4H5C3.89,4,3,4.9,3,6v12c0,1.1,0.89,2,2,2h14c1.1,0,2-0.9,2-2V6C21,4.9,20.11,4,19,4z M19,17c0,0.55-0.45,1-1,1H6 c-0.55,0-1-0.45-1-1V8h14V17z"/></g></g></symbol>
<symbol id="duo" viewBox="0 0 24 24"><path d="M0 0h24v24H0V0z" fill="none"/><path d="M20 2h-8C6.38 2 2 6.66 2 12.28 2 17.5 6.49 22 11.72 22 17.39 22 22 17.62 22 12V4c0-1.1-.9-2-2-2zm-3 13l-3-2v2H7V9h7v2l3-2v6z"/></symbol>
<symbol id="email" viewBox="0 0 24 24"><path d="M0 0h24v24H0V0z" fill="none"/><path d="M20 4H4c-1.1 0-1.99.9-1.99 2L2 18c0 1.1.9 2 2 2h16c1.1 0 2-.9 2-2V6c0-1.1-.9-2-2-2zm-.4 4.25l-7.07 4.42c-.32.2-.74.2-1.06 0L4.4 8.25c-.25-.16-.4-.43-.4-.72 0-.67.73-1.07 1.3-.72L12 11l6.7-4.19c.57-.35 1.3.05 1.3.72 0 .29-.15.56-.4.72z"/></symbol>
<symbol id="forum" viewBox="0 0 24 24"><path d="M0 0h24v24H0V0z" fill="none"/><path d="M20 6h-1v8c0 .55-.45 1-1 1H6v1c0 1.1.9 2 2 2h10l4 4V8c0-1.1-.9-2-2-2zm-3 5V4c0-1.1-.9-2-2-2H4c-1.1 0-2 .9-2 2v13l4-4h9c1.1 0 2-.9 2-2z"/></symbol>
<symbol id="forward_to_inbox" viewBox="0 0 24 24"><g><rect fill="none" height="24" width="24"/><path d="M20,4H4C2.9,4,2,4.9,2,6v12c0,1.1,0.9,2,2,2h9v-2H4V8l6.94,4.34c0.65,0.41,1.47,0.41,2.12,0L20,8v5h2V6C22,4.9,21.1,4,20,4 z M12,11L4,6h16L12,11z M19,16.21c0-0.45,0.54-0.67,0.85-0.35l2.79,2.79c0.2,0.2,0.2,0.51,0,0.71l-2.79,2.79 C19.54,22.46,19,22.24,19,21.79V20h-3c-0.55,0-1-0.45-1-1v0c0-0.55,0.45-1,1-1h3V16.21z"/></g></symbol>
<symbol id="hourglass_bottom" viewBox="0 0 24 24"><g><rect fill="none" height="24" width="24"/><rect fill="none" height="24" width="24"/></g><g><path d="M16,22c1.1,0,2-0.9,2-2l-0.01-3.18c0-0.53-0.21-1.03-0.58-1.41L14,12l3.41-3.43c0.37-0.37,0.58-0.88,0.58-1.41L18,4 c0-1.1-0.9-2-2-2H8C6.9,2,6,2.9,6,4v3.16C6,7.69,6.21,8.2,6.58,8.58L10,12l-3.41,3.4C6.21,15.78,6,16.29,6,16.82V20 c0,1.1,0.9,2,2,2H16z M8,7.09V5c0-0.55,0.45-1,1-1h6c0.55,0,1,0.45,1,1v2.09c0,0.27-0.11,0.52-0.29,0.71L12,11.5L8.29,7.79 C8.11,7.61,8,7.35,8,7.09z"/></g></symbol>
<symbol id="hourglass_top" viewBox="0 0 24 24"><g><rect fill="none" height="24" width="24"/><rect fill="none" height="24" width="24"/></g><g><path d="M8,2C6.9,2,6,2.9,6,4l0.01,3.18c0,0.53,0.21,1.03,0.58,1.41L10,12l-3.41,3.43c-0.37,0.37-0.58,0.88-0.58,1.41L6,20 c0,1.1,0.9,2,2,2h8c1.1,0,2-0.9,2-2v-3.16c0-0.53-0.21-1.04-0.58-1.41L14,12l3.41-3.4C17.79,8.22,18,7.71,18,7.18V4 c0-1.1-0.9-2-2-2H8z M16,16.91V19c0,0.55-0.45,1-1,1H9c-0.55,0-1-0.45-1-1v-2.09c0-0.27,0.11-0.52,0.29-0.71L12,12.5l3.71,3.71 C15.89,16.39,16,16.65,16,16.91z"/></g></symbol>
<symbol id="import_contacts" viewBox="0 0 24 24"><path d="M0 0h24v24H0z" fill="none"/><path d="M17.5 4.5c-1.95 0-4.05.4-5.5 1.5-1.45-1.1-3.55-1.5-5.5-1.5-1.45 0-2.99.22-4.28.79C1.49 5.62 1 6.33 1 7.14v11.28c0 1.3 1.22 2.26 2.48 1.94.98-.25 2.02-.36 3.02-.36 1.56 0 3.22.26 4.56.92.6.3 1.28.3 1.87 0 1.34-.67 3-.92 4.56-.92 1 0 2.04.11 3.02.36 1.26.33 2.48-.63 2.48-1.94V7.14c0-.81-.49-1.52-1.22-1.85-1.28-.57-2.82-.79-4.27-.79zM21 17.23c0 .63-.58 1.09-1.2.98-.75-.14-1.53-.2-2.3-.2-1.7 0-4.15.65-5.5 1.5V8c1.35-.85 3.8-1.5 5.5-1.5.92 0 1.83.09 2.7.28.46.1.8.51.8.98v9.47z"/></symbol>
<symbol id="import_export" viewBox="0 0 24 24"><path d="M0 0h24v24H0V0z" fill="none"/><path d="M8.65 3.35L5.86 6.14c-.32.31-.1.85.35.85H8V13c0 .55.45 1 1 1s1-.45 1-1V6.99h1.79c.45 0 .67-.54.35-.85L9.35 3.35c-.19-.19-.51-.19-.7 0zM16 17.01V11c0-.55-.45-1-1-1s-1 .45-1 1v6.01h-1.79c-.45 0-.67.54-.35.85l2.79 2.78c.2.19.51.19.71 0l2.79-2.78c.32-.31.09-.85-.35-.85H16z"/></symbol>
<symbol id="invert_colors_off" viewBox="0 0 24 24"><path d="M0 0h24v24H0V0z" fill="none"/><path d="M12 5.1v4.05l7.4 7.4c1.15-2.88.59-6.28-1.75-8.61l-4.94-4.95c-.39-.39-1.02-.39-1.41 0L8.56 5.71l1.41 1.41L12 5.1zm-8.31-.02c-.39.39-.39 1.02 0 1.41l2.08 2.08c-2.54 3.14-2.35 7.75.57 10.68C7.9 20.8 9.95 21.58 12 21.58c1.78 0 3.56-.59 5.02-1.77l2 2c.39.39 1.02.39 1.41 0 .39-.39.39-1.02 0-1.41L5.11 5.08c-.39-.39-1.03-.39-1.42 0zM12 19.59c-1.6 0-3.11-.62-4.24-1.76C6.62 16.69 6 15.19 6 13.59c0-1.32.43-2.56 1.21-3.59L12 14.79v4.8z"/></symbol>
<symbol id="list_alt" viewBox="0 0 24 24"><path d="M0 0h24v24H0V0z" fill="none"/><path d="M12 9h4c.55 0 1-.45 1-1s-.45-1-1-1h-4c-.55 0-1 .45-1 1s.45 1 1 1zm0 4h4c.55 0 1-.45 1-1s-.45-1-1-1h-4c-.55 0-1 .45-1 1s.45 1 1 1zm0 4h4c.55 0 1-.45 1-1s-.45-1-1-1h-4c-.55 0-1 .45-1 1s.45 1 1 1zM7 7h2v2H7zm0 4h2v2H7zm0 4h2v2H7zM20 3H4c-.55 0-1 .45-1 1v16c0 .55.45 1 1 1h16c.55 0 1-.45 1-1V4c0-.55-.45-1-1-1zm-1 16H5V5h14v14z"/></symbol>
<symbol id="live_help" viewBox="0 0 24 24"><path d="M0 0h24v24H0V0z" fill="none"/><path d="M19 2H5c-1.11 0-2 .9-2 2v14c0 1.1.9 2 2 2h4l2.29 2.29c.39.39 1.02.39 1.41 0L15 20h4c1.1 0 2-.9 2-2V4c0-1.1-.9-2-2-2zm-6 16h-2v-2h2v2zm2.07-7.75l-.9.92c-.58.59-.99 1.1-1.12 2.06-.06.43-.41.76-.85.76h-.31c-.52 0-.92-.46-.85-.98.11-.91.53-1.72 1.14-2.34l1.24-1.26c.36-.36.58-.86.58-1.41 0-1.1-.9-2-2-2-.87 0-1.62.57-1.89 1.35-.13.37-.44.64-.83.64h-.3c-.58 0-.98-.56-.82-1.12C8.65 5.21 10.18 4 12 4c2.21 0 4 1.79 4 4 0 .88-.36 1.68-.93 2.25z"/></symbol>
<symbol id="location_off" viewBox="0 0 24 24"><path d="M0 0h24v24H0V0z" fill="none"/><path d="M2.71 3.56c-.39.39-.39 1.02 0 1.41l2.47 2.47C5.07 7.95 5 8.47 5 9c0 4.17 4.42 9.92 6.23 12.11.4.48 1.13.48 1.53 0 .65-.78 1.62-2.01 2.61-3.46l2.65 2.65c.39.39 1.02.39 1.41 0 .39-.39.39-1.02 0-1.41L4.12 3.56c-.39-.39-1.02-.39-1.41 0zM12 2c-1.84 0-3.5.71-4.75 1.86l3.19 3.19c.43-.34.97-.55 1.56-.55 1.38 0 2.5 1.12 2.5 2.5 0 .59-.21 1.13-.56 1.56l3.55 3.55C18.37 12.36 19 10.57 19 9c0-3.87-3.13-7-7-7z"/></symbol>
<symbol id="location_on" viewBox="0 0 24 24"><path d="M0 0h24v24H0V0z" fill="none"/><path d="M12 2C8.13 2 5 5.13 5 9c0 4.17 4.42 9.92 6.24 12.11.4.48 1.13.48 1.53 0C14.58 18.92 19 13.17 19 9c0-3.87-3.13-7-7-7zm0 9.5c-1.38 0-2.5-1.12-2.5-2.5s1.12-2.5 2.5-2.5 2.5 1.12 2.5 2.5-1.12 2.5-2.5 2.5z"/></symbol>
<symbol id="mail_outline" viewBox="0 0 24 24"><path d="M0 0h24v24H0V0z" fill="none"/><path d="M20 4H4c-1.1 0-1.99.9-1.99 2L2 18c0 1.1.9 2 2 2h16c1.1 0 2-.9 2-2V6c0-1.1-.9-2-2-2zm-1 14H5c-.55 0-1-.45-1-1V8l6.94 4.34c.65.41 1.47.41 2.12 0L20 8v9c0 .55-.45 1-1 1zm-7-7L4 6h16l-8 5z"/></symbol>
<symbol id="mark_chat_read" viewBox="0 0 24 24"><g><rect fill="none" height="24" width="24" x="0"/><path d="M18.05,19.29c-0.39,0.39-1.02,0.39-1.41,0l-2.12-2.12c-0.39-0.39-0.39-1.02,0-1.41l0,0c0.39-0.39,1.02-0.39,1.41,0 l1.41,1.41l3.54-3.54c0.39-0.39,1.02-0.39,1.41,0l0,0c0.39,0.39,0.39,1.02,0,1.41L18.05,19.29z M12,17c0-3.87,3.13-7,7-7 c1.08,0,2.09,0.25,3,0.68V4c0-1.1-0.9-2-2-2H4C2.9,2,2,2.9,2,4v18l4-4h6v0c0-0.17,0.01-0.33,0.03-0.5C12.01,17.33,12,17.17,12,17z"/></g></symbol>
<symbol id="mark_chat_unread" viewBox="0 0 24 24"><g><rect fill="none" height="24" width="24" y="0"/><path d="M22,6.98V16c0,1.1-0.9,2-2,2H6l-4,4V4c0-1.1,0.9-2,2-2h10.1C14.04,2.32,14,2.66,14,3c0,2.76,2.24,5,5,5 C20.13,8,21.16,7.61,22,6.98z M16,3c0,1.66,1.34,3,3,3s3-1.34,3-3s-1.34-3-3-3S16,1.34,16,3z"/></g></symbol>
<symbol id="mark_email_read" viewBox="0 0 24 24"><g><g><rect fill="none" height="24" width="24" x="0"/></g><g><path d="M18.05,21.29c-0.39,0.39-1.02,0.39-1.41,0l-2.12-2.12c-0.39-0.39-0.39-1.02,0-1.41h0c0.39-0.39,1.02-0.39,1.41,0 l1.41,1.41l3.54-3.54c0.39-0.39,1.02-0.39,1.41,0l0,0c0.39,0.39,0.39,1.02,0,1.41L18.05,21.29z M12.08,20H4c-1.1,0-2-0.9-2-2V6 c0-1.1,0.9-2,2-2h16c1.1,0,2,0.9,2,2v6.68C21.09,12.25,20.08,12,19,12c-3.87,0-7,3.13-7,7C12,19.34,12.03,19.67,12.08,20z M11.47,12.67c0.32,0.2,0.74,0.2,1.06,0l7.07-4.42C19.85,8.09,20,7.82,20,7.53c0-0.67-0.73-1.07-1.3-0.72L12,11L5.3,6.81 C4.73,6.46,4,6.86,4,7.53c0,0.29,0.15,0.56,0.4,0.72L11.47,12.67z"/></g></g></symbol>
<symbol id="mark_email_unread" viewBox="0 0 24 24"><g><rect fill="none" height="24" width="24" x="0"/><path d="M19,10c1.13,0,2.16-0.39,3-1.02V18c0,1.1-0.9,2-2,2H4c-1.1,0-2-0.9-2-2V6c0-1.1,0.9-2,2-2h10.1C14.04,4.32,14,4.66,14,5 c0,1.48,0.65,2.79,1.67,3.71L12,11L5.3,6.81C4.73,6.46,4,6.86,4,7.53c0,0.29,0.15,0.56,0.4,0.72l7.07,4.42 c0.32,0.2,0.74,0.2,1.06,0l4.77-2.98C17.84,9.88,18.4,10,19,10z M16,5c0,1.66,1.34,3,3,3s3-1.34,3-3s-1.34-3-3-3S16,3.34,16,5z"/></g></symbol>
<symbol id="message" viewBox="0 0 24 24"><path d="M0 0h24v24H0V0z" fill="none"/><path d="M20 2H4c-1.1 0-1.99.9-1.99 2L2 22l4-4h14c1.1 0 2-.9 2-2V4c0-1.1-.9-2-2-2zm-3 12H7c-.55 0-1-.45-1-1s.45-1 1-1h10c.55 0 1 .45 1 1s-.45 1-1 1zm0-3H7c-.55 0-1-.45-1-1s.45-1 1-1h10c.55 0 1 .45 1 1s-.45 1-1 1zm0-3H7c-.55 0-1-.45-1-1s.45-1 1-1h10c.55 0 1 .45 1 1s-.45 1-1 1z"/></symbol>
<symbol id="mobile_screen_share" viewBox="0 0 24 24"><path d="M0 0h24v24H0V0z" fill="none"/><path d="M17 1H7c-1.1 0-1.99.9-1.99 2v18c0 1.1.89 2 1.99 2h10c1.1 0 2-.9 2-2V3c0-1.1-.9-2-2-2zm0 18H7V5h10v14zm-4.2-5.78v1.75l2.81-2.62c.21-.2.21-.53 0-.73L12.8 9v1.7c-3.11.43-4.35 2.56-4.8 4.7 1.11-1.5 2.58-2.18 4.8-2.18z"/></symbol>
<symbol id="more_time" viewBox="0 0 24 24"><g><rect fill="none" height="24" width="24"/><rect fill="none" height="24" width="24"/></g><g><g><path d="M10.75,8C10.34,8,10,8.34,10,8.75v4.69c0,0.35,0.18,0.67,0.47,0.85l3.64,2.24c0.33,0.2,0.76,0.11,0.97-0.21 c0.23-0.34,0.12-0.8-0.23-1.01L11.5,13.3V8.75C11.5,8.34,11.16,8,10.75,8z"/><path d="M17.92,12c0.05,0.33,0.08,0.66,0.08,1c0,3.9-3.1,7-7,7s-7-3.1-7-7c0-3.9,3.1-7,7-7c0.7,0,1.37,0.1,2,0.29V4.23 C12.36,4.08,11.69,4,11,4c-5,0-9,4-9,9s4,9,9,9s9-4,9-9c0-0.34-0.02-0.67-0.06-1H17.92z"/><path d="M22,5h-2V3c0-0.55-0.45-1-1-1s-1,0.45-1,1v2h-2c-0.55,0-1,0.45-1,1c0,0.55,0.45,1,1,1h2v2c0,0.55,0.45,1,1,1s1-0.45,1-1V7 h2c0.55,0,1-0.45,1-1C23,5.45,22.55,5,22,5z"/></g></g></symbol>
<symbol id="nat" viewBox="0 0 24 24"><g><rect fill="none" height="24" width="24"/><rect fill="none" height="24" width="24"/></g><g><g><path d="M6.82,13H11v-2H6.82C6.4,9.84,5.3,9,4,9c-1.66,0-3,1.34-3,3s1.34,3,3,3C5.3,15,6.4,14.16,6.82,13z M4,13 c-0.55,0-1-0.45-1-1c0-0.55,0.45-1,1-1s1,0.45,1,1C5,12.55,4.55,13,4,13z"/><path d="M22.47,12.4c0.27-0.2,0.27-0.6,0-0.8L19,9v2h-4.05c-0.47-4.69-4.16-8.42-8.83-8.94C5.52,2,5,2.46,5,3.06v0 c0,0.5,0.37,0.93,0.87,0.99C9.88,4.48,13,7.87,13,12s-3.12,7.52-7.13,7.95C5.37,20.01,5,20.44,5,20.94v0c0,0.6,0.52,1.07,1.11,1 c4.67-0.52,8.37-4.25,8.83-8.94H19v2L22.47,12.4z"/></g></g></symbol>
<symbol id="no_sim" viewBox="0 0 24 24"><path d="M0 0h24v24H0z" fill="none"/><path d="M3.09 4.44c-.39.39-.39 1.02 0 1.41l2.03 2.03-.12.13V19c0 1.1.9 2 2 2h10c.35 0 .68-.1.97-.26l1.17 1.17c.39.39 1.02.39 1.41 0 .39-.39.39-1.02 0-1.41L4.5 4.44c-.39-.39-1.02-.39-1.41 0zM19 16.11V5c0-1.1-.9-2-2-2h-6.99L7.95 5.06 19 16.11z"/></symbol>
<symbol id="pause_presentation" viewBox="0 0 24 24"><path d="M0 0h24v24H0V0z" fill="none"/><path d="M21 3H3c-1.1 0-2 .9-2 2v14c0 1.1.9 2 2 2h18c1.1 0 2-.9 2-2V5c0-1.1-.9-2-2-2zm0 15c0 .55-.45 1-1 1H4c-.55 0-1-.45-1-1V6c0-.55.45-1 1-1h16c.55 0 1 .45 1 1v12zM10 8c-.55 0-1 .45-1 1v6c0 .55.45 1 1 1s1-.45 1-1V9c0-.55-.45-1-1-1zm4 0c-.55 0-1 .45-1 1v6c0 .55.45 1 1 1s1-.45 1-1V9c0-.55-.45-1-1-1z"/></symbol>
<symbol id="person_add_disabled" viewBox="0 0 24 24"><path d="M0 0h24v24H0V0z" fill="none"/><path d="M14.48 11.95c.17.02.34.05.52.05 2.21 0 4-1.79 4-4s-1.79-4-4-4-4 1.79-4 4c0 .18.03.35.05.52l3.43 3.43zm2.21 2.21l5.74 5.74c.33-.17.57-.5.57-.9v-1c0-2.14-3.56-3.5-6.31-3.84zM2.12 2.42c-.39-.39-1.02-.39-1.41 0-.39.39-.39 1.02 0 1.41L4 7.12V10H2c-.55 0-1 .45-1 1s.45 1 1 1h2v2c0 .55.45 1 1 1s1-.45 1-1v-2h2.88l2.51 2.51C9.19 15.11 7 16.3 7 18v1c0 .55.45 1 1 1h8.88l3.29 3.29c.39.39 1.02.39 1.41 0 .39-.39.39-1.02 0-1.41L2.12 2.42zM6 10v-.88l.88.88H6z"/></symbol>
<symbol id="person_search" viewBox="0 0 24 24"><g><rect fill="none" height="24" width="24"/><rect fill="none" height="24" width="24"/></g><g><g><circle cx="10" cy="8" r="4"/><path d="M10.35,14.01C7.62,13.91,2,15.27,2,18v1c0,0.55,0.45,1,1,1h8.54C9.07,17.24,10.31,14.11,10.35,14.01z"/><path d="M19.43,18.02c0.47-0.8,0.7-1.77,0.48-2.82c-0.34-1.64-1.72-2.95-3.38-3.16c-2.63-0.34-4.85,1.87-4.5,4.5 c0.22,1.66,1.52,3.04,3.16,3.38c1.05,0.22,2.02-0.01,2.82-0.48l1.86,1.86c0.39,0.39,1.02,0.39,1.41,0l0,0 c0.39-0.39,0.39-1.02,0-1.41L19.43,18.02z M16,18c-1.1,0-2-0.9-2-2c0-1.1,0.9-2,2-2s2,0.9,2,2C18,17.1,17.1,18,16,18z"/></g></g></symbol>
<symbol id="phone" viewBox="0 0 24 24"><path d="M0 0h24v24H0V0z" fill="none"/><path d="M19.23 15.26l-2.54-.29c-.61-.07-1.21.14-1.64.57l-1.84 1.84c-2.83-1.44-5.15-3.75-6.59-6.59l1.85-1.85c.43-.43.64-1.03.57-1.64l-.29-2.52c-.12-1.01-.97-1.77-1.99-1.77H5.03c-1.13 0-2.07.94-2 2.07.53 8.54 7.36 15.36 15.89 15.89 1.13.07 2.07-.87 2.07-2v-1.73c.01-1.01-.75-1.86-1.76-1.98z"/></symbol>
<symbol id="phonelink_erase" viewBox="0 0 24 24"><path d="M0 0h24v24H0V0z" fill="none"/><path d="M12.5 7.7c-.28-.28-.72-.28-1 0L8 11.2 4.5 7.7c-.28-.28-.72-.28-1 0s-.28.72 0 1L7 12.2l-3.5 3.5c-.28.28-.28.72 0 1s.72.28 1 0L8 13.2l3.5 3.5c.28.28.72.28 1 0s.28-.72 0-1L9 12.2l3.5-3.5c.28-.28.28-.72 0-1zM19 1H9c-1.1 0-2 .9-2 2v2c0 .55.45 1 1 1s1-.45 1-1V4h10v16H9v-1c0-.55-.45-1-1-1s-1 .45-1 1v2c0 1.1.9 2 2 2h10c1.1 0 2-.9 2-2V3c0-1.1-.9-2-2-2z"/></symbol>
<symbol id="phonelink_lock" viewBox="0 0 24 24"><path d="M0 0h24v24H0V0z" fill="none"/><path d="M19 1H9c-1.1 0-2 .9-2 2v2c0 .55.45 1 1 1s1-.45 1-1V4h10v16H9v-1c0-.55-.45-1-1-1s-1 .45-1 1v2c0 1.1.9 2 2 2h10c1.1 0 2-.9 2-2V3c0-1.1-.9-2-2-2zm-8.2 10V9.5C10.8 8.1 9.4 7 8 7S5.2 8.1 5.2 9.5V11c-.6 0-1.2.6-1.2 1.2v3.5c0 .7.6 1.3 1.2 1.3h5.5c.7 0 1.3-.6 1.3-1.2v-3.5c0-.7-.6-1.3-1.2-1.3zm-1.3 0h-3V9.5c0-.8.7-1.3 1.5-1.3s1.5.5 1.5 1.3V11z"/></symbol>
<symbol id="phonelink_ring" viewBox="0 0 24 24"><path d="M0 0h24v24H0V0z" fill="none"/><path d="M14 1H4c-1.1 0-2 .9-2 2v18c0 1.1.9 2 2 2h10c1.1 0 2-.9 2-2V3c0-1.1-.9-2-2-2zm0 19H4V4h10v16zm6.63-11.74c-.26-.32-.74-.36-1.04-.06l-.03.03c-.25.25-.26.65-.05.93 1.26 1.64 1.25 3.87-.02 5.57-.21.28-.19.67.05.92l.05.05c.29.29.76.26 1.03-.05 1.8-2.13 1.8-5.19.01-7.39zm-3.21 2.11l-.06.06c-.2.2-.26.5-.15.76.21.49.21 1.03 0 1.52-.11.26-.05.56.15.76l.08.08c.32.32.87.25 1.09-.15.49-.89.49-1.94-.01-2.86-.22-.42-.77-.5-1.1-.17z"/></symbol>
<symbol id="phonelink_setup" viewBox="0 0 24 24"><path d="M0 0h24v24H0V0z" fill="none"/><path d="M7 3v2c0 .55.45 1 1 1s1-.45 1-1V4h10v16H9v-1c0-.55-.45-1-1-1s-1 .45-1 1v2c0 1.1.9 2 2 2h10c1.1 0 2-.9 2-2V3c0-1.1-.9-2-2-2H9c-1.1 0-2 .9-2 2zm2.5 12.5c.29-.12.55-.29.8-.48l-.02.03 1.01.39c.23.09.49 0 .61-.22l.84-1.46c.12-.21.07-.49-.12-.64l-.85-.68-.02.03c.02-.16.05-.32.05-.48s-.03-.32-.05-.48l.02.03.85-.68c.19-.15.24-.43.12-.64l-.84-1.46c-.12-.21-.38-.31-.61-.22l-1.01.39.02.03c-.25-.17-.51-.34-.8-.46l-.17-1.08C9.3 7.18 9.09 7 8.84 7H7.16c-.25 0-.46.18-.49.42L6.5 8.5c-.29.12-.55.29-.8.48l.02-.03-1.02-.39c-.23-.09-.49 0-.61.22l-.84 1.46c-.12.21-.07.49.12.64l.85.68.02-.03c-.02.15-.05.31-.05.47s.03.32.05.48l-.02-.03-.85.68c-.19.15-.24.43-.12.64l.84 1.46c.12.21.38.31.61.22l1.01-.39-.01-.04c.25.19.51.36.8.48l.17 1.07c.03.25.24.43.49.43h1.68c.25 0 .46-.18.49-.42l.17-1.08zM6 12c0-1.1.9-2 2-2s2 .9 2 2-.9 2-2 2-2-.9-2-2z"/></symbol>
<symbol id="phone_disabled" viewBox="0 0 24 24"><rect fill="none" height="24" width="24"/><g><g><path d="M14.54,17.37c-2.63,2.08-5.89,3.39-9.45,3.61c-1.13,0.07-2.07-0.87-2.07-2v-1.73 c-0.01-1.01,0.75-1.86,1.76-1.98l2.54-0.29c0.61-0.07,1.21,0.14,1.64,0.57l1.84,1.84c0.81-0.41,1.59-0.9,2.31-1.45L2.1,4.93 c-0.39-0.39-0.39-1.02,0-1.41l0,0c0.39-0.39,1.03-0.39,1.42,0L20.49,20.5c0.39,0.39,0.39,1.02,0,1.41s-1.02,0.39-1.41,0 L14.54,17.37z M17.39,10.8l-1.85-1.85c-0.43-0.43-0.64-1.03-0.57-1.64l0.29-2.52c0.12-1.01,0.97-1.77,1.99-1.77h1.73 c1.13,0,2.07,0.94,2,2.07c-0.22,3.57-1.54,6.83-3.62,9.47l-1.43-1.43C16.48,12.4,16.97,11.62,17.39,10.8z"/></g></g></symbol>
<symbol id="phone_enabled" viewBox="0 0 24 24"><rect fill="none" height="24" width="24"/><g><g><path d="M4.78,15.27l2.54-0.29c0.61-0.07,1.21,0.14,1.64,0.57l1.84,1.84c2.83-1.44,5.15-3.75,6.59-6.59l-1.85-1.85 c-0.43-0.43-0.64-1.03-0.57-1.64l0.29-2.52c0.12-1.01,0.97-1.77,1.99-1.77h1.73c1.13,0,2.07,0.94,2,2.07 c-0.53,8.54-7.36,15.36-15.89,15.89c-1.13,0.07-2.07-0.87-2.07-2v-1.73C3.01,16.24,3.77,15.39,4.78,15.27z"/></g></g></symbol>
<symbol id="portable_wifi_off" viewBox="0 0 24 24"><path d="M0 0h24v24H0V0z" fill="none"/><path d="M2.71 3.07c-.39.39-.39 1.02 0 1.41L4.1 5.87C2.79 7.57 2 9.69 2 12c0 3.3 1.6 6.22 4.06 8.04.48.35 1.16.21 1.46-.31.25-.43.14-.99-.26-1.29C5.29 16.98 4 14.65 4 12c0-1.76.57-3.38 1.53-4.69l1.43 1.44C6.36 9.68 6 10.8 6 12c0 1.8.8 3.41 2.06 4.51.46.4 1.19.25 1.5-.28l.01-.01c.24-.42.13-.94-.23-1.26C8.52 14.23 8 13.18 8 12c0-.65.17-1.25.44-1.79l1.58 1.58L10 12c0 1.1.9 2 2 2l.21-.02 6.81 6.81c.39.39 1.02.39 1.41 0 .39-.39.39-1.02 0-1.41L4.13 3.07c-.39-.39-1.03-.39-1.42 0zm15 10.75c.18-.57.29-1.19.29-1.82 0-3.31-2.69-6-6-6-.63 0-1.25.11-1.82.29l1.72 1.72c.03 0 .06-.01.1-.01 2.21 0 4 1.79 4 4 0 .04-.01.07-.01.11l1.72 1.71zM12 4c4.42 0 8 3.58 8 8 0 1.2-.29 2.32-.77 3.35l1.49 1.49C21.53 15.4 22 13.76 22 12c0-5.52-4.48-10-10-10-1.76 0-3.4.48-4.84 1.28l1.48 1.48C9.66 4.28 10.8 4 12 4z"/></symbol>
<symbol id="present_to_all" viewBox="0 0 24 24"><path d="M0 0h24v24H0V0z" fill="none"/><path d="M21 3H3c-1.11 0-2 .89-2 2v14c0 1.11.89 2 2 2h18c1.11 0 2-.89 2-2V5c0-1.11-.89-2-2-2zm-1 16.02H4c-.55 0-1-.45-1-1V5.98c0-.55.45-1 1-1h16c.55 0 1 .45 1 1v12.04c0 .55-.45 1-1 1zM10 12H8l3.65-3.65c.2-.2.51-.2.71 0L16 12h-2v4h-4v-4z"/></symbol>
<symbol id="print_disabled" viewBox="0 0 24 24"><path d="M0 0h24v24H0z" fill="none"/><path d="M2.12 2.32c-.39-.39-1.02-.39-1.41 0-.39.39-.39 1.02 0 1.41L4.98 8C3.33 8.01 2 9.35 2 11v4c0 1.1.9 2 2 2h2v2c0 1.1.9 2 2 2h8c.55 0 1.04-.22 1.4-.58l2.83 2.83c.39.39 1.02.39 1.41 0 .39-.39.39-1.02 0-1.41L2.12 2.32zM15 19H9c-.55 0-1-.45-1-1v-4h2.98l4.72 4.72c-.19.17-.43.28-.7.28zm4-11h-8.37l9 9H20c1.1 0 2-.9 2-2v-4c0-1.66-1.34-3-3-3zm0 4c-.55 0-1-.45-1-1s.45-1 1-1 1 .45 1 1-.45 1-1 1zm-2-5c.55 0 1-.45 1-1V4c0-.55-.45-1-1-1H7c-.37 0-.68.21-.85.51L9.63 7H17z"/></symbol>
<symbol id="qr_code" viewBox="0 0 24 24"><g><rect fill="none" height="24" width="24"/><rect fill="none" height="24" width="24"/></g><g><g><path d="M5,11h4c1.1,0,2-0.9,2-2V5c0-1.1-0.9-2-2-2H5C3.9,3,3,3.9,3,5v4C3,10.1,3.9,11,5,11z M5,5h4v4H5V5z"/><path d="M5,21h4c1.1,0,2-0.9,2-2v-4c0-1.1-0.9-2-2-2H5c-1.1,0-2,0.9-2,2v4C3,20.1,3.9,21,5,21z M5,15h4v4H5V15z"/><path d="M13,5v4c0,1.1,0.9,2,2,2h4c1.1,0,2-0.9,2-2V5c0-1.1-0.9-2-2-2h-4C13.9,3,13,3.9,13,5z M19,9h-4V5h4V9z"/><path d="M21,20.5v-1c0-0.28-0.22-0.5-0.5-0.5h-1c-0.28,0-0.5,0.22-0.5,0.5v1c0,0.28,0.22,0.5,0.5,0.5h1C20.78,21,21,20.78,21,20.5 z"/><path d="M13,13.5v1c0,0.28,0.22,0.5,0.5,0.5h1c0.28,0,0.5-0.22,0.5-0.5v-1c0-0.28-0.22-0.5-0.5-0.5h-1C13.22,13,13,13.22,13,13.5z"/><path d="M16.5,15h-1c-0.28,0-0.5,0.22-0.5,0.5v1c0,0.28,0.22,0.5,0.5,0.5h1c0.28,0,0.5-0.22,0.5-0.5v-1C17,15.22,16.78,15,16.5,15 z"/><path d="M13,17.5v1c0,0.28,0.22,0.5,0.5,0.5h1c0.28,0,0.5-0.22,0.5-0.5v-1c0-0.28-0.22-0.5-0.5-0.5h-1C13.22,17,13,17.22,13,17.5z"/><path d="M15.5,21h1c0.28,0,0.5-0.22,0.5-0.5v-1c0-0.28-0.22-0.5-0.5-0.5h-1c-0.28,0-0.5,0.22-0.5,0.5v1C15,20.78,15.22,21,15.5,21 z"/><path d="M17.5,19h1c0.28,0,0.5-0.22,0.5-0.5v-1c0-0.28-0.22-0.5-0.5-0.5h-1c-0.28,0-0.5,0.22-0.5,0.5v1C17,18.78,17.22,19,17.5,19 z"/><path d="M18.5,13h-1c-0.28,0-0.5,0.22-0.5,0.5v1c0,0.28,0.22,0.5,0.5,0.5h1c0.28,0,0.5-0.22,0.5-0.5v-1C19,13.22,18.78,13,18.5,13 z"/><path d="M19.5,17h1c0.28,0,0.5-0.22,0.5-0.5v-1c0-0.28-0.22-0.5-0.5-0.5h-1c-0.28,0-0.5,0.22-0.5,0.5v1C19,16.78,19.22,17,19.5,17 z"/></g></g></symbol>
<symbol id="qr_code_scanner" viewBox="0 0 24 24"><rect fill="none" height="24" width="24"/><path d="M9.5,6.5v3h-3v-3H9.5 M11,5H5v6h6V5L11,5z M9.5,14.5v3h-3v-3H9.5 M11,13H5v6h6V13L11,13z M17.5,6.5v3h-3v-3H17.5 M19,5h-6v6 h6V5L19,5z M13,13h1.5v1.5H13V13z M14.5,14.5H16V16h-1.5V14.5z M16,13h1.5v1.5H16V13z M13,16h1.5v1.5H13V16z M14.5,17.5H16V19h-1.5 V17.5z M16,16h1.5v1.5H16V16z M17.5,14.5H19V16h-1.5V14.5z M17.5,17.5H19V19h-1.5V17.5z M21,7L21,7c-0.55,0-1-0.45-1-1V4h-2 c-0.55,0-1-0.45-1-1v0c0-0.55,0.45-1,1-1h3c0.55,0,1,0.45,1,1v3C22,6.55,21.55,7,21,7z M22,21v-3c0-0.55-0.45-1-1-1h0 c-0.55,0-1,0.45-1,1v2h-2c-0.55,0-1,0.45-1,1v0c0,0.55,0.45,1,1,1h3C21.55,22,22,21.55,22,21z M3,22h3c0.55,0,1-0.45,1-1v0 c0-0.55-0.45-1-1-1H4v-2c0-0.55-0.45-1-1-1h0c-0.55,0-1,0.45-1,1v3C2,21.55,2.45,22,3,22z M2,3v3c0,0.55,0.45,1,1,1h0 c0.55,0,1-0.45,1-1V4h2c0.55,0,1-0.45,1-1v0c0-0.55-0.45-1-1-1H3C2.45,2,2,2.45,2,3z"/></symbol>
<symbol id="read_more" viewBox="0 0 24 24"><g><rect fill="none" height="24" width="24"/><rect fill="none" height="24" width="24"/></g><g><g><path d="M14,9h7c0.55,0,1-0.45,1-1c0-0.55-0.45-1-1-1h-7c-0.55,0-1,0.45-1,1C13,8.55,13.45,9,14,9z"/><path d="M21,15h-7c-0.55,0-1,0.45-1,1c0,0.55,0.45,1,1,1h7c0.55,0,1-0.45,1-1C22,15.45,21.55,15,21,15z"/><path d="M21,11h-4c-0.55,0-1,0.45-1,1c0,0.55,0.45,1,1,1h4c0.55,0,1-0.45,1-1C22,11.45,21.55,11,21,11z"/><path d="M8.85,7.85C8.54,7.54,8,7.76,8,8.21V11H3c-0.55,0-1,0.45-1,1c0,0.55,0.45,1,1,1h5v2.79c0,0.45,0.54,0.67,0.85,0.35 l3.79-3.79c0.2-0.2,0.2-0.51,0-0.71L8.85,7.85z"/></g></g></symbol>
<symbol id="ring_volume" viewBox="0 0 24 24"><path d="M0 0h24v24H0V0z" fill="none"/><path d="M11.98 7h.03c.55 0 .99-.44.99-.98V2.98c0-.54-.44-.98-.98-.98h-.03c-.55 0-.99.44-.99.98v3.03c0 .55.44.99.98.99zm4.92 2.11c.39.39 1.01.39 1.4 0 .62-.63 1.52-1.54 2.15-2.17.39-.38.39-1.01 0-1.39-.38-.38-1.01-.38-1.39 0L16.89 7.7c-.39.38-.39 1.01 0 1.39l.01.02zM5.71 9.1c.38.39 1.01.39 1.4 0 .38-.38.38-1.01 0-1.39L4.96 5.54c-.38-.39-1.01-.39-1.39 0l-.02.01c-.39.39-.39 1.01 0 1.39.63.62 1.54 1.53 2.16 2.16zm17.58 7.13c-6.41-5.66-16.07-5.66-22.48 0-.85.75-.85 2.08-.05 2.88l1.22 1.22c.72.72 1.86.78 2.66.15l2-1.59c.48-.38.76-.96.76-1.57v-2.6c3.02-.98 6.29-.99 9.32 0v2.61c0 .61.28 1.19.76 1.57l1.99 1.58c.8.63 1.94.57 2.66-.15l1.22-1.22c.79-.8.79-2.13-.06-2.88z"/></symbol>
<symbol id="rss_feed" viewBox="0 0 24 24"><path d="M0 0h24v24H0V0z" fill="none"/><circle cx="6.18" cy="17.82" r="2.18"/><path d="M5.59 10.23c-.84-.14-1.59.55-1.59 1.4 0 .71.53 1.28 1.23 1.4 2.92.51 5.22 2.82 5.74 5.74.12.7.69 1.23 1.4 1.23.85 0 1.54-.75 1.41-1.59-.68-4.2-3.99-7.51-8.19-8.18zm-.03-5.71C4.73 4.43 4 5.1 4 5.93c0 .73.55 1.33 1.27 1.4 6.01.6 10.79 5.38 11.39 11.39.07.73.67 1.28 1.4 1.28.84 0 1.5-.73 1.42-1.56-.73-7.34-6.57-13.19-13.92-13.92z"/></symbol>
<symbol id="screen_share" viewBox="0 0 24 24"><path d="M0 0h24v24H0V0z" fill="none"/><path d="M20 18c1.1 0 2-.9 2-2V6c0-1.1-.9-2-2-2H4c-1.1 0-2 .9-2 2v10c0 1.1.89 2 2 2H1c-.55 0-1 .45-1 1s.45 1 1 1h22c.55 0 1-.45 1-1s-.45-1-1-1h-3zm-7-3.53v-2.19c-2.78 0-4.61.85-6 2.72.56-2.67 2.11-5.33 6-5.87V7l3.61 3.36c.21.2.21.53 0 .73L13 14.47z"/></symbol>
<symbol id="sentiment_satisfied_alt" viewBox="0 0 24 24"><path d="M0 0h24v24H0V0z" fill="none"/><circle cx="15.5" cy="9.5" r="1.5"/><circle cx="8.5" cy="9.5" r="1.5"/><path d="M11.99 2C6.47 2 2 6.48 2 12s4.47 10 9.99 10C17.52 22 22 17.52 22 12S17.52 2 11.99 2zM12 20c-4.42 0-8-3.58-8-8s3.58-8 8-8 8 3.58 8 8-3.58 8-8 8zm4.41-6.11c-.35-.22-.82-.11-1.03.24-.74 1.17-2 1.87-3.38 1.87s-2.64-.7-3.38-1.88c-.22-.35-.68-.46-1.03-.24-.35.22-.46.68-.24 1.03C8.37 16.54 10.1 17.5 12 17.5s3.63-.97 4.65-2.58c.22-.35.11-.81-.24-1.03z"/></symbol>
<symbol id="speaker_phone" viewBox="0 0 24 24"><path d="M0 0h24v24H0V0z" fill="none"/><path d="M7.76 7.83l.02.02c.35.35.89.38 1.3.09.83-.57 1.84-.92 2.92-.92s2.09.35 2.92.93c.4.29.95.26 1.3-.09l.02-.02c.42-.42.39-1.14-.09-1.49C14.98 5.5 13.55 5 12 5s-2.98.5-4.14 1.34c-.49.35-.52 1.07-.1 1.49zM12 1c-2.62 0-5.03.93-6.92 2.47-.46.37-.51 1.06-.08 1.49.36.36.93.39 1.32.07C7.86 3.76 9.85 3 12 3s4.14.76 5.69 2.03c.39.32.96.29 1.32-.07.42-.42.38-1.11-.08-1.49C17.03 1.93 14.62 1 12 1zm2.86 9.01L9.14 10C8.51 10 8 10.51 8 11.14v9.71c0 .63.51 1.14 1.14 1.14h5.71c.63 0 1.14-.51 1.14-1.14v-9.71c.01-.63-.5-1.13-1.13-1.13zM15 20H9v-8h6v8z"/></symbol>
<symbol id="stay_current_landscape" viewBox="0 0 24 24"><path d="M0 0h24v24H0V0z" fill="none"/><path d="M1.01 7L1 17c0 1.1.9 2 2 2h18c1.1 0 2-.9 2-2V7c0-1.1-.9-2-2-2H3c-1.1 0-1.99.9-1.99 2zM19 7v10H5V7h14z"/></symbol>
<symbol id="stay_current_portrait" viewBox="0 0 24 24"><path d="M0 0h24v24H0V0z" fill="none"/><path d="M17 1.01L7 1c-1.1 0-1.99.9-1.99 2v18c0 1.1.89 2 1.99 2h10c1.1 0 2-.9 2-2V3c0-1.1-.9-1.99-2-1.99zM17 19H7V5h10v14z"/></symbol>
<symbol id="stay_primary_landscape" viewBox="0 0 24 24"><path d="M0 0h24v24H0V0z" fill="none"/><path d="M1.01 7L1 17c0 1.1.9 2 2 2h18c1.1 0 2-.9 2-2V7c0-1.1-.9-2-2-2H3c-1.1 0-1.99.9-1.99 2zM19 7v10H5V7h14z"/></symbol>
<symbol id="stay_primary_portrait" viewBox="0 0 24 24"><path d="M0 0h24v24H0V0z" fill="none"/><path d="M17 1.01L7 1c-1.1 0-1.99.9-1.99 2v18c0 1.1.89 2 1.99 2h10c1.1 0 2-.9 2-2V3c0-1.1-.9-1.99-2-1.99zM17 19H7V5h10v14z"/></symbol>
<symbol id="stop_screen_share" viewBox="0 0 24 24"><path d="M0 0h24v24H0z" fill="none"/><path d="M23 18h-1.2l1.79 1.79c.24-.18.41-.46.41-.79 0-.55-.45-1-1-1zM3.23 2.28c-.39-.39-1.03-.39-1.42 0-.39.39-.39 1.02 0 1.41l.84.86s-.66.57-.66 1.47C2 6.92 2 16 2 16l.01.01c0 1.09.88 1.98 1.97 1.99H1c-.55 0-1 .45-1 1s.45 1 1 1h17.13l2 2c.39.39 1.02.39 1.41 0s.39-1.02 0-1.41L3.23 2.28zM7 15c.31-1.48.94-2.93 2.08-4.05l1.59 1.59C9.13 12.92 7.96 13.71 7 15zm6-5.87v-.98c0-.44.52-.66.84-.37L15 8.87l1.61 1.5c.21.2.21.53 0 .73l-.89.83 5.58 5.58c.43-.37.7-.9.7-1.51V6c0-1.09-.89-1.98-1.98-1.98H7.8l5.14 5.13c.02-.01.04-.02.06-.02z"/></symbol>
<symbol id="swap_calls" viewBox="0 0 24 24"><path d="M0 0h24v24H0V0z" fill="none"/><path d="M17.65 4.35l-2.79 2.79c-.32.32-.1.86.35.86H17v6.88c0 1-.67 1.93-1.66 2.09-1.25.21-2.34-.76-2.34-1.97V8.17c0-2.09-1.53-3.95-3.61-4.15C7.01 3.79 5 5.66 5 8v7H3.21c-.45 0-.67.54-.35.85l2.79 2.79c.2.2.51.2.71 0l2.79-2.79c.31-.31.09-.85-.36-.85H7V8.12c0-1 .67-1.93 1.66-2.09C9.91 5.82 11 6.79 11 8v6.83c0 2.09 1.53 3.95 3.61 4.15C16.99 19.21 19 17.34 19 15V8h1.79c.45 0 .67-.54.35-.85l-2.79-2.79c-.19-.2-.51-.2-.7-.01z"/></symbol>
<symbol id="textsms" viewBox="0 0 24 24"><path d="M0 0h24v24H0V0z" fill="none"/><path d="M20 2H4c-1.1 0-1.99.9-1.99 2L2 22l4-4h14c1.1 0 2-.9 2-2V4c0-1.1-.9-2-2-2zM9 11H7V9h2v2zm4 0h-2V9h2v2zm4 0h-2V9h2v2z"/></symbol>
<symbol id="unsubscribe" viewBox="0 0 24 24"><path d="M0 0h24v24H0V0z" fill="none"/><path d="M18.5 11.5c.92 0 1.75.26 2.49.69V5c0-1.1-.89-2-1.99-2H5c-1.1 0-2 .9-2 2v10c0 1.1.9 2 2 2h8.55c-.02-.17-.05-.33-.05-.5 0-2.76 2.24-5 5-5zm-5.61-1.45c-.56.28-1.23.28-1.79 0l-5.61-2.8c-.3-.15-.49-.46-.49-.8 0-.66.7-1.1 1.29-.8L12 8.5l5.71-2.85c.59-.3 1.29.13 1.29.8 0 .34-.19.65-.49.8l-5.62 2.8zM18.5 13c-1.93 0-3.5 1.57-3.5 3.5s1.57 3.5 3.5 3.5 3.5-1.57 3.5-3.5-1.57-3.5-3.5-3.5zm2 3.5c0 .28-.22.5-.5.5h-3c-.28 0-.5-.22-.5-.5s.22-.5.5-.5h3c.28 0 .5.22.5.5z"/></symbol>
<symbol id="voicemail" viewBox="0 0 24 24"><path d="M0 0h24v24H0V0z" fill="none"/><path d="M18.5 6C15.46 6 13 8.46 13 11.5c0 1.33.47 2.55 1.26 3.5H9.74c.79-.95 1.26-2.17 1.26-3.5C11 8.46 8.54 6 5.5 6S0 8.46 0 11.5 2.46 17 5.5 17h13c3.04 0 5.5-2.46 5.5-5.5S21.54 6 18.5 6zm-13 9C3.57 15 2 13.43 2 11.5S3.57 8 5.5 8 9 9.57 9 11.5 7.43 15 5.5 15zm13 0c-1.93 0-3.5-1.57-3.5-3.5S16.57 8 18.5 8 22 9.57 22 11.5 20.43 15 18.5 15z"/></symbol>
<symbol id="vpn_key" viewBox="0 0 24 24"><path d="M0 0h24v24H0V0z" fill="none"/><path d="M12.65 10C11.7 7.31 8.9 5.5 5.77 6.12c-2.29.46-4.15 2.29-4.63 4.58C.32 14.57 3.26 18 7 18c2.61 0 4.83-1.67 5.65-4H17v2c0 1.1.9 2 2 2s2-.9 2-2v-2c1.1 0 2-.9 2-2s-.9-2-2-2h-8.35zM7 14c-1.1 0-2-.9-2-2s.9-2 2-2 2 .9 2 2-.9 2-2 2z"/></symbol>
<symbol id="wifi_calling" viewBox="0 0 24 24"><g><rect fill="none" height="24" width="24"/><rect fill="none" height="24" width="24"/></g><g><g><path d="M22,4.95C21.79,4.78,19.67,3,16.5,3c-3.18,0-5.29,1.78-5.5,1.95L16.5,12L22,4.95z"/><path d="M19.2,15.28l-2.54-0.29c-0.61-0.07-1.21,0.14-1.64,0.57l-1.84,1.84c-2.83-1.44-5.15-3.75-6.59-6.59l1.85-1.85 c0.43-0.43,0.64-1.04,0.57-1.64L8.72,4.8C8.6,3.79,7.75,3.03,6.73,3.03H5c-1.13,0-2.07,0.94-2,2.07 C3.53,13.64,10.36,20.47,18.9,21c1.13,0.07,2.07-0.87,2.07-2v-1.73C20.97,16.25,20.21,15.4,19.2,15.28z"/></g></g></symbol>
</svg>