<svg xmlns="http://www.w3.org/2000/svg">
<symbol id="add" viewBox="0 0 24 24"><path d="M0 0h24v24H0V0z" fill="none"/><path d="M18 13h-5v5c0 .55-.45 1-1 1s-1-.45-1-1v-5H6c-.55 0-1-.45-1-1s.45-1 1-1h5V6c0-.55.45-1 1-1s1 .45 1 1v5h5c.55 0 1 .45 1 1s-.45 1-1 1z"/></symbol>
<symbol id="add_box" viewBox="0 0 24 24"><path d="M0 0h24v24H0V0z" fill="none"/><path d="M19 3H5c-1.11 0-2 .9-2 2v14c0 1.1.89 2 2 2h14c1.1 0 2-.9 2-2V5c0-1.1-.9-2-2-2zm-3 10h-3v3c0 .55-.45 1-1 1s-1-.45-1-1v-3H8c-.55 0-1-.45-1-1s.45-1 1-1h3V8c0-.55.45-1 1-1s1 .45 1 1v3h3c.55 0 1 .45 1 1s-.45 1-1 1z"/></symbol>
<symbol id="add_circle" viewBox="0 0 24 24"><path d="M0 0h24v24H0V0z" fill="none"/><path d="M12 2C6.48 2 2 6.48 2 12s4.48 10 10 10 10-4.48 10-10S17.52 2 12 2zm4 11h-3v3c0 .55-.45 1-1 1s-1-.45-1-1v-3H8c-.55 0-1-.45-1-1s.45-1 1-1h3V8c0-.55.45-1 1-1s1 .45 1 1v3h3c.55 0 1 .45 1 1s-.45 1-1 1z"/></symbol>
<symbol id="add_circle_outline" viewBox="0 0 24 24"><path d="M0 0h24v24H0V0z" fill="none"/><path d="M12 7c-.55 0-1 .45-1 1v3H8c-.55 0-1 .45-1 1s.45 1 1 1h3v3c0 .55.45 1 1 1s1-.45 1-1v-3h3c.55 0 1-.45 1-1s-.45-1-1-1h-3V8c0-.55-.45-1-1-1zm0-5C6.48 2 2 6.48 2 12s4.48 10 10 10 10-4.48 10-10S17.52 2 12 2zm0 18c-4.41 0-8-3.59-8-8s3.59-8 8-8 8 3.59 8 8-3.59 8-8 8z"/></symbol>
<symbol id="amp_stories" viewBox="0 0 24 24"><g><rect fill="none" height="24" width="24"/><rect fill="none" height="24" width="24"/></g><g><g/><g><path d="M16,4H8C7.45,4,7,4.45,7,5v13c0,0.55,0.45,1,1,1h8c0.55,0,1-0.45,1-1V5C17,4.45,16.55,4,16,4z"/><path d="M4,6C3.45,6,3,6.45,3,7v9c0,0.55,0.45,1,1,1s1-0.45,1-1V7C5,6.45,4.55,6,4,6z"/><path d="M20,6c-0.55,0-1,0.45-1,1v9c0,0.55,0.45,1,1,1s1-0.45,1-1V7C21,6.45,20.55,6,20,6z"/></g></g></symbol>
<symbol id="archive" viewBox="0 0 24 24"><path d="M0 0h24v24H0V0z" fill="none"/><path d="M20.54 5.23l-1.39-1.68C18.88 3.21 18.47 3 18 3H6c-.47 0-.88.21-1.16.55L3.46 5.23C3.17 5.57 3 6.02 3 6.5V19c0 1.1.9 2 2 2h14c1.1 0 2-.9 2-2V6.5c0-.48-.17-.93-.46-1.27zm-8.89 11.92L6.5 12H10v-2h4v2h3.5l-5.15 5.15c-.19.19-.51.19-.7 0zM5.12 5l.81-1h12l.94 1H5.12z"/></symbol>
<symbol id="attribution" viewBox="0 0 24 24"><path d="M0 0h24v24H0V0z" fill="none"/><path d="M12 8.5c-.91 0-2.75.46-2.75 1.38V14c0 .28.22.5.5.5h1v3.25c0 .69.56 1.25 1.25 1.25s1.25-.56 1.25-1.25V14.5h1c.28 0 .5-.22.5-.5V9.88c0-.91-1.84-1.38-2.75-1.38zM12 2C6.47 2 2 6.47 2 12s4.47 10 10 10 10-4.48 10-10S17.52 2 12 2zm0 18c-4.42 0-8-3.58-8-8s3.58-8 8-8 8 3.58 8 8-3.58 8-8 8z"/><circle cx="12" cy="6.5" r="1.5"/></symbol>
<symbol id="backspace" viewBox="0 0 24 24"><path d="M0 0h24v24H0V0z" fill="none"/><path d="M22 3H7c-.69 0-1.23.35-1.59.88L.37 11.45c-.22.34-.22.77 0 1.11l5.04 7.56c.36.52.9.88 1.59.88h15c1.1 0 2-.9 2-2V5c0-1.1-.9-2-2-2zm-3.7 13.3c-.39.39-1.02.39-1.41 0L14 13.41l-2.89 2.89c-.39.39-1.02.39-1.41 0-.39-.39-.39-1.02 0-1.41L12.59 12 9.7 9.11c-.39-.39-.39-1.02 0-1.41.39-.39 1.02-.39 1.41 0L14 10.59l2.89-2.89c.39-.39 1.02-.39 1.41 0 .39.39.39 1.02 0 1.41L15.41 12l2.89 2.89c.38.38.38 1.02 0 1.41z"/></symbol>
<symbol id="ballot" viewBox="0 0 24 24"><path d="M0 0h24v24H0V0z" fill="none"/><path d="M14 9.5h3c.55 0 1-.45 1-1s-.45-1-1-1h-3c-.55 0-1 .45-1 1s.45 1 1 1zm0 7h3c.55 0 1-.45 1-1s-.45-1-1-1h-3c-.55 0-1 .45-1 1s.45 1 1 1zm5 4.5H5c-1.1 0-2-.9-2-2V5c0-1.1.9-2 2-2h14c1.1 0 2 .9 2 2v14c0 1.1-.9 2-2 2zM7 11h3c.55 0 1-.45 1-1V7c0-.55-.45-1-1-1H7c-.55 0-1 .45-1 1v3c0 .55.45 1 1 1zm0-4h3v3H7V7zm0 11h3c.55 0 1-.45 1-1v-3c0-.55-.45-1-1-1H7c-.55 0-1 .45-1 1v3c0 .55.45 1 1 1zm0-4h3v3H7v-3z"/></symbol>
<symbol id="biotech" viewBox="0 0 24 24"><g><rect fill="none" height="24" width="24"/><rect fill="none" height="24" width="24"/></g><g><g><path d="M7,19c-1.1,0-2,0.9-2,2h14c0-1.1-0.9-2-2-2h-4v-2h3c1.1,0,2-0.9,2-2h-8c-1.66,0-3-1.34-3-3c0-1.09,0.59-2.04,1.46-2.56 C8.17,9.03,8,8.54,8,8c0-0.21,0.04-0.42,0.09-0.62C6.28,8.13,5,9.92,5,12c0,2.76,2.24,5,5,5v2H7z"/><path d="M10.56,5.51C11.91,5.54,13,6.64,13,8c0,0.75-0.33,1.41-0.85,1.87l0.25,0.68c0.19,0.52,0.76,0.79,1.28,0.6 c0.19,0.52,0.76,0.79,1.28,0.6c0.52-0.19,0.79-0.76,0.6-1.28c0.52-0.19,0.79-0.76,0.6-1.28L14.1,3.54 c-0.19-0.52-0.76-0.79-1.28-0.6c-0.19-0.52-0.76-0.79-1.28-0.6c-0.52,0.19-0.79,0.76-0.6,1.28c-0.52,0.19-0.79,0.76-0.6,1.28 L10.56,5.51z"/><circle cx="10.5" cy="8" r="1.5"/></g></g></symbol>
<symbol id="block" viewBox="0 0 24 24"><path d="M0 0h24v24H0V0z" fill="none"/><path d="M12 2C6.48 2 2 6.48 2 12s4.48 10 10 10 10-4.48 10-10S17.52 2 12 2zM4 12c0-4.42 3.58-8 8-8 1.85 0 3.55.63 4.9 1.69L5.69 16.9C4.63 15.55 4 13.85 4 12zm8 8c-1.85 0-3.55-.63-4.9-1.69L18.31 7.1C19.37 8.45 20 10.15 20 12c0 4.42-3.58 8-8 8z"/></symbol>
<symbol id="calculate" viewBox="0 0 24 24"><g><rect fill="none" height="24" width="24"/><rect fill="none" height="24" width="24"/></g><g><path d="M19,3H5C3.9,3,3,3.9,3,5v14c0,1.1,0.9,2,2,2h14c1.1,0,2-0.9,2-2V5C21,3.9,20.1,3,19,3z M13.56,6.53L13.56,6.53 c0.29-0.29,0.77-0.29,1.06,0l0.88,0.88l0.88-0.88c0.29-0.29,0.77-0.29,1.06,0l0,0c0.29,0.29,0.29,0.77,0,1.06l-0.88,0.88l0.88,0.88 c0.29,0.29,0.29,0.77,0,1.06v0c-0.29,0.29-0.77,0.29-1.06,0L15.5,9.54l-0.88,0.88c-0.29,0.29-0.77,0.29-1.06,0l0,0 c-0.29-0.29-0.29-0.77,0-1.06l0.88-0.88l-0.88-0.88C13.26,7.3,13.26,6.82,13.56,6.53z M7,7.72h3.5c0.41,0,0.75,0.34,0.75,0.75v0 c0,0.41-0.34,0.75-0.75,0.75H7c-0.41,0-0.75-0.34-0.75-0.75v0C6.25,8.06,6.59,7.72,7,7.72z M10.75,16H9.5v1.25 C9.5,17.66,9.16,18,8.75,18h0C8.34,18,8,17.66,8,17.25V16H6.75C6.34,16,6,15.66,6,15.25v0c0-0.41,0.34-0.75,0.75-0.75H8v-1.25 c0-0.41,0.34-0.75,0.75-0.75h0c0.41,0,0.75,0.34,0.75,0.75v1.25h1.25c0.41,0,0.75,0.34,0.75,0.75v0C11.5,15.66,11.16,16,10.75,16z M17.25,17.25h-3.5c-0.41,0-0.75-0.34-0.75-0.75l0,0c0-0.41,0.34-0.75,0.75-0.75h3.5c0.41,0,0.75,0.34,0.75,0.75l0,0 C18,16.91,17.66,17.25,17.25,17.25z M17.25,14.75h-3.5C13.34,14.75,13,14.41,13,14v0c0-0.41,0.34-0.75,0.75-0.75h3.5 c0.41,0,0.75,0.34,0.75,0.75v0C18,14.41,17.66,14.75,17.25,14.75z"/></g></symbol>
<symbol id="clear" viewBox="0 0 24 24"><path d="M0 0h24v24H0V0z" fill="none"/><path d="M18.3 5.71c-.39-.39-1.02-.39-1.41 0L12 10.59 7.11 5.7c-.39-.39-1.02-.39-1.41 0-.39.39-.39 1.02 0 1.41L10.59 12 5.7 16.89c-.39.39-.39 1.02 0 1.41.39.39 1.02.39 1.41 0L12 13.41l4.89 4.89c.39.39 1.02.39 1.41 0 .39-.39.39-1.02 0-1.41L13.41 12l4.89-4.89c.38-.38.38-1.02 0-1.4z"/></symbol>
<symbol id="content_copy" viewBox="0 0 24 24"><path d="M0 0h24v24H0V0z" fill="none"/><path d="M15 1H4c-1.1 0-2 .9-2 2v13c0 .55.45 1 1 1s1-.45 1-1V4c0-.55.45-1 1-1h10c.55 0 1-.45 1-1s-.45-1-1-1zm4 4H8c-1.1 0-2 .9-2 2v14c0 1.1.9 2 2 2h11c1.1 0 2-.9 2-2V7c0-1.1-.9-2-2-2zm-1 16H9c-.55 0-1-.45-1-1V8c0-.55.45-1 1-1h9c.55 0 1 .45 1 1v12c0 .55-.45 1-1 1z"/></symbol>
<symbol id="content_cut" viewBox="0 0 24 24"><path d="M0 0h24v24H0V0z" fill="none"/><path d="M9.64 7.64c.29-.62.42-1.33.34-2.09-.19-1.73-1.54-3.2-3.26-3.49-2.77-.48-5.14 1.89-4.66 4.65.3 1.72 1.76 3.07 3.49 3.26.76.08 1.46-.05 2.09-.34L10 12l-2.36 2.36c-.62-.29-1.33-.42-2.09-.34-1.73.19-3.2 1.54-3.49 3.26-.48 2.77 1.89 5.13 4.65 4.65 1.72-.3 3.07-1.76 3.26-3.49.08-.76-.05-1.46-.34-2.09L12 14l7.59 7.59c.89.89 2.41.26 2.41-1v-.01c0-.37-.15-.73-.41-1L9.64 7.64zM6 8c-1.1 0-2-.89-2-2s.9-2 2-2 2 .89 2 2-.9 2-2 2zm0 12c-1.1 0-2-.89-2-2s.9-2 2-2 2 .89 2 2-.9 2-2 2zm6-7.5c-.28 0-.5-.22-.5-.5s.22-.5.5-.5.5.22.5.5-.22.5-.5.5zm7.59-10.09L13 9l2 2 6.59-6.59c.26-.26.41-.62.41-1V3.4c0-1.25-1.52-1.88-2.41-.99z"/></symbol>
<symbol id="content_paste" viewBox="0 0 24 24"><path d="M0 0h24v24H0V0z" fill="none"/><path d="M19 2h-4.18C14.4.84 13.3 0 12 0S9.6.84 9.18 2H5c-1.1 0-2 .9-2 2v16c0 1.1.9 2 2 2h14c1.1 0 2-.9 2-2V4c0-1.1-.9-2-2-2zm-7 0c.55 0 1 .45 1 1s-.45 1-1 1-1-.45-1-1 .45-1 1-1zm6 18H6c-.55 0-1-.45-1-1V5c0-.55.45-1 1-1h1v1c0 1.1.9 2 2 2h6c1.1 0 2-.9 2-2V4h1c.55 0 1 .45 1 1v14c0 .55-.45 1-1 1z"/></symbol>
<symbol id="create" viewBox="0 0 24 24"><path d="M0 0h24v24H0V0z" fill="none"/><path d="M3 17.46v3.04c0 .28.22.5.5.5h3.04c.13 0 .26-.05.35-.15L17.81 9.94l-3.75-3.75L3.15 17.1c-.1.1-.15.22-.15.36zM20.71 7.04c.39-.39.39-1.02 0-1.41l-2.34-2.34c-.39-.39-1.02-.39-1.41 0l-1.83 1.83 3.75 3.75 1.83-1.83z"/></symbol>
<symbol id="delete_sweep" viewBox="0 0 24 24"><path d="M0 0h24v24H0V0z" fill="none"/><path d="M16 16h2c.55 0 1 .45 1 1s-.45 1-1 1h-2c-.55 0-1-.45-1-1s.45-1 1-1zm0-8h5c.55 0 1 .45 1 1s-.45 1-1 1h-5c-.55 0-1-.45-1-1s.45-1 1-1zm0 4h4c.55 0 1 .45 1 1s-.45 1-1 1h-4c-.55 0-1-.45-1-1s.45-1 1-1zM3 18c0 1.1.9 2 2 2h6c1.1 0 2-.9 2-2V8H3v10zM13 5h-2l-.71-.71c-.18-.18-.44-.29-.7-.29H6.41c-.26 0-.52.11-.7.29L5 5H3c-.55 0-1 .45-1 1s.45 1 1 1h10c.55 0 1-.45 1-1s-.45-1-1-1z"/></symbol>
<symbol id="drafts" viewBox="0 0 24 24"><path d="M0 0h24v24H0V0z" fill="none"/><path d="M21.99 8c0-.72-.37-1.35-.94-1.7l-8.04-4.71c-.62-.37-1.4-.37-2.02 0L2.95 6.3C2.38 6.65 2 7.28 2 8v10c0 1.1.9 2 2 2h16c1.1 0 2-.9 2-2l-.01-10zm-11.05 4.34l-7.2-4.5 7.25-4.25c.62-.37 1.4-.37 2.02 0l7.25 4.25-7.2 4.5c-.65.4-1.47.4-2.12 0z"/></symbol>
<symbol id="dynamic_feed" viewBox="0 0 24 24"><g><rect fill="none" height="24" width="24"/><rect fill="none" height="24" width="24"/></g><g><g/><g><path d="M7,8L7,8C6.45,8,6,8.45,6,9v6c0,1.1,0.9,2,2,2h8c0.55,0,1-0.45,1-1v0c0-0.55-0.45-1-1-1H8V9C8,8.45,7.55,8,7,8z"/><path d="M20,3h-8c-1.1,0-2,0.9-2,2v6c0,1.1,0.9,2,2,2h8c1.1,0,2-0.9,2-2V5C22,3.9,21.1,3,20,3z M19.5,11h-7 c-0.28,0-0.5-0.22-0.5-0.5V7h8v3.5C20,10.78,19.78,11,19.5,11z"/><path d="M3,12L3,12c-0.55,0-1,0.45-1,1v6c0,1.1,0.9,2,2,2h8c0.55,0,1-0.45,1-1v0c0-0.55-0.45-1-1-1H4v-6C4,12.45,3.55,12,3,12z"/></g></g><g display="none"><g display="inline"/><g display="inline"><path d="M7,8L7,8C6.45,8,6,8.45,6,9v6c0,1.1,0.9,2,2,2h8c0.55,0,1-0.45,1-1v0c0-0.55-0.45-1-1-1H8V9C8,8.45,7.55,8,7,8z"/><path d="M20,3h-8c-1.1,0-2,0.9-2,2v6c0,1.1,0.9,2,2,2h8c1.1,0,2-0.9,2-2V5C22,3.9,21.1,3,20,3z M19.5,11h-7 c-0.28,0-0.5-0.22-0.5-0.5V7h8v3.5C20,10.78,19.78,11,19.5,11z"/><path d="M3,12L3,12c-0.55,0-1,0.45-1,1v6c0,1.1,0.9,2,2,2h8c0.55,0,1-0.45,1-1v0c0-0.55-0.45-1-1-1H4v-6C4,12.45,3.55,12,3,12z"/></g></g></symbol>
<symbol id="file_copy" viewBox="0 0 24 24"><path d="M0 0h24v24H0V0z" fill="none"/><path d="M15 1H4c-1.1 0-2 .9-2 2v13c0 .55.45 1 1 1s1-.45 1-1V4c0-.55.45-1 1-1h10c.55 0 1-.45 1-1s-.45-1-1-1zm.59 4.59l4.83 4.83c.37.37.58.88.58 1.41V21c0 1.1-.9 2-2 2H7.99C6.89 23 6 22.1 6 21l.01-14c0-1.1.89-2 1.99-2h6.17c.53 0 1.04.21 1.42.59zM15 12h4.5L14 6.5V11c0 .55.45 1 1 1z"/></symbol>
<symbol id="filter_list" viewBox="0 0 24 24"><path d="M0 0h24v24H0V0z" fill="none"/><path d="M11 18h2c.55 0 1-.45 1-1s-.45-1-1-1h-2c-.55 0-1 .45-1 1s.45 1 1 1zM3 7c0 .55.45 1 1 1h16c.55 0 1-.45 1-1s-.45-1-1-1H4c-.55 0-1 .45-1 1zm4 6h10c.55 0 1-.45 1-1s-.45-1-1-1H7c-.55 0-1 .45-1 1s.45 1 1 1z"/></symbol>
<symbol id="flag" viewBox="0 0 24 24"><path d="M0 0h24v24H0V0z" fill="none"/><path d="M14.4 6l-.24-1.2c-.09-.46-.5-.8-.98-.8H6c-.55 0-1 .45-1 1v15c0 .55.45 1 1 1s1-.45 1-1v-6h5.6l.24 1.2c.09.47.5.8.98.8H19c.55 0 1-.45 1-1V7c0-.55-.45-1-1-1h-4.6z"/></symbol>
<symbol id="font_download" viewBox="0 0 24 24"><path d="M0 0h24v24H0V0z" fill="none"/><path d="M9.93 13.5h4.14L12 7.98 9.93 13.5zM20 2H4c-1.1 0-2 .9-2 2v16c0 1.1.9 2 2 2h16c1.1 0 2-.9 2-2V4c0-1.1-.9-2-2-2zm-4.29 15.88l-.9-2.38H9.17l-.89 2.37c-.14.38-.5.63-.91.63-.68 0-1.15-.69-.9-1.32l4.25-10.81c.22-.53.72-.87 1.28-.87s1.06.34 1.27.87l4.25 10.81c.25.63-.22 1.32-.9 1.32-.4 0-.76-.25-.91-.62z"/></symbol>
<symbol id="forward" viewBox="0 0 24 24"><path d="M0 0h24v24H0V0z" fill="none"/><path d="M12 8V6.41c0-.89 1.08-1.34 1.71-.71l5.59 5.59c.39.39.39 1.02 0 1.41l-5.59 5.59c-.63.63-1.71.19-1.71-.7V16H5c-.55 0-1-.45-1-1V9c0-.55.45-1 1-1h7z"/></symbol>
<symbol id="gesture" viewBox="0 0 24 24"><path d="M0 0h24v24H0V0z" fill="none"/><path d="M3.72 6.04c.47.46 1.21.48 1.71.06.37-.32.69-.51.87-.43.5.2 0 1.03-.3 1.52-.25.42-2.86 3.89-2.86 6.31 0 1.28.48 2.34 1.34 2.98.75.56 1.74.73 2.64.46 1.07-.31 1.95-1.4 3.06-2.77 1.21-1.49 2.83-3.44 4.08-3.44 1.63 0 1.65 1.01 1.76 1.79-3.78.64-5.38 3.67-5.38 5.37 0 1.7 1.44 3.09 3.21 3.09 1.63 0 4.29-1.33 4.69-6.1h1.21c.69 0 1.25-.56 1.25-1.25s-.56-1.25-1.25-1.25h-1.22c-.15-1.65-1.09-4.2-4.03-4.2-2.25 0-4.18 1.91-4.94 2.84-.58.73-2.06 2.48-2.29 2.72-.25.3-.68.84-1.11.84-.45 0-.72-.83-.36-1.92.35-1.09 1.4-2.86 1.85-3.52.78-1.14 1.3-1.92 1.3-3.28C8.95 3.69 7.31 3 6.44 3c-1.09 0-2.04.63-2.7 1.22-.53.48-.53 1.32-.02 1.82zm10.16 12.51c-.31 0-.74-.26-.74-.72 0-.6.73-2.2 2.87-2.76-.3 2.69-1.43 3.48-2.13 3.48z"/></symbol>
<symbol id="how_to_reg" viewBox="0 0 24 24"><path d="M0 0h24v24H0V0z" fill="none"/><path d="M12 20l-.86-.86c-1.18-1.18-1.17-3.1.02-4.26l.84-.82c-.39-.04-.68-.06-1-.06-2.67 0-8 1.34-8 4v2h9zm-1-8c2.21 0 4-1.79 4-4s-1.79-4-4-4-4 1.79-4 4 1.79 4 4 4"/><path d="M16.18 19.78c-.39.39-1.03.39-1.42 0l-2.07-2.09c-.38-.39-.38-1.01 0-1.39l.01-.01c.39-.39 1.02-.39 1.4 0l1.37 1.37 4.43-4.46c.39-.39 1.02-.39 1.41 0l.01.01c.38.39.38 1.01 0 1.39l-5.14 5.18z"/></symbol>
<symbol id="how_to_vote" viewBox="0 0 24 24"><path d="M0 0h24v24H0V0z" fill="none"/><path d="M11.34 15.02c.39.39 1.02.39 1.41 0l6.36-6.36c.39-.39.39-1.02 0-1.41L14.16 2.3c-.38-.4-1.01-.4-1.4-.01L6.39 8.66c-.39.39-.39 1.02 0 1.41l4.95 4.95zm2.12-10.61L17 7.95l-4.95 4.95-3.54-3.54 4.95-4.95zm6.95 11l-2.12-2.12c-.18-.18-.44-.29-.7-.29h-.27l-2 2h1.91L19 17H5l1.78-2h2.05l-2-2h-.42c-.27 0-.52.11-.71.29l-2.12 2.12c-.37.38-.58.89-.58 1.42V20c0 1.1.9 2 2 2h14c1.1 0 2-.89 2-2v-3.17c0-.53-.21-1.04-.59-1.42z"/></symbol>
<symbol id="inbox" viewBox="0 0 24 24"><path d="M0 0h24v24H0V0z" fill="none"/><path d="M19 3H4.99c-1.11 0-1.98.89-1.98 2L3 19c0 1.1.88 2 1.99 2H19c1.1 0 2-.9 2-2V5c0-1.11-.9-2-2-2zm0 12h-3.13c-.47 0-.85.34-.98.8-.35 1.27-1.52 2.2-2.89 2.2s-2.54-.93-2.89-2.2c-.13-.46-.51-.8-.98-.8H5V6c0-.55.45-1 1-1h12c.55 0 1 .45 1 1v9z"/></symbol>
<symbol id="insights" viewBox="0 0 24 24"><g><rect fill="none" height="24" width="24"/><rect fill="none" height="24" width="24"/></g><g><g><path d="M21,8c-1.45,0-2.26,1.44-1.93,2.51l-3.55,3.56c-0.3-0.09-0.74-0.09-1.04,0l-2.55-2.55C12.27,10.45,11.46,9,10,9 c-1.45,0-2.27,1.44-1.93,2.52l-4.56,4.55C2.44,15.74,1,16.55,1,18c0,1.1,0.9,2,2,2c1.45,0,2.26-1.44,1.93-2.51l4.55-4.56 c0.3,0.09,0.74,0.09,1.04,0l2.55,2.55C12.73,16.55,13.54,18,15,18c1.45,0,2.27-1.44,1.93-2.52l3.56-3.55 C21.56,12.26,23,11.45,23,10C23,8.9,22.1,8,21,8z"/><polygon points="15,9 15.94,6.93 18,6 15.94,5.07 15,3 14.08,5.07 12,6 14.08,6.93"/><polygon points="3.5,11 4,9 6,8.5 4,8 3.5,6 3,8 1,8.5 3,9"/></g></g></symbol>
<symbol id="link" viewBox="0 0 24 24"><path d="M0 0h24v24H0V0z" fill="none"/><path d="M17 7h-3c-.55 0-1 .45-1 1s.45 1 1 1h3c1.65 0 3 1.35 3 3s-1.35 3-3 3h-3c-.55 0-1 .45-1 1s.45 1 1 1h3c2.76 0 5-2.24 5-5s-2.24-5-5-5zm-9 5c0 .55.45 1 1 1h6c.55 0 1-.45 1-1s-.45-1-1-1H9c-.55 0-1 .45-1 1zm2 3H7c-1.65 0-3-1.35-3-3s1.35-3 3-3h3c.55 0 1-.45 1-1s-.45-1-1-1H7c-2.76 0-5 2.24-5 5s2.24 5 5 5h3c.55 0 1-.45 1-1s-.45-1-1-1z"/></symbol>
<symbol id="link_off" viewBox="0 0 24 24"><path d="M0 0h24v24H0V0z" fill="none"/><path d="M21.94 11.23C21.57 8.76 19.32 7 16.82 7h-2.87c-.52 0-.95.43-.95.95s.43.95.95.95h2.9c1.6 0 3.04 1.14 3.22 2.73.17 1.43-.64 2.69-1.85 3.22l1.4 1.4c1.63-1.02 2.64-2.91 2.32-5.02zM4.12 3.56c-.39-.39-1.02-.39-1.41 0s-.39 1.02 0 1.41l2.4 2.4c-1.94.8-3.27 2.77-3.09 5.04C2.23 15.05 4.59 17 7.23 17h2.82c.52 0 .95-.43.95-.95s-.43-.95-.95-.95H7.16c-1.63 0-3.1-1.19-3.25-2.82-.15-1.72 1.11-3.17 2.75-3.35l2.1 2.1c-.43.09-.76.46-.76.92v.1c0 .52.43.95.95.95h1.78L13 15.27V17h1.73l3.3 3.3c.39.39 1.02.39 1.41 0 .39-.39.39-1.02 0-1.41L4.12 3.56zM16 11.95c0-.52-.43-.95-.95-.95h-.66l1.49 1.49c.07-.13.12-.28.12-.44v-.1z"/></symbol>
<symbol id="low_priority" viewBox="0 0 24 24"><path d="M0 0h24v24H0V0z" fill="none"/><path d="M15 5h6c.55 0 1 .45 1 1s-.45 1-1 1h-6c-.55 0-1-.45-1-1s.45-1 1-1zm0 5.5h6c.55 0 1 .45 1 1s-.45 1-1 1h-6c-.55 0-1-.45-1-1s.45-1 1-1zm0 5.5h6c.55 0 1 .45 1 1s-.45 1-1 1h-6c-.55 0-1-.45-1-1s.45-1 1-1zm-5.15 3.15l1.79-1.79c.2-.2.2-.51 0-.71l-1.79-1.79c-.31-.32-.85-.1-.85.35v3.59c0 .44.54.66.85.35zM9 16h-.3c-2.35 0-4.45-1.71-4.68-4.05C3.76 9.27 5.87 7 8.5 7H11c.55 0 1-.45 1-1s-.45-1-1-1H8.5c-3.86 0-6.96 3.4-6.44 7.36C2.48 15.64 5.43 18 8.73 18H9"/></symbol>
<symbol id="mail" viewBox="0 0 24 24"><path d="M0 0h24v24H0V0z" fill="none"/><path d="M20 4H4c-1.1 0-2 .9-2 2v12c0 1.1.9 2 2 2h16c1.1 0 2-.9 2-2V6c0-1.1-.9-2-2-2zm-.4 4.25l-6.54 4.09c-.65.41-1.47.41-2.12 0L4.4 8.25c-.25-.16-.4-.43-.4-.72 0-.67.73-1.07 1.3-.72L12 11l6.7-4.19c.57-.35 1.3.05 1.3.72 0 .29-.15.56-.4.72z"/></symbol>
<symbol id="markunread" viewBox="0 0 24 24"><path d="M0 0h24v24H0V0z" fill="none"/><path d="M20 4H4c-1.1 0-2 .9-2 2v12c0 1.1.9 2 2 2h16c1.1 0 2-.9 2-2V6c0-1.1-.9-2-2-2zm-.4 4.25l-6.54 4.09c-.65.41-1.47.41-2.12 0L4.4 8.25c-.25-.16-.4-.43-.4-.72 0-.67.73-1.07 1.3-.72L12 11l6.7-4.19c.57-.35 1.3.05 1.3.72 0 .29-.15.56-.4.72z"/></symbol>
<symbol id="move_to_inbox" viewBox="0 0 24 24"><path d="M0 0h24v24H0V0z" fill="none"/><path d="M19 3H4.99C3.88 3 3 3.9 3 5v14c0 1.1.88 2 1.99 2H19c1.1 0 2-.9 2-2V5c0-1.1-.9-2-2-2zm0 12h-3.13c-.47 0-.85.34-.98.8-.35 1.27-1.52 2.2-2.89 2.2s-2.54-.93-2.89-2.2c-.13-.46-.51-.8-.98-.8H4.99V6c0-.55.45-1 1-1H18c.55 0 1 .45 1 1v9zm-3-5h-2V7h-4v3H8l3.65 3.65c.2.2.51.2.71 0L16 10z"/></symbol>
<symbol id="next_week" viewBox="0 0 24 24"><path d="M0 0h24v24H0V0z" fill="none"/><path d="M20 7h-4V5c0-.55-.22-1.05-.59-1.41C15.05 3.22 14.55 3 14 3h-4c-1.1 0-2 .9-2 2v2H4c-1.1 0-2 .9-2 2v11c0 1.1.9 2 2 2h16c1.1 0 2-.9 2-2V9c0-1.1-.9-2-2-2zM10 5h4v2h-4V5zm.5 13c-.28-.28-.28-.72 0-1l2.5-2.5-2.5-2.5c-.28-.28-.28-.72 0-1s.72-.28 1 0l3.15 3.15c.2.2.2.51 0 .71L11.5 18c-.28.28-.72.28-1 0z"/></symbol>
<symbol id="outlined_flag" viewBox="0 0 24 24"><path d="M0 0h24v24H0V0z" fill="none"/><path d="M14 6l-.72-1.45c-.17-.34-.52-.55-.9-.55H6c-.55 0-1 .45-1 1v15c0 .55.45 1 1 1s1-.45 1-1v-6h5l.72 1.45c.17.34.52.55.89.55H19c.55 0 1-.45 1-1V7c0-.55-.45-1-1-1h-5zm4 8h-4l-1-2H7V6h5l1 2h5v6z"/></symbol>
<symbol id="policy" viewBox="0 0 24 24"><g><rect fill="none" height="24" width="24"/><rect fill="none" height="24" width="24"/></g><g><g/><g><path d="M21,6.3c0-0.79-0.47-1.51-1.19-1.83l-7-3.11c-0.52-0.23-1.11-0.23-1.62,0l-7,3.11C3.47,4.79,3,5.51,3,6.3V11 c0,5.55,3.84,10.74,9,12c2.3-0.56,4.33-1.9,5.88-3.71l-3.12-3.12c-1.94,1.29-4.58,1.07-6.29-0.64c-1.95-1.95-1.95-5.12,0-7.07 c1.95-1.95,5.12-1.95,7.07,0c1.71,1.71,1.92,4.35,0.64,6.29l2.9,2.9C20.29,15.69,21,13.38,21,11V6.3z"/><circle cx="12" cy="12" r="3"/></g></g></symbol>
<symbol id="push_pin" viewBox="0 0 24 24"><g><rect fill="none" height="24" width="24"/><rect fill="none" height="24" width="24"/></g><g><path d="M19,12.87c0-0.47-0.34-0.85-0.8-0.98C16.93,11.54,16,10.38,16,9V4l1,0 c0.55,0,1-0.45,1-1c0-0.55-0.45-1-1-1H7C6.45,2,6,2.45,6,3c0,0.55,0.45,1,1,1l1,0v5c0,1.38-0.93,2.54-2.2,2.89 C5.34,12.02,5,12.4,5,12.87V13c0,0.55,0.45,1,1,1h4.98L11,21c0,0.55,0.45,1,1,1c0.55,0,1-0.45,1-1l-0.02-7H18c0.55,0,1-0.45,1-1 V12.87z" fill-rule="evenodd"/></g></symbol>
<symbol id="redo" viewBox="0 0 24 24"><path d="M0 0h24v24H0V0z" fill="none"/><path d="M18.4 10.6C16.55 8.99 14.15 8 11.5 8c-4.16 0-7.74 2.42-9.44 5.93-.32.67.04 1.47.75 1.71.59.2 1.23-.08 1.5-.64 1.3-2.66 4.03-4.5 7.19-4.5 1.95 0 3.73.72 5.12 1.88l-1.91 1.91c-.63.63-.19 1.71.7 1.71H21c.55 0 1-.45 1-1V9.41c0-.89-1.08-1.34-1.71-.71l-1.89 1.9z"/></symbol>
<symbol id="remove" viewBox="0 0 24 24"><path d="M0 0h24v24H0V0z" fill="none"/><path d="M18 13H6c-.55 0-1-.45-1-1s.45-1 1-1h12c.55 0 1 .45 1 1s-.45 1-1 1z"/></symbol>
<symbol id="remove_circle" viewBox="0 0 24 24"><path d="M0 0h24v24H0V0z" fill="none"/><path d="M12 2C6.48 2 2 6.48 2 12s4.48 10 10 10 10-4.48 10-10S17.52 2 12 2zm4 11H8c-.55 0-1-.45-1-1s.45-1 1-1h8c.55 0 1 .45 1 1s-.45 1-1 1z"/></symbol>
<symbol id="remove_circle_outline" viewBox="0 0 24 24"><path d="M0 0h24v24H0V0z" fill="none"/><path d="M7 12c0 .55.45 1 1 1h8c.55 0 1-.45 1-1s-.45-1-1-1H8c-.55 0-1 .45-1 1zm5-10C6.48 2 2 6.48 2 12s4.48 10 10 10 10-4.48 10-10S17.52 2 12 2zm0 18c-4.41 0-8-3.59-8-8s3.59-8 8-8 8 3.59 8 8-3.59 8-8 8z"/></symbol>
<symbol id="reply" viewBox="0 0 24 24"><path d="M0 0h24v24H0V0z" fill="none"/><path d="M10 9V7.41c0-.89-1.08-1.34-1.71-.71L3.7 11.29c-.39.39-.39 1.02 0 1.41l4.59 4.59c.63.63 1.71.19 1.71-.7V14.9c5 0 8.5 1.6 11 5.1-1-5-4-10-11-11z"/></symbol>
<symbol id="reply_all" viewBox="0 0 24 24"><path d="M0 0h24v24H0V0z" fill="none"/><path d="M7 7.56c0-.94-1.14-1.42-1.81-.75L.71 11.29c-.39.39-.39 1.02 0 1.41l4.48 4.48c.67.68 1.81.2 1.81-.74 0-.28-.11-.55-.31-.75L3 12l3.69-3.69c.2-.2.31-.47.31-.75zM13 9V7.41c0-.89-1.08-1.34-1.71-.71L6.7 11.29c-.39.39-.39 1.02 0 1.41l4.59 4.59c.63.63 1.71.18 1.71-.71V14.9c5 0 8.5 1.6 11 5.1-1-5-4-10-11-11z"/></symbol>
<symbol id="report" viewBox="0 0 24 24"><path d="M0 0h24v24H0V0z" fill="none"/><path d="M15.32 3H8.68c-.26 0-.52.11-.7.29L3.29 7.98c-.18.18-.29.44-.29.7v6.63c0 .27.11.52.29.71l4.68 4.68c.19.19.45.3.71.3h6.63c.27 0 .52-.11.71-.29l4.68-4.68c.19-.19.29-.44.29-.71V8.68c0-.27-.11-.52-.29-.71l-4.68-4.68c-.18-.18-.44-.29-.7-.29zM12 17.3c-.72 0-1.3-.58-1.3-1.3s.58-1.3 1.3-1.3 1.3.58 1.3 1.3-.58 1.3-1.3 1.3zm0-4.3c-.55 0-1-.45-1-1V8c0-.55.45-1 1-1s1 .45 1 1v4c0 .55-.45 1-1 1z"/></symbol>
<symbol id="report_gmailerrorred" viewBox="0 0 24 24"><path d="M0 0h24v24H0V0z" fill="none"/><path d="M20.71 7.98L16.03 3.3c-.19-.19-.45-.3-.71-.3H8.68c-.26 0-.52.11-.7.29L3.29 7.98c-.18.18-.29.44-.29.7v6.63c0 .27.11.52.29.71l4.68 4.68c.19.19.45.3.71.3h6.63c.27 0 .52-.11.71-.29l4.68-4.68c.19-.19.29-.44.29-.71V8.68c.01-.26-.1-.52-.28-.7zM19 14.9L14.9 19H9.1L5 14.9V9.1L9.1 5h5.8L19 9.1v5.8z"/><circle cx="12" cy="16" r="1"/><path d="M12 7c-.55 0-1 .45-1 1v5c0 .55.45 1 1 1s1-.45 1-1V8c0-.55-.45-1-1-1z"/></symbol>
<symbol id="report_off" viewBox="0 0 24 24"><path d="M0 0h24v24H0V0z" fill="none"/><path d="M12 7c.55 0 1 .45 1 1v1.33l7.2 7.2.51-.51c.19-.19.29-.44.29-.71V8.68c0-.27-.11-.52-.29-.71l-4.68-4.68c-.19-.18-.45-.29-.71-.29H8.68c-.26 0-.52.11-.7.29l-.51.51 3.69 3.69c.17-.29.48-.49.84-.49zM2.41 1.58L1 2.99l3.64 3.64-1.35 1.35c-.18.18-.29.44-.29.7v6.63c0 .27.11.52.29.71l4.68 4.68c.19.19.45.3.71.3h6.63c.27 0 .52-.11.71-.29l1.35-1.35L21.01 23l1.41-1.41L2.41 1.58zM12 17.3c-.72 0-1.3-.58-1.3-1.3 0-.72.58-1.3 1.3-1.3s1.3.58 1.3 1.3c0 .72-.58 1.3-1.3 1.3z"/></symbol>
<symbol id="save" viewBox="0 0 24 24"><path d="M0 0h24v24H0V0z" fill="none"/><path d="M17.59 3.59c-.38-.38-.89-.59-1.42-.59H5c-1.11 0-2 .9-2 2v14c0 1.1.9 2 2 2h14c1.1 0 2-.9 2-2V7.83c0-.53-.21-1.04-.59-1.41l-2.82-2.83zM12 19c-1.66 0-3-1.34-3-3s1.34-3 3-3 3 1.34 3 3-1.34 3-3 3zm1-10H7c-1.1 0-2-.9-2-2s.9-2 2-2h6c1.1 0 2 .9 2 2s-.9 2-2 2z"/></symbol>
<symbol id="save_alt" viewBox="0 0 24 24"><path d="M0 0h24v24H0V0z" fill="none"/><path d="M19 13v5c0 .55-.45 1-1 1H6c-.55 0-1-.45-1-1v-5c0-.55-.45-1-1-1s-1 .45-1 1v6c0 1.1.9 2 2 2h14c1.1 0 2-.9 2-2v-6c0-.55-.45-1-1-1s-1 .45-1 1zm-6-.33l1.88-1.88c.39-.39 1.02-.39 1.41 0 .39.39.39 1.02 0 1.41l-3.59 3.59c-.39.39-1.02.39-1.41 0L7.7 12.2c-.39-.39-.39-1.02 0-1.41.39-.39 1.02-.39 1.41 0L11 12.67V4c0-.55.45-1 1-1s1 .45 1 1v8.67z"/></symbol>
<symbol id="select_all" viewBox="0 0 24 24"><path d="M0 0h24v24H0V0z" fill="none"/><path d="M3 5h2V3c-1.1 0-2 .9-2 2zm0 8h2v-2H3v2zm4 8h2v-2H7v2zM3 9h2V7H3v2zm10-6h-2v2h2V3zm6 0v2h2c0-1.1-.9-2-2-2zM5 21v-2H3c0 1.1.9 2 2 2zm-2-4h2v-2H3v2zM9 3H7v2h2V3zm2 18h2v-2h-2v2zm8-8h2v-2h-2v2zm0 8c1.1 0 2-.9 2-2h-2v2zm0-12h2V7h-2v2zm0 8h2v-2h-2v2zm-4 4h2v-2h-2v2zm0-16h2V3h-2v2zM8 17h8c.55 0 1-.45 1-1V8c0-.55-.45-1-1-1H8c-.55 0-1 .45-1 1v8c0 .55.45 1 1 1zm1-8h6v6H9V9z"/></symbol>
<symbol id="send" viewBox="0 0 24 24"><path d="M0 0h24v24H0V0z" fill="none"/><path d="M3.4 20.4l17.45-7.48c.81-.35.81-1.49 0-1.84L3.4 3.6c-.66-.29-1.39.2-1.39.91L2 9.12c0 .5.37.93.87.99L17 12 2.87 13.88c-.5.07-.87.5-.87 1l.01 4.61c0 .71.73 1.2 1.39.91z"/></symbol>
<symbol id="sort" viewBox="0 0 24 24"><path d="M0 0h24v24H0V0z" fill="none"/><path d="M4 18h4c.55 0 1-.45 1-1s-.45-1-1-1H4c-.55 0-1 .45-1 1s.45 1 1 1zM3 7c0 .55.45 1 1 1h16c.55 0 1-.45 1-1s-.45-1-1-1H4c-.55 0-1 .45-1 1zm1 6h10c.55 0 1-.45 1-1s-.45-1-1-1H4c-.55 0-1 .45-1 1s.45 1 1 1z"/></symbol>
<symbol id="square_foot" viewBox="0 0 24 24"><g><rect fill="none" height="24" width="24"/><rect fill="none" height="24" width="24"/></g><g><g><path d="M17.66,17.66l-0.71,0.71c-0.2,0.2-0.51,0.2-0.71,0l0,0c-0.2-0.2-0.2-0.51,0-0.71l0.71-0.71l-1.94-1.94l-0.71,0.71 c-0.2,0.2-0.51,0.2-0.71,0l0,0c-0.2-0.2-0.2-0.51,0-0.71l0.71-0.71l-1.94-1.94l-0.71,0.71c-0.2,0.2-0.51,0.2-0.71,0l0,0 c-0.2-0.2-0.2-0.51,0-0.71l0.71-0.71L9.7,9.7l-0.71,0.71c-0.2,0.2-0.51,0.2-0.71,0l0,0c-0.2-0.2-0.2-0.51,0-0.71l0.71-0.71 L7.05,7.05L6.34,7.76c-0.2,0.2-0.51,0.2-0.71,0l0,0c-0.2-0.2-0.2-0.51,0-0.71l0.71-0.71L4.85,4.85C4.54,4.54,4,4.76,4,5.21V18 c0,1.1,0.9,2,2,2h12.79c0.45,0,0.67-0.54,0.35-0.85L17.66,17.66z M7,16v-4.76L12.76,17H8C7.45,17,7,16.55,7,16z"/></g></g></symbol>
<symbol id="text_format" viewBox="0 0 24 24"><path d="M0 0h24v24H0V0z" fill="none"/><path d="M5 18c0 .55.45 1 1 1h12c.55 0 1-.45 1-1s-.45-1-1-1H6c-.55 0-1 .45-1 1zm4.5-5.2h5l.66 1.6c.15.36.5.6.89.6.69 0 1.15-.71.88-1.34l-3.88-8.97C12.87 4.27 12.46 4 12 4c-.46 0-.87.27-1.05.69l-3.88 8.97c-.27.63.2 1.34.89 1.34.39 0 .74-.24.89-.6l.65-1.6zM12 5.98L13.87 11h-3.74L12 5.98z"/></symbol>
<symbol id="unarchive" viewBox="0 0 24 24"><path d="M0 0h24v24H0V0z" fill="none"/><path d="M20.55 5.22l-1.39-1.68C18.88 3.21 18.47 3 18 3H6c-.47 0-.88.21-1.15.55L3.46 5.22C3.17 5.57 3 6.01 3 6.5V19c0 1.1.89 2 2 2h14c1.1 0 2-.9 2-2V6.5c0-.49-.17-.93-.45-1.28zm-8.2 4.63L17.5 15H14v2h-4v-2H6.5l5.15-5.15c.19-.19.51-.19.7 0zM5.12 5l.82-1h12l.93 1H5.12z"/></symbol>
<symbol id="undo" viewBox="0 0 24 24"><path d="M0 0h24v24H0V0z" fill="none"/><path d="M12.5 8c-2.65 0-5.05.99-6.9 2.6L3.71 8.71C3.08 8.08 2 8.52 2 9.41V15c0 .55.45 1 1 1h5.59c.89 0 1.34-1.08.71-1.71l-1.91-1.91c1.39-1.16 3.16-1.88 5.12-1.88 3.16 0 5.89 1.84 7.19 4.5.27.56.91.84 1.5.64.71-.23 1.07-1.04.75-1.72C20.23 10.42 16.65 8 12.5 8z"/></symbol>
<symbol id="waves" viewBox="0 0 24 24"><path d="M0 0h24v24H0V0z" fill="none"/><path d="M17 16.99c-1.35 0-2.2.42-2.95.8-.65.33-1.18.6-2.05.6-.9 0-1.4-.25-2.05-.6-.75-.38-1.57-.8-2.95-.8s-2.2.42-2.95.8c-.43.22-.81.41-1.27.52-.45.1-.78.46-.78.91v.1c0 .6.56 1.03 1.14.91.74-.15 1.3-.43 1.81-.69.65-.33 1.17-.6 2.05-.6s1.4.25 2.05.6c.75.38 1.57.8 2.95.8s2.2-.42 2.95-.8c.65-.33 1.18-.6 2.05-.6.9 0 1.4.25 2.05.6.52.26 1.08.55 1.83.7.58.11 1.12-.33 1.12-.91v-.09c0-.46-.34-.82-.79-.92-.46-.1-.83-.29-1.26-.52-.75-.39-1.6-.81-2.95-.81zm0-4.45c-1.35 0-2.2.43-2.95.8-.65.32-1.18.6-2.05.6-.9 0-1.4-.25-2.05-.6-.75-.38-1.57-.8-2.95-.8s-2.2.43-2.95.8c-.43.21-.81.41-1.28.52-.44.1-.77.46-.77.91v.1c0 .59.54 1.03 1.12.91.75-.15 1.31-.44 1.83-.69.65-.35 1.15-.6 2.05-.6s1.4.25 2.05.6c.75.38 1.57.8 2.95.8s2.2-.43 2.95-.8c.65-.35 1.15-.6 2.05-.6s1.4.25 2.05.6c.52.26 1.08.55 1.83.7.58.11 1.12-.33 1.12-.92v-.09c0-.46-.34-.82-.79-.92-.46-.1-.83-.29-1.26-.52-.75-.38-1.6-.8-2.95-.8zm2.95-8.08c-.75-.38-1.58-.8-2.95-.8s-2.2.42-2.95.8c-.65.32-1.18.6-2.05.6-.9 0-1.4-.25-2.05-.6-.75-.37-1.57-.8-2.95-.8s-2.2.42-2.95.8c-.43.22-.81.41-1.27.52-.45.1-.78.46-.78.91v.07c0 .6.54 1.04 1.12.92.75-.15 1.31-.44 1.83-.69.65-.33 1.17-.6 2.05-.6s1.4.25 2.05.6c.75.38 1.57.8 2.95.8s2.2-.43 2.95-.8c.65-.32 1.18-.6 2.05-.6.9 0 1.4.25 2.05.6.52.26 1.08.55 1.83.7.58.11 1.12-.33 1.12-.92v-.09c0-.46-.34-.82-.79-.92-.46-.1-.83-.28-1.26-.5zM17 8.09c-1.35 0-2.2.43-2.95.8-.65.35-1.15.6-2.05.6s-1.4-.25-2.05-.6c-.75-.38-1.57-.8-2.95-.8s-2.2.43-2.95.8c-.43.23-.8.42-1.26.52-.45.1-.79.46-.79.92v.09c0 .59.54 1.03 1.12.91.75-.15 1.31-.44 1.83-.69.65-.32 1.18-.6 2.05-.6s1.4.25 2.05.6c.75.38 1.57.8 2.95.8s2.2-.43 2.95-.8c.65-.32 1.18-.6 2.05-.6.9 0 1.4.25 2.05.6.52.26 1.08.55 1.83.7.58.11 1.12-.33 1.12-.91v-.09c0-.46-.34-.82-.79-.92-.46-.1-.83-.29-1.26-.52-.75-.39-1.6-.81-2.95-.81z"/></symbol>
<symbol id="weekend" viewBox="0 0 24 24"><path d="M0 0h24v24H0V0z" fill="none"/><path d="M21 10c-1.1 0-2 .9-2 2v3H5v-3c0-1.1-.9-2-2-2s-2 .9-2 2v5c0 1.1.9 2 2 2h18c1.1 0 2-.9 2-2v-5c0-1.1-.9-2-2-2zm-3-5H6c-1.1 0-2 .9-2 2v2.15c1.16.41 2 1.51 2 2.82V14h12v-2.03c0-1.3.84-2.4 2-2.82V7c0-1.1-.9-2-2-2z"/></symbol>
<symbol id="where_to_vote" viewBox="0 0 24 24"><path d="M0 0h24v24H0V0z" fill="none"/><path d="M12 2C8.14 2 5 5.14 5 9c0 4.17 4.42 9.92 6.23 12.11.4.48 1.13.48 1.53 0C14.58 18.92 19 13.17 19 9c0-3.86-3.14-7-7-7zm4.31 6.16l-5.13 5.13c-.39.39-1.02.39-1.41 0L7.7 11.22c-.39-.39-.39-1.03 0-1.42.39-.39 1.03-.39 1.42 0l1.36 1.36 4.42-4.42c.39-.39 1.03-.39 1.42 0 .38.4.38 1.03-.01 1.42z"/></symbol>
</svg>