<svg xmlns="http://www.w3.org/2000/svg">
<symbol id="access_alarm" viewBox="0 0 24 24"><path d="M0 0h24v24H0V0z" fill="none"/><path d="M15.87 15.25l-3.37-2V8.72c0-.4-.32-.72-.72-.72h-.06c-.4 0-.72.32-.72.72v4.72c0 .35.18.68.49.86l3.65 2.19c.34.2.78.1.98-.24.21-.35.1-.8-.25-1zm5.31-10.24L18.1 2.45c-.42-.35-1.05-.3-1.41.13-.35.42-.29 1.05.13 1.41l3.07 2.56c.42.35 1.05.3 1.41-.13.36-.42.3-1.05-.12-1.41zM4.1 6.55l3.07-2.56c.43-.36.49-.99.13-1.41-.35-.43-.98-.48-1.4-.13L2.82 5.01c-.42.36-.48.99-.12 1.41.35.43.98.48 1.4.13zM12 4c-4.97 0-9 4.03-9 9s4.03 9 9 9 9-4.03 9-9-4.03-9-9-9zm0 16c-3.86 0-7-3.14-7-7s3.14-7 7-7 7 3.14 7 7-3.14 7-7 7z"/></symbol>
<symbol id="access_alarms" viewBox="0 0 24 24"><path d="M0 0h24v24H0V0z" fill="none"/><path d="M15.87 15.25l-3.37-2V8.72c0-.4-.32-.72-.72-.72h-.06c-.4 0-.72.32-.72.72v4.72c0 .35.18.68.49.86l3.65 2.19c.34.2.78.1.98-.24.21-.35.1-.8-.25-1zm5.31-10.24L18.1 2.45c-.42-.35-1.05-.3-1.41.13-.35.42-.29 1.05.13 1.41l3.07 2.56c.42.35 1.05.3 1.41-.13.36-.42.3-1.05-.12-1.41zM4.1 6.55l3.07-2.56c.43-.36.49-.99.13-1.41-.35-.43-.98-.48-1.4-.13L2.82 5.01c-.42.36-.48.99-.12 1.41.35.43.98.48 1.4.13zM12 4c-4.97 0-9 4.03-9 9s4.03 9 9 9 9-4.03 9-9-4.03-9-9-9zm0 16c-3.86 0-7-3.14-7-7s3.14-7 7-7 7 3.14 7 7-3.14 7-7 7z"/></symbol>
<symbol id="access_time" viewBox="0 0 24 24"><path d="M0 0h24v24H0V0z" fill="none"/><path d="M11.99 2C6.47 2 2 6.48 2 12s4.47 10 9.99 10C17.52 22 22 17.52 22 12S17.52 2 11.99 2zM12 20c-4.42 0-8-3.58-8-8s3.58-8 8-8 8 3.58 8 8-3.58 8-8 8zm-.22-13h-.06c-.4 0-.72.32-.72.72v4.72c0 .35.18.68.49.86l4.15 2.49c.34.2.78.1.98-.24.21-.34.1-.79-.25-.99l-3.87-2.3V7.72c0-.4-.32-.72-.72-.72z"/></symbol>
<symbol id="add_alarm" viewBox="0 0 24 24"><path d="M0 0h24v24H0V0z" fill="none"/><path d="M15 12h-2v-2c0-.55-.45-1-1-1s-1 .45-1 1v2H9c-.55 0-1 .45-1 1s.45 1 1 1h2v2c0 .55.45 1 1 1s1-.45 1-1v-2h2c.55 0 1-.45 1-1s-.45-1-1-1zm6.18-6.99L18.1 2.45c-.42-.35-1.05-.3-1.41.13-.35.42-.29 1.05.13 1.41l3.07 2.56c.42.35 1.05.3 1.41-.13.36-.42.3-1.05-.12-1.41zM4.1 6.55l3.07-2.56c.43-.36.49-.99.13-1.41-.35-.43-.98-.48-1.4-.13L2.82 5.01c-.42.36-.48.99-.12 1.41.35.43.98.48 1.4.13zM12 4c-4.97 0-9 4.03-9 9s4.03 9 9 9 9-4.03 9-9-4.03-9-9-9zm0 16c-3.86 0-7-3.14-7-7s3.14-7 7-7 7 3.14 7 7-3.14 7-7 7z"/></symbol>
<symbol id="add_to_home_screen" viewBox="0 0 24 24"><path d="M0 0h24v24H0V0z" fill="none"/><path d="M18 1.01L8 1c-1.1 0-2 .9-2 2v3c0 .55.45 1 1 1s1-.45 1-1V5h10v14H8v-1c0-.55-.45-1-1-1s-1 .45-1 1v3c0 1.1.9 2 2 2h10c1.1 0 2-.9 2-2V3c0-1.1-.9-1.99-2-1.99zM11 15c.55 0 1-.45 1-1V9c0-.55-.45-1-1-1H6c-.55 0-1 .45-1 1s.45 1 1 1h2.59L3.7 14.89c-.39.39-.39 1.02 0 1.41.39.39 1.02.39 1.41 0L10 11.41V14c0 .55.45 1 1 1z"/></symbol>
<symbol id="ad_units" viewBox="0 0 24 24"><g><rect fill="none" height="24" width="24" x="0"/><g><path d="M17,1H7C5.9,1,5,1.9,5,3v18c0,1.1,0.9,2,2,2h10c1.1,0,2-0.9,2-2V3C19,1.9,18.1,1,17,1z M16,19H8c-0.55,0-1-0.45-1-1V6 c0-0.55,0.45-1,1-1h8c0.55,0,1,0.45,1,1v12C17,18.55,16.55,19,16,19z"/><path d="M15,6H9C8.45,6,8,6.45,8,7v0c0,0.55,0.45,1,1,1h6c0.55,0,1-0.45,1-1v0C16,6.45,15.55,6,15,6z"/></g></g></symbol>
<symbol id="airplanemode_active" viewBox="0 0 24 24"><g><path d="M21.48,13.7L13.5,9V3.5C13.5,2.67,12.83,2,12,2c-0.83,0-1.5,0.67-1.5,1.5V9l-7.98,4.7C2.2,13.88,2,14.23,2,14.6 c0,0.7,0.67,1.2,1.34,1.01l7.16-2.1V19l-2.26,1.35C8.09,20.44,8,20.61,8,20.78l0,0.5h0v0.08c0,0.33,0.31,0.57,0.62,0.49l2.92-0.73 L12,21l0.38,0.09c0,0,0,0,0,0l0.42,0.11l1.9,0.48l0,0l0.67,0.17c0.32,0.08,0.62-0.16,0.62-0.49v-0.37c0,0,0,0,0,0v-0.21 c0-0.18-0.09-0.34-0.24-0.43L13.5,19v-5.5l7.16,2.1C21.33,15.8,22,15.3,22,14.6C22,14.23,21.8,13.88,21.48,13.7z"/><path d="M0,0h24v24H0V0z" fill="none"/></g></symbol>
<symbol id="airplanemode_inactive" viewBox="0 0 24 24"><g><path d="M22,14.6c0,0.7-0.67,1.2-1.34,1.01l-3.15-0.93L10.5,7.67V3.5C10.5,2.67,11.17,2,12,2c0.83,0,1.5,0.67,1.5,1.5V9l7.98,4.7 C21.8,13.88,22,14.23,22,14.6z M13.5,13.5L9.56,9.56L3.51,3.51c-0.39-0.39-1.02-0.39-1.41,0l0,0c-0.39,0.39-0.39,1.02,0,1.41 l5.67,5.67L2.52,13.7C2.2,13.88,2,14.23,2,14.6c0,0.7,0.67,1.2,1.34,1.01l7.16-2.1V19l-2.26,1.35C8.09,20.44,8,20.61,8,20.78l0,0.5 h0v0.08c0,0.33,0.31,0.57,0.62,0.49l2.92-0.73L12,21l0.38,0.09c0,0,0,0,0,0l0.42,0.11l1.9,0.48l0,0l0.67,0.17 c0.32,0.08,0.62-0.16,0.62-0.49v-0.37c0,0,0,0,0,0v-0.21c0-0.18-0.09-0.34-0.24-0.43L13.5,19v-2.67l5.57,5.57h0l0,0 c0.39,0.39,1.02,0.39,1.41,0s0.39-1.02,0-1.41L13.5,13.5z"/><path d="M0,0h24v24H0V0z" fill="none"/></g></symbol>
<symbol id="battery_alert" viewBox="0 0 24 24"><path d="M0 0h24v24H0V0z" fill="none"/><path d="M15.67 4H14V3c0-.55-.45-1-1-1h-2c-.55 0-1 .45-1 1v1H8.33C7.6 4 7 4.6 7 5.33v15.33C7 21.4 7.6 22 8.34 22h7.32c.74 0 1.34-.6 1.34-1.33V5.33C17 4.6 16.4 4 15.67 4zM13 18h-2v-2h2v2zm0-5c0 .55-.45 1-1 1s-1-.45-1-1v-3c0-.55.45-1 1-1s1 .45 1 1v3z"/></symbol>
<symbol id="battery_charging_full" viewBox="0 0 24 24"><path d="M0 0h24v24H0V0z" fill="none"/><path d="M15.67 4H14V3c0-.55-.45-1-1-1h-2c-.55 0-1 .45-1 1v1H8.33C7.6 4 7 4.6 7 5.33v15.33C7 21.4 7.6 22 8.34 22h7.32c.74 0 1.34-.6 1.34-1.33V5.33C17 4.6 16.4 4 15.67 4zm-1.06 9.24l-2.67 5c-.24.45-.94.28-.94-.24v-3.5H9.83c-.38 0-.62-.4-.44-.74l2.67-5c.24-.45.94-.28.94.24v3.5h1.17c.37 0 .62.4.44.74z"/></symbol>
<symbol id="battery_full" viewBox="0 0 24 24"><path d="M0 0h24v24H0V0z" fill="none"/><path d="M15.67 4H14V3c0-.55-.45-1-1-1h-2c-.55 0-1 .45-1 1v1H8.33C7.6 4 7 4.6 7 5.33v15.33C7 21.4 7.6 22 8.34 22h7.32c.74 0 1.34-.6 1.34-1.33V5.33C17 4.6 16.4 4 15.67 4z"/></symbol>
<symbol id="battery_std" viewBox="0 0 24 24"><path d="M0 0h24v24H0V0z" fill="none"/><path d="M15.67 4H14V3c0-.55-.45-1-1-1h-2c-.55 0-1 .45-1 1v1H8.33C7.6 4 7 4.6 7 5.33v15.33C7 21.4 7.6 22 8.34 22h7.32c.74 0 1.34-.6 1.34-1.33V5.33C17 4.6 16.4 4 15.67 4z"/></symbol>
<symbol id="battery_unknown" viewBox="0 0 24 24"><path d="M0 0h24v24H0V0z" fill="none"/><path d="M15.67 4H14V3c0-.55-.45-1-1-1h-2c-.55 0-1 .45-1 1v1H8.33C7.6 4 7 4.6 7 5.33v15.33C7 21.4 7.6 22 8.34 22h7.32c.74 0 1.34-.6 1.34-1.33V5.33C17 4.6 16.4 4 15.67 4zM13 18h-2v-2h2v2zm1.3-5.31s-.38.42-.67.71c-.14.14-.27.31-.39.47l-.09.15c-.08.12-.14.25-.19.37-.09.22-.16.43-.16.61h-1.6c0-.42.12-.8.29-1.13.06-.11.13-.21.2-.31.03-.05.06-.11.1-.16.11-.14.23-.28.34-.4l.93-.94c.27-.27.44-.65.44-1.06 0-.83-.67-1.5-1.5-1.5-.65 0-1.21.41-1.41.99-.11.31-.39.51-.71.51-.52 0-.88-.52-.71-1.01C9.59 8.83 10.69 8 12 8c1.66 0 3 1.34 3 3 0 .66-.27 1.26-.7 1.69z"/></symbol>
<symbol id="bluetooth" viewBox="0 0 24 24"><path d="M0 0h24v24H0V0z" fill="none"/><path d="M17 7l-4.29-4.29c-.63-.63-1.71-.19-1.71.7v6.18L7.11 5.7c-.39-.39-1.02-.39-1.41 0-.39.39-.39 1.02 0 1.41L10.59 12 5.7 16.89c-.39.39-.39 1.02 0 1.41.39.39 1.02.39 1.41 0L11 14.41v6.18c0 .89 1.08 1.34 1.71.71L17 17c.39-.39.39-1.02 0-1.41L13.41 12 17 8.42c.39-.39.39-1.03 0-1.42zm-4-1.17l1.88 1.88L13 9.59V5.83zm1.88 10.46L13 18.17v-3.76l1.88 1.88z"/></symbol>
<symbol id="bluetooth_connected" viewBox="0 0 24 24"><path d="M0 0h24v24H0V0z" fill="none"/><path d="M6 13c.55-.55.55-1.44 0-1.99V11c-.55-.55-1.45-.55-2 0s-.55 1.45 0 2 1.45.55 2 0zm14-2c-.56-.56-1.45-.56-2-.01V11c-.55.55-.55 1.44 0 1.99V13c.55.55 1.44.55 1.99 0H20c.55-.55.55-1.45 0-2zm-3-4l-4.29-4.29c-.63-.63-1.71-.19-1.71.7v6.18L7.11 5.7c-.39-.39-1.02-.39-1.41 0-.39.39-.39 1.02 0 1.41L10.59 12 5.7 16.89c-.39.39-.39 1.02 0 1.41.39.39 1.02.39 1.41 0L11 14.41v6.18c0 .89 1.08 1.34 1.71.71L17 17c.39-.39.39-1.02 0-1.42L13.41 12 17 8.42c.39-.39.39-1.03 0-1.42zm-2.12 9.29L13 18.17v-3.76l1.88 1.88zM13 9.59V5.83l1.88 1.88L13 9.59z"/></symbol>
<symbol id="bluetooth_disabled" viewBox="0 0 24 24"><path d="M0 0h24v24H0V0z" fill="none"/><path d="M19.29 17.89L6.11 4.7c-.39-.39-1.02-.39-1.41 0-.39.39-.39 1.02 0 1.41L10.59 12 5.7 16.89c-.39.39-.39 1.02 0 1.41.39.39 1.02.39 1.41 0L11 14.41v6.18c0 .89 1.08 1.34 1.71.71l3.59-3.59 1.59 1.59c.39.39 1.02.39 1.41 0 .38-.39.38-1.03-.01-1.41zm-6.29.28v-3.76l1.88 1.88L13 18.17zm0-12.34l1.88 1.88-1.47 1.47 1.41 1.41L17 8.42c.39-.39.39-1.02 0-1.42l-4.29-4.29c-.63-.63-1.71-.19-1.71.7v3.36l2 2V5.83z"/></symbol>
<symbol id="bluetooth_searching" viewBox="0 0 24 24"><path d="M0 0h24v24H0V0z" fill="none"/><path d="M15.98 10.28l-1.38 1.38c-.2.2-.2.51 0 .71l1.38 1.38c.28.28.75.15.85-.23.11-.5.17-1 .17-1.52 0-.51-.06-1.01-.18-1.48-.09-.38-.56-.52-.84-.24zm4.12-2.5c-.25-.55-.98-.67-1.4-.24-.26.26-.31.64-.17.98.46 1.07.72 2.24.72 3.47 0 1.24-.26 2.42-.73 3.49-.14.32-.09.69.16.94.41.41 1.1.29 1.35-.23.63-1.3.98-2.76.98-4.3-.01-1.45-.33-2.85-.91-4.11zM11.41 12L15 8.42c.39-.39.39-1.02 0-1.42l-4.29-4.29c-.63-.63-1.71-.19-1.71.7v6.18L5.11 5.7c-.39-.39-1.02-.39-1.41 0-.39.39-.39 1.02 0 1.41L8.59 12 3.7 16.89c-.39.39-.39 1.02 0 1.41.39.39 1.02.39 1.41 0L9 14.41v6.18c0 .89 1.08 1.34 1.71.71L15 17c.39-.39.39-1.02 0-1.42L11.41 12zM11 5.83l1.88 1.88L11 9.59V5.83zm0 12.34v-3.76l1.88 1.88L11 18.17z"/></symbol>
<symbol id="brightness_auto" viewBox="0 0 24 24"><path d="M0 0h24v24H0V0z" fill="none"/><path d="M10.85 12.65h2.3L12 9l-1.15 3.65zM20 8.69V6c0-1.1-.9-2-2-2h-2.69l-1.9-1.9c-.78-.78-2.05-.78-2.83 0L8.69 4H6c-1.1 0-2 .9-2 2v2.69l-1.9 1.9c-.78.78-.78 2.05 0 2.83l1.9 1.9V18c0 1.1.9 2 2 2h2.69l1.9 1.9c.78.78 2.05.78 2.83 0l1.9-1.9H18c1.1 0 2-.9 2-2v-2.69l1.9-1.9c.78-.78.78-2.05 0-2.83L20 8.69zm-5.91 6.71L13.6 14h-3.2l-.49 1.4c-.13.36-.46.6-.84.6-.62 0-1.05-.61-.84-1.19l2.44-6.86c.2-.57.73-.95 1.33-.95.6 0 1.13.38 1.34.94l2.44 6.86c.21.58-.22 1.19-.84 1.19-.39.01-.72-.23-.85-.59z"/></symbol>
<symbol id="brightness_high" viewBox="0 0 24 24"><path d="M0 0h24v24H0V0z" fill="none"/><path d="M20 8.69V6c0-1.1-.9-2-2-2h-2.69l-1.9-1.9c-.78-.78-2.05-.78-2.83 0L8.69 4H6c-1.1 0-2 .9-2 2v2.69l-1.9 1.9c-.78.78-.78 2.05 0 2.83l1.9 1.9V18c0 1.1.9 2 2 2h2.69l1.9 1.9c.78.78 2.05.78 2.83 0l1.9-1.9H18c1.1 0 2-.9 2-2v-2.69l1.9-1.9c.78-.78.78-2.05 0-2.83L20 8.69zM12 18c-3.31 0-6-2.69-6-6s2.69-6 6-6 6 2.69 6 6-2.69 6-6 6zm0-10c-2.21 0-4 1.79-4 4s1.79 4 4 4 4-1.79 4-4-1.79-4-4-4z"/></symbol>
<symbol id="brightness_low" viewBox="0 0 24 24"><path d="M0 0h24v24H0V0z" fill="none"/><path d="M20 15.31l1.9-1.9c.78-.78.78-2.05 0-2.83L20 8.69V6c0-1.1-.9-2-2-2h-2.69l-1.9-1.9c-.78-.78-2.05-.78-2.83 0L8.69 4H6c-1.1 0-2 .9-2 2v2.69l-1.9 1.9c-.78.78-.78 2.05 0 2.83l1.9 1.9V18c0 1.1.9 2 2 2h2.69l1.9 1.9c.78.78 2.05.78 2.83 0l1.9-1.9H18c1.1 0 2-.9 2-2v-2.69zM12 18c-3.31 0-6-2.69-6-6s2.69-6 6-6 6 2.69 6 6-2.69 6-6 6z"/></symbol>
<symbol id="brightness_medium" viewBox="0 0 24 24"><path d="M0 0h24v24H0V0z" fill="none"/><path d="M20 15.31l1.9-1.9c.78-.78.78-2.05 0-2.83L20 8.69V6c0-1.1-.9-2-2-2h-2.69l-1.9-1.9c-.78-.78-2.05-.78-2.83 0L8.69 4H6c-1.1 0-2 .9-2 2v2.69l-1.9 1.9c-.78.78-.78 2.05 0 2.83l1.9 1.9V18c0 1.1.9 2 2 2h2.69l1.9 1.9c.78.78 2.05.78 2.83 0l1.9-1.9H18c1.1 0 2-.9 2-2v-2.69zm-8 1.59V7.1c0-.61.55-1.11 1.15-.99C15.91 6.65 18 9.08 18 12s-2.09 5.35-4.85 5.89c-.6.12-1.15-.38-1.15-.99z"/></symbol>
<symbol id="data_usage" viewBox="0 0 24 24"><path d="M0 0h24v24H0V0z" fill="none"/><path d="M13 3.87v.02c0 .67.45 1.23 1.08 1.43C16.93 6.21 19 8.86 19 12c0 .52-.06 1.01-.17 1.49-.14.64.12 1.3.69 1.64l.01.01c.86.5 1.98.05 2.21-.91.17-.72.26-1.47.26-2.23 0-4.5-2.98-8.32-7.08-9.57-.95-.29-1.92.44-1.92 1.44zm-2.06 15.05c-2.99-.43-5.42-2.86-5.86-5.84-.54-3.6 1.66-6.77 4.83-7.76.64-.19 1.09-.76 1.09-1.43v-.02c0-1-.97-1.73-1.93-1.44-4.51 1.38-7.66 5.86-6.98 10.96.59 4.38 4.13 7.92 8.51 8.51 3.14.42 6.04-.61 8.13-2.53.74-.68.61-1.89-.26-2.39-.58-.34-1.3-.23-1.8.22-1.47 1.34-3.51 2.05-5.73 1.72z"/></symbol>
<symbol id="developer_mode" viewBox="0 0 24 24"><path d="M0 0h24v24H0V0z" fill="none"/><path d="M7 5h10v1c0 .55.45 1 1 1s1-.45 1-1V3c0-1.1-.9-1.99-2-1.99L7 1c-1.1 0-2 .9-2 2v3c0 .55.45 1 1 1s1-.45 1-1V5zm9.12 10.88l3.17-3.17c.39-.39.39-1.02 0-1.41l-3.17-3.17c-.39-.39-1.03-.39-1.42 0-.39.39-.39 1.02 0 1.41L17.17 12l-2.47 2.47c-.39.39-.39 1.02 0 1.41.39.39 1.03.39 1.42 0zm-6.83-1.42L6.83 12l2.46-2.46c.39-.39.39-1.02 0-1.41-.39-.39-1.03-.39-1.42 0L4.7 11.3c-.39.39-.39 1.02 0 1.41l3.17 3.17c.39.39 1.03.39 1.42 0 .4-.39.39-1.03 0-1.42zM17 19H7v-1c0-.55-.45-1-1-1s-1 .45-1 1v3c0 1.1.9 2 2 2h10c1.1 0 2-.9 2-2v-3c0-.55-.45-1-1-1s-1 .45-1 1v1z"/></symbol>
<symbol id="devices" viewBox="0 0 24 24"><path d="M0 0h24v24H0V0z" fill="none"/><path d="M4 7c0-.55.45-1 1-1h16c.55 0 1-.45 1-1s-.45-1-1-1H4c-1.1 0-2 .9-2 2v11h-.5c-.83 0-1.5.67-1.5 1.5S.67 20 1.5 20H14v-3H4V7zm19 1h-6c-.55 0-1 .45-1 1v10c0 .55.45 1 1 1h6c.55 0 1-.45 1-1V9c0-.55-.45-1-1-1zm-1 9h-4v-7h4v7z"/></symbol>
<symbol id="dvr" viewBox="0 0 24 24"><path d="M0 0h24v24H0V0z" fill="none"/><path d="M21 3H3c-1.1 0-2 .9-2 2v12c0 1.1.9 2 2 2h5v1c0 .55.45 1 1 1h6c.55 0 1-.45 1-1v-1h5c1.1 0 2-.9 2-2V5c0-1.1-.9-2-2-2zm-1 14H4c-.55 0-1-.45-1-1V6c0-.55.45-1 1-1h16c.55 0 1 .45 1 1v10c0 .55-.45 1-1 1zm-2-9H9c-.55 0-1 .45-1 1s.45 1 1 1h9c.55 0 1-.45 1-1s-.45-1-1-1zm0 4H9c-.55 0-1 .45-1 1s.45 1 1 1h9c.55 0 1-.45 1-1s-.45-1-1-1zM7 8H5v2h2V8zm0 4H5v2h2v-2z"/></symbol>
<symbol id="gps_fixed" viewBox="0 0 24 24"><path d="M0 0h24v24H0V0z" fill="none"/><path d="M12 8c-2.21 0-4 1.79-4 4s1.79 4 4 4 4-1.79 4-4-1.79-4-4-4zm8.94 3c-.46-4.17-3.77-7.48-7.94-7.94V2c0-.55-.45-1-1-1s-1 .45-1 1v1.06C6.83 3.52 3.52 6.83 3.06 11H2c-.55 0-1 .45-1 1s.45 1 1 1h1.06c.46 4.17 3.77 7.48 7.94 7.94V22c0 .55.45 1 1 1s1-.45 1-1v-1.06c4.17-.46 7.48-3.77 7.94-7.94H22c.55 0 1-.45 1-1s-.45-1-1-1h-1.06zM12 19c-3.87 0-7-3.13-7-7s3.13-7 7-7 7 3.13 7 7-3.13 7-7 7z"/></symbol>
<symbol id="gps_not_fixed" viewBox="0 0 24 24"><path d="M0 0h24v24H0V0z" fill="none"/><path d="M20.94 11c-.46-4.17-3.77-7.48-7.94-7.94V2c0-.55-.45-1-1-1s-1 .45-1 1v1.06C6.83 3.52 3.52 6.83 3.06 11H2c-.55 0-1 .45-1 1s.45 1 1 1h1.06c.46 4.17 3.77 7.48 7.94 7.94V22c0 .55.45 1 1 1s1-.45 1-1v-1.06c4.17-.46 7.48-3.77 7.94-7.94H22c.55 0 1-.45 1-1s-.45-1-1-1h-1.06zM12 19c-3.87 0-7-3.13-7-7s3.13-7 7-7 7 3.13 7 7-3.13 7-7 7z"/></symbol>
<symbol id="gps_off" viewBox="0 0 24 24"><path d="M0 0h24v24H0V0z" fill="none"/><path d="M22 13c.55 0 1-.45 1-1s-.45-1-1-1h-1.06c-.46-4.17-3.77-7.48-7.94-7.94V2c0-.55-.45-1-1-1s-1 .45-1 1v1.06c-.98.11-1.91.38-2.77.78l1.53 1.53C10.46 5.13 11.22 5 12 5c3.87 0 7 3.13 7 7 0 .79-.13 1.54-.37 2.24l1.53 1.53c.4-.86.67-1.79.78-2.77H22zm-1.56 5.88L5.12 3.56c-.39-.39-1.02-.39-1.41 0-.39.39-.39 1.02 0 1.41L5.04 6.3C3.97 7.62 3.26 9.23 3.06 11H2c-.55 0-1 .45-1 1s.45 1 1 1h1.06c.46 4.17 3.77 7.48 7.94 7.94V22c0 .55.45 1 1 1s1-.45 1-1v-1.06c1.77-.2 3.38-.91 4.69-1.98l1.33 1.33c.39.39 1.02.39 1.41 0 .4-.39.4-1.02.01-1.41zM12 19c-3.87 0-7-3.13-7-7 0-1.61.55-3.09 1.46-4.27l9.81 9.81C15.09 18.45 13.61 19 12 19z"/></symbol>
<symbol id="graphic_eq" viewBox="0 0 24 24"><path d="M0 0h24v24H0V0z" fill="none"/><path d="M8 18c.55 0 1-.45 1-1V7c0-.55-.45-1-1-1s-1 .45-1 1v10c0 .55.45 1 1 1zm4 4c.55 0 1-.45 1-1V3c0-.55-.45-1-1-1s-1 .45-1 1v18c0 .55.45 1 1 1zm-8-8c.55 0 1-.45 1-1v-2c0-.55-.45-1-1-1s-1 .45-1 1v2c0 .55.45 1 1 1zm12 4c.55 0 1-.45 1-1V7c0-.55-.45-1-1-1s-1 .45-1 1v10c0 .55.45 1 1 1zm3-7v2c0 .55.45 1 1 1s1-.45 1-1v-2c0-.55-.45-1-1-1s-1 .45-1 1z"/></symbol>
<symbol id="location_disabled" viewBox="0 0 24 24"><path d="M0 0h24v24H0V0z" fill="none"/><path d="M22 13c.55 0 1-.45 1-1s-.45-1-1-1h-1.06c-.46-4.17-3.77-7.48-7.94-7.94V2c0-.55-.45-1-1-1s-1 .45-1 1v1.06c-.98.11-1.91.38-2.77.78l1.53 1.53C10.46 5.13 11.22 5 12 5c3.87 0 7 3.13 7 7 0 .79-.13 1.54-.37 2.24l1.53 1.53c.4-.86.67-1.79.78-2.77H22zm-1.56 5.88L5.12 3.56c-.39-.39-1.02-.39-1.41 0-.39.39-.39 1.02 0 1.41L5.04 6.3C3.97 7.62 3.26 9.23 3.06 11H2c-.55 0-1 .45-1 1s.45 1 1 1h1.06c.46 4.17 3.77 7.48 7.94 7.94V22c0 .55.45 1 1 1s1-.45 1-1v-1.06c1.77-.2 3.38-.91 4.69-1.98l1.33 1.33c.39.39 1.02.39 1.41 0 .4-.39.4-1.02.01-1.41zM12 19c-3.87 0-7-3.13-7-7 0-1.61.55-3.09 1.46-4.27l9.81 9.81C15.09 18.45 13.61 19 12 19z"/></symbol>
<symbol id="location_searching" viewBox="0 0 24 24"><path d="M0 0h24v24H0V0z" fill="none"/><path d="M20.94 11c-.46-4.17-3.77-7.48-7.94-7.94V2c0-.55-.45-1-1-1s-1 .45-1 1v1.06C6.83 3.52 3.52 6.83 3.06 11H2c-.55 0-1 .45-1 1s.45 1 1 1h1.06c.46 4.17 3.77 7.48 7.94 7.94V22c0 .55.45 1 1 1s1-.45 1-1v-1.06c4.17-.46 7.48-3.77 7.94-7.94H22c.55 0 1-.45 1-1s-.45-1-1-1h-1.06zM12 19c-3.87 0-7-3.13-7-7s3.13-7 7-7 7 3.13 7 7-3.13 7-7 7z"/></symbol>
<symbol id="mobile_friendly" viewBox="0 0 24 24"><path d="M0 0h24v24H0V0z" fill="none"/><path d="M19 1H9c-1.1 0-2 .9-2 2v2c0 .55.45 1 1 1s1-.45 1-1V4h10v16H9v-1c0-.55-.45-1-1-1s-1 .45-1 1v2c0 1.1.9 2 2 2h10c1.1 0 2-.9 2-2V3c0-1.1-.9-2-2-2zM7.01 13.47l-1.92-1.92c-.35-.35-.92-.35-1.27 0s-.35.92 0 1.27l2.47 2.47c.39.39 1.02.39 1.41 0l5.85-5.85c.35-.35.35-.92 0-1.27s-.92-.35-1.27 0l-5.27 5.3z"/></symbol>
<symbol id="mobile_off" viewBox="0 0 24 24"><path d="M0 0h24v24H0V0z" fill="none"/><path d="M17 16.44L3.61 3.05c-.39-.39-1.02-.39-1.41 0-.39.39-.39 1.02 0 1.41L5 7.27V21c0 1.1.9 2 2 2h10c1.02 0 1.85-.77 1.98-1.75L20 22.27c.39.39 1.02.39 1.41 0s.39-1.02 0-1.41L19 18.44l-2-2zM7 19V9.27L16.73 19H7zM17 5v8.61l2 2V3c0-1.1-.9-2-2-2H7c-.71 0-1.33.37-1.68.93L8.39 5H17z"/></symbol>
<symbol id="nfc" viewBox="0 0 24 24"><path d="M0 0h24v24H0V0z" fill="none"/><path d="M20 2H4c-1.1 0-2 .9-2 2v16c0 1.1.9 2 2 2h16c1.1 0 2-.9 2-2V4c0-1.1-.9-2-2-2zm-1 18H5c-.55 0-1-.45-1-1V5c0-.55.45-1 1-1h14c.55 0 1 .45 1 1v14c0 .55-.45 1-1 1zM16 6h-3c-1.1 0-2 .9-2 2v2.28c-.6.35-1 .98-1 1.72 0 1.1.9 2 2 2s2-.9 2-2c0-.74-.4-1.38-1-1.72V8h3v7c0 .55-.45 1-1 1H9c-.55 0-1-.45-1-1V8h1c.55 0 1-.45 1-1s-.45-1-1-1H8c-1.1 0-2 .9-2 2v8c0 1.1.9 2 2 2h8c1.1 0 2-.9 2-2V8c0-1.1-.9-2-2-2z"/></symbol>
<symbol id="screen_lock_landscape" viewBox="0 0 24 24"><path d="M0 0h24v24H0V0z" fill="none"/><path d="M21 5H3c-1.1 0-2 .9-2 2v10c0 1.1.9 2 2 2h18c1.1 0 2-.9 2-2V7c0-1.1-.9-2-2-2zm-2 12H5V7h14v10zm-9-1h4c.55 0 1-.45 1-1v-3c0-.55-.45-1-1-1v-1c0-1.11-.9-2-2-2-1.11 0-2 .9-2 2v1c-.55 0-1 .45-1 1v3c0 .55.45 1 1 1zm.8-6c0-.66.54-1.2 1.2-1.2s1.2.54 1.2 1.2v1h-2.4v-1z"/></symbol>
<symbol id="screen_lock_portrait" viewBox="0 0 24 24"><path d="M0 0h24v24H0V0z" fill="none"/><path d="M10 16h4c.55 0 1-.45 1-1v-3c0-.55-.45-1-1-1v-1c0-1.11-.9-2-2-2-1.11 0-2 .9-2 2v1c-.55 0-1 .45-1 1v3c0 .55.45 1 1 1zm.8-6c0-.66.54-1.2 1.2-1.2s1.2.54 1.2 1.2v1h-2.4v-1zM17 1H7c-1.1 0-2 .9-2 2v18c0 1.1.9 2 2 2h10c1.1 0 2-.9 2-2V3c0-1.1-.9-2-2-2zm0 18H7V5h10v14z"/></symbol>
<symbol id="screen_lock_rotation" viewBox="0 0 24 24"><path d="M0 0h24v24H0V0z" fill="none"/><path d="M22.3 13.77l-1.86-1.87c-.39-.39-1.02-.39-1.41 0-.39.39-.39 1.02 0 1.41l1.51 1.52-5.66 5.66L3.56 9.17l5.66-5.66 1.4 1.4c.39.39 1.02.39 1.41 0 .39-.39.39-1.02 0-1.41l-1.75-1.75c-.59-.59-1.54-.59-2.12 0L1.8 8.11c-.59.59-.59 1.54 0 2.12l12.02 12.02c.59.59 1.54.59 2.12 0l6.36-6.36c.59-.59.59-1.54 0-2.12zM15.05 10h5c.55 0 1-.45 1-1V5c0-.55-.45-1-1-1v-.5c0-1.38-1.12-2.5-2.5-2.5s-2.5 1.12-2.5 2.5V4c-.55 0-1 .45-1 1v4c0 .55.45 1 1 1zm.8-6.5c0-.94.76-1.7 1.7-1.7s1.7.76 1.7 1.7V4h-3.4v-.5zm-7 16.65l-1.33 1.33c-3.09-1.46-5.34-4.37-5.89-7.86-.06-.41-.44-.69-.86-.62-.41.06-.69.45-.62.86.6 3.81 2.96 7.01 6.24 8.75 1.57.83 3.55 1.43 5.8 1.38.18 0 .26-.22.14-.35l-3.48-3.49z"/></symbol>
<symbol id="screen_rotation" viewBox="0 0 24 24"><path d="M0 0h24v24H0V0z" fill="none"/><path d="M10.23 1.75c-.59-.59-1.54-.59-2.12 0L1.75 8.11c-.59.59-.59 1.54 0 2.12l12.02 12.02c.59.59 1.54.59 2.12 0l6.36-6.36c.59-.59.59-1.54 0-2.12L10.23 1.75zm3.89 18.73L3.52 9.88c-.39-.39-.39-1.02 0-1.41l4.95-4.95c.39-.39 1.02-.39 1.41 0l10.61 10.61c.39.39.39 1.02 0 1.41l-4.95 4.95c-.39.38-1.03.38-1.42-.01zM17.61 1.4C16.04.57 14.06-.03 11.81.02c-.18 0-.26.22-.14.35l3.48 3.48 1.33-1.33c3.09 1.46 5.34 4.37 5.89 7.86.06.41.44.69.86.62.41-.06.69-.45.62-.86-.6-3.8-2.96-7-6.24-8.74zM8.85 20.16l-1.33 1.33c-3.09-1.46-5.34-4.37-5.89-7.86-.06-.41-.44-.69-.86-.62-.41.06-.69.45-.62.86.6 3.81 2.96 7.01 6.24 8.75 1.57.83 3.55 1.43 5.8 1.38.18 0 .26-.22.14-.35l-3.48-3.49z"/></symbol>
<symbol id="sd_storage" viewBox="0 0 24 24"><path d="M0 0h24v24H0V0z" fill="none"/><path d="M18 2h-7.17c-.53 0-1.04.21-1.42.59L4.6 7.42c-.37.37-.6.88-.6 1.4V20c0 1.1.9 2 2 2h12c1.1 0 2-.9 2-2V4c0-1.1-.9-2-2-2zm-7 6c-.55 0-1-.45-1-1V5c0-.55.45-1 1-1s1 .45 1 1v2c0 .55-.45 1-1 1zm3 0c-.55 0-1-.45-1-1V5c0-.55.45-1 1-1s1 .45 1 1v2c0 .55-.45 1-1 1zm3 0c-.55 0-1-.45-1-1V5c0-.55.45-1 1-1s1 .45 1 1v2c0 .55-.45 1-1 1z"/></symbol>
<symbol id="settings_system_daydream" viewBox="0 0 24 24"><path d="M0 0h24v24H0V0z" fill="none"/><path d="M9 16h6.5c1.38 0 2.5-1.12 2.5-2.5S16.88 11 15.5 11h-.05c-.24-1.69-1.69-3-3.45-3-1.4 0-2.6.83-3.16 2.02h-.16C7.17 10.18 6 11.45 6 13c0 1.66 1.34 3 3 3zM21 3H3c-1.1 0-2 .9-2 2v14c0 1.1.9 2 2 2h18c1.1 0 2-.9 2-2V5c0-1.1-.9-2-2-2zm-1 16.01H4c-.55 0-1-.45-1-1V5.99c0-.55.45-1 1-1h16c.55 0 1 .45 1 1v12.02c0 .55-.45 1-1 1z"/></symbol>
<symbol id="signal_cellular_4_bar" viewBox="0 0 24 24"><path d="M0 0h24v24H0V0z" fill="none"/><path d="M4.41 22H20c1.1 0 2-.9 2-2V4.41c0-.89-1.08-1.34-1.71-.71L3.71 20.29c-.63.63-.19 1.71.7 1.71z"/></symbol>
<symbol id="signal_cellular_alt" viewBox="0 0 24 24"><path d="M0 0h24v24H0V0z" fill="none"/><path d="M18.5 4c.83 0 1.5.67 1.5 1.5v13c0 .83-.67 1.5-1.5 1.5s-1.5-.67-1.5-1.5v-13c0-.83.67-1.5 1.5-1.5zm-12 10c.83 0 1.5.67 1.5 1.5v3c0 .83-.67 1.5-1.5 1.5S5 19.33 5 18.5v-3c0-.83.67-1.5 1.5-1.5zm6-5c.83 0 1.5.67 1.5 1.5v8c0 .83-.67 1.5-1.5 1.5s-1.5-.67-1.5-1.5v-8c0-.83.67-1.5 1.5-1.5z"/></symbol>
<symbol id="signal_cellular_connected_no_internet_4_bar" viewBox="0 0 24 24"><path d="M0 0h24v24H0V0z" fill="none"/><path d="M21 18c.55 0 1-.45 1-1v-6c0-.55-.45-1-1-1s-1 .45-1 1v6c0 .55.45 1 1 1zm-1 4h2v-2h-2v2zM4.41 22H18V11c0-1.66 1.34-3 3-3h1V4.41c0-.89-1.08-1.34-1.71-.71L3.71 20.29c-.63.63-.19 1.71.7 1.71z"/></symbol>
<symbol id="signal_cellular_no_sim" viewBox="0 0 24 24"><path d="M0 0h24v24H0V0z" fill="none"/><path d="M19 5c0-1.1-.9-2-2-2h-6.17c-.53 0-1.04.21-1.42.59L7.95 5.06 19 16.11V5zM3.09 4.44c-.39.39-.39 1.02 0 1.41L5 7.78V19c0 1.11.9 2 2 2h11.23l.91.91c.39.39 1.02.39 1.41 0 .39-.39.39-1.02 0-1.41L4.5 4.44c-.39-.39-1.02-.39-1.41 0z"/></symbol>
<symbol id="signal_cellular_null" viewBox="0 0 24 24"><path d="M0 0h24v24H0V0z" fill="none"/><path d="M20 6.83V19c0 .55-.45 1-1 1H6.83L20 6.83m.29-3.12L3.71 20.29c-.63.63-.19 1.71.7 1.71H20c1.1 0 2-.9 2-2V4.41c0-.89-1.08-1.33-1.71-.7z"/></symbol>
<symbol id="signal_cellular_off" viewBox="0 0 24 24"><path d="M0 0h24v24H0V0z" fill="none"/><path d="M21 3.41c0-.89-1.08-1.34-1.71-.71l-6.6 6.6L21 17.61V3.41zm.44 17.47L5.62 5.06c-.39-.39-1.02-.39-1.41 0-.39.39-.39 1.02 0 1.41l5.66 5.66-7.16 7.16c-.63.63-.19 1.71.7 1.71h15.32l1.29 1.29c.39.39 1.02.39 1.41 0 .4-.39.4-1.02.01-1.41z"/></symbol>
<symbol id="signal_wifi_4_bar" viewBox="0 0 24 24"><path d="M0 0h24v24H0V0z" fill="none"/><path d="M23.64 7c-.45-.34-4.93-4-11.64-4C5.28 3 .81 6.66.36 7l10.08 12.56c.8 1 2.32 1 3.12 0L23.64 7z"/></symbol>
<symbol id="signal_wifi_4_bar_lock" viewBox="0 0 24 24"><path d="M0 0h24v24H0V0z" fill="none"/><path d="M21.55 9.61L23.64 7c-.45-.34-4.93-4-11.64-4C5.28 3 .81 6.66.36 7l10.08 12.56c.8 1 2.32 1 3.12 0l1.94-2.42V14.5c0-2.8 2.2-5 5-5 .36 0 .71.04 1.05.11zM23 16v-1.5c0-1.4-1.1-2.5-2.5-2.5S18 13.1 18 14.5V16c-.5 0-1 .5-1 1v4c0 .5.5 1 1 1h5c.5 0 1-.5 1-1v-4c0-.5-.5-1-1-1zm-1 0h-3v-1.5c0-.8.7-1.5 1.5-1.5s1.5.7 1.5 1.5V16z"/></symbol>
<symbol id="signal_wifi_off" viewBox="0 0 24 24"><path d="M0 0h24v24H0V0z" fill="none"/><path d="M23.64 7c-.45-.34-4.93-4-11.64-4-1.32 0-2.55.14-3.69.38L18.43 13.5 23.64 7zM4.12 2.01c-.39-.39-1.02-.39-1.41 0-.39.39-.39 1.02 0 1.41l1.35 1.35C1.91 5.76.59 6.82.36 7l10.08 12.56c.8 1 2.32 1 3.12 0l2.35-2.93 2.61 2.61c.39.39 1.02.39 1.41 0 .39-.39.39-1.02 0-1.41L4.12 2.01z"/></symbol>
<symbol id="storage" viewBox="0 0 24 24"><path d="M0 0h24v24H0V0z" fill="none"/><path d="M4 20h16c1.1 0 2-.9 2-2s-.9-2-2-2H4c-1.1 0-2 .9-2 2s.9 2 2 2zm0-3h2v2H4v-2zM2 6c0 1.1.9 2 2 2h16c1.1 0 2-.9 2-2s-.9-2-2-2H4c-1.1 0-2 .9-2 2zm4 1H4V5h2v2zm-2 7h16c1.1 0 2-.9 2-2s-.9-2-2-2H4c-1.1 0-2 .9-2 2s.9 2 2 2zm0-3h2v2H4v-2z"/></symbol>
<symbol id="thermostat" viewBox="0 0 24 24"><path d="M0 0h24v24H0V0z" fill="none"/><path d="M15 13V5c0-1.66-1.34-3-3-3S9 3.34 9 5v8c-1.21.91-2 2.37-2 4 0 2.76 2.24 5 5 5s5-2.24 5-5c0-1.63-.79-3.09-2-4zm-2-2h-2V5c0-.55.45-1 1-1s1 .45 1 1h-.5c-.28 0-.5.22-.5.5s.22.5.5.5h.5v2h-.5c-.28 0-.5.22-.5.5s.22.5.5.5h.5v2z"/></symbol>
<symbol id="usb" viewBox="0 0 24 24"><path d="M0 0h24v24H0V0z" fill="none"/><path d="M18 7h-2c-.55 0-1 .45-1 1v2c0 .55.45 1 1 1v2h-3V5h1c.41 0 .65-.47.4-.8l-2-2.67c-.2-.27-.6-.27-.8 0l-2 2.67c-.25.33-.01.8.4.8h1v8H8v-2.07c.83-.44 1.38-1.36 1.14-2.43-.17-.77-.77-1.4-1.52-1.61C6.15 6.48 4.8 7.59 4.8 9c0 .85.5 1.56 1.2 1.93V13c0 1.1.9 2 2 2h3v3.05c-.86.45-1.39 1.42-1.13 2.49.18.75.79 1.38 1.54 1.58 1.46.39 2.8-.7 2.8-2.12 0-.85-.49-1.58-1.2-1.95V15h3c1.1 0 2-.9 2-2v-2c.55 0 1-.45 1-1V8C19 7.45 18.55 7 18 7z"/></symbol>
<symbol id="wallpaper" viewBox="0 0 24 24"><path d="M0 0h24v24H0V0z" fill="none"/><path d="M4 5c0-.55.45-1 1-1h5c.55 0 1-.45 1-1s-.45-1-1-1H4c-1.1 0-2 .9-2 2v6c0 .55.45 1 1 1s1-.45 1-1V5zm5.61 8.49l-2.96 3.7c-.26.33-.03.81.39.81H17c.41 0 .65-.47.4-.8l-2-2.67c-.2-.27-.6-.27-.8 0l-1.63 2.18-2.58-3.22c-.2-.25-.58-.25-.78 0zM17 8.5c0-.83-.67-1.5-1.5-1.5S14 7.67 14 8.5s.67 1.5 1.5 1.5S17 9.33 17 8.5zM20 2h-6c-.55 0-1 .45-1 1s.45 1 1 1h5c.55 0 1 .45 1 1v5c0 .55.45 1 1 1s1-.45 1-1V4c0-1.1-.9-2-2-2zm0 17c0 .55-.45 1-1 1h-5c-.55 0-1 .45-1 1s.45 1 1 1h6c1.1 0 2-.9 2-2v-6c0-.55-.45-1-1-1s-1 .45-1 1v5zM3 13c-.55 0-1 .45-1 1v6c0 1.1.9 2 2 2h6c.55 0 1-.45 1-1s-.45-1-1-1H5c-.55 0-1-.45-1-1v-5c0-.55-.45-1-1-1z"/></symbol>
<symbol id="widgets" viewBox="0 0 24 24"><path d="M0 0h24v24H0V0z" fill="none"/><path d="M13 14v6c0 .55.45 1 1 1h6c.55 0 1-.45 1-1v-6c0-.55-.45-1-1-1h-6c-.55 0-1 .45-1 1zm-9 7h6c.55 0 1-.45 1-1v-6c0-.55-.45-1-1-1H4c-.55 0-1 .45-1 1v6c0 .55.45 1 1 1zM3 4v6c0 .55.45 1 1 1h6c.55 0 1-.45 1-1V4c0-.55-.45-1-1-1H4c-.55 0-1 .45-1 1zm12.95-1.6L11.7 6.64c-.39.39-.39 1.02 0 1.41l4.25 4.25c.39.39 1.02.39 1.41 0l4.25-4.25c.39-.39.39-1.02 0-1.41L17.37 2.4c-.39-.39-1.03-.39-1.42 0z"/></symbol>
<symbol id="wifi_lock" viewBox="0 0 24 24"><path d="M0 0h24v24H0V0z" fill="none"/><path d="M21.31 9.58L24 6c-3.34-2.51-7.5-4-12-4S3.34 3.49 0 6l10.4 13.87c.8 1.07 2.4 1.07 3.2 0l1.9-2.53V14.5c0-2.76 2.24-5 5-5 .28 0 .55.04.81.08zM23 16v-1.5c0-1.38-1.12-2.5-2.5-2.5S18 13.12 18 14.5V16c-.55 0-1 .45-1 1v4c0 .55.45 1 1 1h5c.55 0 1-.45 1-1v-4c0-.55-.45-1-1-1zm-1 0h-3v-1.5c0-.83.67-1.5 1.5-1.5s1.5.67 1.5 1.5V16z"/></symbol>
<symbol id="wifi_tethering" viewBox="0 0 24 24"><path d="M0 0h24v24H0V0z" fill="none"/><path d="M12 11c-1.1 0-2 .9-2 2s.9 2 2 2 2-.9 2-2-.9-2-2-2zm6 2c0-3.56-3.11-6.4-6.75-5.95-2.62.32-4.78 2.41-5.18 5.02-.33 2.15.49 4.11 1.93 5.4.48.43 1.23.33 1.56-.23l.01-.01c.24-.42.14-.93-.22-1.26-1.03-.93-1.59-2.37-1.22-3.94.33-1.42 1.48-2.57 2.9-2.91C13.65 8.49 16 10.47 16 13c0 1.18-.52 2.23-1.33 2.96-.36.32-.47.84-.23 1.26l.01.01c.31.53 1.03.69 1.5.28C17.2 16.41 18 14.8 18 13zm-7.17-9.93c-4.62.52-8.35 4.33-8.78 8.96-.35 3.7 1.32 7.02 4.02 9.01.48.35 1.16.2 1.46-.31.25-.43.14-.99-.26-1.29-2.28-1.69-3.65-4.55-3.16-7.7.54-3.5 3.46-6.29 6.98-6.68C15.91 4.51 20 8.28 20 13c0 2.65-1.29 4.98-3.27 6.44-.4.3-.51.85-.26 1.29.3.52.98.66 1.46.31C20.4 19.22 22 16.3 22 13c0-5.91-5.13-10.62-11.17-9.93z"/></symbol>
</svg>