<svg xmlns="http://www.w3.org/2000/svg">
<symbol id="add_comment" viewBox="0 0 24 24"><path d="M0 0h24v24H0V0z" fill="none"/><path d="M22 4c0-1.1-.9-2-2-2H4c-1.1 0-2 .9-2 2v12c0 1.1.9 2 2 2h14l4 4V4zm-6 7h-3v3c0 .55-.45 1-1 1s-1-.45-1-1v-3H8c-.55 0-1-.45-1-1s.45-1 1-1h3V6c0-.55.45-1 1-1s1 .45 1 1v3h3c.55 0 1 .45 1 1s-.45 1-1 1z"/></symbol>
<symbol id="attach_file" viewBox="0 0 24 24"><path d="M0 0h24v24H0V0z" fill="none"/><path d="M16.5 6.75v10.58c0 2.09-1.53 3.95-3.61 4.15-2.39.23-4.39-1.64-4.39-3.98V5.14c0-1.31.94-2.5 2.24-2.63 1.5-.15 2.76 1.02 2.76 2.49v10.5c0 .55-.45 1-1 1s-1-.45-1-1V6.75c0-.41-.34-.75-.75-.75s-.75.34-.75.75v8.61c0 1.31.94 2.5 2.24 2.63 1.5.15 2.76-1.02 2.76-2.49V5.17c0-2.09-1.53-3.95-3.61-4.15C9.01.79 7 2.66 7 5v12.27c0 2.87 2.1 5.44 4.96 5.71 3.29.3 6.04-2.26 6.04-5.48V6.75c0-.41-.34-.75-.75-.75s-.75.34-.75.75z"/></symbol>
<symbol id="attach_money" viewBox="0 0 24 24"><path d="M0 0h24v24H0V0z" fill="none"/><path d="M11.8 10.9c-2.27-.59-3-1.2-3-2.15 0-1.09 1.01-1.85 2.7-1.85 1.42 0 2.13.54 2.39 1.4.12.4.45.7.87.7h.3c.66 0 1.13-.65.9-1.27-.42-1.18-1.4-2.16-2.96-2.54V4.5c0-.83-.67-1.5-1.5-1.5S10 3.67 10 4.5v.66c-1.94.42-3.5 1.68-3.5 3.61 0 2.31 1.91 3.46 4.7 4.13 2.5.6 3 1.48 3 2.41 0 .69-.49 1.79-2.7 1.79-1.65 0-2.5-.59-2.83-1.43-.15-.39-.49-.67-.9-.67h-.28c-.67 0-1.14.68-.89 1.3.57 1.39 1.9 2.21 3.4 2.53v.67c0 .83.67 1.5 1.5 1.5s1.5-.67 1.5-1.5v-.65c1.95-.37 3.5-1.5 3.5-3.55 0-2.84-2.43-3.81-4.7-4.4z"/></symbol>
<symbol id="bar_chart" viewBox="0 0 24 24"><path d="M0 0h24v24H0V0z" fill="none"/><path d="M6.4 9.2h.2c.77 0 1.4.63 1.4 1.4v7c0 .77-.63 1.4-1.4 1.4h-.2c-.77 0-1.4-.63-1.4-1.4v-7c0-.77.63-1.4 1.4-1.4zM12 5c.77 0 1.4.63 1.4 1.4v11.2c0 .77-.63 1.4-1.4 1.4-.77 0-1.4-.63-1.4-1.4V6.4c0-.77.63-1.4 1.4-1.4zm5.6 8c.77 0 1.4.63 1.4 1.4v3.2c0 .77-.63 1.4-1.4 1.4-.77 0-1.4-.63-1.4-1.4v-3.2c0-.77.63-1.4 1.4-1.4z"/></symbol>
<symbol id="border_all" viewBox="0 0 24 24"><path d="M0 0h24v24H0V0z" fill="none"/><path d="M3 5v14c0 1.1.9 2 2 2h14c1.1 0 2-.9 2-2V5c0-1.1-.9-2-2-2H5c-1.1 0-2 .9-2 2zm8 14H6c-.55 0-1-.45-1-1v-5h5c.55 0 1 .45 1 1v5zm-1-8H5V6c0-.55.45-1 1-1h5v5c0 .55-.45 1-1 1zm8 8h-5v-5c0-.55.45-1 1-1h5v5c0 .55-.45 1-1 1zm1-8h-5c-.55 0-1-.45-1-1V5h5c.55 0 1 .45 1 1v5z"/></symbol>
<symbol id="border_bottom" viewBox="0 0 24 24"><path d="M0 0h24v24H0V0z" fill="none"/><path d="M9 11H7v2h2v-2zm4 4h-2v2h2v-2zM9 3H7v2h2V3zm4 8h-2v2h2v-2zM5 3H3v2h2V3zm8 4h-2v2h2V7zm4 4h-2v2h2v-2zm-4-8h-2v2h2V3zm4 0h-2v2h2V3zm2 10h2v-2h-2v2zm0 4h2v-2h-2v2zM5 7H3v2h2V7zm14-4v2h2V3h-2zm0 6h2V7h-2v2zM5 11H3v2h2v-2zM4 21h16c.55 0 1-.45 1-1s-.45-1-1-1H4c-.55 0-1 .45-1 1s.45 1 1 1zm1-6H3v2h2v-2z"/></symbol>
<symbol id="border_clear" viewBox="0 0 24 24"><path d="M0 0h24v24H0V0z" fill="none"/><path d="M7 5h2V3H7v2zm0 8h2v-2H7v2zm0 8h2v-2H7v2zm4-4h2v-2h-2v2zm0 4h2v-2h-2v2zm-8 0h2v-2H3v2zm0-4h2v-2H3v2zm0-4h2v-2H3v2zm0-4h2V7H3v2zm0-4h2V3H3v2zm8 8h2v-2h-2v2zm8 4h2v-2h-2v2zm0-4h2v-2h-2v2zm0 8h2v-2h-2v2zm0-12h2V7h-2v2zm-8 0h2V7h-2v2zm8-6v2h2V3h-2zm-8 2h2V3h-2v2zm4 16h2v-2h-2v2zm0-8h2v-2h-2v2zm0-8h2V3h-2v2z"/></symbol>
<symbol id="border_horizontal" viewBox="0 0 24 24"><path d="M0 0h24v24H0V0z" fill="none"/><path d="M3 21h2v-2H3v2zM5 7H3v2h2V7zM3 17h2v-2H3v2zm4 4h2v-2H7v2zM5 3H3v2h2V3zm4 0H7v2h2V3zm8 0h-2v2h2V3zm-4 4h-2v2h2V7zm0-4h-2v2h2V3zm6 14h2v-2h-2v2zm-8 4h2v-2h-2v2zm-7-8h16c.55 0 1-.45 1-1s-.45-1-1-1H4c-.55 0-1 .45-1 1s.45 1 1 1zM19 3v2h2V3h-2zm0 6h2V7h-2v2zm-8 8h2v-2h-2v2zm4 4h2v-2h-2v2zm4 0h2v-2h-2v2z"/></symbol>
<symbol id="border_inner" viewBox="0 0 24 24"><path d="M0 0h24v24H0V0z" fill="none"/><path d="M3 21h2v-2H3v2zm4 0h2v-2H7v2zM5 7H3v2h2V7zM3 17h2v-2H3v2zM9 3H7v2h2V3zM5 3H3v2h2V3zm12 0h-2v2h2V3zm2 6h2V7h-2v2zm0-6v2h2V3h-2zm-4 18h2v-2h-2v2zM12 3c-.55 0-1 .45-1 1v7H4c-.55 0-1 .45-1 1s.45 1 1 1h7v7c0 .55.45 1 1 1s1-.45 1-1v-7h7c.55 0 1-.45 1-1s-.45-1-1-1h-7V4c0-.55-.45-1-1-1zm7 18h2v-2h-2v2zm0-4h2v-2h-2v2z"/></symbol>
<symbol id="border_left" viewBox="0 0 24 24"><path d="M0 0h24v24H0V0z" fill="none"/><path d="M11 21h2v-2h-2v2zm0-4h2v-2h-2v2zm0-12h2V3h-2v2zm0 4h2V7h-2v2zm0 4h2v-2h-2v2zm-4 8h2v-2H7v2zM7 5h2V3H7v2zm0 8h2v-2H7v2zm-3 8c.55 0 1-.45 1-1V4c0-.55-.45-1-1-1s-1 .45-1 1v16c0 .55.45 1 1 1zM19 9h2V7h-2v2zm-4 12h2v-2h-2v2zm4-4h2v-2h-2v2zm0-14v2h2V3h-2zm0 10h2v-2h-2v2zm0 8h2v-2h-2v2zm-4-8h2v-2h-2v2zm0-8h2V3h-2v2z"/></symbol>
<symbol id="border_outer" viewBox="0 0 24 24"><path d="M0 0h24v24H0V0z" fill="none"/><path d="M13 7h-2v2h2V7zm0 4h-2v2h2v-2zm4 0h-2v2h2v-2zM3 5v14c0 1.1.9 2 2 2h14c1.1 0 2-.9 2-2V5c0-1.1-.9-2-2-2H5c-1.1 0-2 .9-2 2zm15 14H6c-.55 0-1-.45-1-1V6c0-.55.45-1 1-1h12c.55 0 1 .45 1 1v12c0 .55-.45 1-1 1zm-5-4h-2v2h2v-2zm-4-4H7v2h2v-2z"/></symbol>
<symbol id="border_right" viewBox="0 0 24 24"><path d="M0 0h24v24H0V0z" fill="none"/><path d="M7 21h2v-2H7v2zM3 5h2V3H3v2zm4 0h2V3H7v2zm0 8h2v-2H7v2zm-4 8h2v-2H3v2zm8 0h2v-2h-2v2zm-8-8h2v-2H3v2zm0 4h2v-2H3v2zm0-8h2V7H3v2zm8 8h2v-2h-2v2zm4-4h2v-2h-2v2zm4-9v16c0 .55.45 1 1 1s1-.45 1-1V4c0-.55-.45-1-1-1s-1 .45-1 1zm-4 17h2v-2h-2v2zm0-16h2V3h-2v2zm-4 8h2v-2h-2v2zm0-8h2V3h-2v2zm0 4h2V7h-2v2z"/></symbol>
<symbol id="border_style" viewBox="0 0 24 24"><path d="M0 0h24v24H0V0z" fill="none"/><path d="M15 21h2v-2h-2v2zm4 0h2v-2h-2v2zM7 21h2v-2H7v2zm4 0h2v-2h-2v2zm8-4h2v-2h-2v2zm0-4h2v-2h-2v2zM3 5v15c0 .55.45 1 1 1s1-.45 1-1V6c0-.55.45-1 1-1h14c.55 0 1-.45 1-1s-.45-1-1-1H5c-1.1 0-2 .9-2 2zm16 4h2V7h-2v2z"/></symbol>
<symbol id="border_top" viewBox="0 0 24 24"><path d="M0 0h24v24H0V0z" fill="none"/><path d="M7 21h2v-2H7v2zm0-8h2v-2H7v2zm4 0h2v-2h-2v2zm0 8h2v-2h-2v2zm-8-4h2v-2H3v2zm0 4h2v-2H3v2zm0-8h2v-2H3v2zm0-4h2V7H3v2zm8 8h2v-2h-2v2zm8-8h2V7h-2v2zm0 4h2v-2h-2v2zM3 4c0 .55.45 1 1 1h16c.55 0 1-.45 1-1s-.45-1-1-1H4c-.55 0-1 .45-1 1zm16 13h2v-2h-2v2zm-4 4h2v-2h-2v2zM11 9h2V7h-2v2zm8 12h2v-2h-2v2zm-4-8h2v-2h-2v2z"/></symbol>
<symbol id="border_vertical" viewBox="0 0 24 24"><path d="M0 0h24v24H0V0z" fill="none"/><path d="M3 9h2V7H3v2zm0-4h2V3H3v2zm4 16h2v-2H7v2zm0-8h2v-2H7v2zm-4 0h2v-2H3v2zm0 8h2v-2H3v2zm0-4h2v-2H3v2zM7 5h2V3H7v2zm12 12h2v-2h-2v2zm-7 4c.55 0 1-.45 1-1V4c0-.55-.45-1-1-1s-1 .45-1 1v16c0 .55.45 1 1 1zm7 0h2v-2h-2v2zm0-8h2v-2h-2v2zm0-10v2h2V3h-2zm0 6h2V7h-2v2zm-4-4h2V3h-2v2zm0 16h2v-2h-2v2zm0-8h2v-2h-2v2z"/></symbol>
<symbol id="bubble_chart" viewBox="0 0 24 24"><path d="M0 0h24v24H0V0z" fill="none"/><circle cx="7.2" cy="14.4" r="3.2"/><circle cx="14.8" cy="18" r="2"/><circle cx="15.2" cy="8.8" r="4.8"/></symbol>
<symbol id="drag_handle" viewBox="0 0 24 24"><path d="M0 0h24v24H0z" fill="none"/><path d="M19 9H5c-.55 0-1 .45-1 1s.45 1 1 1h14c.55 0 1-.45 1-1s-.45-1-1-1zM5 15h14c.55 0 1-.45 1-1s-.45-1-1-1H5c-.55 0-1 .45-1 1s.45 1 1 1z"/></symbol>
<symbol id="format_align_center" viewBox="0 0 24 24"><path d="M0 0h24v24H0V0z" fill="none"/><path d="M7 16c0 .55.45 1 1 1h8c.55 0 1-.45 1-1s-.45-1-1-1H8c-.55 0-1 .45-1 1zm-3 5h16c.55 0 1-.45 1-1s-.45-1-1-1H4c-.55 0-1 .45-1 1s.45 1 1 1zm0-8h16c.55 0 1-.45 1-1s-.45-1-1-1H4c-.55 0-1 .45-1 1s.45 1 1 1zm3-5c0 .55.45 1 1 1h8c.55 0 1-.45 1-1s-.45-1-1-1H8c-.55 0-1 .45-1 1zM3 4c0 .55.45 1 1 1h16c.55 0 1-.45 1-1s-.45-1-1-1H4c-.55 0-1 .45-1 1z"/></symbol>
<symbol id="format_align_justify" viewBox="0 0 24 24"><path d="M0 0h24v24H0V0z" fill="none"/><path d="M4 21h16c.55 0 1-.45 1-1s-.45-1-1-1H4c-.55 0-1 .45-1 1s.45 1 1 1zm0-4h16c.55 0 1-.45 1-1s-.45-1-1-1H4c-.55 0-1 .45-1 1s.45 1 1 1zm0-4h16c.55 0 1-.45 1-1s-.45-1-1-1H4c-.55 0-1 .45-1 1s.45 1 1 1zm0-4h16c.55 0 1-.45 1-1s-.45-1-1-1H4c-.55 0-1 .45-1 1s.45 1 1 1zM3 4c0 .55.45 1 1 1h16c.55 0 1-.45 1-1s-.45-1-1-1H4c-.55 0-1 .45-1 1z"/></symbol>
<symbol id="format_align_left" viewBox="0 0 24 24"><path d="M0 0h24v24H0V0z" fill="none"/><path d="M14 15H4c-.55 0-1 .45-1 1s.45 1 1 1h10c.55 0 1-.45 1-1s-.45-1-1-1zm0-8H4c-.55 0-1 .45-1 1s.45 1 1 1h10c.55 0 1-.45 1-1s-.45-1-1-1zM4 13h16c.55 0 1-.45 1-1s-.45-1-1-1H4c-.55 0-1 .45-1 1s.45 1 1 1zm0 8h16c.55 0 1-.45 1-1s-.45-1-1-1H4c-.55 0-1 .45-1 1s.45 1 1 1zM3 4c0 .55.45 1 1 1h16c.55 0 1-.45 1-1s-.45-1-1-1H4c-.55 0-1 .45-1 1z"/></symbol>
<symbol id="format_align_right" viewBox="0 0 24 24"><path d="M0 0h24v24H0V0z" fill="none"/><path d="M4 21h16c.55 0 1-.45 1-1s-.45-1-1-1H4c-.55 0-1 .45-1 1s.45 1 1 1zm6-4h10c.55 0 1-.45 1-1s-.45-1-1-1H10c-.55 0-1 .45-1 1s.45 1 1 1zm-6-4h16c.55 0 1-.45 1-1s-.45-1-1-1H4c-.55 0-1 .45-1 1s.45 1 1 1zm6-4h10c.55 0 1-.45 1-1s-.45-1-1-1H10c-.55 0-1 .45-1 1s.45 1 1 1zM3 4c0 .55.45 1 1 1h16c.55 0 1-.45 1-1s-.45-1-1-1H4c-.55 0-1 .45-1 1z"/></symbol>
<symbol id="format_bold" viewBox="0 0 24 24"><path d="M0 0h24v24H0V0z" fill="none"/><path d="M15.6 10.79c.97-.67 1.65-1.77 1.65-2.79 0-2.26-1.75-4-4-4H8c-.55 0-1 .45-1 1v12c0 .55.45 1 1 1h5.78c2.07 0 3.96-1.69 3.97-3.77.01-1.53-.85-2.84-2.15-3.44zM10 6.5h3c.83 0 1.5.67 1.5 1.5s-.67 1.5-1.5 1.5h-3v-3zm3.5 9H10v-3h3.5c.83 0 1.5.67 1.5 1.5s-.67 1.5-1.5 1.5z"/></symbol>
<symbol id="format_clear" viewBox="0 0 24 24"><path d="M0 0h24v24H0V0z" fill="none"/><path d="M18.5 8c.83 0 1.5-.67 1.5-1.5S19.33 5 18.5 5H6.39l3 3h1.83l-.55 1.28 2.09 2.09L14.21 8h4.29zm-1.06 10.88L4.12 5.56c-.39-.39-1.02-.39-1.41 0-.39.39-.39 1.02 0 1.41l6.26 6.26-1.65 3.84c-.39.92.28 1.93 1.27 1.93.55 0 1.05-.33 1.27-.84l1.21-2.83 4.95 4.95c.39.39 1.02.39 1.41 0 .4-.38.4-1.01.01-1.4z"/></symbol>
<symbol id="format_color_reset" viewBox="0 0 24 24"><path d="M0 0h24v24H0V0zm0 0h24v24H0V0zm0 0h24v24H0V0z" fill="none"/><path d="M18 14c0-3.09-3.6-7.88-5.23-9.87-.4-.49-1.15-.49-1.55 0-.46.57-1.08 1.36-1.73 2.27l8.44 8.44c.04-.28.07-.56.07-.84zm1.29 5.01L6.12 5.84c-.39-.39-1.02-.39-1.41 0-.39.39-.39 1.02 0 1.41l2.61 2.61C6.55 11.33 6 12.79 6 14c0 3.31 2.69 6 6 6 1.52 0 2.9-.57 3.95-1.5l1.92 1.92c.39.39 1.02.39 1.41 0 .4-.38.4-1.02.01-1.41z"/></symbol>
<symbol id="format_indent_decrease" viewBox="0 0 24 24"><path d="M0 0h24v24H0V0z" fill="none"/><path d="M12 17h8c.55 0 1-.45 1-1s-.45-1-1-1h-8c-.55 0-1 .45-1 1s.45 1 1 1zm-8.65-4.65l2.79 2.79c.32.32.86.1.86-.35V9.21c0-.45-.54-.67-.85-.35l-2.79 2.79c-.2.19-.2.51-.01.7zM4 21h16c.55 0 1-.45 1-1s-.45-1-1-1H4c-.55 0-1 .45-1 1s.45 1 1 1zM3 4c0 .55.45 1 1 1h16c.55 0 1-.45 1-1s-.45-1-1-1H4c-.55 0-1 .45-1 1zm9 5h8c.55 0 1-.45 1-1s-.45-1-1-1h-8c-.55 0-1 .45-1 1s.45 1 1 1zm0 4h8c.55 0 1-.45 1-1s-.45-1-1-1h-8c-.55 0-1 .45-1 1s.45 1 1 1z"/></symbol>
<symbol id="format_indent_increase" viewBox="0 0 24 24"><path d="M0 0h24v24H0V0z" fill="none"/><path d="M4 21h16c.55 0 1-.45 1-1s-.45-1-1-1H4c-.55 0-1 .45-1 1s.45 1 1 1zM3 9.21v5.59c0 .45.54.67.85.35l2.79-2.79c.2-.2.2-.51 0-.71l-2.79-2.8c-.31-.31-.85-.09-.85.36zM12 17h8c.55 0 1-.45 1-1s-.45-1-1-1h-8c-.55 0-1 .45-1 1s.45 1 1 1zM3 4c0 .55.45 1 1 1h16c.55 0 1-.45 1-1s-.45-1-1-1H4c-.55 0-1 .45-1 1zm9 5h8c.55 0 1-.45 1-1s-.45-1-1-1h-8c-.55 0-1 .45-1 1s.45 1 1 1zm0 4h8c.55 0 1-.45 1-1s-.45-1-1-1h-8c-.55 0-1 .45-1 1s.45 1 1 1z"/></symbol>
<symbol id="format_italic" viewBox="0 0 24 24"><path d="M0 0h24v24H0V0z" fill="none"/><path d="M10 5.5c0 .83.67 1.5 1.5 1.5h.71l-3.42 8H7.5c-.83 0-1.5.67-1.5 1.5S6.67 18 7.5 18h5c.83 0 1.5-.67 1.5-1.5s-.67-1.5-1.5-1.5h-.71l3.42-8h1.29c.83 0 1.5-.67 1.5-1.5S17.33 4 16.5 4h-5c-.83 0-1.5.67-1.5 1.5z"/></symbol>
<symbol id="format_line_spacing" viewBox="0 0 24 24"><path d="M0 0h24v24H0V0z" fill="none"/><path d="M7.29 7c.45 0 .67-.54.35-.85l-2.29-2.3c-.2-.2-.51-.2-.71 0l-2.29 2.3c-.31.31-.09.85.36.85H4v10H2.71c-.45 0-.67.54-.35.85l2.29 2.29c.2.2.51.2.71 0l2.29-2.29c.31-.31.09-.85-.36-.85H6V7h1.29zM11 7h10c.55 0 1-.45 1-1s-.45-1-1-1H11c-.55 0-1 .45-1 1s.45 1 1 1zm10 10H11c-.55 0-1 .45-1 1s.45 1 1 1h10c.55 0 1-.45 1-1s-.45-1-1-1zm0-6H11c-.55 0-1 .45-1 1s.45 1 1 1h10c.55 0 1-.45 1-1s-.45-1-1-1z"/></symbol>
<symbol id="format_list_bulleted" viewBox="0 0 24 24"><path d="M0 0h24v24H0V0z" fill="none"/><path d="M4 10.5c-.83 0-1.5.67-1.5 1.5s.67 1.5 1.5 1.5 1.5-.67 1.5-1.5-.67-1.5-1.5-1.5zm0-6c-.83 0-1.5.67-1.5 1.5S3.17 7.5 4 7.5 5.5 6.83 5.5 6 4.83 4.5 4 4.5zm0 12c-.83 0-1.5.68-1.5 1.5s.68 1.5 1.5 1.5 1.5-.68 1.5-1.5-.67-1.5-1.5-1.5zM8 19h12c.55 0 1-.45 1-1s-.45-1-1-1H8c-.55 0-1 .45-1 1s.45 1 1 1zm0-6h12c.55 0 1-.45 1-1s-.45-1-1-1H8c-.55 0-1 .45-1 1s.45 1 1 1zM7 6c0 .55.45 1 1 1h12c.55 0 1-.45 1-1s-.45-1-1-1H8c-.55 0-1 .45-1 1z"/></symbol>
<symbol id="format_list_numbered" viewBox="0 0 24 24"><path d="M0 0h24v24H0V0z" fill="none"/><path d="M8 7h12c.55 0 1-.45 1-1s-.45-1-1-1H8c-.55 0-1 .45-1 1s.45 1 1 1zm12 10H8c-.55 0-1 .45-1 1s.45 1 1 1h12c.55 0 1-.45 1-1s-.45-1-1-1zm0-6H8c-.55 0-1 .45-1 1s.45 1 1 1h12c.55 0 1-.45 1-1s-.45-1-1-1zM4.5 16h-2c-.28 0-.5.22-.5.5s.22.5.5.5H4v.5h-.5c-.28 0-.5.22-.5.5s.22.5.5.5H4v.5H2.5c-.28 0-.5.22-.5.5s.22.5.5.5h2c.28 0 .5-.22.5-.5v-3c0-.28-.22-.5-.5-.5zm-2-11H3v2.5c0 .28.22.5.5.5s.5-.22.5-.5v-3c0-.28-.22-.5-.5-.5h-1c-.28 0-.5.22-.5.5s.22.5.5.5zm2 5h-2c-.28 0-.5.22-.5.5s.22.5.5.5h1.3l-1.68 1.96c-.08.09-.12.21-.12.32v.22c0 .28.22.5.5.5h2c.28 0 .5-.22.5-.5s-.22-.5-.5-.5H3.2l1.68-1.96c.08-.09.12-.21.12-.32v-.22c0-.28-.22-.5-.5-.5z"/></symbol>
<symbol id="format_list_numbered_rtl" viewBox="0 0 24 24"><path d="M0 0h24v24H0V0z" fill="none"/><path d="M20.5 16h-2c-.28 0-.5.22-.5.5s.22.5.5.5H20v.5h-.5c-.28 0-.5.22-.5.5s.22.5.5.5h.5v.5h-1.5c-.28 0-.5.22-.5.5s.22.5.5.5h2c.28 0 .5-.22.5-.5v-3c0-.28-.22-.5-.5-.5zm-2-11h.5v2.5c0 .28.22.5.5.5s.5-.22.5-.5v-3c0-.28-.22-.5-.5-.5h-1c-.28 0-.5.22-.5.5s.22.5.5.5zm2.5 5.72v-.22c0-.28-.22-.5-.5-.5h-2c-.28 0-.5.22-.5.5s.22.5.5.5h1.3l-1.68 1.96c-.08.09-.12.21-.12.32v.22c0 .28.22.5.5.5h2c.28 0 .5-.22.5-.5s-.22-.5-.5-.5h-1.3l1.68-1.96c.08-.09.12-.21.12-.32zM15 5H3c-.55 0-1 .45-1 1s.45 1 1 1h12c.55 0 1-.45 1-1s-.45-1-1-1zm0 12H3c-.55 0-1 .45-1 1s.45 1 1 1h12c.55 0 1-.45 1-1s-.45-1-1-1zm0-6H3c-.55 0-1 .45-1 1s.45 1 1 1h12c.55 0 1-.45 1-1s-.45-1-1-1z"/></symbol>
<symbol id="format_paint" viewBox="0 0 24 24"><path d="M0 0h24v24H0V0z" fill="none"/><path d="M18 4V3c0-.55-.45-1-1-1H5c-.55 0-1 .45-1 1v4c0 .55.45 1 1 1h12c.55 0 1-.45 1-1V6h1v4h-9c-.55 0-1 .45-1 1v10c0 .55.45 1 1 1h2c.55 0 1-.45 1-1v-9h7c.55 0 1-.45 1-1V5c0-.55-.45-1-1-1h-2z"/></symbol>
<symbol id="format_quote" viewBox="0 0 24 24"><path d="M0 0h24v24H0V0z" fill="none"/><path d="M7.17 17c.51 0 .98-.29 1.2-.74l1.42-2.84c.14-.28.21-.58.21-.89V8c0-.55-.45-1-1-1H5c-.55 0-1 .45-1 1v4c0 .55.45 1 1 1h2l-1.03 2.06c-.45.89.2 1.94 1.2 1.94zm10 0c.51 0 .98-.29 1.2-.74l1.42-2.84c.14-.28.21-.58.21-.89V8c0-.55-.45-1-1-1h-4c-.55 0-1 .45-1 1v4c0 .55.45 1 1 1h2l-1.03 2.06c-.45.89.2 1.94 1.2 1.94z"/></symbol>
<symbol id="format_shapes" viewBox="0 0 24 24"><path d="M0 0h24v24H0V0z" fill="none"/><path d="M23 6V2c0-.55-.45-1-1-1h-4c-.55 0-1 .45-1 1v1H7V2c0-.55-.45-1-1-1H2c-.55 0-1 .45-1 1v4c0 .55.45 1 1 1h1v10H2c-.55 0-1 .45-1 1v4c0 .55.45 1 1 1h4c.55 0 1-.45 1-1v-1h10v1c0 .55.45 1 1 1h4c.55 0 1-.45 1-1v-4c0-.55-.45-1-1-1h-1V7h1c.55 0 1-.45 1-1zM3 3h2v2H3V3zm2 18H3v-2h2v2zm12-2H7v-1c0-.55-.45-1-1-1H5V7h1c.55 0 1-.45 1-1V5h10v1c0 .55.45 1 1 1h1v10h-1c-.55 0-1 .45-1 1v1zm4 2h-2v-2h2v2zM19 5V3h2v2h-2zm-6.06 2.65c-.15-.39-.53-.65-.95-.65-.42 0-.8.26-.94.65l-2.77 7.33c-.19.49.17 1.02.7 1.02.32 0 .6-.2.71-.5l.55-1.5h3.49l.56 1.51c.11.29.39.49.71.49h.01c.53 0 .89-.53.71-1.02l-2.78-7.33zm-2.25 5.09L12 8.91l1.3 3.83h-2.61z"/></symbol>
<symbol id="format_size" viewBox="0 0 24 24"><path d="M0 0h24v24H0V0z" fill="none"/><path d="M9 5.5c0 .83.67 1.5 1.5 1.5H14v10.5c0 .83.67 1.5 1.5 1.5s1.5-.67 1.5-1.5V7h3.5c.83 0 1.5-.67 1.5-1.5S21.33 4 20.5 4h-10C9.67 4 9 4.67 9 5.5zM4.5 12H6v5.5c0 .83.67 1.5 1.5 1.5S9 18.33 9 17.5V12h1.5c.83 0 1.5-.67 1.5-1.5S11.33 9 10.5 9h-6C3.67 9 3 9.67 3 10.5S3.67 12 4.5 12z"/></symbol>
<symbol id="format_strikethrough" viewBox="0 0 24 24"><path d="M0 0h24v24H0V0z" fill="none"/><path d="M12 19c1.1 0 2-.9 2-2v-1h-4v1c0 1.1.9 2 2 2zM5 5.5C5 6.33 5.67 7 6.5 7H10v3h4V7h3.5c.83 0 1.5-.67 1.5-1.5S18.33 4 17.5 4h-11C5.67 4 5 4.67 5 5.5zM4 14h16c.55 0 1-.45 1-1s-.45-1-1-1H4c-.55 0-1 .45-1 1s.45 1 1 1z"/></symbol>
<symbol id="format_textdirection_l_to_r" viewBox="0 0 24 24"><path d="M0 0h24v24H0V0z" fill="none"/><path d="M9 10v4c0 .55.45 1 1 1s1-.45 1-1V4h2v10c0 .55.45 1 1 1s1-.45 1-1V4h1c.55 0 1-.45 1-1s-.45-1-1-1H9.17C7.08 2 5.22 3.53 5.02 5.61 4.79 7.99 6.66 10 9 10zm11.65 7.65l-2.79-2.79c-.32-.32-.86-.1-.86.35V17H6c-.55 0-1 .45-1 1s.45 1 1 1h11v1.79c0 .45.54.67.85.35l2.79-2.79c.2-.19.2-.51.01-.7z"/></symbol>
<symbol id="format_textdirection_r_to_l" viewBox="0 0 24 24"><path d="M0 0h24v24H0V0z" fill="none"/><path d="M10 10v4c0 .55.45 1 1 1s1-.45 1-1V4h2v10c0 .55.45 1 1 1s1-.45 1-1V4h1c.55 0 1-.45 1-1s-.45-1-1-1h-6.83C8.08 2 6.22 3.53 6.02 5.61 5.79 7.99 7.66 10 10 10zm-2 7v-1.79c0-.45-.54-.67-.85-.35l-2.79 2.79c-.2.2-.2.51 0 .71l2.79 2.79c.31.31.85.09.85-.36V19h11c.55 0 1-.45 1-1s-.45-1-1-1H8z"/></symbol>
<symbol id="format_underlined" viewBox="0 0 24 24"><path d="M0 0h24v24H0V0z" fill="none"/><path d="M12.79 16.95c3.03-.39 5.21-3.11 5.21-6.16V4.25C18 3.56 17.44 3 16.75 3s-1.25.56-1.25 1.25v6.65c0 1.67-1.13 3.19-2.77 3.52-2.25.47-4.23-1.25-4.23-3.42V4.25C8.5 3.56 7.94 3 7.25 3S6 3.56 6 4.25V11c0 3.57 3.13 6.42 6.79 5.95zM5 20c0 .55.45 1 1 1h12c.55 0 1-.45 1-1s-.45-1-1-1H6c-.55 0-1 .45-1 1z"/></symbol>
<symbol id="functions" viewBox="0 0 24 24"><path d="M0 0h24v24H0V0z" fill="none"/><path d="M16.5 4H7.56C6.7 4 6 4.7 6 5.56c0 .28.12.55.32.74L12.5 12l-6.18 5.7c-.2.19-.32.46-.32.74C6 19.3 6.7 20 7.56 20h8.94c.83 0 1.5-.67 1.5-1.5s-.67-1.5-1.5-1.5H11l3.59-3.59c.78-.78.78-2.05 0-2.83L11 7h5.5c.83 0 1.5-.67 1.5-1.5S17.33 4 16.5 4z"/></symbol>
<symbol id="height" viewBox="0 0 24 24"><g><rect fill="none" height="24" width="24"/><rect fill="none" height="24" width="24"/></g><g><g/><path d="M13,6.99h1.79c0.45,0,0.67-0.54,0.35-0.85l-2.79-2.78c-0.2-0.19-0.51-0.19-0.71,0L8.86,6.14C8.54,6.45,8.76,6.99,9.21,6.99 H11v10.02H9.21c-0.45,0-0.67,0.54-0.35,0.85l2.79,2.78c0.2,0.19,0.51,0.19,0.71,0l2.79-2.78c0.32-0.31,0.09-0.85-0.35-0.85H13V6.99 z"/></g></symbol>
<symbol id="highlight" viewBox="0 0 24 24"><path d="M0 0h24v24H0z" fill="none"/><path d="M6.29 14.29L9 17v4c0 .55.45 1 1 1h4c.55 0 1-.45 1-1v-4l2.71-2.71c.19-.19.29-.44.29-.71V10c0-.55-.45-1-1-1H7c-.55 0-1 .45-1 1v3.59c0 .26.11.52.29.7zM12 2c.55 0 1 .45 1 1v1c0 .55-.45 1-1 1s-1-.45-1-1V3c0-.55.45-1 1-1zM4.21 5.17c.39-.39 1.02-.39 1.42 0l.71.71c.39.39.39 1.02 0 1.41-.39.39-1.02.39-1.41 0l-.72-.71c-.39-.39-.39-1.02 0-1.41zm13.46.71l.71-.71c.39-.39 1.02-.39 1.41 0 .39.39.39 1.02 0 1.41l-.71.71c-.39.39-1.02.39-1.41 0-.39-.39-.39-1.02 0-1.41z"/></symbol>
<symbol id="horizontal_rule" viewBox="0 0 24 24"><g><rect fill="none" fill-rule="evenodd" height="24" width="24"/><g><path d="M19,13H5c-0.55,0-1-0.45-1-1v0c0-0.55,0.45-1,1-1h14c0.55,0,1,0.45,1,1v0 C20,12.55,19.55,13,19,13z" fill-rule="evenodd"/></g></g></symbol>
<symbol id="insert_chart" viewBox="0 0 24 24"><path d="M0 0h24v24H0V0z" fill="none"/><path d="M19 3H5c-1.1 0-2 .9-2 2v14c0 1.1.9 2 2 2h14c1.1 0 2-.9 2-2V5c0-1.1-.9-2-2-2zM8 17c-.55 0-1-.45-1-1v-5c0-.55.45-1 1-1s1 .45 1 1v5c0 .55-.45 1-1 1zm4 0c-.55 0-1-.45-1-1V8c0-.55.45-1 1-1s1 .45 1 1v8c0 .55-.45 1-1 1zm4 0c-.55 0-1-.45-1-1v-2c0-.55.45-1 1-1s1 .45 1 1v2c0 .55-.45 1-1 1z"/></symbol>
<symbol id="insert_chart_outlined" viewBox="0 0 24 24"><path d="M0 0h24v24H0V0z" fill="none"/><path d="M8 17c-.55 0-1-.45-1-1v-5c0-.55.45-1 1-1s1 .45 1 1v5c0 .55-.45 1-1 1zm4 0c-.55 0-1-.45-1-1V8c0-.55.45-1 1-1s1 .45 1 1v8c0 .55-.45 1-1 1zm4 0c-.55 0-1-.45-1-1v-2c0-.55.45-1 1-1s1 .45 1 1v2c0 .55-.45 1-1 1zm2 2H6c-.55 0-1-.45-1-1V6c0-.55.45-1 1-1h12c.55 0 1 .45 1 1v12c0 .55-.45 1-1 1zm1-16H5c-1.1 0-2 .9-2 2v14c0 1.1.9 2 2 2h14c1.1 0 2-.9 2-2V5c0-1.1-.9-2-2-2z"/></symbol>
<symbol id="insert_comment" viewBox="0 0 24 24"><path d="M0 0h24v24H0V0z" fill="none"/><path d="M20 2H4c-1.1 0-2 .9-2 2v12c0 1.1.9 2 2 2h14l4 4V4c0-1.1-.9-2-2-2zm-3 12H7c-.55 0-1-.45-1-1s.45-1 1-1h10c.55 0 1 .45 1 1s-.45 1-1 1zm0-3H7c-.55 0-1-.45-1-1s.45-1 1-1h10c.55 0 1 .45 1 1s-.45 1-1 1zm0-3H7c-.55 0-1-.45-1-1s.45-1 1-1h10c.55 0 1 .45 1 1s-.45 1-1 1z"/></symbol>
<symbol id="insert_drive_file" viewBox="0 0 24 24"><path d="M0 0h24v24H0V0z" fill="none"/><path d="M6 2c-1.1 0-1.99.9-1.99 2L4 20c0 1.1.89 2 1.99 2H18c1.1 0 2-.9 2-2V8.83c0-.53-.21-1.04-.59-1.41l-4.83-4.83c-.37-.38-.88-.59-1.41-.59H6zm7 6V3.5L18.5 9H14c-.55 0-1-.45-1-1z"/></symbol>
<symbol id="insert_emoticon" viewBox="0 0 24 24"><path d="M0 0h24v24H0V0z" fill="none"/><path d="M11.99 2C6.47 2 2 6.48 2 12s4.47 10 9.99 10C17.52 22 22 17.52 22 12S17.52 2 11.99 2zM12 20c-4.42 0-8-3.58-8-8s3.58-8 8-8 8 3.58 8 8-3.58 8-8 8zm3.5-9c.83 0 1.5-.67 1.5-1.5S16.33 8 15.5 8 14 8.67 14 9.5s.67 1.5 1.5 1.5zm-7 0c.83 0 1.5-.67 1.5-1.5S9.33 8 8.5 8 7 8.67 7 9.5 7.67 11 8.5 11zm3.5 6.5c2.03 0 3.8-1.11 4.75-2.75.19-.33-.05-.75-.44-.75H7.69c-.38 0-.63.42-.44.75.95 1.64 2.72 2.75 4.75 2.75z"/></symbol>
<symbol id="insert_invitation" viewBox="0 0 24 24"><path d="M0 0h24v24H0V0z" fill="none"/><path d="M16 12h-3c-.55 0-1 .45-1 1v3c0 .55.45 1 1 1h3c.55 0 1-.45 1-1v-3c0-.55-.45-1-1-1zm0-10v1H8V2c0-.55-.45-1-1-1s-1 .45-1 1v1H5c-1.11 0-1.99.9-1.99 2L3 19c0 1.1.89 2 2 2h14c1.1 0 2-.9 2-2V5c0-1.1-.9-2-2-2h-1V2c0-.55-.45-1-1-1s-1 .45-1 1zm2 17H6c-.55 0-1-.45-1-1V8h14v10c0 .55-.45 1-1 1z"/></symbol>
<symbol id="insert_link" viewBox="0 0 24 24"><path d="M0 0h24v24H0V0z" fill="none"/><path d="M3.96 11.38C4.24 9.91 5.62 8.9 7.12 8.9h2.93c.52 0 .95-.43.95-.95S10.57 7 10.05 7H7.22c-2.61 0-4.94 1.91-5.19 4.51C1.74 14.49 4.08 17 7 17h3.05c.52 0 .95-.43.95-.95s-.43-.95-.95-.95H7c-1.91 0-3.42-1.74-3.04-3.72zM9 13h6c.55 0 1-.45 1-1s-.45-1-1-1H9c-.55 0-1 .45-1 1s.45 1 1 1zm7.78-6h-2.83c-.52 0-.95.43-.95.95s.43.95.95.95h2.93c1.5 0 2.88 1.01 3.16 2.48.38 1.98-1.13 3.72-3.04 3.72h-3.05c-.52 0-.95.43-.95.95s.43.95.95.95H17c2.92 0 5.26-2.51 4.98-5.49-.25-2.6-2.59-4.51-5.2-4.51z"/></symbol>
<symbol id="insert_photo" viewBox="0 0 24 24"><path d="M0 0h24v24H0V0z" fill="none"/><path d="M21 19V5c0-1.1-.9-2-2-2H5c-1.1 0-2 .9-2 2v14c0 1.1.9 2 2 2h14c1.1 0 2-.9 2-2zM8.9 13.98l2.1 2.53 3.1-3.99c.2-.26.6-.26.8.01l3.51 4.68c.25.33.01.8-.4.8H6.02c-.42 0-.65-.48-.39-.81L8.12 14c.19-.26.57-.27.78-.02z"/></symbol>
<symbol id="linear_scale" viewBox="0 0 24 24"><path d="M0 0h24v24H0z" fill="none"/><path d="M19.5 9.5c-1.03 0-1.9.62-2.29 1.5h-2.92c-.39-.88-1.26-1.5-2.29-1.5s-1.9.62-2.29 1.5H6.79c-.39-.88-1.26-1.5-2.29-1.5C3.12 9.5 2 10.62 2 12s1.12 2.5 2.5 2.5c1.03 0 1.9-.62 2.29-1.5h2.92c.39.88 1.26 1.5 2.29 1.5s1.9-.62 2.29-1.5h2.92c.39.88 1.26 1.5 2.29 1.5 1.38 0 2.5-1.12 2.5-2.5s-1.12-2.5-2.5-2.5z"/></symbol>
<symbol id="merge_type" viewBox="0 0 24 24"><path d="M0 0h24v24H0V0z" fill="none"/><path d="M17.7 19.7c.39-.39.39-1.02 0-1.41l-2.7-2.7L13.59 17l2.7 2.7c.39.39 1.03.39 1.41 0zM8.71 8H11v5.59l-4.71 4.7c-.39.39-.39 1.02 0 1.41.39.39 1.02.39 1.41 0l4.71-4.7c.38-.38.59-.88.59-1.41V8h2.29c.45 0 .67-.54.35-.85l-3.29-3.29c-.2-.2-.51-.2-.71 0L8.35 7.15c-.31.31-.09.85.36.85z"/></symbol>
<symbol id="mode" viewBox="0 0 24 24"><path d="M0 0h24v24H0V0z" fill="none"/><path d="M3 17.46v3.04c0 .28.22.5.5.5h3.04c.13 0 .26-.05.35-.15L17.81 9.94l-3.75-3.75L3.15 17.1c-.1.1-.15.22-.15.36zM20.71 7.04c.39-.39.39-1.02 0-1.41l-2.34-2.34c-.39-.39-1.02-.39-1.41 0l-1.83 1.83 3.75 3.75 1.83-1.83z"/></symbol>
<symbol id="mode_comment" viewBox="0 0 24 24"><path d="M0 0h24v24H0V0z" fill="none"/><path d="M22 4c0-1.1-.9-2-2-2H4c-1.1 0-2 .9-2 2v12c0 1.1.9 2 2 2h14l4 4V4z"/></symbol>
<symbol id="monetization_on" viewBox="0 0 24 24"><path d="M0 0h24v24H0V0z" fill="none"/><path d="M12 2C6.48 2 2 6.48 2 12s4.48 10 10 10 10-4.48 10-10S17.52 2 12 2zm1.41 16.09v.58c0 .73-.6 1.33-1.33 1.33h-.01c-.73 0-1.33-.6-1.33-1.33v-.6c-1.33-.28-2.51-1.01-3.01-2.24-.23-.55.2-1.16.8-1.16h.24c.37 0 .67.25.81.6.29.75 1.05 1.27 2.51 1.27 1.96 0 2.4-.98 2.4-1.59 0-.83-.44-1.61-2.67-2.14-2.48-.6-4.18-1.62-4.18-3.67 0-1.72 1.39-2.84 3.11-3.21v-.6c0-.73.6-1.33 1.33-1.33h.01c.73 0 1.33.6 1.33 1.33v.62c1.38.34 2.25 1.2 2.63 2.26.2.55-.22 1.13-.81 1.13h-.26c-.37 0-.67-.26-.77-.62-.23-.76-.86-1.25-2.12-1.25-1.5 0-2.4.68-2.4 1.64 0 .84.65 1.39 2.67 1.91s4.18 1.39 4.18 3.91c-.02 1.83-1.39 2.83-3.13 3.16z"/></symbol>
<symbol id="money_off" viewBox="0 0 24 24"><path d="M0 0h24v24H0V0z" fill="none"/><path d="M12.5 6.9c1.42 0 2.13.54 2.39 1.4.13.43.56.7 1.01.7h.06c.7 0 1.22-.71.97-1.36-.44-1.15-1.41-2.08-2.93-2.45V4.5c0-.83-.67-1.5-1.5-1.5S11 3.67 11 4.5v.66c-.39.08-.75.21-1.1.36l1.51 1.51c.32-.08.69-.13 1.09-.13zM4.77 4.62c-.39.39-.39 1.02 0 1.41L7.5 8.77c0 2.08 1.56 3.22 3.91 3.91l3.51 3.51c-.34.49-1.05.91-2.42.91-1.65 0-2.5-.59-2.83-1.43-.15-.39-.49-.67-.9-.67H8.6c-.72 0-1.24.74-.95 1.39.59 1.33 1.89 2.12 3.36 2.44v.67c0 .83.67 1.5 1.5 1.5s1.5-.67 1.5-1.5v-.65c.96-.18 1.83-.55 2.46-1.12l1.51 1.51c.39.39 1.02.39 1.41 0 .39-.39.39-1.02 0-1.41L6.18 4.62c-.39-.39-1.02-.39-1.41 0z"/></symbol>
<symbol id="money_off_csred" viewBox="0 0 24 24"><path d="M0 0h24v24H0V0z" fill="none"/><path d="M12.5 6.9c1.42 0 2.13.54 2.39 1.4.13.43.56.7 1.01.7h.06c.7 0 1.22-.71.97-1.36-.44-1.15-1.41-2.08-2.93-2.45V4.5c0-.83-.67-1.5-1.5-1.5S11 3.67 11 4.5v.66c-.39.08-.75.21-1.1.36l1.51 1.51c.32-.08.69-.13 1.09-.13zM4.77 4.62c-.39.39-.39 1.02 0 1.41L7.5 8.77c0 2.08 1.56 3.22 3.91 3.91l3.51 3.51c-.34.49-1.05.91-2.42.91-1.65 0-2.5-.59-2.83-1.43-.15-.39-.49-.67-.9-.67H8.6c-.72 0-1.24.74-.95 1.39.59 1.33 1.89 2.12 3.36 2.44v.67c0 .83.67 1.5 1.5 1.5s1.5-.67 1.5-1.5v-.65c.96-.18 1.83-.55 2.46-1.12l1.51 1.51c.39.39 1.02.39 1.41 0 .39-.39.39-1.02 0-1.41L6.18 4.62c-.39-.39-1.02-.39-1.41 0z"/></symbol>
<symbol id="multiline_chart" viewBox="0 0 24 24"><path d="M0 0h24v24H0V0z" fill="none"/><path d="M21.36 6.28l-.06-.06c-.39-.39-1.03-.37-1.39.04l-2.18 2.45C15.68 6.4 12.83 5 9.61 5c-2.5 0-4.83.87-6.75 2.3-.47.35-.52 1.04-.11 1.45l.06.06c.33.33.86.39 1.23.11C5.63 7.72 7.54 7 9.61 7c2.74 0 5.09 1.26 6.77 3.24l-2.88 3.24-3.29-3.29c-.39-.39-1.02-.39-1.41 0l-6.12 6.13c-.37.37-.37.98 0 1.35l.15.15c.37.37.98.37 1.35 0l5.32-5.33 3.25 3.25c.41.41 1.07.39 1.45-.04l3.35-3.76c.62 1.12 1.08 2.39 1.32 3.73.08.47.47.82.95.82h.09c.6 0 1.05-.55.94-1.14-.32-1.85-.98-3.54-1.89-5L21.4 7.6c.34-.38.32-.96-.04-1.32z"/></symbol>
<symbol id="notes" viewBox="0 0 24 24"><path d="M0 0h24v24H0V0z" fill="none"/><path d="M20 11H4c-.55 0-1 .45-1 1s.45 1 1 1h16c.55 0 1-.45 1-1s-.45-1-1-1zM4 18h10c.55 0 1-.45 1-1s-.45-1-1-1H4c-.55 0-1 .45-1 1s.45 1 1 1zM20 6H4c-.55 0-1 .45-1 1v.01c0 .55.45 1 1 1h16c.55 0 1-.45 1-1V7c0-.55-.45-1-1-1z"/></symbol>
<symbol id="pie_chart" viewBox="0 0 24 24"><path d="M0 0h24v24H0V0z" fill="none"/><path d="M11 3.18v17.64c0 .64-.59 1.12-1.21.98C5.32 20.8 2 16.79 2 12s3.32-8.8 7.79-9.8c.62-.14 1.21.34 1.21.98zm2.03 0v6.81c0 .55.45 1 1 1h6.79c.64 0 1.12-.59.98-1.22-.85-3.76-3.8-6.72-7.55-7.57-.63-.14-1.22.34-1.22.98zm0 10.83v6.81c0 .64.59 1.12 1.22.98 3.76-.85 6.71-3.82 7.56-7.58.14-.62-.35-1.22-.98-1.22h-6.79c-.56.01-1.01.46-1.01 1.01z"/></symbol>
<symbol id="pie_chart_outline" viewBox="0 0 24 24"><path d="M0 0h24v24H0V0z" fill="none"/><path d="M12 2C6.5 2 2 6.5 2 12s4.5 10 10 10 10-4.5 10-10S17.5 2 12 2zm1 2.07c3.61.45 6.48 3.33 6.93 6.93H14c-.55 0-1-.45-1-1V4.07zM4 12c0-4.06 3.07-7.44 7-7.93v15.87c-3.93-.5-7-3.88-7-7.94zm9 7.93V14c0-.55.45-1 1-1h5.93c-.45 3.61-3.32 6.48-6.93 6.93z"/></symbol>
<symbol id="post_add" viewBox="0 0 24 24"><g><rect fill="none" height="24" width="24"/><rect fill="none" height="24" width="24"/></g><g><g/><g><path d="M18,12c-0.55,0-1,0.45-1,1v5.22c0,0.55-0.45,1-1,1H6c-0.55,0-1-0.45-1-1V8c0-0.55,0.45-1,1-1h5c0.55,0,1-0.45,1-1 c0-0.55-0.45-1-1-1H5C3.9,5,3,5.9,3,7v12c0,1.1,0.9,2,2,2h12c1.1,0,2-0.9,2-2v-6C19,12.45,18.55,12,18,12z"/><path d="M21.02,5H19V2.98C19,2.44,18.56,2,18.02,2h-0.03C17.44,2,17,2.44,17,2.98V5h-2.01C14.45,5,14.01,5.44,14,5.98 c0,0.01,0,0.02,0,0.03C14,6.56,14.44,7,14.99,7H17v2.01c0,0.54,0.44,0.99,0.99,0.98c0.01,0,0.02,0,0.03,0 c0.54,0,0.98-0.44,0.98-0.98V7h2.02C21.56,7,22,6.56,22,6.02V5.98C22,5.44,21.56,5,21.02,5z"/><path d="M14,9H8c-0.55,0-1,0.45-1,1c0,0.55,0.45,1,1,1h6c0.55,0,1-0.45,1-1C15,9.45,14.55,9,14,9z"/><path d="M14,12H8c-0.55,0-1,0.45-1,1c0,0.55,0.45,1,1,1h6c0.55,0,1-0.45,1-1C15,12.45,14.55,12,14,12z"/><path d="M14,15H8c-0.55,0-1,0.45-1,1c0,0.55,0.45,1,1,1h6c0.55,0,1-0.45,1-1C15,15.45,14.55,15,14,15z"/></g></g></symbol>
<symbol id="publish" viewBox="0 0 24 24"><path d="M0 0h24v24H0V0z" fill="none"/><path d="M5 5c0 .55.45 1 1 1h12c.55 0 1-.45 1-1s-.45-1-1-1H6c-.55 0-1 .45-1 1zm2.41 9H9v5c0 .55.45 1 1 1h4c.55 0 1-.45 1-1v-5h1.59c.89 0 1.34-1.08.71-1.71L12.71 7.7c-.39-.39-1.02-.39-1.41 0l-4.59 4.59c-.63.63-.19 1.71.7 1.71z"/></symbol>
<symbol id="scatter_plot" viewBox="0 0 24 24"><path d="M0 0h24v24H0V0z" fill="none"/><circle cx="7" cy="14" r="3"/><circle cx="11" cy="6" r="3"/><circle cx="16.6" cy="17.6" r="3"/></symbol>
<symbol id="score" viewBox="0 0 24 24"><path d="M0 0h24v24H0V0z" fill="none"/><path d="M19 3H5c-1.1 0-2 .9-2 2v14c0 1.1.9 2 2 2h14c1.1 0 2-.9 2-2V5c0-1.1-.9-2-2-2zm-7 2.75c0-.41.34-.75.75-.75s.75.34.75.75V8l1.79-2.69c.13-.19.35-.31.59-.31.56 0 .9.63.59 1.1L15.2 8l1.27 1.9c.31.47-.02 1.1-.59 1.1-.24 0-.46-.12-.59-.31L13.5 8v2.25c0 .41-.34.75-.75.75s-.75-.34-.75-.75v-4.5zm-5 2.5c0-.55.45-1 1-1h1.5V6.5H7.75c-.41 0-.75-.34-.75-.75S7.34 5 7.75 5H10c.55 0 1 .45 1 1v1.75c0 .55-.45 1-1 1H8.5v.75h1.75c.41 0 .75.34.75.75s-.34.75-.75.75H8c-.55 0-1-.45-1-1V8.25zm11.74 5.01l-5.03 5.03c-.39.39-1.02.39-1.41 0L9 15l-2.49 2.49c-.56.56-1.51.16-1.51-.62 0-.23.09-.46.26-.62l3.03-3.03c.39-.39 1.02-.39 1.41 0L13 16.5l4.49-4.49c.56-.56 1.51-.16 1.51.62 0 .24-.09.46-.26.63z"/></symbol>
<symbol id="short_text" viewBox="0 0 24 24"><path d="M0 0h24v24H0z" fill="none"/><path d="M5 9h14c.55 0 1 .45 1 1s-.45 1-1 1H5c-.55 0-1-.45-1-1s.45-1 1-1zm0 4h8c.55 0 1 .45 1 1s-.45 1-1 1H5c-.55 0-1-.45-1-1s.45-1 1-1z"/></symbol>
<symbol id="show_chart" viewBox="0 0 24 24"><path d="M0 0h24v24H0V0z" fill="none"/><path d="M4.2 17.78l5.3-5.3 3.25 3.25c.41.41 1.07.39 1.45-.04l7.17-8.07c.35-.39.33-.99-.04-1.37-.4-.4-1.07-.39-1.45.04l-6.39 7.18-3.29-3.29c-.39-.39-1.02-.39-1.41 0l-6.09 6.1c-.39.39-.39 1.02 0 1.41l.09.09c.39.39 1.03.39 1.41 0z"/></symbol>
<symbol id="space_bar" viewBox="0 0 24 24"><path d="M0 0h24v24H0V0z" fill="none"/><path d="M18 10v3H6v-3c0-.55-.45-1-1-1s-1 .45-1 1v4c0 .55.45 1 1 1h14c.55 0 1-.45 1-1v-4c0-.55-.45-1-1-1s-1 .45-1 1z"/></symbol>
<symbol id="stacked_line_chart" viewBox="0 0 24 24"><rect fill="none" height="24" width="24"/><path d="M2.79,14.78L2.7,14.69c-0.39-0.39-0.39-1.02,0-1.41l6.09-6.1c0.39-0.39,1.02-0.39,1.41,0l3.29,3.29l6.39-7.18 c0.38-0.43,1.05-0.44,1.45-0.04l0,0c0.37,0.38,0.39,0.98,0.04,1.37l-7.17,8.07c-0.38,0.43-1.04,0.45-1.45,0.04L9.5,9.48l-5.3,5.3 C3.82,15.17,3.18,15.17,2.79,14.78z M4.2,20.78l5.3-5.3l3.25,3.25c0.41,0.41,1.07,0.39,1.45-0.04l7.17-8.07 c0.35-0.39,0.33-0.99-0.04-1.37l0,0c-0.4-0.4-1.07-0.39-1.45,0.04l-6.39,7.18l-3.29-3.29c-0.39-0.39-1.02-0.39-1.41,0l-6.09,6.1 c-0.39,0.39-0.39,1.02,0,1.41l0.09,0.09C3.18,21.17,3.82,21.17,4.2,20.78z"/></symbol>
<symbol id="strikethrough_s" viewBox="0 0 24 24"><path d="M0 0h24v24H0z" fill="none"/><path d="M14.59 7.52c0-.31-.05-.59-.15-.85-.09-.27-.24-.49-.44-.68-.2-.19-.45-.33-.75-.44-.3-.1-.66-.16-1.06-.16-.39 0-.74.04-1.03.13s-.53.21-.72.36c-.19.16-.34.34-.44.55-.1.21-.15.43-.15.66 0 .48.25.88.74 1.21.38.25.77.48 1.41.7H7.39c-.05-.08-.11-.17-.15-.25-.26-.48-.39-1.03-.39-1.67 0-.61.13-1.16.4-1.67.26-.5.63-.93 1.11-1.29.48-.35 1.05-.63 1.7-.83.66-.19 1.39-.29 2.18-.29.81 0 1.54.11 2.21.34.66.22 1.23.54 1.69.94.47.4.83.88 1.08 1.43s.38 1.15.38 1.81h-3.01M20 10H4c-.55 0-1 .45-1 1s.45 1 1 1h8.62c.18.07.4.14.55.2.37.17.66.34.87.51s.35.36.43.57c.07.2.11.43.11.69 0 .23-.05.45-.14.66-.09.2-.23.38-.42.53-.19.15-.42.26-.71.35-.29.08-.63.13-1.01.13-.43 0-.83-.04-1.18-.13s-.66-.23-.91-.42c-.25-.19-.45-.44-.59-.75s-.25-.76-.25-1.21H6.4c0 .55.08 1.13.24 1.58s.37.85.65 1.21c.28.35.6.66.98.92.37.26.78.48 1.22.65.44.17.9.3 1.38.39.48.08.96.13 1.44.13.8 0 1.53-.09 2.18-.28s1.21-.45 1.67-.79c.46-.34.82-.77 1.07-1.27s.38-1.07.38-1.71c0-.6-.1-1.14-.31-1.61-.05-.11-.11-.23-.17-.33H20c.55 0 1-.45 1-1V11c0-.55-.45-1-1-1z"/></symbol>
<symbol id="subscript" viewBox="0 0 24 24"><g><rect fill="none" height="24" width="24"/><path d="M10.52,10.73L7.3,5.72C6.82,4.97,7.35,4,8.23,4h0c0.39,0,0.74,0.2,0.95,0.53l2.76,4.46h0.12l2.74-4.45 C15.01,4.2,15.37,4,15.76,4h0c0.88,0,1.42,0.98,0.94,1.72l-3.23,5l3.55,5.55C17.5,17.02,16.96,18,16.08,18h0 c-0.38,0-0.74-0.2-0.95-0.52l-3.07-4.89h-0.12l-3.07,4.89C8.67,17.8,8.31,18,7.92,18h0c-0.88,0-1.42-0.97-0.94-1.72L10.52,10.73z M23,19.5L23,19.5c0-0.28-0.22-0.5-0.5-0.5c0,0,0,0,0,0H20v-1h2c0.55,0,1-0.45,1-1v-1c0-0.55-0.45-1-1-1h-2.5 c-0.28,0-0.5,0.22-0.5,0.5v0c0,0.28,0.22,0.5,0.5,0.5H22v1h-2c-0.55,0-1,0.45-1,1v1c0,0.55,0.45,1,1,1h2.5 C22.78,20,23,19.78,23,19.5z"/></g></symbol>
<symbol id="superscript" viewBox="0 0 24 24"><g><rect fill="none" height="24" width="24" x="0" y="0"/><path d="M10.51,12.73L7.3,7.72C6.82,6.97,7.35,6,8.23,6h0c0.39,0,0.74,0.2,0.95,0.53l2.76,4.46h0.12l2.74-4.45 C15,6.2,15.36,6,15.75,6h0c0.88,0,1.42,0.98,0.94,1.72l-3.23,5l3.55,5.55C17.5,19.02,16.96,20,16.08,20h0 c-0.38,0-0.74-0.2-0.95-0.52l-3.07-4.89h-0.12l-3.07,4.89C8.66,19.8,8.31,20,7.92,20h0c-0.88,0-1.42-0.97-0.94-1.72L10.51,12.73z M23,8.5L23,8.5C23,8.22,22.78,8,22.5,8c0,0,0,0,0,0H20V7h2c0.55,0,1-0.45,1-1V5c0-0.55-0.45-1-1-1h-2.5C19.22,4,19,4.22,19,4.5v0 C19,4.78,19.22,5,19.5,5H22v1h-2c-0.55,0-1,0.45-1,1v1c0,0.55,0.45,1,1,1h2.5C22.78,9,23,8.78,23,8.5z"/></g></symbol>
<symbol id="table_chart" viewBox="0 0 24 24"><path d="M0 0h24v24H0V0z" fill="none"/><path d="M10 10.02h5V21h-5V10.02zM17 21h3c1.1 0 2-.9 2-2v-9h-5v11zm3-18H5c-1.1 0-2 .9-2 2v3h19V5c0-1.1-.9-2-2-2zM3 19c0 1.1.9 2 2 2h3V10H3v9z"/></symbol>
<symbol id="table_rows" viewBox="0 0 24 24"><g><rect fill="none" height="24" width="24"/><path d="M20,7H4C2.9,7,2,6.1,2,5V4c0-1.1,0.9-2,2-2h16c1.1,0,2,0.9,2,2v1C22,6.1,21.1,7,20,7z M20,9.5H4c-1.1,0-2,0.9-2,2v1 c0,1.1,0.9,2,2,2h16c1.1,0,2-0.9,2-2v-1C22,10.4,21.1,9.5,20,9.5z M20,17H4c-1.1,0-2,0.9-2,2v1c0,1.1,0.9,2,2,2h16c1.1,0,2-0.9,2-2 v-1C22,17.9,21.1,17,20,17z"/></g></symbol>
<symbol id="text_fields" viewBox="0 0 24 24"><path d="M0 0h24v24H0z" fill="none"/><path d="M2.5 5.5C2.5 6.33 3.17 7 4 7h3.5v10.5c0 .83.67 1.5 1.5 1.5s1.5-.67 1.5-1.5V7H14c.83 0 1.5-.67 1.5-1.5S14.83 4 14 4H4c-.83 0-1.5.67-1.5 1.5zM20 9h-6c-.83 0-1.5.67-1.5 1.5S13.17 12 14 12h1.5v5.5c0 .83.67 1.5 1.5 1.5s1.5-.67 1.5-1.5V12H20c.83 0 1.5-.67 1.5-1.5S20.83 9 20 9z"/></symbol>
<symbol id="title" viewBox="0 0 24 24"><path d="M0 0h24v24H0V0z" fill="none"/><path d="M5 5.5C5 6.33 5.67 7 6.5 7h4v10.5c0 .83.67 1.5 1.5 1.5s1.5-.67 1.5-1.5V7h4c.83 0 1.5-.67 1.5-1.5S18.33 4 17.5 4h-11C5.67 4 5 4.67 5 5.5z"/></symbol>
<symbol id="vertical_align_bottom" viewBox="0 0 24 24"><path d="M0 0h24v24H0V0z" fill="none"/><path d="M14.79 13H13V4c0-.55-.45-1-1-1s-1 .45-1 1v9H9.21c-.45 0-.67.54-.35.85l2.79 2.79c.2.2.51.2.71 0l2.79-2.79c.31-.31.09-.85-.36-.85zM4 20c0 .55.45 1 1 1h14c.55 0 1-.45 1-1s-.45-1-1-1H5c-.55 0-1 .45-1 1z"/></symbol>
<symbol id="vertical_align_center" viewBox="0 0 24 24"><path d="M0 0h24v24H0V0z" fill="none"/><path d="M9.21 19H11v3c0 .55.45 1 1 1s1-.45 1-1v-3h1.79c.45 0 .67-.54.35-.85l-2.79-2.79c-.2-.2-.51-.2-.71 0l-2.79 2.79c-.31.31-.09.85.36.85zm5.58-14H13V2c0-.55-.45-1-1-1s-1 .45-1 1v3H9.21c-.45 0-.67.54-.36.85l2.79 2.79c.2.2.51.2.71 0l2.79-2.79c.32-.31.1-.85-.35-.85zM4 12c0 .55.45 1 1 1h14c.55 0 1-.45 1-1s-.45-1-1-1H5c-.55 0-1 .45-1 1z"/></symbol>
<symbol id="vertical_align_top" viewBox="0 0 24 24"><path d="M0 0h24v24H0V0z" fill="none"/><path d="M9.21 11H11v9c0 .55.45 1 1 1s1-.45 1-1v-9h1.79c.45 0 .67-.54.35-.85l-2.79-2.79c-.2-.2-.51-.2-.71 0l-2.79 2.79c-.31.31-.09.85.36.85zM4 4c0 .55.45 1 1 1h14c.55 0 1-.45 1-1s-.45-1-1-1H5c-.55 0-1 .45-1 1z"/></symbol>
<symbol id="wrap_text" viewBox="0 0 24 24"><path d="M0 0h24v24H0V0z" fill="none"/><path d="M5 7h14c.55 0 1-.45 1-1s-.45-1-1-1H5c-.55 0-1 .45-1 1s.45 1 1 1zm11.83 4H5c-.55 0-1 .45-1 1s.45 1 1 1h12.13c1 0 1.93.67 2.09 1.66.21 1.25-.76 2.34-1.97 2.34H15v-.79c0-.45-.54-.67-.85-.35l-1.79 1.79c-.2.2-.2.51 0 .71l1.79 1.79c.32.32.85.09.85-.35V19h2c2.34 0 4.21-2.01 3.98-4.39-.2-2.08-2.06-3.61-4.15-3.61zM9 17H5c-.55 0-1 .45-1 1s.45 1 1 1h4c.55 0 1-.45 1-1s-.45-1-1-1z"/></symbol>
</svg>