<svg xmlns="http://www.w3.org/2000/svg">
<symbol id="attachment" viewBox="0 0 24 24"><path d="M0 0h24v24H0V0z" fill="none"/><path d="M17.75 16H7.17c-2.09 0-3.95-1.53-4.15-3.61C2.79 10.01 4.66 8 7 8h12.36c1.31 0 2.5.94 2.63 2.24.15 1.5-1.02 2.76-2.49 2.76H9c-.55 0-1-.45-1-1s.45-1 1-1h8.75c.41 0 .75-.34.75-.75s-.34-.75-.75-.75H9.14c-1.31 0-2.5.94-2.63 2.24-.15 1.5 1.02 2.76 2.49 2.76h10.33c2.09 0 3.95-1.53 4.15-3.61.23-2.39-1.64-4.39-3.98-4.39H7.23c-2.87 0-5.44 2.1-5.71 4.96-.3 3.29 2.26 6.04 5.48 6.04h10.75c.41 0 .75-.34.75-.75s-.34-.75-.75-.75z"/></symbol>
<symbol id="attach_email" viewBox="0 0 24 24"><g><rect fill="none" height="24" width="24"/><rect fill="none" height="24" width="24"/></g><g><g><path d="M21,10V4c0-1.1-0.9-2-2-2H3C1.9,2,1.01,2.9,1.01,4L1,16c0,1.1,0.9,2,2,2h11v-5c0-1.66,1.34-3,3-3H21z M11.53,10.67 c-0.32,0.2-0.74,0.2-1.06,0L3.4,6.25C3.15,6.09,3,5.82,3,5.53c0-0.67,0.73-1.07,1.3-0.72L11,9l6.7-4.19 C18.27,4.46,19,4.86,19,5.53c0,0.29-0.15,0.56-0.4,0.72L11.53,10.67z"/><path d="M22,14c-0.55,0-1,0.45-1,1v3c0,1.1-0.9,2-2,2s-2-0.9-2-2v-4.5c0-0.28,0.22-0.5,0.5-0.5s0.5,0.22,0.5,0.5V17 c0,0.55,0.45,1,1,1s1-0.45,1-1v-3.5c0-1.38-1.12-2.5-2.5-2.5S15,12.12,15,13.5V18c0,2.21,1.79,4,4,4s4-1.79,4-4v-3 C23,14.45,22.55,14,22,14z"/></g></g></symbol>
<symbol id="cloud" viewBox="0 0 24 24"><path d="M0 0h24v24H0V0z" fill="none"/><path d="M19.35 10.04C18.67 6.59 15.64 4 12 4 9.11 4 6.6 5.64 5.35 8.04 2.34 8.36 0 10.91 0 14c0 3.31 2.69 6 6 6h13c2.76 0 5-2.24 5-5 0-2.64-2.05-4.78-4.65-4.96z"/></symbol>
<symbol id="cloud_circle" viewBox="0 0 24 24"><path d="M0 0h24v24H0V0z" fill="none"/><path d="M12 2C6.48 2 2 6.48 2 12s4.48 10 10 10 10-4.48 10-10S17.52 2 12 2zm4.5 14H8c-1.66 0-3-1.34-3-3s1.34-3 3-3h.14c.44-1.73 1.99-3 3.86-3 2.21 0 4 1.79 4 4h.5c1.38 0 2.5 1.12 2.5 2.5S17.88 16 16.5 16z"/></symbol>
<symbol id="cloud_done" viewBox="0 0 24 24"><path d="M0 0h24v24H0V0z" fill="none"/><path d="M19.35 10.04C18.67 6.59 15.64 4 12 4 9.11 4 6.6 5.64 5.35 8.04 2.34 8.36 0 10.91 0 14c0 3.31 2.69 6 6 6h13c2.76 0 5-2.24 5-5 0-2.64-2.05-4.78-4.65-4.96zm-8.64 6.25c-.39.39-1.02.39-1.41 0L7.2 14.2c-.39-.39-.39-1.02 0-1.41.39-.39 1.02-.39 1.41 0L10 14.18l4.48-4.48c.39-.39 1.02-.39 1.41 0 .39.39.39 1.02 0 1.41l-5.18 5.18z"/></symbol>
<symbol id="cloud_download" viewBox="0 0 24 24"><path d="M0 0h24v24H0V0z" fill="none"/><path d="M19.35 10.04C18.67 6.59 15.64 4 12 4 9.11 4 6.6 5.64 5.35 8.04 2.34 8.36 0 10.91 0 14c0 3.31 2.69 6 6 6h13c2.76 0 5-2.24 5-5 0-2.64-2.05-4.78-4.65-4.96zM17 13l-4.65 4.65c-.2.2-.51.2-.71 0L7 13h3V9h4v4h3z"/></symbol>
<symbol id="cloud_off" viewBox="0 0 24 24"><path d="M0 0h24v24H0V0z" fill="none"/><path d="M24 15c0-2.64-2.05-4.78-4.65-4.96C18.67 6.59 15.64 4 12 4c-1.33 0-2.57.36-3.65.97l1.49 1.49C10.51 6.17 11.23 6 12 6c3.04 0 5.5 2.46 5.5 5.5v.5H19c1.66 0 3 1.34 3 3 0 .99-.48 1.85-1.21 2.4l1.41 1.41c1.09-.92 1.8-2.27 1.8-3.81zM3.71 4.56c-.39.39-.39 1.02 0 1.41l2.06 2.06h-.42c-3.28.35-5.76 3.34-5.29 6.79C.46 17.84 3.19 20 6.22 20h11.51l1.29 1.29c.39.39 1.02.39 1.41 0 .39-.39.39-1.02 0-1.41L5.12 4.56c-.39-.39-1.02-.39-1.41 0zM6 18c-2.21 0-4-1.79-4-4s1.79-4 4-4h1.73l8 8H6z"/></symbol>
<symbol id="cloud_queue" viewBox="0 0 24 24"><path d="M0 0h24v24H0V0z" fill="none"/><path d="M19.35 10.04C18.67 6.59 15.64 4 12 4 9.11 4 6.6 5.64 5.35 8.04 2.34 8.36 0 10.91 0 14c0 3.31 2.69 6 6 6h13c2.76 0 5-2.24 5-5 0-2.64-2.05-4.78-4.65-4.96zM19 18H6c-2.21 0-4-1.79-4-4s1.79-4 4-4h.71C7.37 7.69 9.48 6 12 6c3.04 0 5.5 2.46 5.5 5.5v.5H19c1.66 0 3 1.34 3 3s-1.34 3-3 3z"/></symbol>
<symbol id="cloud_upload" viewBox="0 0 24 24"><path d="M0 0h24v24H0V0z" fill="none"/><path d="M19.35 10.04C18.67 6.59 15.64 4 12 4 9.11 4 6.6 5.64 5.35 8.04 2.34 8.36 0 10.91 0 14c0 3.31 2.69 6 6 6h13c2.76 0 5-2.24 5-5 0-2.64-2.05-4.78-4.65-4.96zM14 13v4h-4v-4H7l4.65-4.65c.2-.2.51-.2.71 0L17 13h-3z"/></symbol>
<symbol id="create_new_folder" viewBox="0 0 24 24"><path d="M0 0h24v24H0V0z" fill="none"/><path d="M20 6h-8l-1.41-1.41C10.21 4.21 9.7 4 9.17 4H4c-1.11 0-1.99.89-1.99 2L2 18c0 1.11.89 2 2 2h16c1.1 0 2-.9 2-2V8c0-1.1-.9-2-2-2zm-2 8h-2v2c0 .55-.45 1-1 1s-1-.45-1-1v-2h-2c-.55 0-1-.45-1-1s.45-1 1-1h2v-2c0-.55.45-1 1-1s1 .45 1 1v2h2c.55 0 1 .45 1 1s-.45 1-1 1z"/></symbol>
<symbol id="download" viewBox="0 0 24 24"><path d="M0 0h24v24H0V0z" fill="none"/><path d="M16.59 9H15V4c0-.55-.45-1-1-1h-4c-.55 0-1 .45-1 1v5H7.41c-.89 0-1.34 1.08-.71 1.71l4.59 4.59c.39.39 1.02.39 1.41 0l4.59-4.59c.63-.63.19-1.71-.7-1.71zM5 19c0 .55.45 1 1 1h12c.55 0 1-.45 1-1s-.45-1-1-1H6c-.55 0-1 .45-1 1z"/></symbol>
<symbol id="download_done" viewBox="0 0 24 24"><path d="M0 0h24v24H0V0z" fill="none"/><path d="M6 18h12c.55 0 1 .45 1 1s-.45 1-1 1H6c-.55 0-1-.45-1-1s.45-1 1-1zm5.01-4.1c-.78.77-2.04.77-2.82-.01L6 11.7c-.55-.55-.54-1.44.03-1.97.54-.52 1.4-.5 1.92.02L9.6 11.4l6.43-6.43c.54-.54 1.41-.54 1.95 0l.04.04c.54.54.54 1.42-.01 1.96l-7 6.93z"/></symbol>
<symbol id="folder" viewBox="0 0 24 24"><path d="M0 0h24v24H0V0z" fill="none"/><path d="M10.59 4.59C10.21 4.21 9.7 4 9.17 4H4c-1.1 0-1.99.9-1.99 2L2 18c0 1.1.9 2 2 2h16c1.1 0 2-.9 2-2V8c0-1.1-.9-2-2-2h-8l-1.41-1.41z"/></symbol>
<symbol id="folder_open" viewBox="0 0 24 24"><path d="M0 0h24v24H0V0z" fill="none"/><path d="M20 6h-8l-1.41-1.41C10.21 4.21 9.7 4 9.17 4H4c-1.1 0-1.99.9-1.99 2L2 18c0 1.1.9 2 2 2h16c1.1 0 2-.9 2-2V8c0-1.1-.9-2-2-2zm-1 12H5c-.55 0-1-.45-1-1V9c0-.55.45-1 1-1h14c.55 0 1 .45 1 1v8c0 .55-.45 1-1 1z"/></symbol>
<symbol id="folder_shared" viewBox="0 0 24 24"><path d="M0 0h24v24H0V0z" fill="none"/><path d="M20 6h-8l-1.41-1.41C10.21 4.21 9.7 4 9.17 4H4c-1.1 0-1.99.9-1.99 2L2 18c0 1.1.9 2 2 2h16c1.1 0 2-.9 2-2V8c0-1.1-.9-2-2-2zm-5 3c1.1 0 2 .9 2 2s-.9 2-2 2-2-.9-2-2 .9-2 2-2zm4 8h-8v-1c0-1.33 2.67-2 4-2s4 .67 4 2v1z"/></symbol>
<symbol id="request_quote" viewBox="0 0 24 24"><g><rect fill="none" height="24" width="24"/><path d="M19.41,7.41l-4.83-4.83C14.21,2.21,13.7,2,13.17,2H6C4.9,2,4.01,2.9,4.01,4L4,20c0,1.1,0.89,2,1.99,2H18c1.1,0,2-0.9,2-2 V8.83C20,8.3,19.79,7.79,19.41,7.41z M14,13c0.55,0,1,0.45,1,1v3c0,0.55-0.45,1-1,1h-1c0,0.55-0.45,1-1,1s-1-0.45-1-1h-1 c-0.55,0-1-0.45-1-1c0-0.55,0.45-1,1-1h3v-1h-3c-0.55,0-1-0.45-1-1v-3c0-0.55,0.45-1,1-1h1c0-0.55,0.45-1,1-1s1,0.45,1,1h1 c0.55,0,1,0.45,1,1c0,0.55-0.45,1-1,1h-3v1H14z M14,8c-0.55,0-1-0.45-1-1V3.5L17.5,8H14z"/></g></symbol>
<symbol id="rule_folder" viewBox="0 0 24 24"><g><rect fill="none" height="24" width="24"/><path d="M20,6h-8l-1.41-1.41C10.21,4.21,9.7,4,9.17,4H4C2.9,4,2.01,4.9,2.01,6L2,18c0,1.1,0.9,2,2,2h16c1.1,0,2-0.9,2-2V8 C22,6.9,21.1,6,20,6z M7.12,15.29l-1.41-1.41c-0.39-0.39-0.39-1.02,0-1.41l0,0c0.39-0.39,1.02-0.39,1.41,0l0.71,0.71l2.83-2.83 c0.39-0.39,1.02-0.39,1.41,0l0,0c0.39,0.39,0.39,1.02,0,1.41l-3.54,3.54C8.14,15.68,7.51,15.68,7.12,15.29z M17.41,13l0.88,0.88 c0.39,0.39,0.39,1.02,0,1.41l0,0c-0.39,0.39-1.02,0.39-1.41,0L16,14.41l-0.88,0.88c-0.39,0.39-1.02,0.39-1.41,0l0,0 c-0.39-0.39-0.39-1.02,0-1.41L14.59,13l-0.88-0.88c-0.39-0.39-0.39-1.02,0-1.41l0,0c0.39-0.39,1.02-0.39,1.41,0L16,11.59l0.88-0.88 c0.39-0.39,1.02-0.39,1.41,0l0,0c0.39,0.39,0.39,1.02,0,1.41L17.41,13z"/></g></symbol>
<symbol id="snippet_folder" viewBox="0 0 24 24"><g><rect fill="none" height="24" width="24"/><path d="M15.88,10.5l1.62,1.62v3.38l-3,0v-5H15.88z M22,8v10c0,1.1-0.9,2-2,2H4c-1.1,0-2-0.9-2-2L2.01,6C2.01,4.9,2.9,4,4,4h5.17 c0.53,0,1.04,0.21,1.41,0.59L12,6h8C21.1,6,22,6.9,22,8z M19,11.91c0-0.27-0.11-0.52-0.29-0.71l-1.91-1.91 C16.61,9.11,16.35,9,16.09,9H14c-0.55,0-1,0.45-1,1v6c0,0.55,0.45,1,1,1l4,0c0.55,0,1-0.45,1-1V11.91z"/></g></symbol>
<symbol id="text_snippet" viewBox="0 0 24 24"><g><rect fill="none" height="24" width="24"/><path d="M14.17,3H5C3.9,3,3,3.9,3,5v14c0,1.1,0.9,2,2,2h14c1.1,0,2-0.9,2-2V9.83c0-0.53-0.21-1.04-0.59-1.41l-4.83-4.83 C15.21,3.21,14.7,3,14.17,3L14.17,3z M8,15h8c0.55,0,1,0.45,1,1v0c0,0.55-0.45,1-1,1H8c-0.55,0-1-0.45-1-1v0C7,15.45,7.45,15,8,15z M8,11h8c0.55,0,1,0.45,1,1v0c0,0.55-0.45,1-1,1H8c-0.55,0-1-0.45-1-1v0C7,11.45,7.45,11,8,11z M8,7h5c0.55,0,1,0.45,1,1v0 c0,0.55-0.45,1-1,1H8C7.45,9,7,8.55,7,8v0C7,7.45,7.45,7,8,7z"/></g></symbol>
<symbol id="topic" viewBox="0 0 24 24"><g><rect fill="none" height="24" width="24"/><path d="M20,6h-8l-1.41-1.41C10.21,4.21,9.7,4,9.17,4H4C2.9,4,2.01,4.9,2.01,6L2,18c0,1.1,0.9,2,2,2h16c1.1,0,2-0.9,2-2V8 C22,6.9,21.1,6,20,6z M13,16H7c-0.55,0-1-0.45-1-1c0-0.55,0.45-1,1-1h6c0.55,0,1,0.45,1,1C14,15.55,13.55,16,13,16z M17,12H7 c-0.55,0-1-0.45-1-1c0-0.55,0.45-1,1-1h10c0.55,0,1,0.45,1,1C18,11.55,17.55,12,17,12z"/></g></symbol>
<symbol id="upload" viewBox="0 0 24 24"><path d="M0 0h24v24H0V0z" fill="none"/><path d="M10 16h4c.55 0 1-.45 1-1v-5h1.59c.89 0 1.34-1.08.71-1.71L12.71 3.7c-.39-.39-1.02-.39-1.41 0L6.71 8.29c-.63.63-.19 1.71.7 1.71H9v5c0 .55.45 1 1 1zm-4 2h12c.55 0 1 .45 1 1s-.45 1-1 1H6c-.55 0-1-.45-1-1s.45-1 1-1z"/></symbol>
</svg>