<svg xmlns="http://www.w3.org/2000/svg">
<symbol id="browser_not_supported" viewBox="0 0 24 24"><g><rect fill="none" height="24" width="24"/><rect fill="none" height="24" width="24"/></g><g><g><path d="M19,6v10.5l1.95,1.95C20.98,18.3,21,18.15,21,18V6c0-1.1-0.9-2-2-2H6.5l2,2H19z"/><path d="M3.86,3.95c-0.35-0.35-0.92-0.35-1.27,0c-0.35,0.35-0.35,0.92,0,1.27L3,5.64L3,18c0,1.1,0.9,2,2,2h12.36l1.42,1.42 c0.35,0.35,0.92,0.35,1.27,0c0.35-0.35,0.35-0.92,0-1.27L3.86,3.95z M5,18V7.64L15.36,18H5z"/></g></g></symbol>
<symbol id="cast" viewBox="0 0 24 24"><path d="M21 3H3c-1.1 0-2 .9-2 2v2c0 .55.45 1 1 1s1-.45 1-1V6c0-.55.45-1 1-1h16c.55 0 1 .45 1 1v12c0 .55-.45 1-1 1h-5c-.55 0-1 .45-1 1s.45 1 1 1h6c1.1 0 2-.9 2-2V5c0-1.1-.9-2-2-2zM2.14 14.09c-.6-.1-1.14.39-1.14 1 0 .49.36.9.85.98 2.08.36 3.72 2 4.08 4.08.08.49.49.85.98.85.61 0 1.09-.54 1-1.14-.48-2.96-2.82-5.29-5.77-5.77zM1 18v3h3c0-1.66-1.34-3-3-3zm1.1-7.95c-.59-.05-1.1.41-1.1 1 0 .51.38.94.88.99 4.27.41 7.67 3.81 8.08 8.08.05.5.48.87.99.87.6 0 1.06-.52 1-1.11-.53-5.19-4.66-9.31-9.85-9.83z"/></symbol>
<symbol id="cast_connected" viewBox="0 0 24 24"><path d="M19 16V8c0-.55-.45-1-1-1H6c-.55 0-1 .45-1 1v.63c3.96 1.28 7.09 4.41 8.37 8.37H18c.55 0 1-.45 1-1zm2-13H3c-1.1 0-2 .9-2 2v2c0 .55.45 1 1 1s1-.45 1-1V6c0-.55.45-1 1-1h16c.55 0 1 .45 1 1v12c0 .55-.45 1-1 1h-5c-.55 0-1 .45-1 1s.45 1 1 1h6c1.1 0 2-.9 2-2V5c0-1.1-.9-2-2-2zM1 18v3h3c0-.62-.19-1.2-.51-1.68C2.95 18.52 2.04 18 1 18zm1.14-3.91c-.6-.1-1.14.39-1.14 1 0 .49.36.9.85.98 2.08.36 3.72 2 4.08 4.08.08.49.49.85.98.85.61 0 1.09-.54 1-1.14-.48-2.96-2.82-5.29-5.77-5.77zm-.04-4.04c-.59-.05-1.1.41-1.1 1 0 .51.38.94.88.99 4.27.41 7.67 3.81 8.08 8.08.05.5.48.87.99.87.6 0 1.06-.52 1-1.11-.53-5.19-4.66-9.31-9.85-9.83z"/></symbol>
<symbol id="cast_for_education" viewBox="0 0 24 24"><path d="M19.2 8.56l-4.22-2.3c-.3-.16-.66-.16-.96 0L9.8 8.56c-.35.19-.35.69 0 .88l4.22 2.3c.3.16.66.16.96 0l4.22-2.3c.34-.19.34-.69 0-.88zM21 3H3c-1.1 0-2 .9-2 2v2c0 .55.45 1 1 1s1-.45 1-1V6c0-.55.45-1 1-1h16c.55 0 1 .45 1 1v12c0 .55-.45 1-1 1h-5c-.55 0-1 .45-1 1s.45 1 1 1h6c1.1 0 2-.9 2-2V5c0-1.1-.9-2-2-2zm-6.98 9.74L11 11.09v1.41c0 .37.2.7.52.88l2.5 1.36c.3.16.66.16.96 0l2.5-1.36c.32-.18.52-.52.52-.88v-1.41l-3.02 1.65c-.3.16-.66.16-.96 0zM1 18v3h3c0-1.66-1.34-3-3-3zm1.14-3.91c-.6-.1-1.14.39-1.14 1 0 .49.36.9.85.98 2.08.36 3.72 2 4.08 4.08.08.49.49.85.98.85.61 0 1.09-.54 1-1.14-.48-2.96-2.82-5.29-5.77-5.77zm-.04-4.04c-.59-.05-1.1.41-1.1 1 0 .51.38.94.88.99 4.27.41 7.67 3.81 8.08 8.08.05.5.48.87.99.87.6 0 1.06-.52 1-1.11-.53-5.19-4.66-9.31-9.85-9.83z"/></symbol>
<symbol id="computer" viewBox="0 0 24 24"><path d="M20 18c1.1 0 1.99-.9 1.99-2L22 6c0-1.1-.9-2-2-2H4c-1.1 0-2 .9-2 2v10c0 1.1.9 2 2 2H1c-.55 0-1 .45-1 1s.45 1 1 1h22c.55 0 1-.45 1-1s-.45-1-1-1h-3zM5 6h14c.55 0 1 .45 1 1v8c0 .55-.45 1-1 1H5c-.55 0-1-.45-1-1V7c0-.55.45-1 1-1z"/></symbol>
<symbol id="desktop_mac" viewBox="0 0 24 24"><path d="M21 2H3c-1.1 0-2 .9-2 2v12c0 1.1.9 2 2 2h7l-1.63 2.45c-.44.66.03 1.55.83 1.55h5.6c.8 0 1.28-.89.83-1.55L14 18h7c1.1 0 2-.9 2-2V4c0-1.1-.9-2-2-2zm0 12H3V5c0-.55.45-1 1-1h16c.55 0 1 .45 1 1v9z"/></symbol>
<symbol id="desktop_windows" viewBox="0 0 24 24"><path d="M21 2H3c-1.1 0-2 .9-2 2v12c0 1.1.9 2 2 2h7v2H9c-.55 0-1 .45-1 1s.45 1 1 1h6c.55 0 1-.45 1-1s-.45-1-1-1h-1v-2h7c1.1 0 2-.9 2-2V4c0-1.1-.9-2-2-2zm-1 14H4c-.55 0-1-.45-1-1V5c0-.55.45-1 1-1h16c.55 0 1 .45 1 1v10c0 .55-.45 1-1 1z"/></symbol>
<symbol id="developer_board" viewBox="0 0 24 24"><path d="M22 8c0-.55-.45-1-1-1h-1V5c0-1.1-.9-2-2-2H4c-1.1 0-2 .9-2 2v14c0 1.1.9 2 2 2h14c1.1 0 2-.9 2-2v-2h1c.55 0 1-.45 1-1s-.45-1-1-1h-1v-2h1c.55 0 1-.45 1-1s-.45-1-1-1h-1V9h1c.55 0 1-.45 1-1zm-5 11H5c-.55 0-1-.45-1-1V6c0-.55.45-1 1-1h12c.55 0 1 .45 1 1v12c0 .55-.45 1-1 1zM6.5 13h4c.28 0 .5.22.5.5v3c0 .28-.22.5-.5.5h-4c-.28 0-.5-.22-.5-.5v-3c0-.28.22-.5.5-.5zm6-6h3c.28 0 .5.22.5.5v2c0 .28-.22.5-.5.5h-3c-.28 0-.5-.22-.5-.5v-2c0-.28.22-.5.5-.5zm-6 0h4c.28 0 .5.22.5.5v4c0 .28-.22.5-.5.5h-4c-.28 0-.5-.22-.5-.5v-4c0-.28.22-.5.5-.5zm6 4h3c.28 0 .5.22.5.5v5c0 .28-.22.5-.5.5h-3c-.28 0-.5-.22-.5-.5v-5c0-.28.22-.5.5-.5z"/></symbol>
<symbol id="devices_other" viewBox="0 0 24 24"><path d="M3 7c0-.55.45-1 1-1h16c.55 0 1-.45 1-1s-.45-1-1-1H3c-1.1 0-2 .9-2 2v12c0 1.1.9 2 2 2h3c.55 0 1-.45 1-1s-.45-1-1-1H4c-.55 0-1-.45-1-1V7zm9 5h-2c-.55 0-1 .45-1 1v.78c-.61.55-1 1.33-1 2.22 0 .89.39 1.67 1 2.22V19c0 .55.45 1 1 1h2c.55 0 1-.45 1-1v-.78c.61-.55 1-1.34 1-2.22s-.39-1.67-1-2.22V13c0-.55-.45-1-1-1zm-1 5.5c-.83 0-1.5-.67-1.5-1.5s.67-1.5 1.5-1.5 1.5.67 1.5 1.5-.67 1.5-1.5 1.5zM22 8h-6c-.5 0-1 .5-1 1v10c0 .5.5 1 1 1h6c.5 0 1-.5 1-1V9c0-.5-.5-1-1-1zm-1 10h-4v-8h4v8z"/></symbol>
<symbol id="device_hub" viewBox="0 0 24 24"><path d="M17 16l-4-4V8.82c1.35-.49 2.26-1.89 1.93-3.46-.25-1.18-1.23-2.12-2.42-2.32C10.63 2.73 9 4.17 9 6c0 1.3.84 2.4 2 2.82V12l-4 4H4c-.55 0-1 .45-1 1v3c0 .55.45 1 1 1h3c.55 0 1-.45 1-1v-2.05l4-4.2 4 4.2V20c0 .55.45 1 1 1h3c.55 0 1-.45 1-1v-3c0-.55-.45-1-1-1h-3z"/></symbol>
<symbol id="device_unknown" viewBox="0 0 24 24"><path d="M17 1H7c-1.1 0-2 .9-2 2v18c0 1.1.9 2 2 2h10c1.1 0 2-.9 2-2V3c0-1.1-.9-2-2-2zm0 18H7V5h10v14zm-6-3h2v2h-2zm-1.48-5.81h.13c.33 0 .59-.23.7-.54.24-.69.91-1.21 1.66-1.21.93 0 1.75.82 1.75 1.75 0 1.32-1.49 1.55-2.23 2.82h-.01c-.08.14-.14.29-.2.45-.01.02-.02.03-.02.05-.01.02-.01.04-.01.05-.1.31-.16.66-.16 1.08h1.76c0-.25.04-.47.12-.67.54-1.47 2.77-1.86 2.48-4.18-.19-1.55-1.43-2.84-2.98-3.04-1.77-.23-3.29.78-3.81 2.3-.2.56.23 1.14.82 1.14z"/></symbol>
<symbol id="dock" viewBox="0 0 24 24"><path d="M9 23h6c.55 0 1-.45 1-1s-.45-1-1-1H9c-.55 0-1 .45-1 1s.45 1 1 1zm7-21.99L8 1c-1.1 0-2 .9-2 2v14c0 1.1.9 2 2 2h8c1.1 0 2-.9 2-2V3c0-1.1-.9-1.99-2-1.99zM16 15H8V5h8v10z"/></symbol>
<symbol id="gamepad" viewBox="0 0 24 24"><path d="M15 7.29V3c0-.55-.45-1-1-1h-4c-.55 0-1 .45-1 1v4.29c0 .13.05.26.15.35l2.5 2.5c.2.2.51.2.71 0l2.5-2.5c.09-.09.14-.21.14-.35zM7.29 9H3c-.55 0-1 .45-1 1v4c0 .55.45 1 1 1h4.29c.13 0 .26-.05.35-.15l2.5-2.5c.2-.2.2-.51 0-.71l-2.5-2.5C7.55 9.05 7.43 9 7.29 9zM9 16.71V21c0 .55.45 1 1 1h4c.55 0 1-.45 1-1v-4.29c0-.13-.05-.26-.15-.35l-2.5-2.5c-.2-.2-.51-.2-.71 0l-2.5 2.5c-.09.09-.14.21-.14.35zm7.35-7.56l-2.5 2.5c-.2.2-.2.51 0 .71l2.5 2.5c.09.09.22.15.35.15H21c.55 0 1-.45 1-1v-4c0-.55-.45-1-1-1h-4.29c-.14-.01-.26.04-.36.14z"/></symbol>
<symbol id="headset" viewBox="0 0 24 24"><path d="M11.4 1.02C6.62 1.33 3 5.52 3 10.31V17c0 1.66 1.34 3 3 3h1c1.1 0 2-.9 2-2v-4c0-1.1-.9-2-2-2H5v-1.71C5 6.45 7.96 3.11 11.79 3 15.76 2.89 19 6.06 19 10v2h-2c-1.1 0-2 .9-2 2v4c0 1.1.9 2 2 2h1c1.66 0 3-1.34 3-3v-7c0-5.17-4.36-9.32-9.6-8.98z"/></symbol>
<symbol id="headset_mic" viewBox="0 0 24 24"><path d="M11.4 1.02C6.62 1.33 3 5.52 3 10.31V17c0 1.66 1.34 3 3 3h1c1.1 0 2-.9 2-2v-4c0-1.1-.9-2-2-2H5v-1.71C5 6.45 7.96 3.11 11.79 3 15.76 2.89 19 6.06 19 10v2h-2c-1.1 0-2 .9-2 2v4c0 1.1.9 2 2 2h2v1h-6c-.55 0-1 .45-1 1s.45 1 1 1h5c1.66 0 3-1.34 3-3V10c0-5.17-4.36-9.32-9.6-8.98z"/></symbol>
<symbol id="keyboard" viewBox="0 0 24 24"><path d="M20 5H4c-1.1 0-1.99.9-1.99 2L2 17c0 1.1.9 2 2 2h16c1.1 0 2-.9 2-2V7c0-1.1-.9-2-2-2zm-9 3h2v2h-2V8zm0 3h2v2h-2v-2zM8 8h2v2H8V8zm0 3h2v2H8v-2zm-1 2H5v-2h2v2zm0-3H5V8h2v2zm8 7H9c-.55 0-1-.45-1-1s.45-1 1-1h6c.55 0 1 .45 1 1s-.45 1-1 1zm1-4h-2v-2h2v2zm0-3h-2V8h2v2zm3 3h-2v-2h2v2zm0-3h-2V8h2v2z"/></symbol>
<symbol id="keyboard_arrow_down" viewBox="0 0 24 24"><path d="M8.12 9.29L12 13.17l3.88-3.88c.39-.39 1.02-.39 1.41 0 .39.39.39 1.02 0 1.41l-4.59 4.59c-.39.39-1.02.39-1.41 0L6.7 10.7c-.39-.39-.39-1.02 0-1.41.39-.38 1.03-.39 1.42 0z"/></symbol>
<symbol id="keyboard_arrow_left" viewBox="0 0 24 24"><path d="M14.71 15.88L10.83 12l3.88-3.88c.39-.39.39-1.02 0-1.41-.39-.39-1.02-.39-1.41 0L8.71 11.3c-.39.39-.39 1.02 0 1.41l4.59 4.59c.39.39 1.02.39 1.41 0 .38-.39.39-1.03 0-1.42z"/></symbol>
<symbol id="keyboard_arrow_right" viewBox="0 0 24 24"><path d="M9.29 15.88L13.17 12 9.29 8.12c-.39-.39-.39-1.02 0-1.41.39-.39 1.02-.39 1.41 0l4.59 4.59c.39.39.39 1.02 0 1.41L10.7 17.3c-.39.39-1.02.39-1.41 0-.38-.39-.39-1.03 0-1.42z"/></symbol>
<symbol id="keyboard_arrow_up" viewBox="0 0 24 24"><path d="M8.12 14.71L12 10.83l3.88 3.88c.39.39 1.02.39 1.41 0 .39-.39.39-1.02 0-1.41L12.7 8.71c-.39-.39-1.02-.39-1.41 0L6.7 13.3c-.39.39-.39 1.02 0 1.41.39.38 1.03.39 1.42 0z"/></symbol>
<symbol id="keyboard_backspace" viewBox="0 0 24 24"><path d="M20 11H6.83l2.88-2.88c.39-.39.39-1.02 0-1.41-.39-.39-1.02-.39-1.41 0L3.71 11.3c-.39.39-.39 1.02 0 1.41L8.3 17.3c.39.39 1.02.39 1.41 0 .39-.39.39-1.02 0-1.41L6.83 13H20c.55 0 1-.45 1-1s-.45-1-1-1z"/></symbol>
<symbol id="keyboard_capslock" viewBox="0 0 24 24"><path d="M12 8.41l3.89 3.89c.39.39 1.02.39 1.41 0 .39-.39.39-1.02 0-1.41L12.71 6.3c-.39-.39-1.02-.39-1.41 0l-4.6 4.59c-.39.39-.39 1.02 0 1.41.39.39 1.02.39 1.41 0L12 8.41zM7 18h10c.55 0 1-.45 1-1s-.45-1-1-1H7c-.55 0-1 .45-1 1s.45 1 1 1z"/></symbol>
<symbol id="keyboard_hide" viewBox="0 0 24 24"><path d="M20 3H4c-1.1 0-1.99.9-1.99 2L2 15c0 1.1.9 2 2 2h16c1.1 0 2-.9 2-2V5c0-1.1-.9-2-2-2zm-9 3h2v2h-2V6zm0 3h2v2h-2V9zM8 6h2v2H8V6zm0 3h2v2H8V9zm-1 2H5V9h2v2zm0-3H5V6h2v2zm8 7H9c-.55 0-1-.45-1-1s.45-1 1-1h6c.55 0 1 .45 1 1s-.45 1-1 1zm1-4h-2V9h2v2zm0-3h-2V6h2v2zm3 3h-2V9h2v2zm0-3h-2V6h2v2zm-6.65 14.65l2.79-2.79c.31-.31.09-.85-.35-.85H9.21c-.45 0-.67.54-.35.85l2.79 2.79c.19.19.51.19.7 0z"/></symbol>
<symbol id="keyboard_return" viewBox="0 0 24 24"><path d="M19 8v3H5.83l2.88-2.88c.39-.39.39-1.02 0-1.41-.39-.39-1.02-.39-1.41 0L2.71 11.3c-.39.39-.39 1.02 0 1.41L7.3 17.3c.39.39 1.02.39 1.41 0 .39-.39.39-1.02 0-1.41L5.83 13H20c.55 0 1-.45 1-1V8c0-.55-.45-1-1-1s-1 .45-1 1z"/></symbol>
<symbol id="keyboard_tab" viewBox="0 0 24 24"><path d="M12.29 8.12L15.17 11H2c-.55 0-1 .45-1 1s.45 1 1 1h13.17l-2.88 2.88c-.39.39-.39 1.02 0 1.41.39.39 1.02.39 1.41 0l4.59-4.59c.39-.39.39-1.02 0-1.41L13.7 6.7c-.39-.39-1.02-.39-1.41 0-.38.39-.39 1.03 0 1.42zM20 7v10c0 .55.45 1 1 1s1-.45 1-1V7c0-.55-.45-1-1-1s-1 .45-1 1z"/></symbol>
<symbol id="keyboard_voice" viewBox="0 0 24 24"><path d="M12 15c1.66 0 2.99-1.34 2.99-3L15 6c0-1.66-1.34-3-3-3S9 4.34 9 6v6c0 1.66 1.34 3 3 3zm6.08-3c-.42 0-.77.3-.83.71-.37 2.61-2.72 4.39-5.25 4.39s-4.88-1.77-5.25-4.39c-.06-.41-.42-.71-.83-.71-.52 0-.92.46-.85.97.46 2.97 2.96 5.3 5.93 5.75V21c0 .55.45 1 1 1s1-.45 1-1v-2.28c2.96-.43 5.47-2.78 5.93-5.75.07-.51-.33-.97-.85-.97z"/></symbol>
<symbol id="laptop" viewBox="0 0 24 24"><path d="M20 18c1.1 0 2-.9 2-2V6c0-1.1-.9-2-2-2H4c-1.1 0-2 .9-2 2v10c0 1.1.9 2 2 2H1c-.55 0-1 .45-1 1s.45 1 1 1h22c.55 0 1-.45 1-1s-.45-1-1-1h-3zM5 6h14c.55 0 1 .45 1 1v8c0 .55-.45 1-1 1H5c-.55 0-1-.45-1-1V7c0-.55.45-1 1-1z"/></symbol>
<symbol id="laptop_chromebook" viewBox="0 0 24 24"><path d="M23 18h-1V5c0-1.1-.9-2-2-2H4c-1.1 0-2 .9-2 2v13H1c-.55 0-1 .45-1 1s.45 1 1 1h22c.55 0 1-.45 1-1s-.45-1-1-1zm-9.5 0h-3c-.28 0-.5-.22-.5-.5s.22-.5.5-.5h3c.28 0 .5.22.5.5s-.22.5-.5.5zm6.5-3H4V6c0-.55.45-1 1-1h14c.55 0 1 .45 1 1v9z"/></symbol>
<symbol id="laptop_mac" viewBox="0 0 24 24"><path d="M20 18c1.1 0 1.99-.9 1.99-2L22 5c0-1.1-.9-2-2-2H4c-1.1 0-2 .9-2 2v11c0 1.1.9 2 2 2H0c0 1.1.9 2 2 2h20c1.1 0 2-.9 2-2h-4zM5 5h14c.55 0 1 .45 1 1v9c0 .55-.45 1-1 1H5c-.55 0-1-.45-1-1V6c0-.55.45-1 1-1zm7 14c-.55 0-1-.45-1-1s.45-1 1-1 1 .45 1 1-.45 1-1 1z"/></symbol>
<symbol id="laptop_windows" viewBox="0 0 24 24"><path d="M20 18v-1c1.1 0 1.99-.9 1.99-2L22 5c0-1.1-.9-2-2-2H4c-1.1 0-2 .9-2 2v10c0 1.1.9 2 2 2v1H1c-.55 0-1 .45-1 1s.45 1 1 1h22c.55 0 1-.45 1-1s-.45-1-1-1h-3zM5 5h14c.55 0 1 .45 1 1v8c0 .55-.45 1-1 1H5c-.55 0-1-.45-1-1V6c0-.55.45-1 1-1z"/></symbol>
<symbol id="memory" viewBox="0 0 24 24"><path d="M14 9h-4c-.55 0-1 .45-1 1v4c0 .55.45 1 1 1h4c.55 0 1-.45 1-1v-4c0-.55-.45-1-1-1zm-1 4h-2v-2h2v2zm8-3c0-.55-.45-1-1-1h-1V7c0-1.1-.9-2-2-2h-2V4c0-.55-.45-1-1-1s-1 .45-1 1v1h-2V4c0-.55-.45-1-1-1s-1 .45-1 1v1H7c-1.1 0-2 .9-2 2v2H4c-.55 0-1 .45-1 1s.45 1 1 1h1v2H4c-.55 0-1 .45-1 1s.45 1 1 1h1v2c0 1.1.9 2 2 2h2v1c0 .55.45 1 1 1s1-.45 1-1v-1h2v1c0 .55.45 1 1 1s1-.45 1-1v-1h2c1.1 0 2-.9 2-2v-2h1c.55 0 1-.45 1-1s-.45-1-1-1h-1v-2h1c.55 0 1-.45 1-1zm-5 7H8c-.55 0-1-.45-1-1V8c0-.55.45-1 1-1h8c.55 0 1 .45 1 1v8c0 .55-.45 1-1 1z"/></symbol>
<symbol id="mouse" viewBox="0 0 24 24"><path d="M13 1.07V9h7c0-4.08-3.05-7.44-7-7.93zM4 15c0 4.42 3.58 8 8 8s8-3.58 8-8v-4H4v4zm7-13.93C7.05 1.56 4 4.92 4 9h7V1.07z"/></symbol>
<symbol id="phonelink" viewBox="0 0 24 24"><path d="M4 7c0-.55.45-1 1-1h16c.55 0 1-.45 1-1s-.45-1-1-1H4c-1.1 0-2 .9-2 2v11h-.5c-.83 0-1.5.67-1.5 1.5S.67 20 1.5 20h11c.83 0 1.5-.67 1.5-1.5s-.67-1.5-1.5-1.5H4V7zm19 1h-6c-.55 0-1 .45-1 1v10c0 .55.45 1 1 1h6c.55 0 1-.45 1-1V9c0-.55-.45-1-1-1zm-1 9h-4v-7h4v7z"/></symbol>
<symbol id="phonelink_off" viewBox="0 0 24 24"><path d="M24 19V9c0-.55-.45-1-1-1h-6c-.55 0-1 .45-1 1v3.61l2 2V10h4v7h-1.61l2.93 2.93c.39-.13.68-.49.68-.93zM21 6c.55 0 1-.45 1-1s-.45-1-1-1H7.39l2 2H21zM1.36 2.21c-.39.39-.39 1.02 0 1.41l1.11 1.11C2.18 5.08 2 5.52 2 6v11h-.5c-.83 0-1.5.67-1.5 1.5S.67 20 1.5 20h16.23l1.64 1.64c.39.39 1.02.39 1.41 0 .39-.39.39-1.02 0-1.41L2.77 2.21c-.39-.39-1.02-.39-1.41 0zM4 17V6.27L14.73 17H4z"/></symbol>
<symbol id="phone_android" viewBox="0 0 24 24"><path d="M16 1H8C6.34 1 5 2.34 5 4v16c0 1.66 1.34 3 3 3h8c1.66 0 3-1.34 3-3V4c0-1.66-1.34-3-3-3zm-2.5 20h-3c-.28 0-.5-.22-.5-.5s.22-.5.5-.5h3c.28 0 .5.22.5.5s-.22.5-.5.5zm3.5-3H7V4h10v14z"/></symbol>
<symbol id="phone_iphone" viewBox="0 0 24 24"><path d="M15.5 1h-8C6.12 1 5 2.12 5 3.5v17C5 21.88 6.12 23 7.5 23h8c1.38 0 2.5-1.12 2.5-2.5v-17C18 2.12 16.88 1 15.5 1zm-4 21c-.83 0-1.5-.67-1.5-1.5s.67-1.5 1.5-1.5 1.5.67 1.5 1.5-.67 1.5-1.5 1.5zm4.5-4H7V4h9v14z"/></symbol>
<symbol id="point_of_sale" viewBox="0 0 24 24"><g><rect fill="none" height="24" width="24"/><path d="M17,2H7C5.9,2,5,2.9,5,4v2c0,1.1,0.9,2,2,2h10c1.1,0,2-0.9,2-2V4C19,2.9,18.1,2,17,2z M16.5,6h-9C7.22,6,7,5.78,7,5.5v-1 C7,4.22,7.22,4,7.5,4h9C16.78,4,17,4.22,17,4.5v1C17,5.78,16.78,6,16.5,6z M20,22H4c-1.1,0-2-0.9-2-2v-1h20v1 C22,21.1,21.1,22,20,22z M18.53,10.19C18.21,9.47,17.49,9,16.7,9H7.3c-0.79,0-1.51,0.47-1.83,1.19L2,18h20L18.53,10.19z M9.5,16h-1 C8.22,16,8,15.78,8,15.5C8,15.22,8.22,15,8.5,15h1c0.28,0,0.5,0.22,0.5,0.5C10,15.78,9.78,16,9.5,16z M9.5,14h-1 C8.22,14,8,13.78,8,13.5C8,13.22,8.22,13,8.5,13h1c0.28,0,0.5,0.22,0.5,0.5C10,13.78,9.78,14,9.5,14z M9.5,12h-1 C8.22,12,8,11.78,8,11.5C8,11.22,8.22,11,8.5,11h1c0.28,0,0.5,0.22,0.5,0.5C10,11.78,9.78,12,9.5,12z M12.5,16h-1 c-0.28,0-0.5-0.22-0.5-0.5c0-0.28,0.22-0.5,0.5-0.5h1c0.28,0,0.5,0.22,0.5,0.5C13,15.78,12.78,16,12.5,16z M12.5,14h-1 c-0.28,0-0.5-0.22-0.5-0.5c0-0.28,0.22-0.5,0.5-0.5h1c0.28,0,0.5,0.22,0.5,0.5C13,13.78,12.78,14,12.5,14z M12.5,12h-1 c-0.28,0-0.5-0.22-0.5-0.5c0-0.28,0.22-0.5,0.5-0.5h1c0.28,0,0.5,0.22,0.5,0.5C13,11.78,12.78,12,12.5,12z M15.5,16h-1 c-0.28,0-0.5-0.22-0.5-0.5c0-0.28,0.22-0.5,0.5-0.5h1c0.28,0,0.5,0.22,0.5,0.5C16,15.78,15.78,16,15.5,16z M15.5,14h-1 c-0.28,0-0.5-0.22-0.5-0.5c0-0.28,0.22-0.5,0.5-0.5h1c0.28,0,0.5,0.22,0.5,0.5C16,13.78,15.78,14,15.5,14z M15.5,12h-1 c-0.28,0-0.5-0.22-0.5-0.5c0-0.28,0.22-0.5,0.5-0.5h1c0.28,0,0.5,0.22,0.5,0.5C16,11.78,15.78,12,15.5,12z"/></g></symbol>
<symbol id="power_input" viewBox="0 0 24 24"><path d="M2 10c0 .55.45 1 1 1h17c.55 0 1-.45 1-1s-.45-1-1-1H3c-.55 0-1 .45-1 1zm1 5h3c.55 0 1-.45 1-1s-.45-1-1-1H3c-.55 0-1 .45-1 1s.45 1 1 1zm7 0h3c.55 0 1-.45 1-1s-.45-1-1-1h-3c-.55 0-1 .45-1 1s.45 1 1 1zm7 0h3c.55 0 1-.45 1-1s-.45-1-1-1h-3c-.55 0-1 .45-1 1s.45 1 1 1z"/></symbol>
<symbol id="router" viewBox="0 0 24 24"><path d="M11.45 5.55c.19.19.5.21.72.04C13.3 4.69 14.65 4.2 16 4.2s2.7.49 3.84 1.39c.21.17.52.15.72-.04l.04-.05c.22-.22.21-.59-.03-.8C19.24 3.57 17.62 3 16 3s-3.24.57-4.57 1.7c-.24.21-.26.57-.03.8l.05.05zm1.7.76c-.25.2-.26.58-.04.8l.04.04c.2.2.5.2.72.04.63-.48 1.38-.69 2.13-.69s1.5.21 2.13.68c.22.17.53.16.72-.04l.04-.04c.23-.23.21-.6-.04-.8-.83-.64-1.84-1-2.85-1s-2.02.36-2.85 1.01zM19 13h-2v-3c0-.55-.45-1-1-1s-1 .45-1 1v3H5c-1.1 0-2 .9-2 2v4c0 1.1.9 2 2 2h14c1.1 0 2-.9 2-2v-4c0-1.1-.9-2-2-2zM8 18H6v-2h2v2zm3.5 0h-2v-2h2v2zm3.5 0h-2v-2h2v2z"/></symbol>
<symbol id="scanner" viewBox="0 0 24 24"><path d="M19.8 10.7L5.15 5.35c-.52-.19-1.1.08-1.3.6-.19.53.08 1.11.6 1.3L17.6 12H5c-1.1 0-2 .9-2 2v4c0 1.1.9 2 2 2h14c1.1 0 2-.9 2-2v-5.5c0-.8-.5-1.6-1.2-1.8zM7 17H5v-2h2v2zm11 0h-8c-.55 0-1-.45-1-1s.45-1 1-1h8c.55 0 1 .45 1 1s-.45 1-1 1z"/></symbol>
<symbol id="security" viewBox="0 0 24 24"><path d="M11.19 1.36l-7 3.11C3.47 4.79 3 5.51 3 6.3V11c0 5.55 3.84 10.74 9 12 5.16-1.26 9-6.45 9-12V6.3c0-.79-.47-1.51-1.19-1.83l-7-3.11c-.51-.23-1.11-.23-1.62 0zM12 11.99h7c-.53 4.12-3.28 7.79-7 8.94V12H5V6.3l7-3.11v8.8z"/></symbol>
<symbol id="sim_card" viewBox="0 0 24 24"><path d="M19.99 4c0-1.1-.89-2-1.99-2h-7.17c-.53 0-1.04.21-1.42.59L4.59 7.41C4.21 7.79 4 8.3 4 8.83V20c0 1.1.9 2 2 2h12.01c1.1 0 1.99-.9 1.99-2l-.01-16zM8 19c-.55 0-1-.45-1-1s.45-1 1-1 1 .45 1 1-.45 1-1 1zm8 0c-.55 0-1-.45-1-1s.45-1 1-1 1 .45 1 1-.45 1-1 1zm-8-4c-.55 0-1-.45-1-1v-2c0-.55.45-1 1-1s1 .45 1 1v2c0 .55-.45 1-1 1zm4 4c-.55 0-1-.45-1-1v-2c0-.55.45-1 1-1s1 .45 1 1v2c0 .55-.45 1-1 1zm0-6c-.55 0-1-.45-1-1s.45-1 1-1 1 .45 1 1-.45 1-1 1zm4 2c-.55 0-1-.45-1-1v-2c0-.55.45-1 1-1s1 .45 1 1v2c0 .55-.45 1-1 1z"/></symbol>
<symbol id="smartphone" viewBox="0 0 24 24"><path d="M17 1.01L7 1c-1.1 0-2 .9-2 2v18c0 1.1.9 2 2 2h10c1.1 0 2-.9 2-2V3c0-1.1-.9-1.99-2-1.99zM17 19H7V5h10v14z"/></symbol>
<symbol id="speaker" viewBox="0 0 24 24"><path d="M17 2H7c-1.1 0-2 .9-2 2v16c0 1.1.9 1.99 2 1.99L17 22c1.1 0 2-.9 2-2V4c0-1.1-.9-2-2-2zm-5 2c1.1 0 2 .9 2 2s-.9 2-2 2c-1.11 0-2-.9-2-2s.89-2 2-2zm0 16c-2.76 0-5-2.24-5-5s2.24-5 5-5 5 2.24 5 5-2.24 5-5 5zm0-8c-1.66 0-3 1.34-3 3s1.34 3 3 3 3-1.34 3-3-1.34-3-3-3z"/></symbol>
<symbol id="speaker_group" viewBox="0 0 24 24"><path d="M18.2 1H9.8C8.81 1 8 1.81 8 2.8v14.4c0 .99.81 1.79 1.8 1.79l8.4.01c.99 0 1.8-.81 1.8-1.8V2.8c0-.99-.81-1.8-1.8-1.8zM14 3c1.1 0 2 .89 2 2s-.9 2-2 2-2-.89-2-2 .9-2 2-2zm0 13.5c-2.21 0-4-1.79-4-4s1.79-4 4-4 4 1.79 4 4-1.79 4-4 4z"/><circle cx="14" cy="12.5" r="2.5"/><path d="M5 5c-.55 0-1 .45-1 1v15c0 1.1.89 2 2 2h9c.55 0 1-.45 1-1s-.45-1-1-1H7c-.55 0-1-.45-1-1V6c0-.55-.45-1-1-1z"/></symbol>
<symbol id="tablet" viewBox="0 0 24 24"><path d="M21 4H3c-1.1 0-2 .9-2 2v12c0 1.1.9 2 2 2h18c1.1 0 1.99-.9 1.99-2L23 6c0-1.1-.9-2-2-2zm-2 14H5V6h14v12z"/></symbol>
<symbol id="tablet_android" viewBox="0 0 24 24"><path d="M18 0H6C4.34 0 3 1.34 3 3v18c0 1.66 1.34 3 3 3h12c1.66 0 3-1.34 3-3V3c0-1.66-1.34-3-3-3zm-4.5 22h-3c-.28 0-.5-.22-.5-.5s.22-.5.5-.5h3c.28 0 .5.22.5.5s-.22.5-.5.5zm5.75-3H4.75V3h14.5v16z"/></symbol>
<symbol id="tablet_mac" viewBox="0 0 24 24"><path d="M18.5 0h-14C3.12 0 2 1.12 2 2.5v19C2 22.88 3.12 24 4.5 24h14c1.38 0 2.5-1.12 2.5-2.5v-19C21 1.12 19.88 0 18.5 0zm-7 23c-.83 0-1.5-.67-1.5-1.5s.67-1.5 1.5-1.5 1.5.67 1.5 1.5-.67 1.5-1.5 1.5zm7.5-4H4V3h15v16z"/></symbol>
<symbol id="toys" viewBox="0 0 24 24"><path d="M12 12c0-3 2.5-5.5 5.5-5.5 2.57 0 4.77 1.83 5.35 4.24.15.64-.32 1.26-.97 1.26H12zm0 0c0 3-2.5 5.5-5.5 5.5-2.57 0-4.77-1.83-5.35-4.24-.15-.64.32-1.26.97-1.26H12zm0 0c-3 0-5.5-2.5-5.5-5.5 0-2.57 1.83-4.77 4.24-5.35.64-.15 1.26.32 1.26.97V12zm0 0c3 0 5.5 2.5 5.5 5.5 0 2.57-1.83 4.77-4.24 5.35-.64.15-1.26-.32-1.26-.97V12z"/></symbol>
<symbol id="tv" viewBox="0 0 24 24"><path d="M21 3H3c-1.1 0-2 .9-2 2v12c0 1.1.9 2 2 2h5v1c0 .55.45 1 1 1h6c.55 0 1-.45 1-1v-1h5c1.1 0 1.99-.9 1.99-2L23 5c0-1.1-.9-2-2-2zm-1 14H4c-.55 0-1-.45-1-1V6c0-.55.45-1 1-1h16c.55 0 1 .45 1 1v10c0 .55-.45 1-1 1z"/></symbol>
<symbol id="videogame_asset" viewBox="0 0 24 24"><path d="M21 6H3c-1.1 0-2 .9-2 2v8c0 1.1.9 2 2 2h18c1.1 0 2-.9 2-2V8c0-1.1-.9-2-2-2zm-11 7H8v2c0 .55-.45 1-1 1s-1-.45-1-1v-2H4c-.55 0-1-.45-1-1s.45-1 1-1h2V9c0-.55.45-1 1-1s1 .45 1 1v2h2c.55 0 1 .45 1 1s-.45 1-1 1zm5.5 2c-.83 0-1.5-.67-1.5-1.5s.67-1.5 1.5-1.5 1.5.67 1.5 1.5-.67 1.5-1.5 1.5zm4-3c-.83 0-1.5-.67-1.5-1.5S18.67 9 19.5 9s1.5.67 1.5 1.5-.67 1.5-1.5 1.5z"/></symbol>
<symbol id="watch" viewBox="0 0 24 24"><path d="M20 12c0-2.54-1.19-4.81-3.04-6.27l-.68-4.06C16.12.71 15.28 0 14.31 0H9.7c-.98 0-1.82.71-1.98 1.67l-.67 4.06C5.19 7.19 4 9.45 4 12s1.19 4.81 3.05 6.27l.67 4.06c.16.96 1 1.67 1.98 1.67h4.61c.98 0 1.81-.71 1.97-1.67l.68-4.06C18.81 16.81 20 14.54 20 12zM6 12c0-3.31 2.69-6 6-6s6 2.69 6 6-2.69 6-6 6-6-2.69-6-6z"/></symbol>
</svg>