<svg xmlns="http://www.w3.org/2000/svg">
<symbol id="sensor_door" viewBox="0 0 24 24"><g><rect fill="none" height="24" width="24"/><path d="M18,2H6C4.9,2,4,2.9,4,4v16c0,1.1,0.9,2,2,2h12c1.1,0,2-0.9,2-2V4C20,2.9,19.1,2,18,2z M15.5,13.5 c-0.83,0-1.5-0.67-1.5-1.5s0.67-1.5,1.5-1.5S17,11.17,17,12S16.33,13.5,15.5,13.5z"/></g></symbol>
<symbol id="sensor_window" viewBox="0 0 24 24"><g><rect fill="none" height="24" width="24"/><path d="M18,4v16H6V4H18 M18,2H6C4.9,2,4,2.9,4,4v16c0,1.1,0.9,2,2,2h12c1.1,0,2-0.9,2-2V4C20,2.9,19.1,2,18,2L18,2z M7,19h10v-6H7 V19z M10,10h4v1h3V5H7v6h3V10z"/></g></symbol>
</svg>