<svg xmlns="http://www.w3.org/2000/svg">
<symbol id="add_a_photo" viewBox="0 0 24 24"><path d="M0 0h24v24H0z" fill="none"/><path d="M3 8c0 .55.45 1 1 1s1-.45 1-1V6h2c.55 0 1-.45 1-1s-.45-1-1-1H5V2c0-.55-.45-1-1-1s-1 .45-1 1v2H1c-.55 0-1 .45-1 1s.45 1 1 1h2v2z"/><circle cx="13" cy="14" r="3"/><path d="M21 6h-3.17l-1.24-1.35c-.37-.41-.91-.65-1.47-.65h-6.4c.17.3.28.63.28 1 0 1.1-.9 2-2 2H6v1c0 1.1-.9 2-2 2-.37 0-.7-.11-1-.28V20c0 1.1.9 2 2 2h16c1.1 0 2-.9 2-2V8c0-1.1-.9-2-2-2zm-8 13c-2.76 0-5-2.24-5-5s2.24-5 5-5 5 2.24 5 5-2.24 5-5 5z"/></symbol>
<symbol id="add_photo_alternate" viewBox="0 0 24 24"><path d="M0 0h24v24H0V0z" fill="none"/><path d="M21.02 5H19V2.98c0-.54-.44-.98-.98-.98h-.03c-.55 0-.99.44-.99.98V5h-2.01c-.54 0-.98.44-.99.98v.03c0 .55.44.99.99.99H17v2.01c0 .54.44.99.99.98h.03c.54 0 .98-.44.98-.98V7h2.02c.54 0 .98-.44.98-.98v-.04c0-.54-.44-.98-.98-.98zM16 9.01V8h-1.01c-.53 0-1.03-.21-1.41-.58-.37-.38-.58-.88-.58-1.44 0-.36.1-.69.27-.98H5c-1.1 0-2 .9-2 2v12c0 1.1.9 2 2 2h12c1.1 0 2-.9 2-2v-8.28c-.3.17-.64.28-1.02.28-1.09-.01-1.98-.9-1.98-1.99zM15.96 19H6c-.41 0-.65-.47-.4-.8l1.98-2.63c.21-.28.62-.26.82.02L10 18l2.61-3.48c.2-.26.59-.27.79-.01l2.95 3.68c.26.33.03.81-.39.81z"/></symbol>
<symbol id="add_to_photos" viewBox="0 0 24 24"><path d="M0 0h24v24H0V0z" fill="none"/><path d="M3 6c-.55 0-1 .45-1 1v13c0 1.1.9 2 2 2h13c.55 0 1-.45 1-1s-.45-1-1-1H5c-.55 0-1-.45-1-1V7c0-.55-.45-1-1-1zm17-4H8c-1.1 0-2 .9-2 2v12c0 1.1.9 2 2 2h12c1.1 0 2-.9 2-2V4c0-1.1-.9-2-2-2zm-2 9h-3v3c0 .55-.45 1-1 1s-1-.45-1-1v-3h-3c-.55 0-1-.45-1-1s.45-1 1-1h3V6c0-.55.45-1 1-1s1 .45 1 1v3h3c.55 0 1 .45 1 1s-.45 1-1 1z"/></symbol>
<symbol id="adjust" viewBox="0 0 24 24"><path d="M0 0h24v24H0V0z" fill="none"/><path d="M12 2C6.49 2 2 6.49 2 12s4.49 10 10 10 10-4.49 10-10S17.51 2 12 2zm0 18c-4.41 0-8-3.59-8-8s3.59-8 8-8 8 3.59 8 8-3.59 8-8 8zm3-8c0 1.66-1.34 3-3 3s-3-1.34-3-3 1.34-3 3-3 3 1.34 3 3z"/></symbol>
<symbol id="assistant" viewBox="0 0 24 24"><path d="M0 0h24v24H0V0z" fill="none"/><path d="M19 2H5c-1.1 0-2 .9-2 2v14c0 1.1.9 2 2 2h4l2.29 2.29c.39.39 1.02.39 1.41 0L15 20h4c1.1 0 2-.9 2-2V4c0-1.1-.9-2-2-2zm-5.12 10.88L12 17l-1.88-4.12L6 11l4.12-1.88L12 5l1.88 4.12L18 11l-4.12 1.88z"/></symbol>
<symbol id="assistant_photo" viewBox="0 0 24 24"><path d="M0 0h24v24H0V0z" fill="none"/><path d="M14.4 6l-.24-1.2c-.09-.46-.5-.8-.98-.8H6c-.55 0-1 .45-1 1v15c0 .55.45 1 1 1s1-.45 1-1v-6h5.6l.24 1.2c.09.47.5.8.98.8H19c.55 0 1-.45 1-1V7c0-.55-.45-1-1-1h-4.6z"/></symbol>
<symbol id="audiotrack" viewBox="0 0 24 24"><path d="M0 0h24v24H0V0z" fill="none"/><path d="M12 5v8.55c-.94-.54-2.1-.75-3.33-.32-1.34.48-2.37 1.67-2.61 3.07-.46 2.74 1.86 5.08 4.59 4.65 1.96-.31 3.35-2.11 3.35-4.1V7h2c1.1 0 2-.9 2-2s-.9-2-2-2h-2c-1.1 0-2 .9-2 2z"/></symbol>
<symbol id="bedtime" viewBox="0 0 24 24"><g><rect fill="none" height="24" width="24"/><rect fill="none" height="24" width="24"/></g><g><g><path d="M11.97,2.73c0.16-0.34-0.12-0.72-0.5-0.7C5.47,2.33,1,7.86,2.19,13.99c0.78,4.03,4.09,7.22,8.14,7.87 c4.07,0.66,7.77-1.14,9.87-4.15c0.21-0.31,0.04-0.75-0.33-0.79C13.13,16.16,9,8.96,11.97,2.73z"/></g></g></symbol>
<symbol id="blur_circular" viewBox="0 0 24 24"><path d="M0 0h24v24H0V0z" fill="none"/><path d="M10 9c-.55 0-1 .45-1 1s.45 1 1 1 1-.45 1-1-.45-1-1-1zm0 4c-.55 0-1 .45-1 1s.45 1 1 1 1-.45 1-1-.45-1-1-1zM7 9.5c-.28 0-.5.22-.5.5s.22.5.5.5.5-.22.5-.5-.22-.5-.5-.5zm3 7c-.28 0-.5.22-.5.5s.22.5.5.5.5-.22.5-.5-.22-.5-.5-.5zm-3-3c-.28 0-.5.22-.5.5s.22.5.5.5.5-.22.5-.5-.22-.5-.5-.5zm3-6c.28 0 .5-.22.5-.5s-.22-.5-.5-.5-.5.22-.5.5.22.5.5.5zM14 9c-.55 0-1 .45-1 1s.45 1 1 1 1-.45 1-1-.45-1-1-1zm0-1.5c.28 0 .5-.22.5-.5s-.22-.5-.5-.5-.5.22-.5.5.22.5.5.5zm3 6c-.28 0-.5.22-.5.5s.22.5.5.5.5-.22.5-.5-.22-.5-.5-.5zm0-4c-.28 0-.5.22-.5.5s.22.5.5.5.5-.22.5-.5-.22-.5-.5-.5zM12 2C6.48 2 2 6.48 2 12s4.48 10 10 10 10-4.48 10-10S17.52 2 12 2zm0 18c-4.42 0-8-3.58-8-8s3.58-8 8-8 8 3.58 8 8-3.58 8-8 8zm2-3.5c-.28 0-.5.22-.5.5s.22.5.5.5.5-.22.5-.5-.22-.5-.5-.5zm0-3.5c-.55 0-1 .45-1 1s.45 1 1 1 1-.45 1-1-.45-1-1-1z"/></symbol>
<symbol id="blur_linear" viewBox="0 0 24 24"><path d="M0 0h24v24H0V0z" fill="none"/><path d="M5 17.5c.83 0 1.5-.67 1.5-1.5s-.67-1.5-1.5-1.5-1.5.67-1.5 1.5.67 1.5 1.5 1.5zM9 13c.55 0 1-.45 1-1s-.45-1-1-1-1 .45-1 1 .45 1 1 1zm0-4c.55 0 1-.45 1-1s-.45-1-1-1-1 .45-1 1 .45 1 1 1zM4 21h16c.55 0 1-.45 1-1s-.45-1-1-1H4c-.55 0-1 .45-1 1s.45 1 1 1zM5 9.5c.83 0 1.5-.67 1.5-1.5S5.83 6.5 5 6.5 3.5 7.17 3.5 8 4.17 9.5 5 9.5zm0 4c.83 0 1.5-.67 1.5-1.5s-.67-1.5-1.5-1.5-1.5.67-1.5 1.5.67 1.5 1.5 1.5zM9 17c.55 0 1-.45 1-1s-.45-1-1-1-1 .45-1 1 .45 1 1 1zm8-.5c.28 0 .5-.22.5-.5s-.22-.5-.5-.5-.5.22-.5.5.22.5.5.5zM3 4c0 .55.45 1 1 1h16c.55 0 1-.45 1-1s-.45-1-1-1H4c-.55 0-1 .45-1 1zm14 4.5c.28 0 .5-.22.5-.5s-.22-.5-.5-.5-.5.22-.5.5.22.5.5.5zm0 4c.28 0 .5-.22.5-.5s-.22-.5-.5-.5-.5.22-.5.5.22.5.5.5zM13 9c.55 0 1-.45 1-1s-.45-1-1-1-1 .45-1 1 .45 1 1 1zm0 4c.55 0 1-.45 1-1s-.45-1-1-1-1 .45-1 1 .45 1 1 1zm0 4c.55 0 1-.45 1-1s-.45-1-1-1-1 .45-1 1 .45 1 1 1z"/></symbol>
<symbol id="blur_off" viewBox="0 0 24 24"><path d="M0 0h24v24H0V0z" fill="none"/><circle cx="14" cy="6" r="1"/><path d="M13.8 11.48l.2.02c.83 0 1.5-.67 1.5-1.5s-.67-1.5-1.5-1.5-1.5.67-1.5 1.5l.02.2c.09.67.61 1.19 1.28 1.28zM14 3.5c.28 0 .5-.22.5-.5s-.22-.5-.5-.5-.5.22-.5.5.22.5.5.5zm-4 0c.28 0 .5-.22.5-.5s-.22-.5-.5-.5-.5.22-.5.5.22.5.5.5z"/><circle cx="18" cy="10" r="1"/><circle cx="18" cy="6" r="1"/><path d="M21 10.5c.28 0 .5-.22.5-.5s-.22-.5-.5-.5-.5.22-.5.5.22.5.5.5z"/><circle cx="10" cy="6" r="1"/><circle cx="18" cy="14" r="1"/><circle cx="6" cy="18" r="1"/><path d="M14 20.5c-.28 0-.5.22-.5.5s.22.5.5.5.5-.22.5-.5-.22-.5-.5-.5zm7-7c-.28 0-.5.22-.5.5s.22.5.5.5.5-.22.5-.5-.22-.5-.5-.5zm-18 0c-.28 0-.5.22-.5.5s.22.5.5.5.5-.22.5-.5-.22-.5-.5-.5z"/><circle cx="10" cy="18" r="1"/><path d="M3 9.5c-.28 0-.5.22-.5.5s.22.5.5.5.5-.22.5-.5-.22-.5-.5-.5zm7 11c-.28 0-.5.22-.5.5s.22.5.5.5.5-.22.5-.5-.22-.5-.5-.5z"/><circle cx="6" cy="14" r="1"/><path d="M3.21 4.56c-.39.39-.39 1.02 0 1.41l3.07 3.07L6 9c-.55 0-1 .45-1 1s.45 1 1 1 1-.45 1-1c0-.1-.03-.19-.06-.28l2.81 2.81c-.71.11-1.25.73-1.25 1.47 0 .83.67 1.5 1.5 1.5.74 0 1.36-.54 1.47-1.25l2.81 2.81c-.09-.03-.18-.06-.28-.06-.55 0-1 .45-1 1s.45 1 1 1 1-.45 1-1c0-.1-.03-.19-.06-.28l3.08 3.07c.39.39 1.02.39 1.41 0 .39-.39.39-1.02 0-1.42L4.62 4.56c-.39-.39-1.02-.39-1.41 0z"/></symbol>
<symbol id="blur_on" viewBox="0 0 24 24"><path d="M0 0h24v24H0z" fill="none"/><path d="M6 13c-.55 0-1 .45-1 1s.45 1 1 1 1-.45 1-1-.45-1-1-1zm0 4c-.55 0-1 .45-1 1s.45 1 1 1 1-.45 1-1-.45-1-1-1zm0-8c-.55 0-1 .45-1 1s.45 1 1 1 1-.45 1-1-.45-1-1-1zm-3 .5c-.28 0-.5.22-.5.5s.22.5.5.5.5-.22.5-.5-.22-.5-.5-.5zM6 5c-.55 0-1 .45-1 1s.45 1 1 1 1-.45 1-1-.45-1-1-1zm15 5.5c.28 0 .5-.22.5-.5s-.22-.5-.5-.5-.5.22-.5.5.22.5.5.5zM14 7c.55 0 1-.45 1-1s-.45-1-1-1-1 .45-1 1 .45 1 1 1zm0-3.5c.28 0 .5-.22.5-.5s-.22-.5-.5-.5-.5.22-.5.5.22.5.5.5zm-11 10c-.28 0-.5.22-.5.5s.22.5.5.5.5-.22.5-.5-.22-.5-.5-.5zm7 7c-.28 0-.5.22-.5.5s.22.5.5.5.5-.22.5-.5-.22-.5-.5-.5zm0-17c.28 0 .5-.22.5-.5s-.22-.5-.5-.5-.5.22-.5.5.22.5.5.5zM10 7c.55 0 1-.45 1-1s-.45-1-1-1-1 .45-1 1 .45 1 1 1zm0 5.5c-.83 0-1.5.67-1.5 1.5s.67 1.5 1.5 1.5 1.5-.67 1.5-1.5-.67-1.5-1.5-1.5zm8 .5c-.55 0-1 .45-1 1s.45 1 1 1 1-.45 1-1-.45-1-1-1zm0 4c-.55 0-1 .45-1 1s.45 1 1 1 1-.45 1-1-.45-1-1-1zm0-8c-.55 0-1 .45-1 1s.45 1 1 1 1-.45 1-1-.45-1-1-1zm0-4c-.55 0-1 .45-1 1s.45 1 1 1 1-.45 1-1-.45-1-1-1zm3 8.5c-.28 0-.5.22-.5.5s.22.5.5.5.5-.22.5-.5-.22-.5-.5-.5zM14 17c-.55 0-1 .45-1 1s.45 1 1 1 1-.45 1-1-.45-1-1-1zm0 3.5c-.28 0-.5.22-.5.5s.22.5.5.5.5-.22.5-.5-.22-.5-.5-.5zm-4-12c-.83 0-1.5.67-1.5 1.5s.67 1.5 1.5 1.5 1.5-.67 1.5-1.5-.67-1.5-1.5-1.5zm0 8.5c-.55 0-1 .45-1 1s.45 1 1 1 1-.45 1-1-.45-1-1-1zm4-4.5c-.83 0-1.5.67-1.5 1.5s.67 1.5 1.5 1.5 1.5-.67 1.5-1.5-.67-1.5-1.5-1.5zm0-4c-.83 0-1.5.67-1.5 1.5s.67 1.5 1.5 1.5 1.5-.67 1.5-1.5-.67-1.5-1.5-1.5z"/></symbol>
<symbol id="brightness_1" viewBox="0 0 24 24"><path d="M0 0h24v24H0V0z" fill="none"/><circle cx="12" cy="12" r="10"/></symbol>
<symbol id="brightness_2" viewBox="0 0 24 24"><path d="M0 0h24v24H0V0z" fill="none"/><path d="M12.43 2.3c-2.38-.59-4.68-.27-6.63.64-.35.16-.41.64-.1.86C8.3 5.6 10 8.6 10 12c0 3.4-1.7 6.4-4.3 8.2-.32.22-.26.7.09.86 1.28.6 2.71.94 4.21.94 6.05 0 10.85-5.38 9.87-11.6-.61-3.92-3.59-7.16-7.44-8.1z"/></symbol>
<symbol id="brightness_3" viewBox="0 0 24 24"><path d="M0 0h24v24H0V0z" fill="none"/><path d="M18.87 10.37c-.75-4.76-5-8.35-9.82-8.37-.49 0-.97.03-1.44.1-.5.07-.6.73-.14.96C10.75 4.69 13 8.08 13 12s-2.25 7.31-5.53 8.95c-.45.23-.36.89.14.96.47.06.95.09 1.44.09 4.82-.02 9.07-3.61 9.82-8.37.09-.55.11-1.09.11-1.63 0-.54-.02-1.08-.11-1.63z"/></symbol>
<symbol id="brightness_4" viewBox="0 0 24 24"><path d="M0 0h24v24H0V0z" fill="none"/><path d="M22.6 11.29L20 8.69V5c0-.55-.45-1-1-1h-3.69l-2.6-2.6c-.39-.39-1.02-.39-1.41 0L8.69 4H5c-.55 0-1 .45-1 1v3.69l-2.6 2.6c-.39.39-.39 1.02 0 1.41L4 15.3V19c0 .55.45 1 1 1h3.69l2.6 2.6c.39.39 1.02.39 1.41 0l2.6-2.6H19c.55 0 1-.45 1-1v-3.69l2.6-2.6c.39-.39.39-1.03 0-1.42zm-4.68 1.69c-.34 2.12-1.85 3.94-3.88 4.66-1.21.43-2.41.45-3.5.18-.41-.1-.48-.65-.13-.9C11.98 15.84 13 14.04 13 12s-1.02-3.84-2.58-4.92c-.35-.24-.29-.79.13-.9 1.09-.27 2.29-.25 3.5.18 2.02.72 3.54 2.54 3.88 4.66.05.33.07.66.07.98-.01.32-.03.65-.08.98z"/></symbol>
<symbol id="brightness_5" viewBox="0 0 24 24"><path d="M0 0h24v24H0V0z" fill="none"/><path d="M20 15.31l2.6-2.6c.39-.39.39-1.02 0-1.41L20 8.69V5c0-.55-.45-1-1-1h-3.69l-2.6-2.6c-.39-.39-1.02-.39-1.41 0L8.69 4H5c-.55 0-1 .45-1 1v3.69l-2.6 2.6c-.39.39-.39 1.02 0 1.41L4 15.3V19c0 .55.45 1 1 1h3.69l2.6 2.6c.39.39 1.02.39 1.41 0l2.6-2.6H19c.55 0 1-.45 1-1v-3.69zM12 18c-3.31 0-6-2.69-6-6s2.69-6 6-6 6 2.69 6 6-2.69 6-6 6z"/></symbol>
<symbol id="brightness_6" viewBox="0 0 24 24"><path d="M0 0h24v24H0V0z" fill="none"/><path d="M20 15.31l2.6-2.6c.39-.39.39-1.02 0-1.41L20 8.69V5c0-.55-.45-1-1-1h-3.69l-2.6-2.6c-.39-.39-1.02-.39-1.41 0L8.69 4H5c-.55 0-1 .45-1 1v3.69l-2.6 2.6c-.39.39-.39 1.02 0 1.41L4 15.3V19c0 .55.45 1 1 1h3.69l2.6 2.6c.39.39 1.02.39 1.41 0l2.6-2.6H19c.55 0 1-.45 1-1v-3.69zm-8 1.59V7.1c0-.61.55-1.11 1.15-.99C15.91 6.65 18 9.08 18 12s-2.09 5.35-4.85 5.89c-.6.12-1.15-.38-1.15-.99z"/></symbol>
<symbol id="brightness_7" viewBox="0 0 24 24"><path d="M0 0h24v24H0V0z" fill="none"/><path d="M20 8.69V5c0-.55-.45-1-1-1h-3.69l-2.6-2.6c-.39-.39-1.02-.39-1.41 0L8.69 4H5c-.55 0-1 .45-1 1v3.69l-2.6 2.6c-.39.39-.39 1.02 0 1.41L4 15.3V19c0 .55.45 1 1 1h3.69l2.6 2.6c.39.39 1.02.39 1.41 0l2.6-2.6H19c.55 0 1-.45 1-1v-3.69l2.6-2.6c.39-.39.39-1.02 0-1.41L20 8.69zM12 18c-3.31 0-6-2.69-6-6s2.69-6 6-6 6 2.69 6 6-2.69 6-6 6zm0-10c-2.21 0-4 1.79-4 4s1.79 4 4 4 4-1.79 4-4-1.79-4-4-4z"/></symbol>
<symbol id="broken_image" viewBox="0 0 24 24"><path d="M0 0h24v24H0V0z" fill="none"/><path d="M21 5v6.59l-2.29-2.3c-.39-.39-1.03-.39-1.42 0L14 12.59 10.71 9.3c-.39-.39-1.02-.39-1.41 0L6 12.59 3 9.58V5c0-1.1.9-2 2-2h14c1.1 0 2 .9 2 2zm-3 6.42l3 3.01V19c0 1.1-.9 2-2 2H5c-1.1 0-2-.9-2-2v-6.58l2.29 2.29c.39.39 1.02.39 1.41 0l3.3-3.3 3.29 3.29c.39.39 1.02.39 1.41 0l3.3-3.28z"/></symbol>
<symbol id="brush" viewBox="0 0 24 24"><path d="M0 0h24v24H0V0z" fill="none"/><path d="M7 14c-1.66 0-3 1.34-3 3 0 1.31-1.16 2-2 2 .92 1.22 2.49 2 4 2 2.21 0 4-1.79 4-4 0-1.66-1.34-3-3-3zm13.71-9.37l-1.34-1.34c-.39-.39-1.02-.39-1.41 0L9 12.25 11.75 15l8.96-8.96c.39-.39.39-1.02 0-1.41z"/></symbol>
<symbol id="burst_mode" viewBox="0 0 24 24"><path d="M0 0h24v24H0z" fill="none"/><path d="M2 5c.55 0 1 .45 1 1v12c0 .55-.45 1-1 1s-1-.45-1-1V6c0-.55.45-1 1-1zm4 0c.55 0 1 .45 1 1v12c0 .55-.45 1-1 1s-1-.45-1-1V6c0-.55.45-1 1-1zm16 0H10c-.55 0-1 .45-1 1v12c0 .55.45 1 1 1h12c.55 0 1-.45 1-1V6c0-.55-.45-1-1-1zM11.64 16.19l1.47-1.86c.2-.25.57-.25.78-.01l1.4 1.68 2.1-2.71c.2-.26.59-.26.79 0l2.21 2.9c.25.33.02.8-.4.8h-7.96c-.41.01-.65-.47-.39-.8z"/></symbol>
<symbol id="camera" viewBox="0 0 24 24"><path d="M0 0h24v24H0V0z" fill="none"/><path d="M13.81 2.86c.17-.3 0-.7-.35-.74-2.62-.37-5.3.28-7.44 1.86-.19.15-.25.43-.12.65l3.01 5.22c.19.33.67.33.87 0l4.03-6.99zm7.49 5.47c-.98-2.47-2.92-4.46-5.35-5.5-.23-.1-.5 0-.63.22l-3.01 5.21c-.19.32.05.74.44.74h8.08c.35 0 .6-.35.47-.67zm.07 1.67h-6.2c-.38 0-.63.42-.43.75L19 18.14c.17.3.6.35.82.08 1.74-2.18 2.48-5.03 2.05-7.79-.03-.25-.25-.43-.5-.43zM4.18 5.79c-1.73 2.19-2.48 5.02-2.05 7.79.03.24.25.42.5.42h6.2c.38 0 .63-.42.43-.75L5 5.87c-.18-.3-.61-.35-.82-.08zM2.7 15.67c.98 2.47 2.92 4.46 5.35 5.5.23.1.5 0 .63-.22l3.01-5.21c.19-.33-.05-.75-.43-.75H3.17c-.35.01-.6.36-.47.68zm7.83 6.22c2.62.37 5.3-.28 7.44-1.86.2-.15.26-.44.13-.66l-3.01-5.22c-.19-.33-.67-.33-.87 0l-4.04 6.99c-.17.3.01.7.35.75z"/></symbol>
<symbol id="camera_alt" viewBox="0 0 24 24"><path d="M0 0h24v24H0V0z" fill="none"/><circle cx="12" cy="12" r="3"/><path d="M20 4h-3.17l-1.24-1.35c-.37-.41-.91-.65-1.47-.65H9.88c-.56 0-1.1.24-1.48.65L7.17 4H4c-1.1 0-2 .9-2 2v12c0 1.1.9 2 2 2h16c1.1 0 2-.9 2-2V6c0-1.1-.9-2-2-2zm-8 13c-2.76 0-5-2.24-5-5s2.24-5 5-5 5 2.24 5 5-2.24 5-5 5z"/></symbol>
<symbol id="camera_front" viewBox="0 0 24 24"><path d="M0 0h24v24H0V0z" fill="none"/><path d="M17 0H7C5.9 0 5 .9 5 2v14c0 1.1.9 2 2 2h10c1.1 0 2-.9 2-2V2c0-1.1-.9-2-2-2zm0 12.5c0-1.67-3.33-2.5-5-2.5s-5 .83-5 2.5V3c0-.55.45-1 1-1h8c.55 0 1 .45 1 1v9.5zm-6.15 6.35c-.31-.31-.85-.09-.85.36V20H6c-.55 0-1 .45-1 1s.45 1 1 1h4v.79c0 .45.54.67.85.35l1.79-1.79c.2-.2.2-.51 0-.71l-1.79-1.79zM18 20h-3c-.55 0-1 .45-1 1s.45 1 1 1h3c.55 0 1-.45 1-1s-.45-1-1-1zM12 8c1.1 0 2-.9 2-2s-.9-2-2-2-1.99.9-1.99 2S10.9 8 12 8z"/></symbol>
<symbol id="camera_rear" viewBox="0 0 24 24"><path d="M0 0h24v24H0V0z" fill="none"/><path d="M10.85 18.85c-.31-.31-.85-.09-.85.36V20H6c-.55 0-1 .45-1 1s.45 1 1 1h4v.79c0 .45.54.67.85.35l1.79-1.79c.2-.2.2-.51 0-.71l-1.79-1.79zM18 20h-3c-.55 0-1 .45-1 1s.45 1 1 1h3c.55 0 1-.45 1-1s-.45-1-1-1zM17 0H7C5.9 0 5 .9 5 2v14c0 1.1.9 2 2 2h10c1.1 0 2-.9 2-2V2c0-1.1-.9-2-2-2zm-5 6c-1.11 0-2-.9-2-2s.89-2 1.99-2 2 .9 2 2C14 5.1 13.1 6 12 6z"/></symbol>
<symbol id="camera_roll" viewBox="0 0 24 24"><path d="M0 0h24v24H0V0z" fill="none"/><path d="M14 5c0-1.1-.9-2-2-2h-1V2c0-.55-.45-1-1-1H6c-.55 0-1 .45-1 1v1H4c-1.1 0-2 .9-2 2v15c0 1.1.9 2 2 2h8c1.1 0 2-.9 2-2h6c1.1 0 2-.9 2-2V7c0-1.1-.9-2-2-2h-6zm-2 13h-2v-2h2v2zm0-9h-2V7h2v2zm4 9h-2v-2h2v2zm0-9h-2V7h2v2zm4 9h-2v-2h2v2zm0-9h-2V7h2v2z"/></symbol>
<symbol id="center_focus_strong" viewBox="0 0 24 24"><path d="M0 0h24v24H0V0z" fill="none"/><path d="M12 8c-2.21 0-4 1.79-4 4s1.79 4 4 4 4-1.79 4-4-1.79-4-4-4zm-8 7c-.55 0-1 .45-1 1v3c0 1.1.9 2 2 2h3c.55 0 1-.45 1-1s-.45-1-1-1H6c-.55 0-1-.45-1-1v-2c0-.55-.45-1-1-1zm1-9c0-.55.45-1 1-1h2c.55 0 1-.45 1-1s-.45-1-1-1H5c-1.1 0-2 .9-2 2v3c0 .55.45 1 1 1s1-.45 1-1V6zm14-3h-3c-.55 0-1 .45-1 1s.45 1 1 1h2c.55 0 1 .45 1 1v2c0 .55.45 1 1 1s1-.45 1-1V5c0-1.1-.9-2-2-2zm0 15c0 .55-.45 1-1 1h-2c-.55 0-1 .45-1 1s.45 1 1 1h3c1.1 0 2-.9 2-2v-3c0-.55-.45-1-1-1s-1 .45-1 1v2z"/></symbol>
<symbol id="center_focus_weak" viewBox="0 0 24 24"><path d="M0 0h24v24H0V0z" fill="none"/><path d="M4 15c-.55 0-1 .45-1 1v3c0 1.1.9 2 2 2h3c.55 0 1-.45 1-1s-.45-1-1-1H6c-.55 0-1-.45-1-1v-2c0-.55-.45-1-1-1zm1-9c0-.55.45-1 1-1h2c.55 0 1-.45 1-1s-.45-1-1-1H5c-1.1 0-2 .9-2 2v3c0 .55.45 1 1 1s1-.45 1-1V6zm14-3h-3c-.55 0-1 .45-1 1s.45 1 1 1h2c.55 0 1 .45 1 1v2c0 .55.45 1 1 1s1-.45 1-1V5c0-1.1-.9-2-2-2zm0 15c0 .55-.45 1-1 1h-2c-.55 0-1 .45-1 1s.45 1 1 1h3c1.1 0 2-.9 2-2v-3c0-.55-.45-1-1-1s-1 .45-1 1v2zM12 8c-2.21 0-4 1.79-4 4s1.79 4 4 4 4-1.79 4-4-1.79-4-4-4zm0 6c-1.1 0-2-.9-2-2s.9-2 2-2 2 .9 2 2-.9 2-2 2z"/></symbol>
<symbol id="collections" viewBox="0 0 24 24"><path d="M0 0h24v24H0V0z" fill="none"/><path d="M22 16V4c0-1.1-.9-2-2-2H8c-1.1 0-2 .9-2 2v12c0 1.1.9 2 2 2h12c1.1 0 2-.9 2-2zm-10.6-3.47l1.63 2.18 2.58-3.22c.2-.25.58-.25.78 0l2.96 3.7c.26.33.03.81-.39.81H9c-.41 0-.65-.47-.4-.8l2-2.67c.2-.26.6-.26.8 0zM2 7v13c0 1.1.9 2 2 2h13c.55 0 1-.45 1-1s-.45-1-1-1H5c-.55 0-1-.45-1-1V7c0-.55-.45-1-1-1s-1 .45-1 1z"/></symbol>
<symbol id="collections_bookmark" viewBox="0 0 24 24"><path d="M0 0h24v24H0V0z" fill="none"/><path d="M17 20H5c-.55 0-1-.45-1-1V7c0-.55-.45-1-1-1s-1 .45-1 1v13c0 1.1.9 2 2 2h13c.55 0 1-.45 1-1s-.45-1-1-1zm3-18H8c-1.1 0-2 .9-2 2v12c0 1.1.9 2 2 2h12c1.1 0 2-.9 2-2V4c0-1.1-.9-2-2-2zm0 10l-2.5-1.5L15 12V4h5v8z"/></symbol>
<symbol id="colorize" viewBox="0 0 24 24"><path d="M0 0h24v24H0V0z" fill="none"/><path d="M20.71 5.63l-2.34-2.34c-.39-.39-1.02-.39-1.41 0l-3.12 3.12-1.23-1.21c-.39-.39-1.02-.38-1.41 0-.39.39-.39 1.02 0 1.41l.72.72-8.77 8.77c-.1.1-.15.22-.15.36v4.04c0 .28.22.5.5.5h4.04c.13 0 .26-.05.35-.15l8.77-8.77.72.72c.39.39 1.02.39 1.41 0 .39-.39.39-1.02 0-1.41l-1.22-1.22 3.12-3.12c.41-.4.41-1.03.02-1.42zM6.92 19L5 17.08l8.06-8.06 1.92 1.92L6.92 19z"/></symbol>
<symbol id="color_lens" viewBox="0 0 24 24"><path d="M0 0h24v24H0z" fill="none"/><path d="M12 3c-4.97 0-9 4.03-9 9s4.03 9 9 9c.83 0 1.5-.67 1.5-1.5 0-.39-.15-.74-.39-1.01-.23-.26-.38-.61-.38-.99 0-.83.67-1.5 1.5-1.5H16c2.76 0 5-2.24 5-5 0-4.42-4.03-8-9-8zm-5.5 9c-.83 0-1.5-.67-1.5-1.5S5.67 9 6.5 9 8 9.67 8 10.5 7.33 12 6.5 12zm3-4C8.67 8 8 7.33 8 6.5S8.67 5 9.5 5s1.5.67 1.5 1.5S10.33 8 9.5 8zm5 0c-.83 0-1.5-.67-1.5-1.5S13.67 5 14.5 5s1.5.67 1.5 1.5S15.33 8 14.5 8zm3 4c-.83 0-1.5-.67-1.5-1.5S16.67 9 17.5 9s1.5.67 1.5 1.5-.67 1.5-1.5 1.5z"/></symbol>
<symbol id="compare" viewBox="0 0 24 24"><path d="M0 0h24v24H0V0z" fill="none"/><path d="M10 3H5c-1.1 0-2 .9-2 2v14c0 1.1.9 2 2 2h5v1c0 .55.45 1 1 1s1-.45 1-1V2c0-.55-.45-1-1-1s-1 .45-1 1v1zm0 15H5l5-6v6zm9-15h-5v2h4c.55 0 1 .45 1 1v12l-5-6v9h5c1.1 0 2-.9 2-2V5c0-1.1-.9-2-2-2z"/></symbol>
<symbol id="control_point" viewBox="0 0 24 24"><path d="M0 0h24v24H0V0z" fill="none"/><path d="M12 7c-.55 0-1 .45-1 1v3H8c-.55 0-1 .45-1 1s.45 1 1 1h3v3c0 .55.45 1 1 1s1-.45 1-1v-3h3c.55 0 1-.45 1-1s-.45-1-1-1h-3V8c0-.55-.45-1-1-1zm0-5C6.49 2 2 6.49 2 12s4.49 10 10 10 10-4.49 10-10S17.51 2 12 2zm0 18c-4.41 0-8-3.59-8-8s3.59-8 8-8 8 3.59 8 8-3.59 8-8 8z"/></symbol>
<symbol id="control_point_duplicate" viewBox="0 0 24 24"><path d="M0 0h24v24H0V0z" fill="none"/><path d="M15 8c-.55 0-1 .45-1 1v2h-2c-.55 0-1 .45-1 1s.45 1 1 1h2v2c0 .55.45 1 1 1s1-.45 1-1v-2h2c.55 0 1-.45 1-1s-.45-1-1-1h-2V9c0-.55-.45-1-1-1zM2 12c0-2.58 1.4-4.83 3.48-6.04.32-.19.53-.51.53-.88 0-.77-.84-1.25-1.51-.86C1.82 5.78 0 8.68 0 12s1.82 6.22 4.5 7.78c.67.39 1.51-.09 1.51-.86 0-.37-.21-.69-.53-.88C3.4 16.83 2 14.58 2 12zm13-9c-4.96 0-9 4.04-9 9s4.04 9 9 9 9-4.04 9-9-4.04-9-9-9zm0 16c-3.86 0-7-3.14-7-7s3.14-7 7-7 7 3.14 7 7-3.14 7-7 7z"/></symbol>
<symbol id="crop" viewBox="0 0 24 24"><path d="M0 0h24v24H0V0z" fill="none"/><path d="M17 15h2V7c0-1.1-.9-2-2-2H9v2h7c.55 0 1 .45 1 1v7zm-9 2c-.55 0-1-.45-1-1V2c0-.55-.45-1-1-1s-1 .45-1 1v3H2c-.55 0-1 .45-1 1s.45 1 1 1h3v10c0 1.1.9 2 2 2h10v3c0 .55.45 1 1 1s1-.45 1-1v-3h3c.55 0 1-.45 1-1s-.45-1-1-1H8z"/></symbol>
<symbol id="crop_16_9" viewBox="0 0 24 24"><path d="M0 0h24v24H0V0z" fill="none"/><path d="M19 6H5c-1.1 0-2 .9-2 2v8c0 1.1.9 2 2 2h14c1.1 0 2-.9 2-2V8c0-1.1-.9-2-2-2zm-1 10H6c-.55 0-1-.45-1-1V9c0-.55.45-1 1-1h12c.55 0 1 .45 1 1v6c0 .55-.45 1-1 1z"/></symbol>
<symbol id="crop_3_2" viewBox="0 0 24 24"><path d="M0 0h24v24H0V0z" fill="none"/><path d="M19 4H5c-1.1 0-2 .9-2 2v12c0 1.1.9 2 2 2h14c1.1 0 2-.9 2-2V6c0-1.1-.9-2-2-2zm-1 14H6c-.55 0-1-.45-1-1V7c0-.55.45-1 1-1h12c.55 0 1 .45 1 1v10c0 .55-.45 1-1 1z"/></symbol>
<symbol id="crop_5_4" viewBox="0 0 24 24"><path d="M0 0h24v24H0V0z" fill="none"/><path d="M19 5H5c-1.1 0-2 .9-2 2v10c0 1.1.9 2 2 2h14c1.1 0 2-.9 2-2V7c0-1.1-.9-2-2-2zm-1 12H6c-.55 0-1-.45-1-1V8c0-.55.45-1 1-1h12c.55 0 1 .45 1 1v8c0 .55-.45 1-1 1z"/></symbol>
<symbol id="crop_7_5" viewBox="0 0 24 24"><path d="M0 0h24v24H0V0z" fill="none"/><path d="M19 7H5c-1.1 0-2 .9-2 2v6c0 1.1.9 2 2 2h14c1.1 0 2-.9 2-2V9c0-1.1-.9-2-2-2zm-1 8H6c-.55 0-1-.45-1-1v-4c0-.55.45-1 1-1h12c.55 0 1 .45 1 1v4c0 .55-.45 1-1 1z"/></symbol>
<symbol id="crop_din" viewBox="0 0 24 24"><path d="M0 0h24v24H0z" fill="none"/><path d="M19 3H5c-1.1 0-2 .9-2 2v14c0 1.1.9 2 2 2h14c1.1 0 2-.9 2-2V5c0-1.1-.9-2-2-2zm-1 16H6c-.55 0-1-.45-1-1V6c0-.55.45-1 1-1h12c.55 0 1 .45 1 1v12c0 .55-.45 1-1 1z"/></symbol>
<symbol id="crop_free" viewBox="0 0 24 24"><path d="M0 0h24v24H0V0z" fill="none"/><path d="M3 5v3c0 .55.45 1 1 1s1-.45 1-1V6c0-.55.45-1 1-1h2c.55 0 1-.45 1-1s-.45-1-1-1H5c-1.1 0-2 .9-2 2zm1 10c-.55 0-1 .45-1 1v3c0 1.1.9 2 2 2h3c.55 0 1-.45 1-1s-.45-1-1-1H6c-.55 0-1-.45-1-1v-2c0-.55-.45-1-1-1zm15 3c0 .55-.45 1-1 1h-2c-.55 0-1 .45-1 1s.45 1 1 1h3c1.1 0 2-.9 2-2v-3c0-.55-.45-1-1-1s-1 .45-1 1v2zm0-15h-3c-.55 0-1 .45-1 1s.45 1 1 1h2c.55 0 1 .45 1 1v2c0 .55.45 1 1 1s1-.45 1-1V5c0-1.1-.9-2-2-2z"/></symbol>
<symbol id="crop_landscape" viewBox="0 0 24 24"><path d="M0 0h24v24H0V0z" fill="none"/><path d="M19 5H5c-1.1 0-2 .9-2 2v10c0 1.1.9 2 2 2h14c1.1 0 2-.9 2-2V7c0-1.1-.9-2-2-2zm-1 12H6c-.55 0-1-.45-1-1V8c0-.55.45-1 1-1h12c.55 0 1 .45 1 1v8c0 .55-.45 1-1 1z"/></symbol>
<symbol id="crop_original" viewBox="0 0 24 24"><path d="M0 0h24v24H0V0z" fill="none"/><path d="M19 3H5c-1.1 0-2 .9-2 2v14c0 1.1.9 2 2 2h14c1.1 0 2-.9 2-2V5c0-1.1-.9-2-2-2zm-1 16H6c-.55 0-1-.45-1-1V6c0-.55.45-1 1-1h12c.55 0 1 .45 1 1v12c0 .55-.45 1-1 1zm-4.44-6.19l-2.35 3.02-1.56-1.88c-.2-.25-.58-.24-.78.01l-1.74 2.23c-.26.33-.02.81.39.81h8.98c.41 0 .65-.47.4-.8l-2.55-3.39c-.19-.26-.59-.26-.79 0z"/></symbol>
<symbol id="crop_portrait" viewBox="0 0 24 24"><path d="M0 0h24v24H0V0z" fill="none"/><path d="M17 3H7c-1.1 0-2 .9-2 2v14c0 1.1.9 2 2 2h10c1.1 0 2-.9 2-2V5c0-1.1-.9-2-2-2zm-1 16H8c-.55 0-1-.45-1-1V6c0-.55.45-1 1-1h8c.55 0 1 .45 1 1v12c0 .55-.45 1-1 1z"/></symbol>
<symbol id="crop_rotate" viewBox="0 0 24 24"><path d="M0 0h24v24H0V0z" fill="none"/><path d="M16 9v5h2V8c0-1.1-.9-2-2-2h-6v2h5c.55 0 1 .45 1 1zm3 7H9c-.55 0-1-.45-1-1V5c0-.55-.45-1-1-1s-1 .45-1 1v1H5c-.55 0-1 .45-1 1s.45 1 1 1h1v8c0 1.1.9 2 2 2h8v1c0 .55.45 1 1 1s1-.45 1-1v-1h1c.55 0 1-.45 1-1s-.45-1-1-1zM17.66 1.4C15.99.51 13.83-.11 11.39.04l3.81 3.81 1.33-1.33c3.09 1.46 5.34 4.37 5.89 7.86.06.41.44.69.86.62.41-.06.69-.45.62-.86-.6-3.8-2.96-7-6.24-8.74zM7.47 21.49c-3.09-1.46-5.34-4.37-5.89-7.86-.06-.41-.44-.69-.86-.62-.41.06-.69.45-.62.86.6 3.81 2.96 7.01 6.24 8.75 1.67.89 3.83 1.51 6.27 1.36L8.8 20.16l-1.33 1.33z"/></symbol>
<symbol id="crop_square" viewBox="0 0 24 24"><path d="M0 0h24v24H0V0z" fill="none"/><path d="M18 4H6c-1.1 0-2 .9-2 2v12c0 1.1.9 2 2 2h12c1.1 0 2-.9 2-2V6c0-1.1-.9-2-2-2zm-1 14H7c-.55 0-1-.45-1-1V7c0-.55.45-1 1-1h10c.55 0 1 .45 1 1v10c0 .55-.45 1-1 1z"/></symbol>
<symbol id="dehaze" viewBox="0 0 24 24"><path d="M0 0h24v24H0V0z" fill="none"/><path d="M2 17c0 .55.45 1 1 1h18c.55 0 1-.45 1-1s-.45-1-1-1H3c-.55 0-1 .45-1 1zm0-5c0 .55.45 1 1 1h18c.55 0 1-.45 1-1s-.45-1-1-1H3c-.55 0-1 .45-1 1zm0-5c0 .55.45 1 1 1h18c.55 0 1-.45 1-1s-.45-1-1-1H3c-.55 0-1 .45-1 1z"/></symbol>
<symbol id="details" viewBox="0 0 24 24"><rect fill="none" height="24" width="24"/><path d="M11.13,4.57l-8.3,14.94C2.46,20.18,2.94,21,3.7,21h16.6c0.76,0,1.24-0.82,0.87-1.49l-8.3-14.94 C12.49,3.89,11.51,3.89,11.13,4.57z M13,8.92L18.6,19H13V8.92z M11,8.92V19H5.4L11,8.92z"/><g><g><g/></g></g></symbol>
<symbol id="edit" viewBox="0 0 24 24"><path d="M0 0h24v24H0V0z" fill="none"/><path d="M3 17.46v3.04c0 .28.22.5.5.5h3.04c.13 0 .26-.05.35-.15L17.81 9.94l-3.75-3.75L3.15 17.1c-.1.1-.15.22-.15.36zM20.71 7.04c.39-.39.39-1.02 0-1.41l-2.34-2.34c-.39-.39-1.02-.39-1.41 0l-1.83 1.83 3.75 3.75 1.83-1.83z"/></symbol>
<symbol id="euro" viewBox="0 0 24 24"><g><rect fill="none" height="24" width="24"/><rect fill="none" height="24" width="24"/></g><g><g/><path d="M15,18.5c-2.51,0-4.68-1.42-5.76-3.5h5.14c0.38,0,0.73-0.21,0.89-0.55l0,0c0.33-0.66-0.15-1.45-0.89-1.45h-5.8 c-0.05-0.33-0.08-0.66-0.08-1s0.03-0.67,0.08-1h5.8c0.38,0,0.73-0.21,0.89-0.55l0,0C15.61,9.78,15.13,9,14.38,9H9.24 C10.32,6.92,12.5,5.5,15,5.5c1.25,0,2.42,0.36,3.42,0.97c0.5,0.31,1.15,0.26,1.57-0.16l0,0c0.58-0.58,0.45-1.53-0.25-1.96 C18.36,3.5,16.73,3,15,3c-3.92,0-7.24,2.51-8.48,6h-2.9C3.24,9,2.89,9.21,2.72,9.55l0,0C2.39,10.22,2.87,11,3.62,11h2.44 C6.02,11.33,6,11.66,6,12s0.02,0.67,0.06,1H3.62c-0.38,0-0.73,0.21-0.89,0.55l0,0C2.39,14.22,2.87,15,3.62,15h2.9 c1.24,3.49,4.56,6,8.48,6c1.74,0,3.36-0.49,4.74-1.35c0.69-0.43,0.82-1.39,0.24-1.97l0,0c-0.42-0.42-1.07-0.47-1.57-0.15 C17.42,18.15,16.26,18.5,15,18.5z"/></g></symbol>
<symbol id="exposure" viewBox="0 0 24 24"><path d="M0 0h24v24H0z" fill="none"/><path d="M19 3H5c-1.1 0-2 .9-2 2v14c0 1.1.9 2 2 2h14c1.1 0 2-.9 2-2V5c0-1.1-.9-2-2-2zM6.75 7h3.5c.41 0 .75.34.75.75s-.34.75-.75.75h-3.5c-.41 0-.75-.34-.75-.75S6.34 7 6.75 7zM18 19H5L19 5v13c0 .55-.45 1-1 1zm-3.5-3v1.25c0 .41.34.75.75.75s.75-.34.75-.75V16h1.25c.41 0 .75-.34.75-.75s-.34-.75-.75-.75H16v-1.25c0-.41-.34-.75-.75-.75s-.75.34-.75.75v1.25h-1.25c-.41 0-.75.34-.75.75s.34.75.75.75h1.25z"/></symbol>
<symbol id="exposure_neg_1" viewBox="0 0 24 24"><path d="M0 0h24v24H0V0z" fill="none"/><path d="M4 12c0 .55.45 1 1 1h6c.55 0 1-.45 1-1s-.45-1-1-1H5c-.55 0-1 .45-1 1zm15 6h-2V7.38L14 8.4V6.7L18.7 5h.3v13z"/></symbol>
<symbol id="exposure_neg_2" viewBox="0 0 24 24"><path d="M0 0h24v24H0V0z" fill="none"/><path d="M15.05 16.29l2.86-3.07c.38-.39.72-.79 1.04-1.18.32-.39.59-.78.82-1.17s.41-.78.54-1.17.19-.79.19-1.18c0-.53-.09-1.02-.27-1.46s-.44-.81-.78-1.11c-.34-.31-.77-.54-1.26-.71-.51-.16-1.08-.24-1.72-.24-.69 0-1.31.11-1.85.32-.54.21-1 .51-1.36.88-.37.37-.65.8-.84 1.3-.18.47-.27.97-.28 1.5h2.14c.01-.31.05-.6.13-.87.09-.29.23-.54.4-.75.18-.21.41-.37.68-.49s.6-.18.96-.18c.31 0 .58.05.81.15s.43.25.59.43.28.4.37.65c.08.25.13.52.13.81 0 .22-.03.43-.08.65-.06.22-.15.45-.29.7-.14.25-.32.53-.56.83-.23.3-.52.65-.88 1.03l-4.17 4.55V18H21v-1.71h-5.95zM2 12c0 .55.45 1 1 1h6c.55 0 1-.45 1-1s-.45-1-1-1H3c-.55 0-1 .45-1 1z"/></symbol>
<symbol id="exposure_plus_1" viewBox="0 0 24 24"><path d="M0 0h24v24H0V0z" fill="none"/><path d="M9 7c-.55 0-1 .45-1 1v3H5c-.55 0-1 .45-1 1s.45 1 1 1h3v3c0 .55.45 1 1 1s1-.45 1-1v-3h3c.55 0 1-.45 1-1s-.45-1-1-1h-3V8c0-.55-.45-1-1-1zm11 11h-2V7.38L15 8.4V6.7L19.7 5h.3v13z"/></symbol>
<symbol id="exposure_plus_2" viewBox="0 0 24 24"><path d="M0 0h24v24H0V0z" fill="none"/><path d="M16.05 16.29l2.86-3.07c.38-.39.72-.79 1.04-1.18.32-.39.59-.78.82-1.17s.41-.78.54-1.17c.13-.39.19-.79.19-1.18 0-.53-.09-1.02-.27-1.46s-.44-.81-.78-1.11c-.34-.31-.77-.54-1.26-.71-.51-.16-1.08-.24-1.72-.24-.69 0-1.31.11-1.85.32-.54.21-1 .51-1.36.88-.37.37-.65.8-.84 1.3-.18.47-.27.97-.28 1.5h2.14c.01-.31.05-.6.13-.87.09-.29.23-.54.4-.75.18-.21.41-.37.68-.49s.6-.18.96-.18c.31 0 .58.05.81.15s.43.25.59.43.28.4.37.65c.08.25.13.52.13.81 0 .22-.03.43-.08.65-.06.22-.15.45-.29.7-.14.25-.32.53-.56.83-.23.3-.52.65-.88 1.03l-4.17 4.55V18H22v-1.71h-5.95zM7 7c-.55 0-1 .45-1 1v3H3c-.55 0-1 .45-1 1s.45 1 1 1h3v3c0 .55.45 1 1 1s1-.45 1-1v-3h3c.55 0 1-.45 1-1s-.45-1-1-1H8V8c0-.55-.45-1-1-1z"/></symbol>
<symbol id="exposure_zero" viewBox="0 0 24 24"><path d="M0 0h24v24H0V0z" fill="none"/><path d="M16.14 12.5c0 1-.1 1.85-.3 2.55s-.48 1.27-.83 1.7c-.36.44-.79.75-1.3.95s-1.07.3-1.7.3c-.62 0-1.18-.1-1.69-.3-.51-.2-.95-.51-1.31-.95s-.65-1.01-.85-1.7c-.2-.7-.3-1.55-.3-2.55v-2.04c0-1 .1-1.85.3-2.55.2-.7.48-1.26.84-1.69.36-.43.8-.74 1.31-.93C10.81 5.1 11.38 5 12 5c.63 0 1.19.1 1.7.29.51.19.95.5 1.31.93.36.43.64.99.84 1.69.2.7.3 1.54.3 2.55v2.04h-.01zm-2.11-2.36c0-.64-.05-1.18-.13-1.62-.09-.44-.22-.79-.4-1.06-.17-.27-.39-.46-.64-.58-.25-.13-.54-.19-.86-.19s-.61.06-.86.18-.47.31-.64.58-.31.62-.4 1.06-.13.98-.13 1.62v2.67c0 .64.05 1.18.14 1.62.09.45.23.81.4 1.09s.39.48.64.61.54.19.87.19.62-.06.87-.19.46-.33.63-.61.3-.64.39-1.09.13-.99.13-1.62v-2.66h-.01z"/></symbol>
<symbol id="filter" viewBox="0 0 24 24"><path d="M0 0h24v24H0V0z" fill="none"/><path d="M15.56 10.81l-2.35 3.02-1.56-1.88c-.2-.25-.58-.24-.78.01l-1.74 2.23c-.26.33-.02.81.39.81h8.98c.41 0 .65-.47.4-.8l-2.55-3.39c-.19-.26-.59-.26-.79 0zM2 5c-.55 0-1 .45-1 1v15c0 1.1.9 2 2 2h15c.55 0 1-.45 1-1s-.45-1-1-1H4c-.55 0-1-.45-1-1V6c0-.55-.45-1-1-1zm19-4H7c-1.1 0-2 .9-2 2v14c0 1.1.9 2 2 2h14c1.1 0 2-.9 2-2V3c0-1.1-.9-2-2-2zm-1 16H8c-.55 0-1-.45-1-1V4c0-.55.45-1 1-1h12c.55 0 1 .45 1 1v12c0 .55-.45 1-1 1z"/></symbol>
<symbol id="filter_1" viewBox="0 0 24 24"><path d="M0 0h24v24H0V0z" fill="none"/><path d="M2 5c-.55 0-1 .45-1 1v15c0 1.1.9 2 2 2h15c.55 0 1-.45 1-1s-.45-1-1-1H4c-.55 0-1-.45-1-1V6c0-.55-.45-1-1-1zm13 10c.55 0 1-.45 1-1V6c0-.55-.45-1-1-1h-2c-.55 0-1 .45-1 1s.45 1 1 1h1v7c0 .55.45 1 1 1zm6-14H7c-1.1 0-2 .9-2 2v14c0 1.1.9 2 2 2h14c1.1 0 2-.9 2-2V3c0-1.1-.9-2-2-2zm-1 16H8c-.55 0-1-.45-1-1V4c0-.55.45-1 1-1h12c.55 0 1 .45 1 1v12c0 .55-.45 1-1 1z"/></symbol>
<symbol id="filter_2" viewBox="0 0 24 24"><path d="M0 0h24v24H0V0z" fill="none"/><path d="M2 5c-.55 0-1 .45-1 1v15c0 1.1.9 2 2 2h15c.55 0 1-.45 1-1s-.45-1-1-1H4c-.55 0-1-.45-1-1V6c0-.55-.45-1-1-1zm19-4H7c-1.1 0-2 .9-2 2v14c0 1.1.9 2 2 2h14c1.1 0 2-.9 2-2V3c0-1.1-.9-2-2-2zm-1 16H8c-.55 0-1-.45-1-1V4c0-.55.45-1 1-1h12c.55 0 1 .45 1 1v12c0 .55-.45 1-1 1zm-4-4h-3v-2h2c1.1 0 2-.9 2-2V7c0-1.1-.9-2-2-2h-3c-.55 0-1 .45-1 1s.45 1 1 1h3v2h-2c-1.1 0-2 .9-2 2v3c0 .55.45 1 1 1h4c.55 0 1-.45 1-1s-.45-1-1-1z"/></symbol>
<symbol id="filter_3" viewBox="0 0 24 24"><path d="M0 0h24v24H0V0z" fill="none"/><path d="M21 1H7c-1.1 0-2 .9-2 2v14c0 1.1.9 2 2 2h14c1.1 0 2-.9 2-2V3c0-1.1-.9-2-2-2zm-1 16H8c-.55 0-1-.45-1-1V4c0-.55.45-1 1-1h12c.55 0 1 .45 1 1v12c0 .55-.45 1-1 1zM2 5c-.55 0-1 .45-1 1v15c0 1.1.9 2 2 2h15c.55 0 1-.45 1-1s-.45-1-1-1H4c-.55 0-1-.45-1-1V6c0-.55-.45-1-1-1zm15 8v-1.5c0-.83-.67-1.5-1.5-1.5.83 0 1.5-.67 1.5-1.5V7c0-1.1-.9-2-2-2h-3c-.55 0-1 .45-1 1s.45 1 1 1h3v2h-1c-.55 0-1 .45-1 1s.45 1 1 1h1v2h-3c-.55 0-1 .45-1 1s.45 1 1 1h3c1.1 0 2-.9 2-2z"/></symbol>
<symbol id="filter_4" viewBox="0 0 24 24"><path d="M0 0h24v24H0V0z" fill="none"/><path d="M2 5c-.55 0-1 .45-1 1v15c0 1.1.9 2 2 2h15c.55 0 1-.45 1-1s-.45-1-1-1H4c-.55 0-1-.45-1-1V6c0-.55-.45-1-1-1zm14 10c.55 0 1-.45 1-1V6c0-.55-.45-1-1-1s-1 .45-1 1v3h-2V6c0-.55-.45-1-1-1s-1 .45-1 1v4c0 .55.45 1 1 1h3v3c0 .55.45 1 1 1zm5-14H7c-1.1 0-2 .9-2 2v14c0 1.1.9 2 2 2h14c1.1 0 2-.9 2-2V3c0-1.1-.9-2-2-2zm-1 16H8c-.55 0-1-.45-1-1V4c0-.55.45-1 1-1h12c.55 0 1 .45 1 1v12c0 .55-.45 1-1 1z"/></symbol>
<symbol id="filter_5" viewBox="0 0 24 24"><path d="M0 0h24v24H0z" fill="none"/><path d="M21 1H7c-1.1 0-2 .9-2 2v14c0 1.1.9 2 2 2h14c1.1 0 2-.9 2-2V3c0-1.1-.9-2-2-2zm-1 16H8c-.55 0-1-.45-1-1V4c0-.55.45-1 1-1h12c.55 0 1 .45 1 1v12c0 .55-.45 1-1 1zM2 5c-.55 0-1 .45-1 1v15c0 1.1.9 2 2 2h15c.55 0 1-.45 1-1s-.45-1-1-1H4c-.55 0-1-.45-1-1V6c0-.55-.45-1-1-1zm15 8v-2c0-1.1-.9-2-2-2h-2V7h3c.55 0 1-.45 1-1s-.45-1-1-1h-4c-.55 0-1 .45-1 1v4c0 .55.45 1 1 1h3v2h-3c-.55 0-1 .45-1 1s.45 1 1 1h3c1.1 0 2-.9 2-2z"/></symbol>
<symbol id="filter_6" viewBox="0 0 24 24"><path d="M0 0h24v24H0V0z" fill="none"/><path d="M2 5c-.55 0-1 .45-1 1v15c0 1.1.9 2 2 2h15c.55 0 1-.45 1-1s-.45-1-1-1H4c-.55 0-1-.45-1-1V6c0-.55-.45-1-1-1zm19-4H7c-1.1 0-2 .9-2 2v14c0 1.1.9 2 2 2h14c1.1 0 2-.9 2-2V3c0-1.1-.9-2-2-2zm-1 16H8c-.55 0-1-.45-1-1V4c0-.55.45-1 1-1h12c.55 0 1 .45 1 1v12c0 .55-.45 1-1 1zm-7-2h2c1.1 0 2-.9 2-2v-2c0-1.1-.9-2-2-2h-2V7h3c.55 0 1-.45 1-1s-.45-1-1-1h-3c-1.1 0-2 .9-2 2v6c0 1.1.9 2 2 2zm0-4h2v2h-2v-2z"/></symbol>
<symbol id="filter_7" viewBox="0 0 24 24"><path d="M0 0h24v24H0V0z" fill="none"/><path d="M2 5c-.55 0-1 .45-1 1v15c0 1.1.9 2 2 2h15c.55 0 1-.45 1-1s-.45-1-1-1H4c-.55 0-1-.45-1-1V6c0-.55-.45-1-1-1zm19-4H7c-1.1 0-2 .9-2 2v14c0 1.1.9 2 2 2h14c1.1 0 2-.9 2-2V3c0-1.1-.9-2-2-2zm-1 16H8c-.55 0-1-.45-1-1V4c0-.55.45-1 1-1h12c.55 0 1 .45 1 1v12c0 .55-.45 1-1 1zm-6.75-2.49l3.58-7.17c.11-.22.17-.47.17-.72 0-.9-.72-1.62-1.62-1.62H12c-.55 0-1 .45-1 1s.45 1 1 1h3l-3.36 6.71c-.3.59.13 1.29.8 1.29h.01c.34 0 .65-.19.8-.49z"/></symbol>
<symbol id="filter_8" viewBox="0 0 24 24"><path d="M0 0h24v24H0V0z" fill="none"/><path d="M2 5c-.55 0-1 .45-1 1v15c0 1.1.9 2 2 2h15c.55 0 1-.45 1-1s-.45-1-1-1H4c-.55 0-1-.45-1-1V6c0-.55-.45-1-1-1zm19-4H7c-1.1 0-2 .9-2 2v14c0 1.1.9 2 2 2h14c1.1 0 2-.9 2-2V3c0-1.1-.9-2-2-2zm-1 16H8c-.55 0-1-.45-1-1V4c0-.55.45-1 1-1h12c.55 0 1 .45 1 1v12c0 .55-.45 1-1 1zm-7-2h2c1.1 0 2-.89 2-2v-1.5c0-.83-.67-1.5-1.5-1.5.83 0 1.5-.67 1.5-1.5V7c0-1.11-.9-2-2-2h-2c-1.1 0-2 .89-2 2v1.5c0 .83.67 1.5 1.5 1.5-.83 0-1.5.67-1.5 1.5V13c0 1.11.9 2 2 2zm0-8h2v2h-2V7zm0 4h2v2h-2v-2z"/></symbol>
<symbol id="filter_9" viewBox="0 0 24 24"><path d="M0 0h24v24H0V0z" fill="none"/><path d="M2 5c-.55 0-1 .45-1 1v15c0 1.1.9 2 2 2h15c.55 0 1-.45 1-1s-.45-1-1-1H4c-.55 0-1-.45-1-1V6c0-.55-.45-1-1-1zm19-4H7c-1.1 0-2 .9-2 2v14c0 1.1.9 2 2 2h14c1.1 0 2-.9 2-2V3c0-1.1-.9-2-2-2zm-1 16H8c-.55 0-1-.45-1-1V4c0-.55.45-1 1-1h12c.55 0 1 .45 1 1v12c0 .55-.45 1-1 1zM15 5h-2c-1.1 0-2 .9-2 2v2c0 1.1.9 2 2 2h2v2h-3c-.55 0-1 .45-1 1s.45 1 1 1h3c1.1 0 2-.9 2-2V7c0-1.1-.9-2-2-2zm0 4h-2V7h2v2z"/></symbol>
<symbol id="filter_9_plus" viewBox="0 0 24 24"><path d="M0 0h24v24H0V0z" fill="none"/><path d="M2 5c-.55 0-1 .45-1 1v15c0 1.1.9 2 2 2h15c.55 0 1-.45 1-1s-.45-1-1-1H4c-.55 0-1-.45-1-1V6c0-.55-.45-1-1-1zm12 7V8c0-1.1-.9-2-2-2h-1c-1.1 0-2 .9-2 2v1c0 1.1.9 2 2 2h1v1h-2c-.55 0-1 .45-1 1s.45 1 1 1h2c1.1 0 2-.9 2-2zm-3-3V8h1v1h-1zm10-8H7c-1.1 0-2 .9-2 2v14c0 1.1.9 2 2 2h14c1.1 0 2-.9 2-2V3c0-1.1-.9-2-2-2zm-1 16H8c-.55 0-1-.45-1-1V4c0-.55.45-1 1-1h12c.55 0 1 .45 1 1v12c0 .55-.45 1-1 1zm1-7c0-.55-.45-1-1-1h-1V8c0-.55-.45-1-1-1s-1 .45-1 1v1h-1c-.55 0-1 .45-1 1s.45 1 1 1h1v1c0 .55.45 1 1 1s1-.45 1-1v-1h1c.55 0 1-.45 1-1z"/></symbol>
<symbol id="filter_b_and_w" viewBox="0 0 24 24"><path d="M0 0h24v24H0V0z" fill="none"/><path d="M19 3H5c-1.1 0-2 .9-2 2v14c0 1.1.9 2 2 2h14c1.1 0 2-.9 2-2V5c0-1.1-.9-2-2-2zm0 16l-7-8v8H5l7-8V5h6c.55 0 1 .45 1 1v13z"/></symbol>
<symbol id="filter_center_focus" viewBox="0 0 24 24"><path d="M0 0h24v24H0V0z" fill="none"/><path d="M4 15c-.55 0-1 .45-1 1v3c0 1.1.9 2 2 2h3c.55 0 1-.45 1-1s-.45-1-1-1H6c-.55 0-1-.45-1-1v-2c0-.55-.45-1-1-1zm1-9c0-.55.45-1 1-1h2c.55 0 1-.45 1-1s-.45-1-1-1H5c-1.1 0-2 .9-2 2v3c0 .55.45 1 1 1s1-.45 1-1V6zm14-3h-3c-.55 0-1 .45-1 1s.45 1 1 1h2c.55 0 1 .45 1 1v2c0 .55.45 1 1 1s1-.45 1-1V5c0-1.1-.9-2-2-2zm0 15c0 .55-.45 1-1 1h-2c-.55 0-1 .45-1 1s.45 1 1 1h3c1.1 0 2-.9 2-2v-3c0-.55-.45-1-1-1s-1 .45-1 1v2zm-7-9c-1.66 0-3 1.34-3 3s1.34 3 3 3 3-1.34 3-3-1.34-3-3-3z"/></symbol>
<symbol id="filter_drama" viewBox="0 0 24 24"><path d="M0 0h24v24H0V0z" fill="none"/><path d="M19.35 10.04C18.67 6.59 15.64 4 12 4 9.11 4 6.61 5.64 5.36 8.04 2.35 8.36 0 10.9 0 14c0 3.31 2.69 6 6 6h13c2.76 0 5-2.24 5-5 0-2.64-2.05-4.78-4.65-4.96zM19 18H6.17c-2.09 0-3.95-1.53-4.15-3.61C1.79 12.01 3.66 10 6 10c1.92 0 3.53 1.36 3.91 3.17.1.48.5.83.98.83.61 0 1.11-.55.99-1.15-.43-2.24-2.11-4.03-4.29-4.63 1.1-1.46 2.89-2.37 4.89-2.2 2.88.25 5.01 2.82 5.01 5.71V12h1.37c1.45 0 2.79.97 3.07 2.4.39 1.91-1.08 3.6-2.93 3.6z"/></symbol>
<symbol id="filter_frames" viewBox="0 0 24 24"><path d="M0 0h24v24H0z" fill="none"/><path d="M20 4h-4L12.71.71c-.39-.39-1.02-.39-1.41 0L8 4H4c-1.1 0-2 .9-2 2v14c0 1.1.9 2 2 2h16c1.1 0 2-.9 2-2V6c0-1.1-.9-2-2-2zm-1 16H5c-.55 0-1-.45-1-1V7c0-.55.45-1 1-1h3.52l3.52-3.5L15.52 6H19c.55 0 1 .45 1 1v12c0 .55-.45 1-1 1zM17 8H7c-.55 0-1 .45-1 1v8c0 .55.45 1 1 1h10c.55 0 1-.45 1-1V9c0-.55-.45-1-1-1z"/></symbol>
<symbol id="filter_hdr" viewBox="0 0 24 24"><path d="M0 0h24v24H0V0z" fill="none"/><path d="M13.2 7.07L10.25 11l2.25 3c.33.44.24 1.07-.2 1.4-.44.33-1.07.25-1.4-.2-1.05-1.4-2.31-3.07-3.1-4.14-.4-.53-1.2-.53-1.6 0l-4 5.33c-.49.67-.02 1.61.8 1.61h18c.82 0 1.29-.94.8-1.6l-7-9.33c-.4-.54-1.2-.54-1.6 0z"/></symbol>
<symbol id="filter_none" viewBox="0 0 24 24"><path d="M0 0h24v24H0V0z" fill="none"/><path d="M2 5c-.55 0-1 .45-1 1v15c0 1.1.9 2 2 2h15c.55 0 1-.45 1-1s-.45-1-1-1H4c-.55 0-1-.45-1-1V6c0-.55-.45-1-1-1zm19-4H7c-1.1 0-2 .9-2 2v14c0 1.1.9 2 2 2h14c1.1 0 2-.9 2-2V3c0-1.1-.9-2-2-2zm-1 16H8c-.55 0-1-.45-1-1V4c0-.55.45-1 1-1h12c.55 0 1 .45 1 1v12c0 .55-.45 1-1 1z"/></symbol>
<symbol id="filter_tilt_shift" viewBox="0 0 24 24"><path d="M0 0h24v24H0V0z" fill="none"/><path d="M11 3.23c0-.64-.59-1.13-1.21-.99-1.12.26-2.18.7-3.12 1.3-.53.34-.61 1.1-.16 1.55.32.32.83.4 1.21.16.77-.49 1.62-.85 2.54-1.05.44-.1.74-.51.74-.97zm6.33.32c-.94-.6-2-1.04-3.12-1.3-.62-.14-1.21.34-1.21.98 0 .45.3.87.74.96.91.2 1.77.57 2.53 1.05.39.24.89.17 1.21-.16.46-.44.39-1.19-.15-1.53zM20.77 11c.64 0 1.13-.59.99-1.21-.26-1.12-.7-2.18-1.3-3.12-.34-.53-1.1-.61-1.55-.16-.32.32-.4.83-.16 1.21.49.77.85 1.62 1.05 2.53.1.45.51.75.97.75zM5.1 6.51c-.46-.45-1.21-.38-1.55.16-.6.94-1.04 2-1.3 3.12-.14.62.34 1.21.98 1.21.45 0 .87-.3.96-.74.2-.91.57-1.77 1.05-2.53.26-.39.18-.9-.14-1.22zM3.23 13c-.64 0-1.13.59-.99 1.21.26 1.12.7 2.17 1.3 3.12.34.54 1.1.61 1.55.16.32-.32.4-.83.15-1.21-.49-.76-.85-1.61-1.05-2.53-.09-.45-.5-.75-.96-.75zM15 12c0-1.66-1.34-3-3-3s-3 1.34-3 3 1.34 3 3 3 3-1.34 3-3zm3.9 5.49c.45.45 1.21.38 1.55-.15.6-.94 1.04-2 1.3-3.11.14-.62-.35-1.21-.98-1.21-.45 0-.87.3-.96.74-.2.91-.57 1.76-1.05 2.53-.26.37-.18.88.14 1.2zM13 20.77c0 .64.59 1.13 1.21.99 1.12-.26 2.17-.7 3.12-1.3.54-.34.61-1.1.16-1.55-.32-.32-.83-.4-1.21-.15-.76.49-1.61.85-2.53 1.05-.45.09-.75.5-.75.96zm-6.33-.32c.95.6 2 1.04 3.12 1.3.62.14 1.21-.35 1.21-.98 0-.45-.3-.87-.74-.96-.91-.2-1.77-.57-2.53-1.05-.39-.24-.89-.17-1.21.16-.46.44-.39 1.19.15 1.53z"/></symbol>
<symbol id="filter_vintage" viewBox="0 0 24 24"><path d="M0 0h24v24H0V0z" fill="none"/><path d="M18.7 12.4c-.28-.16-.57-.29-.86-.4.29-.11.58-.24.86-.4 1.92-1.11 2.99-3.12 3-5.19-1.79-1.03-4.07-1.11-6 0-.28.16-.54.35-.78.54.05-.31.08-.63.08-.95 0-2.22-1.21-4.15-3-5.19C10.21 1.85 9 3.78 9 6c0 .32.03.64.08.95-.24-.2-.5-.39-.78-.55-1.92-1.11-4.2-1.03-6 0 0 2.07 1.07 4.08 3 5.19.28.16.57.29.86.4-.29.11-.58.24-.86.4-1.92 1.11-2.99 3.12-3 5.19 1.79 1.03 4.07 1.11 6 0 .28-.16.54-.35.78-.54-.05.32-.08.64-.08.96 0 2.22 1.21 4.15 3 5.19 1.79-1.04 3-2.97 3-5.19 0-.32-.03-.64-.08-.95.24.2.5.38.78.54 1.92 1.11 4.2 1.03 6 0-.01-2.07-1.08-4.08-3-5.19zM12 16c-2.21 0-4-1.79-4-4s1.79-4 4-4 4 1.79 4 4-1.79 4-4 4z"/></symbol>
<symbol id="flare" viewBox="0 0 24 24"><path d="M0 0h24v24H0V0z" fill="none"/><path d="M6 11H2c-.55 0-1 .45-1 1s.45 1 1 1h4c.55 0 1-.45 1-1s-.45-1-1-1zm2.47-3.94l-.72-.72c-.39-.39-1.02-.39-1.41 0-.39.39-.39 1.02 0 1.41l.71.71c.39.39 1.02.39 1.41 0 .39-.38.39-1.02.01-1.4zM12 1c-.56 0-1 .45-1 1v4c0 .55.45 1 1 1s1-.45 1-1V2c0-.55-.45-1-1-1zm5.66 5.35c-.39-.39-1.02-.39-1.41 0l-.71.71c-.39.39-.39 1.02 0 1.41.39.39 1.02.39 1.41 0l.71-.71c.38-.39.38-1.03 0-1.41zM17 12c0 .56.45 1 1 1h4c.55 0 1-.45 1-1s-.45-1-1-1h-4c-.55 0-1 .45-1 1zm-5-3c-1.66 0-3 1.34-3 3s1.34 3 3 3 3-1.34 3-3-1.34-3-3-3zm3.53 7.94l.71.71c.39.39 1.02.39 1.41 0 .39-.39.39-1.02 0-1.41l-.71-.71c-.39-.39-1.02-.39-1.41 0-.38.39-.38 1.03 0 1.41zm-9.19.71c.39.39 1.02.39 1.41 0l.71-.71c.39-.39.39-1.02 0-1.41-.39-.39-1.02-.39-1.41 0l-.71.71c-.38.39-.38 1.03 0 1.41zM12 23c.56 0 1-.45 1-1v-4c0-.55-.45-1-1-1s-1 .45-1 1v4c0 .55.45 1 1 1z"/></symbol>
<symbol id="flash_auto" viewBox="0 0 24 24"><path d="M0 0h24v24H0V0z" fill="none"/><path d="M3 3v10c0 .55.45 1 1 1h2v7.15c0 .51.67.69.93.25l5.19-8.9c.39-.67-.09-1.5-.86-1.5H9l3.38-7.59c.29-.67-.2-1.41-.92-1.41H4c-.55 0-1 .45-1 1zm15-1c-.6 0-1.13.38-1.34.94L14.22 9.8c-.2.59.23 1.2.85 1.2.38 0 .72-.24.84-.6L16.4 9h3.2l.49 1.4c.13.36.46.6.84.6.62 0 1.05-.61.84-1.19l-2.44-6.86C19.13 2.38 18.6 2 18 2zm-1.15 5.65L18 4l1.15 3.65h-2.3z"/></symbol>
<symbol id="flash_off" viewBox="0 0 24 24"><path d="M0 0h24v24H0V0z" fill="none"/><path d="M16.12 11.5c.39-.67-.09-1.5-.86-1.5h-1.87l2.28 2.28.45-.78zm.16-8.05c.33-.67-.15-1.45-.9-1.45H8c-.55 0-1 .45-1 1v.61l6.13 6.13 3.15-6.29zm2.16 14.43L4.12 3.56c-.39-.39-1.02-.39-1.41 0-.39.39-.39 1.02 0 1.41L7 9.27V12c0 .55.45 1 1 1h2v7.15c0 .51.67.69.93.25l2.65-4.55 3.44 3.44c.39.39 1.02.39 1.41 0 .4-.39.4-1.02.01-1.41z"/></symbol>
<symbol id="flash_on" viewBox="0 0 24 24"><path d="M0 0h24v24H0V0z" fill="none"/><path d="M7 3v9c0 .55.45 1 1 1h2v7.15c0 .51.67.69.93.25l5.19-8.9c.39-.67-.09-1.5-.86-1.5H13l2.49-6.65c.25-.65-.23-1.35-.93-1.35H8c-.55 0-1 .45-1 1z"/></symbol>
<symbol id="flip" viewBox="0 0 24 24"><path d="M0 0h24v24H0V0z" fill="none"/><path d="M15 21h2v-2h-2v2zm4-12h2V7h-2v2zM3 5v14c0 1.1.9 2 2 2h3c.55 0 1-.45 1-1s-.45-1-1-1H6c-.55 0-1-.45-1-1V6c0-.55.45-1 1-1h2c.55 0 1-.45 1-1s-.45-1-1-1H5c-1.1 0-2 .9-2 2zm16-2v2h2c0-1.1-.9-2-2-2zm-7 20c.55 0 1-.45 1-1V2c0-.55-.45-1-1-1s-1 .45-1 1v20c0 .55.45 1 1 1zm7-6h2v-2h-2v2zM15 5h2V3h-2v2zm4 8h2v-2h-2v2zm0 8c1.1 0 2-.9 2-2h-2v2z"/></symbol>
<symbol id="flip_camera_android" viewBox="0 0 24 24"><g><rect fill="none" height="24" width="24"/><rect fill="none" height="24" width="24"/></g><g><g><path d="M9,12c0,1.66,1.34,3,3,3s3-1.34,3-3s-1.34-3-3-3S9,10.34,9,12z"/><path d="M8,9L8,9c0-0.55-0.45-1-1-1H5.09C6.47,5.61,9.05,4,12,4c3.49,0,6.45,2.24,7.54,5.36C19.68,9.75,20.07,10,20.48,10h0 c0.68,0,1.18-0.67,0.96-1.31C20.07,4.79,16.36,2,12,2C8.73,2,5.82,3.58,4,6.01V5c0-0.55-0.45-1-1-1h0C2.45,4,2,4.45,2,5v4 c0,0.55,0.45,1,1,1h4C7.55,10,8,9.55,8,9z"/><path d="M16,15L16,15c0,0.55,0.45,1,1,1h1.91c-1.38,2.39-3.96,4-6.91,4c-3.49,0-6.45-2.24-7.54-5.36C4.32,14.25,3.93,14,3.52,14h0 c-0.68,0-1.18,0.67-0.96,1.31C3.93,19.21,7.64,22,12,22c3.27,0,6.18-1.58,8-4.01V19c0,0.55,0.45,1,1,1h0c0.55,0,1-0.45,1-1v-4 c0-0.55-0.45-1-1-1h-4C16.45,14,16,14.45,16,15z"/></g></g></symbol>
<symbol id="flip_camera_ios" viewBox="0 0 24 24"><g><rect fill="none" height="24" width="24"/><rect fill="none" height="24" width="24"/></g><g><g><path d="M20,5h-3.17l-1.24-1.35C15.22,3.24,14.68,3,14.12,3H9.88c-0.56,0-1.1,0.24-1.48,0.65L7.17,5H4C2.9,5,2,5.9,2,7v12 c0,1.1,0.9,2,2,2h16c1.1,0,2-0.9,2-2V7C22,5.9,21.1,5,20,5z M13.67,17.7C13.15,17.89,12.59,18,12,18c-2.76,0-5-2.24-5-5H5l2.5-2.5 L10,13H8c0,2.21,1.79,4,4,4c0.46,0,0.91-0.08,1.32-0.23c0.19-0.07,0.39-0.03,0.53,0.11C14.11,17.14,14.01,17.57,13.67,17.7z M16.5,15.5L14,13h2c0-2.21-1.79-4-4-4c-0.46,0-0.91,0.08-1.32,0.23c-0.19,0.07-0.39,0.03-0.53-0.11 C9.89,8.86,9.99,8.43,10.33,8.3C10.85,8.11,11.41,8,12,8c2.76,0,5,2.24,5,5h2L16.5,15.5z"/></g></g></symbol>
<symbol id="gradient" viewBox="0 0 24 24"><path d="M0 0h24v24H0z" fill="none"/><path d="M11 9h2v2h-2V9zm-2 2h2v2H9v-2zm4 0h2v2h-2v-2zm2-2h2v2h-2V9zM7 9h2v2H7V9zm12-6H5c-1.1 0-2 .9-2 2v14c0 1.1.9 2 2 2h14c1.1 0 2-.9 2-2V5c0-1.1-.9-2-2-2zM9 18H7v-2h2v2zm4 0h-2v-2h2v2zm4 0h-2v-2h2v2zm2-7h-2v2h2v2h-2v-2h-2v2h-2v-2h-2v2H9v-2H7v2H5v-2h2v-2H5V6c0-.55.45-1 1-1h12c.55 0 1 .45 1 1v5z"/></symbol>
<symbol id="grain" viewBox="0 0 24 24"><path d="M0 0h24v24H0V0z" fill="none"/><path d="M10 12c-1.1 0-2 .9-2 2s.9 2 2 2 2-.9 2-2-.9-2-2-2zM6 8c-1.1 0-2 .9-2 2s.9 2 2 2 2-.9 2-2-.9-2-2-2zm0 8c-1.1 0-2 .9-2 2s.9 2 2 2 2-.9 2-2-.9-2-2-2zm12-8c1.1 0 2-.9 2-2s-.9-2-2-2-2 .9-2 2 .9 2 2 2zm-4 8c-1.1 0-2 .9-2 2s.9 2 2 2 2-.9 2-2-.9-2-2-2zm4-4c-1.1 0-2 .9-2 2s.9 2 2 2 2-.9 2-2-.9-2-2-2zm-4-4c-1.1 0-2 .9-2 2s.9 2 2 2 2-.9 2-2-.9-2-2-2zm-4-4c-1.1 0-2 .9-2 2s.9 2 2 2 2-.9 2-2-.9-2-2-2z"/></symbol>
<symbol id="grid_off" viewBox="0 0 24 24"><path d="M0 0h24v24H0V0z" fill="none"/><path d="M8 4v.89l2 2V4h4v4h-2.89l2 2H14v.89l2 2V10h4v4h-2.89l2 2H20v.89l2 2V4c0-1.1-.9-2-2-2H5.11l2 2H8zm8 0h3c.55 0 1 .45 1 1v3h-4V4zm6.16 17.88L2.12 1.84c-.39-.39-1.02-.39-1.41 0-.39.39-.39 1.02 0 1.41L2 4.55V20c0 1.1.9 2 2 2h15.45l1.3 1.3c.39.39 1.02.39 1.41 0 .39-.39.39-1.03 0-1.42zM10 12.55L11.45 14H10v-1.45zm-6-6L5.45 8H4V6.55zM8 20H5c-.55 0-1-.45-1-1v-3h4v4zm0-6H4v-4h3.45l.55.55V14zm6 6h-4v-4h3.45l.55.55V20zm2 0v-1.45L17.45 20H16z"/></symbol>
<symbol id="grid_on" viewBox="0 0 24 24"><path d="M0 0h24v24H0V0z" fill="none"/><path d="M20 2H4c-1.1 0-2 .9-2 2v16c0 1.1.9 2 2 2h16c1.1 0 2-.9 2-2V4c0-1.1-.9-2-2-2zM8 20H5c-.55 0-1-.45-1-1v-3h4v4zm0-6H4v-4h4v4zm0-6H4V5c0-.55.45-1 1-1h3v4zm6 12h-4v-4h4v4zm0-6h-4v-4h4v4zm0-6h-4V4h4v4zm5 12h-3v-4h4v3c0 .55-.45 1-1 1zm1-6h-4v-4h4v4zm0-6h-4V4h3c.55 0 1 .45 1 1v3z"/></symbol>
<symbol id="hdr_off" viewBox="0 0 24 24"><path d="M0 0h24v24H0V0z" fill="none"/><path d="M17.5 14.25V13h1.1l.72 1.59c.11.25.36.41.63.41.5 0 .83-.51.64-.96l-.49-1.14c.5-.3.9-.8.9-1.4v-1c0-.83-.67-1.5-1.5-1.5H17c-.55 0-1 .45-1 1v3.9l1.04 1.04c.27-.11.46-.38.46-.69zm0-3.75h2v1h-2v-1zm-4.5 0v.4l1.5 1.5v-1.9c0-.82-.68-1.5-1.5-1.5h-1.9l1.5 1.5h.4zm8.03 10.53l-18-18c-.29-.29-.76-.29-1.05 0-.29.29-.29.76 0 1.05l4.98 4.98c-.27.11-.46.38-.46.69V11h-2V9.75c0-.41-.34-.75-.75-.75S3 9.34 3 9.75v4.5c0 .41.34.75.75.75s.75-.34.75-.75V12.5h2v1.75c0 .41.34.75.75.75s.75-.34.75-.75V10.1l1.5 1.5v2.9c0 .28.22.5.5.5h2.5c.12 0 .24-.01.36-.04l7.11 7.11c.29.29.76.29 1.05 0 .29-.28.29-.75.01-1.04z"/></symbol>
<symbol id="hdr_on" viewBox="0 0 24 24"><path d="M0 0h24v24H0V0z" fill="none"/><path d="M7.25 9c-.41 0-.75.34-.75.75V11h-2V9.75c0-.41-.34-.75-.75-.75S3 9.34 3 9.75v4.5c0 .41.34.75.75.75s.75-.34.75-.75V12.5h2v1.75c0 .41.34.75.75.75s.75-.34.75-.75v-4.5C8 9.34 7.66 9 7.25 9zM21 11.5v-1c0-.83-.67-1.5-1.5-1.5H17c-.55 0-1 .45-1 1v4.25c0 .41.34.75.75.75s.75-.34.75-.75V13h1.1l.72 1.59c.11.25.36.41.63.41.5 0 .83-.51.64-.96l-.49-1.14c.5-.3.9-.8.9-1.4zm-3.5 0v-1h2v1h-2zM13 9h-3c-.28 0-.5.22-.5.5v5c0 .28.22.5.5.5h3c.82 0 1.5-.68 1.5-1.5v-3c0-.82-.68-1.5-1.5-1.5zm0 4.5h-2v-3h2v3z"/></symbol>
<symbol id="hdr_strong" viewBox="0 0 24 24"><path d="M0 0h24v24H0V0z" fill="none"/><path d="M17 6c-3.31 0-6 2.69-6 6s2.69 6 6 6 6-2.69 6-6-2.69-6-6-6zM5 8c-2.21 0-4 1.79-4 4s1.79 4 4 4 4-1.79 4-4-1.79-4-4-4zm0 6c-1.1 0-2-.9-2-2s.9-2 2-2 2 .9 2 2-.9 2-2 2z"/></symbol>
<symbol id="hdr_weak" viewBox="0 0 24 24"><path d="M0 0h24v24H0V0z" fill="none"/><path d="M5 8c-2.21 0-4 1.79-4 4s1.79 4 4 4 4-1.79 4-4-1.79-4-4-4zm12-2c-3.31 0-6 2.69-6 6s2.69 6 6 6 6-2.69 6-6-2.69-6-6-6zm0 10c-2.21 0-4-1.79-4-4s1.79-4 4-4 4 1.79 4 4-1.79 4-4 4z"/></symbol>
<symbol id="healing" viewBox="0 0 24 24"><path d="M0 0h24v24H0V0z" fill="none"/><path d="M17.73 12.02l3.98-3.98c.39-.39.39-1.02 0-1.41l-4.34-4.34c-.39-.39-1.02-.39-1.41 0l-3.98 3.98L8 2.29C7.8 2.1 7.55 2 7.29 2c-.25 0-.51.1-.7.29L2.25 6.63c-.39.39-.39 1.02 0 1.41l3.98 3.98L2.25 16c-.39.39-.39 1.02 0 1.41l4.34 4.34c.39.39 1.02.39 1.41 0l3.98-3.98 3.98 3.98c.2.2.45.29.71.29.26 0 .51-.1.71-.29l4.34-4.34c.39-.39.39-1.02 0-1.41l-3.99-3.98zM12 9c.55 0 1 .45 1 1s-.45 1-1 1-1-.45-1-1 .45-1 1-1zm-4.71 1.96L3.66 7.34l3.63-3.63 3.62 3.62-3.62 3.63zM10 13c-.55 0-1-.45-1-1s.45-1 1-1 1 .45 1 1-.45 1-1 1zm2 2c-.55 0-1-.45-1-1s.45-1 1-1 1 .45 1 1-.45 1-1 1zm2-4c.55 0 1 .45 1 1s-.45 1-1 1-1-.45-1-1 .45-1 1-1zm2.66 9.34l-3.63-3.62 3.63-3.63 3.62 3.62-3.62 3.63z"/></symbol>
<symbol id="image" viewBox="0 0 24 24"><path d="M0 0h24v24H0V0z" fill="none"/><path d="M21 19V5c0-1.1-.9-2-2-2H5c-1.1 0-2 .9-2 2v14c0 1.1.9 2 2 2h14c1.1 0 2-.9 2-2zM8.9 13.98l2.1 2.53 3.1-3.99c.2-.26.6-.26.8.01l3.51 4.68c.25.33.01.8-.4.8H6.02c-.42 0-.65-.48-.39-.81L8.12 14c.19-.26.57-.27.78-.02z"/></symbol>
<symbol id="image_aspect_ratio" viewBox="0 0 24 24"><path d="M0 0h24v24H0z" fill="none"/><path d="M16 10h-2v2h2v-2zm0 4h-2v2h2v-2zm-8-4H6v2h2v-2zm4 0h-2v2h2v-2zm8-6H4c-1.1 0-2 .9-2 2v12c0 1.1.9 2 2 2h16c1.1 0 2-.9 2-2V6c0-1.1-.9-2-2-2zm-1 14H5c-.55 0-1-.45-1-1V7c0-.55.45-1 1-1h14c.55 0 1 .45 1 1v10c0 .55-.45 1-1 1z"/></symbol>
<symbol id="image_not_supported" viewBox="0 0 24 24"><g><rect fill="none" height="24" width="24"/><path d="M21.19,21.19l-0.78-0.78L18,18l-4.59-4.59L3.59,3.59v0L2.81,2.81c-0.39-0.39-1.02-0.39-1.41,0C1,3.2,1,3.83,1.39,4.22 L3,5.83V19c0,1.1,0.9,2,2,2h13.17l1.61,1.61c0.39,0.39,1.02,0.39,1.41,0C21.58,22.22,21.58,21.58,21.19,21.19z M6.02,18 c-0.42,0-0.65-0.48-0.39-0.81l2.49-3.2c0.2-0.25,0.58-0.26,0.78-0.01l2.1,2.53L12.17,15l3,3H6.02z M21,18.17L5.83,3H19 c1.1,0,2,0.9,2,2V18.17z"/></g></symbol>
<symbol id="image_search" viewBox="0 0 24 24"><path d="M0 0h24v24H0V0z" fill="none"/><path d="M18 15v4c0 .55-.45 1-1 1H5c-.55 0-1-.45-1-1V7c0-.55.45-1 1-1h3.02c.55 0 1-.45 1-1s-.45-1-1-1H4c-1.1 0-2 .9-2 2v14c0 1.1.9 2 2 2h14c1.1 0 2-.9 2-2v-5c0-.55-.45-1-1-1s-1 .45-1 1zm-2.5 3H6.52c-.42 0-.65-.48-.39-.81l1.74-2.23c.2-.25.58-.26.78-.01l1.56 1.88 2.35-3.02c.2-.26.6-.26.79.01l2.55 3.39c.25.32.01.79-.4.79zm3.8-9.11c.48-.77.75-1.67.69-2.66-.13-2.15-1.84-3.97-3.97-4.2C13.3 1.73 11 3.84 11 6.5c0 2.49 2.01 4.5 4.49 4.5.88 0 1.7-.26 2.39-.7l2.41 2.41c.39.39 1.03.39 1.42 0 .39-.39.39-1.03 0-1.42l-2.41-2.4zM15.5 9C14.12 9 13 7.88 13 6.5S14.12 4 15.5 4 18 5.12 18 6.5 16.88 9 15.5 9z"/></symbol>
<symbol id="iso" viewBox="0 0 24 24"><path d="M0 0h24v24H0V0z" fill="none"/><path d="M19 3H5c-1.1 0-2 .9-2 2v14c0 1.1.9 2 2 2h14c1.1 0 2-.9 2-2V5c0-1.1-.9-2-2-2zM6.25 7.5H7.5V6.25c0-.41.34-.75.75-.75s.75.34.75.75V7.5h1.25c.41 0 .75.34.75.75s-.34.75-.75.75H9v1.25c0 .41-.34.75-.75.75s-.75-.34-.75-.75V9H6.25c-.41 0-.75-.34-.75-.75s.34-.75.75-.75zM18 19H5L19 5v13c0 .55-.45 1-1 1zm-1-2.75c0-.41-.34-.75-.75-.75h-3.5c-.41 0-.75.34-.75.75s.34.75.75.75h3.5c.41 0 .75-.34.75-.75z"/></symbol>
<symbol id="landscape" viewBox="0 0 24 24"><path d="M0 0h24v24H0V0z" fill="none"/><path d="M13.2 7.07L10.25 11l2.25 3c.33.44.24 1.07-.2 1.4-.44.33-1.07.25-1.4-.2-1.05-1.4-2.31-3.07-3.1-4.14-.4-.53-1.2-.53-1.6 0l-4 5.33c-.49.67-.02 1.61.8 1.61h18c.82 0 1.29-.94.8-1.6l-7-9.33c-.4-.54-1.2-.54-1.6 0z"/></symbol>
<symbol id="leak_add" viewBox="0 0 24 24"><path d="M0 0h24v24H0V0z" fill="none"/><path d="M11.05 21c.5 0 .94-.37.99-.87.41-4.27 3.81-7.67 8.08-8.08.5-.05.88-.48.88-.99 0-.59-.51-1.06-1.1-1-5.19.52-9.32 4.65-9.84 9.83-.06.59.4 1.11.99 1.11zM18 21h3v-3c-1.66 0-3 1.34-3 3zm-2.91 0c.49 0 .9-.36.98-.85.36-2.08 2-3.72 4.08-4.08.49-.08.85-.49.85-.98 0-.61-.54-1.09-1.14-1-2.96.48-5.29 2.81-5.77 5.77-.1.6.39 1.14 1 1.14zM12.97 3.02c-.5 0-.94.37-.99.87-.41 4.27-3.81 7.67-8.08 8.08-.5.05-.88.48-.88.99 0 .59.51 1.06 1.1 1 5.19-.52 9.32-4.65 9.84-9.83.07-.58-.39-1.11-.99-1.11zm-6.94 0h-3v3c1.66 0 3-1.34 3-3zm2.91 0c-.49 0-.9.36-.98.85-.36 2.08-2 3.72-4.08 4.08-.49.09-.85.49-.85.99 0 .61.54 1.09 1.14 1 2.96-.48 5.29-2.81 5.77-5.77.09-.61-.4-1.15-1-1.15z"/></symbol>
<symbol id="leak_remove" viewBox="0 0 24 24"><path d="M0 0h24v24H0V0z" fill="none"/><path d="M20.12 12.04c.5-.05.88-.48.88-.99 0-.59-.51-1.06-1.1-1-1.5.15-2.9.61-4.16 1.3l1.48 1.48c.9-.41 1.87-.69 2.9-.79zm.88 3.05c0-.61-.54-1.09-1.14-1-.38.06-.75.16-1.11.28l1.62 1.62c.37-.15.63-.49.63-.9zM13.97 4.14c.06-.59-.4-1.11-1-1.11-.5 0-.94.37-.99.87-.1 1.03-.38 2.01-.79 2.91l1.48 1.48c.69-1.26 1.15-2.66 1.3-4.15zm-4.04.02c.1-.6-.39-1.14-1-1.14-.41 0-.75.26-.9.62l1.62 1.62c.13-.35.22-.72.28-1.1zm10.51 14.72L5.12 3.56c-.39-.39-1.02-.39-1.41 0-.39.39-.39 1.02 0 1.41l2.15 2.15c-.59.41-1.26.7-1.99.82-.48.1-.84.5-.84 1 0 .61.54 1.09 1.14 1 1.17-.19 2.23-.68 3.13-1.37L8.73 10c-1.34 1.1-3 1.82-4.81 1.99-.5.05-.88.48-.88.99 0 .59.51 1.06 1.1 1 2.28-.23 4.36-1.15 6.01-2.56l2.48 2.48c-1.4 1.65-2.33 3.72-2.56 6-.06.59.4 1.11 1 1.11.5 0 .94-.37.99-.87.18-1.82.9-3.48 1.99-4.82l1.43 1.43c-.69.9-1.18 1.96-1.37 3.13-.1.6.39 1.14 1 1.14.49 0 .9-.36.98-.85.12-.73.42-1.4.82-1.99l2.13 2.13c.39.39 1.02.39 1.41 0 .38-.41.38-1.04-.01-1.43z"/></symbol>
<symbol id="lens" viewBox="0 0 24 24"><path d="M0 0h24v24H0V0z" fill="none"/><path d="M12 2C6.48 2 2 6.48 2 12s4.48 10 10 10 10-4.48 10-10S17.52 2 12 2z"/></symbol>
<symbol id="linked_camera" viewBox="0 0 24 24"><path d="M0 0h24v24H0V0z" fill="none"/><circle cx="12" cy="14" r="3"/><path d="M16.6 3.37c2.1.27 3.77 1.93 4.03 4.03.04.34.32.6.66.6.39 0 .71-.34.66-.73-.33-2.72-2.5-4.89-5.22-5.22-.39-.05-.73.27-.73.66 0 .34.26.62.6.66zm2.63 3.82C18.93 6 18 5.07 16.81 4.77c-.41-.1-.81.22-.81.65 0 .29.19.57.48.64.72.18 1.29.74 1.46 1.46.07.29.34.48.64.48.43 0 .75-.4.65-.81zM17 9c0-1.1-.9-2-2-2V5c0-.55-.45-1-1-1H9.88c-.56 0-1.1.24-1.48.65L7.17 6H4c-1.1 0-2 .9-2 2v12c0 1.1.9 2 2 2h16c1.1 0 2-.9 2-2v-9c0-1.1-.9-2-2-2h-3zm-5 10c-2.76 0-5-2.24-5-5s2.24-5 5-5 5 2.24 5 5-2.24 5-5 5z"/></symbol>
<symbol id="looks" viewBox="0 0 24 24"><path d="M0 0h24v24H0V0z" fill="none"/><path d="M12 10c-3.47 0-6.36 2.54-6.91 5.86-.1.6.39 1.14 1 1.14.49 0 .9-.36.98-.85C7.48 13.79 9.53 12 12 12s4.52 1.79 4.93 4.15c.08.49.49.85.98.85.61 0 1.09-.54.99-1.14C18.36 12.54 15.47 10 12 10zm0-4C6.3 6 1.61 10.34 1.05 15.9c-.05.59.41 1.1 1.01 1.1.51 0 .94-.38.99-.88C3.49 11.57 7.34 8 12 8s8.51 3.57 8.96 8.12c.05.5.48.88.99.88.59 0 1.06-.51 1-1.1C22.39 10.34 17.7 6 12 6z"/></symbol>
<symbol id="looks_3" viewBox="0 0 24 24"><path d="M0 0h24v24H0V0z" fill="none"/><path d="M19 3H5.01c-1.1 0-2 .9-2 2v14c0 1.1.9 2 2 2H19c1.1 0 2-.9 2-2V5c0-1.1-.9-2-2-2zm-3.99 7.5c0 .83-.67 1.5-1.5 1.5.83 0 1.5.67 1.5 1.5V15c0 1.11-.9 2-2 2H10c-.55 0-1-.45-1-1s.45-1 1-1h3.01L13 13h-1c-.55 0-1-.45-1-1s.45-1 1-1h1l.01-2H10c-.55 0-.99-.45-.99-1s.44-1 .99-1h3.01c1.1 0 2 .9 2 2v1.5z"/></symbol>
<symbol id="looks_4" viewBox="0 0 24 24"><path d="M.04 0h24v24h-24V0z" fill="none"/><path d="M19.04 3h-14c-1.1 0-2 .9-2 2v14c0 1.1.9 2 2 2h14c1.1 0 2-.9 2-2V5c0-1.1-.9-2-2-2zm-5 14c-.55 0-1-.45-1-1v-3h-3c-.55 0-1-.45-1-1V8c0-.55.45-1 1-1s1 .45 1 1v3h2V8c0-.55.45-1 1-1s1 .45 1 1v8c0 .55-.45 1-1 1z"/></symbol>
<symbol id="looks_5" viewBox="0 0 24 24"><path d="M0 0h24v24H0V0z" fill="none"/><path d="M19 3H5c-1.1 0-2 .9-2 2v14c0 1.1.9 2 2 2h14c1.1 0 2-.9 2-2V5c0-1.1-.9-2-2-2zm-5 6h-3v2h2c1.1 0 2 .9 2 2v2c0 1.11-.9 2-2 2h-3c-.55 0-1-.45-1-1s.45-1 1-1h3v-2h-3c-.55 0-1-.45-1-1V8c0-.55.45-1 1-1h4c.55 0 1 .45 1 1s-.45 1-1 1z"/></symbol>
<symbol id="looks_6" viewBox="0 0 24 24"><path d="M0 0h24v24H0V0z" fill="none"/><path d="M11 15h2v-2h-2v2zm8-12H5c-1.1 0-2 .9-2 2v14c0 1.1.9 2 2 2h14c1.1 0 2-.9 2-2V5c0-1.1-.9-2-2-2zm-5 6h-3v2h2c1.1 0 2 .9 2 2v2c0 1.11-.9 2-2 2h-2c-1.1 0-2-.89-2-2V9c0-1.1.9-2 2-2h3c.55 0 1 .45 1 1s-.45 1-1 1z"/></symbol>
<symbol id="looks_one" viewBox="0 0 24 24"><path d="M0 0h24v24H0V0z" fill="none"/><path d="M19 3H5c-1.1 0-2 .9-2 2v14c0 1.1.9 2 2 2h14c1.1 0 2-.9 2-2V5c0-1.1-.9-2-2-2zm-6 14c-.55 0-1-.45-1-1V9h-1c-.55 0-1-.45-1-1s.45-1 1-1h2c.55 0 1 .45 1 1v8c0 .55-.45 1-1 1z"/></symbol>
<symbol id="looks_two" viewBox="0 0 24 24"><path d="M0 0h24v24H0V0z" fill="none"/><path d="M19 3H5c-1.1 0-2 .9-2 2v14c0 1.1.9 2 2 2h14c1.1 0 2-.9 2-2V5c0-1.1-.9-2-2-2zm-4 8c0 1.1-.9 2-2 2h-2v2h3c.55 0 1 .45 1 1s-.45 1-1 1h-4c-.55 0-1-.45-1-1v-3c0-1.1.9-2 2-2h2V9h-3c-.55 0-1-.45-1-1s.45-1 1-1h3c1.1 0 2 .9 2 2v2z"/></symbol>
<symbol id="loupe" viewBox="0 0 24 24"><path d="M0 0h24v24H0V0z" fill="none"/><path d="M12 7c-.55 0-1 .45-1 1v3H8c-.55 0-1 .45-1 1s.45 1 1 1h3v3c0 .55.45 1 1 1s1-.45 1-1v-3h3c.55 0 1-.45 1-1s-.45-1-1-1h-3V8c0-.55-.45-1-1-1zm0-5C6.49 2 2 6.49 2 12s4.49 10 10 10h8c1.1 0 2-.9 2-2v-8c0-5.51-4.49-10-10-10zm0 18c-4.41 0-8-3.59-8-8s3.59-8 8-8 8 3.59 8 8-3.59 8-8 8z"/></symbol>
<symbol id="monochrome_photos" viewBox="0 0 24 24"><path d="M0 0h24v24H0V0z" fill="none"/><path d="M20 5h-3.2l-1.2-1.34c-.38-.42-.92-.66-1.49-.66H9.89c-.57 0-1.11.24-1.49.66L7.2 5H4c-1.1 0-2 .9-2 2v12c0 1.1.9 2 2 2h16c1.1 0 2-.9 2-2V7c0-1.1-.9-2-2-2zm0 13c0 .55-.45 1-1 1h-7v-1c-2.8 0-5-2.2-5-5s2.2-5 5-5V7h7c.55 0 1 .45 1 1v10zm-3-5c0-2.8-2.2-5-5-5v1.8c1.8 0 3.2 1.4 3.2 3.2s-1.4 3.2-3.2 3.2V18c2.8 0 5-2.2 5-5zm-8.2 0c0 1.8 1.4 3.2 3.2 3.2V9.8c-1.8 0-3.2 1.4-3.2 3.2z"/></symbol>
<symbol id="motion_photos_on" viewBox="0 0 24 24"><g><rect fill="none" height="24" width="24" x="0" y="0"/><path d="M10,15.5v-7c0-0.41,0.47-0.65,0.8-0.4l4.67,3.5c0.27,0.2,0.27,0.6,0,0.8l-4.67,3.5C10.47,16.15,10,15.91,10,15.5z M21.96,11.05c0.58,6.26-4.64,11.48-10.9,10.9c-4.43-0.41-8.12-3.85-8.9-8.23C1.9,12.3,1.97,10.94,2.28,9.68 c0.14-0.58,0.76-0.9,1.31-0.7l0,0c0.47,0.17,0.75,0.67,0.63,1.16c-0.2,0.82-0.27,1.7-0.19,2.61c0.37,4.04,3.89,7.25,7.95,7.26 c4.79,0.01,8.61-4.21,7.94-9.12c-0.51-3.7-3.66-6.62-7.39-6.86c-0.83-0.06-1.63,0.02-2.38,0.2C9.66,4.34,9.16,4.07,8.99,3.59l0,0 c-0.2-0.56,0.12-1.17,0.69-1.31c1.79-0.43,3.75-0.41,5.78,0.37C19.02,4,21.61,7.27,21.96,11.05z M5.5,4C4.67,4,4,4.67,4,5.5 S4.67,7,5.5,7S7,6.33,7,5.5S6.33,4,5.5,4z"/></g></symbol>
<symbol id="motion_photos_pause" viewBox="0 0 24 24"><rect fill="none" height="24" width="24"/><path d="M21.96,11.05c0.58,6.26-4.64,11.48-10.9,10.9c-4.43-0.41-8.12-3.85-8.9-8.23C1.9,12.3,1.97,10.94,2.28,9.68 c0.14-0.58,0.76-0.9,1.31-0.7l0,0c0.47,0.17,0.75,0.67,0.63,1.16c-0.2,0.82-0.27,1.7-0.19,2.61c0.37,4.04,3.89,7.25,7.95,7.26 c4.79,0.01,8.61-4.21,7.94-9.12c-0.51-3.7-3.66-6.62-7.39-6.86c-0.83-0.06-1.63,0.02-2.38,0.2C9.66,4.34,9.16,4.07,8.99,3.59l0,0 c-0.2-0.56,0.12-1.17,0.69-1.31c1.79-0.43,3.75-0.41,5.78,0.37C19.02,4,21.61,7.27,21.96,11.05z M5.5,4C4.67,4,4,4.67,4,5.5 S4.67,7,5.5,7S7,6.33,7,5.5S6.33,4,5.5,4z M18,12c0,3.31-2.69,6-6,6s-6-2.69-6-6s2.69-6,6-6S18,8.69,18,12z M10,9L10,9 c-0.55,0-1,0.45-1,1v4c0,0.55,0.45,1,1,1h0c0.55,0,1-0.45,1-1v-4C11,9.45,10.55,9,10,9z M14,9L14,9c-0.55,0-1,0.45-1,1v4 c0,0.55,0.45,1,1,1h0c0.55,0,1-0.45,1-1v-4C15,9.45,14.55,9,14,9z"/></symbol>
<symbol id="motion_photos_paused" viewBox="0 0 24 24"><g><rect fill="none" height="24" width="24"/><path d="M21.96,11.05c0.58,6.26-4.64,11.48-10.9,10.9c-4.43-0.41-8.12-3.85-8.9-8.23C1.9,12.3,1.97,10.94,2.28,9.68 c0.14-0.58,0.76-0.9,1.31-0.7l0,0c0.47,0.17,0.75,0.67,0.63,1.16c-0.2,0.82-0.27,1.7-0.19,2.61c0.37,4.04,3.89,7.25,7.95,7.26 c4.79,0.01,8.61-4.21,7.94-9.12c-0.51-3.7-3.66-6.62-7.39-6.86c-0.83-0.06-1.63,0.02-2.38,0.2C9.66,4.34,9.16,4.07,8.99,3.59l0,0 c-0.2-0.56,0.12-1.17,0.69-1.31c1.79-0.43,3.75-0.41,5.78,0.37C19.02,4,21.61,7.27,21.96,11.05z M5.5,4C4.67,4,4,4.67,4,5.5 S4.67,7,5.5,7S7,6.33,7,5.5S6.33,4,5.5,4z M11,15V9c0-0.55-0.45-1-1-1h0C9.45,8,9,8.45,9,9v6c0,0.55,0.45,1,1,1h0 C10.55,16,11,15.55,11,15z M15,15V9c0-0.55-0.45-1-1-1h0c-0.55,0-1,0.45-1,1v6c0,0.55,0.45,1,1,1h0C14.55,16,15,15.55,15,15z"/></g></symbol>
<symbol id="movie_creation" viewBox="0 0 24 24"><path d="M0 0h24v24H0V0z" fill="none"/><path d="M18 4l1.82 3.64c.08.16-.04.36-.22.36h-1.98c-.38 0-.73-.21-.89-.55L15 4h-2l1.82 3.64c.08.16-.04.36-.22.36h-1.98c-.38 0-.73-.21-.89-.55L10 4H8l1.82 3.64c.08.16-.04.36-.22.36H7.62c-.38 0-.73-.21-.9-.55L5 4H4c-1.1 0-2 .9-2 2v12c0 1.1.9 2 2 2h16c1.1 0 2-.9 2-2V5c0-.55-.45-1-1-1h-3z"/></symbol>
<symbol id="movie_filter" viewBox="0 0 24 24"><path d="M0 0h24v24H0V0z" fill="none"/><path d="M21.5 4H18l1.74 2.61c.11.17-.01.39-.21.39h-2c-.33 0-.65-.17-.83-.45L15 4h-2l1.74 2.61c.11.17-.01.39-.21.39h-2c-.33 0-.65-.17-.83-.45L10 4H8l1.74 2.61c.11.17-.01.39-.21.39h-2c-.33 0-.64-.17-.83-.45L5 4H4c-1.1 0-1.99.9-1.99 2L2 18c0 1.1.9 2 2 2h16c1.1 0 2-.9 2-2V4.5c0-.28-.22-.5-.5-.5zM11.25 15.25L10 18l-1.25-2.75L6 14l2.75-1.25L10 10l1.25 2.75L14 14l-2.75 1.25zm5.69-3.31L16 14l-.94-2.06L13 11l2.06-.94L16 8l.94 2.06L19 11l-2.06.94z"/></symbol>
<symbol id="music_note" viewBox="0 0 24 24"><path d="M0 0h24v24H0V0z" fill="none"/><path d="M12 5v8.55c-.94-.54-2.1-.75-3.33-.32-1.34.48-2.37 1.67-2.61 3.07-.46 2.74 1.86 5.08 4.59 4.65 1.96-.31 3.35-2.11 3.35-4.1V7h2c1.1 0 2-.9 2-2s-.9-2-2-2h-2c-1.1 0-2 .9-2 2z"/></symbol>
<symbol id="music_off" viewBox="0 0 24 24"><path d="M0 0h24v24H0V0z" fill="none"/><path d="M14 9.61V7h2c1.1 0 2-.9 2-2s-.9-2-2-2h-3c-.55 0-1 .45-1 1v3.61l2 2zM5.12 3.56c-.39-.39-1.02-.39-1.41 0-.39.39-.39 1.02 0 1.41l8.29 8.3v.28c-.94-.54-2.1-.75-3.33-.32-1.34.48-2.37 1.67-2.61 3.07-.46 2.74 1.86 5.08 4.59 4.65 1.96-.31 3.35-2.11 3.35-4.1v-1.58l5.02 5.02c.39.39 1.02.39 1.41 0 .39-.39.39-1.02 0-1.41L5.12 3.56z"/></symbol>
<symbol id="nature" viewBox="0 0 24 24"><path d="M0 0h24v24H0V0z" fill="none"/><path d="M13 16.12c3.37-.4 6.01-3.19 6.16-6.64.17-3.87-3.02-7.25-6.89-7.31-3.92-.05-7.1 3.1-7.1 7 0 3.47 2.52 6.34 5.83 6.89V20H6c-.55 0-1 .45-1 1s.45 1 1 1h12c.55 0 1-.45 1-1s-.45-1-1-1h-5v-3.88z"/></symbol>
<symbol id="nature_people" viewBox="0 0 24 24"><path d="M0 0h24v24H0V0z" fill="none"/><circle cx="4.5" cy="9.5" r="1.5"/><path d="M22.17 9.17c0-3.91-3.19-7.06-7.11-7-3.83.06-6.99 3.37-6.88 7.19.09 3.38 2.58 6.16 5.83 6.7V20H6v-3h.5c.28 0 .5-.22.5-.5V13c0-.55-.45-1-1-1H3c-.55 0-1 .45-1 1v3.5c0 .28.22.5.5.5H3v4c0 .55.45 1 1 1h14c.55 0 1-.45 1-1s-.45-1-1-1h-2v-3.88c3.47-.41 6.17-3.36 6.17-6.95z"/></symbol>
<symbol id="navigate_before" viewBox="0 0 24 24"><path d="M0 0h24v24H0V0z" fill="none"/><path d="M14.91 6.71c-.39-.39-1.02-.39-1.41 0L8.91 11.3c-.39.39-.39 1.02 0 1.41l4.59 4.59c.39.39 1.02.39 1.41 0 .39-.39.39-1.02 0-1.41L11.03 12l3.88-3.88c.38-.39.38-1.03 0-1.41z"/></symbol>
<symbol id="navigate_next" viewBox="0 0 24 24"><path d="M0 0h24v24H0V0z" fill="none"/><path d="M9.31 6.71c-.39.39-.39 1.02 0 1.41L13.19 12l-3.88 3.88c-.39.39-.39 1.02 0 1.41.39.39 1.02.39 1.41 0l4.59-4.59c.39-.39.39-1.02 0-1.41L10.72 6.7c-.38-.38-1.02-.38-1.41.01z"/></symbol>
<symbol id="palette" viewBox="0 0 24 24"><path d="M0 0h24v24H0V0z" fill="none"/><path d="M12 3c-4.97 0-9 4.03-9 9s4.03 9 9 9c.83 0 1.5-.67 1.5-1.5 0-.39-.15-.74-.39-1.01-.23-.26-.38-.61-.38-.99 0-.83.67-1.5 1.5-1.5H16c2.76 0 5-2.24 5-5 0-4.42-4.03-8-9-8zm-5.5 9c-.83 0-1.5-.67-1.5-1.5S5.67 9 6.5 9 8 9.67 8 10.5 7.33 12 6.5 12zm3-4C8.67 8 8 7.33 8 6.5S8.67 5 9.5 5s1.5.67 1.5 1.5S10.33 8 9.5 8zm5 0c-.83 0-1.5-.67-1.5-1.5S13.67 5 14.5 5s1.5.67 1.5 1.5S15.33 8 14.5 8zm3 4c-.83 0-1.5-.67-1.5-1.5S16.67 9 17.5 9s1.5.67 1.5 1.5-.67 1.5-1.5 1.5z"/></symbol>
<symbol id="panorama" viewBox="0 0 24 24"><path d="M0 0h24v24H0V0z" fill="none"/><path d="M23 18V6c0-1.1-.9-2-2-2H3c-1.1 0-2 .9-2 2v12c0 1.1.9 2 2 2h18c1.1 0 2-.9 2-2zM8.9 12.98l2.1 2.53 3.1-3.99c.2-.26.6-.26.8.01l3.51 4.68c.25.33.01.8-.4.8H6.02c-.42 0-.65-.48-.39-.81L8.12 13c.19-.26.57-.27.78-.02z"/></symbol>
<symbol id="panorama_fish_eye" viewBox="0 0 24 24"><path d="M0 0h24v24H0V0z" fill="none"/><path d="M12 2C6.47 2 2 6.47 2 12s4.47 10 10 10 10-4.47 10-10S17.53 2 12 2zm0 18c-4.41 0-8-3.59-8-8s3.59-8 8-8 8 3.59 8 8-3.59 8-8 8z"/></symbol>
<symbol id="panorama_horizontal" viewBox="0 0 24 24"><path d="M0 0h24v24H0V0z" fill="none"/><path d="M20 6.54v10.91c-2.6-.77-5.28-1.16-8-1.16s-5.4.39-8 1.16V6.54c2.6.77 5.28 1.16 8 1.16 2.72.01 5.4-.38 8-1.16M21.43 4c-.1 0-.2.02-.31.06C18.18 5.16 15.09 5.7 12 5.7s-6.18-.55-9.12-1.64C2.77 4.02 2.66 4 2.57 4c-.34 0-.57.23-.57.63v14.75c0 .39.23.62.57.62.1 0 .2-.02.31-.06 2.94-1.1 6.03-1.64 9.12-1.64s6.18.55 9.12 1.64c.11.04.21.06.31.06.33 0 .57-.23.57-.63V4.63c0-.4-.24-.63-.57-.63z"/></symbol>
<symbol id="panorama_vertical" viewBox="0 0 24 24"><path d="M0 0h24v24H0V0z" fill="none"/><path d="M19.94 21.12c-1.1-2.94-1.64-6.03-1.64-9.12s.55-6.18 1.64-9.12c.04-.11.06-.22.06-.31 0-.34-.23-.57-.63-.57H4.63c-.4 0-.63.23-.63.57 0 .1.02.2.06.31C5.16 5.82 5.71 8.91 5.71 12s-.55 6.18-1.64 9.12c-.05.11-.07.22-.07.31 0 .33.23.57.63.57h14.75c.39 0 .63-.24.63-.57-.01-.1-.03-.2-.07-.31zM6.54 20c.77-2.6 1.16-5.28 1.16-8s-.39-5.4-1.16-8h10.91c-.77 2.6-1.16 5.28-1.16 8s.39 5.4 1.16 8H6.54z"/></symbol>
<symbol id="panorama_wide_angle" viewBox="0 0 24 24"><path d="M0 0h24v24H0V0z" fill="none"/><path d="M12 6c2.45 0 4.71.2 7.29.64.47 1.78.71 3.58.71 5.36s-.24 3.58-.71 5.36c-2.58.44-4.84.64-7.29.64s-4.71-.2-7.29-.64C4.24 15.58 4 13.78 4 12s.24-3.58.71-5.36C7.29 6.2 9.55 6 12 6m0-2c-2.73 0-5.22.24-7.95.72l-.93.16-.25.9C2.29 7.85 2 9.93 2 12s.29 4.15.87 6.22l.25.89.93.16c2.73.49 5.22.73 7.95.73s5.22-.24 7.95-.72l.93-.16.25-.89c.58-2.08.87-4.16.87-6.23s-.29-4.15-.87-6.22l-.25-.89-.93-.16C17.22 4.24 14.73 4 12 4z"/></symbol>
<symbol id="photo" viewBox="0 0 24 24"><path d="M0 0h24v24H0V0z" fill="none"/><path d="M21 19V5c0-1.1-.9-2-2-2H5c-1.1 0-2 .9-2 2v14c0 1.1.9 2 2 2h14c1.1 0 2-.9 2-2zM8.9 13.98l2.1 2.53 3.1-3.99c.2-.26.6-.26.8.01l3.51 4.68c.25.33.01.8-.4.8H6.02c-.42 0-.65-.48-.39-.81L8.12 14c.19-.26.57-.27.78-.02z"/></symbol>
<symbol id="photo_album" viewBox="0 0 24 24"><path d="M0 0h24v24H0V0z" fill="none"/><path d="M18 2H6c-1.1 0-2 .9-2 2v16c0 1.1.9 2 2 2h12c1.1 0 2-.9 2-2V4c0-1.1-.9-2-2-2zM6 4h5v8l-2.5-1.5L6 12V4zm.63 14.19l1.99-2.56c.2-.25.58-.26.78-.01l1.74 2.1 2.6-3.34c.2-.26.6-.26.79.01l2.87 3.82c.25.33.01.8-.4.8H7.02c-.41-.01-.65-.49-.39-.82z"/></symbol>
<symbol id="photo_camera" viewBox="0 0 24 24"><path d="M0 0h24v24H0V0z" fill="none"/><circle cx="12" cy="12" r="3"/><path d="M20 4h-3.17l-1.24-1.35c-.37-.41-.91-.65-1.47-.65H9.88c-.56 0-1.1.24-1.48.65L7.17 4H4c-1.1 0-2 .9-2 2v12c0 1.1.9 2 2 2h16c1.1 0 2-.9 2-2V6c0-1.1-.9-2-2-2zm-8 13c-2.76 0-5-2.24-5-5s2.24-5 5-5 5 2.24 5 5-2.24 5-5 5z"/></symbol>
<symbol id="photo_filter" viewBox="0 0 24 24"><path d="M0 0h24v24H0V0z" fill="none"/><path d="M19.02 10.99V18c0 .55-.45 1-1 1H6c-.55 0-1-.45-1-1V6c0-.55.45-1 1-1h7c.55 0 1-.45 1-1s-.45-1-1-1H5.02c-1.1 0-2 .9-2 2v14c0 1.1.9 2 2 2H19c1.1 0 2-.89 2-2v-8.01c0-.55-.44-.99-.99-.99s-.99.44-.99.99zm-5.77-.24L12.46 9c-.18-.39-.73-.39-.91 0l-.79 1.75-1.76.79c-.39.18-.39.73 0 .91l1.75.79.79 1.76c.18.39.73.39.91 0l.79-1.75 1.76-.79c.39-.18.39-.73 0-.91l-1.75-.8zm4.69-4.69l-.6-1.32c-.13-.29-.55-.29-.69 0l-.6 1.32-1.32.6c-.29.13-.29.55 0 .69l1.32.6.6 1.32c.13.29.55.29.69 0l.6-1.32 1.32-.6c.29-.13.29-.55 0-.69l-1.32-.6z"/></symbol>
<symbol id="photo_library" viewBox="0 0 24 24"><path d="M0 0h24v24H0V0z" fill="none"/><path d="M22 16V4c0-1.1-.9-2-2-2H8c-1.1 0-2 .9-2 2v12c0 1.1.9 2 2 2h12c1.1 0 2-.9 2-2zm-10.6-3.47l1.63 2.18 2.58-3.22c.2-.25.58-.25.78 0l2.96 3.7c.26.33.03.81-.39.81H9c-.41 0-.65-.47-.4-.8l2-2.67c.2-.26.6-.26.8 0zM2 7v13c0 1.1.9 2 2 2h13c.55 0 1-.45 1-1s-.45-1-1-1H5c-.55 0-1-.45-1-1V7c0-.55-.45-1-1-1s-1 .45-1 1z"/></symbol>
<symbol id="photo_size_select_actual" viewBox="0 0 24 24"><path d="M0 0h24v24H0V0z" fill="none"/><path d="M21 3H3C2 3 1 4 1 5v14c0 1.1.9 2 2 2h18c1 0 2-1 2-2V5c0-1-1-2-2-2zM5.63 16.19l2.49-3.2c.2-.25.58-.26.78-.01l2.1 2.53 3.1-3.99c.2-.26.6-.26.8.01l3.51 4.68c.25.33.01.8-.4.8H6.02c-.41-.01-.65-.49-.39-.82z"/></symbol>
<symbol id="photo_size_select_large" viewBox="0 0 24 24"><path d="M0 0h24v24H0V0z" fill="none"/><path d="M21 15h2v2h-2v-2zm0-4h2v2h-2v-2zm2 8h-2v2c1 0 2-1 2-2zM13 3h2v2h-2V3zm8 4h2v2h-2V7zm0-4v2h2c0-1-1-2-2-2zM1 7h2v2H1V7zm16-4h2v2h-2V3zm0 16h2v2h-2v-2zM3 3C2 3 1 4 1 5h2V3zm6 0h2v2H9V3zM5 3h2v2H5V3zm-4 8v8c0 1.1.9 2 2 2h12v-8c0-1.1-.9-2-2-2H1zm2.63 7.19l1.49-1.91c.2-.25.57-.26.78-.01l1.39 1.67 2.1-2.7c.2-.26.6-.26.79.01l2.22 2.96c.25.33.01.8-.4.8H4.02c-.41-.01-.65-.49-.39-.82z"/></symbol>
<symbol id="photo_size_select_small" viewBox="0 0 24 24"><path d="M0 0h24v24H0V0z" fill="none"/><path d="M23 15h-2v2h2v-2zm0-4h-2v2h2v-2zm0 8h-2v2c1 0 2-1 2-2zM15 3h-2v2h2V3zm8 4h-2v2h2V7zm-2-4v2h2c0-1-1-2-2-2zM3 21h8v-4c0-1.1-.9-2-2-2H1v4c0 1.1.9 2 2 2zM3 7H1v2h2V7zm12 12h-2v2h2v-2zm4-16h-2v2h2V3zm0 16h-2v2h2v-2zM3 3C2 3 1 4 1 5h2V3zm0 8H1v2h2v-2zm8-8H9v2h2V3zM7 3H5v2h2V3z"/></symbol>
<symbol id="picture_as_pdf" viewBox="0 0 24 24"><path d="M0 0h24v24H0V0z" fill="none"/><path d="M20 2H8c-1.1 0-2 .9-2 2v12c0 1.1.9 2 2 2h12c1.1 0 2-.9 2-2V4c0-1.1-.9-2-2-2zm-8.5 7.5c0 .83-.67 1.5-1.5 1.5H9v1.25c0 .41-.34.75-.75.75s-.75-.34-.75-.75V8c0-.55.45-1 1-1H10c.83 0 1.5.67 1.5 1.5v1zm5 2c0 .83-.67 1.5-1.5 1.5h-2c-.28 0-.5-.22-.5-.5v-5c0-.28.22-.5.5-.5h2c.83 0 1.5.67 1.5 1.5v3zm4-3.75c0 .41-.34.75-.75.75H19v1h.75c.41 0 .75.34.75.75s-.34.75-.75.75H19v1.25c0 .41-.34.75-.75.75s-.75-.34-.75-.75V8c0-.55.45-1 1-1h1.25c.41 0 .75.34.75.75zM9 9.5h1v-1H9v1zM3 6c-.55 0-1 .45-1 1v13c0 1.1.9 2 2 2h13c.55 0 1-.45 1-1s-.45-1-1-1H5c-.55 0-1-.45-1-1V7c0-.55-.45-1-1-1zm11 5.5h1v-3h-1v3z"/></symbol>
<symbol id="portrait" viewBox="0 0 24 24"><path d="M0 0h24v24H0V0z" fill="none"/><path d="M12 12.25c1.24 0 2.25-1.01 2.25-2.25S13.24 7.75 12 7.75 9.75 8.76 9.75 10s1.01 2.25 2.25 2.25zm4.5 4c0-1.5-3-2.25-4.5-2.25s-4.5.75-4.5 2.25V17h9v-.75zM19 3H5c-1.1 0-2 .9-2 2v14c0 1.1.9 2 2 2h14c1.1 0 2-.9 2-2V5c0-1.1-.9-2-2-2zm-1 16H6c-.55 0-1-.45-1-1V6c0-.55.45-1 1-1h12c.55 0 1 .45 1 1v12c0 .55-.45 1-1 1z"/></symbol>
<symbol id="receipt_long" viewBox="0 0 24 24"><path d="M0,0h24v24H0V0z" fill="none"/><g><path d="M14,9h-4C9.45,9,9,8.55,9,8v0c0-0.55,0.45-1,1-1h4c0.55,0,1,0.45,1,1v0C15,8.55,14.55,9,14,9z"/><path d="M14,12h-4c-0.55,0-1-0.45-1-1v0c0-0.55,0.45-1,1-1h4c0.55,0,1,0.45,1,1v0C15,11.55,14.55,12,14,12z"/><path d="M19.5,3.5L18,2l-1.5,1.5L15,2l-1.5,1.5L12,2l-1.5,1.5L9,2L7.5,3.5L6,2v14H4c-0.55,0-1,0.45-1,1v2c0,1.66,1.34,3,3,3h12 c1.66,0,3-1.34,3-3V2L19.5,3.5z M15,20H6c-0.55,0-1-0.45-1-1v-1h3h4h3V20z M19,19c0,0.55-0.45,1-1,1s-1-0.45-1-1v-2 c0-0.55-0.45-1-1-1h-2h-2H8V5h11V19z"/><circle cx="17" cy="8" r="1"/><circle cx="17" cy="11" r="1"/></g></symbol>
<symbol id="remove_red_eye" viewBox="0 0 24 24"><path d="M0 0h24v24H0V0z" fill="none"/><path d="M12 4.5C7 4.5 2.73 7.61 1 12c1.73 4.39 6 7.5 11 7.5s9.27-3.11 11-7.5c-1.73-4.39-6-7.5-11-7.5zM12 17c-2.76 0-5-2.24-5-5s2.24-5 5-5 5 2.24 5 5-2.24 5-5 5zm0-8c-1.66 0-3 1.34-3 3s1.34 3 3 3 3-1.34 3-3-1.34-3-3-3z"/></symbol>
<symbol id="rotate_90_degrees_ccw" viewBox="0 0 24 24"><path d="M0 0h24v24H0V0z" fill="none"/><path d="M5.93 7.83l-3.65 3.66c-.78.78-.78 2.05 0 2.83l3.66 3.66c.78.78 2.05.78 2.83 0l3.66-3.65c.78-.78.78-2.05 0-2.83L8.76 7.82c-.79-.78-2.05-.78-2.83.01zM4.4 12.19l2.25-2.25c.39-.39 1.02-.39 1.42 0l2.24 2.24c.39.39.39 1.02 0 1.41l-2.25 2.25c-.39.39-1.02.39-1.42 0L4.4 13.61c-.39-.39-.39-1.03 0-1.42zm14.96-5.55C17.61 4.88 15.3 4 13 4v-.83c0-.89-1.08-1.34-1.71-.71L9.47 4.29c-.39.39-.39 1.02 0 1.41l1.83 1.83c.62.63 1.7.19 1.7-.7V6c2.02 0 4.03.86 5.45 2.61 2.05 2.52 2.05 6.27 0 8.79C17.03 19.14 15.02 20 13 20c-.78 0-1.55-.13-2.29-.39-.36-.12-.75-.01-1.02.26-.5.5-.34 1.39.34 1.62.96.34 1.96.51 2.97.51 2.3 0 4.61-.88 6.36-2.64 3.52-3.51 3.52-9.21 0-12.72z"/></symbol>
<symbol id="rotate_left" viewBox="0 0 24 24"><path d="M0 0h24v24H0V0z" fill="none"/><path d="M6.56 7.98C6.1 7.52 5.31 7.6 5 8.17c-.28.51-.5 1.03-.67 1.58-.19.63.31 1.25.96 1.25h.01c.43 0 .82-.28.94-.7.12-.4.28-.79.48-1.17.22-.37.15-.84-.16-1.15zM5.31 13h-.02c-.65 0-1.15.62-.96 1.25.16.54.38 1.07.66 1.58.31.57 1.11.66 1.57.2.3-.31.38-.77.17-1.15-.2-.37-.36-.76-.48-1.16-.12-.44-.51-.72-.94-.72zm2.85 6.02c.51.28 1.04.5 1.59.66.62.18 1.24-.32 1.24-.96v-.03c0-.43-.28-.82-.7-.94-.4-.12-.78-.28-1.15-.48-.38-.21-.86-.14-1.16.17l-.03.03c-.45.45-.36 1.24.21 1.55zM13 4.07v-.66c0-.89-1.08-1.34-1.71-.71L9.17 4.83c-.4.4-.4 1.04 0 1.43l2.13 2.08c.63.62 1.7.17 1.7-.72V6.09c2.84.48 5 2.94 5 5.91 0 2.73-1.82 5.02-4.32 5.75-.41.12-.68.51-.68.94v.02c0 .65.61 1.14 1.23.96C17.57 18.71 20 15.64 20 12c0-4.08-3.05-7.44-7-7.93z"/></symbol>
<symbol id="rotate_right" viewBox="0 0 24 24"><path d="M0 0h24v24H0V0z" fill="none"/><path d="M14.83 4.83L12.7 2.7c-.62-.62-1.7-.18-1.7.71v.66C7.06 4.56 4 7.92 4 12c0 3.64 2.43 6.71 5.77 7.68.62.18 1.23-.32 1.23-.96v-.03c0-.43-.27-.82-.68-.94C7.82 17.03 6 14.73 6 12c0-2.97 2.16-5.43 5-5.91v1.53c0 .89 1.07 1.33 1.7.71l2.13-2.08c.4-.38.4-1.02 0-1.42zm4.84 4.93c-.16-.55-.38-1.08-.66-1.59-.31-.57-1.1-.66-1.56-.2l-.01.01c-.31.31-.38.78-.17 1.16.2.37.36.76.48 1.16.12.42.51.7.94.7h.02c.65 0 1.15-.62.96-1.24zM13 18.68v.02c0 .65.62 1.14 1.24.96.55-.16 1.08-.38 1.59-.66.57-.31.66-1.1.2-1.56l-.02-.02c-.31-.31-.78-.38-1.16-.17-.37.21-.76.37-1.16.49-.41.12-.69.51-.69.94zm4.44-2.65c.46.46 1.25.37 1.56-.2.28-.51.5-1.04.67-1.59.18-.62-.31-1.24-.96-1.24h-.02c-.44 0-.82.28-.94.7-.12.4-.28.79-.48 1.17-.21.38-.13.86.17 1.16z"/></symbol>
<symbol id="shutter_speed" viewBox="0 0 24 24"><path d="M0 0h24v24H0V0z" fill="none"/><path d="M10 3h4c.55 0 1-.45 1-1s-.45-1-1-1h-4c-.55 0-1 .45-1 1s.45 1 1 1zm9.03 4.39l.75-.75c.38-.38.39-1.01 0-1.4l-.01-.01c-.39-.39-1.01-.38-1.4 0l-.75.75C16.07 4.74 14.12 4 12 4c-4.8 0-8.88 3.96-9 8.76C2.87 17.84 6.94 22 12 22c4.98 0 9-4.03 9-9 0-2.12-.74-4.07-1.97-5.61zM12 20c-3.87 0-7-3.13-7-7s3.13-7 7-7 7 3.13 7 7-3.13 7-7 7zm-1.19-5h-3.7c-.38 0-.62.4-.45.74.56 1.12 1.44 2.01 2.57 2.57.23.11.52.02.65-.21l1.37-2.35c.19-.33-.05-.75-.44-.75zm3.92-7.35c-.23-.12-.52-.02-.65.2l-1.38 2.39c-.2.34.04.76.43.76h3.76c.38 0 .62-.4.45-.73-.58-1.13-1.49-2.04-2.61-2.62zm-.85 7.05c-.19-.34-.68-.35-.87-.01l-2.04 3.52c-.18.32.02.72.39.75 1.34.14 2.69-.18 3.83-.89.22-.14.28-.43.16-.66l-1.47-2.71zm-3.57-1.47L7.93 9.57c-.2-.3-.64-.3-.84 0-.81 1.16-1.17 2.57-1.05 3.98.02.26.24.45.5.45h3.35c.39 0 .63-.44.42-.77zm3.66-.49l2.02 3.74c.18.33.64.35.86.05.86-1.18 1.24-2.62 1.12-4.08-.02-.26-.25-.45-.5-.45h-3.05c-.39 0-.63.4-.45.74zm-3.8-1.57c.2.31.66.3.85-.02l1.94-3.35c.19-.32-.03-.72-.4-.76-1.36-.12-2.73.21-3.88.97-.22.15-.27.46-.13.68l1.62 2.48z"/></symbol>
<symbol id="slideshow" viewBox="0 0 24 24"><path d="M0 0h24v24H0V0z" fill="none"/><path d="M10 9.04v5.92c0 .42.48.65.81.39l3.7-2.96c.25-.2.25-.58 0-.78l-3.7-2.96c-.33-.26-.81-.03-.81.39zM19 3H5c-1.1 0-2 .9-2 2v14c0 1.1.9 2 2 2h14c1.1 0 2-.9 2-2V5c0-1.1-.9-2-2-2zm-1 16H6c-.55 0-1-.45-1-1V6c0-.55.45-1 1-1h12c.55 0 1 .45 1 1v12c0 .55-.45 1-1 1z"/></symbol>
<symbol id="straighten" viewBox="0 0 24 24"><path d="M0 0h24v24H0V0z" fill="none"/><path d="M21 6H3c-1.1 0-2 .9-2 2v8c0 1.1.9 2 2 2h18c1.1 0 2-.9 2-2V8c0-1.1-.9-2-2-2zm-1 10H4c-.55 0-1-.45-1-1V9c0-.55.45-1 1-1h1v3c0 .55.45 1 1 1s1-.45 1-1V8h2v3c0 .55.45 1 1 1s1-.45 1-1V8h2v3c0 .55.45 1 1 1s1-.45 1-1V8h2v3c0 .55.45 1 1 1s1-.45 1-1V8h1c.55 0 1 .45 1 1v6c0 .55-.45 1-1 1z"/></symbol>
<symbol id="style" viewBox="0 0 24 24"><path d="M0 0h24v24H0V0z" fill="none"/><path d="M2.53 19.65l1.34.56v-9.03l-2.43 5.86c-.41 1.02.08 2.19 1.09 2.61zm19.5-3.7L17.07 3.98c-.31-.75-1.04-1.21-1.81-1.23-.26 0-.53.04-.79.15L7.1 5.95c-.75.31-1.21 1.03-1.23 1.8-.01.27.04.54.15.8l4.96 11.97c.31.76 1.05 1.22 1.83 1.23.26 0 .52-.05.77-.15l7.36-3.05c1.02-.42 1.51-1.59 1.09-2.6zM7.88 8.75c-.55 0-1-.45-1-1s.45-1 1-1 1 .45 1 1-.45 1-1 1zm-2 11c0 1.1.9 2 2 2h1.45l-3.45-8.34v6.34z"/></symbol>
<symbol id="switch_camera" viewBox="0 0 24 24"><path d="M0 0h24v24H0V0z" fill="none"/><path d="M20 4h-3.17l-1.24-1.35c-.37-.41-.91-.65-1.47-.65H9.88c-.56 0-1.1.24-1.48.65L7.17 4H4c-1.1 0-2 .9-2 2v12c0 1.1.9 2 2 2h16c1.1 0 2-.9 2-2V6c0-1.1-.9-2-2-2zm-5 11.5V13H9v2.5l-3.15-3.15c-.2-.2-.2-.51 0-.71L9 8.5V11h6V8.5l3.15 3.15c.2.2.2.51 0 .71L15 15.5z"/></symbol>
<symbol id="switch_video" viewBox="0 0 24 24"><path d="M0 0h24v24H0V0z" fill="none"/><path d="M18 9.5V6c0-.55-.45-1-1-1H3c-.55 0-1 .45-1 1v12c0 .55.45 1 1 1h14c.55 0 1-.45 1-1v-3.5l2.29 2.29c.63.63 1.71.18 1.71-.71V7.91c0-.89-1.08-1.34-1.71-.71L18 9.5zm-5 6V13H7v2.5l-3.15-3.15c-.2-.2-.2-.51 0-.71L7 8.5V11h6V8.5l3.15 3.15c.2.2.2.51 0 .71L13 15.5z"/></symbol>
<symbol id="tag_faces" viewBox="0 0 24 24"><path d="M0 0h24v24H0V0z" fill="none"/><path d="M12.01 2C6.49 2 2.02 6.48 2.02 12s4.47 10 9.99 10c5.53 0 10.01-4.48 10.01-10S17.54 2 12.01 2zm.01 18c-4.42 0-8-3.58-8-8s3.58-8 8-8 8 3.58 8 8-3.58 8-8 8zm3.5-9c.83 0 1.5-.67 1.5-1.5S16.35 8 15.52 8s-1.5.67-1.5 1.5.67 1.5 1.5 1.5zm-7 0c.83 0 1.5-.67 1.5-1.5S9.35 8 8.52 8s-1.5.67-1.5 1.5.67 1.5 1.5 1.5zm3.5 6.5c2.03 0 3.8-1.11 4.75-2.75.19-.33-.05-.75-.44-.75H7.71c-.38 0-.63.42-.44.75.95 1.64 2.72 2.75 4.75 2.75z"/></symbol>
<symbol id="texture" viewBox="0 0 24 24"><path d="M0 0h24v24H0V0z" fill="none"/><path d="M19.58 3.08L3.15 19.51c.09.34.27.65.51.9.25.24.56.42.9.51L21 4.49c-.19-.69-.73-1.23-1.42-1.41zM11.95 3l-8.88 8.88v2.83L14.78 3h-2.83zM5.07 3c-1.1 0-2 .9-2 2v2l4-4h-2zm14 18c.55 0 1.05-.22 1.41-.59.37-.36.59-.86.59-1.41v-2l-4 4h2zm-9.71 0h2.83l8.88-8.88V9.29L9.36 21z"/></symbol>
<symbol id="timelapse" viewBox="0 0 24 24"><path d="M0 0h24v24H0V0z" fill="none"/><path d="M16.24 7.76C15.07 6.59 13.54 6 12 6v6l-4.24 4.24c2.34 2.34 6.14 2.34 8.49 0 2.34-2.34 2.34-6.14-.01-8.48zM12 2C6.48 2 2 6.48 2 12s4.48 10 10 10 10-4.48 10-10S17.52 2 12 2zm0 18c-4.42 0-8-3.58-8-8s3.58-8 8-8 8 3.58 8 8-3.58 8-8 8z"/></symbol>
<symbol id="timer" viewBox="0 0 24 24"><path d="M0 0h24v24H0V0z" fill="none"/><path d="M14 1h-4c-.55 0-1 .45-1 1s.45 1 1 1h4c.55 0 1-.45 1-1s-.45-1-1-1zm-2 13c.55 0 1-.45 1-1V9c0-.55-.45-1-1-1s-1 .45-1 1v4c0 .55.45 1 1 1zm7.03-6.61l.75-.75c.38-.38.39-1.01 0-1.4l-.01-.01c-.39-.39-1.01-.38-1.4 0l-.75.75C16.07 4.74 14.12 4 12 4c-4.8 0-8.88 3.96-9 8.76C2.87 17.84 6.94 22 12 22c4.98 0 9-4.03 9-9 0-2.12-.74-4.07-1.97-5.61zM12 20c-3.87 0-7-3.13-7-7s3.13-7 7-7 7 3.13 7 7-3.13 7-7 7z"/></symbol>
<symbol id="timer_10" viewBox="0 0 24 24"><path d="M0 0h24v24H0V0z" fill="none"/><path d="M-.01 7.72V9.4l3-1V18h2V6h-.25L-.01 7.72zm23.78 6.65c-.14-.28-.35-.53-.63-.74-.28-.21-.61-.39-1.01-.53s-.85-.27-1.35-.38c-.35-.07-.64-.15-.87-.23-.23-.08-.41-.16-.55-.25s-.23-.19-.28-.3c-.05-.11-.08-.24-.08-.39 0-.14.03-.28.09-.41s.15-.25.27-.34c.12-.1.27-.18.45-.24s.4-.09.64-.09c.25 0 .47.04.66.11s.35.17.48.29.22.26.29.42c.06.16.1.32.1.49h1.95c0-.39-.08-.75-.24-1.09s-.39-.63-.69-.88c-.3-.25-.66-.44-1.09-.59-.43-.15-.92-.22-1.46-.22-.51 0-.98.07-1.39.21s-.77.33-1.06.57c-.29.24-.51.52-.67.84-.16.32-.23.65-.23 1.01s.08.69.23.96c.15.28.36.52.64.73.27.21.6.38.98.53.38.14.81.26 1.27.36.39.08.71.17.95.26s.43.19.57.29c.13.1.22.22.27.34.05.12.07.25.07.39 0 .32-.13.57-.4.77s-.66.29-1.17.29c-.22 0-.43-.02-.64-.08-.21-.05-.4-.13-.56-.24-.17-.11-.3-.26-.41-.44-.11-.18-.17-.41-.18-.67h-1.89c0 .36.08.71.24 1.05s.39.65.7.93c.31.27.69.49 1.15.66s.98.25 1.58.25c.53 0 1.01-.06 1.44-.19.43-.13.8-.31 1.11-.54.31-.23.54-.51.71-.83.17-.32.25-.67.25-1.06-.02-.4-.09-.74-.24-1.02zm-9.96-7.32c-.34-.4-.75-.7-1.23-.88-.47-.18-1.01-.27-1.59-.27s-1.11.09-1.59.27c-.48.18-.89.47-1.23.88-.34.41-.6.93-.79 1.59-.18.65-.28 1.45-.28 2.39v1.92c0 .94.09 1.74.28 2.39.19.66.45 1.19.8 1.6.34.41.75.71 1.23.89s1.01.28 1.59.28c.59 0 1.12-.09 1.59-.28.48-.18.88-.48 1.22-.89s.6-.94.78-1.6c.18-.65.28-1.45.28-2.39v-1.92c0-.94-.09-1.74-.28-2.39-.18-.66-.44-1.19-.78-1.59zm-.92 6.17c0 .6-.04 1.11-.12 1.53s-.2.76-.36 1.02c-.16.26-.36.45-.59.57-.23.12-.51.18-.82.18-.3 0-.58-.06-.82-.18s-.44-.31-.6-.57c-.16-.26-.29-.6-.38-1.02s-.13-.93-.13-1.53v-2.5c0-.6.04-1.11.13-1.52s.21-.74.38-1c.16-.25.36-.43.6-.55.24-.11.51-.17.81-.17.31 0 .58.06.81.17.24.11.44.29.6.55.16.25.29.58.37.99s.13.92.13 1.52v2.51h-.01z"/></symbol>
<symbol id="timer_3" viewBox="0 0 24 24"><path d="M0 0h24v24H0V0z" fill="none"/><path d="M11.61 12.97c-.16-.24-.36-.46-.62-.65-.25-.19-.56-.35-.93-.48.3-.14.57-.3.8-.5.23-.2.42-.41.57-.64.15-.23.27-.46.34-.71.08-.24.11-.49.11-.73 0-.55-.09-1.04-.28-1.46-.18-.42-.44-.77-.78-1.06-.33-.28-.73-.5-1.2-.64-.45-.13-.97-.2-1.53-.2-.55 0-1.06.08-1.52.24-.47.17-.87.4-1.2.69-.33.29-.6.63-.78 1.03-.2.39-.29.83-.29 1.29h1.98c0-.26.05-.49.14-.69.09-.2.22-.38.38-.52.17-.14.36-.25.58-.33s.46-.12.73-.12c.61 0 1.06.16 1.36.47.3.31.44.75.44 1.32 0 .27-.04.52-.12.74-.08.22-.21.41-.38.57s-.38.28-.63.37-.55.13-.89.13H6.72v1.57H7.9c.34 0 .64.04.91.11.27.08.5.19.69.35.19.16.34.36.44.61.1.24.16.54.16.87 0 .62-.18 1.09-.53 1.42-.35.33-.84.49-1.45.49-.29 0-.56-.04-.8-.13-.24-.08-.44-.2-.61-.36s-.3-.34-.39-.56c-.09-.22-.14-.46-.14-.72H4.19c0 .55.11 1.03.32 1.45.21.42.5.77.86 1.05s.77.49 1.24.63.96.21 1.48.21c.57 0 1.09-.08 1.58-.23s.91-.38 1.26-.68c.36-.3.64-.66.84-1.1.2-.43.3-.93.3-1.48 0-.29-.04-.58-.11-.86-.08-.25-.19-.51-.35-.76zm9.26 1.4c-.14-.28-.35-.53-.63-.74-.28-.21-.61-.39-1.01-.53s-.85-.27-1.35-.38c-.35-.07-.64-.15-.87-.23-.23-.08-.41-.16-.55-.25s-.23-.19-.28-.3c-.05-.11-.08-.24-.08-.39s.03-.28.09-.41.15-.25.27-.34c.12-.1.27-.18.45-.24s.4-.09.64-.09c.25 0 .47.04.66.11s.35.17.48.29.22.26.29.42c.06.16.1.32.1.49h1.95c0-.39-.08-.75-.24-1.09s-.39-.63-.69-.88c-.3-.25-.66-.44-1.09-.59-.43-.15-.92-.22-1.46-.22-.51 0-.98.07-1.39.21s-.77.33-1.06.57c-.29.24-.51.52-.67.84s-.23.65-.23 1.01.08.68.23.96.37.52.64.73c.27.21.6.38.98.53.38.14.81.26 1.27.36.39.08.71.17.95.26s.43.19.57.29c.13.1.22.22.27.34.05.12.07.25.07.39 0 .32-.13.57-.4.77s-.66.29-1.17.29c-.22 0-.43-.02-.64-.08-.21-.05-.4-.13-.56-.24-.17-.11-.3-.26-.41-.44-.11-.18-.17-.41-.18-.67h-1.89c0 .36.08.71.24 1.05s.39.65.7.93c.31.27.69.49 1.15.66.46.17.98.25 1.58.25.53 0 1.01-.06 1.44-.19.43-.13.8-.31 1.11-.54.31-.23.54-.51.71-.83.17-.32.25-.67.25-1.06-.02-.4-.09-.74-.24-1.02z"/></symbol>
<symbol id="timer_off" viewBox="0 0 24 24"><path d="M0 0h24v24H0V0z" fill="none"/><path d="M10 3h4c.55 0 1-.45 1-1s-.45-1-1-1h-4c-.55 0-1 .45-1 1s.45 1 1 1zm2 5c-.51 0-.92.39-.98.89L13 10.86V9c0-.55-.45-1-1-1zm0-2c3.87 0 7 3.13 7 7 0 1.12-.27 2.18-.74 3.12l1.47 1.47C20.53 16.25 21 14.68 21 13c0-2.12-.74-4.07-1.97-5.61l.75-.75c.38-.38.39-1.01 0-1.4l-.01-.01c-.39-.39-1.01-.38-1.4 0l-.75.75C16.07 4.74 14.12 4 12 4c-1.66 0-3.22.48-4.57 1.29l1.45 1.45c.94-.47 2-.74 3.12-.74zm8.19 14.88L3.87 4.56c-.39-.39-1.02-.39-1.41 0-.39.39-.39 1.02 0 1.41l2.07 2.07C3.61 9.42 3.05 11.03 3 12.76 2.87 17.84 6.94 22 12 22c1.84 0 3.55-.55 4.98-1.5l1.79 1.79c.39.39 1.02.39 1.41 0 .4-.39.4-1.02.01-1.41zM12 20c-3.87 0-7-3.13-7-7 0-1.29.35-2.49.96-3.52l9.57 9.57c-1.04.6-2.24.95-3.53.95z"/></symbol>
<symbol id="tonality" viewBox="0 0 24 24"><path d="M0 0h24v24H0V0z" fill="none"/><path d="M12 2C6.48 2 2 6.48 2 12s4.48 10 10 10 10-4.48 10-10S17.52 2 12 2zm-1 17.93c-3.94-.49-7-3.85-7-7.93s3.05-7.44 7-7.93v15.86zm2-15.86c1.03.13 2 .45 2.87.93H13v-.93zM13 7h5.24c.25.31.48.65.68 1H13V7zm0 3h6.74c.08.33.15.66.19 1H13v-1zm0 9.93V19h2.87c-.87.48-1.84.8-2.87.93zM18.24 17H13v-1h5.92c-.2.35-.43.69-.68 1zm1.5-3H13v-1h6.93c-.04.34-.11.67-.19 1z"/></symbol>
<symbol id="transform" viewBox="0 0 24 24"><path d="M0 0h24v24H0V0z" fill="none"/><path d="M21 16H9c-.55 0-1-.45-1-1V4h.79c.45 0 .67-.54.35-.85l-1.79-1.8c-.2-.2-.51-.2-.71 0l-1.79 1.8c-.31.31-.09.85.36.85H6v2H3c-.55 0-1 .45-1 1s.45 1 1 1h3v8c0 1.1.9 2 2 2h8v2h-.79c-.45 0-.67.54-.35.85l1.79 1.79c.2.2.51.2.71 0l1.79-1.79c.32-.31.09-.85-.35-.85H18v-2h3c.55 0 1-.45 1-1s-.45-1-1-1zm-5-2h2V8c0-1.1-.9-2-2-2h-6v2h5c.55 0 1 .45 1 1v5z"/></symbol>
<symbol id="tune" viewBox="0 0 24 24"><path d="M0 0h24v24H0V0z" fill="none"/><path d="M3 18c0 .55.45 1 1 1h5v-2H4c-.55 0-1 .45-1 1zM3 6c0 .55.45 1 1 1h9V5H4c-.55 0-1 .45-1 1zm10 14v-1h7c.55 0 1-.45 1-1s-.45-1-1-1h-7v-1c0-.55-.45-1-1-1s-1 .45-1 1v4c0 .55.45 1 1 1s1-.45 1-1zM7 10v1H4c-.55 0-1 .45-1 1s.45 1 1 1h3v1c0 .55.45 1 1 1s1-.45 1-1v-4c0-.55-.45-1-1-1s-1 .45-1 1zm14 2c0-.55-.45-1-1-1h-9v2h9c.55 0 1-.45 1-1zm-5-3c.55 0 1-.45 1-1V7h3c.55 0 1-.45 1-1s-.45-1-1-1h-3V4c0-.55-.45-1-1-1s-1 .45-1 1v4c0 .55.45 1 1 1z"/></symbol>
<symbol id="view_comfy" viewBox="0 0 24 24"><path d="M0 0h24v24H0V0z" fill="none"/><path d="M3 9h4V5H5c-1.1 0-2 .9-2 2v2zm0 5h4v-4H3v4zm5 0h4v-4H8v4zm5 0h4v-4h-4v4zM8 9h4V5H8v4zm5-4v4h4V5h-4zm5 9h4v-4h-4v4zM5 19h2v-4H3v2c0 1.1.9 2 2 2zm3 0h4v-4H8v4zm5 0h4v-4h-4v4zm5 0h2c1.1 0 2-.9 2-2v-2h-4v4zm0-14v4h4V7c0-1.1-.9-2-2-2h-2z"/></symbol>
<symbol id="view_compact" viewBox="0 0 24 24"><path d="M0 0h24v24H0V0z" fill="none"/><path d="M5 19h4v-7H3v5c0 1.1.9 2 2 2zm5 0h10c1.1 0 2-.9 2-2v-5H10v7zM3 7v4h19V7c0-1.1-.9-2-2-2H5c-1.1 0-2 .9-2 2z"/></symbol>
<symbol id="vignette" viewBox="0 0 24 24"><path d="M0 0h24v24H0V0z" fill="none"/><path d="M21 3H3c-1.1 0-2 .9-2 2v14c0 1.1.9 2 2 2h18c1.1 0 2-.9 2-2V5c0-1.1-.9-2-2-2zm-9 15c-4.42 0-8-2.69-8-6s3.58-6 8-6 8 2.69 8 6-3.58 6-8 6z"/></symbol>
<symbol id="wb_auto" viewBox="0 0 24 24"><path d="M0 0h24v24H0V0z" fill="none"/><path d="M6.85 12.65h2.3L8 9zM22.72 7c-.42 0-.77.3-.85.7l-1.07 5.59-1.31-5.51c-.11-.46-.52-.78-.99-.78s-.88.32-.98.78l-1.31 5.51-1.07-5.59c-.08-.4-.44-.7-.85-.7-.01 0-.03.01-.04.01C12.78 5.18 10.53 4 8 4c-4.42 0-8 3.58-8 8s3.58 8 8 8c3.17 0 5.9-1.85 7.2-4.52.2.32.55.52.94.52.51 0 .95-.35 1.07-.84L18.5 9.9l1.29 5.26c.12.49.57.84 1.07.84.52 0 .96-.36 1.08-.86l1.61-7.08c.13-.54-.28-1.06-.83-1.06zm-11.79 9c-.38 0-.72-.24-.84-.6L9.6 14H6.4l-.49 1.4c-.13.36-.46.6-.84.6-.62 0-1.05-.61-.84-1.19l2.44-6.86C6.87 7.38 7.4 7 8 7s1.13.38 1.34.94l2.44 6.86c.2.59-.23 1.2-.85 1.2z"/></symbol>
<symbol id="wb_cloudy" viewBox="0 0 24 24"><path d="M0 0h24v24H0V0z" fill="none"/><path d="M19.37 10.04C18.68 6.59 15.65 4 12.01 4c-2.89 0-5.4 1.64-6.65 4.04C2.35 8.36.01 10.91.01 14c0 3.31 2.69 6 6 6h13c2.76 0 5-2.24 5-5 0-2.64-2.05-4.78-4.64-4.96z"/></symbol>
<symbol id="wb_incandescent" viewBox="0 0 24 24"><path d="M0 0h24v24H0V0z" fill="none"/><path d="M4.25 19.79c.39.39 1.02.39 1.41 0l.39-.39c.39-.39.38-1.02 0-1.4l-.01-.01c-.39-.39-1.02-.39-1.41 0l-.39.39c-.38.4-.38 1.02.01 1.41zM11.99 23H12c.55 0 .99-.44.99-.99v-.96c0-.55-.44-.99-.99-.99h-.01c-.55 0-.99.44-.99.99v.96c0 .55.44.99.99.99zM3.01 11.05H1.99c-.55 0-.99.44-.99.99v.01c0 .55.44.99.99.99H3c.55 0 .99-.44.99-.99v-.01c.01-.55-.43-.99-.98-.99zM15 6.86V3.05c0-.55-.45-1-1-1h-4c-.55 0-1 .45-1 1v3.81c-2.04 1.18-3.32 3.52-2.93 6.13.4 2.61 2.56 4.7 5.18 5.02 3.64.44 6.75-2.4 6.75-5.95 0-2.23-1.21-4.16-3-5.2zm5 5.18v.01c0 .55.44.99.99.99H22c.55 0 .99-.44.99-.99v-.01c0-.55-.44-.99-.99-.99h-1.01c-.55 0-.99.44-.99.99zm-2.06 7.37l.39.39c.39.39 1.02.39 1.41 0 .39-.39.39-1.02 0-1.41l-.39-.39c-.39-.39-1.02-.38-1.4 0-.4.4-.4 1.02-.01 1.41z"/></symbol>
<symbol id="wb_iridescent" viewBox="0 0 24 24"><path d="M0 0h24v24H0V0z" fill="none"/><path d="M6 15h12c.55 0 1-.45 1-1v-3.95c0-.55-.45-1-1-1H6c-.55 0-1 .45-1 1V14c0 .55.45 1 1 1zm5-13v1.05c0 .55.45.95 1 .95s1-.4 1-.95V2c0-.55-.45-1-1-1s-1 .45-1 1zm7.34 2.3l-.38.38c-.39.39-.39 1.02 0 1.41.39.39 1.02.39 1.41 0l.38-.38c.39-.39.39-1.02 0-1.41-.39-.39-1.02-.39-1.41 0zM13 22v-.96c0-.55-.45-1-1-1s-1 .45-1 1V22c0 .55.45 1 1 1s1-.45 1-1zm6.74-3.61l-.39-.39c-.39-.39-1.02-.39-1.41 0-.39.39-.39 1.02 0 1.41l.38.39c.39.39 1.02.39 1.41 0l.01-.01c.39-.38.39-1.02 0-1.4zM4.25 5.71l.39.39c.39.39 1.02.39 1.41 0 .39-.39.39-1.02 0-1.41l-.39-.39c-.39-.39-1.02-.39-1.41 0-.38.39-.38 1.03 0 1.41zm1.42 14.08l.38-.38c.39-.39.39-1.02 0-1.41-.39-.39-1.02-.39-1.41 0l-.38.38c-.39.39-.39 1.02 0 1.41.38.39 1.02.39 1.41 0z"/></symbol>
<symbol id="wb_sunny" viewBox="0 0 24 24"><path d="M0 0h24v24H0V0z" fill="none"/><path d="M6.05 4.14l-.39-.39c-.39-.39-1.02-.38-1.4 0l-.01.01c-.39.39-.39 1.02 0 1.4l.39.39c.39.39 1.01.39 1.4 0l.01-.01c.39-.38.39-1.02 0-1.4zM3.01 10.5H1.99c-.55 0-.99.44-.99.99v.01c0 .55.44.99.99.99H3c.56.01 1-.43 1-.98v-.01c0-.56-.44-1-.99-1zm9-9.95H12c-.56 0-1 .44-1 .99v.96c0 .55.44.99.99.99H12c.56.01 1-.43 1-.98v-.97c0-.55-.44-.99-.99-.99zm7.74 3.21c-.39-.39-1.02-.39-1.41-.01l-.39.39c-.39.39-.39 1.02 0 1.4l.01.01c.39.39 1.02.39 1.4 0l.39-.39c.39-.39.39-1.01 0-1.4zm-1.81 15.1l.39.39c.39.39 1.02.39 1.41 0 .39-.39.39-1.02 0-1.41l-.39-.39c-.39-.39-1.02-.38-1.4 0-.4.4-.4 1.02-.01 1.41zM20 11.49v.01c0 .55.44.99.99.99H22c.55 0 .99-.44.99-.99v-.01c0-.55-.44-.99-.99-.99h-1.01c-.55 0-.99.44-.99.99zM12 5.5c-3.31 0-6 2.69-6 6s2.69 6 6 6 6-2.69 6-6-2.69-6-6-6zm-.01 16.95H12c.55 0 .99-.44.99-.99v-.96c0-.55-.44-.99-.99-.99h-.01c-.55 0-.99.44-.99.99v.96c0 .55.44.99.99.99zm-7.74-3.21c.39.39 1.02.39 1.41 0l.39-.39c.39-.39.38-1.02 0-1.4l-.01-.01c-.39-.39-1.02-.39-1.41 0l-.39.39c-.38.4-.38 1.02.01 1.41z"/></symbol>
</svg>