<svg xmlns="http://www.w3.org/2000/svg">
<symbol id="360" viewBox="0 0 24 24"><path d="M0 0h24v24H0V0z" fill="none"/><path d="M12 7C6.48 7 2 9.24 2 12c0 2.24 2.94 4.13 7 4.77v2.02c0 .45.54.67.85.35l2.79-2.79c.2-.2.2-.51 0-.71l-2.79-2.79c-.31-.31-.85-.09-.85.36v1.52c-3.15-.56-5-1.9-5-2.73 0-1.06 3.04-3 8-3s8 1.94 8 3c0 .66-1.2 1.68-3.32 2.34-.41.13-.68.51-.68.94 0 .67.65 1.16 1.28.96C20.11 15.36 22 13.79 22 12c0-2.76-4.48-5-10-5z"/></symbol>
<symbol id="add_business" viewBox="0 0 24 24"><g><rect fill="none" height="24" width="24"/><rect fill="none" height="24" width="24"/></g><g><g><path d="M3,6h13c0.55,0,1-0.45,1-1c0-0.55-0.45-1-1-1H3C2.45,4,2,4.45,2,5C2,5.55,2.45,6,3,6z"/><path d="M15,17h2v-3h0.18c0.63,0,1.1-0.58,0.98-1.2l-1-5C17.07,7.34,16.66,7,16.18,7H2.82C2.34,7,1.93,7.34,1.84,7.8l-1,5 C0.72,13.42,1.19,14,1.82,14H2v5c0,0.55,0.45,1,1,1h7c0.55,0,1-0.45,1-1v-5h4V17z M9,18H4v-4h5V18z"/><path d="M22,18h-2v-2c0-0.55-0.45-1-1-1s-1,0.45-1,1v2h-2c-0.55,0-1,0.45-1,1c0,0.55,0.45,1,1,1h2v2c0,0.55,0.45,1,1,1s1-0.45,1-1 v-2h2c0.55,0,1-0.45,1-1C23,18.45,22.55,18,22,18z"/></g></g></symbol>
<symbol id="add_location" viewBox="0 0 24 24"><rect fill="none" height="24" width="24"/><g><g><path d="M13,7c0-0.55-0.44-1-1-1c-0.55,0-1,0.44-1,1v2H9c-0.55,0-1,0.44-1,1c0,0.55,0.44,1,1,1h2v2 c0,0.55,0.44,1,1,1c0.55,0,1-0.44,1-1v-2h2c0.55,0,1-0.44,1-1c0-0.55-0.44-1-1-1h-2V7z M12,2c4.2,0,8,3.22,8,8.2 c0,3.18-2.45,6.92-7.34,11.23c-0.38,0.33-0.95,0.33-1.33,0C6.45,17.12,4,13.38,4,10.2C4,5.22,7.8,2,12,2z"/></g></g></symbol>
<symbol id="add_location_alt" viewBox="0 0 24 24"><path d="M0 0h24v24H0z" fill="none"/><path d="M19 1c.55 0 1 .45 1 1v2h2c.55 0 1 .45 1 1s-.45 1-1 1h-2v2c0 .55-.45 1-1 1s-1-.45-1-1V6h-2c-.55 0-1-.45-1-1s.45-1 1-1h2V2c0-.55.45-1 1-1zm-7 12c1.1 0 2-.9 2-2s-.9-2-2-2-2 .9-2 2 .9 2 2 2zm2.72-9.53c-.44.36-.72.91-.72 1.53 0 1.1.9 2 2 2h1v1c0 1.1.9 2 2 2 .32 0 .62-.08.89-.21.07.45.11.92.11 1.41 0 3.18-2.45 6.92-7.34 11.23-.38.33-.95.33-1.33 0C6.45 18.12 4 14.38 4 11.2 4 6.22 7.8 3 12 3c.94 0 1.86.16 2.72.47z"/></symbol>
<symbol id="add_road" viewBox="0 0 24 24"><g><rect fill="none" height="24" width="24"/><rect fill="none" height="24" width="24"/></g><g><g><path d="M20,18v-2c0-0.55-0.45-1-1-1h0c-0.55,0-1,0.45-1,1v2h-2c-0.55,0-1,0.45-1,1v0c0,0.55,0.45,1,1,1h2v2c0,0.55,0.45,1,1,1h0 c0.55,0,1-0.45,1-1v-2h2c0.55,0,1-0.45,1-1v0c0-0.55-0.45-1-1-1H20z"/><path d="M19,4L19,4c-0.55,0-1,0.45-1,1v7c0,0.55,0.45,1,1,1h0c0.55,0,1-0.45,1-1V5C20,4.45,19.55,4,19,4z"/><path d="M5,20L5,20c0.55,0,1-0.45,1-1V5c0-0.55-0.45-1-1-1h0C4.45,4,4,4.45,4,5v14C4,19.55,4.45,20,5,20z"/><path d="M12,8L12,8c0.55,0,1-0.45,1-1V5c0-0.55-0.45-1-1-1h0c-0.55,0-1,0.45-1,1v2C11,7.55,11.45,8,12,8z"/><path d="M12,14L12,14c0.55,0,1-0.45,1-1v-2c0-0.55-0.45-1-1-1h0c-0.55,0-1,0.45-1,1v2C11,13.55,11.45,14,12,14z"/><path d="M12,20L12,20c0.55,0,1-0.45,1-1v-2c0-0.55-0.45-1-1-1h0c-0.55,0-1,0.45-1,1v2C11,19.55,11.45,20,12,20z"/></g></g></symbol>
<symbol id="agriculture" viewBox="0 0 24 24"><g><rect fill="none" height="24" width="24"/><rect fill="none" height="24" width="24"/></g><g><g><path d="M19.5,11.97c0.93,0,1.78,0.28,2.5,0.76V7.97c0-1.1-0.9-2-2-2h-6.29l-1.06-1.06l1.06-1.06c0.2-0.2,0.2-0.51,0-0.71 s-0.51-0.2-0.71,0l-2.83,2.83c-0.2,0.2-0.2,0.51,0,0.71l0,0c0.2,0.2,0.51,0.2,0.71,0l1.06-1.06L13,6.68v2.29c0,1.1-0.9,2-2,2 h-0.54c0.95,1.06,1.54,2.46,1.54,4c0,0.34-0.04,0.67-0.09,1h3.14C15.3,13.73,17.19,11.97,19.5,11.97z"/><path d="M19.5,12.97c-1.93,0-3.5,1.57-3.5,3.5s1.57,3.5,3.5,3.5s3.5-1.57,3.5-3.5S21.43,12.97,19.5,12.97z M19.5,17.97 c-0.83,0-1.5-0.67-1.5-1.5s0.67-1.5,1.5-1.5s1.5,0.67,1.5,1.5S20.33,17.97,19.5,17.97z"/><path d="M4,8.97h5c0-1.1-0.9-2-2-2H4c-0.55,0-1,0.45-1,1C3,8.53,3.45,8.97,4,8.97z"/><path d="M9.83,13.79l-0.18-0.47l0.93-0.35c-0.46-1.06-1.28-1.91-2.31-2.43l-0.4,0.89l-0.46-0.21l0.4-0.9 C7.26,10.11,6.64,9.97,6,9.97c-0.53,0-1.04,0.11-1.52,0.26l0.34,0.91l-0.47,0.18L4,10.4c-1.06,0.46-1.91,1.28-2.43,2.31l0.89,0.4 l-0.21,0.46l-0.9-0.4C1.13,13.72,1,14.33,1,14.97c0,0.53,0.11,1.04,0.26,1.52l0.91-0.34l0.18,0.47l-0.93,0.35 c0.46,1.06,1.28,1.91,2.31,2.43l0.4-0.89l0.46,0.21l-0.4,0.9c0.57,0.22,1.18,0.35,1.82,0.35c0.53,0,1.04-0.11,1.52-0.26L7.18,18.8 l0.47-0.18L8,19.55c1.06-0.46,1.91-1.28,2.43-2.31l-0.89-0.4l0.21-0.46l0.9,0.4c0.22-0.57,0.35-1.18,0.35-1.82 c0-0.53-0.11-1.04-0.26-1.52L9.83,13.79z M7.15,17.75c-1.53,0.63-3.29-0.09-3.92-1.62c-0.63-1.53,0.09-3.29,1.62-3.92 c1.53-0.63,3.29,0.09,3.92,1.62C9.41,15.36,8.68,17.11,7.15,17.75z"/></g></g></symbol>
<symbol id="alt_route" viewBox="0 0 24 24"><g><rect fill="none" height="24" width="24"/><path d="M9.78,11.16l-1.42,1.42c-0.68-0.69-1.34-1.58-1.79-2.94l1.94-0.49C8.83,10.04,9.28,10.65,9.78,11.16z M10.15,5.15 L7.35,2.35c-0.2-0.2-0.51-0.2-0.71,0L3.85,5.15C3.54,5.46,3.76,6,4.21,6h1.81C6.04,6.81,6.1,7.54,6.21,8.17l1.94-0.49 C8.08,7.2,8.03,6.63,8.02,6h1.78C10.24,6,10.46,5.46,10.15,5.15z M20.15,5.15l-2.79-2.79c-0.2-0.2-0.51-0.2-0.71,0l-2.79,2.79 C13.54,5.46,13.76,6,14.21,6h1.78c-0.1,3.68-1.28,4.75-2.54,5.88c-0.5,0.44-1.01,0.92-1.45,1.55c-0.34-0.49-0.73-0.88-1.13-1.24 L9.46,13.6C10.39,14.45,11,15.14,11,17c0,0,0,0,0,0h0v4c0,0.55,0.45,1,1,1h0c0.55,0,1-0.45,1-1v-4c0,0,0,0,0,0 c0-2.02,0.71-2.66,1.79-3.63c1.38-1.24,3.08-2.78,3.2-7.37h1.8C20.24,6,20.46,5.46,20.15,5.15z"/></g></symbol>
<symbol id="atm" viewBox="0 0 24 24"><path d="M0 0h24v24H0V0z" fill="none"/><path d="M8 9.75c0 .41.34.75.75.75h1.5v3.75c0 .41.34.75.75.75s.75-.34.75-.75V10.5h1.5c.41 0 .75-.34.75-.75S13.66 9 13.25 9h-4.5c-.41 0-.75.34-.75.75zM6 9H3c-.55 0-1 .45-1 1v4.25c0 .41.34.75.75.75s.75-.34.75-.75v-.75h2v.75c0 .41.34.75.75.75s.75-.34.75-.75V10c0-.55-.45-1-1-1zm-.5 3h-2v-1.5h2V12zM21 9h-4.5c-.55 0-1 .45-1 1v4.25c0 .41.34.75.75.75s.75-.34.75-.75V10.5h1v2.75c0 .41.34.75.75.75s.75-.34.75-.75v-2.76h1v3.76c0 .41.34.75.75.75s.75-.34.75-.75V10c0-.55-.45-1-1-1z"/></symbol>
<symbol id="beenhere" viewBox="0 0 24 24"><path d="M0 0h24v24H0V0z" fill="none"/><path d="M19 1H5c-1.1 0-1.99.9-1.99 2L3 15.93c0 .69.35 1.3.88 1.66l7.57 5.04c.34.22.77.22 1.11 0l7.56-5.04c.53-.36.88-.97.88-1.66V3c0-1.1-.9-2-2-2zm-.7 6.7l-7.59 7.59c-.39.39-1.02.39-1.41 0L5.71 11.7c-.39-.39-.39-1.02 0-1.41s1.02-.39 1.41 0L10 13.17l6.88-6.88c.39-.39 1.02-.39 1.41 0s.4 1.02.01 1.41z"/></symbol>
<symbol id="bike_scooter" viewBox="0 0 24 24"><g><rect fill="none" height="24" width="24"/><rect fill="none" height="24" width="24"/></g><g><g><path d="M10,14h0.74L8.82,5.56C8.61,4.65,7.8,4,6.87,4H4C3.45,4,3,4.45,3,5v0c0,0.55,0.45,1,1,1h2.87l1.42,6.25c0,0-0.01,0-0.01,0 C6.12,12.9,4.47,14.73,4.09,17H0v2h6v-1C6,15.79,7.79,14,10,14z"/><path d="M18.75,8l-0.56,0l-1.35-3.69C16.55,3.52,15.8,3,14.96,3H12c-0.55,0-1,0.45-1,1v0c0,0.55,0.45,1,1,1h2.96l1.1,3H10.4 l0.46,2H15c-0.43,0.58-0.75,1.25-0.9,2h-2.79l0.46,2h2.33c0.44,2.23,2.31,3.88,4.65,3.99c3.16,0.15,5.88-2.83,5.12-6.1 C23.34,9.57,21.13,8,18.75,8z M18.88,16c-1.54-0.06-2.84-1.37-2.88-2.92c-0.02-0.96,0.39-1.8,1.05-2.36l0.62,1.7 c0.19,0.52,0.76,0.79,1.28,0.6l0,0c0.52-0.19,0.79-0.76,0.6-1.28l-0.63-1.73c0,0,0,0,0.01-0.01C20.64,9.96,22,11.29,22,13 C22,14.72,20.62,16.06,18.88,16z"/><path d="M10,15c-1.66,0-3,1.34-3,3s1.34,3,3,3s3-1.34,3-3S11.66,15,10,15z M10,19c-0.55,0-1-0.45-1-1s0.45-1,1-1s1,0.45,1,1 S10.55,19,10,19z"/></g></g></symbol>
<symbol id="category" viewBox="0 0 24 24"><path d="M0 0h24v24H0V0z" fill="none"/><path d="M11.15 3.4L7.43 9.48c-.41.66.07 1.52.85 1.52h7.43c.78 0 1.26-.86.85-1.52L12.85 3.4c-.39-.64-1.31-.64-1.7 0z"/><circle cx="17.5" cy="17.5" r="4.5"/><path d="M4 21.5h6c.55 0 1-.45 1-1v-6c0-.55-.45-1-1-1H4c-.55 0-1 .45-1 1v6c0 .55.45 1 1 1z"/></symbol>
<symbol id="cleaning_services" viewBox="0 0 24 24"><g><rect fill="none" height="24" width="24"/><rect fill="none" height="24" width="24"/></g><g><path d="M16,11h-1V4c0-1.66-1.34-3-3-3h0c-1.66,0-3,1.34-3,3v7H8c-2.76,0-5,2.24-5,5v5c0,1.1,0.9,2,2,2h14c1.1,0,2-0.9,2-2v-5 C21,13.24,18.76,11,16,11z M19,21h-2v-3c0-0.55-0.45-1-1-1s-1,0.45-1,1v3h-2v-3c0-0.55-0.45-1-1-1s-1,0.45-1,1v3H9v-3 c0-0.55-0.45-1-1-1s-1,0.45-1,1v3H5v-5c0-1.65,1.35-3,3-3h8c1.65,0,3,1.35,3,3V21z"/></g></symbol>
<symbol id="compass_calibration" viewBox="0 0 24 24"><path d="M0 0h24v24H0V0z" fill="none"/><circle cx="12" cy="17" r="4"/><path d="M12 3C8.49 3 5.28 4.29 2.8 6.41c-.44.38-.48 1.06-.06 1.48l3.6 3.6c.36.36.92.39 1.32.08 1.2-.94 2.71-1.5 4.34-1.5 1.64 0 3.14.56 4.34 1.49.4.31.96.28 1.31-.08l3.6-3.6c.42-.42.38-1.1-.07-1.48C18.72 4.28 15.51 3 12 3z"/></symbol>
<symbol id="departure_board" viewBox="0 0 24 24"><path d="M0 0h24v24H0V0z" fill="none"/><path d="M17.34 1.13c-2.94-.55-5.63.75-7.12 2.92.01-.01.01-.02.02-.03C9.84 4 9.42 4 9 4c-4.42 0-8 .5-8 4v10c0 .88.39 1.67 1 2.22v1.28c0 .83.67 1.5 1.5 1.5S5 22.33 5 21.5V21h8v.5c0 .82.67 1.5 1.5 1.5.82 0 1.5-.67 1.5-1.5v-1.28c.61-.55 1-1.34 1-2.22v-3.08c3.72-.54 6.5-3.98 5.92-7.97-.42-2.9-2.7-5.29-5.58-5.82zM4.5 19c-.83 0-1.5-.67-1.5-1.5S3.67 16 4.5 16s1.5.67 1.5 1.5S5.33 19 4.5 19zM3 13V8h6c0 1.96.81 3.73 2.11 5H3zm10.5 6c-.83 0-1.5-.67-1.5-1.5s.67-1.5 1.5-1.5 1.5.67 1.5 1.5-.67 1.5-1.5 1.5zm2.5-6c-2.76 0-5-2.24-5-5s2.24-5 5-5 5 2.24 5 5-2.24 5-5 5zm-.25-9c-.41 0-.75.34-.75.75v3.68c0 .35.19.68.49.86l2.52 1.51c.34.2.78.09.98-.24.21-.34.1-.79-.25-.99L16.5 8.25v-3.5c0-.41-.34-.75-.75-.75z"/></symbol>
<symbol id="design_services" viewBox="0 0 24 24"><g><rect fill="none" height="24" width="24"/><rect fill="none" height="24" width="24"/></g><g><g/><g><path d="M16.24,11.51l1.57-1.57l-3.75-3.75l-1.57,1.57L8.35,3.63c-0.78-0.78-2.05-0.78-2.83,0l-1.9,1.9 c-0.78,0.78-0.78,2.05,0,2.83l4.13,4.13L3.15,17.1C3.05,17.2,3,17.32,3,17.46v3.04C3,20.78,3.22,21,3.5,21h3.04 c0.13,0,0.26-0.05,0.35-0.15l4.62-4.62l4.13,4.13c1.32,1.32,2.76,0.07,2.83,0l1.9-1.9c0.78-0.78,0.78-2.05,0-2.83L16.24,11.51z M9.18,11.07L5.04,6.94l1.89-1.9c0,0,0,0,0,0l1.27,1.27L7.73,6.8c-0.39,0.39-0.39,1.02,0,1.41c0.39,0.39,1.02,0.39,1.41,0 l0.48-0.48l1.45,1.45L9.18,11.07z M17.06,18.96l-4.13-4.13l1.9-1.9l1.45,1.45l-0.48,0.48c-0.39,0.39-0.39,1.02,0,1.41 c0.39,0.39,1.02,0.39,1.41,0l0.48-0.48l1.27,1.27L17.06,18.96z"/><path d="M20.71,7.04c0.39-0.39,0.39-1.02,0-1.41l-2.34-2.34c-0.47-0.47-1.12-0.29-1.41,0l-1.83,1.83l3.75,3.75L20.71,7.04z"/></g></g></symbol>
<symbol id="directions" viewBox="0 0 24 24"><path d="M0 0h24v24H0V0z" fill="none"/><path d="M21.71 11.29l-9-9c-.39-.39-1.02-.39-1.41 0l-9 9c-.39.39-.39 1.02 0 1.41l9 9c.39.39 1.02.39 1.41 0l9-9c.39-.38.39-1.01 0-1.41zM14 14.5V12h-4v2c0 .55-.45 1-1 1s-1-.45-1-1v-3c0-.55.45-1 1-1h5V7.5l3.15 3.15c.2.2.2.51 0 .71L14 14.5z"/></symbol>
<symbol id="directions_bike" viewBox="0 0 24 24"><path d="M0 0h24v24H0V0z" fill="none"/><path d="M15.5 5.5c1.1 0 2-.9 2-2s-.9-2-2-2-2 .9-2 2 .9 2 2 2zM5 12c-2.8 0-5 2.2-5 5s2.2 5 5 5 5-2.2 5-5-2.2-5-5-5zm0 8.5c-1.9 0-3.5-1.6-3.5-3.5s1.6-3.5 3.5-3.5 3.5 1.6 3.5 3.5-1.6 3.5-3.5 3.5zm5.8-10l2.4-2.4.8.8c1.06 1.06 2.38 1.78 3.96 2.02.6.09 1.14-.39 1.14-1 0-.49-.37-.91-.85-.99-1.11-.18-2.02-.71-2.75-1.43l-1.9-1.9c-.5-.4-1-.6-1.6-.6s-1.1.2-1.4.6L7.8 8.4c-.4.4-.6.9-.6 1.4 0 .6.2 1.1.6 1.4L11 14v4c0 .55.45 1 1 1s1-.45 1-1v-4.4c0-.52-.2-1.01-.55-1.38L10.8 10.5zM19 12c-2.8 0-5 2.2-5 5s2.2 5 5 5 5-2.2 5-5-2.2-5-5-5zm0 8.5c-1.9 0-3.5-1.6-3.5-3.5s1.6-3.5 3.5-3.5 3.5 1.6 3.5 3.5-1.6 3.5-3.5 3.5z"/></symbol>
<symbol id="directions_boat" viewBox="0 0 24 24"><path d="M0 0h24v24H0V0z" fill="none"/><path d="M20 21c-1.29 0-2.58-.41-3.74-1.14-.16-.1-.37-.1-.53 0-2.31 1.47-5.16 1.47-7.47 0-.16-.1-.37-.1-.53 0C6.58 20.59 5.29 21 4 21H3c-.55 0-1 .45-1 1s.45 1 1 1h1c1.38 0 2.74-.35 4-.99 2.52 1.29 5.48 1.29 8 0 1.26.65 2.62.99 4 .99h1c.55 0 1-.45 1-1s-.45-1-1-1h-1zM3.95 19H4c1.42 0 2.7-.7 3.66-1.64.19-.18.5-.18.69 0C9.3 18.3 10.58 19 12 19s2.7-.7 3.66-1.64c.19-.19.49-.19.69 0C17.3 18.3 18.58 19 20 19h.05l1.89-6.68c.08-.26.06-.54-.06-.78s-.34-.42-.6-.5L20 10.62V6c0-1.1-.9-2-2-2h-3V2c0-.55-.45-1-1-1h-4c-.55 0-1 .45-1 1v2H6c-1.1 0-2 .9-2 2v4.62l-1.29.42c-.26.08-.48.26-.6.5s-.15.52-.06.78L3.95 19zM7 6h10c.55 0 1 .45 1 1v2.97L12.62 8.2c-.41-.13-.84-.13-1.25 0L6 9.97V7c0-.55.45-1 1-1z"/></symbol>
<symbol id="directions_bus" viewBox="0 0 24 24"><path d="M0 0h24v24H0V0z" fill="none"/><path d="M4 16c0 .88.39 1.67 1 2.22v1.28c0 .83.67 1.5 1.5 1.5S8 20.33 8 19.5V19h8v.5c0 .82.67 1.5 1.5 1.5.82 0 1.5-.67 1.5-1.5v-1.28c.61-.55 1-1.34 1-2.22V6c0-3.5-3.58-4-8-4s-8 .5-8 4v10zm3.5 1c-.83 0-1.5-.67-1.5-1.5S6.67 14 7.5 14s1.5.67 1.5 1.5S8.33 17 7.5 17zm9 0c-.83 0-1.5-.67-1.5-1.5s.67-1.5 1.5-1.5 1.5.67 1.5 1.5-.67 1.5-1.5 1.5zm1.5-6H6V6h12v5z"/></symbol>
<symbol id="directions_car" viewBox="0 0 24 24"><path d="M0 0h24v24H0V0z" fill="none"/><path d="M18.92 6.01C18.72 5.42 18.16 5 17.5 5h-11c-.66 0-1.21.42-1.42 1.01l-1.97 5.67c-.07.21-.11.43-.11.66v7.16c0 .83.67 1.5 1.5 1.5S6 20.33 6 19.5V19h12v.5c0 .82.67 1.5 1.5 1.5.82 0 1.5-.67 1.5-1.5v-7.16c0-.22-.04-.45-.11-.66l-1.97-5.67zM6.5 16c-.83 0-1.5-.67-1.5-1.5S5.67 13 6.5 13s1.5.67 1.5 1.5S7.33 16 6.5 16zm11 0c-.83 0-1.5-.67-1.5-1.5s.67-1.5 1.5-1.5 1.5.67 1.5 1.5-.67 1.5-1.5 1.5zM5 11l1.27-3.82c.14-.4.52-.68.95-.68h9.56c.43 0 .81.28.95.68L19 11H5z"/></symbol>
<symbol id="directions_railway" viewBox="0 0 24 24"><path d="M0 0h24v24H0V0z" fill="none"/><path d="M4 15.5C4 17.43 5.57 19 7.5 19L6 20.5v.5h12v-.5L16.5 19c1.93 0 3.5-1.57 3.5-3.5V5c0-3.5-3.58-4-8-4s-8 .5-8 4v10.5zm8 1.5c-1.1 0-2-.9-2-2s.9-2 2-2 2 .9 2 2-.9 2-2 2zm6-7H6V5h12v5zM4 15.5C4 17.43 5.57 19 7.5 19l-1.14 1.15c-.32.31-.1.85.35.85h10.58c.45 0 .67-.54.35-.85L16.5 19c1.93 0 3.5-1.57 3.5-3.5V5c0-3.5-3.58-4-8-4s-8 .5-8 4v10.5zm8 1.5c-1.1 0-2-.9-2-2s.9-2 2-2 2 .9 2 2-.9 2-2 2zm6-7H6V5h12v5z"/></symbol>
<symbol id="directions_run" viewBox="0 0 24 24"><path d="M0 0h24v24H0V0z" fill="none"/><path d="M13.49 5.48c1.1 0 2-.9 2-2s-.9-2-2-2-2 .9-2 2 .9 2 2 2zm-3.17 12l.57-2.5 2.1 2v5c0 .55.45 1 1 1s1-.45 1-1v-5.64c0-.55-.22-1.07-.62-1.45l-1.48-1.41.6-3c1.07 1.24 2.62 2.13 4.36 2.41.6.09 1.14-.39 1.14-1 0-.49-.36-.9-.85-.98-1.52-.25-2.78-1.15-3.45-2.33l-1-1.6c-.4-.6-1-1-1.7-1-.3 0-.5.1-.8.1L7.21 7.76c-.74.32-1.22 1.04-1.22 1.85v2.37c0 .55.45 1 1 1s1-.45 1-1v-2.4l1.8-.7-1.6 8.1-3.92-.8c-.54-.11-1.07.24-1.18.78V17c-.11.54.24 1.07.78 1.18l4.11.82c1.06.21 2.1-.46 2.34-1.52z"/></symbol>
<symbol id="directions_subway" viewBox="0 0 24 24"><path d="M0 0h24v24H0V0z" fill="none"/><path d="M12 2c-4.42 0-8 .5-8 4v9.5C4 17.43 5.57 19 7.5 19l-1.15 1.15c-.31.31-.09.85.36.85H17.3c.45 0 .67-.54.35-.85L16.5 19c1.93 0 3.5-1.57 3.5-3.5V6c0-3.5-3.58-4-8-4zM7.5 17c-.83 0-1.5-.67-1.5-1.5S6.67 14 7.5 14s1.5.67 1.5 1.5S8.33 17 7.5 17zm3.5-6H6V6h5v5zm5.5 6c-.83 0-1.5-.67-1.5-1.5s.67-1.5 1.5-1.5 1.5.67 1.5 1.5-.67 1.5-1.5 1.5zm1.5-6h-5V6h5v5z"/></symbol>
<symbol id="directions_transit" viewBox="0 0 24 24"><path d="M0 0h24v24H0V0z" fill="none"/><path d="M12 2c-4.42 0-8 .5-8 4v9.5C4 17.43 5.57 19 7.5 19l-1.15 1.15c-.31.31-.09.85.36.85H17.3c.45 0 .67-.54.35-.85L16.5 19c1.93 0 3.5-1.57 3.5-3.5V6c0-3.5-3.58-4-8-4zM7.5 17c-.83 0-1.5-.67-1.5-1.5S6.67 14 7.5 14s1.5.67 1.5 1.5S8.33 17 7.5 17zm3.5-6H6V6h5v5zm5.5 6c-.83 0-1.5-.67-1.5-1.5s.67-1.5 1.5-1.5 1.5.67 1.5 1.5-.67 1.5-1.5 1.5zm1.5-6h-5V6h5v5z"/></symbol>
<symbol id="directions_walk" viewBox="0 0 24 24"><path d="M0 0h24v24H0V0z" fill="none"/><path d="M13.5 5.5c1.1 0 2-.9 2-2s-.9-2-2-2-2 .9-2 2 .9 2 2 2zM9.8 8.9L7.24 21.81c-.13.61.35 1.19.98 1.19h.08c.47 0 .87-.32.98-.78L10.9 15l2.1 2v5c0 .55.45 1 1 1s1-.45 1-1v-5.64c0-.55-.22-1.07-.62-1.45L12.9 13.5l.6-3c1.07 1.24 2.62 2.13 4.36 2.41.6.09 1.14-.39 1.14-1 0-.49-.36-.9-.85-.98-1.52-.25-2.78-1.15-3.45-2.33l-1-1.6c-.56-.89-1.68-1.25-2.65-.84L7.22 7.78C6.48 8.1 6 8.82 6 9.63V12c0 .55.45 1 1 1s1-.45 1-1V9.6l1.8-.7"/></symbol>
<symbol id="edit_attributes" viewBox="0 0 24 24"><path d="M0 0h24v24H0V0z" fill="none"/><path d="M17.63 7H6.37C3.96 7 2 9.24 2 12s1.96 5 4.37 5h11.26c2.41 0 4.37-2.24 4.37-5s-1.96-5-4.37-5zm-6.52 3.6L7.6 14.11c-.1.1-.23.15-.35.15s-.26-.05-.35-.15l-1.86-1.86c-.2-.2-.2-.51 0-.71s.51-.2.71 0l1.51 1.51 3.16-3.16c.2-.2.51-.2.71 0s.17.51-.02.71z"/></symbol>
<symbol id="edit_location" viewBox="0 0 24 24"><path d="M0 0h24v24H0z" fill="none"/><path d="M18.11 1.77l.96-.96a.996.996 0 0 1 1.41 0l.71.71c.39.39.39 1.02 0 1.41l-.96.96-2.12-2.12zm-1 1l2.12 2.12-5.97 5.97a.51.51 0 0 1-.35.15H11.5c-.28 0-.5-.22-.5-.5V9.1c0-.13.05-.26.15-.35l5.96-5.98zm-1.98-.13L9.79 7.98c-.18.19-.29.44-.29.71v2.83c0 .55.45 1 1 1h2.83c.27 0 .52-.11.71-.29l5.33-5.33c.4.98.63 2.09.63 3.31 0 3.18-2.45 6.92-7.34 11.23-.38.33-.95.33-1.33 0C6.45 17.13 4 13.39 4 10.21c0-4.98 3.8-8.2 8-8.2 1.09 0 2.16.22 3.13.63z"/></symbol>
<symbol id="edit_road" viewBox="0 0 24 24"><g><rect fill="none" height="24" width="24"/><rect fill="none" height="24" width="24"/></g><g><g><path d="M17,4L17,4c-0.55,0-1,0.45-1,1v6.9l2-2V5C18,4.45,17.55,4,17,4z"/><path d="M5,20L5,20c0.55,0,1-0.45,1-1V5c0-0.55-0.45-1-1-1h0C4.45,4,4,4.45,4,5v14C4,19.55,4.45,20,5,20z"/><path d="M11,8L11,8c0.55,0,1-0.45,1-1V5c0-0.55-0.45-1-1-1h0c-0.55,0-1,0.45-1,1v2C10,7.55,10.45,8,11,8z"/><path d="M11,14L11,14c0.55,0,1-0.45,1-1v-2c0-0.55-0.45-1-1-1h0c-0.55,0-1,0.45-1,1v2C10,13.55,10.45,14,11,14z"/><path d="M11,20L11,20c0.55,0,1-0.45,1-1v-2c0-0.55-0.45-1-1-1h0c-0.55,0-1,0.45-1,1v2C10,19.55,10.45,20,11,20z"/><path d="M22.56,12.59l-1.15-1.15c-0.59-0.59-1.54-0.59-2.12,0L14,16.73v2.77c0,0.28,0.22,0.5,0.5,0.5h2.77l5.29-5.29 C23.15,14.12,23.15,13.17,22.56,12.59z M16.58,18.45h-1.03v-1.03L19,13.97L20.03,15L16.58,18.45z"/></g></g></symbol>
<symbol id="electrical_services" viewBox="0 0 24 24"><g><rect fill="none" height="24" width="24"/><rect fill="none" height="24" width="24"/></g><g><g><path d="M21,14c0-0.55-0.45-1-1-1h-2v2h2C20.55,15,21,14.55,21,14z"/><path d="M20,17h-2v2h2c0.55,0,1-0.45,1-1C21,17.45,20.55,17,20,17z"/><path d="M16,12h-2c-1.1,0-2,0.9-2,2h-1c-0.55,0-1,0.45-1,1v2c0,0.55,0.45,1,1,1h1c0,1.1,0.9,2,2,2h2c0.55,0,1-0.45,1-1v-6 C17,12.45,16.55,12,16,12z"/><path d="M5,13c0-1.1,0.9-2,2-2h1.5c1.93,0,3.5-1.57,3.5-3.5S10.43,4,8.5,4H5C4.45,4,4,4.45,4,5c0,0.55,0.45,1,1,1h3.5 C9.33,6,10,6.67,10,7.5S9.33,9,8.5,9H7c-2.21,0-4,1.79-4,4c0,2.21,1.79,4,4,4h2v-2H7C5.9,15,5,14.1,5,13z"/></g></g></symbol>
<symbol id="electric_bike" viewBox="0 0 24 24"><g><rect fill="none" height="24" width="24"/><rect fill="none" height="24" width="24"/></g><g><g><path d="M19,7h-0.82l-1.7-4.68C16.19,1.53,15.44,1,14.6,1H13c-0.55,0-1,0.45-1,1c0,0.55,0.45,1,1,1h1.6l1.46,4h-4.81l-0.36-1h0.09 c0.55,0,1-0.45,1-1c0-0.55-0.45-1-1-1H8C7.45,4,7,4.45,7,5c0,0.55,0.45,1,1,1h0.75l1.82,5H9.9C9.46,8.77,7.59,7.12,5.25,7.01 C2.45,6.87,0,9.2,0,12c0,2.8,2.2,5,5,5c2.46,0,4.45-1.69,4.9-4h4.2c0.44,2.23,2.31,3.88,4.65,3.99c2.8,0.13,5.25-2.19,5.25-5 C24,9.2,21.8,7,19,7z M6,13h1.82c-0.42,1.23-1.6,2.08-3.02,1.99C3.31,14.9,2.07,13.64,2,12.14C1.93,10.39,3.27,9,5,9 c1.33,0,2.42,0.83,2.82,2H6c-0.55,0-1,0.45-1,1C5,12.55,5.45,13,6,13z M14.1,11h-1.4l-0.73-2H15C14.56,9.58,14.24,10.25,14.1,11z M18.88,15c-1.54-0.06-2.84-1.37-2.88-2.92c-0.02-0.96,0.39-1.8,1.05-2.36l0.62,1.7c0.19,0.52,0.76,0.79,1.28,0.6 c0.52-0.19,0.79-0.76,0.6-1.28l-0.63-1.73c0,0,0,0,0.01-0.01C20.64,8.96,22,10.29,22,12C22,13.72,20.62,15.06,18.88,15z"/><polygon points="11,20 7,20 13,23 13,21 17,21 11,18"/></g></g></symbol>
<symbol id="electric_car" viewBox="0 0 24 24"><g><rect fill="none" height="24" width="24"/><rect fill="none" height="24" width="24"/></g><g><path d="M18.92,2.01C18.72,1.42,18.16,1,17.5,1h-11C5.84,1,5.29,1.42,5.08,2.01L3.11,7.68C3.04,7.89,3,8.11,3,8.34v7.16 C3,16.33,3.67,17,4.5,17h0C5.33,17,6,16.33,6,15.5V15h12v0.5c0,0.82,0.67,1.5,1.5,1.5h0c0.82,0,1.5-0.67,1.5-1.5V8.34 c0-0.22-0.04-0.45-0.11-0.66L18.92,2.01z M6.5,12C5.67,12,5,11.33,5,10.5S5.67,9,6.5,9S8,9.67,8,10.5S7.33,12,6.5,12z M17.5,12 c-0.83,0-1.5-0.67-1.5-1.5S16.67,9,17.5,9S19,9.67,19,10.5S18.33,12,17.5,12z M5,7l1.27-3.82C6.41,2.78,6.79,2.5,7.22,2.5h9.56 c0.43,0,0.81,0.28,0.95,0.68L19,7H5z"/><polygon points="7,20 11,20 11,18 17,21 13,21 13,23"/></g></symbol>
<symbol id="electric_moped" viewBox="0 0 24 24"><g><rect fill="none" height="24" width="24"/><rect fill="none" height="24" width="24"/></g><g><g><path d="M19,5c0-1.1-0.9-2-2-2h-2c-0.55,0-1,0.45-1,1v0c0,0.55,0.45,1,1,1h2v2.65L13.52,12H10V8c0-0.55-0.45-1-1-1H6 c-2.21,0-4,1.79-4,4v3h2c0,1.66,1.34,3,3,3s3-1.34,3-3h4.48L19,8.35V5z M7,15c-0.55,0-1-0.45-1-1h2C8,14.55,7.55,15,7,15z"/><path d="M9,4H6C5.45,4,5,4.45,5,5v0c0,0.55,0.45,1,1,1h3c0.55,0,1-0.45,1-1v0C10,4.45,9.55,4,9,4z"/><path d="M19,11c-1.66,0-3,1.34-3,3s1.34,3,3,3s3-1.34,3-3S20.66,11,19,11z M19,15c-0.55,0-1-0.45-1-1s0.45-1,1-1s1,0.45,1,1 S19.55,15,19,15z"/></g><polygon points="7,20 11,20 11,18 17,21 13,21 13,23"/></g></symbol>
<symbol id="electric_rickshaw" viewBox="0 0 24 24"><g><rect fill="none" height="24" width="24"/><rect fill="none" height="24" width="24"/></g><g><path d="M21,11.18V9.72c0-0.47-0.16-0.92-0.46-1.28L16.6,3.72C16.22,3.26,15.66,3,15.06,3H3C1.9,3,1,3.9,1,5v8c0,1.1,0.9,2,2,2 h0.18C3.6,16.16,4.7,17,6,17s2.4-0.84,2.82-2h8.37c0.41,1.16,1.51,2,2.82,2c1.66,0,3-1.34,3-3C23,12.7,22.16,11.6,21,11.18z M18.4,9H16V6.12L18.4,9z M4,5h3v4H3V6C3,5.45,3.45,5,4,5z M6,15c-0.55,0-1-0.45-1-1s0.45-1,1-1s1,0.45,1,1S6.55,15,6,15z M9,13v-2 h2c0.55,0,1-0.45,1-1v0c0-0.55-0.45-1-1-1H9V5h4c0.55,0,1,0.45,1,1v7H9z M20,15c-0.55,0-1-0.45-1-1s0.45-1,1-1s1,0.45,1,1 S20.55,15,20,15z"/><polygon points="7,20 11,20 11,18 17,21 13,21 13,23"/></g></symbol>
<symbol id="electric_scooter" viewBox="0 0 24 24"><g><rect fill="none" height="24" width="24"/><rect fill="none" height="24" width="24"/></g><g><g><path d="M7.82,16H15v-1c0-2.21,1.79-4,4-4h0.74l-1.9-8.44C17.63,1.65,16.82,1,15.89,1H13c-0.55,0-1,0.45-1,1c0,0.55,0.45,1,1,1 h2.89l1.4,6.25c0,0-0.01,0-0.01,0c-2.16,0.65-3.81,2.48-4.19,4.75H7.82c-0.48-1.34-1.86-2.24-3.42-1.94 c-1.18,0.23-2.13,1.2-2.35,2.38C1.7,16.34,3.16,18,5,18C6.3,18,7.4,17.16,7.82,16z M5,16c-0.55,0-1-0.45-1-1s0.45-1,1-1 s1,0.45,1,1S5.55,16,5,16z"/><path d="M19,12c-1.66,0-3,1.34-3,3s1.34,3,3,3s3-1.34,3-3S20.66,12,19,12z M19,16c-0.55,0-1-0.45-1-1s0.45-1,1-1s1,0.45,1,1 S19.55,16,19,16z"/><polygon points="11,20 7,20 13,23 13,21 17,21 11,18"/></g></g></symbol>
<symbol id="ev_station" viewBox="0 0 24 24"><path d="M0 0h24v24H0V0z" fill="none"/><path d="M19.77 7.23l.01-.01-3.19-3.19c-.29-.29-.77-.29-1.06 0-.29.29-.29.77 0 1.06l1.58 1.58c-1.05.4-1.76 1.47-1.58 2.71.16 1.1 1.1 1.99 2.2 2.11.47.05.88-.03 1.27-.2v7.21c0 .55-.45 1-1 1s-1-.45-1-1V14c0-1.1-.9-2-2-2h-1V5c0-1.1-.9-2-2-2H6c-1.1 0-2 .9-2 2v15c0 .55.45 1 1 1h8c.55 0 1-.45 1-1v-6.5h1.5v4.86c0 1.31.94 2.5 2.24 2.63 1.5.15 2.76-1.02 2.76-2.49V9c0-.69-.28-1.32-.73-1.77zM18 10c-.55 0-1-.45-1-1s.45-1 1-1 1 .45 1 1-.45 1-1 1zM8 16.12V13.5H6.83c-.38 0-.62-.4-.44-.74l2.67-5c.24-.45.94-.28.94.24v3h1.14c.38 0 .62.41.43.75l-2.64 4.62c-.25.44-.93.26-.93-.25z"/></symbol>
<symbol id="fastfood" viewBox="0 0 24 24"><path d="M0 0h24v24H0V0z" fill="none"/><path d="M21.9 5H18V2c0-.55-.45-1-1-1s-1 .45-1 1v3h-3.9c-.59 0-1.05.51-1 1.1l.12 1.21C14.9 8.16 18 10.77 18 15l.02 8h1.7c.84 0 1.53-.65 1.63-1.47L22.89 6.1c.06-.59-.4-1.1-.99-1.1zM15 21H2c-.55 0-1 .45-1 1s.45 1 1 1h13c.55 0 1-.45 1-1s-.45-1-1-1zM2.1 15h12.8c.62 0 1.11-.56.99-1.16-.65-3.23-4.02-4.85-7.39-4.85s-6.73 1.62-7.39 4.85c-.12.6.38 1.16.99 1.16zM15 17H2c-.55 0-1 .45-1 1s.45 1 1 1h13c.55 0 1-.45 1-1s-.45-1-1-1z"/></symbol>
<symbol id="flight" viewBox="0 0 24 24"><path d="M0 0h24v24H0V0z" fill="none"/><path d="M21 14.58c0-.36-.19-.69-.49-.89L13 9V3.5c0-.83-.67-1.5-1.5-1.5S10 2.67 10 3.5V9l-7.51 4.69c-.3.19-.49.53-.49.89 0 .7.68 1.21 1.36 1L10 13.5V19l-1.8 1.35c-.13.09-.2.24-.2.4v.59c0 .33.32.57.64.48L11.5 21l2.86.82c.32.09.64-.15.64-.48v-.59c0-.16-.07-.31-.2-.4L13 19v-5.5l6.64 2.08c.68.21 1.36-.3 1.36-1z"/></symbol>
<symbol id="handyman" viewBox="0 0 24 24"><g><rect fill="none" height="24" width="24"/><rect fill="none" height="24" width="24"/></g><g><g><g><path d="M21.67,18.17l-4.72-4.72c-0.48-0.48-0.99-0.59-1.58-0.59l-2.54,2.54c0,0.59,0.11,1.11,0.59,1.58l4.72,4.72 c0.39,0.39,1.02,0.39,1.41,0l2.12-2.12C22.06,19.2,22.06,18.56,21.67,18.17z"/></g><g><path d="M16.63,9.49c0.39,0.39,1.02,0.39,1.41,0l0.71-0.71l2.12,2.12c1.17-1.17,1.17-3.07,0-4.24l-2.83-2.83 c-0.39-0.39-1.02-0.39-1.41,0l-0.71,0.71V2c0-0.62-0.76-0.95-1.21-0.5l-2.54,2.54c-0.45,0.45-0.12,1.21,0.5,1.21h2.54l-0.71,0.71 c-0.39,0.39-0.39,1.02,0,1.41l0.35,0.35l-2.89,2.89L7.85,6.48v-1c0-0.27-0.11-0.52-0.29-0.71L5.54,2.74 c-0.39-0.39-1.02-0.39-1.41,0L2.71,4.16c-0.39,0.39-0.39,1.02,0,1.41L4.73,7.6c0.19,0.19,0.44,0.29,0.71,0.29h1l4.13,4.13 l-0.85,0.85H8.42c-0.53,0-1.04,0.21-1.41,0.59l-4.72,4.72c-0.39,0.39-0.39,1.02,0,1.41l2.12,2.12c0.39,0.39,1.02,0.39,1.41,0 l4.72-4.72c0.38-0.38,0.59-0.88,0.59-1.41v-1.29l5.15-5.15L16.63,9.49z"/></g></g></g></symbol>
<symbol id="home_repair_service" viewBox="0 0 24 24"><g><rect fill="none" height="24" width="24"/><rect fill="none" height="24" width="24"/></g><g><g><g><path d="M17,16c-0.55,0-1-0.45-1-1H8c0,0.55-0.45,1-1,1s-1-0.45-1-1H2v3c0,1.1,0.9,2,2,2h16c1.1,0,2-0.9,2-2v-3h-4 C18,15.55,17.55,16,17,16z"/></g><path d="M20,8h-3V6c0-1.1-0.9-2-2-2H9C7.9,4,7,4.9,7,6v2H4c-1.1,0-2,0.9-2,2v4h4v-1c0-0.55,0.45-1,1-1s1,0.45,1,1v1h8v-1 c0-0.55,0.45-1,1-1s1,0.45,1,1v1h4v-4C22,8.9,21.1,8,20,8z M15,8H9V6h6V8z"/></g></g></symbol>
<symbol id="hotel" viewBox="0 0 24 24"><path d="M0 0h24v24H0V0z" fill="none"/><path d="M7 13c1.66 0 3-1.34 3-3S8.66 7 7 7s-3 1.34-3 3 1.34 3 3 3zm12-6h-6c-1.1 0-2 .9-2 2v5H3V6c0-.55-.45-1-1-1s-1 .45-1 1v13c0 .55.45 1 1 1s1-.45 1-1v-2h18v2c0 .55.45 1 1 1s1-.45 1-1v-8c0-2.21-1.79-4-4-4z"/></symbol>
<symbol id="hvac" viewBox="0 0 24 24"><g><rect fill="none" height="24" width="24"/><rect fill="none" height="24" width="24"/></g><g><g><g><path d="M12,16c1.01,0,1.91-0.39,2.62-1H9.38C10.09,15.61,10.99,16,12,16z"/></g><g><path d="M8.56,14h6.89c0.26-0.45,0.44-0.96,0.51-1.5h-7.9C8.12,13.04,8.29,13.55,8.56,14z"/></g><g><path d="M12,8c-1.01,0-1.91,0.39-2.62,1h5.24C13.91,8.39,13.01,8,12,8z"/></g><g><path d="M8.56,10c-0.26,0.45-0.44,0.96-0.51,1.5h7.9c-0.07-0.54-0.24-1.05-0.51-1.5H8.56z"/></g><g><path d="M19,3H5C3.9,3,3,3.9,3,5v14c0,1.1,0.9,2,2,2h14c1.1,0,2-0.9,2-2V5C21,3.9,20.1,3,19,3z M12,18c-3.31,0-6-2.69-6-6 s2.69-6,6-6s6,2.69,6,6S15.31,18,12,18z"/></g></g></g></symbol>
<symbol id="layers" viewBox="0 0 24 24"><path d="M0 0h24v24H0V0z" fill="none"/><path d="M12.6 18.06c-.36.28-.87.28-1.23 0l-6.15-4.78c-.36-.28-.86-.28-1.22 0-.51.4-.51 1.17 0 1.57l6.76 5.26c.72.56 1.73.56 2.46 0l6.76-5.26c.51-.4.51-1.17 0-1.57l-.01-.01c-.36-.28-.86-.28-1.22 0l-6.15 4.79zm.63-3.02l6.76-5.26c.51-.4.51-1.18 0-1.58l-6.76-5.26c-.72-.56-1.73-.56-2.46 0L4.01 8.21c-.51.4-.51 1.18 0 1.58l6.76 5.26c.72.56 1.74.56 2.46-.01z"/></symbol>
<symbol id="layers_clear" viewBox="0 0 24 24"><path d="M0 0h24v24H0V0z" fill="none"/><path d="M19.99 9.79c.51-.4.51-1.18 0-1.58l-6.76-5.26c-.72-.56-1.73-.56-2.46 0L9.41 4.02l7.88 7.88 2.7-2.11zm0 3.49l-.01-.01c-.36-.28-.86-.28-1.22 0l-.05.04 1.4 1.4c.37-.41.34-1.07-.12-1.43zm1.45 5.6L4.12 1.56c-.39-.39-1.02-.39-1.41 0-.39.39-.39 1.02 0 1.41l3.52 3.52-2.22 1.72c-.51.4-.51 1.18 0 1.58l6.76 5.26c.72.56 1.73.56 2.46 0l.87-.68 1.42 1.42-2.92 2.27c-.36.28-.87.28-1.23 0l-6.15-4.78c-.36-.28-.86-.28-1.22 0-.51.4-.51 1.17 0 1.57l6.76 5.26c.72.56 1.73.56 2.46 0l3.72-2.89 3.07 3.07c.39.39 1.02.39 1.41 0 .41-.39.41-1.02.02-1.41z"/></symbol>
<symbol id="local_activity" viewBox="0 0 24 24"><path d="M0 0h24v24H0V0z" fill="none"/><path d="M20 12c0-.76.43-1.42 1.06-1.76.6-.33.94-1.01.94-1.7V6c0-1.1-.9-2-2-2H4c-1.1 0-1.99.89-1.99 1.99v2.55c0 .69.33 1.37.94 1.69C3.58 10.58 4 11.24 4 12s-.43 1.43-1.06 1.76c-.6.33-.94 1.01-.94 1.7V18c0 1.1.9 2 2 2h16c1.1 0 2-.9 2-2v-2.54c0-.69-.34-1.37-.94-1.7-.63-.34-1.06-1-1.06-1.76zm-5.5 4.1L12 14.5l-2.5 1.61c-.38.24-.87-.11-.75-.55l.75-2.88-2.3-1.88c-.35-.29-.17-.86.29-.89l2.96-.17 1.08-2.75c.17-.42.77-.42.93 0l1.08 2.76 2.96.17c.45.03.64.6.29.89l-2.3 1.88.76 2.86c.12.45-.37.8-.75.55z"/></symbol>
<symbol id="local_airport" viewBox="0 0 24 24"><g><path d="M21.48,13.7L13.5,9V3.5C13.5,2.67,12.83,2,12,2c-0.83,0-1.5,0.67-1.5,1.5V9l-7.98,4.7C2.2,13.88,2,14.23,2,14.6 c0,0.7,0.67,1.2,1.34,1.01l7.16-2.1V19l-2.26,1.35C8.09,20.44,8,20.61,8,20.78l0,0.5h0v0.08c0,0.33,0.31,0.57,0.62,0.49l2.92-0.73 L12,21l0.38,0.09c0,0,0,0,0,0l0.42,0.11l1.9,0.48l0,0l0.67,0.17c0.32,0.08,0.62-0.16,0.62-0.49v-0.37c0,0,0,0,0,0v-0.21 c0-0.18-0.09-0.34-0.24-0.43L13.5,19v-5.5l7.16,2.1C21.33,15.8,22,15.3,22,14.6C22,14.23,21.8,13.88,21.48,13.7z"/><path d="M0,0h24v24H0V0z" fill="none"/></g></symbol>
<symbol id="local_atm" viewBox="0 0 24 24"><path d="M0 0h24v24H0V0z" fill="none"/><path d="M20 4H4c-1.11 0-1.99.89-1.99 2L2 18c0 1.11.89 2 2 2h16c1.11 0 2-.89 2-2V6c0-1.11-.89-2-2-2zm0 13c0 .55-.45 1-1 1H5c-.55 0-1-.45-1-1V7c0-.55.45-1 1-1h14c.55 0 1 .45 1 1v10zm-6-7c.55 0 1-.45 1-1s-.45-1-1-1h-1v-.01c0-.55-.45-1-1-1s-1 .45-1 1V8h-1c-.55 0-1 .45-1 1v3c0 .55.45 1 1 1h3v1h-3c-.55 0-1 .45-1 1s.45 1 1 1h1c0 .55.45 1 1 1s1-.45 1-1h1c.55 0 1-.45 1-1v-3c0-.55-.45-1-1-1h-3v-1h3z"/></symbol>
<symbol id="local_bar" viewBox="0 0 24 24"><path d="M0 0h24v24H0V0z" fill="none"/><path d="M21 4.45c0-.8-.65-1.45-1.45-1.45H4.45C3.65 3 3 3.65 3 4.45c0 .35.13.7.37.96L11 14v5H7c-.55 0-1 .45-1 1s.45 1 1 1h10c.55 0 1-.45 1-1s-.45-1-1-1h-4v-5l7.63-8.59c.24-.26.37-.61.37-.96zM7.43 7L5.66 5h12.69l-1.78 2H7.43z"/></symbol>
<symbol id="local_cafe" viewBox="0 0 24 24"><path d="M0 0h24v24H0V0z" fill="none"/><path d="M20 3H6c-1.1 0-2 .9-2 2v8c0 2.21 1.79 4 4 4h6c2.21 0 4-1.79 4-4v-3h2c1.1 0 2-.9 2-2V5c0-1.1-.9-2-2-2zm0 5h-2V5h2v3zM3 21h16c.55 0 1-.45 1-1s-.45-1-1-1H3c-.55 0-1 .45-1 1s.45 1 1 1z"/></symbol>
<symbol id="local_car_wash" viewBox="0 0 24 24"><path d="M0 0h24v24H0V0z" fill="none"/><path d="M17 5c.83 0 1.5-.67 1.5-1.5 0-.66-.66-1.64-1.11-2.22-.2-.26-.59-.26-.79 0-.44.58-1.1 1.56-1.1 2.22 0 .83.67 1.5 1.5 1.5zm-5 0c.83 0 1.5-.67 1.5-1.5 0-.66-.66-1.64-1.11-2.22-.2-.26-.59-.26-.79 0-.44.58-1.1 1.56-1.1 2.22 0 .83.67 1.5 1.5 1.5zM7 5c.83 0 1.5-.67 1.5-1.5 0-.66-.66-1.64-1.11-2.22-.2-.26-.59-.26-.79 0-.44.58-1.1 1.56-1.1 2.22C5.5 4.33 6.17 5 7 5zm11.92 3.01C18.72 7.42 18.16 7 17.5 7h-11c-.66 0-1.21.42-1.42 1.01l-1.97 5.67c-.07.21-.11.43-.11.66v7.16c0 .83.67 1.5 1.5 1.5S6 22.33 6 21.5V21h12v.5c0 .82.67 1.5 1.5 1.5.82 0 1.5-.67 1.5-1.5v-7.16c0-.22-.04-.45-.11-.66l-1.97-5.67zM6.5 18c-.83 0-1.5-.67-1.5-1.5S5.67 15 6.5 15s1.5.67 1.5 1.5S7.33 18 6.5 18zm11 0c-.83 0-1.5-.67-1.5-1.5s.67-1.5 1.5-1.5 1.5.67 1.5 1.5-.67 1.5-1.5 1.5zM5 13l1.27-3.82c.14-.4.52-.68.95-.68h9.56c.43 0 .81.28.95.68L19 13H5z"/></symbol>
<symbol id="local_convenience_store" viewBox="0 0 24 24"><path d="M0 0h24v24H0V0z" fill="none"/><path d="M21 7h-2V5c0-.55-.45-1-1-1H6c-.55 0-1 .45-1 1v2H3c-.55 0-1 .45-1 1v11c0 .55.45 1 1 1h6c.55 0 1-.45 1-1v-3h4v3c0 .55.45 1 1 1h6c.55 0 1-.45 1-1V8c0-.55-.45-1-1-1zM11 9c0 .55-.45 1-1 1H9v1h1.5c.28 0 .5.22.5.5s-.22.5-.5.5H9c-.55 0-1-.45-1-1v-1c0-.55.45-1 1-1h1V8H8.5c-.28 0-.5-.22-.5-.5s.22-.5.5-.5H10c.55 0 1 .45 1 1v1zm5 2.5c0 .28-.22.5-.5.5s-.5-.22-.5-.5V10h-1c-.55 0-1-.45-1-1V7.5c0-.28.22-.5.5-.5s.5.22.5.5V9h1V7.5c0-.28.22-.5.5-.5s.5.22.5.5v4z"/></symbol>
<symbol id="local_dining" viewBox="0 0 24 24"><path d="M0 0h24v24H0V0z" fill="none"/><path d="M8.1 13.34l2.83-2.83-6.19-6.18c-.48-.48-1.31-.35-1.61.27-.71 1.49-.45 3.32.78 4.56l4.19 4.18zm6.78-1.81c1.53.71 3.68.21 5.27-1.38 1.91-1.91 2.28-4.65.81-6.12-1.46-1.46-4.2-1.1-6.12.81-1.59 1.59-2.09 3.74-1.38 5.27l-9.05 9.05c-.39.39-.39 1.02 0 1.41.39.39 1.02.39 1.41 0L12 14.41l6.18 6.18c.39.39 1.02.39 1.41 0 .39-.39.39-1.02 0-1.41L13.41 13l1.47-1.47z"/></symbol>
<symbol id="local_drink" viewBox="0 0 24 24"><path d="M0 0h24v24H0V0z" fill="none"/><path d="M5.23 2C4.04 2 3.11 3.04 3.24 4.22l1.77 16.01C5.13 21.23 5.97 22 7 22h10c1.03 0 1.87-.77 1.99-1.77l1.77-16.01c.13-1.18-.8-2.22-1.99-2.22H5.23zM12 19c-1.66 0-3-1.34-3-3 0-1.55 1.81-3.95 2.62-4.94.2-.25.57-.25.77 0 .81 1 2.62 3.39 2.62 4.94-.01 1.66-1.35 3-3.01 3zm6.33-11H5.67l-.32-2.89c-.06-.59.4-1.11 1-1.11h11.3c.59 0 1.06.52.99 1.11L18.33 8z"/></symbol>
<symbol id="local_fire_department" viewBox="0 0 24 24"><g><rect fill="none" height="24" width="24" y="0"/></g><g><path d="M19.48,12.35c-1.57-4.08-7.16-4.3-5.81-10.23c0.1-0.44-0.37-0.78-0.75-0.55C9.29,3.71,6.68,8,8.87,13.62 c0.18,0.46-0.36,0.89-0.75,0.59c-1.81-1.37-2-3.34-1.84-4.75c0.06-0.52-0.62-0.77-0.91-0.34C4.69,10.16,4,11.84,4,14.37 c0.38,5.6,5.11,7.32,6.81,7.54c2.43,0.31,5.06-0.14,6.95-1.87C19.84,18.11,20.6,15.03,19.48,12.35z M10.2,17.38 c1.44-0.35,2.18-1.39,2.38-2.31c0.33-1.43-0.96-2.83-0.09-5.09c0.33,1.87,3.27,3.04,3.27,5.08C15.84,17.59,13.1,19.76,10.2,17.38z"/><path d="M19.48,12.35c-1.57-4.08-7.16-4.3-5.81-10.23c0.1-0.44-0.37-0.78-0.75-0.55C9.29,3.71,6.68,8,8.87,13.62 c0.18,0.46-0.36,0.89-0.75,0.59c-1.81-1.37-2-3.34-1.84-4.75c0.06-0.52-0.62-0.77-0.91-0.34C4.69,10.16,4,11.84,4,14.37 c0.38,5.6,5.11,7.32,6.81,7.54c2.43,0.31,5.06-0.14,6.95-1.87C19.84,18.11,20.6,15.03,19.48,12.35z M10.2,17.38 c1.44-0.35,2.18-1.39,2.38-2.31c0.33-1.43-0.96-2.83-0.09-5.09c0.33,1.87,3.27,3.04,3.27,5.08C15.84,17.59,13.1,19.76,10.2,17.38z"/></g></symbol>
<symbol id="local_florist" viewBox="0 0 24 24"><path d="M0 0h24v24H0V0z" fill="none"/><path d="M12 22c4.56 0 8.33-3.4 8.92-7.8.09-.64-.48-1.21-1.12-1.12-4.4.59-7.8 4.36-7.8 8.92zM5.6 10.25c0 1.38 1.12 2.5 2.5 2.5.53 0 1.01-.16 1.42-.44l-.02.19c0 1.38 1.12 2.5 2.5 2.5s2.5-1.12 2.5-2.5l-.02-.19c.4.28.89.44 1.42.44 1.38 0 2.5-1.12 2.5-2.5 0-1-.59-1.85-1.43-2.25.84-.4 1.43-1.25 1.43-2.25 0-1.38-1.12-2.5-2.5-2.5-.53 0-1.01.16-1.42.44l.02-.19C14.5 2.12 13.38 1 12 1S9.5 2.12 9.5 3.5l.02.19c-.4-.28-.89-.44-1.42-.44-1.38 0-2.5 1.12-2.5 2.5 0 1 .59 1.85 1.43 2.25-.84.4-1.43 1.25-1.43 2.25zM12 5.5c1.38 0 2.5 1.12 2.5 2.5s-1.12 2.5-2.5 2.5S9.5 9.38 9.5 8s1.12-2.5 2.5-2.5zm-8.92 8.7C3.67 18.6 7.44 22 12 22c0-4.56-3.4-8.33-7.8-8.92-.64-.09-1.21.48-1.12 1.12z"/></symbol>
<symbol id="local_gas_station" viewBox="0 0 24 24"><path d="M0 0h24v24H0V0z" fill="none"/><path d="M19.77 7.23l.01-.01-3.19-3.19c-.29-.29-.77-.29-1.06 0-.29.29-.29.77 0 1.06l1.58 1.58c-1.05.4-1.76 1.47-1.58 2.71.16 1.1 1.1 1.99 2.2 2.11.47.05.88-.03 1.27-.2v7.21c0 .55-.45 1-1 1s-1-.45-1-1V14c0-1.1-.9-2-2-2h-1V5c0-1.1-.9-2-2-2H6c-1.1 0-2 .9-2 2v15c0 .55.45 1 1 1h8c.55 0 1-.45 1-1v-6.5h1.5v4.86c0 1.31.94 2.5 2.24 2.63 1.5.15 2.76-1.02 2.76-2.49V9c0-.69-.28-1.32-.73-1.77zM12 10H6V6c0-.55.45-1 1-1h4c.55 0 1 .45 1 1v4zm6 0c-.55 0-1-.45-1-1s.45-1 1-1 1 .45 1 1-.45 1-1 1z"/></symbol>
<symbol id="local_grocery_store" viewBox="0 0 24 24"><path d="M0 0h24v24H0V0z" fill="none"/><path d="M7 18c-1.1 0-1.99.9-1.99 2S5.9 22 7 22s2-.9 2-2-.9-2-2-2zM2 4h1l3.6 7.59-1.35 2.44C4.52 15.37 5.48 17 7 17h11c.55 0 1-.45 1-1s-.45-1-1-1H7l1.1-2h7.45c.75 0 1.41-.41 1.75-1.03l3.58-6.49c.37-.66-.11-1.48-.87-1.48H5.21l-.67-1.43c-.16-.35-.52-.57-.9-.57H2c-.55 0-1 .45-1 1s.45 1 1 1zm15 14c-1.1 0-1.99.9-1.99 2s.89 2 1.99 2 2-.9 2-2-.9-2-2-2z"/></symbol>
<symbol id="local_hospital" viewBox="0 0 24 24"><path d="M0 0h24v24H0V0z" fill="none"/><path d="M19 3H5c-1.1 0-1.99.9-1.99 2L3 19c0 1.1.9 2 2 2h14c1.1 0 2-.9 2-2V5c0-1.1-.9-2-2-2zm-2 11h-3v3c0 .55-.45 1-1 1h-2c-.55 0-1-.45-1-1v-3H7c-.55 0-1-.45-1-1v-2c0-.55.45-1 1-1h3V7c0-.55.45-1 1-1h2c.55 0 1 .45 1 1v3h3c.55 0 1 .45 1 1v2c0 .55-.45 1-1 1z"/></symbol>
<symbol id="local_hotel" viewBox="0 0 24 24"><path d="M0 0h24v24H0V0z" fill="none"/><path d="M7 13c1.66 0 3-1.34 3-3S8.66 7 7 7s-3 1.34-3 3 1.34 3 3 3zm12-6h-6c-1.1 0-2 .9-2 2v5H3V6c0-.55-.45-1-1-1s-1 .45-1 1v13c0 .55.45 1 1 1s1-.45 1-1v-2h18v2c0 .55.45 1 1 1s1-.45 1-1v-8c0-2.21-1.79-4-4-4z"/></symbol>
<symbol id="local_laundry_service" viewBox="0 0 24 24"><path d="M0 0h24v24H0V0z" fill="none"/><path d="M9.55 16.45c-.2.2-.21.55.02.73 1.57 1.2 3.83 1.08 5.26-.35s1.55-3.69.35-5.26c-.18-.23-.53-.23-.73-.02l-4.9 4.9zM18 2.01L6 2c-1.11 0-2 .89-2 2v16c0 1.11.89 2 2 2h12c1.11 0 2-.89 2-2V4c0-1.11-.89-1.99-2-1.99zM10 4c.55 0 1 .45 1 1s-.45 1-1 1-1-.45-1-1 .45-1 1-1zM7 4c.55 0 1 .45 1 1s-.45 1-1 1-1-.45-1-1 .45-1 1-1zm5 16c-3.31 0-6-2.69-6-6s2.69-6 6-6 6 2.69 6 6-2.69 6-6 6z"/></symbol>
<symbol id="local_library" viewBox="0 0 24 24"><path d="M0 0h24v24H0V0z" fill="none"/><path d="M12 11.55c-1.82-1.7-4.12-2.89-6.68-3.35C4.11 7.99 3 8.95 3 10.18v6.24c0 1.68.72 2.56 1.71 2.69 2.5.32 4.77 1.35 6.63 2.87.35.29.92.32 1.27.04 1.87-1.53 4.16-2.58 6.68-2.9.94-.13 1.71-1.06 1.71-2.02v-6.92c0-1.23-1.11-2.19-2.32-1.98-2.56.46-4.86 1.65-6.68 3.35zM12 8c1.66 0 3-1.34 3-3s-1.34-3-3-3-3 1.34-3 3 1.34 3 3 3z"/></symbol>
<symbol id="local_mall" viewBox="0 0 24 24"><path d="M0 0h24v24H0V0z" fill="none"/><path d="M19 6h-2c0-2.76-2.24-5-5-5S7 3.24 7 6H5c-1.1 0-2 .9-2 2v12c0 1.1.9 2 2 2h14c1.1 0 2-.9 2-2V8c0-1.1-.9-2-2-2zm-7-3c1.66 0 3 1.34 3 3H9c0-1.66 1.34-3 3-3zm0 10c-2.33 0-4.29-1.59-4.84-3.75-.17-.63.32-1.25.97-1.25.47 0 .85.34.98.8.35 1.27 1.51 2.2 2.89 2.2s2.54-.93 2.89-2.2c.13-.46.51-.8.98-.8.65 0 1.13.62.97 1.25C16.29 11.41 14.33 13 12 13z"/></symbol>
<symbol id="local_movies" viewBox="0 0 24 24"><path d="M0 0h24v24H0V0z" fill="none"/><path d="M18 4v1h-2V4c0-.55-.45-1-1-1H9c-.55 0-1 .45-1 1v1H6V4c0-.55-.45-1-1-1s-1 .45-1 1v16c0 .55.45 1 1 1s1-.45 1-1v-1h2v1c0 .55.45 1 1 1h6c.55 0 1-.45 1-1v-1h2v1c0 .55.45 1 1 1s1-.45 1-1V4c0-.55-.45-1-1-1s-1 .45-1 1zM8 17H6v-2h2v2zm0-4H6v-2h2v2zm0-4H6V7h2v2zm10 8h-2v-2h2v2zm0-4h-2v-2h2v2zm0-4h-2V7h2v2z"/></symbol>
<symbol id="local_offer" viewBox="0 0 24 24"><path d="M0 0h24v24H0V0z" fill="none"/><path d="M21.41 11.58l-9-9C12.05 2.22 11.55 2 11 2H4c-1.1 0-2 .9-2 2v7c0 .55.22 1.05.59 1.42l9 9c.36.36.86.58 1.41.58s1.05-.22 1.41-.59l7-7c.37-.36.59-.86.59-1.41s-.23-1.06-.59-1.42zM5.5 7C4.67 7 4 6.33 4 5.5S4.67 4 5.5 4 7 4.67 7 5.5 6.33 7 5.5 7z"/></symbol>
<symbol id="local_parking" viewBox="0 0 24 24"><path d="M0 0h24v24H0V0z" fill="none"/><path d="M12.79 3H8c-1.1 0-2 .9-2 2v14c0 1.1.9 2 2 2s2-.9 2-2v-4h3c3.57 0 6.42-3.13 5.95-6.79C18.56 5.19 15.84 3 12.79 3zm.41 8H10V7h3.2c1.1 0 2 .9 2 2s-.9 2-2 2z"/></symbol>
<symbol id="local_pharmacy" viewBox="0 0 24 24"><path d="M0 0h24v24H0V0z" fill="none"/><path d="M18.89 5h-.53l.71-1.97c.24-.65-.1-1.37-.75-1.6-.65-.24-1.37.1-1.61.75L15.69 5H5.1C3.73 5 2.77 6.34 3.2 7.63L5 13l-1.79 5.37C2.77 19.66 3.74 21 5.1 21h13.78c1.36 0 2.33-1.34 1.9-2.63L19 13l1.78-5.37C21.21 6.34 20.25 5 18.89 5zM15 14h-2v2c0 .55-.45 1-1 1s-1-.45-1-1v-2H9c-.55 0-1-.45-1-1s.45-1 1-1h2v-2c0-.55.45-1 1-1s1 .45 1 1v2h2c.55 0 1 .45 1 1s-.45 1-1 1z"/></symbol>
<symbol id="local_phone" viewBox="0 0 24 24"><path d="M0 0h24v24H0V0z" fill="none"/><path d="M19.23 15.26l-2.54-.29c-.61-.07-1.21.14-1.64.57l-1.84 1.84c-2.83-1.44-5.15-3.75-6.59-6.59l1.85-1.85c.43-.43.64-1.03.57-1.64l-.29-2.52c-.12-1.01-.97-1.77-1.99-1.77H5.03c-1.13 0-2.07.94-2 2.07.53 8.54 7.36 15.36 15.89 15.89 1.13.07 2.07-.87 2.07-2v-1.73c.01-1.01-.75-1.86-1.76-1.98z"/></symbol>
<symbol id="local_pizza" viewBox="0 0 24 24"><path d="M0 0h24v24H0V0z" fill="none"/><path d="M12 2C9.01 2 6.28 3.08 4.17 4.88c-.71.61-.86 1.65-.4 2.46l7.36 13.11c.38.68 1.36.68 1.74 0l7.36-13.11c.46-.81.31-1.86-.4-2.46C17.73 3.09 14.99 2 12 2zM7 7c0-1.1.9-2 2-2s2 .9 2 2-.9 2-2 2-2-.9-2-2zm5 8c-1.1 0-2-.9-2-2s.9-2 2-2 2 .9 2 2-.9 2-2 2z"/></symbol>
<symbol id="local_play" viewBox="0 0 24 24"><path d="M0 0h24v24H0V0z" fill="none"/><path d="M20 12c0-.76.43-1.42 1.06-1.76.6-.33.94-1.01.94-1.7V6c0-1.1-.9-2-2-2H4c-1.1 0-1.99.89-1.99 1.99v2.55c0 .69.33 1.37.94 1.69C3.58 10.58 4 11.24 4 12s-.43 1.43-1.06 1.76c-.6.33-.94 1.01-.94 1.7v2.25C2 19.1 2.9 20 4 20h16c1.1 0 2-.9 2-2v-2.54c0-.69-.34-1.37-.94-1.7-.63-.34-1.06-1-1.06-1.76zm-5.5 4.1L12 14.5l-2.5 1.61c-.38.24-.87-.11-.75-.55l.75-2.88-2.3-1.88c-.35-.29-.17-.86.29-.89l2.96-.17 1.08-2.75c.17-.42.77-.42.93 0l1.08 2.76 2.96.17c.45.03.64.6.29.89l-2.3 1.88.76 2.86c.12.45-.37.8-.75.55z"/></symbol>
<symbol id="local_police" viewBox="0 0 24 24"><rect fill="none" height="24" width="24"/><path d="M14.5,12.59l0.63,2.73c0.1,0.43-0.37,0.77-0.75,0.54L12,14.42l-2.39,1.44c-0.38,0.23-0.85-0.11-0.75-0.54L9.5,12.6 l-2.1-1.81C7.06,10.5,7.24,9.95,7.68,9.91l2.78-0.24l1.08-2.56c0.17-0.41,0.75-0.41,0.92,0l1.08,2.55l2.78,0.24 c0.44,0.04,0.62,0.59,0.28,0.88L14.5,12.59z M4.19,4.47C3.47,4.79,3,5.51,3,6.3V11c0,5.55,3.84,10.74,9,12c5.16-1.26,9-6.45,9-12 V6.3c0-0.79-0.47-1.51-1.19-1.83l-7-3.11c-0.52-0.23-1.11-0.23-1.62,0L4.19,4.47z"/></symbol>
<symbol id="local_post_office" viewBox="0 0 24 24"><path d="M0 0h24v24H0V0z" fill="none"/><path d="M20 4H4c-1.1 0-2 .9-2 2v12c0 1.1.9 2 2 2h16c1.1 0 2-.9 2-2V6c0-1.1-.9-2-2-2zm-.4 4.25l-6.54 4.09c-.65.41-1.47.41-2.12 0L4.4 8.25c-.25-.16-.4-.43-.4-.72 0-.67.73-1.07 1.3-.72L12 11l6.7-4.19c.57-.35 1.3.05 1.3.72 0 .29-.15.56-.4.72z"/></symbol>
<symbol id="local_printshop" viewBox="0 0 24 24"><path d="M0 0h24v24H0V0z" fill="none"/><path d="M19 8H5c-1.66 0-3 1.34-3 3v4c0 1.1.9 2 2 2h2v2c0 1.1.9 2 2 2h8c1.1 0 2-.9 2-2v-2h2c1.1 0 2-.9 2-2v-4c0-1.66-1.34-3-3-3zm-4 11H9c-.55 0-1-.45-1-1v-4h8v4c0 .55-.45 1-1 1zm4-7c-.55 0-1-.45-1-1s.45-1 1-1 1 .45 1 1-.45 1-1 1zm-2-9H7c-.55 0-1 .45-1 1v2c0 .55.45 1 1 1h10c.55 0 1-.45 1-1V4c0-.55-.45-1-1-1z"/></symbol>
<symbol id="local_see" viewBox="0 0 24 24"><path d="M0 0h24v24H0V0z" fill="none"/><circle cx="12" cy="12" r="3.2"/><path d="M20 4h-3.17l-1.24-1.35c-.37-.41-.91-.65-1.47-.65H9.88c-.56 0-1.1.24-1.48.65L7.17 4H4c-1.1 0-2 .9-2 2v12c0 1.1.9 2 2 2h16c1.1 0 2-.9 2-2V6c0-1.1-.9-2-2-2zm-8 13c-2.76 0-5-2.24-5-5s2.24-5 5-5 5 2.24 5 5-2.24 5-5 5z"/></symbol>
<symbol id="local_shipping" viewBox="0 0 24 24"><path d="M0 0h24v24H0V0z" fill="none"/><path d="M19.5 8H17V6c0-1.1-.9-2-2-2H3c-1.1 0-2 .9-2 2v9c0 1.1.9 2 2 2 0 1.66 1.34 3 3 3s3-1.34 3-3h6c0 1.66 1.34 3 3 3s3-1.34 3-3h1c.55 0 1-.45 1-1v-3.33c0-.43-.14-.85-.4-1.2L20.3 8.4c-.19-.25-.49-.4-.8-.4zM6 18c-.55 0-1-.45-1-1s.45-1 1-1 1 .45 1 1-.45 1-1 1zm13.5-8.5l1.96 2.5H17V9.5h2.5zM18 18c-.55 0-1-.45-1-1s.45-1 1-1 1 .45 1 1-.45 1-1 1z"/></symbol>
<symbol id="local_taxi" viewBox="0 0 24 24"><path d="M0 0h24v24H0V0z" fill="none"/><path d="M18.92 6.01C18.72 5.42 18.16 5 17.5 5H15V4c0-.55-.45-1-1-1h-4c-.55 0-1 .45-1 1v1H6.5c-.66 0-1.21.42-1.42 1.01l-1.97 5.67c-.07.21-.11.43-.11.66v7.16c0 .83.67 1.5 1.5 1.5S6 20.33 6 19.5V19h12v.5c0 .82.67 1.5 1.5 1.5.82 0 1.5-.67 1.5-1.5v-7.16c0-.22-.04-.45-.11-.66l-1.97-5.67zM6.5 16c-.83 0-1.5-.67-1.5-1.5S5.67 13 6.5 13s1.5.67 1.5 1.5S7.33 16 6.5 16zm11 0c-.83 0-1.5-.67-1.5-1.5s.67-1.5 1.5-1.5 1.5.67 1.5 1.5-.67 1.5-1.5 1.5zM5 11l1.5-4.5h11L19 11H5z"/></symbol>
<symbol id="map" viewBox="0 0 24 24"><path d="M0 0h24v24H0V0z" fill="none"/><path d="M14.65 4.98l-5-1.75c-.42-.15-.88-.15-1.3-.01L4.36 4.56C3.55 4.84 3 5.6 3 6.46v11.85c0 1.41 1.41 2.37 2.72 1.86l2.93-1.14c.22-.09.47-.09.69-.01l5 1.75c.42.15.88.15 1.3.01l3.99-1.34c.81-.27 1.36-1.04 1.36-1.9V5.69c0-1.41-1.41-2.37-2.72-1.86l-2.93 1.14c-.22.08-.46.09-.69.01zM15 18.89l-6-2.11V5.11l6 2.11v11.67z"/></symbol>
<symbol id="maps_ugc" viewBox="0 0 24 24"><rect fill="none" fill-rule="evenodd" height="24" width="24"/><g><path d="M12,4c4.97,0,8.9,4.56,7.82,9.72c-0.68,3.23-3.4,5.74-6.67,6.2c-1.59,0.22-3.14-0.01-4.58-0.7 c-0.27-0.13-0.56-0.19-0.86-0.19c-0.19,0-0.38,0.03-0.56,0.08l-2.31,0.68c-0.38,0.11-0.74-0.24-0.63-0.63l0.7-2.39 c0.13-0.45,0.07-0.92-0.14-1.35C4.26,14.34,4,13.18,4,12C4,7.59,7.59,4,12,4 M12,2C6.48,2,2,6.48,2,12c0,1.54,0.36,2.98,0.97,4.29 l-1.46,4.96C1.29,22,2,22.71,2.76,22.48l4.96-1.46c1.66,0.79,3.56,1.15,5.58,0.89c4.56-0.59,8.21-4.35,8.66-8.92 C22.53,7.03,17.85,2,12,2L12,2z"/></g><path d="M12,8L12,8c-0.55,0-1,0.45-1,1v2H9c-0.55,0-1,0.45-1,1v0c0,0.55,0.45,1,1,1h2v2 c0,0.55,0.45,1,1,1h0c0.55,0,1-0.45,1-1v-2h2c0.55,0,1-0.45,1-1v0c0-0.55-0.45-1-1-1h-2V9C13,8.45,12.55,8,12,8z" fill-rule="evenodd"/></symbol>
<symbol id="medical_services" viewBox="0 0 24 24"><g><rect fill="none" height="24" width="24"/><rect fill="none" height="24" width="24"/></g><g><g><path d="M20,6h-4V4c0-1.1-0.9-2-2-2h-4C8.9,2,8,2.9,8,4v2H4C2.9,6,2,6.9,2,8v12c0,1.1,0.9,2,2,2h16c1.1,0,2-0.9,2-2V8 C22,6.9,21.1,6,20,6z M10,4h4v2h-4V4z M15,15h-2v2c0,0.55-0.45,1-1,1s-1-0.45-1-1v-2H9c-0.55,0-1-0.45-1-1c0-0.55,0.45-1,1-1h2v-2 c0-0.55,0.45-1,1-1s1,0.45,1,1v2h2c0.55,0,1,0.45,1,1C16,14.55,15.55,15,15,15z"/></g></g></symbol>
<symbol id="menu_book" viewBox="0 0 24 24"><g><rect fill="none" height="24" width="24"/><rect fill="none" height="24" width="24"/></g><g><path d="M17.5,4.5c-1.95,0-4.05,0.4-5.5,1.5c-1.45-1.1-3.55-1.5-5.5-1.5c-1.45,0-2.99,0.22-4.28,0.79C1.49,5.62,1,6.33,1,7.14 l0,11.28c0,1.3,1.22,2.26,2.48,1.94C4.46,20.11,5.5,20,6.5,20c1.56,0,3.22,0.26,4.56,0.92c0.6,0.3,1.28,0.3,1.87,0 c1.34-0.67,3-0.92,4.56-0.92c1,0,2.04,0.11,3.02,0.36c1.26,0.33,2.48-0.63,2.48-1.94l0-11.28c0-0.81-0.49-1.52-1.22-1.85 C20.49,4.72,18.95,4.5,17.5,4.5z M21,17.23c0,0.63-0.58,1.09-1.2,0.98c-0.75-0.14-1.53-0.2-2.3-0.2c-1.7,0-4.15,0.65-5.5,1.5V8 c1.35-0.85,3.8-1.5,5.5-1.5c0.92,0,1.83,0.09,2.7,0.28c0.46,0.1,0.8,0.51,0.8,0.98V17.23z"/><g/><path d="M13.98,11.01c-0.32,0-0.61-0.2-0.71-0.52c-0.13-0.39,0.09-0.82,0.48-0.94c1.54-0.5,3.53-0.66,5.36-0.45 c0.41,0.05,0.71,0.42,0.66,0.83c-0.05,0.41-0.42,0.71-0.83,0.66c-1.62-0.19-3.39-0.04-4.73,0.39 C14.13,10.99,14.05,11.01,13.98,11.01z"/><path d="M13.98,13.67c-0.32,0-0.61-0.2-0.71-0.52c-0.13-0.39,0.09-0.82,0.48-0.94c1.53-0.5,3.53-0.66,5.36-0.45 c0.41,0.05,0.71,0.42,0.66,0.83c-0.05,0.41-0.42,0.71-0.83,0.66c-1.62-0.19-3.39-0.04-4.73,0.39 C14.13,13.66,14.05,13.67,13.98,13.67z"/><path d="M13.98,16.33c-0.32,0-0.61-0.2-0.71-0.52c-0.13-0.39,0.09-0.82,0.48-0.94c1.53-0.5,3.53-0.66,5.36-0.45 c0.41,0.05,0.71,0.42,0.66,0.83c-0.05,0.41-0.42,0.7-0.83,0.66c-1.62-0.19-3.39-0.04-4.73,0.39 C14.13,16.32,14.05,16.33,13.98,16.33z"/></g></symbol>
<symbol id="miscellaneous_services" viewBox="0 0 24 24"><g><rect fill="none" height="24" width="24"/><rect fill="none" height="24" width="24"/></g><g><g><path d="M14.17,13.71l1.4-2.42c0.09-0.15,0.05-0.34-0.08-0.45l-1.48-1.16c0.03-0.22,0.05-0.45,0.05-0.68s-0.02-0.46-0.05-0.69 l1.48-1.16c0.13-0.11,0.17-0.3,0.08-0.45l-1.4-2.42c-0.09-0.15-0.27-0.21-0.43-0.15L12,4.83c-0.36-0.28-0.75-0.51-1.18-0.69 l-0.26-1.85C10.53,2.13,10.38,2,10.21,2h-2.8C7.24,2,7.09,2.13,7.06,2.3L6.8,4.15C6.38,4.33,5.98,4.56,5.62,4.84l-1.74-0.7 c-0.16-0.06-0.34,0-0.43,0.15l-1.4,2.42C1.96,6.86,2,7.05,2.13,7.16l1.48,1.16C3.58,8.54,3.56,8.77,3.56,9s0.02,0.46,0.05,0.69 l-1.48,1.16C2,10.96,1.96,11.15,2.05,11.3l1.4,2.42c0.09,0.15,0.27,0.21,0.43,0.15l1.74-0.7c0.36,0.28,0.75,0.51,1.18,0.69 l0.26,1.85C7.09,15.87,7.24,16,7.41,16h2.8c0.17,0,0.32-0.13,0.35-0.3l0.26-1.85c0.42-0.18,0.82-0.41,1.18-0.69l1.74,0.7 C13.9,13.92,14.08,13.86,14.17,13.71z M8.81,11c-1.1,0-2-0.9-2-2c0-1.1,0.9-2,2-2s2,0.9,2,2C10.81,10.1,9.91,11,8.81,11z"/><path d="M21.92,18.67l-0.96-0.74c0.02-0.14,0.04-0.29,0.04-0.44c0-0.15-0.01-0.3-0.04-0.44l0.95-0.74 c0.08-0.07,0.11-0.19,0.05-0.29l-0.9-1.55c-0.05-0.1-0.17-0.13-0.28-0.1l-1.11,0.45c-0.23-0.18-0.48-0.33-0.76-0.44l-0.17-1.18 C18.73,13.08,18.63,13,18.53,13h-1.79c-0.11,0-0.21,0.08-0.22,0.19l-0.17,1.18c-0.27,0.12-0.53,0.26-0.76,0.44l-1.11-0.45 c-0.1-0.04-0.22,0-0.28,0.1l-0.9,1.55c-0.05,0.1-0.04,0.22,0.05,0.29l0.95,0.74c-0.02,0.14-0.03,0.29-0.03,0.44 c0,0.15,0.01,0.3,0.03,0.44l-0.95,0.74c-0.08,0.07-0.11,0.19-0.05,0.29l0.9,1.55c0.05,0.1,0.17,0.13,0.28,0.1l1.11-0.45 c0.23,0.18,0.48,0.33,0.76,0.44l0.17,1.18c0.02,0.11,0.11,0.19,0.22,0.19h1.79c0.11,0,0.21-0.08,0.22-0.19l0.17-1.18 c0.27-0.12,0.53-0.26,0.75-0.44l1.12,0.45c0.1,0.04,0.22,0,0.28-0.1l0.9-1.55C22.03,18.86,22,18.74,21.92,18.67z M17.63,18.83 c-0.74,0-1.35-0.6-1.35-1.35s0.6-1.35,1.35-1.35s1.35,0.6,1.35,1.35S18.37,18.83,17.63,18.83z"/></g></g></symbol>
<symbol id="money" viewBox="0 0 24 24"><path d="M0 0h24v24H0V0z" fill="none"/><path d="M15 16h3c.55 0 1-.45 1-1V9c0-.55-.45-1-1-1h-3c-.55 0-1 .45-1 1v6c0 .55.45 1 1 1zm1-6h1v4h-1v-4zm-7 6h3c.55 0 1-.45 1-1V9c0-.55-.45-1-1-1H9c-.55 0-1 .45-1 1v6c0 .55.45 1 1 1zm1-6h1v4h-1v-4zM6 8c-.55 0-1 .45-1 1v6c0 .55.45 1 1 1s1-.45 1-1V9c0-.55-.45-1-1-1zM2 6v12c0 1.1.9 2 2 2h16c1.1 0 2-.9 2-2V6c0-1.1-.9-2-2-2H4c-1.1 0-2 .9-2 2zm17 12H5c-.55 0-1-.45-1-1V7c0-.55.45-1 1-1h14c.55 0 1 .45 1 1v10c0 .55-.45 1-1 1z"/></symbol>
<symbol id="moped" viewBox="0 0 24 24"><g><rect fill="none" height="24" width="24"/><rect fill="none" height="24" width="24"/></g><g><g><path d="M19,7c0-1.1-0.9-2-2-2h-2c-0.55,0-1,0.45-1,1v0c0,0.55,0.45,1,1,1h2v2.65L13.52,14H10v-4c0-0.55-0.45-1-1-1H6 c-2.21,0-4,1.79-4,4v3h2c0,1.66,1.34,3,3,3s3-1.34,3-3h4.48L19,10.35V7z M7,17c-0.55,0-1-0.45-1-1h2C8,16.55,7.55,17,7,17z"/><path d="M9,6H6C5.45,6,5,6.45,5,7v0c0,0.55,0.45,1,1,1h3c0.55,0,1-0.45,1-1v0C10,6.45,9.55,6,9,6z"/><path d="M19,13c-1.66,0-3,1.34-3,3s1.34,3,3,3s3-1.34,3-3S20.66,13,19,13z M19,17c-0.55,0-1-0.45-1-1s0.45-1,1-1s1,0.45,1,1 S19.55,17,19,17z"/></g></g></symbol>
<symbol id="multiple_stop" viewBox="0 0 24 24"><g><rect fill="none" height="24" width="24"/><path d="M17,5.21c0-0.45,0.54-0.67,0.85-0.35l2.79,2.79c0.2,0.2,0.2,0.51,0,0.71l-2.79,2.79C17.54,11.46,17,11.24,17,10.79V9h-3 c-0.55,0-1-0.45-1-1v0c0-0.55,0.45-1,1-1h3V5.21z M10,7C9.45,7,9,7.45,9,8s0.45,1,1,1s1-0.45,1-1S10.55,7,10,7z M6,7 C5.45,7,5,7.45,5,8s0.45,1,1,1s1-0.45,1-1S6.55,7,6,7z M7,17h3c0.55,0,1-0.45,1-1v0c0-0.55-0.45-1-1-1H7v-1.79 c0-0.45-0.54-0.67-0.85-0.35l-2.79,2.79c-0.2,0.2-0.2,0.51,0,0.71l2.79,2.79C6.46,19.46,7,19.24,7,18.79V17z M14,17 c0.55,0,1-0.45,1-1c0-0.55-0.45-1-1-1s-1,0.45-1,1C13,16.55,13.45,17,14,17z M18,17c0.55,0,1-0.45,1-1c0-0.55-0.45-1-1-1 s-1,0.45-1,1C17,16.55,17.45,17,18,17z"/></g></symbol>
<symbol id="museum" viewBox="0 0 24 24"><g><rect fill="none" height="24" width="24"/><rect fill="none" height="24" width="24"/></g><g><path d="M21.5,11c0.28,0,0.5-0.22,0.5-0.5V9.26c0-0.16-0.08-0.32-0.21-0.41L12.57,2.4c-0.34-0.24-0.8-0.24-1.15,0L2.21,8.85 C2.08,8.94,2,9.1,2,9.26v1.24C2,10.78,2.22,11,2.5,11H4v9H3c-0.55,0-1,0.45-1,1c0,0.55,0.45,1,1,1h18c0.55,0,1-0.45,1-1 c0-0.55-0.45-1-1-1h-1v-9H21.5z M16,17c0,0.55-0.45,1-1,1s-1-0.45-1-1v-3l-1.17,1.75c-0.4,0.59-1.27,0.59-1.66,0L10,14v3 c0,0.55-0.45,1-1,1s-1-0.45-1-1v-4.7C8,11.58,8.58,11,9.3,11h0c0.43,0,0.84,0.22,1.08,0.58L12,14l1.61-2.42 C13.86,11.22,14.26,11,14.7,11h0c0.72,0,1.3,0.58,1.3,1.3V17z"/></g></symbol>
<symbol id="my_location" viewBox="0 0 24 24"><path d="M0 0h24v24H0V0z" fill="none"/><path d="M12 8c-2.21 0-4 1.79-4 4s1.79 4 4 4 4-1.79 4-4-1.79-4-4-4zm8.94 3c-.46-4.17-3.77-7.48-7.94-7.94V2c0-.55-.45-1-1-1s-1 .45-1 1v1.06C6.83 3.52 3.52 6.83 3.06 11H2c-.55 0-1 .45-1 1s.45 1 1 1h1.06c.46 4.17 3.77 7.48 7.94 7.94V22c0 .55.45 1 1 1s1-.45 1-1v-1.06c4.17-.46 7.48-3.77 7.94-7.94H22c.55 0 1-.45 1-1s-.45-1-1-1h-1.06zM12 19c-3.87 0-7-3.13-7-7s3.13-7 7-7 7 3.13 7 7-3.13 7-7 7z"/></symbol>
<symbol id="navigation" viewBox="0 0 24 24"><path d="M0 0h24v24H0V0z" fill="none"/><path d="M12.93 4.26l6.15 14.99c.34.83-.51 1.66-1.33 1.29l-5.34-2.36c-.26-.11-.55-.11-.81 0l-5.34 2.36c-.82.36-1.67-.46-1.33-1.29l6.15-14.99c.33-.83 1.51-.83 1.85 0z"/></symbol>
<symbol id="near_me" viewBox="0 0 24 24"><path d="M0 0h24v24H0V0z" fill="none"/><path d="M18.75 3.94L4.07 10.08c-.83.35-.81 1.53.02 1.85L9.43 14c.26.1.47.31.57.57l2.06 5.33c.32.84 1.51.86 1.86.03l6.15-14.67c.33-.83-.5-1.66-1.32-1.32z"/></symbol>
<symbol id="near_me_disabled" viewBox="0 0 24 24"><rect fill="none" height="24" width="24"/><path d="M12,6.34l6.95-2.58c0.8-0.3,1.58,0.48,1.29,1.29L17.66,12L12,6.34z M21.9,19.07L4.93,2.1c-0.39-0.39-1.02-0.39-1.41,0 c-0.39,0.39-0.39,1.02,0,1.41l4.36,4.36l-4.2,1.56C3.27,9.59,3,9.97,3,10.4c0,0.42,0.26,0.8,0.65,0.96l6.42,2.57l2.57,6.42 C12.8,20.74,13.18,21,13.6,21c0.43,0,0.82-0.27,0.97-0.67l1.56-4.2l4.36,4.36c0.39,0.39,1.02,0.39,1.41,0 C22.29,20.09,22.29,19.46,21.9,19.07z"/></symbol>
<symbol id="not_listed_location" viewBox="0 0 24 24"><path d="M0,0h24v24H0V0z" fill="none"/><path d="M12,2c-4.2,0-8,3.22-8,8.2c0,3.18,2.45,6.92,7.34,11.23c0.38,0.33,0.95,0.33,1.33,0C17.55,17.12,20,13.38,20,10.2 C20,5.22,16.2,2,12,2 M12.71,15.7C12.52,15.9,12.28,16,12,16c-0.27,0-0.53-0.11-0.71-0.3c-0.19-0.19-0.3-0.44-0.29-0.71 c-0.01-0.55,0.43-0.99,0.98-1c0.01,0,0.01,0,0.02,0c0.55-0.01,0.99,0.43,1,0.98c0,0.01,0,0.01,0,0.02 C13,15.27,12.9,15.51,12.71,15.7 M14.69,9.91c-0.21,0.35-0.48,0.71-0.89,1.09c-0.32,0.3-0.53,0.56-0.65,0.77 c-0.1,0.19-0.16,0.49-0.16,0.69v0.07C12.98,12.8,12.75,13,12.48,13h-0.85c-0.28,0-0.5-0.22-0.5-0.5v-0.16c0-0.45,0.1-0.84,0.29-1.16 c0.19-0.33,0.52-0.7,1-1.12c0.28-0.25,0.48-0.47,0.61-0.66s0.19-0.4,0.19-0.64c0-0.29-0.11-0.54-0.32-0.74 c-0.22-0.2-0.5-0.3-0.85-0.3c-0.37,0-0.74,0.1-0.96,0.3c-0.12,0.12-0.21,0.23-0.29,0.38c-0.03,0.07-0.08,0.21-0.09,0.26 C10.66,8.83,10.47,9,10.24,9H9.55c-0.26,0-0.47-0.19-0.5-0.45c-0.01-0.08,0-0.16,0.02-0.24c0.18-0.72,0.52-1.16,0.9-1.52 C10.53,6.29,11.25,6,12,6c0.59,0,1.11,0.12,1.57,0.35s0.79,0.55,1.05,0.96C14.87,7.72,15,8.16,15,8.66 C15,9.15,14.89,9.56,14.69,9.91"/></symbol>
<symbol id="no_meals" viewBox="0 0 24 24"><rect fill="none" height="24" width="24"/><path d="M21,18.17l-2-2V14h-1c-1.1,0-2-0.9-2-2V6c0-1.49,1.6-3.32,3.76-3.85C20.39,2,21,2.48,21,3.13V18.17z M21.19,22.61 c-0.39,0.39-1.02,0.39-1.41,0l-9.76-9.76C9.69,12.94,9.36,13,9,13v8c0,0.55-0.45,1-1,1s-1-0.45-1-1v-8c-2.21,0-4-1.79-4-4V5.83 L1.39,4.22C1,3.83,1,3.2,1.39,2.81c0.39-0.39,1.02-0.39,1.41,0l18.38,18.38C21.58,21.58,21.58,22.22,21.19,22.61z M6.17,9L5,7.83V9 H6.17z M13,9V3c0-0.55-0.45-1-1-1s-1,0.45-1,1v5.17l1.85,1.85C12.94,9.69,13,9.36,13,9z M9,3c0-0.55-0.45-1-1-1S7,2.45,7,3v1.17l2,2 V3z"/></symbol>
<symbol id="no_transfer" viewBox="0 0 24 24"><rect fill="none" height="24" width="24"/><path d="M5.78,2.95C7.24,2.16,9.48,2,12,2c4.42,0,8,0.5,8,4v10c0,0.35-0.08,0.67-0.19,0.98L13.83,11H18V6H8.83L5.78,2.95z M20.49,21.9c-0.39,0.39-1.02,0.39-1.41,0l-1.01-1.01C17.89,20.96,17.7,21,17.5,21c-0.83,0-1.5-0.68-1.5-1.5V19H8v0.5 C8,20.33,7.33,21,6.5,21S5,20.33,5,19.5v-1.28C4.39,17.67,4,16.88,4,16V6.83l-1.9-1.9c-0.39-0.39-0.39-1.02,0-1.41 c0.39-0.39,1.02-0.39,1.41,0l16.97,16.97C20.88,20.88,20.88,21.51,20.49,21.9z M9,15.5C9,14.67,8.33,14,7.5,14S6,14.67,6,15.5 C6,16.33,6.67,17,7.5,17S9,16.33,9,15.5z M8.17,11L6,8.83V11H8.17z"/></symbol>
<symbol id="pedal_bike" viewBox="0 0 24 24"><g><rect fill="none" height="24" width="24"/><rect fill="none" height="24" width="24"/></g><g><path d="M18.18,10l-1.7-4.68C16.19,4.53,15.44,4,14.6,4H13c-0.55,0-1,0.45-1,1v0c0,0.55,0.45,1,1,1h1.6l1.46,4h-4.81l-0.36-1h0.09 c0.55,0,1-0.45,1-1v0c0-0.55-0.45-1-1-1H8C7.45,7,7,7.45,7,8v0c0,0.55,0.45,1,1,1h0.75l1.82,5H9.9c-0.44-2.23-2.31-3.88-4.65-3.99 C2.45,9.87,0,12.2,0,15c0,2.8,2.2,5,5,5c2.46,0,4.45-1.69,4.9-4h4.2c0.44,2.23,2.31,3.88,4.65,3.99c2.8,0.13,5.25-2.19,5.25-5 c0-2.8-2.2-5-5-5H18.18z M7.82,16c-0.42,1.23-1.6,2.08-3.02,1.99C3.31,17.9,2.07,16.64,2,15.14C1.93,13.39,3.27,12,5,12 c1.33,0,2.42,0.83,2.82,2H6c-0.55,0-1,0.45-1,1v0c0,0.55,0.45,1,1,1H7.82z M14.1,14h-1.4l-0.73-2H15 C14.56,12.58,14.24,13.25,14.1,14z M18.88,18c-1.54-0.06-2.84-1.37-2.88-2.92c-0.02-0.96,0.39-1.8,1.05-2.36l0.62,1.7 c0.19,0.52,0.76,0.79,1.28,0.6l0,0c0.52-0.19,0.79-0.76,0.6-1.28l-0.63-1.73c0,0,0,0,0.01-0.01c1.72-0.04,3.08,1.29,3.08,3 C22,16.72,20.62,18.06,18.88,18z"/></g></symbol>
<symbol id="person_pin" viewBox="0 0 24 24"><path d="M0 0h24v24H0V0z" fill="none"/><path d="M19 2H5c-1.11 0-2 .9-2 2v14c0 1.1.9 2 2 2h4l2.29 2.29c.39.39 1.02.39 1.41 0L15 20h4c1.1 0 2-.9 2-2V4c0-1.1-.9-2-2-2zm-7 3.3c1.49 0 2.7 1.21 2.7 2.7s-1.21 2.7-2.7 2.7S9.3 9.49 9.3 8s1.21-2.7 2.7-2.7zM18 16H6v-.9c0-2 4-3.1 6-3.1s6 1.1 6 3.1v.9z"/></symbol>
<symbol id="person_pin_circle" viewBox="0 0 24 24"><path d="M0 0h24v24H0z" fill="none"/><path d="M12 11c-1.33 0-4 .67-4 2v.16c.97 1.12 2.4 1.84 4 1.84s3.03-.72 4-1.84V13c0-1.33-2.67-2-4-2zm0-1c1.1 0 2-.9 2-2s-.9-2-2-2-2 .9-2 2 .9 2 2 2zm0-8c4.2 0 8 3.22 8 8.2 0 3.18-2.45 6.92-7.34 11.23-.38.33-.95.33-1.33 0C6.45 17.12 4 13.38 4 10.2 4 5.22 7.8 2 12 2z"/></symbol>
<symbol id="pest_control" viewBox="0 0 24 24"><g><rect fill="none" height="24" width="24"/><rect fill="none" height="24" width="24"/></g><g><g><path d="M21,14L21,14c0-0.55-0.45-1-1-1h-2.07c-0.05-0.39-0.12-0.77-0.22-1.14l1.72-0.99c0.48-0.28,0.64-0.89,0.37-1.37l0,0 c-0.28-0.48-0.89-0.64-1.37-0.37L16.92,10c-0.28-0.48-0.62-0.91-0.99-1.29C15.97,8.48,16,8.25,16,8c0-0.8-0.24-1.55-0.65-2.18 l0.94-0.94c0.39-0.39,0.39-1.02,0-1.41l0,0c-0.39-0.39-1.02-0.39-1.41,0l-1.02,1.02c-1.68-0.89-3.1-0.33-3.73,0L9.12,3.46 c-0.39-0.39-1.02-0.39-1.41,0l0,0c-0.39,0.39-0.39,1.02,0,1.41l0.94,0.94C8.24,6.45,8,7.2,8,8c0,0.25,0.03,0.48,0.07,0.72 C7.7,9.1,7.36,9.53,7.08,10L5.57,9.13C5.09,8.86,4.48,9.02,4.21,9.5l0,0c-0.28,0.48-0.11,1.09,0.37,1.37l1.72,0.99 c-0.1,0.37-0.17,0.75-0.22,1.14H4c-0.55,0-1,0.45-1,1v0c0,0.55,0.45,1,1,1h2.07c0.05,0.39,0.12,0.77,0.22,1.14l-1.72,0.99 c-0.48,0.28-0.64,0.89-0.37,1.37l0,0c0.28,0.48,0.89,0.64,1.37,0.37L7.08,18c1.08,1.81,2.88,3,4.92,3s3.84-1.19,4.92-3l1.51,0.87 c0.48,0.28,1.09,0.11,1.37-0.37l0,0c0.28-0.48,0.11-1.09-0.37-1.37l-1.72-0.99c0.1-0.37,0.17-0.75,0.22-1.14H20 C20.55,15,21,14.55,21,14z M12,17L12,17c-0.55,0-1-0.45-1-1v-4c0-0.55,0.45-1,1-1h0c0.55,0,1,0.45,1,1v4C13,16.55,12.55,17,12,17z"/></g></g></symbol>
<symbol id="pest_control_rodent" viewBox="0 0 24 24"><g><rect fill="none" height="24" width="24"/><rect fill="none" height="24" width="24"/></g><g><path d="M21.31,17.38l-2.39-2.13C19.44,12.89,17.56,11,15.5,11c-1.16,0-3.5,0.9-3.5,3.5c0,0.81,0.27,1.55,0.74,2.15 c0.15,0.2,0.14,0.48-0.04,0.66l0,0c-0.21,0.21-0.56,0.19-0.75-0.04C11.35,16.5,11,15.54,11,14.5c0-1.7,0.96-3.17,2.35-3.93 c-0.7-0.36-1.48-0.57-2.28-0.57c-2.38,0-4.37,1.65-4.91,3.87c-1.33-0.39-2.28-1.66-2.15-3.14C4.15,9.16,5.54,8,7.11,8l2,0 c1.58,0,2.75-0.95,2.87-2.25C12.13,4.25,10.96,3,9.5,3H8.05c-0.5,0-0.96,0.34-1.04,0.83C6.91,4.46,7.39,5,8,5h1.5 C9.78,5,10,5.22,10,5.5C10,5.78,9.78,6,9.5,6L7.16,6c-2.67,0-4.99,2.03-5.15,4.7C1.86,13.25,3.62,15.42,6,15.9v0.03 C6,18.73,8.27,21,11.07,21h8.86C21.8,21,22.74,18.66,21.31,17.38z M18,19c-0.55,0-1-0.45-1-1c0-0.55,0.45-1,1-1s1,0.45,1,1 C19,18.55,18.55,19,18,19z"/></g></symbol>
<symbol id="pin_drop" viewBox="0 0 24 24"><path d="M0 0h24v24H0z" fill="none"/><path d="M6 20h12c.55 0 1 .45 1 1s-.45 1-1 1H6c-.55 0-1-.45-1-1s.45-1 1-1zm6-13c-1.1 0-2 .9-2 2s.9 2 2 2a2 2 0 1 0 0-4zm0-5c3.27 0 7 2.46 7 7.15 0 2.98-2.13 6.12-6.39 9.39-.36.28-.86.28-1.22 0C7.13 15.26 5 12.13 5 9.15 5 4.46 8.73 2 12 2z" fill-rule="evenodd"/></symbol>
<symbol id="place" viewBox="0 0 24 24"><path d="M0 0h24v24H0z" fill="none"/><path d="M12 12c1.1 0 2-.9 2-2s-.9-2-2-2-2 .9-2 2 .9 2 2 2zm0-10c4.2 0 8 3.22 8 8.2 0 3.18-2.45 6.92-7.34 11.23-.38.33-.95.33-1.33 0C6.45 17.12 4 13.38 4 10.2 4 5.22 7.8 2 12 2z"/></symbol>
<symbol id="plumbing" viewBox="0 0 24 24"><g><rect fill="none" height="24" width="24"/><rect fill="none" height="24" width="24"/></g><g><g><path d="M19.28,4.93l-2.12-2.12c-0.78-0.78-2.05-0.78-2.83,0L11.5,5.64l2.12,2.12l2.12-2.12l3.54,3.54 C20.45,8,20.45,6.1,19.28,4.93z"/><path d="M5.49,13.77c0.59,0.59,1.54,0.59,2.12,0l2.47-2.47L7.96,9.17l-2.47,2.47C4.9,12.23,4.9,13.18,5.49,13.77L5.49,13.77z"/><path d="M14.33,8.46l-0.71,0.71l-3.18-3.18C9.85,5.4,8.9,5.4,8.32,5.99c-0.59,0.59-0.59,1.54,0,2.12l3.18,3.18l-7,7 c-0.7,0.7-0.88,1.84-0.29,2.65c0.74,1.03,2.19,1.12,3.05,0.26L16.45,12c0.39,0.39,1.02,0.39,1.41,0c0.39-0.39,0.39-1.02,0-1.41 l-2.12-2.12C15.35,8.07,14.72,8.07,14.33,8.46z"/></g></g></symbol>
<symbol id="rate_review" viewBox="0 0 24 24"><path d="M0 0h24v24H0V0z" fill="none"/><path d="M20 2H4c-1.1 0-2 .9-2 2v18l4-4h14c1.1 0 2-.9 2-2V4c0-1.1-.9-2-2-2zM6 14v-2.47l6.88-6.88c.2-.2.51-.2.71 0l1.77 1.77c.2.2.2.51 0 .71L8.47 14H6zm11 0h-6.5l2-2H17c.55 0 1 .45 1 1s-.45 1-1 1z"/></symbol>
<symbol id="restaurant" viewBox="0 0 24 24"><path d="M0 0h24v24H0V0z" fill="none"/><path d="M16 6v6c0 1.1.9 2 2 2h1v7c0 .55.45 1 1 1s1-.45 1-1V3.13c0-.65-.61-1.13-1.24-.98C17.6 2.68 16 4.51 16 6zm-5 3H9V3c0-.55-.45-1-1-1s-1 .45-1 1v6H5V3c0-.55-.45-1-1-1s-1 .45-1 1v6c0 2.21 1.79 4 4 4v8c0 .55.45 1 1 1s1-.45 1-1v-8c2.21 0 4-1.79 4-4V3c0-.55-.45-1-1-1s-1 .45-1 1v6z"/></symbol>
<symbol id="restaurant_menu" viewBox="0 0 24 24"><path d="M0 0h24v24H0V0z" fill="none"/><path d="M8.1 13.34l2.83-2.83-6.19-6.18c-.48-.48-1.31-.35-1.61.27-.71 1.49-.45 3.32.78 4.56l4.19 4.18zm6.78-1.81c1.53.71 3.68.21 5.27-1.38 1.91-1.91 2.28-4.65.81-6.12-1.46-1.46-4.2-1.1-6.12.81-1.59 1.59-2.09 3.74-1.38 5.27L4.4 19.17c-.39.39-.39 1.02 0 1.41.39.39 1.02.39 1.41 0L12 14.41l6.18 6.18c.39.39 1.02.39 1.41 0 .39-.39.39-1.02 0-1.41L13.41 13l1.47-1.47z"/></symbol>
<symbol id="run_circle" viewBox="0 0 24 24"><g><rect fill="none" height="24" width="24"/><rect fill="none" height="24" width="24"/></g><g><path d="M12,2C6.48,2,2,6.48,2,12c0,5.52,4.48,10,10,10s10-4.48,10-10C22,6.48,17.52,2,12,2z M13.5,6c0.55,0,1,0.45,1,1 c0,0.55-0.45,1-1,1s-1-0.45-1-1C12.5,6.45,12.95,6,13.5,6z M15.41,11.91c-0.71-0.2-1.63-0.74-2.32-1.66l-0.41,2.35l1.19,1.3 C13.95,13.98,14,14.1,14,14.22v3.28c0,0.28-0.22,0.5-0.5,0.5h0c-0.28,0-0.5-0.22-0.5-0.5v-3.08l-1.11-1.21l-0.43,2.15 c-0.05,0.27-0.32,0.45-0.59,0.39l-2.78-0.57c-0.27-0.06-0.45-0.32-0.39-0.59v0c0.06-0.27,0.32-0.44,0.59-0.39l2.29,0.47l0.96-4.89 L10,10.35v1.15c0,0.28-0.22,0.5-0.5,0.5h0C9.22,12,9,11.78,9,11.5V10c0-0.21,0.13-0.4,0.33-0.47l2.95-1.09 c0.49-0.18,1.02,0.04,1.25,0.51c0.65,1.35,1.55,1.85,2.1,2C15.85,11,16,11.18,16,11.4v0.04C16,11.75,15.71,11.99,15.41,11.91z"/></g></symbol>
<symbol id="satellite" viewBox="0 0 24 24"><path d="M0 0h24v24H0V0z" fill="none"/><path d="M19 3H5c-1.1 0-2 .9-2 2v14c0 1.1.9 2 2 2h14c1.1 0 2-.9 2-2V5c0-1.1-.9-2-2-2zM5 5h3c0 1.66-1.34 3-3 3V5zm0 5.91c0-.49.36-.9.85-.98 2.08-.36 3.72-2 4.08-4.08.08-.49.49-.85.98-.85.61 0 1.09.53 1 1.13-.48 2.96-2.81 5.3-5.77 5.78-.6.1-1.14-.39-1.14-1zm.63 6.28l2.49-3.2c.2-.25.58-.26.78-.01l2.1 2.53 3.1-3.99c.2-.26.6-.26.8.01l3.51 4.68c.25.33.01.8-.4.8H6.02c-.41-.01-.65-.49-.39-.82z"/></symbol>
<symbol id="set_meal" viewBox="0 0 24 24"><rect fill="none" height="24" width="24"/><path d="M20.3,17.6L3.83,18.46c-0.41,0.02-0.77-0.3-0.79-0.71l0,0c-0.02-0.41,0.3-0.77,0.71-0.79l16.48-0.86 c0.41-0.02,0.77,0.3,0.79,0.71v0C21.04,17.22,20.72,17.58,20.3,17.6z M20.25,19.48H3.75C3.34,19.48,3,19.82,3,20.23l0,0 c0,0.41,0.34,0.75,0.75,0.75h16.5c0.41,0,0.75-0.34,0.75-0.75l0,0C21,19.82,20.66,19.48,20.25,19.48z M22,5v7c0,1.1-0.9,2-2,2H4 c-1.1,0-2-0.9-2-2V5c0-1.1,0.9-2,2-2h16C21.1,3,22,3.9,22,5z M19.12,6.09c-1.25,0.27-2.19,1.11-2.33,2.14 C16.15,7.5,14.06,5.5,10.25,5.5c-3.44,0-5.48,1.63-6.31,2.49c-0.28,0.29-0.28,0.74,0,1.03c0.83,0.86,2.87,2.49,6.31,2.49 c3.81,0,5.9-2,6.54-2.73c0.14,1.02,1.08,1.86,2.33,2.14c0.46,0.1,0.88-0.28,0.88-0.74V6.84C20,6.37,19.57,5.99,19.12,6.09z"/></symbol>
<symbol id="store_mall_directory" viewBox="0 0 24 24"><path d="M0 0h24v24H0V0z" fill="none"/><path d="M20.16 7.8c-.09-.46-.5-.8-.98-.8H4.82c-.48 0-.89.34-.98.8L3 12v1c0 .55.45 1 1 1v5c0 .55.45 1 1 1h8c.55 0 1-.45 1-1v-5h4v5c0 .55.45 1 1 1s1-.45 1-1v-5c.55 0 1-.45 1-1v-1l-.84-4.2zM12 18H6v-4h6v4zM5 6h14c.55 0 1-.45 1-1s-.45-1-1-1H5c-.55 0-1 .45-1 1s.45 1 1 1z"/></symbol>
<symbol id="streetview" viewBox="0 0 24 24"><path d="M0 0h24v24H0V0z" fill="none"/><path d="M12.56 14.33c-.34.27-.56.7-.56 1.17V21h7c1.1 0 2-.9 2-2v-5.98c-.94-.33-1.95-.52-3-.52-2.03 0-3.93.7-5.44 1.83z"/><circle cx="18" cy="6" r="5"/><path d="M11.5 6c0-1.08.27-2.1.74-3H5c-1.1 0-2 .9-2 2v14c0 .55.23 1.05.59 1.41l9.82-9.82C12.23 9.42 11.5 7.8 11.5 6z"/></symbol>
<symbol id="subway" viewBox="0 0 24 24"><path d="M0 0h24v24H0V0z" fill="none"/><circle cx="8.5" cy="16" r="1"/><circle cx="15.5" cy="16" r="1"/><path d="M7.01 9h10v5h-10zM17.8 2.8C16 2.09 13.86 2 12 2s-4 .09-5.8.8C3.53 3.84 2 6.05 2 8.86V22h20V8.86c0-2.81-1.53-5.02-4.2-6.06zm.2 12.7c0 1.54-1.16 2.79-2.65 2.96l1.15 1.16V20h-1.67l-1.5-1.5h-2.66L9.17 20H7.5v-.38l1.15-1.16C7.16 18.29 6 17.04 6 15.5V9c0-2.63 3-3 6-3s6 .37 6 3v6.5z"/></symbol>
<symbol id="terrain" viewBox="0 0 24 24"><path d="M0 0h24v24H0V0z" fill="none"/><path d="M13.2 7.07L10.25 11l2.25 3c.33.44.24 1.07-.2 1.4-.44.33-1.07.25-1.4-.2-1.05-1.4-2.31-3.07-3.1-4.14-.4-.53-1.2-.53-1.6 0l-4 5.33c-.49.67-.02 1.61.8 1.61h18c.82 0 1.29-.94.8-1.6l-7-9.33c-.4-.54-1.2-.54-1.6 0z"/></symbol>
<symbol id="traffic" viewBox="0 0 24 24"><path d="M0 0h24v24H0V0z" fill="none"/><path d="M19.96 10.59c.04-.31-.19-.59-.5-.59H17V8.86c1.54-.4 2.72-1.68 2.96-3.27.04-.31-.19-.59-.5-.59H17V4c0-.55-.45-1-1-1H8c-.55 0-1 .45-1 1v1H4.54c-.31 0-.54.28-.5.59C4.28 7.18 5.46 8.46 7 8.86V10H4.54c-.31 0-.54.28-.5.59.24 1.59 1.42 2.87 2.96 3.27V15H4.54c-.31 0-.54.28-.5.59.24 1.59 1.42 2.87 2.96 3.27V20c0 .55.45 1 1 1h8c.55 0 1-.45 1-1v-1.14c1.54-.4 2.72-1.68 2.96-3.27.04-.31-.19-.59-.5-.59H17v-1.14c1.54-.4 2.72-1.68 2.96-3.27zM12 19c-1.11 0-2-.9-2-2s.89-2 2-2c1.1 0 2 .9 2 2s-.89 2-2 2zm0-5c-1.11 0-2-.9-2-2s.89-2 2-2c1.1 0 2 .9 2 2s-.89 2-2 2zm0-5c-1.11 0-2-.9-2-2 0-1.11.89-2 2-2 1.1 0 2 .89 2 2 0 1.1-.89 2-2 2z"/></symbol>
<symbol id="train" viewBox="0 0 24 24"><path d="M0 0h24v24H0V0z" fill="none"/><path d="M12 2c-4 0-8 .5-8 4v9.5C4 17.43 5.57 19 7.5 19l-1.15 1.15c-.31.31-.09.85.36.85H7.8c.13 0 .26-.05.35-.15L10 19h4l1.85 1.85c.09.09.22.15.35.15h1.09c.45 0 .67-.54.35-.85L16.5 19c1.93 0 3.5-1.57 3.5-3.5V6c0-3.5-4-4-8-4zM7.5 17c-.83 0-1.5-.67-1.5-1.5S6.67 14 7.5 14s1.5.67 1.5 1.5S8.33 17 7.5 17zm3.5-7H6V6h5v4zm5.5 7c-.83 0-1.5-.67-1.5-1.5s.67-1.5 1.5-1.5 1.5.67 1.5 1.5-.67 1.5-1.5 1.5zm1.5-7h-5V6h5v4z"/></symbol>
<symbol id="tram" viewBox="0 0 24 24"><path d="M0 0h24v24H0V0z" fill="none"/><path d="M13 5l.75-1.5H17V2H7v1.5h4.75L11 5c-3.13.09-6 .73-6 3.5V17c0 1.5 1.11 2.73 2.55 2.95l-1.19 1.19c-.32.32-.1.86.35.86H7.8c.13 0 .26-.05.35-.15L10 20h4l1.85 1.85c.09.09.22.15.35.15h1.09c.45 0 .67-.54.35-.85l-1.19-1.19C17.89 19.73 19 18.5 19 17V8.5c0-2.77-2.87-3.41-6-3.5zm-1 13.5c-.83 0-1.5-.67-1.5-1.5s.67-1.5 1.5-1.5 1.5.67 1.5 1.5-.67 1.5-1.5 1.5zm5-4.5H7V9h10v5z"/></symbol>
<symbol id="transfer_within_a_station" viewBox="0 0 24 24"><path d="M0 0h24v24H0V0z" fill="none"/><path d="M22 15.5h-5.52v-.77c0-.36-.44-.54-.69-.29l-1.51 1.52c-.16.16-.16.41 0 .57l1.51 1.52c.26.26.69.08.69-.29V17H22v-1.5zm-.28 4.71l-1.51-1.52c-.26-.26-.69-.08-.69.29v.77H14v1.5h5.52v.77c0 .36.44.54.69.29l1.51-1.52c.16-.16.16-.42 0-.58zM9.5 5.5c1.1 0 2-.9 2-2s-.9-2-2-2-2 .9-2 2 .9 2 2 2zM5.75 8.9L3.23 21.81c-.12.62.35 1.19.98 1.19h.09c.47 0 .88-.33.98-.79L6.85 15 9 17v5c0 .55.45 1 1 1s1-.45 1-1v-5.72c0-.53-.21-1.04-.59-1.41L8.95 13.4l.6-3c1.07 1.32 2.58 2.23 4.31 2.51.6.1 1.14-.39 1.14-1 0-.49-.36-.9-.84-.98-1.49-.25-2.75-1.15-3.51-2.38l-.95-1.6C9.35 6.35 8.7 6 8 6c-.25 0-.5.05-.75.15L3.24 7.79C2.49 8.1 2 8.83 2 9.64V12c0 .55.45 1 1 1s1-.45 1-1V9.65l1.75-.75"/></symbol>
<symbol id="transit_enterexit" viewBox="0 0 24 24"><path d="M0 0h24v24H0V0z" fill="none"/><path d="M14.5 18H8c-1.1 0-2-.9-2-2V9.5C6 8.67 6.67 8 7.5 8S9 8.67 9 9.5v3.27L14.95 7c.57-.55 1.48-.54 2.04.02s.56 1.47.01 2.04L11.15 15h3.35c.83 0 1.5.67 1.5 1.5s-.67 1.5-1.5 1.5z"/></symbol>
<symbol id="trip_origin" viewBox="0 0 24 24"><path d="M0 0h24v24H0V0z" fill="none"/><path d="M2 12C2 6.48 6.48 2 12 2s10 4.48 10 10-4.48 10-10 10S2 17.52 2 12zm10 6c3.31 0 6-2.69 6-6s-2.69-6-6-6-6 2.69-6 6 2.69 6 6 6z"/></symbol>
<symbol id="two_wheeler" viewBox="0 0 24 24"><g><rect fill="none" fill-rule="evenodd" height="24" width="24" x="0" y="0"/><path d="M20,11c-0.18,0-0.36,0.03-0.53,0.05L17.41,9H19c0.55,0,1-0.45,1-1V7.62c0-0.74-0.78-1.23-1.45-0.89l-2.28,1.14l-2.57-2.57 C13.52,5.11,13.26,5,13,5h-3C9.45,5,9,5.45,9,6v0c0,0.55,0.45,1,1,1h2.17c0.27,0,0.52,0.11,0.71,0.29L14.59,9h-3.35 c-0.16,0-0.31,0.04-0.45,0.11l-3.14,1.57c-0.38,0.19-0.85,0.12-1.15-0.19l-1.2-1.2C5.11,9.11,4.85,9,4.59,9H1c-0.55,0-1,0.45-1,1v0 c0,0.55,0.45,1,1,1h3c-2.52,0-4.49,2.32-3.89,4.94c0.33,1.45,1.5,2.62,2.95,2.95C5.68,19.49,8,17.52,8,15l1.41,1.41 C9.79,16.79,10.3,17,10.83,17h1.01c0.72,0,1.38-0.38,1.74-1.01l2.91-5.09l1.01,1.01c-1.13,0.91-1.76,2.41-1.38,4.05 c0.34,1.44,1.51,2.61,2.95,2.94C21.68,19.49,24,17.51,24,15C24,12.79,22.21,11,20,11z M4,17c-1.1,0-2-0.9-2-2c0-1.1,0.9-2,2-2 c1.1,0,2,0.9,2,2C6,16.1,5.1,17,4,17z M20,17c-1.1,0-2-0.9-2-2c0-1.1,0.9-2,2-2s2,0.9,2,2C22,16.1,21.1,17,20,17z"/></g></symbol>
<symbol id="wine_bar" viewBox="0 0 24 24"><rect fill="none" height="24" width="24"/><path d="M7,3C6.45,3,6,3.45,6,4l0,5c0,2.97,2.16,5.43,5,5.91V19H9c-0.55,0-1,0.45-1,1v0c0,0.55,0.45,1,1,1h6c0.55,0,1-0.45,1-1v0 c0-0.55-0.45-1-1-1h-2v-4.09c2.84-0.48,5-2.94,5-5.91l0-5c0-0.55-0.45-1-1-1H7z M16,8H8l0-3h8C16,5,16,8,16,8z"/></symbol>
<symbol id="wrong_location" viewBox="0 0 24 24"><g><rect fill="none" height="24" width="24"/><rect fill="none" height="24" width="24"/></g><g><g><path d="M14,10V3.26C13.35,3.09,12.68,3,12,3c-4.2,0-8,3.22-8,8.2c0,3.18,2.45,6.92,7.34,11.23c0.38,0.33,0.95,0.33,1.33,0 C17.55,18.12,20,14.38,20,11.2c0-0.41-0.04-0.81-0.09-1.2H14z M12,13c-1.1,0-2-0.9-2-2c0-1.1,0.9-2,2-2s2,0.9,2,2 C14,12.1,13.1,13,12,13z"/><polygon points="22.54,2.88 21.12,1.46 19,3.59 16.88,1.46 15.46,2.88 17.59,5 15.46,7.12 16.88,8.54 19,6.41 21.12,8.54 22.54,7.12 20.41,5"/></g></g></symbol>
<symbol id="zoom_out_map" viewBox="0 0 24 24"><path d="M0 0h24v24H0V0z" fill="none"/><path d="M15.85 3.85L17.3 5.3l-2.18 2.16c-.39.39-.39 1.03 0 1.42.39.39 1.03.39 1.42 0L18.7 6.7l1.45 1.45c.31.31.85.09.85-.36V3.5c0-.28-.22-.5-.5-.5h-4.29c-.45 0-.67.54-.36.85zm-12 4.3L5.3 6.7l2.16 2.18c.39.39 1.03.39 1.42 0 .39-.39.39-1.03 0-1.42L6.7 5.3l1.45-1.45c.31-.31.09-.85-.36-.85H3.5c-.28 0-.5.22-.5.5v4.29c0 .45.54.67.85.36zm4.3 12L6.7 18.7l2.18-2.16c.39-.39.39-1.03 0-1.42-.39-.39-1.03-.39-1.42 0L5.3 17.3l-1.45-1.45c-.31-.31-.85-.09-.85.36v4.29c0 .28.22.5.5.5h4.29c.45 0 .67-.54.36-.85zm12-4.3L18.7 17.3l-2.16-2.18c-.39-.39-1.03-.39-1.42 0-.39.39-.39 1.03 0 1.42l2.18 2.16-1.45 1.45c-.31.31-.09.85.36.85h4.29c.28 0 .5-.22.5-.5v-4.29c0-.45-.54-.67-.85-.36z"/></symbol>
</svg>