<svg xmlns="http://www.w3.org/2000/svg">
<symbol id="apps" viewBox="0 0 24 24"><path d="M0 0h24v24H0V0z" fill="none"/><path d="M4 8h4V4H4v4zm6 12h4v-4h-4v4zm-6 0h4v-4H4v4zm0-6h4v-4H4v4zm6 0h4v-4h-4v4zm6-10v4h4V4h-4zm-6 4h4V4h-4v4zm6 6h4v-4h-4v4zm0 6h4v-4h-4v4z"/></symbol>
<symbol id="app_settings_alt" viewBox="0 0 24 24"><g><rect fill="none" height="24" width="24"/><path d="M21.81,12.74l-0.82-0.63c0-0.09,0-0.13,0-0.22l0.8-0.63c0.16-0.12,0.2-0.34,0.1-0.51l-0.85-1.48 c-0.07-0.13-0.21-0.2-0.35-0.2c-0.05,0-0.1,0.01-0.15,0.03l-0.95,0.38c-0.08-0.05-0.11-0.07-0.19-0.11l-0.15-1.01 C19.22,8.15,19.05,8,18.85,8h-1.71c-0.2,0-0.37,0.15-0.4,0.34L16.6,9.35c-0.03,0.02-0.07,0.03-0.1,0.05 c-0.03,0.02-0.06,0.04-0.09,0.06l-0.95-0.38c-0.05-0.02-0.1-0.03-0.15-0.03c-0.14,0-0.27,0.07-0.35,0.2l-0.85,1.48 c-0.1,0.17-0.06,0.39,0.1,0.51l0.8,0.63c0,0.09,0,0.13,0,0.23l-0.8,0.63c-0.16,0.12-0.2,0.34-0.1,0.51l0.85,1.48 c0.07,0.13,0.21,0.2,0.35,0.2c0.05,0,0.1-0.01,0.15-0.03l0.95-0.37c0.08,0.05,0.12,0.07,0.2,0.11l0.15,1.01 c0.03,0.2,0.2,0.34,0.4,0.34h1.71c0.2,0,0.37-0.15,0.4-0.34l0.15-1.01c0.03-0.02,0.07-0.03,0.1-0.05c0.03-0.02,0.06-0.04,0.09-0.06 l0.95,0.38c0.05,0.02,0.1,0.03,0.15,0.03c0.14,0,0.27-0.07,0.35-0.2l0.85-1.48C22.01,13.08,21.97,12.86,21.81,12.74z M18,13.5 c-0.83,0-1.5-0.67-1.5-1.5c0-0.83,0.67-1.5,1.5-1.5s1.5,0.67,1.5,1.5C19.5,12.83,18.83,13.5,18,13.5z M17,17h2v4c0,1.1-0.9,2-2,2H7 c-1.1,0-2-0.9-2-2V3c0-1.1,0.9-2,2-2h10c1.1,0,2,0.9,2,2v4h-2V6H7v12h10V17z"/></g></symbol>
<symbol id="arrow_back" viewBox="0 0 24 24"><path d="M0 0h24v24H0V0z" fill="none"/><path d="M19 11H7.83l4.88-4.88c.39-.39.39-1.03 0-1.42-.39-.39-1.02-.39-1.41 0l-6.59 6.59c-.39.39-.39 1.02 0 1.41l6.59 6.59c.39.39 1.02.39 1.41 0 .39-.39.39-1.02 0-1.41L7.83 13H19c.55 0 1-.45 1-1s-.45-1-1-1z"/></symbol>
<symbol id="arrow_back_ios" viewBox="0 0 24 24"><path d="M0 0h24v24H0V0z" fill="none" opacity=".87"/><path d="M16.62 2.99c-.49-.49-1.28-.49-1.77 0L6.54 11.3c-.39.39-.39 1.02 0 1.41l8.31 8.31c.49.49 1.28.49 1.77 0s.49-1.28 0-1.77L9.38 12l7.25-7.25c.48-.48.48-1.28-.01-1.76z"/></symbol>
<symbol id="arrow_downward" viewBox="0 0 24 24"><path d="M0 0h24v24H0V0z" fill="none"/><path d="M11 5v11.17l-4.88-4.88c-.39-.39-1.03-.39-1.42 0-.39.39-.39 1.02 0 1.41l6.59 6.59c.39.39 1.02.39 1.41 0l6.59-6.59c.39-.39.39-1.02 0-1.41-.39-.39-1.02-.39-1.41 0L13 16.17V5c0-.55-.45-1-1-1s-1 .45-1 1z"/></symbol>
<symbol id="arrow_drop_down" viewBox="0 0 24 24"><path d="M0 0h24v24H0V0z" fill="none"/><path d="M8.71 11.71l2.59 2.59c.39.39 1.02.39 1.41 0l2.59-2.59c.63-.63.18-1.71-.71-1.71H9.41c-.89 0-1.33 1.08-.7 1.71z"/></symbol>
<symbol id="arrow_drop_down_circle" viewBox="0 0 24 24"><path d="M0 0h24v24H0V0z" fill="none"/><path d="M12 2C6.48 2 2 6.48 2 12s4.48 10 10 10 10-4.48 10-10S17.52 2 12 2zm-.35 12.65l-2.79-2.79c-.32-.32-.1-.86.35-.86h5.59c.45 0 .67.54.35.85l-2.79 2.79c-.2.2-.52.2-.71.01z"/></symbol>
<symbol id="arrow_drop_up" viewBox="0 0 24 24"><path d="M0 0h24v24H0V0z" fill="none"/><path d="M8.71 12.29L11.3 9.7c.39-.39 1.02-.39 1.41 0l2.59 2.59c.63.63.18 1.71-.71 1.71H9.41c-.89 0-1.33-1.08-.7-1.71z"/></symbol>
<symbol id="arrow_forward" viewBox="0 0 24 24"><path d="M0 0h24v24H0V0z" fill="none"/><path d="M5 13h11.17l-4.88 4.88c-.39.39-.39 1.03 0 1.42.39.39 1.02.39 1.41 0l6.59-6.59c.39-.39.39-1.02 0-1.41l-6.58-6.6c-.39-.39-1.02-.39-1.41 0-.39.39-.39 1.02 0 1.41L16.17 11H5c-.55 0-1 .45-1 1s.45 1 1 1z"/></symbol>
<symbol id="arrow_forward_ios" viewBox="0 0 24 24"><path d="M24 24H0V0h24v24z" fill="none" opacity=".87"/><path d="M7.38 21.01c.49.49 1.28.49 1.77 0l8.31-8.31c.39-.39.39-1.02 0-1.41L9.15 2.98c-.49-.49-1.28-.49-1.77 0s-.49 1.28 0 1.77L14.62 12l-7.25 7.25c-.48.48-.48 1.28.01 1.76z"/></symbol>
<symbol id="arrow_left" viewBox="0 0 24 24"><path d="M24 0v24H0V0h24z" fill="none" opacity=".87"/><path d="M12.29 8.71L9.7 11.3c-.39.39-.39 1.02 0 1.41l2.59 2.59c.63.63 1.71.18 1.71-.71V9.41c0-.89-1.08-1.33-1.71-.7z"/></symbol>
<symbol id="arrow_right" viewBox="0 0 24 24"><path d="M0 0h24v24H0V0z" fill="none"/><path d="M11.71 15.29l2.59-2.59c.39-.39.39-1.02 0-1.41L11.71 8.7c-.63-.62-1.71-.18-1.71.71v5.17c0 .9 1.08 1.34 1.71.71z"/></symbol>
<symbol id="arrow_upward" viewBox="0 0 24 24"><path d="M0 0h24v24H0V0z" fill="none"/><path d="M13 19V7.83l4.88 4.88c.39.39 1.03.39 1.42 0 .39-.39.39-1.02 0-1.41l-6.59-6.59c-.39-.39-1.02-.39-1.41 0l-6.6 6.58c-.39.39-.39 1.02 0 1.41.39.39 1.02.39 1.41 0L11 7.83V19c0 .55.45 1 1 1s1-.45 1-1z"/></symbol>
<symbol id="campaign" viewBox="0 0 24 24"><g><rect fill="none" height="24" width="24"/></g><path d="M18,12L18,12c0,0.55,0.45,1,1,1h2c0.55,0,1-0.45,1-1v0c0-0.55-0.45-1-1-1h-2C18.45,11,18,11.45,18,12z"/><path d="M16.59,16.82c-0.33,0.44-0.24,1.05,0.2,1.37c0.53,0.39,1.09,0.81,1.62,1.21c0.44,0.33,1.06,0.24,1.38-0.2 c0-0.01,0.01-0.01,0.01-0.02c0.33-0.44,0.24-1.06-0.2-1.38c-0.53-0.4-1.09-0.82-1.61-1.21c-0.44-0.33-1.06-0.23-1.39,0.21 C16.6,16.81,16.59,16.82,16.59,16.82z"/><path d="M19.81,4.81c0-0.01-0.01-0.01-0.01-0.02c-0.33-0.44-0.95-0.53-1.38-0.2c-0.53,0.4-1.1,0.82-1.62,1.22 c-0.44,0.33-0.52,0.95-0.19,1.38c0,0.01,0.01,0.01,0.01,0.02c0.33,0.44,0.94,0.53,1.38,0.2c0.53-0.39,1.09-0.82,1.62-1.22 C20.05,5.87,20.13,5.25,19.81,4.81z"/><path d="M8,9H4c-1.1,0-2,0.9-2,2v2c0,1.1,0.9,2,2,2h1v3c0,0.55,0.45,1,1,1h0c0.55,0,1-0.45,1-1v-3h1l5,3V6L8,9z"/><path d="M15.5,12c0-1.33-0.58-2.53-1.5-3.35v6.69C14.92,14.53,15.5,13.33,15.5,12z"/></symbol>
<symbol id="cancel" viewBox="0 0 24 24"><path d="M0 0h24v24H0V0z" fill="none" opacity=".87"/><path d="M12 2C6.47 2 2 6.47 2 12s4.47 10 10 10 10-4.47 10-10S17.53 2 12 2zm4.3 14.3c-.39.39-1.02.39-1.41 0L12 13.41 9.11 16.3c-.39.39-1.02.39-1.41 0-.39-.39-.39-1.02 0-1.41L10.59 12 7.7 9.11c-.39-.39-.39-1.02 0-1.41.39-.39 1.02-.39 1.41 0L12 10.59l2.89-2.89c.39-.39 1.02-.39 1.41 0 .39.39.39 1.02 0 1.41L13.41 12l2.89 2.89c.38.38.38 1.02 0 1.41z"/></symbol>
<symbol id="check" viewBox="0 0 24 24"><path d="M0 0h24v24H0V0z" fill="none"/><path d="M9 16.17L5.53 12.7c-.39-.39-1.02-.39-1.41 0-.39.39-.39 1.02 0 1.41l4.18 4.18c.39.39 1.02.39 1.41 0L20.29 7.71c.39-.39.39-1.02 0-1.41-.39-.39-1.02-.39-1.41 0L9 16.17z"/></symbol>
<symbol id="chevron_left" viewBox="0 0 24 24"><path d="M0 0h24v24H0V0z" fill="none"/><path d="M14.71 6.71c-.39-.39-1.02-.39-1.41 0L8.71 11.3c-.39.39-.39 1.02 0 1.41l4.59 4.59c.39.39 1.02.39 1.41 0 .39-.39.39-1.02 0-1.41L10.83 12l3.88-3.88c.39-.39.38-1.03 0-1.41z"/></symbol>
<symbol id="chevron_right" viewBox="0 0 24 24"><path d="M0 0h24v24H0V0z" fill="none"/><path d="M9.29 6.71c-.39.39-.39 1.02 0 1.41L13.17 12l-3.88 3.88c-.39.39-.39 1.02 0 1.41.39.39 1.02.39 1.41 0l4.59-4.59c.39-.39.39-1.02 0-1.41L10.7 6.7c-.38-.38-1.02-.38-1.41.01z"/></symbol>
<symbol id="close" viewBox="0 0 24 24"><path d="M0 0h24v24H0V0z" fill="none"/><path d="M18.3 5.71c-.39-.39-1.02-.39-1.41 0L12 10.59 7.11 5.7c-.39-.39-1.02-.39-1.41 0-.39.39-.39 1.02 0 1.41L10.59 12 5.7 16.89c-.39.39-.39 1.02 0 1.41.39.39 1.02.39 1.41 0L12 13.41l4.89 4.89c.39.39 1.02.39 1.41 0 .39-.39.39-1.02 0-1.41L13.41 12l4.89-4.89c.38-.38.38-1.02 0-1.4z"/></symbol>
<symbol id="double_arrow" viewBox="0 0 24 24"><g><rect fill="none" height="24" width="24"/><rect fill="none" height="24" width="24"/></g><g><g><path d="M20.08,11.42l-4.04-5.65C15.7,5.29,15.15,5,14.56,5h0c-1.49,0-2.35,1.68-1.49,2.89L16,12l-2.93,4.11 c-0.87,1.21,0,2.89,1.49,2.89h0c0.59,0,1.15-0.29,1.49-0.77l4.04-5.65C20.33,12.23,20.33,11.77,20.08,11.42z"/><path d="M13.08,11.42L9.05,5.77C8.7,5.29,8.15,5,7.56,5h0C6.07,5,5.2,6.68,6.07,7.89L9,12l-2.93,4.11C5.2,17.32,6.07,19,7.56,19h0 c0.59,0,1.15-0.29,1.49-0.77l4.04-5.65C13.33,12.23,13.33,11.77,13.08,11.42z"/></g></g></symbol>
<symbol id="east" viewBox="0 0 24 24"><rect fill="none" height="24" width="24"/><path d="M14.29,5.71L14.29,5.71c-0.39,0.39-0.39,1.02,0,1.41L18.17,11H3c-0.55,0-1,0.45-1,1v0c0,0.55,0.45,1,1,1h15.18l-3.88,3.88 c-0.39,0.39-0.39,1.02,0,1.41l0,0c0.39,0.39,1.02,0.39,1.41,0l5.59-5.59c0.39-0.39,0.39-1.02,0-1.41L15.7,5.71 C15.32,5.32,14.68,5.32,14.29,5.71z"/></symbol>
<symbol id="expand_less" viewBox="0 0 24 24"><path d="M0 0h24v24H0V0z" fill="none"/><path d="M11.29 8.71L6.7 13.3c-.39.39-.39 1.02 0 1.41.39.39 1.02.39 1.41 0L12 10.83l3.88 3.88c.39.39 1.02.39 1.41 0 .39-.39.39-1.02 0-1.41L12.7 8.71c-.38-.39-1.02-.39-1.41 0z"/></symbol>
<symbol id="expand_more" viewBox="0 0 24 24"><path d="M24 24H0V0h24v24z" fill="none" opacity=".87"/><path d="M15.88 9.29L12 13.17 8.12 9.29c-.39-.39-1.02-.39-1.41 0-.39.39-.39 1.02 0 1.41l4.59 4.59c.39.39 1.02.39 1.41 0l4.59-4.59c.39-.39.39-1.02 0-1.41-.39-.38-1.03-.39-1.42 0z"/></symbol>
<symbol id="first_page" viewBox="0 0 24 24"><path d="M24 0v24H0V0h24z" fill="none" opacity=".87"/><path d="M17.7 15.89L13.82 12l3.89-3.89c.39-.39.39-1.02 0-1.41-.39-.39-1.02-.39-1.41 0l-4.59 4.59c-.39.39-.39 1.02 0 1.41l4.59 4.59c.39.39 1.02.39 1.41 0 .38-.38.38-1.02-.01-1.4zM7 6c.55 0 1 .45 1 1v10c0 .55-.45 1-1 1s-1-.45-1-1V7c0-.55.45-1 1-1z"/></symbol>
<symbol id="fullscreen" viewBox="0 0 24 24"><path d="M0 0h24v24H0V0z" fill="none"/><path d="M6 14c-.55 0-1 .45-1 1v3c0 .55.45 1 1 1h3c.55 0 1-.45 1-1s-.45-1-1-1H7v-2c0-.55-.45-1-1-1zm0-4c.55 0 1-.45 1-1V7h2c.55 0 1-.45 1-1s-.45-1-1-1H6c-.55 0-1 .45-1 1v3c0 .55.45 1 1 1zm11 7h-2c-.55 0-1 .45-1 1s.45 1 1 1h3c.55 0 1-.45 1-1v-3c0-.55-.45-1-1-1s-1 .45-1 1v2zM14 6c0 .55.45 1 1 1h2v2c0 .55.45 1 1 1s1-.45 1-1V6c0-.55-.45-1-1-1h-3c-.55 0-1 .45-1 1z"/></symbol>
<symbol id="fullscreen_exit" viewBox="0 0 24 24"><path d="M0 0h24v24H0V0z" fill="none"/><path d="M6 16h2v2c0 .55.45 1 1 1s1-.45 1-1v-3c0-.55-.45-1-1-1H6c-.55 0-1 .45-1 1s.45 1 1 1zm2-8H6c-.55 0-1 .45-1 1s.45 1 1 1h3c.55 0 1-.45 1-1V6c0-.55-.45-1-1-1s-1 .45-1 1v2zm7 11c.55 0 1-.45 1-1v-2h2c.55 0 1-.45 1-1s-.45-1-1-1h-3c-.55 0-1 .45-1 1v3c0 .55.45 1 1 1zm1-11V6c0-.55-.45-1-1-1s-1 .45-1 1v3c0 .55.45 1 1 1h3c.55 0 1-.45 1-1s-.45-1-1-1h-2z"/></symbol>
<symbol id="home_work" viewBox="0 0 24 24"><g><rect fill="none" height="24" width="24"/><rect fill="none" height="24" width="24"/></g><g><g><path d="M20,3h-8c-0.55,0-1,0.45-1,1v1.61c0,0,0,0,0.01,0.01l5,4.5C16.64,10.68,17,11.5,17,12.35V13h2v2h-2v2h2v2h-2v2h3 c0.55,0,1-0.45,1-1V4C21,3.45,20.55,3,20,3z M15,7h-2V5h2V7z M19,11h-2V9h2V11z M19,7h-2V5h2V7z"/><path d="M15,20v-7.65c0-0.28-0.12-0.55-0.33-0.74l-5-4.5C9.48,6.93,9.24,6.85,9,6.85c-0.24,0-0.48,0.09-0.67,0.26l-5,4.5 C3.12,11.79,3,12.06,3,12.35V20c0,0.55,0.45,1,1,1h2c0.55,0,1-0.45,1-1v-4h4v4c0,0.55,0.45,1,1,1h2C14.55,21,15,20.55,15,20z"/></g></g></symbol>
<symbol id="last_page" viewBox="0 0 24 24"><path d="M0 0h24v24H0V0z" fill="none" opacity=".87"/><path d="M6.29 8.11L10.18 12l-3.89 3.89c-.39.39-.39 1.02 0 1.41.39.39 1.02.39 1.41 0l4.59-4.59c.39-.39.39-1.02 0-1.41L7.7 6.7c-.39-.39-1.02-.39-1.41 0-.38.39-.38 1.03 0 1.41zM17 6c.55 0 1 .45 1 1v10c0 .55-.45 1-1 1s-1-.45-1-1V7c0-.55.45-1 1-1z"/></symbol>
<symbol id="legend_toggle" viewBox="0 0 24 24"><g><rect fill="none" height="24" width="24"/><path d="M19,15H5c-0.55,0-1-0.45-1-1v0c0-0.55,0.45-1,1-1h14c0.55,0,1,0.45,1,1v0C20,14.55,19.55,15,19,15z M19,17H5 c-0.55,0-1,0.45-1,1v0c0,0.55,0.45,1,1,1h14c0.55,0,1-0.45,1-1v0C20,17.45,19.55,17,19,17z M15,11l4.58-3.25 C19.84,7.56,20,7.26,20,6.94v0c0-0.81-0.92-1.29-1.58-0.82L15,8.55L10,5L4.48,8.36C4.18,8.55,4,8.87,4,9.22v0 c0,0.78,0.85,1.26,1.52,0.85l4.4-2.68L15,11z"/></g></symbol>
<symbol id="menu" viewBox="0 0 24 24"><path d="M0 0h24v24H0V0z" fill="none"/><path d="M4 18h16c.55 0 1-.45 1-1s-.45-1-1-1H4c-.55 0-1 .45-1 1s.45 1 1 1zm0-5h16c.55 0 1-.45 1-1s-.45-1-1-1H4c-.55 0-1 .45-1 1s.45 1 1 1zM3 7c0 .55.45 1 1 1h16c.55 0 1-.45 1-1s-.45-1-1-1H4c-.55 0-1 .45-1 1z"/></symbol>
<symbol id="menu_open" viewBox="0 0 24 24"><path d="M0,0h24v24H0V0z" fill="none"/><path d="M4,18h11c0.55,0,1-0.45,1-1v0c0-0.55-0.45-1-1-1H4c-0.55,0-1,0.45-1,1v0C3,17.55,3.45,18,4,18z M4,13h8c0.55,0,1-0.45,1-1v0 c0-0.55-0.45-1-1-1H4c-0.55,0-1,0.45-1,1v0C3,12.55,3.45,13,4,13z M3,7L3,7c0,0.55,0.45,1,1,1h11c0.55,0,1-0.45,1-1v0 c0-0.55-0.45-1-1-1H4C3.45,6,3,6.45,3,7z M20.3,14.88L17.42,12l2.88-2.88c0.39-0.39,0.39-1.02,0-1.41l0,0 c-0.39-0.39-1.02-0.39-1.41,0l-3.59,3.59c-0.39,0.39-0.39,1.02,0,1.41l3.59,3.59c0.39,0.39,1.02,0.39,1.41,0l0,0 C20.68,15.91,20.69,15.27,20.3,14.88z"/><path d="M0,0h24v24H0V0z" fill="none"/></symbol>
<symbol id="more_horiz" viewBox="0 0 24 24"><path d="M0 0h24v24H0V0z" fill="none"/><path d="M6 10c-1.1 0-2 .9-2 2s.9 2 2 2 2-.9 2-2-.9-2-2-2zm12 0c-1.1 0-2 .9-2 2s.9 2 2 2 2-.9 2-2-.9-2-2-2zm-6 0c-1.1 0-2 .9-2 2s.9 2 2 2 2-.9 2-2-.9-2-2-2z"/></symbol>
<symbol id="more_vert" viewBox="0 0 24 24"><path d="M0 0h24v24H0V0z" fill="none"/><path d="M12 8c1.1 0 2-.9 2-2s-.9-2-2-2-2 .9-2 2 .9 2 2 2zm0 2c-1.1 0-2 .9-2 2s.9 2 2 2 2-.9 2-2-.9-2-2-2zm0 6c-1.1 0-2 .9-2 2s.9 2 2 2 2-.9 2-2-.9-2-2-2z"/></symbol>
<symbol id="north" viewBox="0 0 24 24"><rect fill="none" height="24" width="24"/><path d="M5.71,9.7L5.71,9.7c0.39,0.39,1.02,0.39,1.41,0L11,5.83V21c0,0.55,0.45,1,1,1h0c0.55,0,1-0.45,1-1V5.83l3.88,3.88 c0.39,0.39,1.02,0.39,1.41,0l0,0c0.39-0.39,0.39-1.02,0-1.41L12.7,2.7c-0.39-0.39-1.02-0.39-1.41,0L5.71,8.29 C5.32,8.68,5.32,9.32,5.71,9.7z"/></symbol>
<symbol id="north_east" viewBox="0 0 24 24"><rect fill="none" height="24" width="24"/><path d="M9,6L9,6c0,0.56,0.45,1,1,1h5.59L4.7,17.89c-0.39,0.39-0.39,1.02,0,1.41h0c0.39,0.39,1.02,0.39,1.41,0L17,8.41V14 c0,0.55,0.45,1,1,1H18c0.55,0,1-0.45,1-1V6c0-0.55-0.45-1-1-1H10C9.45,5,9,5.45,9,6z"/></symbol>
<symbol id="north_west" viewBox="0 0 24 24"><rect fill="none" height="24" width="24"/><path d="M6,15L6,15c0.56,0,1-0.45,1-1V8.41L17.89,19.3c0.39,0.39,1.02,0.39,1.41,0l0,0c0.39-0.39,0.39-1.02,0-1.41L8.41,7H14 c0.55,0,1-0.45,1-1V6c0-0.55-0.45-1-1-1H6C5.45,5,5,5.45,5,6V14C5,14.55,5.45,15,6,15z"/></symbol>
<symbol id="payments" viewBox="0 0 24 24"><g><path d="M0,0v24h24V0H0z M1,13V7c0-1.66,1.34-3,3-3h12c1.66,0,3,1.34,3,3v7c0,1.1-0.9,2-2,2H4C2.34,16,1,14.66,1,13z M23,18c0,1.1-0.9,2-2,2H5c-0.55,0-1-0.45-1-1c0-0.55,0.45-1,1-1h16V8c0-0.55,0.45-1,1-1s1,0.45,1,1V18z" fill="none"/><path d="M23,8v10c0,1.1-0.9,2-2,2H5c-0.55,0-1-0.45-1-1c0-0.55,0.45-1,1-1h16V8c0-0.55,0.45-1,1-1S23,7.45,23,8z M4,16 c-1.66,0-3-1.34-3-3V7c0-1.66,1.34-3,3-3h12c1.66,0,3,1.34,3,3v7c0,1.1-0.9,2-2,2H4z M7,10c0,1.66,1.34,3,3,3s3-1.34,3-3 s-1.34-3-3-3S7,8.34,7,10z"/></g></symbol>
<symbol id="refresh" viewBox="0 0 24 24"><path d="M0 0h24v24H0V0z" fill="none"/><path d="M17.65 6.35c-1.63-1.63-3.94-2.57-6.48-2.31-3.67.37-6.69 3.35-7.1 7.02C3.52 15.91 7.27 20 12 20c3.19 0 5.93-1.87 7.21-4.56.32-.67-.16-1.44-.9-1.44-.37 0-.72.2-.88.53-1.13 2.43-3.84 3.97-6.8 3.31-2.22-.49-4.01-2.3-4.48-4.52C5.31 9.44 8.26 6 12 6c1.66 0 3.14.69 4.22 1.78l-1.51 1.51c-.63.63-.19 1.71.7 1.71H19c.55 0 1-.45 1-1V6.41c0-.89-1.08-1.34-1.71-.71l-.64.65z"/></symbol>
<symbol id="south" viewBox="0 0 24 24"><rect fill="none" height="24" width="24"/><path d="M18.3,14.29L18.3,14.29c-0.39-0.39-1.02-0.39-1.41,0L13,18.17V3c0-0.55-0.45-1-1-1h0c-0.55,0-1,0.45-1,1v15.18l-3.88-3.88 c-0.39-0.39-1.02-0.39-1.41,0l0,0c-0.39,0.39-0.39,1.02,0,1.41l5.59,5.59c0.39,0.39,1.02,0.39,1.41,0l5.59-5.59 C18.68,15.32,18.68,14.68,18.3,14.29z"/></symbol>
<symbol id="south_east" viewBox="0 0 24 24"><rect fill="none" height="24" width="24"/><path d="M18,9L18,9c-0.56,0-1,0.45-1,1v5.59L6.12,4.7c-0.39-0.39-1.02-0.39-1.41,0l0,0c-0.39,0.39-0.39,1.02,0,1.41L15.59,17H10 c-0.55,0-1,0.45-1,1V18c0,0.55,0.45,1,1,1H18c0.55,0,1-0.45,1-1V10C19,9.45,18.55,9,18,9z"/></symbol>
<symbol id="south_west" viewBox="0 0 24 24"><rect fill="none" height="24" width="24"/><path d="M15,18L15,18c0-0.56-0.45-1-1-1H8.41L19.3,6.11c0.39-0.39,0.39-1.02,0-1.41l0,0c-0.39-0.39-1.02-0.39-1.41,0L7,15.59V10 c0-0.55-0.45-1-1-1H6c-0.55,0-1,0.45-1,1V18c0,0.55,0.45,1,1,1H14C14.55,19,15,18.55,15,18z"/></symbol>
<symbol id="subdirectory_arrow_left" viewBox="0 0 24 24"><path d="M0 0h24v24H0V0z" fill="none"/><path d="M5.71 15.71l4.58 4.58c.39.39 1.03.39 1.42 0 .39-.39.39-1.03 0-1.42L8.83 16H19c.55 0 1-.45 1-1V5c0-.55-.45-1-1-1s-1 .45-1 1v9H8.83l2.88-2.87c.39-.39.39-1.03 0-1.42-.39-.39-1.03-.39-1.42 0l-4.58 4.58c-.39.39-.39 1.03 0 1.42z"/></symbol>
<symbol id="subdirectory_arrow_right" viewBox="0 0 24 24"><path d="M24 24H0V0h24v24z" fill="none" opacity=".87"/><path d="M18.29 15.71l-4.58 4.58c-.39.39-1.03.39-1.42 0-.39-.39-.39-1.03 0-1.42L15.17 16H5c-.55 0-1-.45-1-1V5c0-.55.45-1 1-1s1 .45 1 1v9h9.17l-2.88-2.87c-.39-.39-.39-1.03 0-1.42.39-.39 1.03-.39 1.42 0l4.58 4.58c.39.39.39 1.03 0 1.42z"/></symbol>
<symbol id="switch_left" viewBox="0 0 24 24"><rect fill="none" height="24" width="24"/><path d="M8.5,8.62v6.76L5.12,12L8.5,8.62 M3.71,11.29c-0.39,0.39-0.39,1.02,0,1.41l4.59,4.59C8.92,17.92,10,17.48,10,16.59V7.41 c0-0.89-1.08-1.34-1.71-0.71L3.71,11.29z M14,7.41v9.17c0,0.89,1.08,1.34,1.71,0.71l4.59-4.59c0.39-0.39,0.39-1.02,0-1.41 l-4.59-4.59C15.08,6.08,14,6.52,14,7.41z"/></symbol>
<symbol id="switch_right" viewBox="0 0 24 24"><rect fill="none" height="24" transform="matrix(-1 -1.224647e-16 1.224647e-16 -1 24 24)" width="24"/><path d="M15.5,15.38V8.62L18.88,12L15.5,15.38 M20.29,12.71c0.39-0.39,0.39-1.02,0-1.41l-4.59-4.59C15.08,6.08,14,6.52,14,7.41v9.17 c0,0.89,1.08,1.34,1.71,0.71L20.29,12.71z M10,16.59V7.41c0-0.89-1.08-1.34-1.71-0.71l-4.59,4.59c-0.39,0.39-0.39,1.02,0,1.41 l4.59,4.59C8.92,17.92,10,17.48,10,16.59z"/></symbol>
<symbol id="unfold_less" viewBox="0 0 24 24"><path d="M24 0v24H0V0h24z" fill="none" opacity=".87"/><path d="M8.12 19.3c.39.39 1.02.39 1.41 0L12 16.83l2.47 2.47c.39.39 1.02.39 1.41 0 .39-.39.39-1.02 0-1.41l-3.17-3.17c-.39-.39-1.02-.39-1.41 0l-3.17 3.17c-.4.38-.4 1.02-.01 1.41zm7.76-14.6c-.39-.39-1.02-.39-1.41 0L12 7.17 9.53 4.7c-.39-.39-1.02-.39-1.41 0-.39.39-.39 1.03 0 1.42l3.17 3.17c.39.39 1.02.39 1.41 0l3.17-3.17c.4-.39.4-1.03.01-1.42z"/></symbol>
<symbol id="unfold_more" viewBox="0 0 24 24"><path d="M0 0h24v24H0V0z" fill="none"/><path d="M12 5.83l2.46 2.46c.39.39 1.02.39 1.41 0 .39-.39.39-1.02 0-1.41L12.7 3.7c-.39-.39-1.02-.39-1.41 0L8.12 6.88c-.39.39-.39 1.02 0 1.41.39.39 1.02.39 1.41 0L12 5.83zm0 12.34l-2.46-2.46c-.39-.39-1.02-.39-1.41 0-.39.39-.39 1.02 0 1.41l3.17 3.18c.39.39 1.02.39 1.41 0l3.17-3.17c.39-.39.39-1.02 0-1.41-.39-.39-1.02-.39-1.41 0L12 18.17z"/></symbol>
<symbol id="west" viewBox="0 0 24 24"><rect fill="none" height="24" width="24"/><path d="M9.7,18.3L9.7,18.3c0.39-0.39,0.39-1.02,0-1.41L5.83,13H21c0.55,0,1-0.45,1-1v0c0-0.55-0.45-1-1-1H5.83l3.88-3.88 c0.39-0.39,0.39-1.02,0-1.41l0,0c-0.39-0.39-1.02-0.39-1.41,0L2.7,11.3c-0.39,0.39-0.39,1.02,0,1.41l5.59,5.59 C8.68,18.68,9.32,18.68,9.7,18.3z"/></symbol>
</svg>