<svg xmlns="http://www.w3.org/2000/svg">
<symbol id="account_tree" viewBox="0 0 24 24"><rect fill="none" height="24" width="24"/><path d="M17,11h3c1.11,0,2-0.9,2-2V5c0-1.11-0.9-2-2-2h-3c-1.11,0-2,0.9-2,2v1H9.01V5c0-1.11-0.9-2-2-2H4C2.9,3,2,3.9,2,5v4 c0,1.11,0.9,2,2,2h3c1.11,0,2-0.9,2-2V8H11v7.01c0,1.65,1.34,2.99,2.99,2.99H15v1c0,1.11,0.9,2,2,2h3c1.11,0,2-0.9,2-2v-4 c0-1.11-0.9-2-2-2h-3c-1.11,0-2,0.9-2,2v1h-1.01C13.45,16,13,15.55,13,15.01V8h2v1C15,10.1,15.9,11,17,11z"/></symbol>
<symbol id="adb" viewBox="0 0 24 24"><path d="M0 0h24v24H0V0z" fill="none"/><path d="M5 16c0 3.87 3.13 7 7 7s7-3.13 7-7v-4H5v4zM16.12 4.37l2.1-2.1-.82-.83-2.3 2.31C14.16 3.28 13.12 3 12 3s-2.16.28-3.09.75L6.6 1.44l-.82.83 2.1 2.1C6.14 5.64 5 7.68 5 10v1h14v-1c0-2.32-1.14-4.36-2.88-5.63zM9 9c-.55 0-1-.45-1-1s.45-1 1-1 1 .45 1 1-.45 1-1 1zm6 0c-.55 0-1-.45-1-1s.45-1 1-1 1 .45 1 1-.45 1-1 1z"/></symbol>
<symbol id="airline_seat_flat" viewBox="0 0 24 24"><path d="M0 0h24v24H0V0z" fill="none"/><path d="M22 11v2H9V9c0-1.1.9-2 2-2h7c2.21 0 4 1.79 4 4zM2 15c0 .55.45 1 1 1h5v1c0 .55.45 1 1 1h6c.55 0 1-.45 1-1v-1h5c.55 0 1-.45 1-1s-.45-1-1-1H3c-.55 0-1 .45-1 1zm5.14-2.9c1.16-1.19 1.14-3.08-.04-4.24-1.19-1.16-3.08-1.14-4.24.04-1.16 1.19-1.14 3.08.04 4.24 1.19 1.16 3.08 1.14 4.24-.04z"/></symbol>
<symbol id="airline_seat_flat_angled" viewBox="0 0 24 24"><path d="M0 0h24v24H0V0z" fill="none"/><path d="M22.25 14.29l-.69 1.89L9.2 11.71l1.39-3.79c.38-1.03 1.52-1.56 2.56-1.19l6.69 2.41c2.1.76 3.18 3.06 2.41 5.15zm-19.8-1.81l5.55 2V18c0 .55.45 1 1 1h6c.55 0 1-.45 1-1v-.63l3.58 1.29c.52.19 1.1-.08 1.29-.6.19-.52-.08-1.1-.6-1.29L3.13 10.59c-.52-.19-1.1.08-1.29.6-.18.52.09 1.1.61 1.29zM7.3 10.2c1.49-.72 2.12-2.51 1.41-4C7.99 4.71 6.2 4.08 4.7 4.8c-1.49.71-2.12 2.5-1.4 4 .71 1.49 2.5 2.12 4 1.4z"/></symbol>
<symbol id="airline_seat_individual_suite" viewBox="0 0 24 24"><path d="M0 0h24v24H0V0z" fill="none"/><path d="M7 13c1.65 0 3-1.35 3-3S8.65 7 7 7s-3 1.35-3 3 1.35 3 3 3zm12-6h-6c-1.1 0-2 .9-2 2v5H3V8c0-.55-.45-1-1-1s-1 .45-1 1v7c0 1.1.9 2 2 2h18c1.1 0 2-.9 2-2v-4c0-2.21-1.79-4-4-4z"/></symbol>
<symbol id="airline_seat_legroom_extra" viewBox="0 0 24 24"><path d="M0 0h24v24H0V0z" fill="none"/><path d="M4 12V4c0-.55-.45-1-1-1s-1 .45-1 1v8c0 2.76 2.24 5 5 5h5c.55 0 1-.45 1-1s-.45-1-1-1H7c-1.66 0-3-1.34-3-3zm18.83 5.24c-.38-.72-1.29-.97-2.03-.63l-1.09.5-3.41-6.98C15.96 9.45 15.27 9 14.51 9H11V3H5v8c0 1.66 1.34 3 3 3h7l2.56 5.25c.48.98 1.64 1.39 2.63.94l1.95-.89c.76-.36 1.09-1.3.69-2.06z"/></symbol>
<symbol id="airline_seat_legroom_normal" viewBox="0 0 24 24"><path d="M0 0h24v24H0V0z" fill="none"/><path d="M5 12V4c0-.55-.45-1-1-1s-1 .45-1 1v8c0 2.76 2.24 5 5 5h5c.55 0 1-.45 1-1s-.45-1-1-1H8c-1.66 0-3-1.34-3-3zm15.5 6H19v-7c0-1.1-.9-2-2-2h-5V3H6v8c0 1.65 1.35 3 3 3h7v5c0 1.1.9 2 2 2h2.5c.83 0 1.5-.67 1.5-1.5s-.67-1.5-1.5-1.5z"/></symbol>
<symbol id="airline_seat_legroom_reduced" viewBox="0 0 24 24"><path d="M0 0h24v24H0V0z" fill="none"/><path d="M19.97 19.2c.18.96-.55 1.8-1.47 1.8h-2.69c-1.3 0-2.26-1.22-1.94-2.49L15 14H9c-1.65 0-3-1.35-3-3V3h6v6h5c1.1 0 2 .9 2 2l-2 7h1.44c.73 0 1.39.49 1.53 1.2zM5 12V4c0-.55-.45-1-1-1s-1 .45-1 1v8c0 2.76 2.24 5 5 5h3c.55 0 1-.45 1-1s-.45-1-1-1H8c-1.66 0-3-1.34-3-3z"/></symbol>
<symbol id="airline_seat_recline_extra" viewBox="0 0 24 24"><path d="M0 0h24v24H0V0z" fill="none"/><path d="M5.35 5.64c-.9-.64-1.12-1.88-.49-2.79.63-.9 1.88-1.12 2.79-.49.9.64 1.12 1.88.49 2.79-.64.9-1.88 1.12-2.79.49zM16 20c0-.55-.45-1-1-1H8.93c-1.48 0-2.74-1.08-2.96-2.54L4.16 7.78C4.07 7.33 3.67 7 3.2 7c-.62 0-1.08.57-.96 1.18l1.75 8.58C4.37 19.2 6.47 21 8.94 21H15c.55 0 1-.45 1-1zm-.46-5h-4.19l-1.03-4.1c1.28.72 2.63 1.28 4.1 1.3.58.01 1.05-.49 1.05-1.07 0-.59-.49-1.04-1.08-1.06-1.31-.04-2.63-.56-3.61-1.33L9.14 7.47c-.23-.18-.49-.3-.76-.38-.32-.09-.66-.12-.99-.06h-.02c-1.23.22-2.05 1.39-1.84 2.61l1.35 5.92C7.16 16.98 8.39 18 9.83 18h6.85l3.09 2.42c.42.33 1.02.29 1.39-.08.45-.45.4-1.18-.1-1.57l-4.29-3.35c-.35-.27-.78-.42-1.23-.42z"/></symbol>
<symbol id="airline_seat_recline_normal" viewBox="0 0 24 24"><path d="M0 0h24v24H0V0z" fill="none"/><path d="M7.59 5.41c-.78-.78-.78-2.05 0-2.83s2.05-.78 2.83 0 .78 2.05 0 2.83c-.79.79-2.05.79-2.83 0zM6 16V8c0-.55-.45-1-1-1s-1 .45-1 1v8c0 2.76 2.24 5 5 5h5c.55 0 1-.45 1-1s-.45-1-1-1H9c-1.66 0-3-1.34-3-3zm13.28 3.35l-3.77-3.77c-.37-.37-.88-.58-1.41-.58h-2.6v-3.68c1.09.89 2.66 1.7 4.2 2.02.67.14 1.3-.36 1.3-1.04 0-.53-.39-.96-.92-1.05-1.42-.24-2.88-1.01-3.75-1.97l-1.4-1.55c-.19-.21-.43-.38-.69-.5-.29-.14-.62-.23-.96-.23h-.03C8.01 7 7 8.01 7 9.25V15c0 1.66 1.34 3 3 3h5.07l2.78 2.78c.39.39 1.04.39 1.43 0 .4-.39.4-1.03 0-1.43z"/></symbol>
<symbol id="bluetooth_audio" viewBox="0 0 24 24"><path d="M0 0h24v24H0V0z" fill="none"/><path d="M15.98 10.28l-1.38 1.38c-.2.2-.2.51 0 .71l1.38 1.38c.28.28.75.15.85-.23.11-.5.17-1 .17-1.52 0-.51-.06-1.01-.18-1.48-.09-.38-.56-.52-.84-.24zm4.12-2.5c-.25-.55-.98-.67-1.4-.24-.26.26-.31.64-.17.98.46 1.07.72 2.24.72 3.47 0 1.24-.26 2.42-.73 3.49-.14.32-.09.69.16.94.41.41 1.1.29 1.35-.23.63-1.3.98-2.76.98-4.3-.01-1.45-.33-2.85-.91-4.11zM11.39 12l3.59-3.58c.39-.39.39-1.02 0-1.42l-4.29-4.29c-.63-.63-1.71-.18-1.71.71V9.6L5.09 5.7c-.39-.39-1.02-.39-1.41 0-.39.39-.39 1.02 0 1.41L8.57 12l-4.89 4.89c-.39.39-.39 1.02 0 1.41.39.39 1.02.39 1.41 0l3.89-3.89v6.18c0 .89 1.08 1.34 1.71.71l4.3-4.3c.39-.39.39-1.02 0-1.42L11.39 12zm-.41-6.17l1.88 1.88-1.88 1.88V5.83zm0 12.34v-3.76l1.88 1.88-1.88 1.88z"/></symbol>
<symbol id="confirmation_number" viewBox="0 0 24 24"><path d="M0 0h24v24H0z" fill="none"/><path d="M22 8.54V6c0-1.1-.9-2-2-2H4c-1.1 0-1.99.89-1.99 2v2.54c0 .69.33 1.37.94 1.69C3.58 10.58 4 11.24 4 12s-.43 1.43-1.06 1.76c-.6.33-.94 1.01-.94 1.7V18c0 1.1.9 2 2 2h16c1.1 0 2-.9 2-2v-2.54c0-.69-.34-1.37-.94-1.7-.63-.34-1.06-1-1.06-1.76s.43-1.42 1.06-1.76c.6-.33.94-1.01.94-1.7zm-9 8.96h-2v-2h2v2zm0-4.5h-2v-2h2v2zm0-4.5h-2v-2h2v2z"/></symbol>
<symbol id="directions_off" viewBox="0 0 24 24"><g><rect fill="none" height="24" width="24"/><rect fill="none" height="24" width="24"/></g><g><g><g><path d="M21.71,11.29l-9-9c-0.39-0.39-1.02-0.39-1.41,0L8.21,5.38L13,10.17l0-2.67l3.15,3.15c0.2,0.2,0.2,0.51,0,0.71l-0.98,0.98 l3.45,3.45l3.09-3.09C22.09,12.32,22.09,11.69,21.71,11.29z"/></g><g><path d="M6.79,6.79L3.51,3.51c-0.39-0.39-1.02-0.39-1.41,0l0,0c-0.39,0.39-0.39,1.02,0,1.41l3.28,3.28l-3.09,3.09 c-0.39,0.39-0.39,1.02,0,1.41l9,9c0.39,0.39,1.02,0.39,1.41,0l3.09-3.09l3.28,3.28c0.39,0.39,1.02,0.39,1.41,0l0,0 c0.39-0.39,0.39-1.02,0-1.41L6.79,6.79z M9.99,14c0,0.55-0.45,1-1,1c-0.55,0-1-0.45-1-1v-3c0-0.05,0.02-0.1,0.03-0.15l1.97,1.97 V14z"/></g></g></g></symbol>
<symbol id="disc_full" viewBox="0 0 24 24"><path d="M0 0h24v24H0V0z" fill="none"/><path d="M20 16h2v-2h-2v2zm0-8v3c0 .55.45 1 1 1s1-.45 1-1V8c0-.55-.45-1-1-1s-1 .45-1 1zM10 4c-4.42 0-8 3.58-8 8s3.58 8 8 8 8-3.58 8-8-3.58-8-8-8zm0 10c-1.1 0-2-.9-2-2s.9-2 2-2 2 .9 2 2-.9 2-2 2z"/></symbol>
<symbol id="do_disturb" viewBox="0 0 24 24"><path d="M0 0h24v24H0V0z" fill="none"/><path d="M12 2C6.48 2 2 6.48 2 12s4.48 10 10 10 10-4.48 10-10S17.52 2 12 2zm0 18c-4.42 0-8-3.58-8-8 0-1.85.63-3.55 1.69-4.9L16.9 18.31C15.55 19.37 13.85 20 12 20zm6.31-3.1L7.1 5.69C8.45 4.63 10.15 4 12 4c4.42 0 8 3.58 8 8 0 1.85-.63 3.55-1.69 4.9z"/></symbol>
<symbol id="do_disturb_alt" viewBox="0 0 24 24"><path d="M0 0h24v24H0z" fill="none"/><path d="M12 2C6.5 2 2 6.5 2 12s4.5 10 10 10 10-4.5 10-10S17.5 2 12 2zM4 12c0-4.4 3.6-8 8-8 1.8 0 3.5.6 4.9 1.7L5.7 16.9C4.6 15.5 4 13.8 4 12zm8 8c-1.8 0-3.5-.6-4.9-1.7L18.3 7.1C19.4 8.5 20 10.2 20 12c0 4.4-3.6 8-8 8z"/></symbol>
<symbol id="do_disturb_off" viewBox="0 0 24 24"><path d="M0 0h24v24H0V0z" fill="none"/><path d="M17 11v2h-.88l4.33 4.33C21.43 15.79 22 13.96 22 12c0-5.52-4.48-10-10-10-1.96 0-3.79.57-5.33 1.55L14.12 11H17zm4.17 9.88L3.12 2.83c-.39-.39-1.02-.39-1.41 0-.39.39-.39 1.02 0 1.41l2.07 2.07C2.66 7.93 2 9.89 2 12c0 5.52 4.48 10 10 10 2.11 0 4.07-.66 5.68-1.78l2.07 2.07c.39.39 1.02.39 1.41 0 .4-.39.4-1.02.01-1.41zM7 13v-2h1.46l2 2H7z"/></symbol>
<symbol id="do_disturb_on" viewBox="0 0 24 24"><path d="M0 0h24v24H0V0z" fill="none"/><path d="M12 2C6.48 2 2 6.48 2 12s4.48 10 10 10 10-4.48 10-10S17.52 2 12 2zm4 11H8c-.55 0-1-.45-1-1s.45-1 1-1h8c.55 0 1 .45 1 1s-.45 1-1 1z"/></symbol>
<symbol id="drive_eta" viewBox="0 0 24 24"><path d="M0 0h24v24H0V0z" fill="none"/><path d="M18.92 5.01C18.72 4.42 18.16 4 17.5 4h-11c-.66 0-1.21.42-1.42 1.01l-1.97 5.67c-.07.21-.11.43-.11.66v7.16c0 .83.67 1.5 1.5 1.5S6 19.33 6 18.5V18h12v.5c0 .82.67 1.5 1.5 1.5.82 0 1.5-.67 1.5-1.5v-7.16c0-.22-.04-.45-.11-.66l-1.97-5.67zM6.5 15c-.83 0-1.5-.67-1.5-1.5S5.67 12 6.5 12s1.5.67 1.5 1.5S7.33 15 6.5 15zm11 0c-.83 0-1.5-.67-1.5-1.5s.67-1.5 1.5-1.5 1.5.67 1.5 1.5-.67 1.5-1.5 1.5zM5 10l1.27-3.82c.14-.4.52-.68.95-.68h9.56c.43 0 .81.28.95.68L19 10H5z"/></symbol>
<symbol id="enhanced_encryption" viewBox="0 0 24 24"><path d="M0 0h24v24H0V0zm0 0h24v24H0V0z" fill="none"/><path d="M18 8h-1V6c0-2.76-2.24-5-5-5S7 3.24 7 6v2H6c-1.1 0-2 .9-2 2v10c0 1.1.9 2 2 2h12c1.1 0 2-.9 2-2V10c0-1.1-.9-2-2-2zM8.9 6c0-1.71 1.39-3.1 3.1-3.1s3.1 1.39 3.1 3.1v2H8.9V6zM15 16h-2v2c0 .55-.45 1-1 1s-1-.45-1-1v-2H9c-.55 0-1-.45-1-1s.45-1 1-1h2v-2c0-.55.45-1 1-1s1 .45 1 1v2h2c.55 0 1 .45 1 1s-.45 1-1 1z"/></symbol>
<symbol id="event_available" viewBox="0 0 24 24"><path d="M0 0h24v24H0V0z" fill="none"/><path d="M16 10.53c-.29-.29-.77-.29-1.06 0l-4.35 4.35L9 13.29c-.29-.29-.77-.29-1.06 0-.29.29-.29.77 0 1.06l1.94 1.94c.39.39 1.02.39 1.41 0l4.7-4.7c.3-.29.3-.77.01-1.06zM19 3h-1V2c0-.55-.45-1-1-1s-1 .45-1 1v1H8V2c0-.55-.45-1-1-1s-1 .45-1 1v1H5c-1.11 0-1.99.9-1.99 2L3 19c0 1.1.89 2 2 2h14c1.1 0 2-.9 2-2V5c0-1.1-.9-2-2-2zm-1 16H6c-.55 0-1-.45-1-1V8h14v10c0 .55-.45 1-1 1z"/></symbol>
<symbol id="event_busy" viewBox="0 0 24 24"><path d="M0 0h24v24H0V0z" fill="none"/><path d="M9.84 16.47l1.91-1.91 1.91 1.91c.29.29.77.29 1.06 0 .29-.29.29-.77 0-1.06l-1.91-1.91 1.91-1.91c.29-.29.29-.77 0-1.06-.29-.29-.77-.29-1.06 0l-1.91 1.91-1.91-1.91c-.29-.29-.77-.29-1.06 0-.29.29-.29.77 0 1.06l1.91 1.91-1.91 1.91c-.29.29-.29.77 0 1.06.29.29.77.29 1.06 0zM19 3h-1V2c0-.55-.45-1-1-1s-1 .45-1 1v1H8V2c0-.55-.45-1-1-1s-1 .45-1 1v1H5c-1.11 0-1.99.9-1.99 2L3 19c0 1.1.89 2 2 2h14c1.1 0 2-.9 2-2V5c0-1.1-.9-2-2-2zm-1 16H6c-.55 0-1-.45-1-1V8h14v10c0 .55-.45 1-1 1z"/></symbol>
<symbol id="event_note" viewBox="0 0 24 24"><path d="M0 0h24v24H0V0z" fill="none"/><path d="M16 10H8c-.55 0-1 .45-1 1s.45 1 1 1h8c.55 0 1-.45 1-1s-.45-1-1-1zm3-7h-1V2c0-.55-.45-1-1-1s-1 .45-1 1v1H8V2c0-.55-.45-1-1-1s-1 .45-1 1v1H5c-1.11 0-2 .9-2 2v14c0 1.1.89 2 2 2h14c1.1 0 2-.9 2-2V5c0-1.1-.9-2-2-2zm-1 16H6c-.55 0-1-.45-1-1V8h14v10c0 .55-.45 1-1 1zm-5-5H8c-.55 0-1 .45-1 1s.45 1 1 1h5c.55 0 1-.45 1-1s-.45-1-1-1z"/></symbol>
<symbol id="folder_special" viewBox="0 0 24 24"><path d="M0 0h24v24H0V0z" fill="none"/><path d="M20 6h-8l-1.41-1.41C10.21 4.21 9.7 4 9.17 4H4c-1.1 0-2 .9-2 2v12c0 1.1.9 2 2 2h16c1.1 0 2-.9 2-2V8c0-1.1-.9-2-2-2zm-3.06 10.41L15 15.28l-1.94 1.13c-.38.22-.84-.12-.74-.55l.51-2.2-1.69-1.46c-.33-.29-.16-.84.28-.88l2.23-.19.88-2.06c.17-.4.75-.4.92 0l.88 2.06 2.23.19c.44.04.62.59.28.88l-1.69 1.46.51 2.2c.11.43-.35.77-.72.55z"/></symbol>
<symbol id="live_tv" viewBox="0 0 24 24"><path d="M0 0h24v24H0V0z" fill="none"/><path d="M10.5 17.15l3.98-2.28c.67-.38.67-1.35 0-1.74l-3.98-2.28c-.67-.38-1.5.11-1.5.87v4.55c0 .77.83 1.26 1.5.88zM21 6h-7.59l2.94-2.94c.2-.2.2-.51 0-.71s-.51-.2-.71 0L12 5.99 8.36 2.35c-.2-.2-.51-.2-.71 0s-.2.51 0 .71L10.59 6H3c-1.1 0-2 .89-2 2v12c0 1.1.9 2 2 2h18c1.1 0 2-.9 2-2V8c0-1.11-.9-2-2-2zm-1 14H4c-.55 0-1-.45-1-1V9c0-.55.45-1 1-1h16c.55 0 1 .45 1 1v10c0 .55-.45 1-1 1z"/></symbol>
<symbol id="mms" viewBox="0 0 24 24"><path d="M0 0h24v24H0V0z" fill="none"/><path d="M20 2H4c-1.1 0-2 .9-2 2v18l4-4h14c1.1 0 2-.9 2-2V4c0-1.1-.9-2-2-2zM5.63 13.19l2.49-3.2c.2-.25.58-.26.78-.01l2.1 2.53 3.1-3.99c.2-.26.6-.26.8.01l3.51 4.68c.25.33.01.8-.4.8H6.02c-.41-.01-.65-.49-.39-.82z"/></symbol>
<symbol id="more" viewBox="0 0 24 24"><path d="M0 0h24v24H0V0z" fill="none"/><path d="M22 3H7c-.69 0-1.23.35-1.59.88L.37 11.45c-.22.34-.22.77 0 1.11l5.04 7.56c.36.52.97.88 1.66.88H22c1.1 0 2-.9 2-2V5c0-1.1-.9-2-2-2zM9 13.5c-.83 0-1.5-.67-1.5-1.5s.67-1.5 1.5-1.5 1.5.67 1.5 1.5-.67 1.5-1.5 1.5zm5 0c-.83 0-1.5-.67-1.5-1.5s.67-1.5 1.5-1.5 1.5.67 1.5 1.5-.67 1.5-1.5 1.5zm5 0c-.83 0-1.5-.67-1.5-1.5s.67-1.5 1.5-1.5 1.5.67 1.5 1.5-.67 1.5-1.5 1.5z"/></symbol>
<symbol id="network_check" viewBox="0 0 24 24"><path d="M0 0h24v24H0V0z" fill="none"/><path d="M15.9 5c-.17 0-.32.09-.41.23l-.07.15-5.18 11.65c-.16.29-.26.61-.26.96 0 1.11.9 2.01 2.01 2.01.96 0 1.77-.68 1.96-1.59l.01-.03L16.4 5.5c0-.28-.22-.5-.5-.5zM2.06 10.06c.51.51 1.33.55 1.89.09 2.76-2.26 6.24-3.18 9.58-2.76l1.19-2.68c-4.35-.78-8.96.3-12.57 3.25-.64.53-.68 1.51-.09 2.1zm19.88 0c.59-.59.55-1.57-.1-2.1-1.36-1.11-2.86-1.95-4.44-2.53l-.53 2.82c1.13.47 2.19 1.09 3.17 1.89.58.46 1.39.43 1.9-.08zm-4.03 4.03c.6-.6.56-1.63-.14-2.12-.46-.33-.94-.61-1.44-.86l-.55 2.92c.11.07.22.14.32.22.57.4 1.33.32 1.81-.16zm-11.83-.01c.5.5 1.27.54 1.85.13.94-.66 2.01-1.06 3.1-1.22l1.28-2.88c-2.13-.06-4.28.54-6.09 1.84-.69.51-.74 1.53-.14 2.13z"/></symbol>
<symbol id="network_locked" viewBox="0 0 24 24"><path d="M0 0h24v24H0V0zm0 0h24v24H0V0z" fill="none"/><path d="M22 16v-.5c0-1.38-1.12-2.5-2.5-2.5S17 14.12 17 15.5v.5c-.55 0-1 .45-1 1v4c0 .55.45 1 1 1h5c.55 0 1-.45 1-1v-4c0-.55-.45-1-1-1zm-1 0h-3v-.5c0-.83.67-1.5 1.5-1.5s1.5.67 1.5 1.5v.5zm-1.5-5c.17 0 .33.03.5.05V3.41c0-.89-1.08-1.34-1.71-.71L2.71 18.29c-.63.63-.19 1.71.7 1.71H14v-3c0-.92.42-1.74 1.07-2.3.38-2.1 2.22-3.7 4.43-3.7z"/></symbol>
<symbol id="no_encryption" viewBox="0 0 24 24"><path d="M0 0h24v24H0V0zm0 0h24v24H0V0zm0 0h24v24H0V0zm0 0h24v24H0V0z" fill="none"/><path d="M8.9 6c0-1.71 1.39-3.1 3.1-3.1s3.1 1.39 3.1 3.1v2h-4.66L20 17.56V10c0-1.1-.9-2-2-2h-1V6c0-2.76-2.24-5-5-5-2.32 0-4.26 1.59-4.82 3.74L8.9 6.46V6zm-3.78-.49c-.39-.39-1.02-.39-1.41 0-.39.39-.39 1.02 0 1.41l1.33 1.33C4.42 8.6 4 9.25 4 10v10c0 1.1.9 2 2 2h12.78l.29.29c.39.39 1.02.39 1.41 0 .39-.39.39-1.02 0-1.41L5.12 5.51z"/></symbol>
<symbol id="no_encryption_gmailerrorred" viewBox="0 0 24 24"><path d="M0 0h24v24H0V0zm0 0h24v24H0V0zm0 0h24v24H0V0zm0 0h24v24H0V0z" fill="none"/><path d="M8.9 6c0-1.71 1.39-3.1 3.1-3.1s3.1 1.39 3.1 3.1v2h-4.66L20 17.56V10c0-1.1-.9-2-2-2h-1V6c0-2.76-2.24-5-5-5-2.32 0-4.26 1.59-4.82 3.74L8.9 6.46V6zm-3.78-.49c-.39-.39-1.02-.39-1.41 0-.39.39-.39 1.02 0 1.41l1.33 1.33C4.42 8.6 4 9.25 4 10v10c0 1.1.9 2 2 2h12.78l.29.29c.39.39 1.02.39 1.41 0 .39-.39.39-1.02 0-1.41L5.12 5.51z"/></symbol>
<symbol id="ondemand_video" viewBox="0 0 24 24"><path d="M0 0h24v24H0V0z" fill="none"/><path d="M21 3H3c-1.1 0-2 .9-2 2v12c0 1.1.9 2 2 2h5v1c0 .55.45 1 1 1h6c.55 0 1-.45 1-1v-1h5c1.1 0 1.99-.9 1.99-2L23 5c0-1.11-.9-2-2-2zm-1 14H4c-.55 0-1-.45-1-1V6c0-.55.45-1 1-1h16c.55 0 1 .45 1 1v10c0 .55-.45 1-1 1zm-5.52-5.13l-3.98 2.28c-.67.38-1.5-.11-1.5-.87V8.72c0-.77.83-1.25 1.5-.87l3.98 2.28c.67.39.67 1.35 0 1.74z"/></symbol>
<symbol id="personal_video" viewBox="0 0 24 24"><path d="M0 0h24v24H0V0z" fill="none"/><path d="M21 3H3c-1.1 0-2 .9-2 2v12c0 1.1.9 2 2 2h5v1c0 .55.45 1 1 1h6c.55 0 1-.45 1-1v-1h5c1.1 0 1.99-.9 1.99-2L23 5c0-1.11-.9-2-2-2zm-1 14H4c-.55 0-1-.45-1-1V6c0-.55.45-1 1-1h16c.55 0 1 .45 1 1v10c0 .55-.45 1-1 1z"/></symbol>
<symbol id="phone_bluetooth_speaker" viewBox="0 0 24 24"><path d="M0 0h24v24H0V0z" fill="none"/><path d="M19.23 15.26l-2.54-.29c-.61-.07-1.21.14-1.64.57l-1.84 1.84c-2.83-1.44-5.15-3.75-6.59-6.59l1.85-1.85c.43-.43.64-1.03.57-1.64l-.29-2.52c-.12-1.01-.97-1.77-1.99-1.77H5.03c-1.13 0-2.07.94-2 2.07.53 8.54 7.36 15.36 15.89 15.89 1.13.07 2.07-.87 2.07-2v-1.73c.01-1.01-.75-1.86-1.76-1.98zm-2.44-9.25l-2.45 2.45c-.2.2-.2.52 0 .71.2.2.52.2.71 0L17 7.23v3.15c0 .2.12.39.31.47.06.03.13.04.19.04.13 0 .26-.05.36-.15l2.18-2.18c.2-.2.2-.52 0-.71l-1.83-1.83 1.83-1.83c.09-.09.15-.22.15-.36s-.05-.26-.15-.36l-2.18-2.18c-.14-.14-.36-.19-.55-.11-.19.08-.31.26-.31.46v3.15l-1.95-1.95c-.2-.2-.52-.2-.71 0-.2.2-.2.52 0 .71l2.45 2.46zm1.22-3.15l.96.96-.96.96V2.86zm0 4.37l.96.96-.96.96V7.23z"/></symbol>
<symbol id="phone_callback" viewBox="0 0 24 24"><path d="M0 0h24v24H0V0z" fill="none"/><path d="M19.23 15.26l-2.54-.29c-.61-.07-1.21.14-1.64.57l-1.84 1.84c-2.83-1.44-5.15-3.75-6.59-6.59l1.85-1.85c.43-.43.64-1.03.57-1.64l-.29-2.52c-.12-1.01-.97-1.77-1.99-1.77H5.03c-1.13 0-2.07.94-2 2.07.53 8.54 7.36 15.36 15.89 15.89 1.13.07 2.07-.87 2.07-2v-1.73c.01-1.01-.75-1.86-1.76-1.98zM13 11h4c.55 0 1-.45 1-1s-.45-1-1-1h-1.59l4.31-4.31c.39-.39.39-1.02 0-1.41s-1.02-.39-1.41 0L14 7.59V6c0-.55-.45-1-1-1s-1 .45-1 1v4c0 .55.45 1 1 1z"/></symbol>
<symbol id="phone_forwarded" viewBox="0 0 24 24"><path d="M0 0h24v24H0V0z" fill="none"/><path d="M22.65 5.65l-3.79-3.79c-.32-.32-.86-.1-.86.35V4h-3.5c-.28 0-.5.22-.5.5v3c0 .28.22.5.5.5H18v1.79c0 .45.54.67.85.35l3.79-3.79c.2-.19.2-.51.01-.7zm-3.42 9.61l-2.54-.29c-.61-.07-1.21.14-1.64.57l-1.84 1.84c-2.83-1.44-5.15-3.75-6.59-6.59l1.85-1.85c.43-.43.64-1.03.57-1.64l-.29-2.52c-.12-1.01-.97-1.77-1.99-1.77H5.03c-1.13 0-2.07.94-2 2.07.53 8.54 7.36 15.36 15.89 15.89 1.13.07 2.07-.87 2.07-2v-1.73c.01-1.01-.75-1.86-1.76-1.98z"/></symbol>
<symbol id="phone_in_talk" viewBox="0 0 24 24"><path d="M0 0h24v24H0V0z" fill="none"/><path d="M12.88 5.05c3.18.4 5.67 2.89 6.07 6.07.06.51.49.88.99.88.04 0 .08 0 .12-.01.55-.07.94-.57.87-1.12-.51-4.09-3.72-7.3-7.81-7.81-.55-.06-1.05.33-1.11.88-.07.55.32 1.05.87 1.11zm.38 2.11c-.53-.14-1.08.18-1.22.72s.18 1.08.72 1.22c1.05.27 1.87 1.09 2.15 2.15.12.45.52.75.97.75.08 0 .17-.01.25-.03.53-.14.85-.69.72-1.22-.47-1.77-1.84-3.14-3.59-3.59zm5.97 8.1l-2.54-.29c-.61-.07-1.21.14-1.64.57l-1.84 1.84c-2.83-1.44-5.15-3.75-6.59-6.59l1.85-1.85c.43-.43.64-1.03.57-1.64l-.29-2.52c-.12-1.01-.97-1.77-1.99-1.77H5.03c-1.13 0-2.07.94-2 2.07.53 8.54 7.36 15.36 15.89 15.89 1.13.07 2.07-.87 2.07-2v-1.73c.01-1.01-.75-1.86-1.76-1.98z"/></symbol>
<symbol id="phone_locked" viewBox="0 0 24 24"><path d="M0 0h24v24H0V0z" fill="none"/><path d="M19.23 15.26l-2.54-.29c-.61-.07-1.21.14-1.64.57l-1.84 1.84c-2.83-1.44-5.15-3.75-6.59-6.59l1.85-1.85c.43-.43.64-1.03.57-1.64l-.29-2.52c-.12-1.01-.97-1.77-1.99-1.77H5.03c-1.13 0-2.07.94-2 2.07.53 8.54 7.36 15.36 15.89 15.89 1.13.07 2.07-.87 2.07-2v-1.73c.01-1.01-.75-1.86-1.76-1.98zM20 4v-.5C20 2.12 18.88 1 17.5 1S15 2.12 15 3.5V4c-.55 0-1 .45-1 1v4c0 .55.45 1 1 1h5c.55 0 1-.45 1-1V5c0-.55-.45-1-1-1zm-1 0h-3v-.5c0-.83.67-1.5 1.5-1.5s1.5.67 1.5 1.5V4z"/></symbol>
<symbol id="phone_missed" viewBox="0 0 24 24"><path d="M0 0h24v24H0V0z" fill="none"/><path d="M23.09 16.2c-6.33-5.59-15.86-5.59-22.18 0-.84.74-.84 2.05-.05 2.84l1.2 1.2c.71.71 1.84.77 2.62.15l1.97-1.57c.47-.37.75-.94.75-1.55V14.7c2.98-.97 6.21-.98 9.2 0v2.58c0 .6.28 1.17.75 1.55l1.96 1.56c.79.62 1.91.56 2.62-.15l1.2-1.2c.8-.79.79-2.1-.04-2.84zM6 9c.55 0 1-.45 1-1V6.43l4.24 4.24c.39.39 1.02.39 1.41 0l5.66-5.66c.39-.39.39-1.02 0-1.41-.39-.39-1.02-.39-1.41 0l-4.95 4.95L8.4 5H10c.55 0 1-.45 1-1s-.45-1-1-1H6c-.55 0-1 .45-1 1v4c0 .55.45 1 1 1z"/></symbol>
<symbol id="phone_paused" viewBox="0 0 24 24"><path d="M0 0h24v24H0V0z" fill="none"/><path d="M16 3c-.55 0-1 .45-1 1v5c0 .55.45 1 1 1s1-.45 1-1V4c0-.55-.45-1-1-1zm3 1v5c0 .55.45 1 1 1s1-.45 1-1V4c0-.55-.45-1-1-1s-1 .45-1 1zm.23 11.26l-2.54-.29c-.61-.07-1.21.14-1.64.57l-1.84 1.84c-2.83-1.44-5.15-3.75-6.59-6.59l1.85-1.85c.43-.43.64-1.03.57-1.64l-.29-2.52c-.12-1.01-.97-1.77-1.99-1.77H5.03c-1.13 0-2.07.94-2 2.07.53 8.54 7.36 15.36 15.89 15.89 1.13.07 2.07-.87 2.07-2v-1.73c.01-1.01-.75-1.86-1.76-1.98z"/></symbol>
<symbol id="power" viewBox="0 0 24 24"><path d="M0 0h24v24H0V0z" fill="none"/><path d="M16.01 7L16 4c0-.55-.45-1-1-1s-1 .45-1 1v3h-4V4c0-.55-.45-1-1-1s-1 .45-1 1v3h-.01C6.9 7 6 7.9 6 8.99v4.66c0 .53.21 1.04.58 1.41L9.5 18v2c0 .55.45 1 1 1h3c.55 0 1-.45 1-1v-2l2.92-2.92c.37-.38.58-.89.58-1.42V8.99C18 7.89 17.11 7 16.01 7z"/></symbol>
<symbol id="power_off" viewBox="0 0 24 24"><path d="M0 0h24v24H0V0z" fill="none"/><path d="M18 13.66V8.99c0-1-1.01-2-2-1.99V4c0-.55-.45-1-1-1s-1 .45-1 1v3h-3.88l7.63 7.63c.15-.3.25-.63.25-.97zM10 4c0-.55-.45-1-1-1s-1 .45-1 1v.88l2 2V4zm10.15 15.86l-7.66-7.66-5.1-5.1-2.56-2.56c-.39-.39-1.02-.39-1.41 0-.39.39-.39 1.02 0 1.41l2.63 2.63c-.03.13-.05.27-.05.41v4.66c0 .53.21 1.04.58 1.41L9.5 18v2c0 .55.45 1 1 1h3c.55 0 1-.45 1-1v-2l.48-.48 3.76 3.76c.39.39 1.02.39 1.41 0 .39-.39.39-1.03 0-1.42z"/></symbol>
<symbol id="priority_high" viewBox="0 0 24 24"><path d="M0 0h24v24H0V0z" fill="none"/><circle cx="12" cy="19" r="2"/><path d="M12 3c-1.1 0-2 .9-2 2v8c0 1.1.9 2 2 2s2-.9 2-2V5c0-1.1-.9-2-2-2z"/></symbol>
<symbol id="sd_card" viewBox="0 0 24 24"><path d="M0 0h24v24H0V0z" fill="none"/><path d="M18 2h-7.17c-.53 0-1.04.21-1.42.59L4.6 7.42c-.37.37-.6.88-.6 1.4V20c0 1.1.9 2 2 2h12c1.1 0 2-.9 2-2V4c0-1.1-.9-2-2-2zm-7 6c-.55 0-1-.45-1-1V5c0-.55.45-1 1-1s1 .45 1 1v2c0 .55-.45 1-1 1zm3 0c-.55 0-1-.45-1-1V5c0-.55.45-1 1-1s1 .45 1 1v2c0 .55-.45 1-1 1zm3 0c-.55 0-1-.45-1-1V5c0-.55.45-1 1-1s1 .45 1 1v2c0 .55-.45 1-1 1z"/></symbol>
<symbol id="sd_card_alert" viewBox="0 0 24 24"><path d="M0 0h24v24H0V0z" fill="none"/><path d="M18 2h-7.17c-.53 0-1.04.21-1.42.59L4.6 7.42c-.37.37-.58.88-.58 1.4L4 20c0 1.1.9 2 2 2h12c1.1 0 2-.9 2-2V4c0-1.1-.9-2-2-2zm-5 15h-2v-2h2v2zm-1-4c-.55 0-1-.45-1-1V9c0-.55.45-1 1-1s1 .45 1 1v3c0 .55-.45 1-1 1z"/></symbol>
<symbol id="sms" viewBox="0 0 24 24"><path d="M0 0h24v24H0V0z" fill="none"/><path d="M20 2H4c-1.1 0-2 .9-2 2v18l4-4h14c1.1 0 2-.9 2-2V4c0-1.1-.9-2-2-2zM9 11H7V9h2v2zm4 0h-2V9h2v2zm4 0h-2V9h2v2z"/></symbol>
<symbol id="sms_failed" viewBox="0 0 24 24"><path d="M0 0h24v24H0V0z" fill="none"/><path d="M20 2H4c-1.1 0-2 .9-2 2v18l4-4h14c1.1 0 2-.9 2-2V4c0-1.1-.9-2-2-2zm-7 12h-2v-2h2v2zm-1-4c-.55 0-1-.45-1-1V7c0-.55.45-1 1-1s1 .45 1 1v2c0 .55-.45 1-1 1z"/></symbol>
<symbol id="support_agent" viewBox="0 0 24 24"><g><rect fill="none" height="24" width="24"/><rect fill="none" height="24" width="24"/></g><g><g><path d="M21,12.22C21,6.73,16.74,3,12,3c-4.69,0-9,3.65-9,9.28C2.4,12.62,2,13.26,2,14v2c0,1.1,0.9,2,2,2h0c0.55,0,1-0.45,1-1 l0-4.81c0-3.83,2.95-7.18,6.78-7.29c3.96-0.12,7.22,3.06,7.22,7V19h-7c-0.55,0-1,0.45-1,1v0c0,0.55,0.45,1,1,1h7c1.1,0,2-0.9,2-2 v-1.22c0.59-0.31,1-0.92,1-1.64v-2.3C22,13.14,21.59,12.53,21,12.22z"/><circle cx="9" cy="13" r="1"/><circle cx="15" cy="13" r="1"/><path d="M18,11.03C17.52,8.18,15.04,6,12.05,6c-3.03,0-6.29,2.51-6.03,6.45c2.47-1.01,4.33-3.21,4.86-5.89 C12.19,9.19,14.88,11,18,11.03z"/></g></g></symbol>
<symbol id="sync" viewBox="0 0 24 24"><path d="M.01 0h24v24h-24V0z" fill="none"/><path d="M12 4V2.21c0-.45-.54-.67-.85-.35l-2.8 2.79c-.2.2-.2.51 0 .71l2.79 2.79c.32.31.86.09.86-.36V6c3.31 0 6 2.69 6 6 0 .79-.15 1.56-.44 2.25-.15.36-.04.77.23 1.04.51.51 1.37.33 1.64-.34.37-.91.57-1.91.57-2.95 0-4.42-3.58-8-8-8zm0 14c-3.31 0-6-2.69-6-6 0-.79.15-1.56.44-2.25.15-.36.04-.77-.23-1.04-.51-.51-1.37-.33-1.64.34C4.2 9.96 4 10.96 4 12c0 4.42 3.58 8 8 8v1.79c0 .45.54.67.85.35l2.79-2.79c.2-.2.2-.51 0-.71l-2.79-2.79c-.31-.31-.85-.09-.85.36V18z"/></symbol>
<symbol id="sync_disabled" viewBox="0 0 24 24"><path d="M0 0h24v24H0V0zm0 0h24v24H0V0z" fill="none"/><path d="M10 5.74v-.19c0-.68-.71-1.11-1.32-.82-.19.09-.36.2-.54.3L9.6 6.49c.24-.18.4-.45.4-.75zM20 12c0-2.21-.91-4.2-2.36-5.64l1.51-1.51c.31-.31.09-.85-.36-.85H14v4.79c0 .45.54.67.85.35l1.39-1.39C17.32 8.85 18 10.34 18 12c0 .85-.18 1.66-.5 2.39l1.48 1.48C19.62 14.72 20 13.41 20 12zM3.57 4.7c-.39.39-.39 1.02 0 1.41l1.65 1.65C4.45 9 4 10.44 4 12c0 2.21.91 4.2 2.36 5.64l-1.51 1.51c-.31.31-.09.85.36.85H9.5c.28 0 .5-.22.5-.5v-4.29c0-.45-.54-.67-.85-.35l-1.39 1.39C6.68 15.15 6 13.66 6 12c0-1 .26-1.93.69-2.76l8.07 8.07c-.01.02-.01.02-.01.04-.43.12-.75.48-.75.91v.18c0 .68.71 1.11 1.32.82.31-.14.61-.31.9-.49l1.87 1.87c.39.39 1.02.39 1.41 0 .39-.39.39-1.02 0-1.41L4.98 4.7c-.39-.39-1.02-.39-1.41 0z"/></symbol>
<symbol id="sync_problem" viewBox="0 0 24 24"><path d="M0 0h24v24H0V0z" fill="none"/><path d="M3 12c0 2.21.91 4.2 2.36 5.64l-1.51 1.51c-.31.31-.09.85.36.85H8.5c.28 0 .5-.22.5-.5v-4.29c0-.45-.54-.67-.85-.35l-1.39 1.39C5.68 15.15 5 13.66 5 12c0-2.39 1.4-4.46 3.43-5.42.34-.16.57-.47.57-.84v-.19c0-.68-.71-1.11-1.32-.82C4.92 5.99 3 8.77 3 12zm8 5h2v-2h-2v2zm8.79-13H15.5c-.28 0-.5.22-.5.5v4.29c0 .45.54.67.85.35l1.39-1.39C18.32 8.85 19 10.34 19 12c0 2.39-1.4 4.46-3.43 5.42-.34.16-.57.47-.57.84v.18c0 .68.71 1.11 1.32.82C19.08 18.01 21 15.23 21 12c0-2.21-.91-4.2-2.36-5.64l1.51-1.51c.31-.31.09-.85-.36-.85zM12 13c.55 0 1-.45 1-1V8c0-.55-.45-1-1-1s-1 .45-1 1v4c0 .55.45 1 1 1z"/></symbol>
<symbol id="system_update" viewBox="0 0 24 24"><path d="M0 0h24v24H0V0z" fill="none"/><path d="M17 1.01L7 1c-1.1 0-2 .9-2 2v18c0 1.1.9 2 2 2h10c1.1 0 2-.9 2-2V3c0-1.1-.9-1.99-2-1.99zM17 19H7V5h10v14zm-2.21-6H13V9c0-.55-.45-1-1-1s-1 .45-1 1v4H9.21c-.45 0-.67.54-.35.85l2.79 2.79c.2.2.51.2.71 0l2.79-2.79c.31-.31.09-.85-.36-.85z"/></symbol>
<symbol id="tap_and_play" viewBox="0 0 24 24"><path d="M0 0h24v24H0V0z" fill="none"/><path d="M3.14 16.09c-.6-.1-1.14.39-1.14 1 0 .49.36.9.85.98 2.08.36 3.72 2 4.08 4.08.08.49.49.85.98.85.61 0 1.09-.54 1-1.14-.48-2.95-2.81-5.29-5.77-5.77zM2 20v3h3c0-1.66-1.34-3-3-3zm1.11-7.94c-.59-.06-1.11.4-1.11.99 0 .5.37.94.87.99 4.27.41 7.67 3.81 8.08 8.08.05.5.48.88.99.88.59 0 1.06-.51 1-1.1-.51-5.2-4.63-9.32-9.83-9.84zM17 1.01L7 1c-1.1 0-2 .9-2 2v7.37c.69.16 1.36.37 2 .64V5h10v13h-3.03c.52 1.25.84 2.59.95 4H17c1.1 0 2-.9 2-2V3c0-1.1-.9-1.99-2-1.99z"/></symbol>
<symbol id="time_to_leave" viewBox="0 0 24 24"><path d="M0 0h24v24H0V0z" fill="none"/><path d="M18.92 5.01C18.72 4.42 18.16 4 17.5 4h-11c-.66 0-1.21.42-1.42 1.01l-1.97 5.67c-.07.21-.11.43-.11.66v7.16c0 .83.67 1.5 1.5 1.5S6 19.33 6 18.5V18h12v.5c0 .82.67 1.5 1.5 1.5.82 0 1.5-.67 1.5-1.5v-7.16c0-.22-.04-.45-.11-.66l-1.97-5.67zM6.5 15c-.83 0-1.5-.67-1.5-1.5S5.67 12 6.5 12s1.5.67 1.5 1.5S7.33 15 6.5 15zm11 0c-.83 0-1.5-.67-1.5-1.5s.67-1.5 1.5-1.5 1.5.67 1.5 1.5-.67 1.5-1.5 1.5zM5 10l1.27-3.82c.14-.4.52-.68.95-.68h9.56c.43 0 .81.28.95.68L19 10H5z"/></symbol>
<symbol id="tv_off" viewBox="0 0 24 24"><path d="M0 0h24v24H0V0z" fill="none"/><path d="M21 8v9.88l1.85 1.85c.1-.22.15-.47.15-.73V7c0-1.11-.9-2-2-2h-7.59l2.94-2.94c.2-.2.2-.51 0-.71s-.51-.2-.71 0L12 4.99 8.36 1.35c-.2-.2-.51-.2-.71 0s-.2.51 0 .71L10.59 5H8.12l2 2H20c.55 0 1 .45 1 1zM3.12 2.83c-.39-.39-1.02-.39-1.41 0-.39.39-.39 1.02 0 1.41l.82.82C1.65 5.28 1 6.06 1 7v12c0 1.1.9 2 2 2h15.46l1.29 1.29c.39.39 1.02.39 1.41 0 .36-.36.37-.92.07-1.31h.03L3.12 2.83zM3 18V8c0-.55.45-1 1-1h.46l12 12H4c-.55 0-1-.45-1-1z"/></symbol>
<symbol id="vibration" viewBox="0 0 24 24"><path d="M0 0h24v24H0V0z" fill="none"/><path d="M1 15c.55 0 1-.45 1-1v-4c0-.55-.45-1-1-1s-1 .45-1 1v4c0 .55.45 1 1 1zm3 2c.55 0 1-.45 1-1V8c0-.55-.45-1-1-1s-1 .45-1 1v8c0 .55.45 1 1 1zm18-7v4c0 .55.45 1 1 1s1-.45 1-1v-4c0-.55-.45-1-1-1s-1 .45-1 1zm-2 7c.55 0 1-.45 1-1V8c0-.55-.45-1-1-1s-1 .45-1 1v8c0 .55.45 1 1 1zM16.5 3h-9C6.67 3 6 3.67 6 4.5v15c0 .83.67 1.5 1.5 1.5h9c.83 0 1.5-.67 1.5-1.5v-15c0-.83-.67-1.5-1.5-1.5zM16 19H8V5h8v14z"/></symbol>
<symbol id="voice_chat" viewBox="0 0 24 24"><path d="M0 0h24v24H0V0z" fill="none"/><path d="M20 2H4c-1.1 0-1.99.9-1.99 2L2 22l4-4h14c1.1 0 2-.9 2-2V4c0-1.1-.9-2-2-2zm-3.62 10.7L14 10.8V13c0 .55-.45 1-1 1H7c-.55 0-1-.45-1-1V7c0-.55.45-1 1-1h6c.55 0 1 .45 1 1v2.2l2.38-1.9c.65-.52 1.62-.06 1.62.78v3.84c0 .84-.97 1.3-1.62.78z"/></symbol>
<symbol id="vpn_lock" viewBox="0 0 24 24"><path d="M0 0h24v24H0V0z" fill="none"/><path d="M18.92 12c.04.33.08.66.08 1 0 2.08-.8 3.97-2.1 5.39-.26-.81-1-1.39-1.9-1.39h-1v-3c0-.55-.45-1-1-1H7v-2h2c.55 0 1-.45 1-1V8h2c1.1 0 2-.9 2-2V3.46c-.95-.3-1.95-.46-3-.46C5.48 3 1 7.48 1 13s4.48 10 10 10 10-4.48 10-10c0-.34-.02-.67-.05-1h-2.03zM10 20.93c-3.95-.49-7-3.85-7-7.93 0-.62.08-1.21.21-1.79L8 16v1c0 1.1.9 2 2 2v1.93zM22 4v-.5C22 2.12 20.88 1 19.5 1S17 2.12 17 3.5V4c-.55 0-1 .45-1 1v4c0 .55.45 1 1 1h5c.55 0 1-.45 1-1V5c0-.55-.45-1-1-1zm-1 0h-3v-.5c0-.83.67-1.5 1.5-1.5s1.5.67 1.5 1.5V4z"/></symbol>
<symbol id="wc" viewBox="0 0 24 24"><path d="M.01 0h24v24h-24V0z" fill="none"/><path d="M5.5 21v-6.5H5c-.55 0-1-.45-1-1V9c0-1.1.9-2 2-2h3c1.1 0 2 .9 2 2v4.5c0 .55-.45 1-1 1h-.5V21c0 .55-.45 1-1 1h-2c-.55 0-1-.45-1-1zM18 21v-5h1.61c.68 0 1.16-.67.95-1.32l-2.1-6.31C18.18 7.55 17.42 7 16.56 7h-.12c-.86 0-1.63.55-1.9 1.37l-2.1 6.31c-.22.65.26 1.32.95 1.32H15v5c0 .55.45 1 1 1h1c.55 0 1-.45 1-1zM7.5 6c1.11 0 2-.89 2-2s-.89-2-2-2-2 .89-2 2 .89 2 2 2zm9 0c1.11 0 2-.89 2-2s-.89-2-2-2-2 .89-2 2 .89 2 2 2z"/></symbol>
<symbol id="wifi" viewBox="0 0 24 24"><path d="M0 0h24v24H0V0zm0 0h24v24H0V0z" fill="none"/><path d="M2.06 10.06c.51.51 1.32.56 1.87.1 4.67-3.84 11.45-3.84 16.13-.01.56.46 1.38.42 1.89-.09.59-.59.55-1.57-.1-2.1-5.71-4.67-13.97-4.67-19.69 0-.65.52-.7 1.5-.1 2.1zm7.76 7.76l1.47 1.47c.39.39 1.02.39 1.41 0l1.47-1.47c.47-.47.37-1.28-.23-1.59-1.22-.63-2.68-.63-3.91 0-.57.31-.68 1.12-.21 1.59zm-3.73-3.73c.49.49 1.26.54 1.83.13 2.44-1.73 5.72-1.73 8.16 0 .57.4 1.34.36 1.83-.13l.01-.01c.6-.6.56-1.62-.13-2.11-3.44-2.49-8.13-2.49-11.58 0-.69.5-.73 1.51-.12 2.12z"/></symbol>
<symbol id="wifi_off" viewBox="0 0 24 24"><path d="M0 0h24v24H0V0z" fill="none"/><path d="M20.06 10.14c.56.46 1.38.42 1.89-.09.59-.59.55-1.57-.1-2.1-3.59-2.94-8.2-4.03-12.55-3.26l2.59 2.59c2.89-.03 5.8.92 8.17 2.86zm-2.27 1.83c-.78-.57-1.63-1-2.52-1.3l2.95 2.95c.24-.58.1-1.27-.43-1.65zm-3.84 4.26c-1.22-.63-2.68-.63-3.91 0-.59.31-.7 1.12-.23 1.59l1.47 1.47c.39.39 1.02.39 1.41 0l1.47-1.47c.49-.47.39-1.28-.21-1.59zm5.73 1.67L4.12 2.34c-.39-.39-1.02-.39-1.41 0-.39.39-.39 1.02 0 1.41L5.05 6.1c-1.01.5-1.99 1.11-2.89 1.85-.65.53-.69 1.51-.1 2.1.51.51 1.32.56 1.87.1 1-.82 2.1-1.46 3.25-1.93l2.23 2.23c-1.13.3-2.21.8-3.19 1.51-.69.5-.73 1.51-.13 2.11l.01.01c.49.49 1.26.54 1.83.13 1.19-.84 2.58-1.26 3.97-1.29l6.37 6.37c.39.39 1.02.39 1.41 0 .39-.37.39-1 0-1.39z"/></symbol>
</svg>