<svg xmlns="http://www.w3.org/2000/svg">
<symbol id="6_ft_apart" viewBox="0 0 24 24"><rect fill="none" height="24" width="24" x="0"/><path d="M6,6c1.1,0,2-0.9,2-2S7.1,2,6,2S4,2.9,4,4S4.9,6,6,6z M10,9.43c0-0.81-0.48-1.53-1.22-1.85C7.93,7.21,6.99,7,6,7 C5.01,7,4.07,7.21,3.22,7.58C2.48,7.9,2,8.62,2,9.43V10h8V9.43z M18,6c1.1,0,2-0.9,2-2s-0.9-2-2-2s-2,0.9-2,2S16.9,6,18,6z M22,9.43 c0-0.81-0.48-1.53-1.22-1.85C19.93,7.21,18.99,7,18,7c-0.99,0-1.93,0.21-2.78,0.58C14.48,7.9,14,8.62,14,9.43V10h8V9.43z M21.65,14.35l-1.79,1.79C19.54,16.46,19,16.24,19,15.79v-0.8L5,15v0.79c0,0.45-0.54,0.67-0.85,0.35l-1.79-1.79 c-0.2-0.2-0.2-0.51,0-0.71l1.79-1.79C4.46,11.54,5,11.76,5,12.21v0.8L19,13v-0.79c0-0.45,0.54-0.67,0.85-0.35l1.79,1.79 C21.84,13.84,21.84,14.16,21.65,14.35z M10,18.5L10,18.5c0-0.28-0.22-0.5-0.5-0.5h-2C7.22,18,7,18.22,7,18.5v3 C7,21.78,7.22,22,7.5,22h2c0.28,0,0.5-0.22,0.5-0.5V20c0-0.28-0.22-0.5-0.5-0.5H8V19h1.5C9.78,19,10,18.78,10,18.5z M9,20.5V21H8 v-0.5H9z M17,19h-0.5v2.5c0,0.28-0.22,0.5-0.5,0.5h0c-0.28,0-0.5-0.22-0.5-0.5V19H15c-0.28,0-0.5-0.22-0.5-0.5v0 c0-0.28,0.22-0.5,0.5-0.5h2c0.28,0,0.5,0.22,0.5,0.5v0C17.5,18.78,17.28,19,17,19z M14,18.5c0,0.28-0.22,0.5-0.5,0.5h-1v0.5H13 c0.28,0,0.5,0.22,0.5,0.5c0,0.28-0.22,0.5-0.5,0.5h-0.5v1c0,0.28-0.22,0.5-0.5,0.5c-0.28,0-0.5-0.22-0.5-0.5v-3 c0-0.28,0.22-0.5,0.5-0.5h1.5C13.78,18,14,18.22,14,18.5z"/></symbol>
<symbol id="architecture" viewBox="0 0 24 24"><g><rect fill="none" height="24" width="24"/><rect fill="none" height="24" width="24"/></g><g><g><path d="M6.36,18.78L6.61,21l1.62-1.54l2.77-7.6c-0.68-0.17-1.28-0.51-1.77-0.98L6.36,18.78z"/><path d="M14.77,10.88c-0.49,0.47-1.1,0.81-1.77,0.98l2.77,7.6L17.39,21l0.26-2.22L14.77,10.88z"/><path d="M14.94,8.6c0.3-1.56-0.6-2.94-1.94-3.42V4c0-0.55-0.45-1-1-1h0c-0.55,0-1,0.45-1,1v1.18C9.84,5.6,9,6.7,9,8 c0,1.84,1.66,3.3,3.56,2.95C13.74,10.73,14.71,9.78,14.94,8.6z M12,9c-0.55,0-1-0.45-1-1c0-0.55,0.45-1,1-1s1,0.45,1,1 C13,8.55,12.55,9,12,9z"/></g></g></symbol>
<symbol id="cake" viewBox="0 0 24 24"><path d="M0 0h24v24H0V0z" fill="none"/><path d="M12.68 5.88c.7-.24 1.22-.9 1.3-1.64.05-.47-.05-.91-.28-1.27L12.42.75c-.19-.33-.67-.33-.87 0l-1.28 2.22c-.17.3-.27.65-.27 1.03 0 1.32 1.3 2.35 2.68 1.88zm3.85 10.04l-1-1-1.08 1.07c-1.3 1.3-3.58 1.31-4.89 0l-1.07-1.07-1.09 1.07C6.75 16.64 5.88 17 4.96 17c-.73 0-1.4-.23-1.96-.61V20c0 1.1.9 2 2 2h14c1.1 0 2-.9 2-2v-3.61c-.75.51-1.71.75-2.74.52-.66-.14-1.25-.51-1.73-.99zM18 9h-5V8c0-.55-.45-1-1-1s-1 .45-1 1v1H6c-1.66 0-3 1.34-3 3v1.46c0 .85.5 1.67 1.31 1.94.73.24 1.52.06 2.03-.46l2.14-2.13 2.13 2.13c.76.76 2.01.76 2.77 0l2.14-2.13 2.13 2.13c.43.43 1.03.63 1.65.55.99-.13 1.69-1.06 1.69-2.06v-1.42C21 10.34 19.66 9 18 9z"/></symbol>
<symbol id="clean_hands" viewBox="0 0 24 24"><rect fill="none" height="24" width="24"/><g><path d="M14.99,7l1.37-0.63L16.99,5l0.63,1.37L18.99,7l-1.37,0.63L16.99,9l-0.63-1.37L14.99,7z M20,14c1.1,0,2-0.9,2-2 c0-0.78-0.99-2.44-1.58-3.36c-0.2-0.31-0.64-0.31-0.84,0C18.99,9.56,18,11.22,18,12C18,13.1,18.9,14,20,14z M9.24,9.5L15,11.65V11 c0-2.42-1.72-4.44-4-4.9V4h2c0.35,0,0.68,0.06,1,0.18c0.37,0.13,0.78,0.05,1.05-0.22l0,0c0.51-0.51,0.34-1.39-0.33-1.64 C14.19,2.11,13.61,2,13,2H8.5c-0.55,0-1,0.45-1,1v0c0,0.55,0.45,1,1,1H9v2.11C7.22,6.48,5.8,7.79,5.25,9.5H9.24z M3,11L3,11 c-1.1,0-2,0.9-2,2v7c0,1.1,0.9,2,2,2h0c1.1,0,2-0.9,2-2v-7C5,11.9,4.1,11,3,11z M19.99,17h-6.83c-0.11,0-0.22-0.02-0.33-0.06 l-1.47-0.51c-0.26-0.09-0.39-0.37-0.3-0.63l0,0c0.09-0.26,0.38-0.4,0.64-0.3l1.12,0.43c0.11,0.04,0.24,0.07,0.36,0.07h2.63 c0.65,0,1.18-0.53,1.18-1.18v0c0-0.49-0.31-0.93-0.77-1.11L9.3,11.13C9.08,11.04,8.84,11,8.6,11H7v9.02l6.37,1.81 c0.41,0.12,0.85,0.1,1.25-0.05L22,19l0,0C22,17.89,21.1,17,19.99,17z"/></g></symbol>
<symbol id="connect_without_contact" viewBox="0 0 24 24"><rect fill="none" height="24" width="24"/><path d="M7,4c0-1.11-0.89-2-2-2S3,2.89,3,4s0.89,2,2,2S7,5.11,7,4z M10.19,4.5L10.19,4.5c-0.41,0-0.76,0.25-0.92,0.63 C8.83,6.23,7.76,7,6.5,7h-3C2.67,7,2,7.67,2,8.5V11h6V8.74c1.43-0.45,2.58-1.53,3.12-2.91C11.38,5.19,10.88,4.5,10.19,4.5z M19,17 c1.11,0,2-0.89,2-2s-0.89-2-2-2s-2,0.89-2,2S17.89,17,19,17z M20.5,18h-3c-1.26,0-2.33-0.77-2.77-1.87 c-0.15-0.38-0.51-0.63-0.92-0.63h0c-0.69,0-1.19,0.69-0.94,1.33c0.55,1.38,1.69,2.46,3.12,2.91V22h6v-2.5C22,18.67,21.33,18,20.5,18 z M17.25,11.09c0,0,0-0.01,0.01,0c-1.06,0.27-1.9,1.11-2.17,2.17c0,0,0-0.01,0-0.01C14.98,13.68,14.58,14,14.11,14 c-0.55,0-1-0.45-1-1c0-0.05,0.02-0.14,0.02-0.14c0.43-1.85,1.89-3.31,3.75-3.73c0.04,0,0.08-0.01,0.12-0.01c0.55,0,1,0.45,1,1 C18,10.58,17.68,10.98,17.25,11.09z M18,6.06c0,0.51-0.37,0.92-0.86,0.99c0,0,0,0,0,0c-3.19,0.39-5.7,2.91-6.09,6.1c0,0,0,0,0,0 C10.98,13.63,10.56,14,10.06,14c-0.55,0-1-0.45-1-1c0-0.02,0-0.04,0-0.06c0-0.01,0-0.02,0-0.03c0.5-4.12,3.79-7.38,7.92-7.85 c0,0,0.01,0,0.01,0C17.55,5.06,18,5.51,18,6.06z"/></symbol>
<symbol id="construction" viewBox="0 0 24 24"><g><rect fill="none" height="24" width="24"/><rect fill="none" height="24" width="24"/></g><g><g><path d="M20.99,17.99l-4.94-4.94l-2.12,2.12l4.94,4.94c0.59,0.59,1.54,0.59,2.12,0C21.57,19.52,21.57,18.57,20.99,17.99z"/><path d="M17.65,10c1.93,0,3.5-1.57,3.5-3.5c0-0.58-0.16-1.12-0.41-1.6l-2.7,2.7l-1.49-1.49l2.7-2.7C18.77,3.16,18.23,3,17.65,3 c-1.93,0-3.5,1.57-3.5,3.5c0,0.41,0.08,0.8,0.21,1.16l-1.85,1.85l-1.78-1.78l0,0c0.39-0.39,0.39-1.02,0-1.41l-0.71-0.71l2.12-2.12 c-1.17-1.17-3.07-1.17-4.24,0L5.08,6.32c-0.39,0.39-0.39,1.02,0,1.41l0.71,0.71H3.25c-0.19,0-0.37,0.07-0.5,0.21 c-0.28,0.28-0.28,0.72,0,1l2.54,2.54c0.28,0.28,0.72,0.28,1,0c0.13-0.13,0.21-0.31,0.21-0.5V9.15L7.2,9.85 c0.39,0.39,1.02,0.39,1.41,0l1.78,1.78l-6.35,6.35c-0.59,0.59-0.59,1.54,0,2.12v0c0.59,0.59,1.54,0.59,2.12,0L16.48,9.79 C16.85,9.92,17.24,10,17.65,10z"/></g></g></symbol>
<symbol id="coronavirus" viewBox="0 0 24 24"><rect fill="none" height="24" width="24"/><path d="M21.25,10.5c-0.41,0-0.75,0.34-0.75,0.75h-1.54c-0.15-1.37-0.69-2.63-1.52-3.65l1.09-1.09l0.01,0.01 c0.29,0.29,0.77,0.29,1.06,0s0.29-0.77,0-1.06L18.54,4.4c-0.29-0.29-0.77-0.29-1.06,0c-0.29,0.29-0.29,0.76-0.01,1.05l-1.09,1.09 c-1.02-0.82-2.27-1.36-3.64-1.51V3.5h0.01c0.41,0,0.75-0.34,0.75-0.75C13.5,2.34,13.16,2,12.75,2h-1.5c-0.41,0-0.75,0.34-0.75,0.75 c0,0.41,0.33,0.74,0.74,0.75v1.55C9.87,5.19,8.62,5.74,7.6,6.56L6.51,5.47l0.01-0.01c0.29-0.29,0.29-0.77,0-1.06 c-0.29-0.29-0.77-0.29-1.06,0L4.4,5.46c-0.29,0.29-0.29,0.77,0,1.06c0.29,0.29,0.76,0.29,1.05,0.01l1.09,1.09 c-0.82,1.02-1.36,2.26-1.5,3.63H3.5c0-0.41-0.34-0.75-0.75-0.75C2.34,10.5,2,10.84,2,11.25v1.5c0,0.41,0.34,0.75,0.75,0.75 c0.41,0,0.75-0.34,0.75-0.75h1.54c0.15,1.37,0.69,2.61,1.5,3.63l-1.09,1.09c-0.29-0.29-0.76-0.28-1.05,0.01 c-0.29,0.29-0.29,0.77,0,1.06l1.06,1.06c0.29,0.29,0.77,0.29,1.06,0c0.29-0.29,0.29-0.77,0-1.06l-0.01-0.01l1.09-1.09 c1.02,0.82,2.26,1.36,3.63,1.51v1.55c-0.41,0.01-0.74,0.34-0.74,0.75c0,0.41,0.34,0.75,0.75,0.75h1.5c0.41,0,0.75-0.34,0.75-0.75 c0-0.41-0.34-0.75-0.75-0.75h-0.01v-1.54c1.37-0.14,2.62-0.69,3.64-1.51l1.09,1.09c-0.29,0.29-0.28,0.76,0.01,1.05 c0.29,0.29,0.77,0.29,1.06,0l1.06-1.06c0.29-0.29,0.29-0.77,0-1.06c-0.29-0.29-0.77-0.29-1.06,0l-0.01,0.01l-1.09-1.09 c0.82-1.02,1.37-2.27,1.52-3.65h1.54c0,0.41,0.34,0.75,0.75,0.75c0.41,0,0.75-0.34,0.75-0.75v-1.5C22,10.84,21.66,10.5,21.25,10.5z M13.75,8c0.55,0,1,0.45,1,1s-0.45,1-1,1s-1-0.45-1-1S13.2,8,13.75,8z M12,13c-0.55,0-1-0.45-1-1c0-0.55,0.45-1,1-1s1,0.45,1,1 C13,12.55,12.55,13,12,13z M10.25,8c0.55,0,1,0.45,1,1s-0.45,1-1,1s-1-0.45-1-1S9.7,8,10.25,8z M8.5,13c-0.55,0-1-0.45-1-1 c0-0.55,0.45-1,1-1s1,0.45,1,1C9.5,12.55,9.05,13,8.5,13z M10.25,16c-0.55,0-1-0.45-1-1c0-0.55,0.45-1,1-1s1,0.45,1,1 C11.25,15.55,10.8,16,10.25,16z M13.75,16c-0.55,0-1-0.45-1-1c0-0.55,0.45-1,1-1s1,0.45,1,1C14.75,15.55,14.3,16,13.75,16z M14.5,12 c0-0.55,0.45-1,1-1s1,0.45,1,1c0,0.55-0.45,1-1,1S14.5,12.55,14.5,12z"/></symbol>
<symbol id="deck" viewBox="0 0 24 24"><g><rect fill="none" height="24" width="24"/><rect fill="none" height="24" width="24"/></g><g><g><path d="M20.41,9c0.49,0,0.69-0.63,0.29-0.91L13.15,2.8c-0.69-0.48-1.61-0.48-2.29,0L3.3,8.09C2.9,8.37,3.1,9,3.59,9H11v12 c0,0.55,0.45,1,1,1s1-0.45,1-1V9H20.41z"/><path d="M8,16H4.9l-0.57-3.02c-0.1-0.54-0.62-0.9-1.17-0.8c-0.54,0.1-0.9,0.62-0.8,1.17L3,16.74V21c0,0.55,0.45,1,1,1h0.01 c0.55,0,1-0.44,1-0.99L5.02,18H7v3c0,0.55,0.45,1,1,1s1-0.45,1-1v-4C9,16.45,8.55,16,8,16z"/><path d="M20.84,12.18c-0.54-0.1-1.06,0.26-1.17,0.8L19.1,16H16c-0.55,0-1,0.45-1,1v4c0,0.55,0.45,1,1,1s1-0.45,1-1v-3h1.98 l0.02,3.01c0,0.55,0.45,0.99,1,0.99H20c0.55,0,1-0.45,1-1v-4.26l0.64-3.39C21.74,12.81,21.38,12.28,20.84,12.18z"/></g></g></symbol>
<symbol id="domain" viewBox="0 0 24 24"><path d="M0 0h24v24H0V0z" fill="none"/><path d="M12 7V5c0-1.1-.9-2-2-2H4c-1.1 0-2 .9-2 2v14c0 1.1.9 2 2 2h16c1.1 0 2-.9 2-2V9c0-1.1-.9-2-2-2h-8zM6 19H4v-2h2v2zm0-4H4v-2h2v2zm0-4H4V9h2v2zm0-4H4V5h2v2zm4 12H8v-2h2v2zm0-4H8v-2h2v2zm0-4H8V9h2v2zm0-4H8V5h2v2zm9 12h-7v-2h2v-2h-2v-2h2v-2h-2V9h7c.55 0 1 .45 1 1v8c0 .55-.45 1-1 1zm-1-8h-2v2h2v-2zm0 4h-2v2h2v-2z"/></symbol>
<symbol id="elderly" viewBox="0 0 24 24"><rect fill="none" height="24" width="24"/><path d="M11.5,3.5c0-1.1,0.9-2,2-2s2,0.9,2,2c0,1.1-0.9,2-2,2S11.5,4.6,11.5,3.5z M18.53,11c-1.57,0.01-2.94-0.9-3.6-2.21 l-0.79-1.67l0,0c-0.17-0.35-0.44-0.65-0.8-0.85c-0.62-0.36-1.35-0.34-1.94-0.03l0-0.01L7.01,8.73C6.39,9.08,6,9.74,6,10.46V13 c0,0.55,0.45,1,1,1h0c0.55,0,1-0.45,1-1v-2.54l1.5-0.85C9.18,10.71,9,11.85,9,13v5.33L7,21c-0.33,0.44-0.24,1.07,0.2,1.4 c0.44,0.33,1.07,0.24,1.4-0.2l2.04-2.72c0.23-0.31,0.37-0.69,0.4-1.08l0.18-2.94L13,18v4c0,0.55,0.45,1,1,1h0c0.55,0,1-0.45,1-1 v-4.87c0-0.41-0.13-0.81-0.36-1.15l-1.6-2.29c0,0,0,0,0-0.01c-0.11-1.16,0.07-2.32,0.46-3.4c0.81,1.23,2.05,2.14,3.51,2.52v0.03V13 c0,0.28,0.22,0.5,0.5,0.5S18,13.28,18,13v-0.16V12.5c0-0.28,0.22-0.5,0.5-0.5s0.5,0.22,0.5,0.5v10c0,0.28,0.22,0.5,0.5,0.5 s0.5-0.22,0.5-0.5v-10C20,11.68,19.34,10.99,18.53,11z"/></symbol>
<symbol id="emoji_emotions" viewBox="0 0 24 24"><g><rect fill="none" height="24" width="24"/><rect fill="none" height="24" width="24"/></g><g><g/><path d="M11.99,2C6.47,2,2,6.48,2,12c0,5.52,4.47,10,9.99,10C17.52,22,22,17.52,22,12C22,6.48,17.52,2,11.99,2z M8.5,8 C9.33,8,10,8.67,10,9.5S9.33,11,8.5,11S7,10.33,7,9.5S7.67,8,8.5,8z M16.71,14.72C15.8,16.67,14.04,18,12,18s-3.8-1.33-4.71-3.28 C7.13,14.39,7.37,14,7.74,14h8.52C16.63,14,16.87,14.39,16.71,14.72z M15.5,11c-0.83,0-1.5-0.67-1.5-1.5S14.67,8,15.5,8 S17,8.67,17,9.5S16.33,11,15.5,11z"/></g></symbol>
<symbol id="emoji_events" viewBox="0 0 24 24"><rect fill="none" height="24" width="24"/><path d="M19,5h-2V4c0-0.55-0.45-1-1-1H8C7.45,3,7,3.45,7,4v1H5C3.9,5,3,5.9,3,7v1c0,2.55,1.92,4.63,4.39,4.94 c0.63,1.5,1.98,2.63,3.61,2.96V19H8c-0.55,0-1,0.45-1,1v0c0,0.55,0.45,1,1,1h8c0.55,0,1-0.45,1-1v0c0-0.55-0.45-1-1-1h-3v-3.1 c1.63-0.33,2.98-1.46,3.61-2.96C19.08,12.63,21,10.55,21,8V7C21,5.9,20.1,5,19,5z M5,8V7h2v3.82C5.84,10.4,5,9.3,5,8z M19,8 c0,1.3-0.84,2.4-2,2.82V7h2V8z"/></symbol>
<symbol id="emoji_flags" viewBox="0 0 24 24"><g><rect fill="none" height="24" width="24"/><rect fill="none" height="24" width="24"/></g><g><g/><path d="M19,9h-5l-0.72-1.45C13.11,7.21,12.76,7,12.38,7H7V5.72C7.6,5.38,8,4.74,8,4c0-1.1-0.9-2-2-2S4,2.9,4,4 c0,0.74,0.4,1.38,1,1.72V20c0,0.55,0.45,1,1,1s1-0.45,1-1v-3h5l0.72,1.45c0.17,0.34,0.52,0.55,0.89,0.55H19c0.55,0,1-0.45,1-1v-8 C20,9.45,19.55,9,19,9z M18,17h-4l-1-2H7V9h5l1,2h5V17z"/></g></symbol>
<symbol id="emoji_food_beverage" viewBox="0 0 24 24"><g><rect fill="none" height="24" width="24"/><rect fill="none" height="24" width="24"/></g><g><g/><g><path d="M19,19H3c-0.55,0-1,0.45-1,1s0.45,1,1,1h16c0.55,0,1-0.45,1-1S19.55,19,19,19z"/><path d="M20,3H9v2.4l1.81,1.45C10.93,6.94,11,7.09,11,7.24v4.26c0,0.28-0.22,0.5-0.5,0.5h-4C6.22,12,6,11.78,6,11.5V7.24 c0-0.15,0.07-0.3,0.19-0.39L8,5.4V3H6C4.9,3,4,3.9,4,5v8c0,2.21,1.79,4,4,4h6c2.21,0,4-1.79,4-4v-3h2c1.1,0,2-0.9,2-2V5 C22,3.9,21.1,3,20,3z M20,8h-2V5h2V8z"/></g></g></symbol>
<symbol id="emoji_nature" viewBox="0 0 24 24"><g><rect fill="none" height="24" width="24"/><rect fill="none" height="24" width="24"/></g><g><g/><g><path d="M21.94,4.88C21.76,4.35,21.25,4,20.68,4c-0.03,0-0.06,0-0.09,0H19.6l-0.31-0.97C19.15,2.43,18.61,2,18,2h0 c-0.61,0-1.15,0.43-1.29,1.04L16.4,4h-0.98c-0.03,0-0.06,0-0.09,0c-0.57,0-1.08,0.35-1.26,0.88c-0.19,0.56,0.04,1.17,0.56,1.48 l0.87,0.52L15.1,8.12c-0.23,0.58-0.04,1.25,0.45,1.62C15.78,9.91,16.06,10,16.33,10c0.31,0,0.61-0.11,0.86-0.32L18,8.98l0.81,0.7 C19.06,9.89,19.36,10,19.67,10c0.27,0,0.55-0.09,0.78-0.26c0.5-0.37,0.68-1.04,0.45-1.62l-0.39-1.24l0.87-0.52 C21.89,6.05,22.12,5.44,21.94,4.88z M18,7c-0.55,0-1-0.45-1-1c0-0.55,0.45-1,1-1s1,0.45,1,1C19,6.55,18.55,7,18,7z"/><path d="M15.5,12h-1.09c-0.19-0.54-0.49-1.05-0.93-1.49S12.54,9.78,12,9.59V8.5C12,8.22,11.78,8,11.5,8S11,8.22,11,8.5v0.88 c-0.11-0.01-0.23-0.03-0.34-0.03c-1.02,0-2.05,0.39-2.83,1.17c-0.16,0.16-0.3,0.34-0.43,0.53L6,10.52 c-1.56-0.55-3.28,0.27-3.83,1.82c0,0,0,0,0,0c-0.27,0.75-0.23,1.57,0.12,2.29c0.23,0.48,0.58,0.87,1,1.16 c-0.38,1.35-0.06,2.85,1,3.91c1.06,1.06,2.57,1.38,3.91,1c0.29,0.42,0.68,0.77,1.16,1C9.78,21.9,10.21,22,10.65,22 c0.34,0,0.68-0.06,1.01-0.17c0,0,0,0,0,0c1.56-0.55,2.38-2.27,1.82-3.85l-0.52-1.37c0.18-0.13,0.36-0.27,0.53-0.43 c0.87-0.87,1.24-2.04,1.14-3.17h0.88c0.28,0,0.5-0.22,0.5-0.5C16,12.22,15.78,12,15.5,12z M4.67,14.29 c-0.25-0.09-0.45-0.27-0.57-0.51s-0.13-0.51-0.04-0.76c0.19-0.52,0.76-0.79,1.26-0.61l3.16,1.19C7.33,14.2,5.85,14.71,4.67,14.29z M10.99,19.94c-0.25,0.09-0.52,0.08-0.76-0.04c-0.24-0.11-0.42-0.32-0.51-0.57c-0.42-1.18,0.09-2.65,0.7-3.8l1.18,3.13 C11.78,19.18,11.51,19.76,10.99,19.94z M12.2,14.6l-0.61-1.61c0-0.01-0.01-0.02-0.02-0.03c-0.02-0.04-0.04-0.08-0.06-0.12 c-0.02-0.04-0.04-0.07-0.07-0.11c-0.03-0.03-0.06-0.06-0.09-0.09c-0.03-0.03-0.06-0.06-0.09-0.09c-0.03-0.03-0.07-0.05-0.11-0.07 c-0.04-0.02-0.07-0.05-0.12-0.06c-0.01,0-0.02-0.01-0.03-0.02L9.4,11.8c0.36-0.29,0.79-0.46,1.26-0.46c0.53,0,1.04,0.21,1.41,0.59 C12.8,12.66,12.84,13.81,12.2,14.6z"/></g></g></symbol>
<symbol id="emoji_objects" viewBox="0 0 24 24"><g><rect fill="none" height="24" width="24"/><rect fill="none" height="24" width="24"/></g><g><g/><g><path d="M12,3c-0.46,0-0.93,0.04-1.4,0.14C7.84,3.67,5.64,5.9,5.12,8.66c-0.48,2.61,0.48,5.01,2.22,6.56 C7.77,15.6,8,16.13,8,16.69V19c0,1.1,0.9,2,2,2h0.28c0.35,0.6,0.98,1,1.72,1s1.38-0.4,1.72-1H14c1.1,0,2-0.9,2-2v-2.31 c0-0.55,0.22-1.09,0.64-1.46C18.09,13.95,19,12.08,19,10C19,6.13,15.87,3,12,3z M12.5,14h-1v-2.59L9.67,9.59l0.71-0.71L12,10.5 l1.62-1.62l0.71,0.71l-1.83,1.83V14z M13.5,19c-0.01,0-0.02-0.01-0.03-0.01V19h-2.94v-0.01c-0.01,0-0.02,0.01-0.03,0.01 c-0.28,0-0.5-0.22-0.5-0.5c0-0.28,0.22-0.5,0.5-0.5c0.01,0,0.02,0.01,0.03,0.01V18h2.94v0.01c0.01,0,0.02-0.01,0.03-0.01 c0.28,0,0.5,0.22,0.5,0.5C14,18.78,13.78,19,13.5,19z M13.5,17h-3c-0.28,0-0.5-0.22-0.5-0.5c0-0.28,0.22-0.5,0.5-0.5h3 c0.28,0,0.5,0.22,0.5,0.5C14,16.78,13.78,17,13.5,17z"/></g></g></symbol>
<symbol id="emoji_people" viewBox="0 0 24 24"><g><rect fill="none" height="24" width="24"/><rect fill="none" height="24" width="24"/></g><g><g/><g><circle cx="12" cy="4" r="2"/><path d="M15.89,8.11C15.5,7.72,14.83,7,13.53,7c-0.21,0-1.42,0-2.54,0C8.53,6.99,6.48,5.2,6.07,2.85C5.99,2.36,5.58,2,5.09,2h0 c-0.61,0-1.09,0.54-1,1.14C4.53,5.8,6.47,7.95,9,8.71V21c0,0.55,0.45,1,1,1h0c0.55,0,1-0.45,1-1v-5h2v5c0,0.55,0.45,1,1,1h0 c0.55,0,1-0.45,1-1V10.05l3.24,3.24c0.39,0.39,1.02,0.39,1.41,0v0c0.39-0.39,0.39-1.02,0-1.41L15.89,8.11z"/></g></g></symbol>
<symbol id="emoji_symbols" viewBox="0 0 24 24"><g><rect fill="none" height="24" width="24"/><rect fill="none" height="24" width="24"/></g><g><g/><g><path d="M10,5H4C3.45,5,3,5.45,3,6c0,0.55,0.45,1,1,1h2v3c0,0.55,0.45,1,1,1s1-0.45,1-1V7h2c0.55,0,1-0.45,1-1 C11,5.45,10.55,5,10,5z"/><path d="M10,2H4C3.45,2,3,2.45,3,3s0.45,1,1,1h6c0.55,0,1-0.45,1-1S10.55,2,10,2z"/><path d="M20.89,13.11c-0.39-0.39-1.02-0.39-1.41,0l-6.36,6.36c-0.39,0.39-0.39,1.02,0,1.41c0.39,0.39,1.02,0.39,1.41,0l6.36-6.36 C21.28,14.13,21.28,13.5,20.89,13.11z"/><circle cx="14.5" cy="14.5" r="1.5"/><circle cx="19.5" cy="19.5" r="1.5"/><path d="M15.5,11c1.38,0,2.5-1.12,2.5-2.5V4h2c0.55,0,1-0.45,1-1c0-0.55-0.45-1-1-1h-2c-0.55,0-1,0.45-1,1v3.51 C16.58,6.19,16.07,6,15.5,6C14.12,6,13,7.12,13,8.5C13,9.88,14.12,11,15.5,11z"/><path d="M10.45,18.09c0.39-0.39,0.39-1.02,0-1.41c-0.39-0.39-1.02-0.39-1.41,0l-0.71,0.71l-0.71-0.71l0.35-0.35 c0.98-0.98,0.98-2.56,0-3.54h0c-0.49-0.49-1.13-0.73-1.77-0.73c-0.64,0-1.28,0.24-1.77,0.73c-0.98,0.98-0.98,2.56,0,3.54 l0.35,0.35l-1.06,1.06c-0.98,0.98-0.98,2.56,0,3.54C4.22,21.76,4.86,22,5.5,22c0.64,0,1.28-0.24,1.77-0.73l1.06-1.06l0.71,0.71 c0.39,0.39,1.02,0.39,1.41,0c0.39-0.39,0.39-1.02,0-1.41l-0.71-0.71v0L10.45,18.09z M5.85,14.2c0.12-0.12,0.26-0.15,0.35-0.15 s0.23,0.03,0.35,0.15c0.19,0.2,0.19,0.51,0,0.71l-0.35,0.35L5.85,14.9c-0.12-0.12-0.15-0.26-0.15-0.35S5.73,14.32,5.85,14.2z M5.85,19.85C5.73,19.97,5.59,20,5.5,20s-0.23-0.03-0.35-0.15C5.03,19.73,5,19.59,5,19.5s0.03-0.23,0.15-0.35l1.06-1.06l0.71,0.71 L5.85,19.85z"/></g></g></symbol>
<symbol id="emoji_transportation" viewBox="0 0 24 24"><g><rect fill="none" height="24" width="24"/><rect fill="none" height="24" width="24"/></g><g><g/><g><path d="M21.99,14.77l-1.43-4.11c-0.14-0.4-0.52-0.66-0.97-0.66H12.4c-0.46,0-0.83,0.26-0.98,0.66L10,14.77v5.24 c0,0.55,0.45,0.99,1,0.99s1-0.45,1-1v-1h8v1c0,0.55,0.45,1,1,1s0.99-0.44,1-0.99L21.99,14.77z M11.61,13.34l0.69-2 c0.05-0.2,0.24-0.34,0.46-0.34h6.48c0.21,0,0.4,0.14,0.47,0.34l0.69,2c0.11,0.32-0.13,0.66-0.47,0.66h-7.85 C11.74,14,11.5,13.66,11.61,13.34z M11.99,17c-0.55,0-1-0.45-1-1s0.45-1,1-1s1,0.45,1,1S12.54,17,11.99,17z M19.99,17 c-0.55,0-1-0.45-1-1s0.45-1,1-1s1,0.45,1,1S20.54,17,19.99,17z"/><path d="M14,4.5V9h1V4c0-0.55-0.45-1-1-1H8C7.45,3,7,3.45,7,4v4H3C2.45,8,2,8.45,2,9v12h1V9.5C3,9.22,3.22,9,3.5,9h4 C7.78,9,8,8.78,8,8.5v-4C8,4.22,8.22,4,8.5,4h5C13.78,4,14,4.22,14,4.5z"/><rect height="2" width="2" x="5" y="11"/><rect height="2" width="2" x="10" y="5"/><rect height="2" width="2" x="5" y="15"/><rect height="2" width="2" x="5" y="19"/></g></g></symbol>
<symbol id="engineering" viewBox="0 0 24 24"><g><rect fill="none" height="24" width="24"/><rect fill="none" height="24" width="24"/></g><g><g><path d="M9,15c-2.67,0-8,1.34-8,4v1c0,0.55,0.45,1,1,1h14c0.55,0,1-0.45,1-1v-1C17,16.34,11.67,15,9,15z"/><path d="M4.74,9h8.53c0.27,0,0.49-0.22,0.49-0.49V8.49c0-0.27-0.22-0.49-0.49-0.49H13c0-1.48-0.81-2.75-2-3.45V5.5 C11,5.78,10.78,6,10.5,6S10,5.78,10,5.5V4.14C9.68,4.06,9.35,4,9,4S8.32,4.06,8,4.14V5.5C8,5.78,7.78,6,7.5,6S7,5.78,7,5.5V4.55 C5.81,5.25,5,6.52,5,8H4.74C4.47,8,4.25,8.22,4.25,8.49v0.03C4.25,8.78,4.47,9,4.74,9z"/><path d="M9,13c1.86,0,3.41-1.28,3.86-3H5.14C5.59,11.72,7.14,13,9,13z"/><path d="M21.98,6.23l0.93-0.83l-0.75-1.3l-1.19,0.39c-0.14-0.11-0.3-0.2-0.47-0.27L20.25,3h-1.5L18.5,4.22 c-0.17,0.07-0.33,0.16-0.48,0.27L16.84,4.1l-0.75,1.3l0.93,0.83C17,6.4,17,6.58,17.02,6.75L16.09,7.6l0.75,1.3l1.2-0.38 c0.13,0.1,0.28,0.18,0.43,0.25L18.75,10h1.5l0.27-1.22c0.16-0.07,0.3-0.15,0.44-0.25l1.19,0.38l0.75-1.3l-0.93-0.85 C22,6.57,21.99,6.4,21.98,6.23z M19.5,7.75c-0.69,0-1.25-0.56-1.25-1.25s0.56-1.25,1.25-1.25s1.25,0.56,1.25,1.25 S20.19,7.75,19.5,7.75z"/><path d="M19.4,10.79l-0.85,0.28c-0.1-0.08-0.21-0.14-0.33-0.19L18.04,10h-1.07l-0.18,0.87c-0.12,0.05-0.24,0.12-0.34,0.19 l-0.84-0.28l-0.54,0.93l0.66,0.59c-0.01,0.13-0.01,0.25,0,0.37l-0.66,0.61l0.54,0.93l0.86-0.27c0.1,0.07,0.2,0.13,0.31,0.18 L16.96,15h1.07l0.19-0.87c0.11-0.05,0.22-0.11,0.32-0.18l0.85,0.27l0.54-0.93l-0.66-0.61c0.01-0.13,0.01-0.25,0-0.37l0.66-0.59 L19.4,10.79z M17.5,13.39c-0.49,0-0.89-0.4-0.89-0.89c0-0.49,0.4-0.89,0.89-0.89s0.89,0.4,0.89,0.89 C18.39,12.99,17.99,13.39,17.5,13.39z"/></g></g></symbol>
<symbol id="facebook" viewBox="0 0 24 24"><rect fill="none" height="24" width="24"/><path d="M22,12c0-5.52-4.48-10-10-10S2,6.48,2,12c0,4.84,3.44,8.87,8,9.8V15H8v-3h2V9.5C10,7.57,11.57,6,13.5,6H16v3h-2 c-0.55,0-1,0.45-1,1v2h3v3h-3v6.95C18.05,21.45,22,17.19,22,12z"/></symbol>
<symbol id="fireplace" viewBox="0 0 24 24"><g><rect fill="none" height="24" width="24"/><rect fill="none" height="24" width="24"/></g><g><path d="M20,2H4C2.9,2,2,2.9,2,4v16c0,1.1,0.9,2,2,2h16c1.1,0,2-0.9,2-2V4C22,2.9,21.1,2,20,2z M20,19c0,0.55-0.45,1-1,1h-1v-1 c0-0.55-0.45-1-1-1h-1.15c0.71-0.85,1.15-1.89,1.15-3c0-1.89-1.09-2.84-1.85-3.36c-1.86-1.27-2.23-2.78-2.25-3.72 c-0.01-0.4-0.43-0.63-0.77-0.43c-5.8,3.43-5.15,7-5.13,7.51c0.03,0.96,0.49,2.07,1.24,3H7c-0.55,0-1,0.45-1,1v1H5 c-0.55,0-1-0.45-1-1V5c0-0.55,0.45-1,1-1h14c0.55,0,1,0.45,1,1V19z M13.2,13.74c-0.08-0.46-0.07-0.85,0.08-1.28 c0.54,1.21,2.15,1.64,1.98,3.18c-0.19,1.69-2.11,2.37-3.39,1.32c0.76-0.24,1.4-1.04,1.53-1.63C13.52,14.78,13.29,14.29,13.2,13.74z"/></g></symbol>
<symbol id="follow_the_signs" viewBox="0 0 24 24"><rect fill="none" height="24" width="24"/><path d="M9.5,5.5c1.1,0,2-0.9,2-2s-0.9-2-2-2s-2,0.9-2,2S8.4,5.5,9.5,5.5z M5.75,8.9L3.23,21.81C3.11,22.43,3.58,23,4.21,23H4.3 c0.47,0,0.88-0.33,0.98-0.79L6.85,15L9,17v5c0,0.55,0.45,1,1,1h0c0.55,0,1-0.45,1-1v-6.14c0-0.27-0.11-0.52-0.29-0.71L8.95,13.4 l0.6-3c1.07,1.32,2.58,2.23,4.31,2.51c0.6,0.1,1.14-0.39,1.14-1v0c0-0.49-0.36-0.9-0.84-0.98c-1.49-0.25-2.75-1.15-3.51-2.38 L9.7,6.95C9.35,6.35,8.7,6,8,6C7.75,6,7.5,6.05,7.25,6.15l-4.63,1.9C2.25,8.2,2,8.57,2,8.97V12c0,0.55,0.45,1,1,1h0 c0.55,0,1-0.45,1-1V9.65L5.75,8.9 M21,2h-7c-0.55,0-1,0.45-1,1v5c0,0.55,0.45,1,1,1h2.75v13.25c0,0.41,0.34,0.75,0.75,0.75 s0.75-0.34,0.75-0.75V9H21c0.55,0,1-0.45,1-1V3C22,2.45,21.55,2,21,2z M20.15,5.85l-1.28,1.29c-0.31,0.32-0.85,0.09-0.85-0.35V6.25 h-2.76c-0.41,0-0.75-0.34-0.75-0.75s0.34-0.75,0.75-0.75h2.76V4.21c0-0.45,0.54-0.67,0.85-0.35l1.28,1.29 C20.34,5.34,20.34,5.66,20.15,5.85z"/></symbol>
<symbol id="group" viewBox="0 0 24 24"><path d="M0 0h24v24H0V0z" fill="none"/><path d="M16 11c1.66 0 2.99-1.34 2.99-3S17.66 5 16 5s-3 1.34-3 3 1.34 3 3 3zm-8 0c1.66 0 2.99-1.34 2.99-3S9.66 5 8 5 5 6.34 5 8s1.34 3 3 3zm0 2c-2.33 0-7 1.17-7 3.5V18c0 .55.45 1 1 1h12c.55 0 1-.45 1-1v-1.5c0-2.33-4.67-3.5-7-3.5zm8 0c-.29 0-.62.02-.97.05.02.01.03.03.04.04 1.14.83 1.93 1.94 1.93 3.41V18c0 .35-.07.69-.18 1H22c.55 0 1-.45 1-1v-1.5c0-2.33-4.67-3.5-7-3.5z"/></symbol>
<symbol id="groups" viewBox="0 0 24 24"><rect fill="none" height="24" width="24"/><g><path d="M12,12.75c1.63,0,3.07,0.39,4.24,0.9c1.08,0.48,1.76,1.56,1.76,2.73L18,17c0,0.55-0.45,1-1,1H7c-0.55,0-1-0.45-1-1l0-0.61 c0-1.18,0.68-2.26,1.76-2.73C8.93,13.14,10.37,12.75,12,12.75z M4,13c1.1,0,2-0.9,2-2c0-1.1-0.9-2-2-2s-2,0.9-2,2 C2,12.1,2.9,13,4,13z M5.13,14.1C4.76,14.04,4.39,14,4,14c-0.99,0-1.93,0.21-2.78,0.58C0.48,14.9,0,15.62,0,16.43L0,17 c0,0.55,0.45,1,1,1l3.5,0v-1.61C4.5,15.56,4.73,14.78,5.13,14.1z M20,13c1.1,0,2-0.9,2-2c0-1.1-0.9-2-2-2s-2,0.9-2,2 C18,12.1,18.9,13,20,13z M24,16.43c0-0.81-0.48-1.53-1.22-1.85C21.93,14.21,20.99,14,20,14c-0.39,0-0.76,0.04-1.13,0.1 c0.4,0.68,0.63,1.46,0.63,2.29V18l3.5,0c0.55,0,1-0.45,1-1L24,16.43z M12,6c1.66,0,3,1.34,3,3c0,1.66-1.34,3-3,3s-3-1.34-3-3 C9,7.34,10.34,6,12,6z"/></g></symbol>
<symbol id="group_add" viewBox="0 0 24 24"><path d="M0 0h24v24H0V0z" fill="none"/><path d="M7 10H5V8c0-.55-.45-1-1-1s-1 .45-1 1v2H1c-.55 0-1 .45-1 1s.45 1 1 1h2v2c0 .55.45 1 1 1s1-.45 1-1v-2h2c.55 0 1-.45 1-1s-.45-1-1-1zm11 1c1.66 0 2.99-1.34 2.99-3S19.66 5 18 5c-.32 0-.63.05-.91.14.57.81.9 1.79.9 2.86s-.34 2.04-.9 2.86c.28.09.59.14.91.14zm-5 0c1.66 0 2.99-1.34 2.99-3S14.66 5 13 5s-3 1.34-3 3 1.34 3 3 3zm0 2c-2 0-6 1-6 3v1c0 .55.45 1 1 1h10c.55 0 1-.45 1-1v-1c0-2-4-3-6-3zm6.62.16c.83.73 1.38 1.66 1.38 2.84v1.5c0 .17-.02.34-.05.5h2.55c.28 0 .5-.22.5-.5V16c0-1.54-2.37-2.49-4.38-2.84z"/></symbol>
<symbol id="history_edu" viewBox="0 0 24 24"><g><rect fill="none" height="24" width="24"/><rect fill="none" height="24" width="24"/></g><g><g><path d="M9,5v0.38c-0.83-0.33-1.72-0.5-2.61-0.5c-1.42,0-2.84,0.43-4.05,1.29C1.83,6.53,1.77,7.26,2.21,7.7l2.57,2.57h1.11v1.11 c0.86,0.86,1.98,1.31,3.11,1.36V15H7c-0.55,0-1,0.45-1,1v2c0,1.1,0.9,2,2,2h10c1.66,0,3-1.34,3-3V5c0-0.55-0.45-1-1-1H10 C9.45,4,9,4.45,9,5z M7.89,10.41V8.26H5.61L4.57,7.22C5.14,7,5.76,6.88,6.39,6.88c1.34,0,2.59,0.52,3.54,1.46l1.41,1.41l-0.2,0.2 c-0.51,0.51-1.19,0.8-1.92,0.8C8.75,10.75,8.29,10.63,7.89,10.41z M19,17c0,0.55-0.45,1-1,1s-1-0.45-1-1v-1c0-0.55-0.45-1-1-1h-5 v-2.59c0.57-0.23,1.1-0.57,1.56-1.03l0.2-0.2L15.59,14H17v-1.41l-6-5.97V6h8V17z"/></g></g></symbol>
<symbol id="king_bed" viewBox="0 0 24 24"><g><rect fill="none" height="24" width="24"/><rect fill="none" height="24" width="24"/></g><g><g><rect fill="none" height="3" width="5" x="6" y="7"/><rect fill="none" height="3" width="5" x="13" y="7"/><path d="M20,10V7c0-1.1-0.9-2-2-2H6C4.9,5,4,5.9,4,7v3c-1.1,0-2,0.9-2,2v5h1.33l0.51,1.53C3.94,18.81,4.2,19,4.5,19h0 c0.3,0,0.56-0.19,0.66-0.47L5.67,17h12.67l0.51,1.53C18.94,18.81,19.2,19,19.5,19l0,0c0.3,0,0.56-0.19,0.66-0.47L20.67,17H22v-5 C22,10.9,21.1,10,20,10z M11,10H6V8c0-0.55,0.45-1,1-1h4V10z M18,10h-5V7h4c0.55,0,1,0.45,1,1V10z"/></g></g></symbol>
<symbol id="location_city" viewBox="0 0 24 24"><path d="M0 0h24v24H0V0z" fill="none"/><path d="M15 11V5.83c0-.53-.21-1.04-.59-1.41L12.7 2.71c-.39-.39-1.02-.39-1.41 0l-1.7 1.7C9.21 4.79 9 5.3 9 5.83V7H5c-1.1 0-2 .9-2 2v10c0 1.1.9 2 2 2h14c1.1 0 2-.9 2-2v-6c0-1.1-.9-2-2-2h-4zm-8 8H5v-2h2v2zm0-4H5v-2h2v2zm0-4H5V9h2v2zm6 8h-2v-2h2v2zm0-4h-2v-2h2v2zm0-4h-2V9h2v2zm0-4h-2V5h2v2zm6 12h-2v-2h2v2zm0-4h-2v-2h2v2z"/></symbol>
<symbol id="luggage" viewBox="0 0 24 24"><rect fill="none" height="24" width="24"/><g><path d="M17,6h-2V3c0-0.55-0.45-1-1-1h-4C9.45,2,9,2.45,9,3v3H7C5.9,6,5,6.9,5,8v11c0,1.1,0.9,2,2,2c0,0.55,0.45,1,1,1 c0.55,0,1-0.45,1-1h6c0,0.55,0.45,1,1,1c0.55,0,1-0.45,1-1c1.1,0,2-0.9,2-2V8C19,6.9,18.1,6,17,6z M8.75,18L8.75,18 C8.34,18,8,17.66,8,17.25v-7.5C8,9.34,8.34,9,8.75,9h0C9.16,9,9.5,9.34,9.5,9.75v7.5C9.5,17.66,9.16,18,8.75,18z M12,18L12,18 c-0.41,0-0.75-0.34-0.75-0.75v-7.5C11.25,9.34,11.59,9,12,9h0c0.41,0,0.75,0.34,0.75,0.75v7.5C12.75,17.66,12.41,18,12,18z M13.5,6 h-3V3.5h3V6z M15.25,18L15.25,18c-0.41,0-0.75-0.34-0.75-0.75v-7.5C14.5,9.34,14.84,9,15.25,9h0C15.66,9,16,9.34,16,9.75v7.5 C16,17.66,15.66,18,15.25,18z"/></g></symbol>
<symbol id="masks" viewBox="0 0 24 24"><rect fill="none" height="24" width="24"/><path d="M19.5,6c-1.31,0-2.37,1.01-2.48,2.3C15.14,7.8,14.18,6.5,12,6.5c-2.19,0-3.14,1.3-5.02,1.8C6.87,7.02,5.81,6,4.5,6 C3.12,6,2,7.12,2,8.5V9c0,6,3.6,7.81,6.52,7.98C9.53,17.62,10.72,18,12,18s2.47-0.38,3.48-1.02C18.4,16.81,22,15,22,9V8.5 C22,7.12,20.88,6,19.5,6z M3.5,9V8.5c0-0.55,0.45-1,1-1s1,0.45,1,1v3c0,1.28,0.38,2.47,1.01,3.48C4.99,14.27,3.5,12.65,3.5,9z M14.3,11.01c-0.4-0.17-0.72-0.36-1.01-0.53C12.83,10.2,12.49,10,12,10c-0.49,0-0.84,0.2-1.31,0.48c-0.28,0.17-0.6,0.35-0.98,0.51 C9.37,11.14,9,10.91,9,10.54v0c0-0.2,0.11-0.38,0.29-0.45c0.34-0.14,0.62-0.31,0.88-0.46C10.72,9.3,11.23,9,12,9s1.27,0.3,1.8,0.62 c0.27,0.16,0.55,0.33,0.9,0.48c0.18,0.08,0.29,0.26,0.29,0.45C15,10.91,14.63,11.15,14.3,11.01z M20.5,9c0,3.65-1.49,5.27-3.01,5.98 c0.64-1.01,1.01-2.2,1.01-3.48v-3c0-0.55,0.45-1,1-1s1,0.45,1,1V9z"/></symbol>
<symbol id="military_tech" viewBox="0 0 24 24"><g><rect fill="none" height="24" width="24"/><rect fill="none" height="24" width="24"/></g><g><path d="M17,10.43V3c0-0.55-0.45-1-1-1H8C7.45,2,7,2.45,7,3v7.43c0,0.35,0.18,0.68,0.49,0.86l4.18,2.51l-0.99,2.34l-2.22,0.19 C8,16.37,7.82,16.92,8.16,17.21l1.69,1.46l-0.51,2.18c-0.1,0.43,0.37,0.77,0.75,0.54L12,20.23l1.91,1.15 c0.38,0.23,0.85-0.11,0.75-0.54l-0.51-2.18l1.69-1.46c0.33-0.29,0.16-0.84-0.29-0.88l-2.22-0.19l-0.99-2.34l4.18-2.51 C16.82,11.11,17,10.79,17,10.43z M13,12.23l-1,0.6l-1-0.6V3h2V12.23z"/></g></symbol>
<symbol id="mood" viewBox="0 0 24 24"><path d="M0 0h24v24H0V0z" fill="none"/><path d="M11.99 2C6.47 2 2 6.48 2 12s4.47 10 9.99 10C17.52 22 22 17.52 22 12S17.52 2 11.99 2zM12 20c-4.42 0-8-3.58-8-8s3.58-8 8-8 8 3.58 8 8-3.58 8-8 8zm3.5-9c.83 0 1.5-.67 1.5-1.5S16.33 8 15.5 8 14 8.67 14 9.5s.67 1.5 1.5 1.5zm-7 0c.83 0 1.5-.67 1.5-1.5S9.33 8 8.5 8 7 8.67 7 9.5 7.67 11 8.5 11zm3.5 6.5c2.03 0 3.8-1.11 4.75-2.75.19-.33-.05-.75-.44-.75H7.69c-.38 0-.63.42-.44.75.95 1.64 2.72 2.75 4.75 2.75z"/></symbol>
<symbol id="mood_bad" viewBox="0 0 24 24"><path d="M0 0h24v24H0V0z" fill="none"/><path d="M11.99 2C6.47 2 2 6.48 2 12s4.47 10 9.99 10C17.52 22 22 17.52 22 12S17.52 2 11.99 2zM12 20c-4.42 0-8-3.58-8-8s3.58-8 8-8 8 3.58 8 8-3.58 8-8 8zm3.5-9c.83 0 1.5-.67 1.5-1.5S16.33 8 15.5 8 14 8.67 14 9.5s.67 1.5 1.5 1.5zm-7 0c.83 0 1.5-.67 1.5-1.5S9.33 8 8.5 8 7 8.67 7 9.5 7.67 11 8.5 11zm3.5 2.5c-2.03 0-3.8 1.11-4.75 2.75-.19.33.06.75.44.75h8.62c.38 0 .63-.42.44-.75-.95-1.64-2.72-2.75-4.75-2.75z"/></symbol>
<symbol id="nights_stay" viewBox="0 0 24 24"><g><rect fill="none" height="24" width="24"/><rect fill="none" height="24" width="24"/></g><g><g><g><path d="M11.1,12.08c-2-3.88-0.92-7.36,0.07-9.27c0.19-0.36-0.12-0.77-0.53-0.72C5.62,2.77,1.78,7.16,1.99,12.41 c0.01,0,0.01,0,0.01,0.01C2.62,12.15,3.29,12,4,12c1.66,0,3.18,0.83,4.1,2.15C9.77,14.63,11,16.17,11,18 c0,1.52-0.87,2.83-2.12,3.51c0.98,0.32,2.03,0.5,3.11,0.5c3.13,0,5.92-1.44,7.76-3.69c0.26-0.32,0.04-0.79-0.37-0.82 C16.89,17.37,13.1,15.97,11.1,12.08z"/></g><path d="M7,16l-0.18,0C6.4,14.84,5.3,14,4,14c-1.66,0-3,1.34-3,3s1.34,3,3,3c0.62,0,2.49,0,3,0c1.1,0,2-0.9,2-2 C9,16.9,8.1,16,7,16z"/></g></g></symbol>
<symbol id="notifications" viewBox="0 0 24 24"><path d="M0 0h24v24H0V0z" fill="none"/><path d="M12 22c1.1 0 2-.9 2-2h-4c0 1.1.89 2 2 2zm6-6v-5c0-3.07-1.64-5.64-4.5-6.32V4c0-.83-.67-1.5-1.5-1.5s-1.5.67-1.5 1.5v.68C7.63 5.36 6 7.92 6 11v5l-1.29 1.29c-.63.63-.19 1.71.7 1.71h13.17c.89 0 1.34-1.08.71-1.71L18 16z"/></symbol>
<symbol id="notifications_active" viewBox="0 0 24 24"><path d="M0 0h24v24H0V0z" fill="none"/><path d="M18 16v-5c0-3.07-1.64-5.64-4.5-6.32V4c0-.83-.68-1.5-1.51-1.5S10.5 3.17 10.5 4v.68C7.63 5.36 6 7.92 6 11v5l-1.3 1.29c-.63.63-.19 1.71.7 1.71h13.17c.89 0 1.34-1.08.71-1.71L18 16zm-6.01 6c1.1 0 2-.9 2-2h-4c0 1.1.89 2 2 2zM6.77 4.73c.42-.38.43-1.03.03-1.43-.38-.38-1-.39-1.39-.02C3.7 4.84 2.52 6.96 2.14 9.34c-.09.61.38 1.16 1 1.16.48 0 .9-.35.98-.83.3-1.94 1.26-3.67 2.65-4.94zM18.6 3.28c-.4-.37-1.02-.36-1.4.02-.4.4-.38 1.04.03 1.42 1.38 1.27 2.35 3 2.65 4.94.07.48.49.83.98.83.61 0 1.09-.55.99-1.16-.38-2.37-1.55-4.48-3.25-6.05z"/></symbol>
<symbol id="notifications_none" viewBox="0 0 24 24"><path d="M0 0h24v24H0V0z" fill="none"/><path d="M19.29 17.29L18 16v-5c0-3.07-1.64-5.64-4.5-6.32V4c0-.83-.67-1.5-1.5-1.5s-1.5.67-1.5 1.5v.68C7.63 5.36 6 7.92 6 11v5l-1.29 1.29c-.63.63-.19 1.71.7 1.71h13.17c.9 0 1.34-1.08.71-1.71zM16 17H8v-6c0-2.48 1.51-4.5 4-4.5s4 2.02 4 4.5v6zm-4 5c1.1 0 2-.9 2-2h-4c0 1.1.89 2 2 2z"/></symbol>
<symbol id="notifications_off" viewBox="0 0 24 24"><path d="M0 0h24v24H0V0z" fill="none"/><path d="M12 22c1.1 0 2-.9 2-2h-4c0 1.1.89 2 2 2zm6-11c0-3.07-1.64-5.64-4.5-6.32V4c0-.83-.67-1.5-1.5-1.5s-1.5.67-1.5 1.5v.68c-.24.06-.47.15-.69.23L18 13.1V11zM5.41 3.35L4 4.76l2.81 2.81C6.29 8.57 6 9.73 6 11v5l-1.29 1.29c-.63.63-.19 1.71.7 1.71h12.83l1.74 1.74 1.41-1.41L5.41 3.35z"/></symbol>
<symbol id="notifications_paused" viewBox="0 0 24 24"><path d="M0 0h24v24H0V0z" fill="none"/><path d="M12 22c1.1 0 2-.9 2-2h-4c0 1.1.89 2 2 2zm7.29-4.71L18 16v-5c0-3.07-1.64-5.64-4.5-6.32V4c0-.83-.67-1.5-1.5-1.5s-1.5.67-1.5 1.5v.68C7.63 5.36 6 7.92 6 11v5l-1.29 1.29c-.63.63-.19 1.71.7 1.71h13.17c.9 0 1.34-1.08.71-1.71zM14.5 9.33c0 .31-.11.6-.3.84l-2.5 3.03h1.9c.5 0 .9.4.9.9s-.4.9-.9.9h-2.78c-.73 0-1.32-.59-1.32-1.32v-.01c0-.31.11-.6.3-.84l2.5-3.03h-1.9c-.5 0-.9-.4-.9-.9s.4-.9.9-.9h2.78c.73 0 1.32.59 1.32 1.33z"/></symbol>
<symbol id="no_luggage" viewBox="0 0 24 24"><rect fill="none" height="24" width="24"/><g><path d="M20.49,20.49L3.51,3.51c-0.39-0.39-1.02-0.39-1.41,0c-0.39,0.39-0.39,1.02,0,1.41l2.92,2.92C5.02,7.9,5,7.95,5,8v11 c0,1.1,0.9,2,2,2c0,0.55,0.45,1,1,1c0.55,0,1-0.45,1-1h6c0,0.55,0.45,1,1,1c0.55,0,1-0.45,1-1c0.34,0,0.65-0.09,0.93-0.24 l1.14,1.14c0.39,0.39,1.02,0.39,1.41,0C20.88,21.51,20.88,20.88,20.49,20.49z M8.75,18C8.34,18,8,17.66,8,17.25v-6.42l1.5,1.5v4.92 C9.5,17.66,9.16,18,8.75,18z M12,18c-0.41,0-0.75-0.34-0.75-0.75v-3.17l1.5,1.5v1.67C12.75,17.66,12.41,18,12,18z M12,9 c0.41,0,0.75,0.34,0.75,0.75v0.17l1.75,1.75V9.75C14.5,9.34,14.84,9,15.25,9S16,9.34,16,9.75v3.42l3,3V8c0-1.1-0.9-2-2-2h-2V3 c0-0.55-0.45-1-1-1h-4C9.45,2,9,2.45,9,3v3H8.83l3.03,3.03C11.91,9.02,11.95,9,12,9z M10.5,3.5h3V6h-3V3.5z"/></g></symbol>
<symbol id="outdoor_grill" viewBox="0 0 24 24"><g><rect fill="none" height="24" width="24"/><rect fill="none" height="24" width="24"/></g><g><g><path d="M17,22c1.66,0,3-1.34,3-3s-1.34-3-3-3c-1.3,0-2.4,0.84-2.82,2H9.14l1.99-3.06C11.42,14.98,11.71,15,12,15 s0.58-0.02,0.87-0.06l1.02,1.57c0.42-0.53,0.96-0.95,1.6-1.21l-0.6-0.93c2.1-0.95,3.64-2.9,4.02-5.24C19.01,8.54,18.52,8,17.92,8 C15.31,8,8.69,8,6.08,8C5.48,8,4.99,8.54,5.09,9.14c0.38,2.34,1.93,4.29,4.02,5.24l-3.95,6.08c-0.3,0.46-0.17,1.08,0.29,1.38h0 c0.46,0.3,1.08,0.17,1.38-0.29l1-1.55h6.34C14.6,21.16,15.7,22,17,22z M17,18c0.55,0,1,0.45,1,1c0,0.55-0.45,1-1,1s-1-0.45-1-1 C16,18.45,16.45,18,17,18z"/><path d="M9.5,6.47C9.48,6.75,9.68,7,9.96,7H10c0.24,0,0.44-0.18,0.46-0.42c0.1-0.87,0.04-1.39-0.94-2.54 C9.16,3.61,8.92,3.35,8.99,2.49C9.02,2.23,8.8,2,8.53,2H8.48C8.24,2,8.03,2.19,8.01,2.43c-0.08,0.93,0.2,1.74,0.95,2.53 C9.15,5.17,9.6,5.52,9.5,6.47z"/><path d="M11.99,6.47C11.96,6.75,12.17,7,12.45,7h0.03c0.24,0,0.44-0.18,0.46-0.42c0.1-0.87,0.04-1.39-0.94-2.54 c-0.36-0.43-0.61-0.69-0.53-1.55C11.5,2.23,11.28,2,11.01,2h-0.05c-0.24,0-0.45,0.19-0.47,0.43c-0.08,0.93,0.2,1.74,0.95,2.53 C11.63,5.17,12.08,5.52,11.99,6.47z"/><path d="M14.5,6.47C14.48,6.75,14.68,7,14.96,7H15c0.24,0,0.44-0.18,0.46-0.42c0.1-0.87,0.04-1.39-0.94-2.54 c-0.36-0.43-0.61-0.69-0.53-1.55C14.02,2.23,13.8,2,13.53,2h-0.05c-0.24,0-0.45,0.19-0.47,0.43c-0.08,0.93,0.2,1.74,0.95,2.53 C14.15,5.17,14.6,5.52,14.5,6.47z"/></g></g></symbol>
<symbol id="pages" viewBox="0 0 24 24"><path d="M0 0h24v24H0V0z" fill="none"/><path d="M3 5v6h5l-.6-2.38c-.18-.74.48-1.4 1.22-1.22L11 8V3H5c-1.1 0-2 .9-2 2zm5 8H3v6c0 1.1.9 2 2 2h6v-5l-2.38.6c-.73.18-1.4-.48-1.21-1.21L8 13zm7.38 3.6L13 16v5h6c1.1 0 2-.9 2-2v-6h-5l.6 2.38c.18.74-.48 1.4-1.22 1.22zM19 3h-6v5l2.38-.6c.73-.18 1.4.48 1.21 1.21L16 11h5V5c0-1.1-.9-2-2-2z"/></symbol>
<symbol id="party_mode" viewBox="0 0 24 24"><path d="M0 0h24v24H0V0z" fill="none"/><path d="M20 4h-3.17l-1.24-1.35c-.37-.41-.91-.65-1.47-.65H9.88c-.56 0-1.1.24-1.48.65L7.17 4H4c-1.1 0-2 .9-2 2v12c0 1.1.9 2 2 2h16c1.1 0 2-.9 2-2V6c0-1.1-.9-2-2-2zm-8 3c1.63 0 3.06.79 3.98 2H12c-1.66 0-3 1.34-3 3 0 .35.07.69.18 1H7.1c-.06-.32-.1-.66-.1-1 0-2.76 2.24-5 5-5zm0 10c-1.63 0-3.06-.79-3.98-2H12c1.66 0 3-1.34 3-3 0-.35-.07-.69-.18-1h2.08c.07.32.1.66.1 1 0 2.76-2.24 5-5 5z"/></symbol>
<symbol id="people" viewBox="0 0 24 24"><path d="M0 0h24v24H0V0z" fill="none"/><path d="M16 11c1.66 0 2.99-1.34 2.99-3S17.66 5 16 5s-3 1.34-3 3 1.34 3 3 3zm-8 0c1.66 0 2.99-1.34 2.99-3S9.66 5 8 5 5 6.34 5 8s1.34 3 3 3zm0 2c-2.33 0-7 1.17-7 3.5V18c0 .55.45 1 1 1h12c.55 0 1-.45 1-1v-1.5c0-2.33-4.67-3.5-7-3.5zm8 0c-.29 0-.62.02-.97.05.02.01.03.03.04.04 1.14.83 1.93 1.94 1.93 3.41V18c0 .35-.07.69-.18 1H22c.55 0 1-.45 1-1v-1.5c0-2.33-4.67-3.5-7-3.5z"/></symbol>
<symbol id="people_alt" viewBox="0 0 24 24"><g><rect fill="none" height="24" width="24"/><rect fill="none" height="24" width="24"/></g><g><g/><g><g><path d="M16.67,13.13C18.04,14.06,19,15.32,19,17v3h3c0.55,0,1-0.45,1-1v-2 C23,14.82,19.43,13.53,16.67,13.13z" fill-rule="evenodd"/></g><g><circle cx="9" cy="8" fill-rule="evenodd" r="4"/></g><g><path d="M15,12c2.21,0,4-1.79,4-4c0-2.21-1.79-4-4-4c-0.47,0-0.91,0.1-1.33,0.24 C14.5,5.27,15,6.58,15,8s-0.5,2.73-1.33,3.76C14.09,11.9,14.53,12,15,12z" fill-rule="evenodd"/></g><g><path d="M9,13c-2.67,0-8,1.34-8,4v2c0,0.55,0.45,1,1,1h14c0.55,0,1-0.45,1-1v-2 C17,14.34,11.67,13,9,13z" fill-rule="evenodd"/></g></g></g></symbol>
<symbol id="people_outline" viewBox="0 0 24 24"><path d="M0 0h24v24H0V0z" fill="none"/><path d="M9 12c1.93 0 3.5-1.57 3.5-3.5S10.93 5 9 5 5.5 6.57 5.5 8.5 7.07 12 9 12zm0-5c.83 0 1.5.67 1.5 1.5S9.83 10 9 10s-1.5-.67-1.5-1.5S8.17 7 9 7zm0 6.75c-2.34 0-7 1.17-7 3.5V18c0 .55.45 1 1 1h12c.55 0 1-.45 1-1v-.75c0-2.33-4.66-3.5-7-3.5zM4.34 17c.84-.58 2.87-1.25 4.66-1.25s3.82.67 4.66 1.25H4.34zm11.7-3.19c1.16.84 1.96 1.96 1.96 3.44V19h3c.55 0 1-.45 1-1v-.75c0-2.02-3.5-3.17-5.96-3.44zM15 12c1.93 0 3.5-1.57 3.5-3.5S16.93 5 15 5c-.54 0-1.04.13-1.5.35.63.89 1 1.98 1 3.15s-.37 2.26-1 3.15c.46.22.96.35 1.5.35z"/></symbol>
<symbol id="person" viewBox="0 0 24 24"><path d="M0 0h24v24H0V0z" fill="none"/><path d="M12 12c2.21 0 4-1.79 4-4s-1.79-4-4-4-4 1.79-4 4 1.79 4 4 4zm0 2c-2.67 0-8 1.34-8 4v1c0 .55.45 1 1 1h14c.55 0 1-.45 1-1v-1c0-2.66-5.33-4-8-4z"/></symbol>
<symbol id="person_add" viewBox="0 0 24 24"><path d="M0 0h24v24H0V0z" fill="none"/><path d="M15 12c2.21 0 4-1.79 4-4s-1.79-4-4-4-4 1.79-4 4 1.79 4 4 4zm-9-2V8c0-.55-.45-1-1-1s-1 .45-1 1v2H2c-.55 0-1 .45-1 1s.45 1 1 1h2v2c0 .55.45 1 1 1s1-.45 1-1v-2h2c.55 0 1-.45 1-1s-.45-1-1-1H6zm9 4c-2.67 0-8 1.34-8 4v1c0 .55.45 1 1 1h14c.55 0 1-.45 1-1v-1c0-2.66-5.33-4-8-4z"/></symbol>
<symbol id="person_add_alt_1" viewBox="0 0 24 24"><g><rect fill="none" height="24" width="24"/><rect fill="none" height="24" width="24"/></g><g><g><circle cx="9" cy="8" r="4"/><path d="M9,14c-2.67,0-8,1.34-8,4v1c0,0.55,0.45,1,1,1h14c0.55,0,1-0.45,1-1v-1C17,15.34,11.67,14,9,14z"/><polygon points="20,10 20,7 18,7 18,10 15,10 15,12 18,12 18,15 20,15 20,12 23,12 23,10"/></g></g></symbol>
<symbol id="person_outline" viewBox="0 0 24 24"><path d="M0 0h24v24H0V0z" fill="none"/><path d="M12 5.9c1.16 0 2.1.94 2.1 2.1s-.94 2.1-2.1 2.1S9.9 9.16 9.9 8s.94-2.1 2.1-2.1m0 9c2.97 0 6.1 1.46 6.1 2.1v1.1H5.9V17c0-.64 3.13-2.1 6.1-2.1M12 4C9.79 4 8 5.79 8 8s1.79 4 4 4 4-1.79 4-4-1.79-4-4-4zm0 9c-2.67 0-8 1.34-8 4v2c0 .55.45 1 1 1h14c.55 0 1-.45 1-1v-2c0-2.66-5.33-4-8-4z"/></symbol>
<symbol id="person_remove" viewBox="0 0 24 24"><g><rect fill="none" height="24" width="24"/><rect fill="none" height="24" width="24"/></g><g><path d="M14,8c0-2.21-1.79-4-4-4S6,5.79,6,8s1.79,4,4,4S14,10.21,14,8z M2,18v1c0,0.55,0.45,1,1,1h14c0.55,0,1-0.45,1-1v-1 c0-2.66-5.33-4-8-4S2,15.34,2,18z M18,10h4c0.55,0,1,0.45,1,1v0c0,0.55-0.45,1-1,1h-4c-0.55,0-1-0.45-1-1v0 C17,10.45,17.45,10,18,10z"/></g></symbol>
<symbol id="person_remove_alt_1" viewBox="0 0 24 24"><g><rect fill="none" height="24" width="24"/><rect fill="none" height="24" width="24"/></g><g><path d="M14,8c0-2.21-1.79-4-4-4S6,5.79,6,8s1.79,4,4,4S14,10.21,14,8z M2,18v1c0,0.55,0.45,1,1,1h14c0.55,0,1-0.45,1-1v-1 c0-2.66-5.33-4-8-4S2,15.34,2,18z M18,10h4c0.55,0,1,0.45,1,1v0c0,0.55-0.45,1-1,1h-4c-0.55,0-1-0.45-1-1v0 C17,10.45,17.45,10,18,10z"/></g></symbol>
<symbol id="plus_one" viewBox="0 0 24 24"><path d="M0 0h24v24H0V0z" fill="none"/><path d="M9 8c-.55 0-1 .45-1 1v3H5c-.55 0-1 .45-1 1s.45 1 1 1h3v3c0 .55.45 1 1 1s1-.45 1-1v-3h3c.55 0 1-.45 1-1s-.45-1-1-1h-3V9c0-.55-.45-1-1-1zm5.5-1.21c0 .57.52 1 1.08.89L17 7.4V17c0 .55.45 1 1 1s1-.45 1-1V6.27c0-.65-.6-1.12-1.23-.97l-2.57.62c-.41.09-.7.46-.7.87z"/></symbol>
<symbol id="poll" viewBox="0 0 24 24"><path d="M0 0h24v24H0V0z" fill="none"/><path d="M19 3H5c-1.1 0-2 .9-2 2v14c0 1.1.9 2 2 2h14c1.1 0 2-.9 2-2V5c0-1.1-.9-2-2-2zM8 17c-.55 0-1-.45-1-1v-5c0-.55.45-1 1-1s1 .45 1 1v5c0 .55-.45 1-1 1zm4 0c-.55 0-1-.45-1-1V8c0-.55.45-1 1-1s1 .45 1 1v8c0 .55-.45 1-1 1zm4 0c-.55 0-1-.45-1-1v-2c0-.55.45-1 1-1s1 .45 1 1v2c0 .55-.45 1-1 1z"/></symbol>
<symbol id="precision_manufacturing" viewBox="0 0 24 24"><g><rect fill="none" height="24" width="24"/><rect fill="none" height="24" width="24"/></g><g><path d="M19.93,8.35l-3.6,1.68L14,7.7V6.3l2.33-2.33l3.6,1.68c0.38,0.18,0.82,0.01,1-0.36c0.18-0.38,0.01-0.82-0.36-1l-3.92-1.83 c-0.38-0.18-0.83-0.1-1.13,0.2L13.78,4.4C13.6,4.16,13.32,4,13,4c-0.55,0-1,0.45-1,1v1H8.82C8.34,4.66,6.96,3.75,5.4,4.06 C4.23,4.29,3.27,5.25,3.05,6.42C2.8,7.76,3.45,8.96,4.48,9.58L7.08,18H5.5C4.67,18,4,18.67,4,19.5v0C4,20.33,4.67,21,5.5,21h10 c0.83,0,1.5-0.67,1.5-1.5v0c0-0.83-0.67-1.5-1.5-1.5h-2.12L8.41,8.77C8.58,8.53,8.72,8.28,8.82,8H12v1c0,0.55,0.45,1,1,1 c0.32,0,0.6-0.16,0.78-0.4l1.74,1.74c0.3,0.3,0.75,0.38,1.13,0.2l3.92-1.83c0.38-0.18,0.54-0.62,0.36-1 C20.75,8.34,20.31,8.17,19.93,8.35z M6,8C5.45,8,5,7.55,5,7c0-0.55,0.45-1,1-1s1,0.45,1,1C7,7.55,6.55,8,6,8z"/></g></symbol>
<symbol id="psychology" viewBox="0 0 24 24"><g><rect fill="none" height="24" width="24"/><rect fill="none" height="24" width="24"/></g><g><g><path d="M13,8.57c-0.79,0-1.43,0.64-1.43,1.43s0.64,1.43,1.43,1.43s1.43-0.64,1.43-1.43S13.79,8.57,13,8.57z"/><path d="M13.21,3c-3.84-0.11-7,2.87-7.19,6.64L4.1,12.2C3.85,12.53,4.09,13,4.5,13H6v3c0,1.1,0.9,2,2,2h1v2c0,0.55,0.45,1,1,1h5 c0.55,0,1-0.45,1-1v-3.68c2.44-1.16,4.1-3.68,4-6.58C19.86,6.12,16.82,3.11,13.21,3z M16,10c0,0.13-0.01,0.26-0.02,0.39l0.83,0.66 c0.08,0.06,0.1,0.16,0.05,0.25l-0.8,1.39c-0.05,0.09-0.16,0.12-0.24,0.09l-0.99-0.4c-0.21,0.16-0.43,0.29-0.67,0.39L14,13.83 c-0.01,0.1-0.1,0.17-0.2,0.17h-1.6c-0.1,0-0.18-0.07-0.2-0.17l-0.15-1.06c-0.25-0.1-0.47-0.23-0.68-0.39l-0.99,0.4 c-0.09,0.03-0.2,0-0.25-0.09l-0.8-1.39c-0.05-0.08-0.03-0.19,0.05-0.25l0.84-0.66C10.01,10.26,10,10.13,10,10 c0-0.13,0.02-0.27,0.04-0.39L9.19,8.95c-0.08-0.06-0.1-0.16-0.05-0.26l0.8-1.38c0.05-0.09,0.15-0.12,0.24-0.09l1,0.4 c0.2-0.15,0.43-0.29,0.67-0.39l0.15-1.06C12.02,6.07,12.1,6,12.2,6h1.6c0.1,0,0.18,0.07,0.2,0.17l0.15,1.06 c0.24,0.1,0.46,0.23,0.67,0.39l1-0.4c0.09-0.03,0.2,0,0.24,0.09l0.8,1.38c0.05,0.09,0.03,0.2-0.05,0.26l-0.85,0.66 C15.99,9.73,16,9.86,16,10z"/></g></g></symbol>
<symbol id="public" viewBox="0 0 24 24"><path d="M0 0h24v24H0V0z" fill="none"/><path d="M12 2C6.48 2 2 6.48 2 12s4.48 10 10 10 10-4.48 10-10S17.52 2 12 2zm-1 17.93c-3.95-.49-7-3.85-7-7.93 0-.62.08-1.21.21-1.79L9 15v1c0 1.1.9 2 2 2v1.93zm6.9-2.54c-.26-.81-1-1.39-1.9-1.39h-1v-3c0-.55-.45-1-1-1H8v-2h2c.55 0 1-.45 1-1V7h2c1.1 0 2-.9 2-2v-.41c2.93 1.19 5 4.06 5 7.41 0 2.08-.8 3.97-2.1 5.39z"/></symbol>
<symbol id="public_off" viewBox="0 0 24 24"><g><rect fill="none" height="24" width="24"/><path d="M11,8.17L6.49,3.66C8.07,2.61,9.96,2,12,2c5.52,0,10,4.48,10,10c0,2.04-0.61,3.93-1.66,5.51l-1.46-1.46 C19.59,14.87,20,13.48,20,12c0-3.35-2.07-6.22-5-7.41V5c0,1.1-0.9,2-2,2h-2V8.17z M20.49,21.9L20.49,21.9 c-0.39,0.39-1.02,0.39-1.41,0l-1.56-1.56c-2.07,1.37-4.68,2-7.45,1.48c-3.95-0.75-7.13-3.92-7.88-7.88 c-0.52-2.77,0.1-5.38,1.48-7.45L2.1,4.93c-0.39-0.39-0.39-1.02,0-1.41l0,0c0.39-0.39,1.02-0.39,1.41,0l16.97,16.97 C20.88,20.88,20.88,21.51,20.49,21.9z M11,18c-1.1,0-2-0.9-2-2v-1l-4.79-4.79C4.08,10.79,4,11.38,4,12c0,4.08,3.05,7.44,7,7.93V18z"/></g></symbol>
<symbol id="reduce_capacity" viewBox="0 0 24 24"><rect fill="none" height="24" width="24"/><path d="M16,4c0-1.1,0.9-2,2-2s2,0.9,2,2s-0.9,2-2,2S16,5.1,16,4z M20.78,7.58C19.93,7.21,18.99,7,18,7c-0.67,0-1.31,0.1-1.92,0.28 C16.66,7.83,17,8.6,17,9.43V10h5V9.43C22,8.62,21.52,7.9,20.78,7.58z M6,6c1.1,0,2-0.9,2-2S7.1,2,6,2S4,2.9,4,4S4.9,6,6,6z M7.92,7.28C7.31,7.1,6.67,7,6,7C5.01,7,4.07,7.21,3.22,7.58C2.48,7.9,2,8.62,2,9.43V10h5V9.43C7,8.6,7.34,7.83,7.92,7.28z M10,4 c0-1.1,0.9-2,2-2s2,0.9,2,2s-0.9,2-2,2S10,5.1,10,4z M16,10H8V9.43C8,8.62,8.48,7.9,9.22,7.58C10.07,7.21,11.01,7,12,7 c0.99,0,1.93,0.21,2.78,0.58C15.52,7.9,16,8.62,16,9.43V10z M15,16c0-1.1,0.9-2,2-2s2,0.9,2,2s-0.9,2-2,2S15,17.1,15,16z M21,22h-8 v-0.57c0-0.81,0.48-1.53,1.22-1.85C15.07,19.21,16.01,19,17,19c0.99,0,1.93,0.21,2.78,0.58C20.52,19.9,21,20.62,21,21.43V22z M5,16 c0-1.1,0.9-2,2-2s2,0.9,2,2s-0.9,2-2,2S5,17.1,5,16z M11,22H3v-0.57c0-0.81,0.48-1.53,1.22-1.85C5.07,19.21,6.01,19,7,19 c0.99,0,1.93,0.21,2.78,0.58C10.52,19.9,11,20.62,11,21.43V22z M13.79,13h-1.04v-1.25c0-0.41-0.34-0.75-0.75-0.75 s-0.75,0.34-0.75,0.75V13h-1.04c-0.45,0-0.67,0.54-0.35,0.85l1.79,1.79c0.2,0.2,0.51,0.2,0.71,0l1.79-1.79 C14.46,13.54,14.24,13,13.79,13z"/></symbol>
<symbol id="sanitizer" viewBox="0 0 24 24"><rect fill="none" height="24" width="24"/><path d="M15.5,6.5c0-0.56,0.67-1.49,1.11-2.04c0.2-0.25,0.58-0.25,0.77,0c0.44,0.55,1.11,1.48,1.11,2.04C18.5,7.33,17.83,8,17,8 S15.5,7.33,15.5,6.5z M19.5,15c1.38,0,2.5-1.12,2.5-2.5c0-1.25-1.41-3.16-2.11-4.04c-0.2-0.25-0.57-0.25-0.77,0 C18.41,9.34,17,11.25,17,12.5C17,13.88,18.12,15,19.5,15z M12,14h-1v-1c0-0.55-0.45-1-1-1h0c-0.55,0-1,0.45-1,1v1H8 c-0.55,0-1,0.45-1,1v0c0,0.55,0.45,1,1,1h1v1c0,0.55,0.45,1,1,1h0c0.55,0,1-0.45,1-1v-1h1c0.55,0,1-0.45,1-1v0 C13,14.45,12.55,14,12,14z M16,12v8c0,1.1-0.9,2-2,2H6c-1.1,0-2-0.9-2-2v-8c0-2.97,2.16-5.43,5-5.91V4H8C7.45,4,7,3.55,7,3v0 c0-0.55,0.45-1,1-1h5c0.61,0,1.19,0.11,1.72,0.31c0.67,0.25,0.83,1.13,0.33,1.64l0,0C14.77,4.23,14.36,4.31,14,4.18 C13.68,4.06,13.35,4,13,4h-2v2.09C13.84,6.57,16,9.03,16,12z"/></symbol>
<symbol id="school" viewBox="0 0 24 24"><path d="M0 0h24v24H0V0z" fill="none"/><path d="M5 13.18v2.81c0 .73.4 1.41 1.04 1.76l5 2.73c.6.33 1.32.33 1.92 0l5-2.73c.64-.35 1.04-1.03 1.04-1.76v-2.81l-6.04 3.3c-.6.33-1.32.33-1.92 0L5 13.18zm6.04-9.66l-8.43 4.6c-.69.38-.69 1.38 0 1.76l8.43 4.6c.6.33 1.32.33 1.92 0L21 10.09V16c0 .55.45 1 1 1s1-.45 1-1V9.59c0-.37-.2-.7-.52-.88l-9.52-5.19c-.6-.32-1.32-.32-1.92 0z"/></symbol>
<symbol id="science" viewBox="0 0 24 24"><g><rect fill="none" height="24" width="24"/><rect fill="none" height="24" width="24"/></g><g><path d="M19.8,18.4L14,10.67V6.5l1.35-1.69C15.61,4.48,15.38,4,14.96,4H9.04C8.62,4,8.39,4.48,8.65,4.81L10,6.5v4.17L4.2,18.4 C3.71,19.06,4.18,20,5,20h14C19.82,20,20.29,19.06,19.8,18.4z"/></g></symbol>
<symbol id="self_improvement" viewBox="0 0 24 24"><g><rect fill="none" height="24" width="24"/><rect fill="none" height="24" width="24"/></g><g><g><circle cx="12" cy="6" r="2"/><path d="M21,14.94L21,14.94c0-0.5-0.36-0.93-0.85-0.98c-1.88-0.21-3.49-1.13-4.75-2.63l-1.34-1.6C13.68,9.26,13.12,9,12.53,9 h-1.05c-0.59,0-1.15,0.26-1.53,0.72l-1.34,1.6c-1.25,1.5-2.87,2.42-4.75,2.63C3.36,14.01,3,14.44,3,14.94v0 c0,0.6,0.53,1.07,1.13,1c2.3-0.27,4.32-1.39,5.87-3.19V15l-3.76,1.5c-0.65,0.26-1.16,0.83-1.23,1.53C4.91,19.1,5.74,20,6.79,20H9 v-0.5c0-1.38,1.12-2.5,2.5-2.5h3c0.28,0,0.5,0.22,0.5,0.5S14.78,18,14.5,18h-3c-0.83,0-1.5,0.67-1.5,1.5V20l7.1,0 c0.85,0,1.65-0.54,1.85-1.37c0.21-0.89-0.27-1.76-1.08-2.08L14,15v-2.25c1.56,1.8,3.57,2.91,5.87,3.19C20.47,16,21,15.54,21,14.94 z"/></g></g></symbol>
<symbol id="sentiment_dissatisfied" viewBox="0 0 24 24"><path d="M0 0h24v24H0V0z" fill="none"/><circle cx="15.5" cy="9.5" r="1.5"/><circle cx="8.5" cy="9.5" r="1.5"/><path d="M11.99 2C6.47 2 2 6.48 2 12s4.47 10 9.99 10C17.52 22 22 17.52 22 12S17.52 2 11.99 2zM12 20c-4.42 0-8-3.58-8-8s3.58-8 8-8 8 3.58 8 8-3.58 8-8 8zm0-6c-1.9 0-3.63.97-4.65 2.58-.22.35-.11.81.24 1.03.35.22.81.11 1.03-.24.74-1.18 2-1.88 3.38-1.88s2.64.7 3.38 1.88c.14.23.39.35.64.35.14 0 .27-.04.4-.11.35-.22.46-.68.24-1.03C15.63 14.96 13.9 14 12 14z"/></symbol>
<symbol id="sentiment_neutral" viewBox="0 0 24 24"><path d="M0 0h24v24H0V0z" fill="none"/><path d="M9.75 15.5h4.5c.41 0 .75-.34.75-.75s-.34-.75-.75-.75h-4.5c-.41 0-.75.34-.75.75s.34.75.75.75z"/><circle cx="15.5" cy="9.5" r="1.5"/><circle cx="8.5" cy="9.5" r="1.5"/><path d="M11.99 2C6.47 2 2 6.48 2 12s4.47 10 9.99 10C17.52 22 22 17.52 22 12S17.52 2 11.99 2zM12 20c-4.42 0-8-3.58-8-8s3.58-8 8-8 8 3.58 8 8-3.58 8-8 8z"/></symbol>
<symbol id="sentiment_satisfied" viewBox="0 0 24 24"><path d="M0 0h24v24H0V0z" fill="none"/><circle cx="15.5" cy="9.5" r="1.5"/><circle cx="8.5" cy="9.5" r="1.5"/><path d="M11.99 2C6.47 2 2 6.48 2 12s4.47 10 9.99 10C17.52 22 22 17.52 22 12S17.52 2 11.99 2zM12 20c-4.42 0-8-3.58-8-8s3.58-8 8-8 8 3.58 8 8-3.58 8-8 8zm4.41-6.11c-.35-.22-.82-.11-1.03.24-.74 1.17-2 1.87-3.38 1.87s-2.64-.7-3.38-1.88c-.22-.35-.68-.46-1.03-.24-.35.22-.46.68-.24 1.03C8.37 16.54 10.1 17.5 12 17.5s3.63-.97 4.65-2.58c.22-.35.11-.81-.24-1.03z"/></symbol>
<symbol id="sentiment_very_dissatisfied" viewBox="0 0 24 24"><path d="M0 0h24v24H0V0z" fill="none"/><path d="M12 13.5c-2.03 0-3.8 1.11-4.75 2.75-.19.33.06.75.44.75h8.62c.38 0 .63-.42.44-.75-.95-1.64-2.72-2.75-4.75-2.75zm-3.65-2.03l.53-.53.53.53c.29.29.77.29 1.06 0 .29-.29.29-.77 0-1.06l-.53-.53.53-.53c.29-.29.29-.77 0-1.06-.29-.29-.77-.29-1.06 0l-.53.53-.53-.53c-.29-.29-.77-.29-1.06 0-.29.29-.29.77 0 1.06l.53.53-.53.53c-.29.29-.29.77 0 1.06.29.29.77.29 1.06 0zM11.99 2C6.47 2 2 6.47 2 12s4.47 10 9.99 10S22 17.53 22 12 17.52 2 11.99 2zM12 20c-4.42 0-8-3.58-8-8s3.58-8 8-8 8 3.58 8 8-3.58 8-8 8zm3.65-11.71l-.53.53-.53-.53c-.29-.29-.77-.29-1.06 0-.29.29-.29.77 0 1.06l.53.53-.53.53c-.29.29-.29.77 0 1.06.29.29.77.29 1.06 0l.53-.53.53.53c.29.29.77.29 1.06 0 .29-.29.29-.77 0-1.06l-.53-.53.53-.53c.29-.29.29-.77 0-1.06-.29-.29-.77-.29-1.06 0z"/></symbol>
<symbol id="sentiment_very_satisfied" viewBox="0 0 24 24"><path d="M0 0h24v24H0V0z" fill="none"/><path d="M8.88 9.94l.53.53c.29.29.77.29 1.06 0 .29-.29.29-.77 0-1.06l-.88-.88c-.39-.39-1.02-.39-1.41 0l-.89.88c-.29.29-.29.77 0 1.06.29.29.77.29 1.06 0l.53-.53zM12 17.5c2.03 0 3.8-1.11 4.75-2.75.19-.33-.05-.75-.44-.75H7.69c-.38 0-.63.42-.44.75.95 1.64 2.72 2.75 4.75 2.75zm1.53-7.03c.29.29.77.29 1.06 0l.53-.53.53.53c.29.29.77.29 1.06 0 .29-.29.29-.77 0-1.06l-.88-.88c-.39-.39-1.02-.39-1.41 0l-.88.88c-.3.29-.3.77-.01 1.06zM11.99 2C6.47 2 2 6.47 2 12s4.47 10 9.99 10S22 17.53 22 12 17.52 2 11.99 2zM12 20c-4.42 0-8-3.58-8-8s3.58-8 8-8 8 3.58 8 8-3.58 8-8 8z"/></symbol>
<symbol id="share" viewBox="0 0 24 24"><path d="M0 0h24v24H0V0z" fill="none"/><path d="M18 16.08c-.76 0-1.44.3-1.96.77L8.91 12.7c.05-.23.09-.46.09-.7s-.04-.47-.09-.7l7.05-4.11c.54.5 1.25.81 2.04.81 1.66 0 3-1.34 3-3s-1.34-3-3-3-3 1.34-3 3c0 .24.04.47.09.7L8.04 9.81C7.5 9.31 6.79 9 6 9c-1.66 0-3 1.34-3 3s1.34 3 3 3c.79 0 1.5-.31 2.04-.81l7.12 4.16c-.05.21-.08.43-.08.65 0 1.61 1.31 2.92 2.92 2.92s2.92-1.31 2.92-2.92-1.31-2.92-2.92-2.92z"/></symbol>
<symbol id="sick" viewBox="0 0 24 24"><rect fill="none" height="24" width="24"/><path d="M23,7c0,1.1-0.9,2-2,2s-2-0.9-2-2c0-0.78,0.99-2.44,1.58-3.36c0.2-0.31,0.64-0.31,0.84,0C22.01,4.56,23,6.22,23,7z M21.86,10.38C21.94,10.91,22,11.45,22,12c0,5.52-4.48,10-10.01,10C6.47,22,2,17.52,2,12C2,6.48,6.47,2,11.99,2 c2.45,0,4.69,0.88,6.43,2.34C17.91,5.29,17.5,6.27,17.5,7c0,1.93,1.57,3.5,3.5,3.5C21.3,10.5,21.58,10.45,21.86,10.38z M14.03,10.03 l1.06,1.06c0.29,0.29,0.77,0.29,1.06,0c0.29-0.29,0.29-0.77,0-1.06L15.62,9.5l0.53-0.53c0.29-0.29,0.29-0.77,0-1.06 s-0.77-0.29-1.06,0l-1.06,1.06C13.74,9.26,13.74,9.74,14.03,10.03z M8.38,9.5l-0.53,0.53c-0.29,0.29-0.29,0.77,0,1.06 c0.29,0.29,0.77,0.29,1.06,0l1.06-1.06c0.29-0.29,0.29-0.77,0-1.06L8.91,7.91c-0.29-0.29-0.77-0.29-1.06,0s-0.29,0.77,0,1.06 L8.38,9.5z M16.47,15.8c-1-1.39-2.62-2.3-4.47-2.3c-0.87,0-1.69,0.2-2.43,0.56L5.99,12c0-0.52-0.26-1.02-0.74-1.29 c-0.8-0.46-1.84-0.11-2.17,0.8c-0.21,0.57-0.03,1.25,0.44,1.64c0.52,0.44,1.2,0.45,1.72,0.16l2.97,1.72 c-0.25,0.24-0.48,0.5-0.68,0.78C7.17,16.3,7.53,17,8.15,17c0.23,0,0.46-0.1,0.6-0.3C9.47,15.68,10.65,15,12,15s2.53,0.68,3.25,1.7 c0.14,0.19,0.36,0.3,0.6,0.3h0C16.47,17,16.83,16.3,16.47,15.8z"/></symbol>
<symbol id="single_bed" viewBox="0 0 24 24"><g><rect fill="none" height="24" width="24"/><rect fill="none" height="24" width="24"/></g><g><path d="M18,10V7c0-1.1-0.9-2-2-2H8C6.9,5,6,5.9,6,7v3c-1.1,0-2,0.9-2,2v5h1.33l0.51,1.53C5.94,18.81,6.2,19,6.5,19h0 c0.3,0,0.56-0.19,0.66-0.47L7.67,17h8.67l0.51,1.53C16.94,18.81,17.2,19,17.5,19l0,0c0.3,0,0.56-0.19,0.66-0.47L18.67,17H20v-5 C20,10.9,19.1,10,18,10z M11,10H8V8c0-0.55,0.45-1,1-1h2V10z M16,10h-3V7h2c0.55,0,1,0.45,1,1V10z"/></g></symbol>
<symbol id="sports" viewBox="0 0 24 24"><g><rect fill="none" height="24" width="24"/><rect fill="none" height="24" width="24"/></g><g><g><g><path d="M21,6h-9.77C9.57,6,8.01,6.66,6.87,7.73C6.54,6.73,5.61,6,4.5,6C3.12,6,2,7.12,2,8.5C2,9.88,3.12,11,4.5,11 c0.21,0,0.41-0.03,0.61-0.08c-0.05,0.25-0.09,0.51-0.1,0.78c-0.18,3.68,2.95,6.68,6.68,6.27c2.55-0.28,4.68-2.26,5.19-4.77 c0.15-0.71,0.15-1.4,0.06-2.06c-0.09-0.6,0.38-1.13,0.99-1.13l2.76,0C21.56,10,22,9.55,22,9V7C22,6.45,21.55,6,21,6z M4.5,9 C4.22,9,4,8.78,4,8.5C4,8.22,4.22,8,4.5,8S5,8.22,5,8.5C5,8.78,4.78,9,4.5,9z M11,15c-1.66,0-3-1.34-3-3s1.34-3,3-3s3,1.34,3,3 S12.66,15,11,15z"/></g><g><circle cx="11" cy="12" r="2"/></g></g></g></symbol>
<symbol id="sports_baseball" viewBox="0 0 24 24"><g><rect fill="none" height="24" width="24"/><rect fill="none" height="24" width="24"/></g><g><g><g><path d="M3.81,6.28C2.67,7.9,2,9.87,2,12s0.67,4.1,1.81,5.72C6.23,16.95,8,14.68,8,12S6.23,7.05,3.81,6.28z"/></g><g><path d="M20.19,6.28C17.77,7.05,16,9.32,16,12s1.77,4.95,4.19,5.72C21.33,16.1,22,14.13,22,12S21.33,7.9,20.19,6.28z"/></g><g><path d="M14,12c0-3.28,1.97-6.09,4.79-7.33C17.01,3.02,14.63,2,12,2S6.99,3.02,5.21,4.67C8.03,5.91,10,8.72,10,12 s-1.97,6.09-4.79,7.33C6.99,20.98,9.37,22,12,22s5.01-1.02,6.79-2.67C15.97,18.09,14,15.28,14,12z"/></g></g></g></symbol>
<symbol id="sports_basketball" viewBox="0 0 24 24"><g><rect fill="none" height="24" width="24"/><rect fill="none" height="24" width="24"/></g><g><g><g><path d="M17.09,11h4.86c-0.16-1.61-0.71-3.11-1.54-4.4C18.68,7.43,17.42,9.05,17.09,11z"/></g><g><path d="M6.91,11C6.58,9.05,5.32,7.43,3.59,6.6C2.76,7.89,2.21,9.39,2.05,11H6.91z"/></g><g><path d="M15.07,11c0.32-2.59,1.88-4.79,4.06-6c-1.6-1.63-3.74-2.71-6.13-2.95V11H15.07z"/></g><g><path d="M8.93,11H11V2.05C8.61,2.29,6.46,3.37,4.87,5C7.05,6.21,8.61,8.41,8.93,11z"/></g><g><path d="M15.07,13H13v8.95c2.39-0.24,4.54-1.32,6.13-2.95C16.95,17.79,15.39,15.59,15.07,13z"/></g><g><path d="M3.59,17.4c1.72-0.83,2.99-2.46,3.32-4.4H2.05C2.21,14.61,2.76,16.11,3.59,17.4z"/></g><g><path d="M17.09,13c0.33,1.95,1.59,3.57,3.32,4.4c0.83-1.29,1.38-2.79,1.54-4.4H17.09z"/></g><g><path d="M8.93,13c-0.32,2.59-1.88,4.79-4.06,6c1.6,1.63,3.74,2.71,6.13,2.95V13H8.93z"/></g></g></g></symbol>
<symbol id="sports_cricket" viewBox="0 0 24 24"><g><rect fill="none" height="24" width="24"/><rect fill="none" height="24" width="24"/></g><g><g><g><path d="M15.05,12.81L6.56,4.32c-0.39-0.39-1.02-0.39-1.41,0L2.32,7.15c-0.39,0.39-0.39,1.02,0,1.41l8.49,8.49 c0.39,0.39,1.02,0.39,1.41,0l2.83-2.83C15.44,13.83,15.44,13.2,15.05,12.81z"/><path d="M14.34,17.76l3.53,3.53c0.39,0.39,1.03,0.39,1.42,0l0,0c0.39-0.39,0.39-1.03,0-1.42l-3.53-3.53L14.34,17.76z"/></g><circle cx="18.5" cy="5.5" r="3.5"/></g></g></symbol>
<symbol id="sports_esports" viewBox="0 0 24 24"><g><rect fill="none" height="24" width="24"/><rect fill="none" height="24" width="24"/></g><g><g><path d="M21.58,16.09l-1.09-7.66C20.21,6.46,18.52,5,16.53,5H7.47C5.48,5,3.79,6.46,3.51,8.43l-1.09,7.66 C2.2,17.63,3.39,19,4.94,19h0c0.68,0,1.32-0.27,1.8-0.75L9,16h6l2.25,2.25c0.48,0.48,1.13,0.75,1.8,0.75h0 C20.61,19,21.8,17.63,21.58,16.09z M11,11H9v2H8v-2H6v-1h2V8h1v2h2V11z M15,10c-0.55,0-1-0.45-1-1c0-0.55,0.45-1,1-1s1,0.45,1,1 C16,9.55,15.55,10,15,10z M17,13c-0.55,0-1-0.45-1-1c0-0.55,0.45-1,1-1s1,0.45,1,1C18,12.55,17.55,13,17,13z"/></g></g></symbol>
<symbol id="sports_football" viewBox="0 0 24 24"><g><rect fill="none" height="24" width="24"/><rect fill="none" height="24" width="24"/></g><g><g><path d="M3.02,15.62c-0.08,2.42,0.32,4.34,0.67,4.69s2.28,0.76,4.69,0.67L3.02,15.62z"/><path d="M13.08,3.28C10.75,3.7,8.29,4.62,6.46,6.46s-2.76,4.29-3.18,6.62l7.63,7.63c2.34-0.41,4.79-1.34,6.62-3.18 s2.76-4.29,3.18-6.62L13.08,3.28z M14.8,10.6l-4.2,4.2c-0.39,0.39-1.01,0.39-1.4,0s-0.39-1.01,0-1.4l4.2-4.2 c0.39-0.39,1.01-0.39,1.4,0S15.19,10.21,14.8,10.6z"/><path d="M20.98,8.38c0.08-2.42-0.32-4.34-0.67-4.69s-2.28-0.76-4.69-0.67L20.98,8.38z"/></g></g></symbol>
<symbol id="sports_golf" viewBox="0 0 24 24"><g><rect fill="none" height="24" width="24"/><rect fill="none" height="24" width="24"/></g><g><g><path d="M12,16c3.87,0,7-3.13,7-7c0-3.87-3.13-7-7-7C8.13,2,5,5.13,5,9C5,12.87,8.13,16,12,16z M12,4c2.76,0,5,2.24,5,5 s-2.24,5-5,5s-5-2.24-5-5S9.24,4,12,4z"/><circle cx="10" cy="8" r="1"/><circle cx="14" cy="8" r="1"/><circle cx="12" cy="6" r="1"/><path d="M16,17H8c-0.55,0-1,0.45-1,1c0,0.55,0.45,1,1,1h1c1.1,0,2,0.9,2,2v1h2v-1c0-1.1,0.9-2,2-2h1c0.55,0,1-0.45,1-1 C17,17.45,16.55,17,16,17z"/></g></g></symbol>
<symbol id="sports_handball" viewBox="0 0 24 24"><g><rect fill="none" height="24" width="24"/><rect fill="none" height="24" width="24"/></g><g><g><path d="M14.27,6C13.72,6.95,14.05,8.18,15,8.73c0.95,0.55,2.18,0.22,2.73-0.73c0.55-0.95,0.22-2.18-0.73-2.73 C16.05,4.72,14.82,5.05,14.27,6z"/><path d="M15.84,10.41c0,0-1.63-0.94-2.6-1.5c-2.13-1.24-3.01-3.83-2.18-6.07c0.17-0.46-0.01-0.97-0.43-1.21 C10.1,1.33,9.41,1.56,9.2,2.13C8.25,4.64,8.85,7.48,10.66,9.4l-4.65,8.05c-0.28,0.48-0.11,1.09,0.37,1.37 c0.48,0.28,1.09,0.11,1.37-0.37l1-1.73l1.73,1l-2.5,4.33c-0.28,0.48-0.11,1.09,0.37,1.37c0.48,0.28,1.09,0.11,1.37-0.37 l5.79-10.02c0.98,1.34,1.26,3.12,0.66,4.72c-0.17,0.45,0.02,0.96,0.43,1.2c0.53,0.31,1.22,0.08,1.44-0.5 C19.01,15.83,18.45,12.61,15.84,10.41z"/><path d="M12.75,3.8c0.72,0.41,1.63,0.17,2.05-0.55c0.41-0.72,0.17-1.63-0.55-2.05c-0.72-0.41-1.63-0.17-2.05,0.55 C11.79,2.47,12.03,3.39,12.75,3.8z"/></g></g></symbol>
<symbol id="sports_hockey" viewBox="0 0 24 24"><g><rect fill="none" height="24" width="24"/><rect fill="none" height="24" width="24"/></g><g><g><path d="M2,17v3l2,0v-4H3C2.45,16,2,16.45,2,17z"/><path d="M9,16H5v4l4.69-0.01c0.38,0,0.72-0.21,0.89-0.55l0.87-1.9l-1.59-3.48L9,16z"/><g><path d="M21.71,16.29C21.53,16.11,21.28,16,21,16h-1v4l2,0v-3C22,16.72,21.89,16.47,21.71,16.29z"/></g><path d="M13.6,12.84L17.65,4H14.3l-1.76,3.97l-0.49,1.1L12,9.21L9.7,4H6.35l4.05,8.84l1.52,3.32L12,16.34l1.42,3.1 c0.17,0.34,0.51,0.55,0.89,0.55L19,20v-4h-4L13.6,12.84z"/></g></g></symbol>
<symbol id="sports_kabaddi" viewBox="0 0 24 24"><g><rect fill="none" height="24" width="24"/><rect fill="none" height="24" width="24"/></g><g><g><circle cx="16.5" cy="2.38" r="2"/><path d="M24,10.88v-3.7l-4.99-2.11c-0.98-0.41-2.12-0.07-2.71,0.81l0,0l-1,1.6c-0.67,1.18-1.91,2.06-3.41,2.32l0.06,0.06 c0.69,0.69,1.52,1.07,2.46,1.17c0.8-0.42,1.52-0.98,2.09-1.64l0.6,3l-1.16,1.1L15,14.38v0.76v5.74c0,0.55,0.45,1,1,1h0 c0.55,0,1-0.45,1-1v-5l2.1-2l1.62,7.19c0.11,0.47,0.53,0.81,1.02,0.81h0c0.66,0,1.15-0.6,1.02-1.24l-1.94-9.76l-0.62-3.1l1.8,0.7 v2.4c0,0.55,0.45,1,1,1h0C23.55,11.88,24,11.43,24,10.88z"/><path d="M10.29,8.09c0.22,0.15,0.47,0.24,0.72,0.29c0.13,0.02,0.25,0.04,0.38,0.04s0.26-0.01,0.38-0.04 c0.13-0.02,0.25-0.06,0.37-0.11c0.24-0.1,0.47-0.24,0.66-0.44c0.49-0.49,0.67-1.17,0.55-1.8C13.28,5.66,13.1,5.29,12.8,5 c-0.19-0.19-0.42-0.34-0.66-0.44c-0.12-0.05-0.24-0.09-0.37-0.11s-0.25-0.04-0.38-0.04c-0.12,0-0.23,0.01-0.35,0.03 c-0.14,0.02-0.28,0.06-0.41,0.11C10.4,4.66,10.17,4.81,9.98,5C9.68,5.29,9.5,5.66,9.43,6.03c-0.12,0.63,0.06,1.31,0.55,1.8 C10.07,7.93,10.18,8.01,10.29,8.09z"/><path d="M11.24,10.56l-2-2c-0.1-0.1-0.2-0.18-0.31-0.26C8.71,8.16,8.46,8.06,8.21,8.02C8.08,7.99,7.96,7.98,7.83,7.98 c-0.51,0-1.02,0.2-1.41,0.59l-3.34,3.34c-0.41,0.41-0.62,0.98-0.58,1.54C2.5,13.63,2.54,13.82,2.61,14l1.07,2.95l-2.92,2.92 c-0.39,0.39-0.39,1.02,0,1.41l0,0c0.39,0.39,1.02,0.39,1.41,0l3.54-3.54v-2.22L7,16.75v4.13c0,0.55,0.45,1,1,1h0 c0.55,0,1-0.45,1-1v-5l-2.12-2.12l2.36-2.36l0.71,0.71l0,0c1.02,1,2.28,1.69,3.79,1.94c0.64,0.11,1.21-0.45,1.16-1.1v0 c-0.03-0.48-0.4-0.87-0.87-0.94C12.9,11.83,11.97,11.29,11.24,10.56z"/></g></g></symbol>
<symbol id="sports_mma" viewBox="0 0 24 24"><g><rect fill="none" height="24" width="24"/><rect fill="none" height="24" width="24"/></g><g><g><path d="M7,20c0,0.55,0.45,1,1,1h8c0.55,0,1-0.45,1-1v-3H7V20z"/><path d="M18,7c-0.55,0-1,0.45-1,1V5c0-1.1-0.9-2-2-2H7C5.9,3,5,3.9,5,5v5.8c0,0.13,0.01,0.26,0.04,0.39l0.8,4 c0.09,0.47,0.5,0.8,0.98,0.8h10.36c0.45,0,0.89-0.36,0.98-0.8l0.8-4C18.99,11.06,19,10.93,19,10.8V8C19,7.45,18.55,7,18,7z M14,10 H8c-0.55,0-1-0.45-1-1V8c0-0.55,0.45-1,1-1h6c0.55,0,1,0.45,1,1v1C15,9.55,14.55,10,14,10z"/></g></g></symbol>
<symbol id="sports_motorsports" viewBox="0 0 24 24"><g><rect fill="none" height="24" width="24"/><rect fill="none" height="24" width="24"/></g><g><g><path d="M12,11.39c0-0.65-0.39-1.23-0.98-1.48L5.44,7.55c-1.48,1.68-2.32,3.7-2.8,5.45h7.75C11.28,13,12,12.28,12,11.39z"/><path d="M21.96,11.22c-0.41-4.41-4.56-7.49-8.98-7.2c-2.51,0.16-4.44,0.94-5.93,2.04l4.74,2.01c1.33,0.57,2.2,1.87,2.2,3.32 c0,1.99-1.62,3.61-3.61,3.61H2.21C2,16.31,2,17.2,2,17.2V18c0,1.1,0.9,2,2,2h10C18.67,20,22.41,15.99,21.96,11.22z"/></g></g></symbol>
<symbol id="sports_rugby" viewBox="0 0 24 24"><g><rect fill="none" height="24" width="24"/><rect fill="none" height="24" width="24"/></g><g><g><path d="M20.49,3.51c-0.56-0.56-2.15-0.97-4.16-0.97c-3.08,0-7.15,0.96-9.98,3.79C1.66,11.03,2.1,19.07,3.51,20.49 c0.56,0.56,2.15,0.97,4.16,0.97c3.08,0,7.15-0.96,9.98-3.79C22.34,12.97,21.9,4.93,20.49,3.51z M7.76,7.76 c2.64-2.64,6.35-3.12,8.03-3.19c-2.05,0.94-4.46,2.45-6.61,4.61c-2.16,2.16-3.67,4.58-4.61,6.63C4.66,13.33,5.44,10.07,7.76,7.76z M16.24,16.24c-2.64,2.64-6.35,3.12-8.03,3.19c2.05-0.94,4.46-2.45,6.61-4.61c2.16-2.16,3.67-4.58,4.62-6.63 C19.34,10.67,18.56,13.93,16.24,16.24z"/></g></g></symbol>
<symbol id="sports_soccer" viewBox="0 0 24 24"><g><rect fill="none" height="24" width="24"/><rect fill="none" height="24" width="24"/></g><g><g><path d="M12,2C6.48,2,2,6.48,2,12c0,5.52,4.48,10,10,10s10-4.48,10-10C22,6.48,17.52,2,12,2z M13,5.3l1.35-0.95 c1.82,0.56,3.37,1.76,4.38,3.34l-0.39,1.34l-1.35,0.46L13,6.7V5.3z M9.65,4.35L11,5.3v1.4L7.01,9.49L5.66,9.03L5.27,7.69 C6.28,6.12,7.83,4.92,9.65,4.35z M7.08,17.11l-1.14,0.1C4.73,15.81,4,13.99,4,12c0-0.12,0.01-0.23,0.02-0.35l1-0.73L6.4,11.4 l1.46,4.34L7.08,17.11z M14.5,19.59C13.71,19.85,12.87,20,12,20s-1.71-0.15-2.5-0.41l-0.69-1.49L9.45,17h5.11l0.64,1.11 L14.5,19.59z M14.27,15H9.73l-1.35-4.02L12,8.44l3.63,2.54L14.27,15z M18.06,17.21l-1.14-0.1l-0.79-1.37l1.46-4.34l1.39-0.47 l1,0.73C19.99,11.77,20,11.88,20,12C20,13.99,19.27,15.81,18.06,17.21z"/></g></g></symbol>
<symbol id="sports_tennis" viewBox="0 0 24 24"><g><rect fill="none" height="24" width="24"/><rect fill="none" height="24" width="24"/></g><g><path d="M19.52,2.49c-2.34-2.34-6.62-1.87-9.55,1.06c-1.6,1.6-2.52,3.87-2.54,5.46c-0.02,1.58,0.26,3.89-1.35,5.5l-3.54,3.53 c-0.39,0.39-0.39,1.02,0,1.42l0,0c0.39,0.39,1.02,0.39,1.42,0l3.53-3.54c1.61-1.61,3.92-1.33,5.5-1.35s3.86-0.94,5.46-2.54 C21.38,9.11,21.86,4.83,19.52,2.49z M10.32,11.68c-1.53-1.53-1.05-4.61,1.06-6.72s5.18-2.59,6.72-1.06 c1.53,1.53,1.05,4.61-1.06,6.72S11.86,13.21,10.32,11.68z"/><path d="M18,17c0.53,0,1.04,0.21,1.41,0.59c0.78,0.78,0.78,2.05,0,2.83C19.04,20.79,18.53,21,18,21s-1.04-0.21-1.41-0.59 c-0.78-0.78-0.78-2.05,0-2.83C16.96,17.21,17.47,17,18,17 M18,15c-1.02,0-2.05,0.39-2.83,1.17c-1.56,1.56-1.56,4.09,0,5.66 C15.95,22.61,16.98,23,18,23s2.05-0.39,2.83-1.17c1.56-1.56,1.56-4.09,0-5.66C20.05,15.39,19.02,15,18,15L18,15z"/></g></symbol>
<symbol id="sports_volleyball" viewBox="0 0 24 24"><g><rect fill="none" height="24" width="24"/><rect fill="none" height="24" width="24"/></g><g><g><path d="M6,4.01C3.58,5.84,2,8.73,2,12c0,1.46,0.32,2.85,0.89,4.11L6,14.31V4.01z"/><path d="M11,11.42V2.05C9.94,2.16,8.93,2.43,8,2.84v10.32L11,11.42z"/><path d="M12,13.15l-8.11,4.68c0.61,0.84,1.34,1.59,2.18,2.2L15,14.89L12,13.15z"/><path d="M13,7.96v3.46l8.11,4.68c0.42-0.93,0.7-1.93,0.82-2.98L13,7.96z"/><path d="M8.07,21.2C9.28,21.71,10.6,22,12,22c3.34,0,6.29-1.65,8.11-4.16L17,16.04L8.07,21.2z"/><path d="M21.92,10.81c-0.55-4.63-4.26-8.3-8.92-8.76v3.6L21.92,10.81z"/></g></g></symbol>
<symbol id="thumb_down_alt" viewBox="0 0 24 24"><path d="M0 0h24v24H0V0z" fill="none" opacity=".87"/><path d="M10.88 21.94l5.53-5.54c.37-.37.58-.88.58-1.41V5c0-1.1-.9-2-2-2H6c-.8 0-1.52.48-1.83 1.21L.91 11.82C.06 13.8 1.51 16 3.66 16h5.65l-.95 4.58c-.1.5.05 1.01.41 1.37.59.58 1.53.58 2.11-.01zM21 3c-1.1 0-2 .9-2 2v8c0 1.1.9 2 2 2s2-.9 2-2V5c0-1.1-.9-2-2-2z"/></symbol>
<symbol id="thumb_up_alt" viewBox="0 0 24 24"><path d="M0 0h24v24H0V0z" fill="none" opacity=".87"/><path d="M13.12 2.06L7.58 7.6c-.37.37-.58.88-.58 1.41V19c0 1.1.9 2 2 2h9c.8 0 1.52-.48 1.84-1.21l3.26-7.61C23.94 10.2 22.49 8 20.34 8h-5.65l.95-4.58c.1-.5-.05-1.01-.41-1.37-.59-.58-1.53-.58-2.11.01zM3 21c1.1 0 2-.9 2-2v-8c0-1.1-.9-2-2-2s-2 .9-2 2v8c0 1.1.9 2 2 2z"/></symbol>
<symbol id="whatshot" viewBox="0 0 24 24"><path d="M0 0h24v24H0V0z" fill="none"/><path d="M17.09 4.56c-.7-1.03-1.5-1.99-2.4-2.85-.35-.34-.94-.02-.84.46.19.94.39 2.18.39 3.29 0 2.06-1.35 3.73-3.41 3.73-1.54 0-2.8-.93-3.35-2.26-.1-.2-.14-.32-.2-.54-.11-.42-.66-.55-.9-.18-.18.27-.35.54-.51.83C4.68 9.08 4 11.46 4 14c0 4.42 3.58 8 8 8s8-3.58 8-8c0-3.49-1.08-6.73-2.91-9.44zM11.71 19c-1.78 0-3.22-1.4-3.22-3.14 0-1.62 1.05-2.76 2.81-3.12 1.47-.3 2.98-.93 4.03-1.92.28-.26.74-.14.82.23.23 1.02.35 2.08.35 3.15.01 2.65-2.14 4.8-4.79 4.8z"/></symbol>
</svg>