<svg xmlns="http://www.w3.org/2000/svg">
<symbol id="3d_rotation" viewBox="0 0 24 24"><path d="M0 0h24v24H0V0z" fill="none"/><path d="M7.53 21.48C4.26 19.94 1.92 16.76 1.56 13H.06c.51 6.16 5.66 11 11.95 11l.66-.03-3.81-3.81-1.33 1.32zm.89-6.52c-.19 0-.37-.03-.52-.08-.16-.06-.29-.13-.4-.24-.11-.1-.2-.22-.26-.37-.06-.14-.09-.3-.09-.47h-1.3c0 .36.07.68.21.95.14.27.33.5.56.69.24.18.51.32.82.41.3.1.62.15.96.15.37 0 .72-.05 1.03-.15.32-.1.6-.25.83-.44s.42-.43.55-.72.2-.61.2-.97c0-.19-.02-.38-.07-.56-.05-.18-.12-.35-.23-.51-.1-.16-.24-.3-.4-.43-.17-.13-.37-.23-.61-.31.2-.09.37-.2.52-.33.15-.13.27-.27.37-.42.1-.15.17-.3.22-.46s.07-.32.07-.48c0-.36-.06-.68-.18-.96s-.29-.51-.51-.69c-.2-.19-.47-.33-.77-.43C9.11 8.05 8.77 8 8.4 8c-.36 0-.69.05-1 .16-.3.11-.57.26-.79.45-.21.19-.38.41-.51.67-.12.26-.18.54-.18.85h1.3c0-.17.03-.32.09-.45s.14-.25.25-.34.23-.17.38-.22.3-.08.48-.08c.4 0 .7.1.89.31.19.2.29.49.29.86 0 .18-.03.34-.08.49s-.14.27-.25.37c-.11.1-.25.18-.41.24-.16.06-.36.09-.58.09h-.77v1.03h.77c.22 0 .42.02.6.07s.33.13.45.23c.12.11.22.24.29.4s.1.35.1.57c0 .41-.12.72-.35.93-.23.23-.55.33-.95.33zm8.55-5.92c-.32-.33-.7-.59-1.14-.77-.44-.18-.93-.27-1.47-.27H12v8h2.3c.55 0 1.06-.09 1.51-.27s.84-.43 1.16-.76c.32-.33.57-.73.74-1.19.17-.47.26-.99.26-1.57v-.4c0-.58-.09-1.1-.26-1.57s-.42-.87-.74-1.2zm-.39 3.16c0 .42-.05.79-.14 1.13-.1.33-.24.62-.43.85-.19.23-.43.41-.71.53-.29.12-.62.18-.99.18h-.91V9.12h.97c.72 0 1.27.23 1.64.69.38.46.57 1.12.57 1.99v.4zM12.01 0l-.66.03 3.81 3.81 1.33-1.33c3.27 1.55 5.61 4.72 5.96 8.48h1.5C23.45 4.84 18.3 0 12.01 0z"/></symbol>
<symbol id="accessibility" viewBox="0 0 24 24"><path d="M0 0h24v24H0V0z" fill="none"/><path d="M12 2c1.1 0 2 .9 2 2s-.9 2-2 2-2-.9-2-2 .9-2 2-2zm9 7h-6v13h-2v-6h-2v6H9V9H3V7h18v2z"/></symbol>
<symbol id="accessibility_new" viewBox="0 0 24 24"><path d="M0 0h24v24H0V0z" fill="none"/><path d="M20.5 6c-2.61.7-5.67 1-8.5 1s-5.89-.3-8.5-1L3 8c1.86.5 4 .83 6 1v13h2v-6h2v6h2V9c2-.17 4.14-.5 6-1l-.5-2zM12 6c1.1 0 2-.9 2-2s-.9-2-2-2-2 .9-2 2 .9 2 2 2z"/></symbol>
<symbol id="accessible" viewBox="0 0 24 24"><path d="M0 0h24v24H0V0z" fill="none"/><circle cx="12" cy="4" r="2"/><path d="M19 13v-2c-1.54.02-3.09-.75-4.07-1.83l-1.29-1.43c-.17-.19-.38-.34-.61-.45-.01 0-.01-.01-.02-.01H13c-.37-.21-.78-.31-1.25-.25C10.73 7.15 10 8.07 10 9.1V17h7v5h2v-7.5h-5v-3.45c1.29 1.07 3.25 1.94 5 1.95zm-6.17 5c-.41 1.16-1.52 2-2.83 2-1.66 0-3-1.34-3-3 0-1.31.84-2.41 2-2.83V12.1c-2.28.46-4 2.48-4 4.9 0 2.76 2.24 5 5 5 2.42 0 4.44-1.72 4.9-4h-2.07z"/></symbol>
<symbol id="accessible_forward" viewBox="0 0 24 24"><path d="M0 0h24v24H0V0z" fill="none"/><circle cx="18" cy="4.54" r="2"/><path d="M15 17h-2c0 1.65-1.35 3-3 3s-3-1.35-3-3 1.35-3 3-3v-2c-2.76 0-5 2.24-5 5s2.24 5 5 5 5-2.24 5-5zm5-3.5h-3.86l1.67-3.67C18.42 8.5 17.44 7 15.96 7h-5.2c-.81 0-1.54.47-1.87 1.2L8.22 10l1.92.53.65-1.53H13l-3.12 7H18v5h2v-7.5z"/></symbol>
<symbol id="account_balance" viewBox="0 0 24 24"><path d="M0 0h24v24H0V0z" fill="none"/><path d="M4 10v7h3v-7H4zm6 0v7h3v-7h-3zM2 22h19v-3H2v3zm14-12v7h3v-7h-3zm-4.5-9L2 6v2h19V6l-9.5-5z"/></symbol>
<symbol id="account_balance_wallet" viewBox="0 0 24 24"><path d="M0 0h24v24H0V0z" fill="none"/><path d="M21 18v3H3V3h18v3H10v12h11zm-9-2h10V8H12v8zm4-2.5c-.83 0-1.5-.67-1.5-1.5s.67-1.5 1.5-1.5 1.5.67 1.5 1.5-.67 1.5-1.5 1.5z"/></symbol>
<symbol id="account_box" viewBox="0 0 24 24"><path d="M0 0h24v24H0V0z" fill="none"/><path d="M3 21h18V3H3v18zM15 9c0 1.66-1.34 3-3 3s-3-1.34-3-3 1.34-3 3-3 3 1.34 3 3zm-9 8c0-2 4-3.1 6-3.1s6 1.1 6 3.1v1H6v-1z"/></symbol>
<symbol id="account_circle" viewBox="0 0 24 24"><path d="M0 0h24v24H0V0z" fill="none"/><path d="M12 2C6.48 2 2 6.48 2 12s4.48 10 10 10 10-4.48 10-10S17.52 2 12 2zm0 3c1.66 0 3 1.34 3 3s-1.34 3-3 3-3-1.34-3-3 1.34-3 3-3zm0 14.2c-2.5 0-4.71-1.28-6-3.22.03-1.99 4-3.08 6-3.08 1.99 0 5.97 1.09 6 3.08-1.29 1.94-3.5 3.22-6 3.22z"/></symbol>
<symbol id="addchart" viewBox="0 0 24 24"><g><rect fill="none" height="24" width="24"/><path d="M11,9h2v8h-2V9z M9,17v-6H7v6H9z M19,19H5V5h6V3H3v18h18v-8h-2V19z M15,13v4h2v-4H15z M19,5V2h-2v3h-3v2h3v3h2V7h3V5H19z"/></g><g/></symbol>
<symbol id="add_shopping_cart" viewBox="0 0 24 24"><path d="M0 0h24v24H0V0z" fill="none"/><path d="M11 9h2V6h3V4h-3V1h-2v3H8v2h3v3zm-4 9c-1.1 0-1.99.9-1.99 2S5.9 22 7 22s2-.9 2-2-.9-2-2-2zm10 0c-1.1 0-1.99.9-1.99 2s.89 2 1.99 2 2-.9 2-2-.9-2-2-2zm-8.9-5h7.45c.75 0 1.41-.41 1.75-1.03l3.86-7.01L19.42 4l-3.87 7H8.53L4.27 2H1v2h2l3.6 7.59L3.62 17H19v-2H7l1.1-2z"/></symbol>
<symbol id="add_task" viewBox="0 0 24 24"><rect fill="none" height="24" width="24"/><path d="M22,5.18L10.59,16.6l-4.24-4.24l1.41-1.41l2.83,2.83l10-10L22,5.18z M12,20c-4.41,0-8-3.59-8-8s3.59-8,8-8 c1.57,0,3.04,0.46,4.28,1.25l1.45-1.45C16.1,2.67,14.13,2,12,2C6.48,2,2,6.48,2,12s4.48,10,10,10c1.73,0,3.36-0.44,4.78-1.22 l-1.5-1.5C14.28,19.74,13.17,20,12,20z M19,15h-3v2h3v3h2v-3h3v-2h-3v-3h-2V15z"/></symbol>
<symbol id="admin_panel_settings" viewBox="0 0 24 24"><g><rect fill="none" height="24" width="24"/></g><g><g><path d="M17,11c0.34,0,0.67,0.04,1,0.09V6.27L10.5,3L3,6.27v4.91c0,4.54,3.2,8.79,7.5,9.82c0.55-0.13,1.08-0.32,1.6-0.55 C11.41,19.47,11,18.28,11,17C11,13.69,13.69,11,17,11z"/><path d="M17,13c-2.21,0-4,1.79-4,4c0,2.21,1.79,4,4,4s4-1.79,4-4C21,14.79,19.21,13,17,13z M17,14.38c0.62,0,1.12,0.51,1.12,1.12 s-0.51,1.12-1.12,1.12s-1.12-0.51-1.12-1.12S16.38,14.38,17,14.38z M17,19.75c-0.93,0-1.74-0.46-2.24-1.17 c0.05-0.72,1.51-1.08,2.24-1.08s2.19,0.36,2.24,1.08C18.74,19.29,17.93,19.75,17,19.75z"/></g></g></symbol>
<symbol id="alarm" viewBox="0 0 24 24"><path d="M0 0h24v24H0V0z" fill="none"/><path d="M12.5 8H11v6l4.75 2.85.75-1.23-4-2.37zm4.837-6.19l4.607 3.845-1.28 1.535-4.61-3.843zm-10.674 0l1.282 1.536L3.337 7.19l-1.28-1.536zM12 4c-4.97 0-9 4.03-9 9s4.03 9 9 9 9-4.03 9-9-4.03-9-9-9zm0 16c-3.86 0-7-3.14-7-7s3.14-7 7-7 7 3.14 7 7-3.14 7-7 7z"/></symbol>
<symbol id="alarm_add" viewBox="0 0 24 24"><path d="M0 0h24v24H0V0z" fill="none"/><path d="M17.337 1.81l4.607 3.845-1.28 1.535-4.61-3.843zm-10.674 0l1.282 1.536L3.337 7.19l-1.28-1.536zM12 4c-4.97 0-9 4.03-9 9s4.03 9 9 9 9-4.03 9-9-4.03-9-9-9zm0 16c-3.86 0-7-3.14-7-7s3.14-7 7-7 7 3.14 7 7-3.14 7-7 7zm1-11h-2v3H8v2h3v3h2v-3h3v-2h-3z"/></symbol>
<symbol id="alarm_off" viewBox="0 0 24 24"><path d="M0 0h24v24H0V0z" fill="none"/><path d="M10.04 6.29C10.66 6.11 11.32 6 12 6c3.86 0 7 3.14 7 7 0 .68-.11 1.34-.29 1.96l1.56 1.56c.47-1.08.73-2.27.73-3.52 0-4.97-4.03-9-9-9-1.25 0-2.44.26-3.53.72l1.57 1.57zm7.297-4.48l4.607 3.845-1.28 1.535-4.61-3.843zM3.02 2.1L1.61 3.51l1.37 1.37-.92.77 1.28 1.54 1.06-.88.8.8C3.83 8.69 3 10.75 3 13c0 4.97 4.03 9 9 9 2.25 0 4.31-.83 5.89-2.2l2.1 2.1 1.41-1.41L3.02 2.1zM12 20c-3.86 0-7-3.14-7-7 0-1.7.61-3.26 1.62-4.47l9.85 9.85C15.26 19.39 13.7 20 12 20zM7.48 3.73l.46-.38-1.28-1.54-.6.5z"/></symbol>
<symbol id="alarm_on" viewBox="0 0 24 24"><path d="M0 0h24v24H0V0z" fill="none"/><path d="M10.54 14.53L8.41 12.4l-1.06 1.06 3.18 3.18 6-6-1.06-1.06zm6.797-12.72l4.607 3.845-1.28 1.535-4.61-3.843zm-10.674 0l1.282 1.536L3.337 7.19l-1.28-1.536zM12 4c-4.97 0-9 4.03-9 9s4.03 9 9 9 9-4.03 9-9-4.03-9-9-9zm0 16c-3.86 0-7-3.14-7-7s3.14-7 7-7 7 3.14 7 7-3.14 7-7 7z"/></symbol>
<symbol id="all_inbox" viewBox="0 0 24 24"><path d="M0 0h24v24H0V0z" fill="none"/><path d="M21 3H3v11h18V3zm-2 6h-4c0 1.62-1.38 3-3 3s-3-1.38-3-3H5V5h14v4zm-4 7h6v5H3v-5h6c0 1.66 1.34 3 3 3s3-1.34 3-3z"/></symbol>
<symbol id="all_out" viewBox="0 0 24 24"><path d="M0 0h24v24H0V0z" fill="none"/><path d="M4 4v4l4-4zm12 0l4 4V4zm4 16v-4l-4 4zM4 20h4l-4-4zm15-8c0-3.87-3.13-7-7-7s-7 3.13-7 7 3.13 7 7 7 7-3.13 7-7zm-7 5c-2.76 0-5-2.24-5-5s2.24-5 5-5 5 2.24 5 5-2.24 5-5 5z"/></symbol>
<symbol id="analytics" viewBox="0 0 24 24"><rect fill="none" height="24" width="24"/><rect fill="none" height="5" width="2" x="7" y="12"/><rect fill="none" height="3" width="2" x="11" y="14"/><rect fill="none" height="10" width="2" x="15" y="7"/><path d="M3,3v18h18V3H3z M9,17H7v-5h2V17z M13,17h-2v-3h2V17z M13,12h-2v-2h2V12z M17,17h-2V7h2V17z"/></symbol>
<symbol id="anchor" viewBox="0 0 24 24"><g><rect fill="none" height="24" width="24"/><path d="M17,15l1.55,1.55c-0.96,1.69-3.33,3.04-5.55,3.37V11h3V9h-3V7.82C14.16,7.4,15,6.3,15,5c0-1.65-1.35-3-3-3S9,3.35,9,5 c0,1.3,0.84,2.4,2,2.82V9H8v2h3v8.92c-2.22-0.33-4.59-1.68-5.55-3.37L7,15l-4-3v3c0,3.88,4.92,7,9,7s9-3.12,9-7v-3L17,15z M12,4 c0.55,0,1,0.45,1,1s-0.45,1-1,1s-1-0.45-1-1S11.45,4,12,4z"/></g></symbol>
<symbol id="android" viewBox="0 0 24 24"><path d="M0 0h24v24H0V0z" fill="none"/><path d="M6 18c0 .55.45 1 1 1h1v3.5c0 .83.67 1.5 1.5 1.5s1.5-.67 1.5-1.5V19h2v3.5c0 .83.67 1.5 1.5 1.5s1.5-.67 1.5-1.5V19h1c.55 0 1-.45 1-1V8H6v10zM3.5 8C2.67 8 2 8.67 2 9.5v7c0 .83.67 1.5 1.5 1.5S5 17.33 5 16.5v-7C5 8.67 4.33 8 3.5 8zm17 0c-.83 0-1.5.67-1.5 1.5v7c0 .83.67 1.5 1.5 1.5s1.5-.67 1.5-1.5v-7c0-.83-.67-1.5-1.5-1.5zm-4.97-5.84l1.3-1.3c.2-.2.2-.51 0-.71s-.51-.2-.71 0l-1.48 1.48C13.85 1.23 12.95 1 12 1c-.96 0-1.86.23-2.66.63L7.85.15c-.2-.2-.51-.2-.71 0-.2.2-.2.51 0 .71l1.31 1.31C6.97 3.26 6 5.01 6 7h12c0-1.99-.97-3.75-2.47-4.84zM10 5H9V4h1v1zm5 0h-1V4h1v1z"/></symbol>
<symbol id="announcement" viewBox="0 0 24 24"><path d="M0 0h24v24H0V0z" fill="none"/><path d="M22 2H2v20l4-4h16V2zm-9 9h-2V5h2v6zm0 4h-2v-2h2v2z"/></symbol>
<symbol id="api" viewBox="0 0 24 24"><g><rect fill="none" height="24" width="24"/><path d="M14,12l-2,2l-2-2l2-2L14,12z M12,6l2.12,2.12l2.5-2.5L12,1L7.38,5.62l2.5,2.5L12,6z M6,12l2.12-2.12l-2.5-2.5L1,12 l4.62,4.62l2.5-2.5L6,12z M18,12l-2.12,2.12l2.5,2.5L23,12l-4.62-4.62l-2.5,2.5L18,12z M12,18l-2.12-2.12l-2.5,2.5L12,23l4.62-4.62 l-2.5-2.5L12,18z"/></g></symbol>
<symbol id="app_blocking" viewBox="0 0 24 24"><g><rect fill="none" height="24" width="24"/><g><path d="M18,8c-2.21,0-4,1.79-4,4c0,2.21,1.79,4,4,4s4-1.79,4-4C22,9.79,20.21,8,18,8z M15.5,12c0-1.38,1.12-2.5,2.5-2.5 c0.42,0,0.8,0.11,1.15,0.29l-3.36,3.36C15.61,12.8,15.5,12.42,15.5,12z M18,14.5c-0.42,0-0.8-0.11-1.15-0.29l3.36-3.36 c0.18,0.35,0.29,0.73,0.29,1.15C20.5,13.38,19.38,14.5,18,14.5z"/><path d="M19,23v-6h-2v1H7V6h10v1h2V0.94L5,1v22H19z"/></g></g></symbol>
<symbol id="arrow_circle_down" viewBox="0 0 24 24"><g><rect fill="none" height="24" width="24"/><path d="M12,4c4.41,0,8,3.59,8,8s-3.59,8-8,8s-8-3.59-8-8S7.59,4,12,4 M12,2C6.48,2,2,6.48,2,12c0,5.52,4.48,10,10,10 c5.52,0,10-4.48,10-10C22,6.48,17.52,2,12,2L12,2z M13,12l0-4h-2l0,4H8l4,4l4-4H13z"/></g></symbol>
<symbol id="arrow_circle_up" viewBox="0 0 24 24"><g><rect fill="none" height="24" width="24"/><path d="M12,20c-4.41,0-8-3.59-8-8s3.59-8,8-8s8,3.59,8,8S16.41,20,12,20 M12,22c5.52,0,10-4.48,10-10c0-5.52-4.48-10-10-10 C6.48,2,2,6.48,2,12C2,17.52,6.48,22,12,22L12,22z M11,12l0,4h2l0-4h3l-4-4l-4,4H11z"/></g></symbol>
<symbol id="arrow_right_alt" viewBox="0 0 24 24"><path d="M0 0h24v24H0V0z" fill="none"/><path d="M16.01 11H4v2h12.01v3L20 12l-3.99-4v3z"/></symbol>
<symbol id="article" viewBox="0 0 24 24"><g><rect fill="none" height="24" width="24"/><path d="M3,3v18h18V3H3z M14,17H7v-2h7V17z M17,13H7v-2h10V13z M17,9H7V7h10V9z"/></g></symbol>
<symbol id="aspect_ratio" viewBox="0 0 24 24"><path d="M0 0h24v24H0V0z" fill="none"/><path d="M19 12h-2v3h-3v2h5v-5zM7 9h3V7H5v5h2V9zm16-6H1v18h22V3zm-2 16.01H3V4.99h18v14.02z"/></symbol>
<symbol id="assessment" viewBox="0 0 24 24"><path d="M0 0h24v24H0V0z" fill="none"/><path d="M21 3H3v18h18V3zM9 17H7v-7h2v7zm4 0h-2V7h2v10zm4 0h-2v-4h2v4z"/></symbol>
<symbol id="assignment" viewBox="0 0 24 24"><path d="M0 0h24v24H0V0z" fill="none"/><path d="M21 3h-6.18C14.4 1.84 13.3 1 12 1s-2.4.84-2.82 2H3v18h18V3zm-9 0c.55 0 1 .45 1 1s-.45 1-1 1-1-.45-1-1 .45-1 1-1zm2 14H7v-2h7v2zm3-4H7v-2h10v2zm0-4H7V7h10v2z"/></symbol>
<symbol id="assignment_ind" viewBox="0 0 24 24"><path d="M0 0h24v24H0V0z" fill="none"/><path d="M21 3h-6.18C14.4 1.84 13.3 1 12 1s-2.4.84-2.82 2H3v18h18V3zm-9 0c.55 0 1 .45 1 1s-.45 1-1 1-1-.45-1-1 .45-1 1-1zm0 4c1.66 0 3 1.34 3 3s-1.34 3-3 3-3-1.34-3-3 1.34-3 3-3zm6 12H6v-1.4c0-2 4-3.1 6-3.1s6 1.1 6 3.1V19z"/></symbol>
<symbol id="assignment_late" viewBox="0 0 24 24"><path d="M0 0h24v24H0V0z" fill="none"/><path d="M21 3h-6.18C14.4 1.84 13.3 1 12 1s-2.4.84-2.82 2H3v18h18V3zm-8 15h-2v-2h2v2zm0-4h-2V8h2v6zm-1-9c-.55 0-1-.45-1-1s.45-1 1-1 1 .45 1 1-.45 1-1 1z"/></symbol>
<symbol id="assignment_return" viewBox="0 0 24 24"><path d="M0 0h24v24H0V0z" fill="none"/><path d="M21 3h-6.18C14.4 1.84 13.3 1 12 1s-2.4.84-2.82 2H3v18h18V3zm-9 0c.55 0 1 .45 1 1s-.45 1-1 1-1-.45-1-1 .45-1 1-1zm4 12h-4v3l-5-5 5-5v3h4v4z"/></symbol>
<symbol id="assignment_returned" viewBox="0 0 24 24"><path d="M0 0h24v24H0V0z" fill="none"/><path d="M21 3h-6.18C14.4 1.84 13.3 1 12 1s-2.4.84-2.82 2H3v18h18V3zm-9 0c.55 0 1 .45 1 1s-.45 1-1 1-1-.45-1-1 .45-1 1-1zm0 15l-5-5h3V9h4v4h3l-5 5z"/></symbol>
<symbol id="assignment_turned_in" viewBox="0 0 24 24"><path d="M0 0h24v24H0V0z" fill="none"/><path d="M21 3h-6.18C14.4 1.84 13.3 1 12 1s-2.4.84-2.82 2H3v18h18V3zm-9 0c.55 0 1 .45 1 1s-.45 1-1 1-1-.45-1-1 .45-1 1-1zm-2 14l-4-4 1.41-1.41L10 14.17l6.59-6.59L18 9l-8 8z"/></symbol>
<symbol id="autorenew" viewBox="0 0 24 24"><path d="M0 0h24v24H0V0z" fill="none"/><path d="M12 6v3l4-4-4-4v3c-4.42 0-8 3.58-8 8 0 1.57.46 3.03 1.24 4.26L6.7 14.8c-.45-.83-.7-1.79-.7-2.8 0-3.31 2.69-6 6-6zm6.76 1.74L17.3 9.2c.44.84.7 1.79.7 2.8 0 3.31-2.69 6-6 6v-3l-4 4 4 4v-3c4.42 0 8-3.58 8-8 0-1.57-.46-3.03-1.24-4.26z"/></symbol>
<symbol id="backup" viewBox="0 0 24 24"><path d="M0 0h24v24H0V0z" fill="none"/><path d="M19.35 10.04C18.67 6.59 15.64 4 12 4 9.11 4 6.6 5.64 5.35 8.04 2.34 8.36 0 10.91 0 14c0 3.31 2.69 6 6 6h13c2.76 0 5-2.24 5-5 0-2.64-2.05-4.78-4.65-4.96zM14 13v4h-4v-4H7l5-5 5 5h-3z"/></symbol>
<symbol id="backup_table" viewBox="0 0 24 24"><g><rect fill="none" height="24" width="24"/></g><g><g><polygon points="20,6 20,20 6,20 6,22 22,22 22,6"/><path d="M18,2H2v16h16V2z M9,16H4v-5h5V16z M16,16h-5v-5h5V16z M16,9H4V4h12V9z"/></g></g></symbol>
<symbol id="batch_prediction" viewBox="0 0 24 24"><g><rect fill="none" height="24" width="24" x="0"/><path d="M19,8H5v14h14V8z M13,20.5h-2V19h2V20.5z M13,18h-2c0-1.5-2.5-3-2.5-5c0-1.93,1.57-3.5,3.5-3.5c1.93,0,3.5,1.57,3.5,3.5 C15.5,15,13,16.5,13,18z M18,6.5H6V5h12V6.5z M17,3.5H7V2h10V3.5z"/></g></symbol>
<symbol id="book" viewBox="0 0 24 24"><path d="M0 0h24v24H0V0z" fill="none"/><path d="M20 2H4v20h16V2zM6 4h5v8l-2.5-1.5L6 12V4z"/></symbol>
<symbol id="bookmark" viewBox="0 0 24 24"><path d="M0 0h24v24H0V0z" fill="none"/><path d="M19 3H5v18l7-3 7 3V3z"/></symbol>
<symbol id="bookmarks" viewBox="0 0 24 24"><path d="M0 0h24v24H0V0z" fill="none"/><path d="M19 18l2 1V1H7v2h12v15zM17 5H3v18l7-3 7 3V5z"/></symbol>
<symbol id="bookmark_border" viewBox="0 0 24 24"><path d="M0 0h24v24H0V0z" fill="none"/><path d="M19 3H5v18l7-3 7 3V3zm-2 15l-5-2.18L7 18V5h10v13z"/></symbol>
<symbol id="book_online" viewBox="0 0 24 24"><rect fill="none" height="24" width="24"/><g><path d="M19,1H5v22h14V1z M7,18V6h10v12H7z M16,11l0-3H8l0,3.1c0.55,0,1,0.45,1,1c0,0.55-0.45,1-1,1L8,16h8v-3c-0.55,0-1-0.45-1-1 C15,11.45,15.45,11,16,11z M12.5,14.5h-1v-1h1V14.5z M12.5,12.5h-1v-1h1V12.5z M12.5,10.5h-1v-1h1V10.5z"/></g></symbol>
<symbol id="bug_report" viewBox="0 0 24 24"><path d="M0 0h24v24H0V0z" fill="none"/><path d="M20 8h-2.81c-.45-.78-1.07-1.45-1.82-1.96L17 4.41 15.59 3l-2.17 2.17C12.96 5.06 12.49 5 12 5s-.96.06-1.41.17L8.41 3 7 4.41l1.62 1.63C7.88 6.55 7.26 7.22 6.81 8H4v2h2.09c-.05.33-.09.66-.09 1v1H4v2h2v1c0 .34.04.67.09 1H4v2h2.81c1.04 1.79 2.97 3 5.19 3s4.15-1.21 5.19-3H20v-2h-2.09c.05-.33.09-.66.09-1v-1h2v-2h-2v-1c0-.34-.04-.67-.09-1H20V8zm-6 8h-4v-2h4v2zm0-4h-4v-2h4v2z"/></symbol>
<symbol id="build" viewBox="0 0 24 24"><path d="M0 0h24v24H0V0z" fill="none"/><path d="M12.09 2.91C10.08.9 7.07.49 4.65 1.67l4.34 4.34-3 3-4.34-4.34C.48 7.1.89 10.09 2.9 12.1c1.86 1.86 4.58 2.35 6.89 1.48l9.82 9.82 3.71-3.71-9.78-9.79c.92-2.34.44-5.1-1.45-6.99z"/></symbol>
<symbol id="build_circle" viewBox="0 0 24 24"><g><rect fill="none" height="24" width="24"/></g><g><g><path d="M12,2C6.48,2,2,6.48,2,12c0,5.52,4.48,10,10,10s10-4.48,10-10 C22,6.48,17.52,2,12,2z M15.14,17.25l-3.76-3.76c-1.22,0.43-2.64,0.17-3.62-0.81c-1.11-1.11-1.3-2.79-0.59-4.1l2.35,2.35 l1.41-1.41L8.58,7.17c1.32-0.71,2.99-0.52,4.1,0.59c0.98,0.98,1.24,2.4,0.81,3.62l3.76,3.76L15.14,17.25z" fill-rule="evenodd"/></g></g></symbol>
<symbol id="cached" viewBox="0 0 24 24"><path d="M0 0h24v24H0V0z" fill="none"/><path d="M19 8l-4 4h3c0 3.31-2.69 6-6 6-1.01 0-1.97-.25-2.8-.7l-1.46 1.46C8.97 19.54 10.43 20 12 20c4.42 0 8-3.58 8-8h3l-4-4zM6 12c0-3.31 2.69-6 6-6 1.01 0 1.97.25 2.8.7l1.46-1.46C15.03 4.46 13.57 4 12 4c-4.42 0-8 3.58-8 8H1l4 4 4-4H6z"/></symbol>
<symbol id="calendar_today" viewBox="0 0 24 24"><path d="M0 0h24v24H0V0z" fill="none"/><path d="M22 3h-3V1h-2v2H7V1H5v2H2v20h20V3zm-2 18H4V8h16v13z"/></symbol>
<symbol id="calendar_view_day" viewBox="0 0 24 24"><path d="M0 0h24v24H0V0z" fill="none"/><path d="M3 17h18v2H3v-2zm0-7h18v5H3v-5zm0-4h18v2H3V6z"/></symbol>
<symbol id="camera_enhance" viewBox="0 0 24 24"><path d="M0 0h24v24H0V0z" fill="none"/><path d="M16.83 5L15 3H9L7.17 5H2v16h20V5h-5.17zM12 18c-2.76 0-5-2.24-5-5s2.24-5 5-5 5 2.24 5 5-2.24 5-5 5zm0-9l-1.25 2.75L8 13l2.75 1.25L12 17l1.25-2.75L16 13l-2.75-1.25z"/></symbol>
<symbol id="cancel_schedule_send" viewBox="0 0 24 24"><g><rect fill="none" height="24" width="24"/></g><g><g><path d="M16.5,9c-0.42,0-0.83,0.04-1.24,0.11L1.01,3L1,10l9,2l-9,2l0.01,7l8.07-3.46C9.59,21.19,12.71,24,16.5,24 c4.14,0,7.5-3.36,7.5-7.5S20.64,9,16.5,9z M16.5,22c-3.03,0-5.5-2.47-5.5-5.5s2.47-5.5,5.5-5.5s5.5,2.47,5.5,5.5S19.53,22,16.5,22 z"/><polygon points="18.27,14.03 16.5,15.79 14.73,14.03 14.03,14.73 15.79,16.5 14.03,18.27 14.73,18.97 16.5,17.21 18.27,18.97 18.97,18.27 17.21,16.5 18.97,14.73"/></g></g></symbol>
<symbol id="card_giftcard" viewBox="0 0 24 24"><path d="M0 0h24v24H0V0z" fill="none"/><path d="M22 6h-4.18c.11-.31.18-.65.18-1 0-1.66-1.34-3-3-3-1.05 0-1.96.54-2.5 1.35l-.5.67-.5-.68C10.96 2.54 10.05 2 9 2 7.34 2 6 3.34 6 5c0 .35.07.69.18 1H2.01v15H22V6zm-7-2c.55 0 1 .45 1 1s-.45 1-1 1-1-.45-1-1 .45-1 1-1zM9 4c.55 0 1 .45 1 1s-.45 1-1 1-1-.45-1-1 .45-1 1-1zm11 15H4v-2h16v2zm0-5H4V8h5.08L7 10.83 8.62 12 12 7.4l3.38 4.6L17 10.83 14.92 8H20v6z"/></symbol>
<symbol id="card_membership" viewBox="0 0 24 24"><path d="M0 0h24v24H0V0z" fill="none"/><path d="M22 2H2v15h6v5l4-2 4 2v-5h6V2zm-2 13H4v-2h16v2zm0-5H4V4h16v6z"/></symbol>
<symbol id="card_travel" viewBox="0 0 24 24"><path d="M0 0h24v24H0V0z" fill="none"/><path d="M22 6h-5V4c0-1.1-.9-2-2-2H9c-1.1 0-2 .9-2 2v2H2v15h20V6zM9 4h6v2H9V4zm11 15H4v-2h16v2zm0-5H4V8h3v2h2V8h6v2h2V8h3v6z"/></symbol>
<symbol id="change_history" viewBox="0 0 24 24"><path d="M0 0h24v24H0V0z" fill="none"/><path d="M12 7.77L18.39 18H5.61L12 7.77M12 4L2 20h20L12 4z"/></symbol>
<symbol id="check_circle" viewBox="0 0 24 24"><path d="M0 0h24v24H0V0z" fill="none"/><path d="M12 2C6.48 2 2 6.48 2 12s4.48 10 10 10 10-4.48 10-10S17.52 2 12 2zm-2 15l-5-5 1.41-1.41L10 14.17l7.59-7.59L19 8l-9 9z"/></symbol>
<symbol id="check_circle_outline" viewBox="0 0 24 24"><path d="M0 0h24v24H0V0z" fill="none"/><path d="M12 2C6.48 2 2 6.48 2 12s4.48 10 10 10 10-4.48 10-10S17.52 2 12 2zm0 18c-4.41 0-8-3.59-8-8s3.59-8 8-8 8 3.59 8 8-3.59 8-8 8zm4.59-12.42L10 14.17l-2.59-2.58L6 13l4 4 8-8z"/></symbol>
<symbol id="chrome_reader_mode" viewBox="0 0 24 24"><path d="M0 0h24v24H0V0z" fill="none"/><path d="M13 12h7v1.5h-7V12zm0-2.5h7V11h-7V9.5zm0 5h7V16h-7v-1.5zM23 4H1v17h22V4zm-2 15h-9V6h9v13z"/></symbol>
<symbol id="class" viewBox="0 0 24 24"><path d="M0 0h24v24H0V0z" fill="none"/><path d="M20 2H4v20h16V2zM6 4h5v8l-2.5-1.5L6 12V4z"/></symbol>
<symbol id="close_fullscreen" viewBox="0 0 24 24"><rect fill="none" height="24" width="24"/><path d="M22,3.41l-5.29,5.29L20,12h-8V4l3.29,3.29L20.59,2L22,3.41z M3.41,22l5.29-5.29L12,20v-8H4l3.29,3.29L2,20.59L3.41,22z"/></symbol>
<symbol id="code" viewBox="0 0 24 24"><path d="M0 0h24v24H0V0z" fill="none"/><path d="M9.4 16.6L4.8 12l4.6-4.6L8 6l-6 6 6 6 1.4-1.4zm5.2 0l4.6-4.6-4.6-4.6L16 6l6 6-6 6-1.4-1.4z"/></symbol>
<symbol id="comment_bank" viewBox="0 0 24 24"><g><rect fill="none" height="24" width="24"/></g><g><path d="M2,2v20l4-4h16V2H2z M19,13l-2.5-1.5L14,13V5h5V13z"/></g></symbol>
<symbol id="commute" viewBox="0 0 24 24"><path d="M0 0h24v24H0V0z" fill="none"/><path d="M12 4H5C3.34 4 2 5.34 2 7v8c0 1.66 1.34 3 3 3l-1 1v1h1l2-2h2v-5H4V6h9v2h2V7c0-1.66-1.34-3-3-3zM5 14c.55 0 1 .45 1 1s-.45 1-1 1-1-.45-1-1 .45-1 1-1zm15.57-4.34c-.14-.4-.52-.66-.97-.66h-7.19c-.46 0-.83.26-.98.66l-1.42 4.11v5.51c0 .38.31.72.69.72h.62c.38 0 .68-.38.68-.76V18h8v1.24c0 .38.31.76.69.76h.61c.38 0 .69-.34.69-.72l.01-1.37v-4.14l-1.43-4.11zm-8.16.34h7.19l1.03 3h-9.25l1.03-3zM12 16c-.55 0-1-.45-1-1s.45-1 1-1 1 .45 1 1-.45 1-1 1zm8 0c-.55 0-1-.45-1-1s.45-1 1-1 1 .45 1 1-.45 1-1 1z"/></symbol>
<symbol id="compare_arrows" viewBox="0 0 24 24"><path d="M0 0h24v24H0V0z" fill="none"/><path d="M9.01 14H2v2h7.01v3L13 15l-3.99-4v3zm5.98-1v-3H22V8h-7.01V5L11 9l3.99 4z"/></symbol>
<symbol id="contactless" viewBox="0 0 24 24"><g><rect fill="none" height="24" width="24"/></g><g><path d="M12,2C6.48,2,2,6.48,2,12c0,5.52,4.48,10,10,10s10-4.48,10-10C22,6.48,17.52,2,12,2z M8.46,14.45L7.1,13.83 c0.28-0.61,0.41-1.24,0.4-1.86c-0.01-0.63-0.14-1.24-0.4-1.8l1.36-0.63c0.35,0.75,0.53,1.56,0.54,2.4 C9.01,12.8,8.83,13.64,8.46,14.45z M11.53,16.01l-1.3-0.74c0.52-0.92,0.78-1.98,0.78-3.15c0-1.19-0.27-2.33-0.8-3.4l1.34-0.67 c0.64,1.28,0.96,2.65,0.96,4.07C12.51,13.55,12.18,14.86,11.53,16.01z M14.67,17.33l-1.35-0.66c0.78-1.6,1.18-3.18,1.18-4.69 c0-1.51-0.4-3.07-1.18-4.64l1.34-0.67C15.56,8.45,16,10.23,16,11.98C16,13.72,15.56,15.52,14.67,17.33z"/></g></symbol>
<symbol id="contact_page" viewBox="0 0 24 24"><rect fill="none" height="24" width="24"/><path d="M14,2H4v20h16V8L14,2z M12,10c1.1,0,2,0.9,2,2c0,1.1-0.9,2-2,2s-2-0.9-2-2C10,10.9,10.9,10,12,10z M16,18H8v-0.57 c0-0.81,0.48-1.53,1.22-1.85C10.07,15.21,11.01,15,12,15c0.99,0,1.93,0.21,2.78,0.58C15.52,15.9,16,16.62,16,17.43V18z"/></symbol>
<symbol id="contact_support" viewBox="0 0 24 24"><path d="M0 0h24v24H0V0z" fill="none"/><path d="M11.5 2C6.81 2 3 5.81 3 10.5S6.81 19 11.5 19h.5v3c4.86-2.34 8-7 8-11.5C20 5.81 16.19 2 11.5 2zm1 14.5h-2v-2h2v2zm0-3.5h-2c0-3.25 3-3 3-5 0-1.1-.9-2-2-2s-2 .9-2 2h-2c0-2.21 1.79-4 4-4s4 1.79 4 4c0 2.5-3 2.75-3 5z"/></symbol>
<symbol id="copyright" viewBox="0 0 24 24"><path d="M0 0h24v24H0V0z" fill="none"/><path d="M10.08 10.86c.05-.33.16-.62.3-.87s.34-.46.59-.62c.24-.15.54-.22.91-.23.23.01.44.05.63.13.2.09.38.21.52.36s.25.33.34.53.13.42.14.64h1.79c-.02-.47-.11-.9-.28-1.29s-.4-.73-.7-1.01-.66-.5-1.08-.66-.88-.23-1.39-.23c-.65 0-1.22.11-1.7.34s-.88.53-1.2.92-.56.84-.71 1.36S8 11.29 8 11.87v.27c0 .58.08 1.12.23 1.64s.39.97.71 1.35.72.69 1.2.91c.48.22 1.05.34 1.7.34.47 0 .91-.08 1.32-.23s.77-.36 1.08-.63.56-.58.74-.94.29-.74.3-1.15h-1.79c-.01.21-.06.4-.15.58s-.21.33-.36.46-.32.23-.52.3c-.19.07-.39.09-.6.1-.36-.01-.66-.08-.89-.23-.25-.16-.45-.37-.59-.62s-.25-.55-.3-.88-.08-.67-.08-1v-.27c0-.35.03-.68.08-1.01zM12 2C6.48 2 2 6.48 2 12s4.48 10 10 10 10-4.48 10-10S17.52 2 12 2zm0 18c-4.41 0-8-3.59-8-8s3.59-8 8-8 8 3.59 8 8-3.59 8-8 8z"/></symbol>
<symbol id="credit_card" viewBox="0 0 24 24"><path d="M0 0h24v24H0V0z" fill="none"/><path d="M22 4H2.01L2 20h20V4zm-2 14H4v-6h16v6zm0-10H4V6h16v2z"/></symbol>
<symbol id="dashboard" viewBox="0 0 24 24"><path d="M0 0h24v24H0V0z" fill="none"/><path d="M3 13h8V3H3v10zm0 8h8v-6H3v6zm10 0h8V11h-8v10zm0-18v6h8V3h-8z"/></symbol>
<symbol id="date_range" viewBox="0 0 24 24"><path d="M0 0h24v24H0V0z" fill="none"/><path d="M9 11H7v2h2v-2zm4 0h-2v2h2v-2zm4 0h-2v2h2v-2zm4-7h-3V2h-2v2H8V2H6v2H3v18h18V4zm-2 16H5V9h14v11z"/></symbol>
<symbol id="delete" viewBox="0 0 24 24"><path d="M0 0h24v24H0V0z" fill="none"/><path d="M6 21h12V7H6v14zM19 4h-3.5l-1-1h-5l-1 1H5v2h14V4z"/></symbol>
<symbol id="delete_forever" viewBox="0 0 24 24"><path d="M0 0h24v24H0V0z" fill="none"/><path d="M6 21h12V7H6v14zm2.46-9.12l1.41-1.41L12 12.59l2.12-2.12 1.41 1.41L13.41 14l2.12 2.12-1.41 1.41L12 15.41l-2.12 2.12-1.41-1.41L10.59 14l-2.13-2.12zM15.5 4l-1-1h-5l-1 1H5v2h14V4h-3.5z"/></symbol>
<symbol id="delete_outline" viewBox="0 0 24 24"><path d="M0 0h24v24H0V0z" fill="none"/><path d="M6 21h12V7H6v14zM8 9h8v10H8V9zm7.5-5l-1-1h-5l-1 1H5v2h14V4h-3.5z"/></symbol>
<symbol id="description" viewBox="0 0 24 24"><path d="M0 0h24v24H0V0z" fill="none"/><path d="M14 2H4v20h16V8l-6-6zm2 16H8v-2h8v2zm0-4H8v-2h8v2zm-3-5V3.5L18.5 9H13z"/></symbol>
<symbol id="disabled_by_default" viewBox="0 0 24 24"><rect fill="none" height="24" width="24"/><path d="M3,3v18h18V3H3z M17,15.59L15.59,17L12,13.41L8.41,17L7,15.59L10.59,12L7,8.41L8.41,7L12,10.59L15.59,7L17,8.41L13.41,12 L17,15.59z"/></symbol>
<symbol id="dns" viewBox="0 0 24 24"><path d="M0 0h24v24H0V0z" fill="none"/><path d="M21 13H3v8h18v-8zM7 19c-1.1 0-2-.9-2-2s.9-2 2-2 2 .9 2 2-.9 2-2 2zM21 3H3v8h18V3zM7 9c-1.1 0-2-.9-2-2s.9-2 2-2 2 .9 2 2-.9 2-2 2z"/></symbol>
<symbol id="done" viewBox="0 0 24 24"><path d="M0 0h24v24H0V0z" fill="none"/><path d="M9 16.2L4.8 12l-1.4 1.4L9 19 21 7l-1.4-1.4L9 16.2z"/></symbol>
<symbol id="done_all" viewBox="0 0 24 24"><path d="M0 0h24v24H0V0z" fill="none"/><path d="M18 7l-1.41-1.41-6.34 6.34 1.41 1.41L18 7zm4.24-1.41L11.66 16.17 7.48 12l-1.41 1.41L11.66 19l12-12-1.42-1.41zM.41 13.41L6 19l1.41-1.41L1.83 12 .41 13.41z"/></symbol>
<symbol id="done_outline" viewBox="0 0 24 24"><path d="M0 0h24v24H0V0z" fill="none"/><path d="M19.77 4.93l1.4 1.4L8.43 19.07l-5.6-5.6 1.4-1.4 4.2 4.2L19.77 4.93m0-2.83L8.43 13.44l-4.2-4.2L0 13.47l8.43 8.43L24 6.33 19.77 2.1z"/></symbol>
<symbol id="donut_large" viewBox="0 0 24 24"><path d="M0 0h24v24H0V0z" fill="none"/><path d="M13 5.08c3.06.44 5.48 2.86 5.92 5.92h3.03c-.47-4.72-4.23-8.48-8.95-8.95v3.03zM18.92 13c-.44 3.06-2.86 5.48-5.92 5.92v3.03c4.72-.47 8.48-4.23 8.95-8.95h-3.03zM11 18.92c-3.39-.49-6-3.4-6-6.92s2.61-6.43 6-6.92V2.05c-5.05.5-9 4.76-9 9.95 0 5.19 3.95 9.45 9 9.95v-3.03z"/></symbol>
<symbol id="donut_small" viewBox="0 0 24 24"><path d="M0 0h24v24H0V0z" fill="none"/><path d="M13 9.18c.85.3 1.51.97 1.82 1.82h7.13c-.47-4.72-4.23-8.48-8.95-8.95v7.13zm-2 5.64C9.84 14.4 9 13.3 9 12c0-1.3.84-2.4 2-2.82V2.05c-5.05.5-9 4.76-9 9.95 0 5.19 3.95 9.45 9 9.95v-7.13zM14.82 13c-.3.85-.97 1.51-1.82 1.82v7.13c4.72-.47 8.48-4.23 8.95-8.95h-7.13z"/></symbol>
<symbol id="drag_indicator" viewBox="0 0 24 24"><path d="M0 0h24v24H0V0z" fill="none"/><path d="M11 18c0 1.1-.9 2-2 2s-2-.9-2-2 .9-2 2-2 2 .9 2 2zm-2-8c-1.1 0-2 .9-2 2s.9 2 2 2 2-.9 2-2-.9-2-2-2zm0-6c-1.1 0-2 .9-2 2s.9 2 2 2 2-.9 2-2-.9-2-2-2zm6 4c1.1 0 2-.9 2-2s-.9-2-2-2-2 .9-2 2 .9 2 2 2zm0 2c-1.1 0-2 .9-2 2s.9 2 2 2 2-.9 2-2-.9-2-2-2zm0 6c-1.1 0-2 .9-2 2s.9 2 2 2 2-.9 2-2-.9-2-2-2z"/></symbol>
<symbol id="dynamic_form" viewBox="0 0 24 24"><g><rect fill="none" height="24" width="24"/><path d="M17,20v-9h-2V4h7l-2,5h2L17,20z M15,13v7H2v-7H15z M6.25,15.75h-1.5v1.5h1.5V15.75z M13,4v7H2V4H13z M6.25,6.75h-1.5v1.5 h1.5V6.75z"/></g></symbol>
<symbol id="eco" viewBox="0 0 24 24"><g><rect fill="none" height="24" width="24"/></g><g><g><path d="M6.05,8.05c-2.73,2.73-2.73,7.15-0.02,9.88c1.47-3.4,4.09-6.24,7.36-7.93c-2.77,2.34-4.71,5.61-5.39,9.32 c2.6,1.23,5.8,0.78,7.95-1.37C19.43,14.47,20,4,20,4S9.53,4.57,6.05,8.05z"/></g></g></symbol>
<symbol id="eject" viewBox="0 0 24 24"><path d="M0 0h24v24H0V0z" fill="none"/><path d="M5 17h14v2H5v-2zm7-12L5.33 15h13.34L12 5z"/></symbol>
<symbol id="euro_symbol" viewBox="0 0 24 24"><path d="M0 0h24v24H0V0z" fill="none"/><path d="M15 18.5c-2.51 0-4.68-1.42-5.76-3.5H15v-2H8.58c-.05-.33-.08-.66-.08-1s.03-.67.08-1H15V9H9.24C10.32 6.92 12.5 5.5 15 5.5c1.61 0 3.09.59 4.23 1.57L21 5.3C19.41 3.87 17.3 3 15 3c-3.92 0-7.24 2.51-8.48 6H3v2h3.06c-.04.33-.06.66-.06 1s.02.67.06 1H3v2h3.52c1.24 3.49 4.56 6 8.48 6 2.31 0 4.41-.87 6-2.3l-1.78-1.77c-1.13.98-2.6 1.57-4.22 1.57z"/></symbol>
<symbol id="event" viewBox="0 0 24 24"><path d="M0 0h24v24H0V0z" fill="none"/><path d="M17 13h-5v5h5v-5zM16 2v2H8V2H6v2H3.01L3 22h18V4h-3V2h-2zm3 18H5V9h14v11z"/></symbol>
<symbol id="event_seat" viewBox="0 0 24 24"><path d="M0 0h24v24H0V0z" fill="none"/><path d="M4 21h3v-3h10v3h3v-6H4v6zm15-11h3v3h-3v-3zM2 10h3v3H2v-3zm15 3H7V5c0-1.1.9-2 2-2h6c1.1 0 2 .9 2 2v8z"/></symbol>
<symbol id="exit_to_app" viewBox="0 0 24 24"><path d="M0 0h24v24H0V0z" fill="none"/><path d="M10.09 15.59L11.5 17l5-5-5-5-1.41 1.41L12.67 11H3v2h9.67l-2.58 2.59zM21 3H3v6h2V5h14v14H5v-4H3v6h18V3z"/></symbol>
<symbol id="explore" viewBox="0 0 24 24"><path d="M0 0h24v24H0V0z" fill="none"/><path d="M12 10.9c-.61 0-1.1.49-1.1 1.1s.49 1.1 1.1 1.1c.61 0 1.1-.49 1.1-1.1s-.49-1.1-1.1-1.1zM12 2C6.48 2 2 6.48 2 12s4.48 10 10 10 10-4.48 10-10S17.52 2 12 2zm2.19 12.19L6 18l3.81-8.19L18 6l-3.81 8.19z"/></symbol>
<symbol id="explore_off" viewBox="0 0 24 24"><path d="M0 0h24v24H0V0z" fill="none"/><path d="M18 6l-2.91 6.26 5.25 5.25C21.39 15.93 22 14.04 22 12c0-5.52-4.48-10-10-10-2.04 0-3.93.61-5.51 1.66l5.25 5.25L18 6zM2.1 4.93l1.56 1.56C2.61 8.07 2 9.96 2 12c0 5.52 4.48 10 10 10 2.04 0 3.93-.61 5.51-1.66l1.56 1.56 1.41-1.41L3.51 3.51 2.1 4.93zm6.81 6.81l3.35 3.35L6 18l2.91-6.26z"/></symbol>
<symbol id="extension" viewBox="0 0 24 24"><path d="M0 0h24v24H0V0z" fill="none"/><path d="M20.36 11H19V5h-6V3.64c0-1.31-.94-2.5-2.24-2.63C9.26.86 8 2.03 8 3.5V5H2.01v5.8H3.4c1.31 0 2.5.88 2.75 2.16.33 1.72-.98 3.24-2.65 3.24H2V22h5.8v-1.4c0-1.31.88-2.5 2.16-2.75 1.72-.33 3.24.98 3.24 2.65V22H19v-6h1.5c1.47 0 2.64-1.26 2.49-2.76-.13-1.3-1.33-2.24-2.63-2.24z"/></symbol>
<symbol id="face" viewBox="0 0 24 24"><path d="M0 0h24v24H0V0z" fill="none"/><path d="M9 11.75c-.69 0-1.25.56-1.25 1.25s.56 1.25 1.25 1.25 1.25-.56 1.25-1.25-.56-1.25-1.25-1.25zm6 0c-.69 0-1.25.56-1.25 1.25s.56 1.25 1.25 1.25 1.25-.56 1.25-1.25-.56-1.25-1.25-1.25zM12 2C6.48 2 2 6.48 2 12s4.48 10 10 10 10-4.48 10-10S17.52 2 12 2zm0 18c-4.41 0-8-3.59-8-8 0-.29.02-.58.05-.86 2.36-1.05 4.23-2.98 5.21-5.37C11.07 8.33 14.05 10 17.42 10c.78 0 1.53-.09 2.25-.26.21.71.33 1.47.33 2.26 0 4.41-3.59 8-8 8z"/></symbol>
<symbol id="face_unlock" viewBox="0 0 24 24"><path d="M0 0h24v24H0V0z" fill="none"/><path d="M10.25 13c0 .69-.56 1.25-1.25 1.25S7.75 13.69 7.75 13s.56-1.25 1.25-1.25 1.25.56 1.25 1.25zM15 11.75c-.69 0-1.25.56-1.25 1.25s.56 1.25 1.25 1.25 1.25-.56 1.25-1.25-.56-1.25-1.25-1.25zm7 .25c0 5.52-4.48 10-10 10S2 17.52 2 12 6.48 2 12 2s10 4.48 10 10zM10.66 4.12C12.06 6.44 14.6 8 17.5 8c.46 0 .91-.05 1.34-.12C17.44 5.56 14.9 4 12 4c-.46 0-.91.05-1.34.12zM4.42 9.47c1.71-.97 3.03-2.55 3.66-4.44C6.37 6 5.05 7.58 4.42 9.47zM20 12c0-.78-.12-1.53-.33-2.24-.7.15-1.42.24-2.17.24-3.13 0-5.92-1.44-7.76-3.69C8.69 8.87 6.6 10.88 4 11.86c.01.04 0 .09 0 .14 0 4.41 3.59 8 8 8s8-3.59 8-8z"/></symbol>
<symbol id="fact_check" viewBox="0 0 24 24"><g><rect fill="none" height="24" width="24"/></g><g><g><path d="M2,3v18h20V3H2z M10,17H5v-2h5V17z M10,13H5v-2h5V13z M10,9H5V7h5V9z M14.82,15 L12,12.16l1.41-1.41l1.41,1.42L17.99,9l1.42,1.42L14.82,15z" fill-rule="evenodd"/></g></g></symbol>
<symbol id="favorite" viewBox="0 0 24 24"><path d="M0 0h24v24H0V0z" fill="none"/><path d="M12 21.35l-1.45-1.32C5.4 15.36 2 12.28 2 8.5 2 5.42 4.42 3 7.5 3c1.74 0 3.41.81 4.5 2.09C13.09 3.81 14.76 3 16.5 3 19.58 3 22 5.42 22 8.5c0 3.78-3.4 6.86-8.55 11.54L12 21.35z"/></symbol>
<symbol id="favorite_border" viewBox="0 0 24 24"><path d="M0 0h24v24H0V0z" fill="none"/><path d="M16.5 3c-1.74 0-3.41.81-4.5 2.09C10.91 3.81 9.24 3 7.5 3 4.42 3 2 5.42 2 8.5c0 3.78 3.4 6.86 8.55 11.54L12 21.35l1.45-1.32C18.6 15.36 22 12.28 22 8.5 22 5.42 19.58 3 16.5 3zm-4.4 15.55l-.1.1-.1-.1C7.14 14.24 4 11.39 4 8.5 4 6.5 5.5 5 7.5 5c1.54 0 3.04.99 3.57 2.36h1.87C13.46 5.99 14.96 5 16.5 5c2 0 3.5 1.5 3.5 3.5 0 2.89-3.14 5.74-7.9 10.05z"/></symbol>
<symbol id="feedback" viewBox="0 0 24 24"><path d="M0 0h24v24H0V0z" fill="none"/><path d="M22 2H2.01L2 22l4-4h16V2zm-9 12h-2v-2h2v2zm0-4h-2V6h2v4z"/></symbol>
<symbol id="filter_alt" viewBox="0 0 24 24"><g><path d="M0,0h24 M24,24H0" fill="none"/><path d="M3,4c2.01,2.59,7,9,7,9v7h4v-7c0,0,4.98-6.41,7-9H3z"/><path d="M0,0h24v24H0V0z" fill="none"/></g></symbol>
<symbol id="find_in_page" viewBox="0 0 24 24"><path d="M0 0h24v24H0V0z" fill="none"/><path d="M20 19.59V8l-6-6H4v20l15.57-.02-4.81-4.81c-.8.52-1.74.83-2.76.83-2.76 0-5-2.24-5-5s2.24-5 5-5 5 2.24 5 5c0 1.02-.31 1.96-.83 2.75L20 19.59zM9 13c0 1.66 1.34 3 3 3s3-1.34 3-3-1.34-3-3-3-3 1.34-3 3z"/></symbol>
<symbol id="find_replace" viewBox="0 0 24 24"><path d="M0 0h24v24H0V0z" fill="none"/><path d="M11 6c1.38 0 2.63.56 3.54 1.46L12 10h6V4l-2.05 2.05C14.68 4.78 12.93 4 11 4c-3.53 0-6.43 2.61-6.92 6H6.1c.46-2.28 2.48-4 4.9-4zm5.64 9.14c.66-.9 1.12-1.97 1.28-3.14H15.9c-.46 2.28-2.48 4-4.9 4-1.38 0-2.63-.56-3.54-1.46L10 12H4v6l2.05-2.05C7.32 17.22 9.07 18 11 18c1.55 0 2.98-.51 4.14-1.36L20 21.49 21.49 20l-4.85-4.86z"/></symbol>
<symbol id="fingerprint" viewBox="0 0 24 24"><path d="M0 0h24v24H0V0z" fill="none"/><path d="M17.81 4.47c-.08 0-.16-.02-.23-.06C15.66 3.42 14 3 12.01 3c-1.98 0-3.86.47-5.57 1.41-.24.13-.54.04-.68-.2-.13-.24-.04-.55.2-.68C7.82 2.52 9.86 2 12.01 2c2.13 0 3.99.47 6.03 1.52.25.13.34.43.21.67-.09.18-.26.28-.44.28zM3.5 9.72c-.1 0-.2-.03-.29-.09-.23-.16-.28-.47-.12-.7.99-1.4 2.25-2.5 3.75-3.27C9.98 4.04 14 4.03 17.15 5.65c1.5.77 2.76 1.86 3.75 3.25.16.22.11.54-.12.7-.23.16-.54.11-.7-.12-.9-1.26-2.04-2.25-3.39-2.94-2.87-1.47-6.54-1.47-9.4.01-1.36.7-2.5 1.7-3.4 2.96-.08.14-.23.21-.39.21zm6.25 12.07c-.13 0-.26-.05-.35-.15-.87-.87-1.34-1.43-2.01-2.64-.69-1.23-1.05-2.73-1.05-4.34 0-2.97 2.54-5.39 5.66-5.39s5.66 2.42 5.66 5.39c0 .28-.22.5-.5.5s-.5-.22-.5-.5c0-2.42-2.09-4.39-4.66-4.39s-4.66 1.97-4.66 4.39c0 1.44.32 2.77.93 3.85.64 1.15 1.08 1.64 1.85 2.42.19.2.19.51 0 .71-.11.1-.24.15-.37.15zm7.17-1.85c-1.19 0-2.24-.3-3.1-.89-1.49-1.01-2.38-2.65-2.38-4.39 0-.28.22-.5.5-.5s.5.22.5.5c0 1.41.72 2.74 1.94 3.56.71.48 1.54.71 2.54.71.24 0 .64-.03 1.04-.1.27-.05.53.13.58.41.05.27-.13.53-.41.58-.57.11-1.07.12-1.21.12zM14.91 22c-.04 0-.09-.01-.13-.02-1.59-.44-2.63-1.03-3.72-2.1-1.4-1.39-2.17-3.24-2.17-5.22 0-1.62 1.38-2.94 3.08-2.94s3.08 1.32 3.08 2.94c0 1.07.93 1.94 2.08 1.94s2.08-.87 2.08-1.94c0-3.77-3.25-6.83-7.25-6.83-2.84 0-5.44 1.58-6.61 4.03-.39.81-.59 1.76-.59 2.8 0 .78.07 2.01.67 3.61.1.26-.03.55-.29.64-.26.1-.55-.04-.64-.29-.49-1.31-.73-2.61-.73-3.96 0-1.2.23-2.29.68-3.24 1.33-2.79 4.28-4.6 7.51-4.6 4.55 0 8.25 3.51 8.25 7.83 0 1.62-1.38 2.94-3.08 2.94s-3.08-1.32-3.08-2.94c0-1.07-.93-1.94-2.08-1.94s-2.08.87-2.08 1.94c0 1.71.66 3.31 1.87 4.51.95.94 1.86 1.46 3.27 1.85.27.07.42.35.35.61-.05.23-.26.38-.47.38z"/></symbol>
<symbol id="flaky" viewBox="0 0 24 24"><g><rect fill="none" height="24" width="24"/></g><g><path d="M14.05,17.58l-0.01,0.01l-2.4-2.4l1.06-1.06l1.35,1.35L16.54,13l1.06,1.06 l-3.54,3.54L14.05,17.58z M12,2C6.5,2,2,6.5,2,12s4.5,10,10,10s10-4.5,10-10S17.5,2,12,2z M7.34,6.28l1.41,1.41l1.41-1.41 l1.06,1.06L9.81,8.75l1.41,1.41l-1.06,1.06L8.75,9.81l-1.41,1.41l-1.06-1.06l1.41-1.41L6.28,7.34L7.34,6.28z M12,20 c-2.2,0-4.2-0.9-5.7-2.3L17.7,6.3C19.1,7.8,20,9.8,20,12C20,16.4,16.4,20,12,20z" fill-rule="evenodd"/></g></symbol>
<symbol id="flight_land" viewBox="0 0 24 24"><path d="M0 0h24v24H0V0z" fill="none"/><path d="M2.5 19h19v2h-19v-2zm16.84-3.15c.8.21 1.62-.26 1.84-1.06.21-.8-.26-1.62-1.06-1.84l-5.31-1.42-2.76-9.02L10.12 2v8.28L5.15 8.95l-.93-2.32-1.45-.39v5.17l16.57 4.44z"/></symbol>
<symbol id="flight_takeoff" viewBox="0 0 24 24"><path d="M0 0h24v24H0V0z" fill="none"/><path d="M2.5 19h19v2h-19v-2zm19.57-9.36c-.21-.8-1.04-1.28-1.84-1.06L14.92 10l-6.9-6.43-1.93.51 4.14 7.17-4.97 1.33-1.97-1.54-1.45.39 1.82 3.16.77 1.33L21 11.49c.81-.23 1.28-1.05 1.07-1.85z"/></symbol>
<symbol id="flip_to_back" viewBox="0 0 24 24"><path d="M0 0h24v24H0V0z" fill="none"/><path d="M9 7H7v2h2V7zm0 4H7v2h2v-2zm4 4h-2v2h2v-2zm0-12h-2v2h2V3zM9 3H7v2h2V3zm12 0h-2v2h2V3zm0 12h-2v2h2v-2zM9 15H7v2h2v-2zm10-2h2v-2h-2v2zm0-4h2V7h-2v2zM5 7H3v14h14v-2H5V7zm10-2h2V3h-2v2zm0 12h2v-2h-2v2z"/></symbol>
<symbol id="flip_to_front" viewBox="0 0 24 24"><path d="M0 0h24v24H0V0z" fill="none"/><path d="M3 13h2v-2H3v2zm0 4h2v-2H3v2zm0-8h2V7H3v2zm12 12h2v-2h-2v2zm6-18H7v14h14V3zm-2 12H9V5h10v10zm-8 6h2v-2h-2v2zm-4 0h2v-2H7v2zm-4 0h2v-2H3v2z"/></symbol>
<symbol id="gavel" viewBox="0 0 24 24"><path d="M0 0h24v24H0V0z" fill="none"/><path d="M1 21h12v2H1v-2zM5.24 8.07l2.83-2.83 14.14 14.14-2.83 2.83L5.24 8.07zM12.32 1l5.66 5.66-2.83 2.83-5.66-5.66L12.32 1zM3.83 9.48l5.66 5.66-2.83 2.83L1 12.31l2.83-2.83z"/></symbol>
<symbol id="get_app" viewBox="0 0 24 24"><path d="M0 0h24v24H0V0z" fill="none"/><path d="M19 9h-4V3H9v6H5l7 7 7-7zM5 18v2h14v-2H5z"/></symbol>
<symbol id="gif" viewBox="0 0 24 24"><path d="M0 0h24v24H0V0z" fill="none"/><path d="M11.5 9H13v6h-1.5V9zM10 9H5v6h5v-3H8.5v1.5h-2v-3H10V9zm9 1.5V9h-4.5v6H16v-2h2v-1.5h-2v-1h3z"/></symbol>
<symbol id="grade" viewBox="0 0 24 24"><path d="M0 0h24v24H0V0z" fill="none"/><path d="M12 17.27L18.18 21l-1.64-7.03L22 9.24l-7.19-.61L12 2 9.19 8.63 2 9.24l5.46 4.73L5.82 21 12 17.27z"/></symbol>
<symbol id="grading" viewBox="0 0 24 24"><g><rect fill="none" height="24" width="24"/></g><g><path d="M4,7h16v2H4V7z M4,13h16v-2H4V13z M4,17h7v-2H4V17z M4,21h7v-2H4V21z M15.41,18.17L14,16.75l-1.41,1.41L15.41,21L20,16.42 L18.58,15L15.41,18.17z M4,3v2h16V3H4z"/></g></symbol>
<symbol id="group_work" viewBox="0 0 24 24"><path d="M0 0h24v24H0V0z" fill="none"/><path d="M12 2C6.48 2 2 6.48 2 12s4.48 10 10 10 10-4.48 10-10S17.52 2 12 2zM8 17.5c-1.38 0-2.5-1.12-2.5-2.5s1.12-2.5 2.5-2.5 2.5 1.12 2.5 2.5-1.12 2.5-2.5 2.5zM9.5 8c0-1.38 1.12-2.5 2.5-2.5s2.5 1.12 2.5 2.5-1.12 2.5-2.5 2.5S9.5 9.38 9.5 8zm6.5 9.5c-1.38 0-2.5-1.12-2.5-2.5s1.12-2.5 2.5-2.5 2.5 1.12 2.5 2.5-1.12 2.5-2.5 2.5z"/></symbol>
<symbol id="g_translate" viewBox="0 0 24 24"><path d="M0 0h24v24H0V0z" fill="none"/><path d="M20 5h-9.12L10 2H4c-1.1 0-2 .9-2 2v13c0 1.1.9 2 2 2h7l1 3h8c1.1 0 2-.9 2-2V7c0-1.1-.9-2-2-2zM7.17 14.59c-2.25 0-4.09-1.83-4.09-4.09s1.83-4.09 4.09-4.09c1.04 0 1.99.37 2.74 1.07l.07.06-1.23 1.18-.06-.05c-.29-.27-.78-.59-1.52-.59-1.31 0-2.38 1.09-2.38 2.42s1.07 2.42 2.38 2.42c1.37 0 1.96-.87 2.12-1.46H7.08V9.91h3.95l.01.07c.04.21.05.4.05.61 0 2.35-1.61 4-3.92 4zm6.03-1.71c.33.6.74 1.18 1.19 1.7l-.54.53-.65-2.23zm.77-.76h-.99l-.31-1.04h3.99s-.34 1.31-1.56 2.74c-.52-.62-.89-1.23-1.13-1.7zM21 20c0 .55-.45 1-1 1h-7l2-2-.81-2.77.92-.92L17.79 18l.73-.73-2.71-2.68c.9-1.03 1.6-2.25 1.92-3.51H19v-1.04h-3.64V9h-1.04v1.04h-1.96L11.18 6H20c.55 0 1 .45 1 1v13z"/></symbol>
<symbol id="help" viewBox="0 0 24 24"><path d="M0 0h24v24H0V0z" fill="none"/><path d="M12 2C6.48 2 2 6.48 2 12s4.48 10 10 10 10-4.48 10-10S17.52 2 12 2zm1 17h-2v-2h2v2zm2.07-7.75l-.9.92C13.45 12.9 13 13.5 13 15h-2v-.5c0-1.1.45-2.1 1.17-2.83l1.24-1.26c.37-.36.59-.86.59-1.41 0-1.1-.9-2-2-2s-2 .9-2 2H8c0-2.21 1.79-4 4-4s4 1.79 4 4c0 .88-.36 1.68-.93 2.25z"/></symbol>
<symbol id="help_center" viewBox="0 0 24 24"><g><rect fill="none" height="24" width="24"/><path d="M21,3H3v18h18V3z M12.01,18c-0.7,0-1.26-0.56-1.26-1.26c0-0.71,0.56-1.25,1.26-1.25c0.71,0,1.25,0.54,1.25,1.25 C13.25,17.43,12.72,18,12.01,18z M15.02,10.6c-0.76,1.11-1.48,1.46-1.87,2.17c-0.16,0.29-0.22,0.48-0.22,1.41h-1.82 c0-0.49-0.08-1.29,0.31-1.98c0.49-0.87,1.42-1.39,1.96-2.16c0.57-0.81,0.25-2.33-1.37-2.33c-1.06,0-1.58,0.8-1.8,1.48L8.56,8.49 C9.01,7.15,10.22,6,11.99,6c1.48,0,2.49,0.67,3.01,1.52C15.44,8.24,15.7,9.59,15.02,10.6z"/></g></symbol>
<symbol id="help_outline" viewBox="0 0 24 24"><path d="M0 0h24v24H0V0z" fill="none"/><path d="M11 18h2v-2h-2v2zm1-16C6.48 2 2 6.48 2 12s4.48 10 10 10 10-4.48 10-10S17.52 2 12 2zm0 18c-4.41 0-8-3.59-8-8s3.59-8 8-8 8 3.59 8 8-3.59 8-8 8zm0-14c-2.21 0-4 1.79-4 4h2c0-1.1.9-2 2-2s2 .9 2 2c0 2-3 1.75-3 5h2c0-2.25 3-2.5 3-5 0-2.21-1.79-4-4-4z"/></symbol>
<symbol id="highlight_alt" viewBox="0 0 24 24"><g><rect fill="none" height="24" width="24"/><path d="M17,5h-2V3h2V5z M19,3v2h2V3H19z M19,9h2V7h-2V9z M19,13h2v-2h-2V13z M11,21h2v-2h-2V21z M7,5h2V3H7V5z M3,5h2V3H3V5z M3,17h2v-2H3V17z M3,21h2v-2H3V21z M11,5h2V3h-2V5z M3,9h2V7H3V9z M7,21h2v-2H7V21z M3,13h2v-2H3V13z M15,15v6l2.29-2.29L19.59,21 L21,19.59l-2.29-2.29L21,15H15z"/></g></symbol>
<symbol id="highlight_off" viewBox="0 0 24 24"><path d="M0 0h24v24H0V0z" fill="none"/><path d="M14.59 8L12 10.59 9.41 8 8 9.41 10.59 12 8 14.59 9.41 16 12 13.41 14.59 16 16 14.59 13.41 12 16 9.41 14.59 8zM12 2C6.47 2 2 6.47 2 12s4.47 10 10 10 10-4.47 10-10S17.53 2 12 2zm0 18c-4.41 0-8-3.59-8-8s3.59-8 8-8 8 3.59 8 8-3.59 8-8 8z"/></symbol>
<symbol id="history" viewBox="0 0 24 24"><path d="M0 0h24v24H0V0z" fill="none"/><path d="M13 3c-4.97 0-9 4.03-9 9H1l3.89 3.89.07.14L9 12H6c0-3.87 3.13-7 7-7s7 3.13 7 7-3.13 7-7 7c-1.93 0-3.68-.79-4.94-2.06l-1.42 1.42C8.27 19.99 10.51 21 13 21c4.97 0 9-4.03 9-9s-4.03-9-9-9zm-1 5v5l4.25 2.52.77-1.29-3.52-2.09V8H12z"/></symbol>
<symbol id="history_toggle_off" viewBox="0 0 24 24"><g><rect fill="none" height="24" width="24"/><path d="M15.1,19.37l1,1.74c-0.96,0.44-2.01,0.73-3.1,0.84v-2.02C13.74,19.84,14.44,19.65,15.1,19.37z M4.07,13H2.05 c0.11,1.1,0.4,2.14,0.84,3.1l1.74-1C4.35,14.44,4.16,13.74,4.07,13z M15.1,4.63l1-1.74C15.14,2.45,14.1,2.16,13,2.05v2.02 C13.74,4.16,14.44,4.35,15.1,4.63z M19.93,11h2.02c-0.11-1.1-0.4-2.14-0.84-3.1l-1.74,1C19.65,9.56,19.84,10.26,19.93,11z M8.9,19.37l-1,1.74c0.96,0.44,2.01,0.73,3.1,0.84v-2.02C10.26,19.84,9.56,19.65,8.9,19.37z M11,4.07V2.05 c-1.1,0.11-2.14,0.4-3.1,0.84l1,1.74C9.56,4.35,10.26,4.16,11,4.07z M18.36,7.17l1.74-1.01c-0.63-0.87-1.4-1.64-2.27-2.27 l-1.01,1.74C17.41,6.08,17.92,6.59,18.36,7.17z M4.63,8.9l-1.74-1C2.45,8.86,2.16,9.9,2.05,11h2.02C4.16,10.26,4.35,9.56,4.63,8.9z M19.93,13c-0.09,0.74-0.28,1.44-0.56,2.1l1.74,1c0.44-0.96,0.73-2.01,0.84-3.1H19.93z M16.83,18.36l1.01,1.74 c0.87-0.63,1.64-1.4,2.27-2.27l-1.74-1.01C17.92,17.41,17.41,17.92,16.83,18.36z M7.17,5.64L6.17,3.89 C5.29,4.53,4.53,5.29,3.9,6.17l1.74,1.01C6.08,6.59,6.59,6.08,7.17,5.64z M5.64,16.83L3.9,17.83c0.63,0.87,1.4,1.64,2.27,2.27 l1.01-1.74C6.59,17.92,6.08,17.41,5.64,16.83z M13,7h-2v5.41l4.29,4.29l1.41-1.41L13,11.59V7z"/></g></symbol>
<symbol id="home" viewBox="0 0 24 24"><path d="M0 0h24v24H0V0z" fill="none"/><path d="M10 20v-6h4v6h5v-8h3L12 3 2 12h3v8h5z"/></symbol>
<symbol id="horizontal_split" viewBox="0 0 24 24"><path d="M0 0h24v24H0V0z" fill="none"/><path d="M3 19h18v-6H3v6zm0-8h18V9H3v2zm0-6v2h18V5H3z"/></symbol>
<symbol id="hourglass_disabled" viewBox="0 0 24 24"><g><rect fill="none" height="24" width="24"/></g><g><g><polygon points="8,4 16,4 16,7.5 13.16,10.34 14.41,11.59 18,8.01 17.99,8 18,8 18,2 6,2 6,3.17 8,5.17"/><path d="M2.1,2.1L0.69,3.51l8.9,8.9L6,16l0.01,0.01H6V22h12v-1.17l2.49,2.49l1.41-1.41L2.1,2.1z M16,20H8v-3.5l2.84-2.84L16,18.83 V20z"/></g></g></symbol>
<symbol id="hourglass_empty" viewBox="0 0 24 24"><path d="M0 0h24v24H0V0z" fill="none"/><path d="M6 2v6h.01L6 8.01 10 12l-4 4 .01.01H6V22h12v-5.99h-.01L18 16l-4-4 4-3.99-.01-.01H18V2H6zm10 14.5V20H8v-3.5l4-4 4 4zm-4-5l-4-4V4h8v3.5l-4 4z"/></symbol>
<symbol id="hourglass_full" viewBox="0 0 24 24"><path d="M0 0h24v24H0V0z" fill="none"/><path d="M6 2v6h.01L6 8.01 10 12l-4 4 .01.01H6V22h12v-5.99h-.01L18 16l-4-4 4-3.99-.01-.01H18V2H6z"/></symbol>
<symbol id="http" viewBox="0 0 24 24"><path d="M24 24H0V0h24v24z" fill="none" opacity=".87"/><path d="M4.5 11h-2V9H1v6h1.5v-2.5h2V15H6V9H4.5v2zm2.5-.5h1.5V15H10v-4.5h1.5V9H7v1.5zm5.5 0H14V15h1.5v-4.5H17V9h-4.5v1.5zM23 9h-5v6h1.5v-2H23V9zm-1.5 2.5h-2v-1h2v1z"/></symbol>
<symbol id="https" viewBox="0 0 24 24"><path d="M0 0h24v24H0V0z" fill="none"/><path d="M20 8h-3V6.21c0-2.61-1.91-4.94-4.51-5.19C9.51.74 7 3.08 7 6v2H4v14h16V8zm-8 9c-1.1 0-2-.9-2-2s.9-2 2-2 2 .9 2 2-.9 2-2 2zM9 8V6c0-1.66 1.34-3 3-3s3 1.34 3 3v2H9z"/></symbol>
<symbol id="important_devices" viewBox="0 0 24 24"><path d="M0 0h24v24H0V0z" fill="none"/><path d="M24 11.01L17 11v11h7V11.01zM23 20h-5v-7h5v7zM22 2H0v16h9v2H7v2h8v-2h-2v-2h2v-2H2V4h18v5h2V2zM11.97 9L11 6l-.97 3H7l2.47 1.76-.94 2.91 2.47-1.8 2.47 1.8-.94-2.91L15 9h-3.03z"/></symbol>
<symbol id="info" viewBox="0 0 24 24"><path d="M0 0h24v24H0V0z" fill="none"/><path d="M12 2C6.48 2 2 6.48 2 12s4.48 10 10 10 10-4.48 10-10S17.52 2 12 2zm1 15h-2v-6h2v6zm0-8h-2V7h2v2z"/></symbol>
<symbol id="info_outline" viewBox="0 0 24 24"><path d="M11 17h2v-6h-2v6zm1-15C6.48 2 2 6.48 2 12s4.48 10 10 10 10-4.48 10-10S17.52 2 12 2zm0 18c-4.41 0-8-3.59-8-8s3.59-8 8-8 8 3.59 8 8-3.59 8-8 8zM11 9h2V7h-2v2z"/><path d="M11 7h2v2h-2zm0 4h2v6h-2z"/><path d="M12 2C6.48 2 2 6.48 2 12s4.48 10 10 10 10-4.48 10-10S17.52 2 12 2zm0 18c-4.41 0-8-3.59-8-8s3.59-8 8-8 8 3.59 8 8-3.59 8-8 8z"/></symbol>
<symbol id="input" viewBox="0 0 24 24"><g fill="none"><path d="M0 0h24v24H0V0z"/><path d="M0 0h24v24H0V0z" opacity=".87"/></g><path d="M21 3.01H3c-1.1 0-2 .9-2 2V9h2V4.99h18v14.03H3V15H1v4.01c0 1.1.9 1.98 2 1.98h18c1.1 0 2-.88 2-1.98v-14c0-1.11-.9-2-2-2zM11 16l4-4-4-4v3H1v2h10v3zM23 3.01H1V9h2V4.99h18v14.03H3V15H1v5.99h22V3.01zM11 16l4-4-4-4v3H1v2h10v3z"/></symbol>
<symbol id="integration_instructions" viewBox="0 0 24 24"><g><rect fill="none" height="24" width="24"/><circle cx="12" cy="3.5" fill="none" r=".75"/><circle cx="12" cy="3.5" fill="none" r=".75"/><circle cx="12" cy="3.5" fill="none" r=".75"/><path d="M21,3h-6.18C14.4,1.84,13.3,1,12,1S9.6,1.84,9.18,3H3v18h18V3z M11,14.17l-1.41,1.42L6,12l3.59-3.59L11,9.83L8.83,12 L11,14.17z M12,4.25c-0.41,0-0.75-0.34-0.75-0.75S11.59,2.75,12,2.75s0.75,0.34,0.75,0.75S12.41,4.25,12,4.25z M14.41,15.59 L13,14.17L15.17,12L13,9.83l1.41-1.42L18,12L14.41,15.59z"/></g></symbol>
<symbol id="invert_colors" viewBox="0 0 24 24"><path d="M24 0H0v24h24V0z" fill="none"/><path d="M17.66 7.93L12 2.27 6.34 7.93c-3.12 3.12-3.12 8.19 0 11.31C7.9 20.8 9.95 21.58 12 21.58s4.1-.78 5.66-2.34c3.12-3.12 3.12-8.19 0-11.31zM12 19.59c-1.6 0-3.11-.62-4.24-1.76C6.62 16.69 6 15.19 6 13.59s.62-3.11 1.76-4.24L12 5.1v14.49z"/></symbol>
<symbol id="label" viewBox="0 0 24 24"><path d="M0 0h24v24H0V0z" fill="none"/><path d="M17.03 5L3 5.01v13.98l14.03.01L22 12l-4.97-7z"/></symbol>
<symbol id="label_important" viewBox="0 0 24 24"><path d="M0 0h24v24H0V0z" fill="none"/><path d="M4 18.99h12.04L21 12l-4.97-7H4l5 7-5 6.99z"/></symbol>
<symbol id="label_important_outline" viewBox="0 0 24 24"><path d="M0 0h24v24H0V0z" fill="none"/><path d="M16.03 19H3l4.5-7L3 5h13.03L21 12l-4.97 7zM6.5 17H15l3.5-5L15 7H6.5l3.5 5-3.5 5z"/></symbol>
<symbol id="label_off" viewBox="0 0 24 24"><path d="M0 0h24v24H0V0z" fill="none"/><path d="M22 12l-4.97-7H8.66l10.7 10.73zM2 4l1 1v14h14l2 2 1.41-1.41L3.44 2.62z"/></symbol>
<symbol id="label_outline" viewBox="0 0 24 24"><path d="M0 0h24v24H0V0z" fill="none"/><path d="M17.03 5H3v13.99l14.03.01L22 12l-4.97-7zM16 17H5V7h11l3.55 5L16 17z"/></symbol>
<symbol id="language" viewBox="0 0 24 24"><path d="M0 0h24v24H0V0z" fill="none"/><path d="M11.99 2C6.47 2 2 6.48 2 12s4.47 10 9.99 10C17.52 22 22 17.52 22 12S17.52 2 11.99 2zm6.93 6h-2.95c-.32-1.25-.78-2.45-1.38-3.56 1.84.63 3.37 1.91 4.33 3.56zM12 4.04c.83 1.2 1.48 2.53 1.91 3.96h-3.82c.43-1.43 1.08-2.76 1.91-3.96zM4.26 14C4.1 13.36 4 12.69 4 12s.1-1.36.26-2h3.38c-.08.66-.14 1.32-.14 2s.06 1.34.14 2H4.26zm.82 2h2.95c.32 1.25.78 2.45 1.38 3.56-1.84-.63-3.37-1.9-4.33-3.56zm2.95-8H5.08c.96-1.66 2.49-2.93 4.33-3.56C8.81 5.55 8.35 6.75 8.03 8zM12 19.96c-.83-1.2-1.48-2.53-1.91-3.96h3.82c-.43 1.43-1.08 2.76-1.91 3.96zM14.34 14H9.66c-.09-.66-.16-1.32-.16-2s.07-1.35.16-2h4.68c.09.65.16 1.32.16 2s-.07 1.34-.16 2zm.25 5.56c.6-1.11 1.06-2.31 1.38-3.56h2.95c-.96 1.65-2.49 2.93-4.33 3.56zM16.36 14c.08-.66.14-1.32.14-2s-.06-1.34-.14-2h3.38c.16.64.26 1.31.26 2s-.1 1.36-.26 2h-3.38z"/></symbol>
<symbol id="launch" viewBox="0 0 24 24"><path d="M0 0h24v24H0V0z" fill="none"/><path d="M19 19H5V5h7V3H3v18h18v-9h-2v7zM14 3v2h3.59l-9.83 9.83 1.41 1.41L19 6.41V10h2V3h-7z"/></symbol>
<symbol id="leaderboard" viewBox="0 0 24 24"><rect fill="none" height="24" width="24"/><g><path d="M7.5,21H2V9h5.5V21z M14.75,3h-5.5v18h5.5V3z M22,11h-5.5v10H22V11z"/></g></symbol>
<symbol id="lightbulb_outline" viewBox="0 0 24 24"><path d="M0 0h24v24H0z" fill="none"/><path d="M9 22h6v-2H9v2zm1.54-19.85c-2.75.56-4.94 2.81-5.43 5.58-.51 2.89.76 5.52 2.89 7.01V18h8v-3.26c1.81-1.27 3-3.36 3-5.74 0-4.34-3.97-7.77-8.46-6.85zm4.31 10.95l-.85.6V16h-4v-2.3l-.85-.6C7.8 12.16 7 10.63 7 9c0-2.76 2.24-5 5-5s5 2.24 5 5c0 1.63-.8 3.16-2.15 4.1z"/></symbol>
<symbol id="line_style" viewBox="0 0 24 24"><path d="M0 0h24v24H0z" fill="none"/><path d="M3 16h5v-2H3v2zm6.5 0h5v-2h-5v2zm6.5 0h5v-2h-5v2zM3 20h2v-2H3v2zm4 0h2v-2H7v2zm4 0h2v-2h-2v2zm4 0h2v-2h-2v2zm4 0h2v-2h-2v2zM3 12h8v-2H3v2zm10 0h8v-2h-8v2zM3 4v4h18V4H3z"/></symbol>
<symbol id="line_weight" viewBox="0 0 24 24"><path d="M0 0h24v24H0z" fill="none"/><path d="M3 17h18v-2H3v2zm0 3h18v-1H3v1zm0-7h18v-3H3v3zm0-9v4h18V4H3z"/></symbol>
<symbol id="list" viewBox="0 0 24 24"><g fill="none"><path d="M0 0h24v24H0V0z"/><path d="M0 0h24v24H0V0z" opacity=".87"/></g><path d="M3 13h2v-2H3v2zm0 4h2v-2H3v2zm0-8h2V7H3v2zm4 4h14v-2H7v2zm0 4h14v-2H7v2zM7 7v2h14V7H7zm-4 6h2v-2H3v2zm0 4h2v-2H3v2zm0-8h2V7H3v2zm4 4h14v-2H7v2zm0 4h14v-2H7v2zM7 7v2h14V7H7z"/></symbol>
<symbol id="lock" viewBox="0 0 24 24"><g fill="none"><path d="M0 0h24v24H0V0z"/><path d="M0 0h24v24H0V0z" opacity=".87"/></g><path d="M20 8h-3V6.21c0-2.61-1.91-4.94-4.51-5.19C9.51.74 7 3.08 7 6v2H4v14h16V8zm-8 9c-1.1 0-2-.9-2-2s.9-2 2-2 2 .9 2 2-.9 2-2 2zM9 8V6c0-1.66 1.34-3 3-3s3 1.34 3 3v2H9z"/></symbol>
<symbol id="lock_open" viewBox="0 0 24 24"><path d="M0 0h24v24H0V0z" fill="none"/><path d="M20 8h-3V6.21c0-2.61-1.91-4.94-4.51-5.19C9.51.74 7 3.08 7 6h2c0-1.13.6-2.24 1.64-2.7C12.85 2.31 15 3.9 15 6v2H4v14h16V8zm-2 12H6V10h12v10zm-6-3c1.1 0 2-.9 2-2s-.9-2-2-2-2 .9-2 2 .9 2 2 2z"/></symbol>
<symbol id="lock_outline" viewBox="0 0 24 24"><path d="M0 0h24v24H0z" fill="none"/><path d="M17 8V6c0-2.76-2.24-5-5-5S7 3.24 7 6v2H4v14h16V8h-3zM9 6c0-1.66 1.34-3 3-3s3 1.34 3 3v2H9V6zm9 14H6V10h12v10zm-6-3c1.1 0 2-.9 2-2s-.9-2-2-2-2 .9-2 2 .9 2 2 2z"/></symbol>
<symbol id="login" viewBox="0 0 24 24"><g><rect fill="none" height="24" width="24"/></g><g><path d="M11,7L9.6,8.4l2.6,2.6H2v2h10.2l-2.6,2.6L11,17l5-5L11,7z M20,19h-8v2h10V3H12v2h8V19z"/></g></symbol>
<symbol id="loyalty" viewBox="0 0 24 24"><path d="M0 0h24v24H0V0z" fill="none"/><path d="M11.83 2H2v9.83l10.99 11s1.05-1.05 1.41-1.42L22.82 13 11.83 2zM5.5 7C4.67 7 4 6.33 4 5.5S4.67 4 5.5 4 7 4.67 7 5.5 6.33 7 5.5 7zM13 19.54l-4.27-4.27C8.28 14.81 8 14.19 8 13.5c0-1.38 1.12-2.5 2.5-2.5.69 0 1.32.28 1.77.74l.73.72.73-.73c.45-.45 1.08-.73 1.77-.73 1.38 0 2.5 1.12 2.5 2.5 0 .69-.28 1.32-.73 1.77L13 19.54z"/></symbol>
<symbol id="markunread_mailbox" viewBox="0 0 24 24"><path d="M0 0h24v24H0z" fill="none"/><path d="M22 6H10v6H8V4h6V0H6v6H2v16h20V6z"/></symbol>
<symbol id="maximize" viewBox="0 0 24 24"><path d="M0 0h24v24H0V0z" fill="none"/><path d="M3 3h18v2H3V3z"/></symbol>
<symbol id="mediation" viewBox="0 0 24 24"><g><rect fill="none" height="24" width="24"/><g><path d="M18,13h-5.06c-0.34,3.1-2.26,5.72-4.94,7.05C7.96,21.69,6.64,23,5,23c-1.66,0-3-1.34-3-3s1.34-3,3-3 c0.95,0,1.78,0.45,2.33,1.14c1.9-1.03,3.26-2.91,3.58-5.14h-3.1C7.4,14.16,6.3,15,5,15c-1.66,0-3-1.34-3-3s1.34-3,3-3 c1.3,0,2.4,0.84,2.82,2h3.1C10.6,8.77,9.23,6.9,7.33,5.86C6.78,6.55,5.95,7,5,7C3.34,7,2,5.66,2,4s1.34-3,3-3 c1.64,0,2.96,1.31,2.99,2.95c2.68,1.33,4.6,3.95,4.94,7.05H18V8l4,4l-4,4V13z"/></g></g></symbol>
<symbol id="minimize" viewBox="0 0 24 24"><path d="M0 0h24v24H0V0z" fill="none"/><path d="M6 19h12v2H6v-2z"/></symbol>
<symbol id="model_training" viewBox="0 0 24 24"><g><rect fill="none" height="24" width="24"/><path d="M15.5,13.5c0,2-2.5,3.5-2.5,5h-2c0-1.5-2.5-3-2.5-5c0-1.93,1.57-3.5,3.5-3.5h0C13.93,10,15.5,11.57,15.5,13.5z M13,19.5h-2 V21h2V19.5z M19,13c0,1.68-0.59,3.21-1.58,4.42l1.42,1.42C20.18,17.27,21,15.23,21,13c0-2.74-1.23-5.19-3.16-6.84l-1.42,1.42 C17.99,8.86,19,10.82,19,13z M16,5l-4-4v3c0,0,0,0,0,0c-4.97,0-9,4.03-9,9c0,2.23,0.82,4.27,2.16,5.84l1.42-1.42 C5.59,16.21,5,14.68,5,13c0-3.86,3.14-7,7-7c0,0,0,0,0,0v3L16,5z"/></g></symbol>
<symbol id="next_plan" viewBox="0 0 24 24"><g><rect fill="none" height="24" width="24"/></g><g><path d="M12,2C6.48,2,2,6.48,2,12c0,5.52,4.48,10,10,10s10-4.48,10-10C22,6.48,17.52,2,12,2z M18,13.97h-5l2.26-2.26 c-0.91-1.06-2.25-1.74-3.76-1.74c-2.37,0-4.35,1.66-4.86,3.88l-0.96-0.32c0.64-2.62,3-4.56,5.82-4.56c1.78,0,3.37,0.79,4.47,2.03 L18,8.97V13.97z"/></g></symbol>
<symbol id="note_add" viewBox="0 0 24 24"><path d="M0 0h24v24H0V0z" fill="none"/><path d="M14 2H4v20h16V8l-6-6zm2 14h-3v3h-2v-3H8v-2h3v-3h2v3h3v2zm-3-7V3.5L18.5 9H13z"/></symbol>
<symbol id="not_accessible" viewBox="0 0 24 24"><g><rect fill="none" height="24" width="24"/><path d="M12,2c1.1,0,2,0.9,2,2s-0.9,2-2,2s-2-0.9-2-2S10.9,2,12,2z M10,20c-1.66,0-3-1.34-3-3c0-1.31,0.84-2.41,2-2.83V12.1 c-2.28,0.46-4,2.48-4,4.9c0,2.76,2.24,5,5,5c2.42,0,4.44-1.72,4.9-4h-2.07C12.42,19.16,11.31,20,10,20z M21.19,21.19L2.81,2.81 L1.39,4.22L10,12.83V17h4.17l5.61,5.61L21.19,21.19z M19,11c-1.54,0.02-3.09-0.75-4.07-1.83l-1.29-1.43 C13.4,7.5,13.2,7.38,13.01,7.28c-0.36-0.19-0.72-0.3-1.2-0.26c-0.49,0.04-0.91,0.27-1.23,0.61L14,11.05c1.29,1.07,3.25,1.94,5,1.95 V11z"/></g></symbol>
<symbol id="not_started" viewBox="0 0 24 24"><g><rect fill="none" height="24" width="24"/><path d="M12,2C6.48,2,2,6.48,2,12c0,5.52,4.48,10,10,10s10-4.48,10-10C22,6.48,17.52,2,12,2z M11,16H9V8h2V16z M12,16V8l5,4L12,16z"/></g></symbol>
<symbol id="offline_bolt" viewBox="0 0 24 24"><path d="M0 0h24v24H0z" fill="none"/><path d="M12 2.02c-5.51 0-9.98 4.47-9.98 9.98s4.47 9.98 9.98 9.98 9.98-4.47 9.98-9.98S17.51 2.02 12 2.02zM11.48 20v-6.26H8L13 4v6.26h3.35L11.48 20z"/></symbol>
<symbol id="offline_pin" viewBox="0 0 24 24"><path d="M0 0h24v24H0z" fill="none"/><path d="M12 2C6.5 2 2 6.5 2 12s4.5 10 10 10 10-4.5 10-10S17.5 2 12 2zm5 16H7v-2h10v2zm-6.7-4L7 10.7l1.4-1.4 1.9 1.9 5.3-5.3L17 7.3 10.3 14z"/></symbol>
<symbol id="online_prediction" viewBox="0 0 24 24"><g><rect fill="none" height="24" width="24"/><path d="M15.5,11.5c0,2-2.5,3.5-2.5,5h-2c0-1.5-2.5-3-2.5-5C8.5,9.57,10.07,8,12,8S15.5,9.57,15.5,11.5z M13,17.5h-2V19h2V17.5z M22,12c0-2.76-1.12-5.26-2.93-7.07l-1.06,1.06C19.55,7.53,20.5,9.66,20.5,12c0,2.34-0.95,4.47-2.49,6.01l1.06,1.06 C20.88,17.26,22,14.76,22,12z M3.5,12c0-2.34,0.95-4.47,2.49-6.01L4.93,4.93C3.12,6.74,2,9.24,2,12c0,2.76,1.12,5.26,2.93,7.07 l1.06-1.06C4.45,16.47,3.5,14.34,3.5,12z M17.5,12c0,1.52-0.62,2.89-1.61,3.89l1.06,1.06C18.22,15.68,19,13.93,19,12 c0-1.93-0.78-3.68-2.05-4.95l-1.06,1.06C16.88,9.11,17.5,10.48,17.5,12z M7.05,16.95l1.06-1.06c-1-1-1.61-2.37-1.61-3.89 c0-1.52,0.62-2.89,1.61-3.89L7.05,7.05C5.78,8.32,5,10.07,5,12C5,13.93,5.78,15.68,7.05,16.95z"/></g></symbol>
<symbol id="opacity" viewBox="0 0 24 24"><path d="M24 0H0v24h24V0zm0 0H0v24h24V0zM0 24h24V0H0v24z" fill="none"/><path d="M17.66 8L12 2.35 6.34 8C4.78 9.56 4 11.64 4 13.64s.78 4.11 2.34 5.67 3.61 2.35 5.66 2.35 4.1-.79 5.66-2.35S20 15.64 20 13.64 19.22 9.56 17.66 8zM6 14c.01-2 .62-3.27 1.76-4.4L12 5.27l4.24 4.38C17.38 10.77 17.99 12 18 14H6z"/></symbol>
<symbol id="open_in_browser" viewBox="0 0 24 24"><path d="M0 0h24v24H0V0z" fill="none"/><path d="M3 4v16h6v-2H5V8h14v10h-4v2h6V4H3zm9 6l-4 4h3v6h2v-6h3l-4-4z"/></symbol>
<symbol id="open_in_full" viewBox="0 0 24 24"><rect fill="none" height="24" width="24"/><polygon points="21,11 21,3 13,3 16.29,6.29 6.29,16.29 3,13 3,21 11,21 7.71,17.71 17.71,7.71"/></symbol>
<symbol id="open_in_new" viewBox="0 0 24 24"><path d="M0 0h24v24H0V0z" fill="none"/><path d="M19 19H5V5h7V3H3v18h18v-9h-2v7zM14 3v2h3.59l-9.83 9.83 1.41 1.41L19 6.41V10h2V3h-7z"/></symbol>
<symbol id="open_with" viewBox="0 0 24 24"><path d="M0 0h24v24H0V0z" fill="none"/><path d="M10 9h4V6h3l-5-5-5 5h3v3zm-1 1H6V7l-5 5 5 5v-3h3v-4zm14 2l-5-5v3h-3v4h3v3l5-5zm-9 3h-4v3H7l5 5 5-5h-3v-3z"/></symbol>
<symbol id="outbond" viewBox="0 0 24 24"><rect fill="none" height="24" width="24" x="0" y="0"/><path d="M12,2C6.48,2,2,6.48,2,12c0,5.52,4.48,10,10,10s10-4.48,10-10C22,6.48,17.52,2,12,2z M13.88,11.54l-4.96,4.96l-1.41-1.41 l4.96-4.96L10.34,8l5.65,0.01L16,13.66L13.88,11.54z"/><g/><g/><g/></symbol>
<symbol id="outlet" viewBox="0 0 24 24"><rect fill="none" height="24" width="24"/><path d="M12,2C6.48,2,2,6.48,2,12c0,5.52,4.48,10,10,10s10-4.48,10-10C22,6.48,17.52,2,12,2z M8,12V7h2v5H8z M14,18h-4l0-1.89 c0-1,0.68-1.92,1.66-2.08C12.92,13.82,14,14.79,14,16V18z M16,12h-2V7h2V12z"/></symbol>
<symbol id="pageview" viewBox="0 0 24 24"><path d="M0 0h24v24H0V0z" fill="none"/><path d="M11.5 9C10.12 9 9 10.12 9 11.5s1.12 2.5 2.5 2.5 2.5-1.12 2.5-2.5S12.88 9 11.5 9zM22 4H2v16h20V4zm-5.21 14.21l-2.91-2.91c-.69.44-1.51.7-2.39.7C9.01 16 7 13.99 7 11.5S9.01 7 11.5 7 16 9.01 16 11.5c0 .88-.26 1.69-.7 2.39l2.91 2.9-1.42 1.42z"/></symbol>
<symbol id="pan_tool" viewBox="0 0 24 24"><path d="M0 0h24v24H0z" fill="none"/><path d="M23 4v20H10.02L1 14.83 2.9 13 8 15.91V3h3v8h1V0h3v11h1V1h3v10h1V4h3z"/></symbol>
<symbol id="payment" viewBox="0 0 24 24"><path d="M0 0h24v24H0V0z" fill="none"/><path d="M22 4H2v16h20V4zm-2 14H4v-6h16v6zm0-10H4V6h16v2z"/></symbol>
<symbol id="pending" viewBox="0 0 24 24"><g><rect fill="none" height="24" width="24"/></g><g><path d="M12,2C6.48,2,2,6.48,2,12c0,5.52,4.48,10,10,10s10-4.48,10-10C22,6.48,17.52,2,12,2z M7,13.5c-0.83,0-1.5-0.67-1.5-1.5 c0-0.83,0.67-1.5,1.5-1.5s1.5,0.67,1.5,1.5C8.5,12.83,7.83,13.5,7,13.5z M12,13.5c-0.83,0-1.5-0.67-1.5-1.5 c0-0.83,0.67-1.5,1.5-1.5s1.5,0.67,1.5,1.5C13.5,12.83,12.83,13.5,12,13.5z M17,13.5c-0.83,0-1.5-0.67-1.5-1.5 c0-0.83,0.67-1.5,1.5-1.5s1.5,0.67,1.5,1.5C18.5,12.83,17.83,13.5,17,13.5z"/></g></symbol>
<symbol id="pending_actions" viewBox="0 0 24 24"><g><rect fill="none" height="24" width="24"/><path d="M17,12c-2.76,0-5,2.24-5,5s2.24,5,5,5c2.76,0,5-2.24,5-5S19.76,12,17,12z M18.65,19.35l-2.15-2.15V14h1v2.79l1.85,1.85 L18.65,19.35z M20,3h-5.18C14.4,1.84,13.3,1,12,1S9.6,1.84,9.18,3H4v19h8.11c-0.59-0.57-1.07-1.25-1.42-2H6V5h2v3h8V5h2v5.08 c0.71,0.1,1.38,0.31,2,0.6V3z M12,5c-0.55,0-1-0.45-1-1c0-0.55,0.45-1,1-1c0.55,0,1,0.45,1,1C13,4.55,12.55,5,12,5z"/></g></symbol>
<symbol id="perm_camera_mic" viewBox="0 0 24 24"><path d="M0 0h24v24H0V0z" fill="none"/><path d="M22 5h-5.17L15 3H9L7.17 5H2v16h9v-2.09c-2.83-.48-5-2.94-5-5.91h2c0 2.21 1.79 4 4 4s4-1.79 4-4h2c0 2.97-2.17 5.43-5 5.91V21h9V5zm-8 8c0 1.1-.9 2-2 2s-2-.9-2-2V9c0-1.1.9-2 2-2s2 .9 2 2v4z"/></symbol>
<symbol id="perm_contact_calendar" viewBox="0 0 24 24"><path d="M0 0h24v24H0V0z" fill="none"/><path d="M21 3h-3V1h-2v2H8V1H6v2H3v18h18V3zm-9 3c1.66 0 3 1.34 3 3s-1.34 3-3 3-3-1.34-3-3 1.34-3 3-3zm6 12H6v-1c0-2 4-3.1 6-3.1s6 1.1 6 3.1v1z"/></symbol>
<symbol id="perm_data_setting" viewBox="0 0 24 24"><path d="M0 0h24v24H0V0z" fill="none"/><path d="M18.99 11.5c.34 0 .67.03 1 .07L20 0 0 20h11.56c-.04-.33-.07-.66-.07-1 0-4.14 3.36-7.5 7.5-7.5zm3.71 7.99c.02-.16.04-.32.04-.49s-.01-.33-.04-.49l1.06-.83c.09-.08.12-.21.06-.32l-1-1.73c-.06-.11-.19-.15-.31-.11l-1.24.5c-.26-.2-.54-.37-.85-.49l-.19-1.32c-.01-.12-.12-.21-.24-.21h-2c-.12 0-.23.09-.25.21l-.19 1.32c-.3.13-.59.29-.85.49l-1.24-.5c-.11-.04-.24 0-.31.11l-1 1.73c-.06.11-.04.24.06.32l1.06.83c-.02.16-.03.32-.03.49s.01.33.03.49l-1.06.83c-.09.08-.12.21-.06.32l1 1.73c.06.11.19.15.31.11l1.24-.5c.26.2.54.37.85.49l.19 1.32c.02.12.12.21.25.21h2c.12 0 .23-.09.25-.21l.19-1.32c.3-.13.59-.29.84-.49l1.25.5c.11.04.24 0 .31-.11l1-1.73c.06-.11.03-.24-.06-.32l-1.07-.83zm-3.71 1.01c-.83 0-1.5-.67-1.5-1.5s.67-1.5 1.5-1.5 1.5.67 1.5 1.5-.67 1.5-1.5 1.5z"/></symbol>
<symbol id="perm_device_information" viewBox="0 0 24 24"><path d="M0 0h24v24H0V0z" fill="none"/><path d="M13 7h-2v2h2V7zm0 4h-2v6h2v-6zM5 1v22h14V1H5zm12 18H7V5h10v14z"/></symbol>
<symbol id="perm_identity" viewBox="0 0 24 24"><path d="M0 0h24v24H0V0z" fill="none"/><path d="M12 12c2.21 0 4-1.79 4-4s-1.79-4-4-4-4 1.79-4 4 1.79 4 4 4zm0-6c1.1 0 2 .9 2 2s-.9 2-2 2-2-.9-2-2 .9-2 2-2zm0 7c-2.67 0-8 1.34-8 4v3h16v-3c0-2.66-5.33-4-8-4zm6 5H6v-.99c.2-.72 3.3-2.01 6-2.01s5.8 1.29 6 2v1z"/></symbol>
<symbol id="perm_media" viewBox="0 0 24 24"><path d="M0 0h24v24H0V0z" fill="none"/><path d="M2 6H0v16h20v-2H2V6zm22-2H14l-2-2H4v16h20V4zM7 15l4.5-6 3.5 4.51 2.5-3.01L21 15H7z"/></symbol>
<symbol id="perm_phone_msg" viewBox="0 0 24 24"><path d="M0 0h24v24H0V0z" fill="none"/><path d="M12 3v10l3-3h6V3zm1.21 14.37c-2.83-1.44-5.15-3.75-6.59-6.59l2.53-2.53L8.54 3H3.03C2.45 13.18 10.82 21.55 21 20.97v-5.51l-5.27-.61-2.52 2.52z"/></symbol>
<symbol id="perm_scan_wifi" viewBox="0 0 24 24"><path d="M0 0h24v24H0V0z" fill="none"/><path d="M12 3C6.95 3 3.15 4.85 0 7.23L12 22 24 7.25C20.85 4.87 17.05 3 12 3zm1 13h-2v-6h2v6zm-2-8V6h2v2h-2z"/></symbol>
<symbol id="pets" viewBox="0 0 24 24"><path d="M0 0h24v24H0V0z" fill="none"/><circle cx="4.5" cy="9.5" r="2.5"/><circle cx="9" cy="5.5" r="2.5"/><circle cx="15" cy="5.5" r="2.5"/><circle cx="19.5" cy="9.5" r="2.5"/><path d="M17.34 14.86c-.87-1.02-1.6-1.89-2.48-2.91-.46-.54-1.05-1.08-1.75-1.32-.11-.04-.22-.07-.33-.09-.25-.04-.52-.04-.78-.04s-.53 0-.79.05c-.11.02-.22.05-.33.09-.7.24-1.28.78-1.75 1.32-.87 1.02-1.6 1.89-2.48 2.91-1.31 1.31-2.92 2.76-2.62 4.79.29 1.02 1.02 2.03 2.33 2.32.73.15 3.06-.44 5.54-.44h.18c2.48 0 4.81.58 5.54.44 1.31-.29 2.04-1.31 2.33-2.32.31-2.04-1.3-3.49-2.61-4.8z"/></symbol>
<symbol id="picture_in_picture" viewBox="0 0 24 24"><path d="M0 0h24v24H0V0z" fill="none"/><path d="M19 7h-8v6h8V7zm4-4H1v17.98h22V3zm-2 16.01H3V4.98h18v14.03z"/></symbol>
<symbol id="picture_in_picture_alt" viewBox="0 0 24 24"><path d="M0 0h24v24H0V0z" fill="none"/><path d="M19 11h-8v6h8v-6zm4 10V3H1v18h22zm-2-1.98H3V4.97h18v14.05z"/></symbol>
<symbol id="plagiarism" viewBox="0 0 24 24"><g><rect fill="none" height="24" width="24"/></g><g><g><circle cx="11.5" cy="14.5" r="1.5"/><path d="M14,2H4v20h16V8L14,2z M15.04,19.45l-1.88-1.88c-1.33,0.71-3.01,0.53-4.13-0.59c-1.37-1.37-1.37-3.58,0-4.95 c1.37-1.37,3.58-1.37,4.95,0c1.12,1.12,1.31,2.8,0.59,4.13l1.88,1.88L15.04,19.45z M13,9V3.5L18.5,9H13z"/></g></g></symbol>
<symbol id="play_for_work" viewBox="0 0 24 24"><path d="M0 0h24v24H0V0z" fill="none"/><path d="M11 5v5.59H7.5l4.5 4.5 4.5-4.5H13V5h-2zm-5 9c0 3.31 2.69 6 6 6s6-2.69 6-6h-2c0 2.21-1.79 4-4 4s-4-1.79-4-4H6z"/></symbol>
<symbol id="polymer" viewBox="0 0 24 24"><path d="M0 0h24v24H0V0z" fill="none"/><path d="M19 4h-4L7.11 16.63 4.5 12 9 4H5L.5 12 5 20h4l7.89-12.63L19.5 12 15 20h4l4.5-8L19 4z"/></symbol>
<symbol id="power_settings_new" viewBox="0 0 24 24"><path d="M0 0h24v24H0V0z" fill="none"/><path d="M13 3h-2v10h2V3zm4.83 2.17l-1.42 1.42C17.99 7.86 19 9.81 19 12c0 3.87-3.13 7-7 7s-7-3.13-7-7c0-2.19 1.01-4.14 2.58-5.42L6.17 5.17C4.23 6.82 3 9.26 3 12c0 4.97 4.03 9 9 9s9-4.03 9-9c0-2.74-1.23-5.18-3.17-6.83z"/></symbol>
<symbol id="pregnant_woman" viewBox="0 0 24 24"><path d="M0 0h24v24H0z" fill="none"/><path d="M9 4c0-1.11.89-2 2-2s2 .89 2 2-.89 2-2 2-2-.89-2-2zm7 9c-.01-1.34-.83-2.51-2-3 0-1.66-1.34-3-3-3s-3 1.34-3 3v7h2v5h3v-5h3v-4z"/></symbol>
<symbol id="preview" viewBox="0 0 24 24"><g><rect fill="none" height="24" width="24"/><path d="M3,3v18h18V3H3z M19,19H5V7h14V19z M13.5,13c0,0.83-0.67,1.5-1.5,1.5s-1.5-0.67-1.5-1.5c0-0.83,0.67-1.5,1.5-1.5 S13.5,12.17,13.5,13z M12,9c-2.73,0-5.06,1.66-6,4c0.94,2.34,3.27,4,6,4s5.06-1.66,6-4C17.06,10.66,14.73,9,12,9z M12,15.5 c-1.38,0-2.5-1.12-2.5-2.5c0-1.38,1.12-2.5,2.5-2.5c1.38,0,2.5,1.12,2.5,2.5C14.5,14.38,13.38,15.5,12,15.5z"/></g></symbol>
<symbol id="print" viewBox="0 0 24 24"><path d="M0 0h24v24H0V0z" fill="none"/><path d="M22 8H2v9h4v4h12v-4h4V8zm-6 11H8v-5h8v5zm3-7c-.55 0-1-.45-1-1s.45-1 1-1 1 .45 1 1-.45 1-1 1zm-1-9H6v4h12V3z"/></symbol>
<symbol id="privacy_tip" viewBox="0 0 24 24"><g><rect fill="none" height="24" width="24"/><path d="M12,1L3,5v6c0,5.55,3.84,10.74,9,12c5.16-1.26,9-6.45,9-12V5L12,1L12,1z M11,7h2v2h-2V7z M11,11h2v6h-2V11z"/></g></symbol>
<symbol id="published_with_changes" viewBox="0 0 24 24"><rect fill="none" height="24" width="24"/><path d="M17.66,9.53l-7.07,7.07l-4.24-4.24l1.41-1.41l2.83,2.83l5.66-5.66L17.66,9.53z M4,12c0-2.33,1.02-4.42,2.62-5.88L9,8.5v-6H3 l2.2,2.2C3.24,6.52,2,9.11,2,12c0,5.19,3.95,9.45,9,9.95v-2.02C7.06,19.44,4,16.07,4,12z M22,12c0-5.19-3.95-9.45-9-9.95v2.02 c3.94,0.49,7,3.86,7,7.93c0,2.33-1.02,4.42-2.62,5.88L15,15.5v6h6l-2.2-2.2C20.76,17.48,22,14.89,22,12z"/></symbol>
<symbol id="query_builder" viewBox="0 0 24 24"><path d="M0 0h24v24H0V0z" fill="none"/><path d="M11.99 2C6.47 2 2 6.48 2 12s4.47 10 9.99 10C17.52 22 22 17.52 22 12S17.52 2 11.99 2zM12 20c-4.42 0-8-3.58-8-8s3.58-8 8-8 8 3.58 8 8-3.58 8-8 8zm.5-13H11v6l5.25 3.15.75-1.23-4.5-2.67z"/></symbol>
<symbol id="question_answer" viewBox="0 0 24 24"><path d="M0 0h24v24H0V0z" fill="none"/><path d="M22 6h-3v9H6v3h12l4 4V6zm-5 7V2H2v15l4-4h11z"/></symbol>
<symbol id="quickreply" viewBox="0 0 24 24"><g><rect fill="none" height="24" width="24"/></g><g><g><g><polygon points="22,2 2,2 2,22 6,18 15,18 15,10 22,10"/></g><g><polygon points="22.5,16 20.3,16 22,12 17,12 17,18 19,18 19,23"/></g></g></g></symbol>
<symbol id="receipt" viewBox="0 0 24 24"><path d="M0 0h24v24H0V0z" fill="none"/><path d="M18 17H6v-2h12v2zm0-4H6v-2h12v2zm0-4H6V7h12v2zM3 22l1.5-1.5L6 22l1.5-1.5L9 22l1.5-1.5L12 22l1.5-1.5L15 22l1.5-1.5L18 22l1.5-1.5L21 22V2l-1.5 1.5L18 2l-1.5 1.5L15 2l-1.5 1.5L12 2l-1.5 1.5L9 2 7.5 3.5 6 2 4.5 3.5 3 2v20z"/></symbol>
<symbol id="record_voice_over" viewBox="0 0 24 24"><path d="M0 0h24v24H0V0z" fill="none"/><circle cx="9" cy="9" r="4"/><path d="M9 15c-2.67 0-8 1.34-8 4v2h16v-2c0-2.66-5.33-4-8-4zm6.08-7.95c.84 1.18.84 2.71 0 3.89l1.68 1.69c2.02-2.02 2.02-5.07 0-7.27l-1.68 1.69zM20.07 2l-1.63 1.63c2.77 3.02 2.77 7.56 0 10.74L20.07 16c3.9-3.89 3.91-9.95 0-14z"/></symbol>
<symbol id="redeem" viewBox="0 0 24 24"><path d="M0 0h24v24H0V0z" fill="none"/><path d="M22 6h-4.18c.11-.31.18-.65.18-1 0-1.66-1.34-3-3-3-1.05 0-1.96.54-2.5 1.35l-.5.67-.5-.68C10.96 2.54 10.05 2 9 2 7.34 2 6 3.34 6 5c0 .35.07.69.18 1H2v15h20V6zm-7-2c.55 0 1 .45 1 1s-.45 1-1 1-1-.45-1-1 .45-1 1-1zM9 4c.55 0 1 .45 1 1s-.45 1-1 1-1-.45-1-1 .45-1 1-1zm11 15H4v-2h16v2zm0-5H4V8h5.08L7 10.83 8.62 12 12 7.4l3.38 4.6L17 10.83 14.92 8H20v6z"/></symbol>
<symbol id="remove_shopping_cart" viewBox="0 0 24 24"><path d="M0 0h24v24H0V0z" fill="none"/><path d="M1.41 1.13L0 2.54l4.39 4.39 2.21 4.66L3.62 17h10.84l1.38 1.38c-.5.36-.83.95-.83 1.62 0 1.1.89 2 1.99 2 .67 0 1.26-.33 1.62-.84L21.46 24l1.41-1.41L1.41 1.13zM7 15l1.1-2h2.36l2 2H7zm9.05-2.06h.73L21.7 4H7.12l8.93 8.94zM7 18c-1.1 0-1.99.9-1.99 2S5.9 22 7 22s2-.9 2-2-.9-2-2-2z"/></symbol>
<symbol id="reorder" viewBox="0 0 24 24"><path d="M0 0h24v24H0V0z" fill="none"/><path d="M3 15h18v-2H3v2zm0 4h18v-2H3v2zm0-8h18V9H3v2zm0-6v2h18V5H3z"/></symbol>
<symbol id="report_problem" viewBox="0 0 24 24"><path d="M0 0h24v24H0V0z" fill="none"/><path d="M1 21h22L12 2 1 21zm12-3h-2v-2h2v2zm0-4h-2v-4h2v4z"/></symbol>
<symbol id="request_page" viewBox="0 0 24 24"><rect fill="none" height="24" width="24"/><path d="M14,2H4.01L4,22h16V8L14,2z M15,11h-4v1h4v5h-2v1h-2v-1H9v-2h4v-1H9V9h2V8h2v1h2V11z"/></symbol>
<symbol id="restore" viewBox="0 0 24 24"><path d="M0 0h24v24H0V0z" fill="none"/><path d="M13 3c-4.97 0-9 4.03-9 9H1l4 3.99L9 12H6c0-3.87 3.13-7 7-7s7 3.13 7 7-3.13 7-7 7c-1.93 0-3.68-.79-4.94-2.06l-1.42 1.42C8.27 19.99 10.51 21 13 21c4.97 0 9-4.03 9-9s-4.03-9-9-9zm-1 5v5l4.25 2.52.77-1.28-3.52-2.09V8z"/></symbol>
<symbol id="restore_from_trash" viewBox="0 0 24 24"><path d="M0 0h24v24H0V0z" fill="none"/><path d="M6 21h12V7H6v14zm6-11l4 4h-2v4h-4v-4H8l4-4zm3.5-6l-1-1h-5l-1 1H5v2h14V4z"/></symbol>
<symbol id="restore_page" viewBox="0 0 24 24"><path d="M0 0h24v24H0V0z" fill="none"/><path d="M14 2H4v20h16V8l-6-6zm-2 16c-2.05 0-3.81-1.24-4.58-3h1.71c.63.9 1.68 1.5 2.87 1.5 1.93 0 3.5-1.57 3.5-3.5S13.93 9.5 12 9.5c-1.35 0-2.52.78-3.1 1.9l1.6 1.6h-4V9l1.3 1.3C8.69 8.92 10.23 8 12 8c2.76 0 5 2.24 5 5s-2.24 5-5 5z"/></symbol>
<symbol id="room" viewBox="0 0 24 24"><path d="M0 0h24v24H0V0z" fill="none"/><path d="M12 2C8.13 2 5 5.13 5 9c0 5.25 7 13 7 13s7-7.75 7-13c0-3.87-3.13-7-7-7zm0 9.5c-1.38 0-2.5-1.12-2.5-2.5s1.12-2.5 2.5-2.5 2.5 1.12 2.5 2.5-1.12 2.5-2.5 2.5z"/></symbol>
<symbol id="rounded_corner" viewBox="0 0 24 24"><path d="M0 0h24v24H0z" fill="none"/><path d="M19 19h2v2h-2v-2zm0-2h2v-2h-2v2zM3 13h2v-2H3v2zm0 4h2v-2H3v2zm0-8h2V7H3v2zm0-4h2V3H3v2zm4 0h2V3H7v2zm8 16h2v-2h-2v2zm-4 0h2v-2h-2v2zm4 0h2v-2h-2v2zm-8 0h2v-2H7v2zm-4 0h2v-2H3v2zM21 3H11v2h8v8h2V3z"/></symbol>
<symbol id="rowing" viewBox="0 0 24 24"><path d="M0 0h24v24H0z" fill="none"/><path d="M8.5 14.5L4 19l1.5 1.5L9 17h2l-2.5-2.5zM15 1c-1.1 0-2 .9-2 2s.9 2 2 2 2-.9 2-2-.9-2-2-2zm6 20.01L18 24l-2.99-3.01V19.5l-7.1-7.09c-.31.05-.61.07-.91.07v-2.16c1.66.03 3.61-.87 4.67-2.04l1.4-1.55c.19-.21.43-.38.69-.5.29-.14.62-.23.96-.23h.03C15.99 6 17 7.01 17 8.25V17l-.92-.83-3.58-3.58v-2.27c-.63.52-1.43 1.02-2.29 1.39L16.5 18H18l3 3.01z"/></symbol>
<symbol id="rule" viewBox="0 0 24 24"><g><rect fill="none" height="24" width="24"/><path d="M16.54,11L13,7.46l1.41-1.41l2.12,2.12l4.24-4.24l1.41,1.41L16.54,11z M11,7H2v2h9V7z M21,13.41L19.59,12L17,14.59 L14.41,12L13,13.41L15.59,16L13,18.59L14.41,20L17,17.41L19.59,20L21,18.59L18.41,16L21,13.41z M11,15H2v2h9V15z"/></g></symbol>
<symbol id="schedule" viewBox="0 0 24 24"><path d="M0 0h24v24H0V0z" fill="none"/><path d="M11.99 2C6.47 2 2 6.48 2 12s4.47 10 9.99 10C17.52 22 22 17.52 22 12S17.52 2 11.99 2zM12 20c-4.42 0-8-3.58-8-8s3.58-8 8-8 8 3.58 8 8-3.58 8-8 8zm.5-13H11v6l5.25 3.15.75-1.23-4.5-2.67z"/></symbol>
<symbol id="search" viewBox="0 0 24 24"><path d="M0 0h24v24H0V0z" fill="none"/><path d="M15.5 14h-.79l-.28-.27C15.41 12.59 16 11.11 16 9.5 16 5.91 13.09 3 9.5 3S3 5.91 3 9.5 5.91 16 9.5 16c1.61 0 3.09-.59 4.23-1.57l.27.28v.79l5 4.99L20.49 19l-4.99-5zm-6 0C7.01 14 5 11.99 5 9.5S7.01 5 9.5 5 14 7.01 14 9.5 11.99 14 9.5 14z"/></symbol>
<symbol id="search_off" viewBox="0 0 24 24"><g><rect fill="none" height="24" width="24"/></g><g><g><path d="M15.5,14h-0.79l-0.28-0.27C15.41,12.59,16,11.11,16,9.5C16,5.91,13.09,3,9.5,3C6.08,3,3.28,5.64,3.03,9h2.02 C5.3,6.75,7.18,5,9.5,5C11.99,5,14,7.01,14,9.5S11.99,14,9.5,14c-0.17,0-0.33-0.03-0.5-0.05v2.02C9.17,15.99,9.33,16,9.5,16 c1.61,0,3.09-0.59,4.23-1.57L14,14.71v0.79l5,4.99L20.49,19L15.5,14z"/><polygon points="6.47,10.82 4,13.29 1.53,10.82 0.82,11.53 3.29,14 0.82,16.47 1.53,17.18 4,14.71 6.47,17.18 7.18,16.47 4.71,14 7.18,11.53"/></g></g></symbol>
<symbol id="settings" viewBox="0 0 24 24"><path d="M0 0h24v24H0V0z" fill="none"/><path d="M19.44 12.99l-.01.02c.04-.33.08-.67.08-1.01 0-.34-.03-.66-.07-.99l.01.02 2.44-1.92-2.43-4.22-2.87 1.16.01.01c-.52-.4-1.09-.74-1.71-1h.01L14.44 2H9.57l-.44 3.07h.01c-.62.26-1.19.6-1.71 1l.01-.01-2.88-1.17-2.44 4.22 2.44 1.92.01-.02c-.04.33-.07.65-.07.99 0 .34.03.68.08 1.01l-.01-.02-2.1 1.65-.33.26 2.43 4.2 2.88-1.15-.02-.04c.53.41 1.1.75 1.73 1.01h-.03L9.58 22h4.85s.03-.18.06-.42l.38-2.65h-.01c.62-.26 1.2-.6 1.73-1.01l-.02.04 2.88 1.15 2.43-4.2s-.14-.12-.33-.26l-2.11-1.66zM12 15.5c-1.93 0-3.5-1.57-3.5-3.5s1.57-3.5 3.5-3.5 3.5 1.57 3.5 3.5-1.57 3.5-3.5 3.5z"/></symbol>
<symbol id="settings_applications" viewBox="0 0 24 24"><path d="M0 0h24v24H0V0z" fill="none"/><path d="M19 3H5c-1.11 0-2 .9-2 2v14c0 1.1.89 2 2 2h14c1.11 0 2-.9 2-2V5c0-1.1-.89-2-2-2zm-1.75 9c0 .24-.02.47-.05.71l.01-.02 1.47 1.16c.14.1.23.18.23.18l-1.7 2.94-2.02-.8.02-.03c-.37.29-.77.53-1.21.71h.01l-.27 1.85c-.02.17-.04.3-.04.3h-3.4l-.31-2.15H10c-.44-.18-.84-.42-1.21-.71l.02.03-2.02.8-1.7-2.94s.1-.08.23-.18l1.47-1.16.01.02c-.03-.24-.05-.47-.05-.71s.02-.47.05-.69l-.01.01-1.7-1.34 1.7-2.95 2.01.81v.01c.37-.28.77-.52 1.2-.7h-.01L10.3 5h3.41l.3 2.15H14c.43.18.83.42 1.2.7v-.01l2.01-.81 1.7 2.95-1.71 1.34-.01-.01c.04.22.06.45.06.69z"/><circle cx="12" cy="12" r="2.45"/></symbol>
<symbol id="settings_backup_restore" viewBox="0 0 24 24"><path d="M0 0h24v24H0V0z" fill="none"/><path d="M14 12c0-1.1-.9-2-2-2s-2 .9-2 2 .9 2 2 2 2-.9 2-2zm-2-9c-4.97 0-9 4.03-9 9H0l4 4 4-4H5c0-3.87 3.13-7 7-7s7 3.13 7 7-3.13 7-7 7c-1.51 0-2.91-.49-4.06-1.3l-1.42 1.44C8.04 20.3 9.94 21 12 21c4.97 0 9-4.03 9-9s-4.03-9-9-9z"/></symbol>
<symbol id="settings_bluetooth" viewBox="0 0 24 24"><path d="M0 0h24v24H0V0z" fill="none"/><path d="M11 24h2v-2h-2v2zm-4 0h2v-2H7v2zm8 0h2v-2h-2v2zm2.71-18.29L12 0h-1v7.59L6.41 3 5 4.41 10.59 10 5 15.59 6.41 17 11 12.41V20h1l5.71-5.71-4.3-4.29 4.3-4.29zM13 3.83l1.88 1.88L13 7.59V3.83zm1.88 10.46L13 16.17v-3.76l1.88 1.88z"/></symbol>
<symbol id="settings_brightness" viewBox="0 0 24 24"><path d="M0 0h24v24H0V0z" fill="none"/><path d="M23 3H1v18h22V3zm-2 16.01H3V4.99h18v14.02zM8 16h2.5l1.5 1.5 1.5-1.5H16v-2.5l1.5-1.5-1.5-1.5V8h-2.5L12 6.5 10.5 8H8v2.5L6.5 12 8 13.5V16zm4-7c1.66 0 3 1.34 3 3s-1.34 3-3 3V9z"/></symbol>
<symbol id="settings_cell" viewBox="0 0 24 24"><path d="M0 0h24v24H0V0z" fill="none"/><path d="M7 24h2v-2H7v2zm4 0h2v-2h-2v2zm4 0h2v-2h-2v2zM6 0v20h12V0H6zm10 16H8V4h8v12z"/></symbol>
<symbol id="settings_ethernet" viewBox="0 0 24 24"><path d="M0 0h24v24H0V0z" fill="none"/><path d="M7.77 6.76L6.23 5.48.82 12l5.41 6.52 1.54-1.28L3.42 12l4.35-5.24zM7 13h2v-2H7v2zm10-2h-2v2h2v-2zm-6 2h2v-2h-2v2zm6.77-7.52l-1.54 1.28L20.58 12l-4.35 5.24 1.54 1.28L23.18 12l-5.41-6.52z"/></symbol>
<symbol id="settings_input_antenna" viewBox="0 0 24 24"><path d="M0 0h24v24H0V0z" fill="none"/><path d="M12 5c-3.87 0-7 3.13-7 7h2c0-2.76 2.24-5 5-5s5 2.24 5 5h2c0-3.87-3.13-7-7-7zm1 9.29c.88-.39 1.5-1.26 1.5-2.29 0-1.38-1.12-2.5-2.5-2.5S9.5 10.62 9.5 12c0 1.02.62 1.9 1.5 2.29v3.3L7.59 21 9 22.41l3-3 3 3L16.41 21 13 17.59v-3.3zM12 1C5.93 1 1 5.93 1 12h2c0-4.97 4.03-9 9-9s9 4.03 9 9h2c0-6.07-4.93-11-11-11z"/></symbol>
<symbol id="settings_input_component" viewBox="0 0 24 24"><path d="M0 0h24v24H0V0z" fill="none"/><path d="M5 2c0-.55-.45-1-1-1s-1 .45-1 1v4H1v6h6V6H5V2zm4 16.82h2V23h2v-4.18h2V14H9v4.82zm-8 0h2V23h2v-4.18h2V14H1v4.82zM21 6V2c0-.55-.45-1-1-1s-1 .45-1 1v4h-2v6h6V6h-2zm-8-4c0-.55-.45-1-1-1s-1 .45-1 1v4H9v6h6V6h-2V2zm4 16.82h2V23h2v-4.18h2V14h-6v4.82z"/></symbol>
<symbol id="settings_input_composite" viewBox="0 0 24 24"><path d="M0 0h24v24H0V0z" fill="none"/><path d="M5 2c0-.55-.45-1-1-1s-1 .45-1 1v4H1v6h6V6H5V2zm4 16.82h2V23h2v-4.18h2V14H9v4.82zm-8 0h2V23h2v-4.18h2V14H1v4.82zM21 6V2c0-.55-.45-1-1-1s-1 .45-1 1v4h-2v6h6V6h-2zm-8-4c0-.55-.45-1-1-1s-1 .45-1 1v4H9v6h6V6h-2V2zm4 16.82h2V23h2v-4.18h2V14h-6v4.82z"/></symbol>
<symbol id="settings_input_hdmi" viewBox="0 0 24 24"><path d="M0 0h24v24H0V0z" fill="none"/><path d="M18 7V2H6v5H5v6l3 6v3h8v-3l3-6V7h-1zM8 4h8v3h-2V5h-1v2h-2V5h-1v2H8V4z"/></symbol>
<symbol id="settings_input_svideo" viewBox="0 0 24 24"><path d="M0 0h24v24H0V0z" fill="none"/><path d="M8 11.5c0-.83-.67-1.5-1.5-1.5S5 10.67 5 11.5 5.67 13 6.5 13 8 12.33 8 11.5zm7-5c0-.83-.67-1.5-1.5-1.5h-3C9.67 5 9 5.67 9 6.5S9.67 8 10.5 8h3c.83 0 1.5-.67 1.5-1.5zM8.5 15c-.83 0-1.5.67-1.5 1.5S7.67 18 8.5 18s1.5-.67 1.5-1.5S9.33 15 8.5 15zM12 1C5.93 1 1 5.93 1 12s4.93 11 11 11 11-4.93 11-11S18.07 1 12 1zm0 20c-4.96 0-9-4.04-9-9s4.04-9 9-9 9 4.04 9 9-4.04 9-9 9zm5.5-11c-.83 0-1.5.67-1.5 1.5s.67 1.5 1.5 1.5 1.5-.67 1.5-1.5-.67-1.5-1.5-1.5zm-2 5c-.83 0-1.5.67-1.5 1.5s.67 1.5 1.5 1.5 1.5-.67 1.5-1.5-.67-1.5-1.5-1.5z"/></symbol>
<symbol id="settings_overscan" viewBox="0 0 24 24"><path d="M0 0h24v24H0V0z" fill="none"/><path d="M12.01 5.5L10 8h4l-1.99-2.5zM18 10v4l2.5-1.99L18 10zM6 10l-2.5 2.01L6 14v-4zm8 6h-4l2.01 2.5L14 16zm9-13H1v18h22V3zm-2 16.01H3V4.99h18v14.02z"/></symbol>
<symbol id="settings_phone" viewBox="0 0 24 24"><path d="M0 0h24v24H0V0z" fill="none"/><path d="M13.21 17.37c-2.83-1.44-5.15-3.75-6.59-6.59l2.53-2.53L8.54 3H3.03C2.45 13.18 10.82 21.55 21 20.97v-5.51l-5.27-.61-2.52 2.52zM11 9h2v2h-2zm4 0h2v2h-2zm4 0h2v2h-2z"/></symbol>
<symbol id="settings_power" viewBox="0 0 24 24"><path d="M0 0h24v24H0V0z" fill="none"/><path d="M7 24h2v-2H7v2zm4 0h2v-2h-2v2zm2-22h-2v10h2V2zm3.56 2.44l-1.45 1.45C16.84 6.94 18 8.83 18 11c0 3.31-2.69 6-6 6s-6-2.69-6-6c0-2.17 1.16-4.06 2.88-5.12L7.44 4.44C5.36 5.88 4 8.28 4 11c0 4.42 3.58 8 8 8s8-3.58 8-8c0-2.72-1.36-5.12-3.44-6.56zM15 24h2v-2h-2v2z"/></symbol>
<symbol id="settings_remote" viewBox="0 0 24 24"><path d="M0 0h24v24H0V0z" fill="none"/><path d="M16 9H8v14h8V9zm-4 6c-1.1 0-2-.9-2-2s.9-2 2-2 2 .9 2 2-.9 2-2 2zM7.05 6.05l1.41 1.41C9.37 6.56 10.62 6 12 6s2.63.56 3.54 1.46l1.41-1.41C15.68 4.78 13.93 4 12 4s-3.68.78-4.95 2.05zM12 0C8.96 0 6.21 1.23 4.22 3.22l1.41 1.41C7.26 3.01 9.51 2 12 2s4.74 1.01 6.36 2.64l1.41-1.41C17.79 1.23 15.04 0 12 0z"/></symbol>
<symbol id="settings_voice" viewBox="0 0 24 24"><path d="M0 0h24v24H0V0z" fill="none"/><path d="M7 24h2v-2H7v2zm5-11c1.66 0 2.99-1.34 2.99-3L15 4c0-1.66-1.34-3-3-3S9 2.34 9 4v6c0 1.66 1.34 3 3 3zm-1 11h2v-2h-2v2zm4 0h2v-2h-2v2zm4-14h-1.7c0 3-2.54 5.1-5.3 5.1S6.7 13 6.7 10H5c0 3.41 2.72 6.23 6 6.72V20h2v-3.28c3.28-.49 6-3.31 6-6.72z"/></symbol>
<symbol id="shop" viewBox="0 0 24 24"><path d="M0 0h24v24H0V0z" fill="none"/><path d="M16 6V4c0-1.1-.9-2-2-2h-4c-1.1 0-2 .9-2 2v2H2v15h20V6h-6zm-6-2h4v2h-4V4zM9 18V9l7.5 4L9 18z"/></symbol>
<symbol id="shopping_bag" viewBox="0 0 24 24"><g><rect fill="none" height="24" width="24"/><path d="M20,6h-4c0-2.21-1.79-4-4-4S8,3.79,8,6H4v16h16V6z M10,11H8V8h2V11z M12,4c1.1,0,2,0.9,2,2h-4C10,4.9,10.9,4,12,4z M16,11 h-2V8h2V11z"/></g></symbol>
<symbol id="shopping_basket" viewBox="0 0 24 24"><path d="M0 0h24v24H0V0z" fill="none"/><path d="M17.21 9l-4.39-6.57c-.4-.59-1.27-.59-1.66 0L6.77 9H.69L4 21h16.02l3.29-12h-6.1zm-5.22-4.21L14.8 9H9.18l2.81-4.21zM12 17c-1.1 0-2-.9-2-2s.9-2 2-2 2 .9 2 2-.9 2-2 2z"/></symbol>
<symbol id="shopping_cart" viewBox="0 0 24 24"><path d="M0 0h24v24H0V0z" fill="none"/><path d="M17 18c-1.1 0-1.99.9-1.99 2s.89 2 1.99 2 2-.9 2-2-.9-2-2-2zM7 18c-1.1 0-1.99.9-1.99 2S5.9 22 7 22s2-.9 2-2-.9-2-2-2zm0-3l1.1-2h7.45c.75 0 1.41-.41 1.75-1.03L21.7 4H5.21l-.94-2H1v2h2l3.6 7.59L3.62 17H19v-2H7z"/></symbol>
<symbol id="shop_two" viewBox="0 0 24 24"><path d="M0 0h24v24H0V0z" fill="none"/><path d="M3 9H1v13h18v-2H3V9zm15-4V3c0-1.1-.9-2-2-2h-4c-1.1 0-2 .9-2 2v2H5v13h18V5h-5zm-6-2h4v2h-4V3zm0 12V8l5.5 3-5.5 4z"/></symbol>
<symbol id="smart_button" viewBox="0 0 24 24"><g><rect fill="none" height="24" width="24"/><path d="M22,17h-3l0-2h1V9H4v6h6v2H2V7h20V17z M14.5,19l1.09-2.41L18,15.5l-2.41-1.09L14.5,12l-1.09,2.41L11,15.5l2.41,1.09 L14.5,19z M17,14l0.62-1.38L19,12l-1.38-0.62L17,10l-0.62,1.38L15,12l1.38,0.62L17,14z"/></g></symbol>
<symbol id="source" viewBox="0 0 24 24"><g><rect fill="none" height="24" width="24"/><path d="M12,6l-2-2H2v16h20V6H12z M14,16H6v-2h8V16z M18,12H6v-2h12V12z"/></g></symbol>
<symbol id="speaker_notes" viewBox="0 0 24 24"><path d="M0 0h24v24H0V0z" fill="none"/><path d="M22 2H2.01L2 22l4-4h16V2zM8 14H6v-2h2v2zm0-3H6V9h2v2zm0-3H6V6h2v2zm7 6h-5v-2h5v2zm3-3h-8V9h8v2zm0-3h-8V6h8v2z"/></symbol>
<symbol id="speaker_notes_off" viewBox="0 0 24 24"><path d="M0 0h24v24H0V0z" fill="none"/><path d="M1.27 1.73L0 3l2.01 2.01L2 22l4-4h9l5.73 5.73L22 22.46 1.27 1.73zM8 14H6v-2h2v2zm-2-3V9l2 2H6zm16-9H4.08L10 7.92V6h8v2h-7.92l1 1H18v2h-4.92l6.99 6.99H22V2z"/></symbol>
<symbol id="spellcheck" viewBox="0 0 24 24"><path d="M0 0h24v24H0V0z" fill="none"/><path d="M12.45 16h2.09L9.43 3H7.57L2.46 16h2.09l1.12-3h5.64l1.14 3zm-6.02-5L8.5 5.48 10.57 11H6.43zm15.16.59l-8.09 8.09L9.83 16l-1.41 1.41 5.09 5.09L23 13l-1.41-1.41z"/></symbol>
<symbol id="stars" viewBox="0 0 24 24"><path d="M0 0h24v24H0V0z" fill="none"/><path d="M11.99 2C6.47 2 2 6.48 2 12s4.47 10 9.99 10C17.52 22 22 17.52 22 12S17.52 2 11.99 2zm4.24 16L12 15.45 7.77 18l1.12-4.81-3.73-3.23 4.92-.42L12 5l1.92 4.53 4.92.42-3.73 3.23L16.23 18z"/></symbol>
<symbol id="star_rate" viewBox="0 0 24 24"><g><rect fill="none" height="24" width="24"/><polygon points="14.43,10 12,2 9.57,10 2,10 8.18,14.41 5.83,22 12,17.31 18.18,22 15.83,14.41 22,10"/></g></symbol>
<symbol id="sticky_note_2" viewBox="0 0 24 24"><rect fill="none" height="24" width="24"/><path d="M2.99,3L3,21h12l6-6V3H2.99z M7,8h10v2H7V8z M12,14H7v-2h5V14z M14,19.5V14h5.5L14,19.5z"/></symbol>
<symbol id="store" viewBox="0 0 24 24"><path d="M0 0h24v24H0V0z" fill="none"/><path d="M20 4H4v2h16V4zm1 10v-2l-1-5H4l-1 5v2h1v6h10v-6h4v6h2v-6h1zm-9 4H6v-4h6v4z"/></symbol>
<symbol id="subject" viewBox="0 0 24 24"><path d="M0 0h24v24H0V0z" fill="none"/><path d="M14 17H4v2h10v-2zm6-8H4v2h16V9zM4 15h16v-2H4v2zM4 5v2h16V5H4z"/></symbol>
<symbol id="subtitles_off" viewBox="0 0 24 24"><g><rect fill="none" height="24" width="24"/></g><g><g><polygon points="6.83,4 14.83,12 20,12 20,14 16.83,14 22,19.17 22,4"/><path d="M1.04,3.87L2,4.83V20h15.17l2.96,2.96l1.41-1.41L2.45,2.45L1.04,3.87z M4,12h4v2H4V12z M4,16h9.17L14,16.83V18H4V16z"/></g></g></symbol>
<symbol id="supervised_user_circle" viewBox="0 0 24 24"><path d="M0 0h24v24H0V0z" fill="none"/><path d="M12 2C6.48 2 2 6.48 2 12s4.48 10 10 10 10-4.48 10-10S17.52 2 12 2zm3.61 6.34c1.07 0 1.93.86 1.93 1.93s-.86 1.93-1.93 1.93-1.93-.86-1.93-1.93c-.01-1.07.86-1.93 1.93-1.93zm-6-1.58c1.3 0 2.36 1.06 2.36 2.36s-1.06 2.36-2.36 2.36-2.36-1.06-2.36-2.36c0-1.31 1.05-2.36 2.36-2.36zm0 9.13v3.75c-2.4-.75-4.3-2.6-5.14-4.96 1.05-1.12 3.67-1.69 5.14-1.69.53 0 1.2.08 1.9.22-1.64.87-1.9 2.02-1.9 2.68zM12 20c-.27 0-.53-.01-.79-.04v-4.07c0-1.42 2.94-2.13 4.4-2.13 1.07 0 2.92.39 3.84 1.15C18.28 17.88 15.39 20 12 20z"/></symbol>
<symbol id="supervisor_account" viewBox="0 0 24 24"><path d="M0 0h24v24H0V0z" fill="none"/><path d="M16.5 12c1.38 0 2.49-1.12 2.49-2.5S17.88 7 16.5 7 14 8.12 14 9.5s1.12 2.5 2.5 2.5zM9 11c1.66 0 2.99-1.34 2.99-3S10.66 5 9 5 6 6.34 6 8s1.34 3 3 3zm7.5 3c-1.83 0-5.5.92-5.5 2.75V19h11v-2.25c0-1.83-3.67-2.75-5.5-2.75zM9 13c-2.33 0-7 1.17-7 3.5V19h7v-2.25c0-.85.33-2.34 2.37-3.47C10.5 13.1 9.66 13 9 13z"/></symbol>
<symbol id="support" viewBox="0 0 24 24"><g><rect fill="none" height="24" width="24"/></g><g><path d="M12,2C6.48,2,2,6.48,2,12c0,5.52,4.48,10,10,10s10-4.48,10-10C22,6.48,17.52,2,12,2z M19.46,9.12l-2.78,1.15 c-0.51-1.36-1.58-2.44-2.95-2.94l1.15-2.78C16.98,5.35,18.65,7.02,19.46,9.12z M12,15c-1.66,0-3-1.34-3-3s1.34-3,3-3s3,1.34,3,3 S13.66,15,12,15z M9.13,4.54l1.17,2.78c-1.38,0.5-2.47,1.59-2.98,2.97L4.54,9.13C5.35,7.02,7.02,5.35,9.13,4.54z M4.54,14.87 l2.78-1.15c0.51,1.38,1.59,2.46,2.97,2.96l-1.17,2.78C7.02,18.65,5.35,16.98,4.54,14.87z M14.88,19.46l-1.15-2.78 c1.37-0.51,2.45-1.59,2.95-2.97l2.78,1.17C18.65,16.98,16.98,18.65,14.88,19.46z"/></g></symbol>
<symbol id="swap_horiz" viewBox="0 0 24 24"><path d="M0 0h24v24H0V0z" fill="none"/><path d="M6.99 11L3 15l3.99 4v-3H14v-2H6.99v-3zM21 9l-3.99-4v3H10v2h7.01v3L21 9z"/></symbol>
<symbol id="swap_horizontal_circle" viewBox="0 0 24 24"><path d="M0 0h24v24H0V0z" fill="none"/><path d="M22 12c0-5.52-4.48-10-10-10S2 6.48 2 12s4.48 10 10 10 10-4.48 10-10zm-7-5.5l3.5 3.5-3.5 3.5V11h-4V9h4V6.5zm-6 11L5.5 14 9 10.5V13h4v2H9v2.5z"/></symbol>
<symbol id="swap_vert" viewBox="0 0 24 24"><path d="M0 0h24v24H0V0z" fill="none"/><path d="M16 17.01V10h-2v7.01h-3L15 21l4-3.99h-3zM9 3L5 6.99h3V14h2V6.99h3L9 3z"/></symbol>
<symbol id="swap_vertical_circle" viewBox="0 0 24 24"><path d="M0 0h24v24H0V0z" fill="none"/><path d="M12 2C6.48 2 2 6.48 2 12s4.48 10 10 10 10-4.48 10-10S17.52 2 12 2zM6.5 9L10 5.5 13.5 9H11v4H9V9H6.5zm7.5 9.5L10.5 15H13v-4h2v4h2.5L14 18.5z"/></symbol>
<symbol id="sync_alt" viewBox="0 0 24 24"><g><rect fill="none" height="24" width="24"/></g><g><g/><g><path d="M22,8l-4-4v3H3v2h15v3L22,8z"/><path d="M2,16l4,4v-3h15v-2H6v-3L2,16z"/></g></g></symbol>
<symbol id="system_update_alt" viewBox="0 0 24 24"><path d="M0 0h24v24H0V0zm0 0h24v24H0V0z" fill="none"/><path d="M12 16l4-4h-3V3h-2v9H8l4 4zm9-13h-6v1.99h6v14.03H3V4.99h6V3H3c-1.1 0-2 .9-2 2v14c0 1.1.9 2 2 2h18c1.1 0 2-.9 2-2V5c0-1.1-.9-2-2-2zm-9 13l4-4h-3V3h-2v9H8l4 4zM23 3h-8v1.99h6v14.03H3V4.99h6V3H1v18h22V3z"/></symbol>
<symbol id="tab" viewBox="0 0 24 24"><path d="M0 0h24v24H0V0zm0 0h24v24H0V0z" fill="none"/><path d="M21 3H3c-1.1 0-2 .9-2 2v14c0 1.1.9 2 2 2h18c1.1 0 2-.9 2-2V5c0-1.1-.9-2-2-2zm0 16H3V5h10v4h8v10zm2-16H1v18h22V3zm-2 16H3V5h10v4h8v10z"/></symbol>
<symbol id="table_view" viewBox="0 0 24 24"><g><rect fill="none" height="24" width="24"/><path d="M21,7H7v14h14V7z M19,9v2H9V9H19z M13,15v-2h2v2H13z M15,17v2h-2v-2H15z M11,15H9v-2h2V15z M17,13h2v2h-2V13z M9,17h2v2H9 V17z M17,19v-2h2v2H17z M6,17H3V3h14v3h-2V5H5v10h1V17z"/></g></symbol>
<symbol id="tab_unselected" viewBox="0 0 24 24"><path d="M0 0h24v24H0V0z" fill="none"/><path d="M1 9h2V7H1v2zm0 4h2v-2H1v2zm8 8h2v-2H9v2zm-8-4h2v-2H1v2zm0 4h2v-2H1v2zM23 3H13v6h10V3zm-2 14h2v-2h-2v2zM9 5h2V3H9v2zM5 21h2v-2H5v2zM5 5h2V3H5v2zM1 5h2V3H1v2zm20 8h2v-2h-2v2zm-8 8h2v-2h-2v2zm4 0h2v-2h-2v2zm4 0h2v-2h-2v2z"/></symbol>
<symbol id="text_rotate_up" viewBox="0 0 24 24"><path d="M0 0h24v24H0V0zm0 0h24v24H0V0zm0 0h24v24H0V0z" fill="none"/><path d="M18 4l-3 3h2v13h2V7h2l-3-3zm-6.2 11.5v-5l2.2-.9V7.5L3 12.25v1.5l11 4.75v-2.1l-2.2-.9zM4.98 13L10 11.13v3.74L4.98 13z"/></symbol>
<symbol id="text_rotate_vertical" viewBox="0 0 24 24"><path d="M0 0h24v24H0V0zm0 0h24v24H0V0zm0 0h24v24H0V0z" fill="none"/><path d="M15.75 5h-1.5L9.5 16h2.1l.9-2.2h5l.9 2.2h2.1L15.75 5zm-2.62 7L15 6.98 16.87 12h-3.74zM6 20l3-3H7V4H5v13H3l3 3z"/></symbol>
<symbol id="text_rotation_angledown" viewBox="0 0 24 24"><path d="M0 0h24v24H0V0zm0 0h24v24H0V0zm0 0h24v24H0V0z" fill="none"/><path d="M15 21v-4.24l-1.41 1.41-9.2-9.19-1.41 1.41 9.19 9.19L10.76 21H15zM11.25 8.48l3.54 3.54-.92 2.19 1.48 1.48 4.42-11.14-1.06-1.05L7.57 7.92 9.06 9.4l2.19-.92zm6.59-3.05l-2.23 4.87-2.64-2.64 4.87-2.23z"/></symbol>
<symbol id="text_rotation_angleup" viewBox="0 0 24 24"><path d="M0 0h24v24H0V0zm0 0h24v24H0V0zm0 0h24v24H0V0z" fill="none"/><path d="M16.76 9l1.41 1.41-9.19 9.19 1.41 1.41 9.19-9.19L21 13.24V9h-4.24zm-8.28 3.75l3.54-3.54 2.19.92 1.48-1.48L4.56 4.23 3.5 5.29l4.42 11.14 1.48-1.48-.92-2.2zm-.82-1.72L5.43 6.16l4.87 2.23-2.64 2.64z"/></symbol>
<symbol id="text_rotation_down" viewBox="0 0 24 24"><path d="M0 0h24v24H0V0zm0 0h24v24H0V0zm0 0h24v24H0V0z" fill="none"/><path d="M6 20l3-3H7V4H5v13H3l3 3zm6.2-11.5v5l-2.2.9v2.1l11-4.75v-1.5L10 5.5v2.1l2.2.9zm6.82 2.5L14 12.87V9.13L19.02 11z"/></symbol>
<symbol id="text_rotation_none" viewBox="0 0 24 24"><path d="M0 0h24v24H0V0z" fill="none"/><path d="M21 18l-3-3v2H5v2h13v2l3-3zM9.5 11.8h5l.9 2.2h2.1L12.75 3h-1.5L6.5 14h2.1l.9-2.2zM12 4.98L13.87 10h-3.74L12 4.98z"/></symbol>
<symbol id="theaters" viewBox="0 0 24 24"><path d="M0 0h24v24H0V0z" fill="none"/><path d="M18 3v2h-2V3H8v2H6V3H4v18h2v-2h2v2h8v-2h2v2h2V3h-2zM8 17H6v-2h2v2zm0-4H6v-2h2v2zm0-4H6V7h2v2zm10 8h-2v-2h2v2zm0-4h-2v-2h2v2zm0-4h-2V7h2v2z"/></symbol>
<symbol id="thumbs_up_down" viewBox="0 0 24 24"><path d="M0 0h24v24H0V0zm0 0h24v24H0V0z" fill="none"/><path d="M12 5H5.82l.78-3.78L5.38 0 0 5.38V14h9.24L12 7.54zm2.76 5L12 16.46V19h6.18l-.78 3.78L18.62 24 24 18.62V10z"/></symbol>
<symbol id="thumb_down" viewBox="0 0 24 24"><path d="M0 0h24v24H0V0zm0 0h24v24H0V0z" fill="none"/><path d="M9.83 23L17 15.82V3H4.69L1 11.6V16h8.31l-1.12 5.38zM19 3h4v12h-4z"/></symbol>
<symbol id="thumb_up" viewBox="0 0 24 24"><path d="M0 0h24v24H0V0zm0 0h24v24H0V0z" fill="none"/><path d="M14.17 1L7 8.18V21h12.31L23 12.4V8h-8.31l1.12-5.38zM1 9h4v12H1z"/></symbol>
<symbol id="timeline" viewBox="0 0 24 24"><g><rect fill="none" height="24" width="24" x="0"/></g><g><g><path d="M23,8c0,1.1-0.9,2-2,2c-0.18,0-0.35-0.02-0.51-0.07l-3.56,3.55C16.98,13.64,17,13.82,17,14c0,1.1-0.9,2-2,2s-2-0.9-2-2 c0-0.18,0.02-0.36,0.07-0.52l-2.55-2.55C10.36,10.98,10.18,11,10,11c-0.18,0-0.36-0.02-0.52-0.07l-4.55,4.56 C4.98,15.65,5,15.82,5,16c0,1.1-0.9,2-2,2s-2-0.9-2-2s0.9-2,2-2c0.18,0,0.35,0.02,0.51,0.07l4.56-4.55C8.02,9.36,8,9.18,8,9 c0-1.1,0.9-2,2-2s2,0.9,2,2c0,0.18-0.02,0.36-0.07,0.52l2.55,2.55C14.64,12.02,14.82,12,15,12c0.18,0,0.36,0.02,0.52,0.07 l3.55-3.56C19.02,8.35,19,8.18,19,8c0-1.1,0.9-2,2-2S23,6.9,23,8z M23,8c0,1.1-0.9,2-2,2c-0.18,0-0.35-0.02-0.51-0.07l-3.56,3.55 C16.98,13.64,17,13.82,17,14c0,1.1-0.9,2-2,2s-2-0.9-2-2c0-0.18,0.02-0.36,0.07-0.52l-2.55-2.55C10.36,10.98,10.18,11,10,11 c-0.18,0-0.36-0.02-0.52-0.07l-4.55,4.56C4.98,15.65,5,15.82,5,16c0,1.1-0.9,2-2,2s-2-0.9-2-2s0.9-2,2-2 c0.18,0,0.35,0.02,0.51,0.07l4.56-4.55C8.02,9.36,8,9.18,8,9c0-1.1,0.9-2,2-2s2,0.9,2,2c0,0.18-0.02,0.36-0.07,0.52l2.55,2.55 C14.64,12.02,14.82,12,15,12c0.18,0,0.36,0.02,0.52,0.07l3.55-3.56C19.02,8.35,19,8.18,19,8c0-1.1,0.9-2,2-2S23,6.9,23,8z"/></g></g></symbol>
<symbol id="toc" viewBox="0 0 24 24"><path d="M0 0h24v24H0V0zm0 0h24v24H0V0z" fill="none"/><path d="M3 9h14V7H3v2zm0 4h14v-2H3v2zm0 4h14v-2H3v2zm16 0h2v-2h-2v2zm0-10v2h2V7h-2zm0 6h2v-2h-2v2zM3 9h14V7H3v2zm0 4h14v-2H3v2zm0 4h14v-2H3v2zm16 0h2v-2h-2v2zm0-10v2h2V7h-2zm0 6h2v-2h-2v2z"/></symbol>
<symbol id="today" viewBox="0 0 24 24"><path d="M0 0h24v24H0V0z" fill="none"/><path d="M21 3h-3V1h-2v2H8V1H6v2H3v18h18V3zm-2 16H5V8h14v11zM7 10h5v5H7v-5z"/></symbol>
<symbol id="toll" viewBox="0 0 24 24"><path d="M0 0h24v24H0V0z" fill="none"/><path d="M15 4c-4.42 0-8 3.58-8 8s3.58 8 8 8 8-3.58 8-8-3.58-8-8-8zm0 14c-3.31 0-6-2.69-6-6s2.69-6 6-6 6 2.69 6 6-2.69 6-6 6zM3 12c0-2.61 1.67-4.83 4-5.65V4.26C3.55 5.15 1 8.27 1 12s2.55 6.85 6 7.74v-2.09c-2.33-.82-4-3.04-4-5.65z"/></symbol>
<symbol id="touch_app" viewBox="0 0 24 24"><g><rect fill="none" height="24" width="24"/></g><g><g><path d="M8.25,9.24V5.5c0-1.38,1.12-2.5,2.5-2.5s2.5,1.12,2.5,2.5v3.74c1.21-0.81,2-2.18,2-3.74c0-2.49-2.01-4.5-4.5-4.5 s-4.5,2.01-4.5,4.5C6.25,7.06,7.04,8.43,8.25,9.24z M13.33,11.5h-1.08v-6c0-0.83-0.67-1.5-1.5-1.5s-1.5,0.67-1.5,1.5v10.74 l-4.04-0.85L4,16.62L9.38,22h8.67l1.07-7.62L13.33,11.5z"/></g></g></symbol>
<symbol id="tour" viewBox="0 0 24 24"><g><rect fill="none" height="24" width="24" x="0" y="0"/><path d="M21,4h-8h-1H7V2H5v2v10v8h2v-8h4h1h9l-2-5L21,4z M15,9c0,1.1-0.9,2-2,2s-2-0.9-2-2s0.9-2,2-2S15,7.9,15,9z"/></g></symbol>
<symbol id="track_changes" viewBox="0 0 24 24"><path d="M0 0h24v24H0V0z" fill="none"/><path d="M19.07 4.93l-1.41 1.41C19.1 7.79 20 9.79 20 12c0 4.42-3.58 8-8 8s-8-3.58-8-8c0-4.08 3.05-7.44 7-7.93v2.02C8.16 6.57 6 9.03 6 12c0 3.31 2.69 6 6 6s6-2.69 6-6c0-1.66-.67-3.16-1.76-4.24l-1.41 1.41C15.55 9.9 16 10.9 16 12c0 2.21-1.79 4-4 4s-4-1.79-4-4c0-1.86 1.28-3.41 3-3.86v2.14c-.6.35-1 .98-1 1.72 0 1.1.9 2 2 2s2-.9 2-2c0-.74-.4-1.38-1-1.72V2h-1C6.48 2 2 6.48 2 12s4.48 10 10 10 10-4.48 10-10c0-2.76-1.12-5.26-2.93-7.07z"/></symbol>
<symbol id="translate" viewBox="0 0 24 24"><path d="M0 0h24v24H0V0z" fill="none"/><path d="M12.87 15.07l-2.54-2.51.03-.03c1.74-1.94 2.98-4.17 3.71-6.53H17V4h-7V2H8v2H1v1.99h11.17C11.5 7.92 10.44 9.75 9 11.35 8.07 10.32 7.3 9.19 6.69 8h-2c.73 1.63 1.73 3.17 2.98 4.56l-5.09 5.02L4 19l5-5 3.11 3.11.76-2.04zM18.5 10h-2L12 22h2l1.12-3h4.75L21 22h2l-4.5-12zm-2.62 7l1.62-4.33L19.12 17h-3.24z"/></symbol>
<symbol id="trending_down" viewBox="0 0 24 24"><path d="M0 0h24v24H0V0z" fill="none"/><path d="M16 18l2.29-2.29-4.88-4.88-4 4L2 7.41 3.41 6l6 6 4-4 6.3 6.29L22 12v6h-6z"/></symbol>
<symbol id="trending_flat" viewBox="0 0 24 24"><path d="M0 0h24v24H0V0z" fill="none"/><path d="M22 12l-4-4v3H3v2h15v3l4-4z"/></symbol>
<symbol id="trending_up" viewBox="0 0 24 24"><path d="M0 0h24v24H0V0z" fill="none"/><path d="M16 6l2.29 2.29-4.88 4.88-4-4L2 16.59 3.41 18l6-6 4 4 6.3-6.29L22 12V6h-6z"/></symbol>
<symbol id="turned_in" viewBox="0 0 24 24"><path d="M0 0h24v24H0V0z" fill="none"/><path d="M19 3H5v18l7-3 7 3V3z"/></symbol>
<symbol id="turned_in_not" viewBox="0 0 24 24"><path d="M0 0h24v24H0V0z" fill="none"/><path d="M19 3H5.01L5 21l7-3 7 3V3zm-2 15l-5-2.18L7 18V5h10v13z"/></symbol>
<symbol id="unpublished" viewBox="0 0 24 24"><rect fill="none" height="24" width="24"/><path d="M21.19,21.19L2.81,2.81L1.39,4.22l2.27,2.27C2.61,8.07,2,9.96,2,12c0,5.52,4.48,10,10,10c2.04,0,3.93-0.61,5.51-1.66 l2.27,2.27L21.19,21.19z M10.59,16.6l-4.24-4.24l1.41-1.41l2.83,2.83l0.18-0.18l1.41,1.41L10.59,16.6z M13.59,10.76l-7.1-7.1 C8.07,2.61,9.96,2,12,2c5.52,0,10,4.48,10,10c0,2.04-0.61,3.93-1.66,5.51l-5.34-5.34l2.65-2.65l-1.41-1.41L13.59,10.76z"/></symbol>
<symbol id="update" viewBox="0 0 24 24"><g><rect fill="none" height="24" width="24"/></g><g><g><path d="M11,8v5l4.25,2.52l0.77-1.28l-3.52-2.09V8H11z M21,10V3l-2.64,2.64C16.74,4.01,14.49,3,12,3c-4.97,0-9,4.03-9,9 s4.03,9,9,9s9-4.03,9-9h-2c0,3.86-3.14,7-7,7s-7-3.14-7-7s3.14-7,7-7c1.93,0,3.68,0.79,4.95,2.05L14,10H21z"/></g></g></symbol>
<symbol id="upgrade" viewBox="0 0 24 24"><g><rect fill="none" height="24" width="24"/><path d="M16,18v2H8v-2H16z M11,7.99V16h2V7.99h3L12,4L8,7.99H11z"/></g></symbol>
<symbol id="verified" viewBox="0 0 24 24"><g><rect fill="none" height="24" width="24"/></g><g><path d="M23,12l-2.44-2.79l0.34-3.69l-3.61-0.82L15.4,1.5L12,2.96L8.6,1.5L6.71,4.69L3.1,5.5L3.44,9.2L1,12l2.44,2.79l-0.34,3.7 l3.61,0.82L8.6,22.5l3.4-1.47l3.4,1.46l1.89-3.19l3.61-0.82l-0.34-3.69L23,12z M10.09,16.72l-3.8-3.81l1.48-1.48l2.32,2.33 l5.85-5.87l1.48,1.48L10.09,16.72z"/></g></symbol>
<symbol id="verified_user" viewBox="0 0 24 24"><path d="M0 0h24v24H0V0z" fill="none"/><path d="M12 1L3 5v6c0 5.55 3.84 10.74 9 12 5.16-1.26 9-6.45 9-12V5l-9-4zm-2 16l-4-4 1.41-1.41L10 14.17l6.59-6.59L18 9l-8 8z"/></symbol>
<symbol id="vertical_split" viewBox="0 0 24 24"><path d="M0 0h24v24H0V0z" fill="none"/><path d="M3 15h8v-2H3v2zm0 4h8v-2H3v2zm0-8h8V9H3v2zm0-6v2h8V5H3zm10 0h8v14h-8V5z"/></symbol>
<symbol id="view_agenda" viewBox="0 0 24 24"><path d="M0 0h24v24H0V0z" fill="none"/><path d="M21 13H2v8h19v-8zm0-10H2v8h19V3z"/></symbol>
<symbol id="view_array" viewBox="0 0 24 24"><path d="M0 0h24v24H0V0z" fill="none"/><path d="M4 18h3V5H4v13zM18 5v13h3V5h-3zM8 18h9V5H8v13z"/></symbol>
<symbol id="view_carousel" viewBox="0 0 24 24"><path d="M0 0h24v24H0V0z" fill="none"/><path d="M7 19h10V4H7v15zm-5-2h4V6H2v11zM18 6v11h4V6h-4z"/></symbol>
<symbol id="view_column" viewBox="0 0 24 24"><path d="M0 0h24v24H0V0z" fill="none"/><path d="M10 18h5V5h-5v13zm-6 0h5V5H4v13zM16 5v13h5V5h-5z"/></symbol>
<symbol id="view_day" viewBox="0 0 24 24"><path d="M0 0h24v24H0V0z" fill="none"/><path d="M2 21h19v-3H2v3zM21 8H2v8h19V8zM2 3v3h19V3H2z"/></symbol>
<symbol id="view_headline" viewBox="0 0 24 24"><path d="M0 0h24v24H0V0z" fill="none"/><path d="M4 15h16v-2H4v2zm0 4h16v-2H4v2zm0-8h16V9H4v2zm0-6v2h16V5H4z"/></symbol>
<symbol id="view_list" viewBox="0 0 24 24"><path d="M0 0h24v24H0V0z" fill="none" opacity=".87"/><path d="M3 14h4v-4H3v4zm0 5h4v-4H3v4zM3 9h4V5H3v4zm5 5h12v-4H8v4zm0 5h12v-4H8v4zM8 5v4h12V5H8z"/></symbol>
<symbol id="view_module" viewBox="0 0 24 24"><path d="M0 0h24v24H0V0z" fill="none"/><path d="M4 11h5V5H4v6zm0 7h5v-6H4v6zm6 0h5v-6h-5v6zm6 0h5v-6h-5v6zm-6-7h5V5h-5v6zm6-6v6h5V5h-5z"/></symbol>
<symbol id="view_quilt" viewBox="0 0 24 24"><path d="M0 0h24v24H0V0z" fill="none"/><path d="M10 18h5v-6h-5v6zm-6 0h5V5H4v13zm12 0h5v-6h-5v6zM10 5v6h11V5H10z"/></symbol>
<symbol id="view_sidebar" viewBox="0 0 24 24"><g><rect fill="none" height="24" width="24"/><path d="M16,20H2V4h14V20z M18,8h4V4h-4V8z M18,20h4v-4h-4V20z M18,14h4v-4h-4V14z"/></g></symbol>
<symbol id="view_stream" viewBox="0 0 24 24"><path d="M0 0h24v24H0V0z" fill="none"/><path d="M4 18h17v-6H4v6zM4 5v6h17V5H4z"/></symbol>
<symbol id="view_week" viewBox="0 0 24 24"><path d="M0 0h24v24H0V0z" fill="none"/><path d="M7 5H2v14h5V5zm14 0h-5v14h5V5zm-7 0H9v14h5V5z"/></symbol>
<symbol id="visibility" viewBox="0 0 24 24"><path d="M0 0h24v24H0V0z" fill="none"/><path d="M12 4C7 4 2.73 7.11 1 11.5 2.73 15.89 7 19 12 19s9.27-3.11 11-7.5C21.27 7.11 17 4 12 4zm0 12.5c-2.76 0-5-2.24-5-5s2.24-5 5-5 5 2.24 5 5-2.24 5-5 5zm0-8c-1.66 0-3 1.34-3 3s1.34 3 3 3 3-1.34 3-3-1.34-3-3-3z"/></symbol>
<symbol id="visibility_off" viewBox="0 0 24 24"><path d="M0 0h24v24H0V0zm0 0h24v24H0V0zm0 0h24v24H0V0zm0 0h24v24H0V0z" fill="none"/><path d="M12 6.5c2.76 0 5 2.24 5 5 0 .51-.1 1-.24 1.46l3.06 3.06c1.39-1.23 2.49-2.77 3.18-4.53C21.27 7.11 17 4 12 4c-1.27 0-2.49.2-3.64.57l2.17 2.17c.47-.14.96-.24 1.47-.24zM3.42 2.45L2.01 3.87l2.68 2.68C3.06 7.83 1.77 9.53 1 11.5 2.73 15.89 7 19 12 19c1.52 0 2.97-.3 4.31-.82l3.43 3.43 1.41-1.41L3.42 2.45zM12 16.5c-2.76 0-5-2.24-5-5 0-.77.18-1.5.49-2.14l1.57 1.57c-.03.18-.06.37-.06.57 0 1.66 1.34 3 3 3 .2 0 .38-.03.57-.07L14.14 16c-.65.32-1.37.5-2.14.5zm2.97-5.33c-.15-1.4-1.25-2.49-2.64-2.64l2.64 2.64z"/></symbol>
<symbol id="voice_over_off" viewBox="0 0 24 24"><path d="M0 0h24v24H0V0z" fill="none"/><path d="M16.76 5.36l-1.68 1.69c.8 1.13.83 2.58.09 3.74l1.7 1.7c1.9-2.02 1.87-4.98-.11-7.13zM20.07 2l-1.63 1.63c2.72 2.97 2.76 7.39.14 10.56l1.64 1.64c3.74-3.89 3.71-9.84-.15-13.83zM9.43 5.04l3.53 3.53c-.2-1.86-1.67-3.33-3.53-3.53zM4.41 2.86L3 4.27l2.62 2.62C5.23 7.5 5 8.22 5 9c0 2.21 1.79 4 4 4 .78 0 1.5-.23 2.11-.62l4.4 4.4C13.74 15.6 10.78 15 9 15c-2.67 0-8 1.34-8 4v2h16v-2c0-.37-.11-.7-.29-1.02L19.73 21l1.41-1.41L4.41 2.86z"/></symbol>
<symbol id="watch_later" viewBox="0 0 24 24"><g><rect fill="none" height="24" width="24" x="0"/></g><g><g><path d="M12,2C6.5,2,2,6.5,2,12s4.5,10,10,10s10-4.5,10-10S17.5,2,12,2z M16.2,16.2L11,13V7h1.5v5.2l4.5,2.7L16.2,16.2z"/></g></g></symbol>
<symbol id="wifi_protected_setup" viewBox="0 0 24 24"><g><rect fill="none" height="24" width="24"/></g><g><g><g><path d="M16.71,5.29L19,3h-8v8l2.3-2.3c1.97,1.46,3.25,3.78,3.25,6.42c0,1.31-0.32,2.54-0.88,3.63c2.33-1.52,3.88-4.14,3.88-7.13 C19.55,9.1,18.44,6.85,16.71,5.29z"/></g><g><path d="M7.46,8.88c0-1.31,0.32-2.54,0.88-3.63C6,6.77,4.46,9.39,4.46,12.38c0,2.52,1.1,4.77,2.84,6.33L5,21h8v-8l-2.3,2.3 C8.74,13.84,7.46,11.52,7.46,8.88z"/></g></g></g></symbol>
<symbol id="work" viewBox="0 0 24 24"><path d="M0 0h24v24H0V0z" fill="none"/><path d="M22 6h-6V4c0-1.1-.9-2-2-2h-4c-1.1 0-2 .9-2 2v2H2v15h20V6zm-8 0h-4V4h4v2z"/></symbol>
<symbol id="work_off" viewBox="0 0 24 24"><path d="M0 0h24v24H0V0z" fill="none"/><path d="M10 4h4v2h-3.6L22 17.6V6h-6V4c0-1.1-.9-2-2-2h-4c-.98 0-1.79.71-1.96 1.64L10 5.6V4zM3.4 1.84L1.99 3.25 4.74 6H2.01L2 21h17.74l2 2 1.41-1.41z"/></symbol>
<symbol id="work_outline" viewBox="0 0 24 24"><path d="M0 0h24v24H0V0z" fill="none"/><path d="M14 6V4h-4v2h4zM4 8v11h16V8H4zm18-2v15H2.01V6H8V4c0-1.1.9-2 2-2h4c1.1 0 2 .9 2 2v2h6z"/></symbol>
<symbol id="wysiwyg" viewBox="0 0 24 24"><g><rect fill="none" height="24" width="24"/><path d="M17,12H7v-2h10V12z M13,14H7v2h6V14z M21,21H3V3h18V21z M19,7H5v12h14V7z"/></g></symbol>
<symbol id="youtube_searched_for" viewBox="0 0 24 24"><path d="M0 0h24v24H0V0zm0 0h24v24H0V0z" fill="none"/><path d="M17.01 14h-.8l-.27-.27c.98-1.14 1.57-2.61 1.57-4.23 0-3.59-2.91-6.5-6.5-6.5s-6.5 3-6.5 6.5H2l3.84 4 4.16-4H6.51C6.51 7 8.53 5 11.01 5s4.5 2.01 4.5 4.5c0 2.48-2.02 4.5-4.5 4.5-.65 0-1.26-.14-1.82-.38L7.71 15.1c.97.57 2.09.9 3.3.9 1.61 0 3.08-.59 4.22-1.57l.27.27v.79l5.01 4.99L22 19l-4.99-5z"/></symbol>
<symbol id="zoom_in" viewBox="0 0 24 24"><path d="M0 0h24v24H0V0z" fill="none"/><path d="M15.5 14h-.79l-.28-.27C15.41 12.59 16 11.11 16 9.5 16 5.91 13.09 3 9.5 3S3 5.91 3 9.5 5.91 16 9.5 16c1.61 0 3.09-.59 4.23-1.57l.27.28v.79l5 4.99L20.49 19l-4.99-5zm-6 0C7.01 14 5 11.99 5 9.5S7.01 5 9.5 5 14 7.01 14 9.5 11.99 14 9.5 14zm.5-7H9v2H7v1h2v2h1v-2h2V9h-2z"/></symbol>
<symbol id="zoom_out" viewBox="0 0 24 24"><path d="M0 0h24v24H0V0z" fill="none"/><path d="M15.5 14h-.79l-.28-.27C15.41 12.59 16 11.11 16 9.5 16 5.91 13.09 3 9.5 3S3 5.91 3 9.5 5.91 16 9.5 16c1.61 0 3.09-.59 4.23-1.57l.27.28v.79l5 4.99L20.49 19l-4.99-5zm-6 0C7.01 14 5 11.99 5 9.5S7.01 5 9.5 5 14 7.01 14 9.5 11.99 14 9.5 14zM7 9h5v1H7V9z"/></symbol>
</svg>