<svg xmlns="http://www.w3.org/2000/svg">
<symbol id="add_alert" viewBox="0 0 24 24"><path d="M12 23c1.1 0 1.99-.89 1.99-1.99h-3.98c0 1.1.89 1.99 1.99 1.99zm7-6v-6c0-3.35-2.36-6.15-5.5-6.83V1.5h-3v2.67C7.36 4.85 5 7.65 5 11v6l-2 2v1h18v-1l-2-2zm-3-3.99h-3v3h-2v-3H8V11h3V8h2v3h3v2.01z"/></symbol>
<symbol id="auto_delete" viewBox="0 0 24 24"><g><rect fill="none" height="24" width="24"/></g><g><g><polygon points="15,2 11.5,2 10.5,1 5.5,1 4.5,2 1,2 1,4 15,4"/><path d="M16,9c-0.7,0-1.37,0.1-2,0.29V5H2v14h7.68c1.12,2.36,3.53,4,6.32,4c3.87,0,7-3.13,7-7C23,12.13,19.87,9,16,9z M16,21 c-2.76,0-5-2.24-5-5s2.24-5,5-5s5,2.24,5,5S18.76,21,16,21z"/><polygon points="16.5,12 15,12 15,17 18.6,19.1 19.4,17.9 16.5,16.2"/></g></g></symbol>
<symbol id="error" viewBox="0 0 24 24"><path d="M12 2C6.48 2 2 6.48 2 12s4.48 10 10 10 10-4.48 10-10S17.52 2 12 2zm1 15h-2v-2h2v2zm0-4h-2V7h2v6z"/></symbol>
<symbol id="error_outline" viewBox="0 0 24 24"><path d="M11 15h2v2h-2v-2zm0-8h2v6h-2V7zm.99-5C6.47 2 2 6.48 2 12s4.47 10 9.99 10C17.52 22 22 17.52 22 12S17.52 2 11.99 2zM12 20c-4.42 0-8-3.58-8-8s3.58-8 8-8 8 3.58 8 8-3.58 8-8 8z"/></symbol>
<symbol id="notification_important" viewBox="0 0 24 24"><path d="M12 23c1.1 0 1.99-.89 1.99-1.99h-3.98c0 1.1.89 1.99 1.99 1.99zm7-6v-6c0-3.35-2.36-6.15-5.5-6.83V1.5h-3v2.67C7.36 4.85 5 7.65 5 11v6l-2 2v1h18v-1l-2-2zm-6-1h-2v-2h2v2zm0-4h-2V8h2v4z"/></symbol>
<symbol id="warning" viewBox="0 0 24 24"><path d="M1 21h22L12 2 1 21zm12-3h-2v-2h2v2zm0-4h-2v-4h2v4z"/></symbol>
<symbol id="warning_amber" viewBox="0 0 24 24"><path d="M12 5.99L19.53 19H4.47L12 5.99M12 2L1 21h22L12 2zm1 14h-2v2h2v-2zm0-6h-2v4h2v-4z"/></symbol>
</svg>