<svg xmlns="http://www.w3.org/2000/svg">
<symbol id="add_ic_call" viewBox="0 0 24 24"><path d="M0 0h24v24H0V0z" fill="none"/><path d="M21 6h-3V3h-2v3h-3v2h3v3h2V8h3zm0 9.46l-5.27-.61-2.52 2.52c-2.83-1.44-5.15-3.75-6.59-6.59l2.53-2.53L8.54 3H3.03C2.45 13.18 10.82 21.55 21 20.97v-5.51z"/></symbol>
<symbol id="alternate_email" viewBox="0 0 24 24"><path d="M0 0h24v24H0V0z" fill="none"/><path d="M12 2C6.48 2 2 6.48 2 12s4.48 10 10 10h5v-2h-5c-4.34 0-8-3.66-8-8s3.66-8 8-8 8 3.66 8 8v1.43c0 .79-.71 1.57-1.5 1.57s-1.5-.78-1.5-1.57V12c0-2.76-2.24-5-5-5s-5 2.24-5 5 2.24 5 5 5c1.38 0 2.64-.56 3.54-1.47.65.89 1.77 1.47 2.96 1.47 1.97 0 3.5-1.6 3.5-3.57V12c0-5.52-4.48-10-10-10zm0 13c-1.66 0-3-1.34-3-3s1.34-3 3-3 3 1.34 3 3-1.34 3-3 3z"/></symbol>
<symbol id="business" viewBox="0 0 24 24"><path d="M0 0h24v24H0V0z" fill="none"/><path d="M12 7V3H2v18h20V7H12zM6 19H4v-2h2v2zm0-4H4v-2h2v2zm0-4H4V9h2v2zm0-4H4V5h2v2zm4 12H8v-2h2v2zm0-4H8v-2h2v2zm0-4H8V9h2v2zm0-4H8V5h2v2zm10 12h-8v-2h2v-2h-2v-2h2v-2h-2V9h8v10zm-2-8h-2v2h2v-2zm0 4h-2v2h2v-2z"/></symbol>
<symbol id="call" viewBox="0 0 24 24"><path d="M0 0h24v24H0V0z" fill="none"/><path d="M21 15.46l-5.27-.61-2.52 2.52c-2.83-1.44-5.15-3.75-6.59-6.59l2.53-2.53L8.54 3H3.03C2.45 13.18 10.82 21.55 21 20.97v-5.51z"/></symbol>
<symbol id="call_end" viewBox="0 0 24 24"><path d="M0 0h24v24H0V0z" fill="none"/><path d="M3.68 16.07l3.92-3.11V9.59c2.85-.93 5.94-.93 8.8 0v3.38l3.91 3.1L24 12.39c-6.41-7.19-17.59-7.19-24 0l3.68 3.68z"/></symbol>
<symbol id="call_made" viewBox="0 0 24 24"><path d="M0 0h24v24H0V0z" fill="none"/><path d="M9 5v2h6.59L4 18.59 5.41 20 17 8.41V15h2V5H9z"/></symbol>
<symbol id="call_merge" viewBox="0 0 24 24"><path d="M0 0h24v24H0V0z" fill="none"/><path d="M17 20.41L18.41 19 15 15.59 13.59 17 17 20.41zM7.5 8H11v5.59L5.59 19 7 20.41l6-6V8h3.5L12 3.5 7.5 8z"/></symbol>
<symbol id="call_missed" viewBox="0 0 24 24"><path d="M0 0h24v24H0V0z" fill="none"/><path d="M19.59 7L12 14.59 6.41 9H11V7H3v8h2v-4.59l7 7 9-9L19.59 7z"/></symbol>
<symbol id="call_missed_outgoing" viewBox="0 0 24 24"><path d="M0 0h24v24H0z" fill="none"/><path d="M3 8.41l9 9 7-7V15h2V7h-8v2h4.59L12 14.59 4.41 7 3 8.41z"/></symbol>
<symbol id="call_received" viewBox="0 0 24 24"><path d="M0 0h24v24H0V0z" fill="none"/><path d="M20 5.41L18.59 4 7 15.59V9H5v10h10v-2H8.41L20 5.41z"/></symbol>
<symbol id="call_split" viewBox="0 0 24 24"><path d="M0 0h24v24H0V0z" fill="none"/><path d="M14 4l2.29 2.29-2.88 2.88 1.42 1.42 2.88-2.88L20 10V4h-6zm-4 0H4v6l2.29-2.29 4.71 4.7V20h2v-8.41l-5.29-5.3L10 4z"/></symbol>
<symbol id="cancel_presentation" viewBox="0 0 24 24"><path d="M0 0h24v24H0V0z" fill="none"/><path d="M1 3v18h22V3H1zm20 16H3V5h18v14zM9.41 16L12 13.41 14.59 16 16 14.59 13.41 12 16 9.41 14.59 8 12 10.59 9.41 8 8 9.41 10.59 12 8 14.59z"/></symbol>
<symbol id="chat" viewBox="0 0 24 24"><path d="M0 0h24v24H0V0z" fill="none"/><path d="M22 2H2.01L2 22l4-4h16V2zM6 9h12v2H6V9zm8 5H6v-2h8v2zm4-6H6V6h12v2z"/></symbol>
<symbol id="chat_bubble" viewBox="0 0 24 24"><path d="M0 0h24v24H0V0z" fill="none"/><path d="M22 2H2v20l4-4h16V2z"/></symbol>
<symbol id="chat_bubble_outline" viewBox="0 0 24 24"><path d="M0 0h24v24H0V0z" fill="none"/><path d="M22 2H2v20l4-4h16V2zm-2 14H6l-2 2V4h16v12z"/></symbol>
<symbol id="clear_all" viewBox="0 0 24 24"><path d="M0 0h24v24H0V0z" fill="none"/><path d="M5 13h14v-2H5v2zm-2 4h14v-2H3v2zM7 7v2h14V7H7z"/></symbol>
<symbol id="comment" viewBox="0 0 24 24"><path d="M0 0h24v24H0V0z" fill="none"/><path d="M21.99 2H2v16h16l4 4-.01-20zM18 14H6v-2h12v2zm0-3H6V9h12v2zm0-3H6V6h12v2z"/></symbol>
<symbol id="contacts" viewBox="0 0 24 24"><path d="M0 0h24v24H0V0z" fill="none"/><path d="M20 0H4v2h16V0zM4 24h16v-2H4v2zM22 4H2v16h20V4zM12 6.75c1.24 0 2.25 1.01 2.25 2.25s-1.01 2.25-2.25 2.25S9.75 10.24 9.75 9 10.76 6.75 12 6.75zM17 17H7v-1.5c0-1.67 3.33-2.5 5-2.5s5 .83 5 2.5V17z"/></symbol>
<symbol id="contact_mail" viewBox="0 0 24 24"><path d="M0 0h24v24H0z" fill="none"/><path d="M21 8V7l-3 2-3-2v1l3 2 3-2zm3-5H0v18h23.99L24 3zM8 6c1.66 0 3 1.34 3 3s-1.34 3-3 3-3-1.34-3-3 1.34-3 3-3zm6 12H2v-1c0-2 4-3.1 6-3.1s6 1.1 6 3.1v1zm8-6h-8V6h8v6z"/></symbol>
<symbol id="contact_phone" viewBox="0 0 24 24"><path d="M0 0h24v24H0V0z" fill="none"/><path d="M23.99 3H0v18h24l-.01-18zM8 6c1.66 0 3 1.34 3 3s-1.34 3-3 3-3-1.34-3-3 1.34-3 3-3zm6 12H2v-1c0-2 4-3.1 6-3.1s6 1.1 6 3.1v1zm3.85-4h1.64L21 16l-1.99 1.99c-1.31-.98-2.28-2.38-2.73-3.99-.18-.64-.28-1.31-.28-2s.1-1.36.28-2c.45-1.62 1.42-3.01 2.73-3.99L21 8l-1.51 2h-1.64c-.22.63-.35 1.3-.35 2s.13 1.37.35 2z"/></symbol>
<symbol id="desktop_access_disabled" viewBox="0 0 24 24"><path d="M0 0h24v24H0V0z" fill="none"/><path d="M1.41 1.69L0 3.1l1 .99V18h9v2H8v2h8v-2h-2v-2h.9l6 6 1.41-1.41-20.9-20.9zM2.99 16V6.09L12.9 16H2.99zM4.55 2l2 2H21v12h-2.45l2 2h2.44V2z"/></symbol>
<symbol id="dialer_sip" viewBox="0 0 24 24"><path d="M0 0h24v24H0V0z" fill="none"/><path d="M16 3h1v5h-1zm-1 2h-2V4h2V3h-3v3h2v1h-2v1h3zm3-2v5h1V6h2V3h-3zm2 2h-1V4h1v1zm1 10.46l-5.27-.61-2.52 2.52c-2.83-1.44-5.15-3.75-6.59-6.59l2.53-2.53L8.54 3H3.03C2.45 13.18 10.82 21.55 21 20.97v-5.51z"/></symbol>
<symbol id="dialpad" viewBox="0 0 24 24"><path d="M0 0h24v24H0V0z" fill="none"/><path d="M12 19c-1.1 0-2 .9-2 2s.9 2 2 2 2-.9 2-2-.9-2-2-2zM6 1c-1.1 0-2 .9-2 2s.9 2 2 2 2-.9 2-2-.9-2-2-2zm0 6c-1.1 0-2 .9-2 2s.9 2 2 2 2-.9 2-2-.9-2-2-2zm0 6c-1.1 0-2 .9-2 2s.9 2 2 2 2-.9 2-2-.9-2-2-2zm12-8c1.1 0 2-.9 2-2s-.9-2-2-2-2 .9-2 2 .9 2 2 2zm-6 8c-1.1 0-2 .9-2 2s.9 2 2 2 2-.9 2-2-.9-2-2-2zm6 0c-1.1 0-2 .9-2 2s.9 2 2 2 2-.9 2-2-.9-2-2-2zm0-6c-1.1 0-2 .9-2 2s.9 2 2 2 2-.9 2-2-.9-2-2-2zm-6 0c-1.1 0-2 .9-2 2s.9 2 2 2 2-.9 2-2-.9-2-2-2zm0-6c-1.1 0-2 .9-2 2s.9 2 2 2 2-.9 2-2-.9-2-2-2z"/></symbol>
<symbol id="domain_disabled" viewBox="0 0 24 24"><path d="M0 0h24v24H0V0z" fill="none"/><path d="M1.41 1.69L0 3.1l2 2V21h15.9l3 3 1.41-1.41-20.9-20.9zM6 19H4v-2h2v2zm0-4H4v-2h2v2zm-2-4V9h2v2H4zm6 8H8v-2h2v2zm-2-4v-2h2v2H8zm4 4v-2h1.9l2 2H12zM8 5h2v2h-.45L12 9.45V9h8v8.45l2 2V7H12V3H5.55L8 5.45zm8 6h2v2h-2z"/></symbol>
<symbol id="domain_verification" viewBox="0 0 24 24"><g><rect fill="none" height="24" width="24"/></g><g><g><polygon points="16.6,10.88 15.18,9.46 10.94,13.71 8.82,11.58 7.4,13 10.94,16.54"/><path d="M3,4v16h18V4H3z M19,18H5V8h14V18z"/></g></g></symbol>
<symbol id="duo" viewBox="0 0 24 24"><path d="M0 0h24v24H0V0z" fill="none"/><path d="M20 2h-8C6.38 2 2 6.66 2 12.28 2 17.5 6.49 22 11.72 22 17.39 22 22 17.62 22 12V4c0-1.1-.9-2-2-2zm-3 13l-3-2v2H7V9h7v2l3-2v6z"/></symbol>
<symbol id="email" viewBox="0 0 24 24"><path d="M0 0h24v24H0V0z" fill="none"/><path d="M22 4H2v16h20V4zm-2 4l-8 5-8-5V6l8 5 8-5v2z"/></symbol>
<symbol id="forum" viewBox="0 0 24 24"><path d="M0 0h24v24H0V0z" fill="none"/><path d="M22 6h-3v9H6v3h12l4 4V6zm-5 7V2H2v15l4-4h11z"/></symbol>
<symbol id="forward_to_inbox" viewBox="0 0 24 24"><g><rect fill="none" height="24" width="24"/><path d="M22,4H2v16h11v-2H4V8l8,5l8-5v5h2V4z M12,11L4,6h16L12,11z M19,15l4,4l-4,4v-3h-4v-2h4V15z"/></g></symbol>
<symbol id="hourglass_bottom" viewBox="0 0 24 24"><g><rect fill="none" height="24" width="24"/></g><g><path d="M18,22l-0.01-6L14,12l3.99-4.01L18,2H6v6l4,4l-4,3.99V22H18z M8,7.5V4h8v3.5l-4,4L8,7.5z"/></g></symbol>
<symbol id="hourglass_top" viewBox="0 0 24 24"><g><rect fill="none" height="24" width="24"/></g><g><path d="M6,2l0.01,6L10,12l-3.99,4.01L6,22h12v-6l-4-4l4-3.99V2H6z M16,16.5V20H8v-3.5l4-4L16,16.5z"/></g></symbol>
<symbol id="import_contacts" viewBox="0 0 24 24"><path d="M0 0h24v24H0z" fill="none"/><path d="M21 5c-1.11-.35-2.33-.5-3.5-.5-1.95 0-4.05.4-5.5 1.5-1.45-1.1-3.55-1.5-5.5-1.5S2.45 4.9 1 6v15.5C2.45 20.4 4.55 20 6.5 20s4.05.4 5.5 1.5c1.45-1.1 3.55-1.5 5.5-1.5 1.17 0 2.39.15 3.5.5.75.25 1.4.55 2 1V6c-.6-.45-1.25-.75-2-1zm0 13.5c-1.1-.35-2.3-.5-3.5-.5-1.7 0-4.15.65-5.5 1.5V8c1.35-.85 3.8-1.5 5.5-1.5 1.2 0 2.4.15 3.5.5v11.5z"/></symbol>
<symbol id="import_export" viewBox="0 0 24 24"><path d="M0 0h24v24H0V0z" fill="none"/><path d="M9 3L5 6.99h3V14h2V6.99h3L9 3zm7 14.01V10h-2v7.01h-3L15 21l4-3.99h-3z"/></symbol>
<symbol id="invert_colors_off" viewBox="0 0 24 24"><path d="M0 0h24v24H0V0z" fill="none"/><path d="M12 5.1v4.05l7.4 7.4c1.15-2.88.59-6.28-1.75-8.61L12 2.27 8.56 5.71l1.41 1.41L12 5.1zm-7.6-.73L2.99 5.78l2.78 2.78c-2.54 3.14-2.35 7.75.57 10.68C7.9 20.8 9.95 21.58 12 21.58c1.78 0 3.56-.59 5.02-1.77l2.7 2.7 1.41-1.41L4.4 4.37zM12 19.59c-1.6 0-3.11-.62-4.24-1.76C6.62 16.69 6 15.19 6 13.59c0-1.32.43-2.56 1.21-3.59L12 14.79v4.8z"/></symbol>
<symbol id="list_alt" viewBox="0 0 24 24"><path d="M0 0h24v24H0V0z" fill="none"/><path d="M11 7h6v2h-6zm0 4h6v2h-6zm0 4h6v2h-6zM7 7h2v2H7zm0 4h2v2H7zm0 4h2v2H7zM3 3v18h18V3H3zm16 16H5V5h14v14z"/></symbol>
<symbol id="live_help" viewBox="0 0 24 24"><path d="M0 0h24v24H0V0z" fill="none"/><path d="M21 2H3v18h6l3 3 3-3h6V2zm-8 16h-2v-2h2v2zm2.07-7.75l-.9.92C13.45 11.9 13 12.5 13 14h-2v-.5c0-1.1.45-2.1 1.17-2.83l1.24-1.26c.37-.36.59-.86.59-1.41 0-1.1-.9-2-2-2s-2 .9-2 2H8c0-2.21 1.79-4 4-4s4 1.79 4 4c0 .88-.36 1.68-.93 2.25z"/></symbol>
<symbol id="location_off" viewBox="0 0 24 24"><path d="M0 0h24v24H0V0z" fill="none"/><path d="M3.41 2.86L2 4.27l3.18 3.18C5.07 7.95 5 8.47 5 9c0 5.25 7 13 7 13s1.67-1.85 3.38-4.35L18.73 21l1.41-1.41L3.41 2.86zM12 2c-1.84 0-3.5.71-4.75 1.86l3.19 3.19c.43-.34.97-.55 1.56-.55 1.38 0 2.5 1.12 2.5 2.5 0 .59-.21 1.13-.56 1.56l3.55 3.55C18.37 12.36 19 10.57 19 9c0-3.87-3.13-7-7-7z"/></symbol>
<symbol id="location_on" viewBox="0 0 24 24"><path d="M0 0h24v24H0V0z" fill="none"/><path d="M12 2C8.13 2 5 5.13 5 9c0 5.25 7 13 7 13s7-7.75 7-13c0-3.87-3.13-7-7-7zm0 9.5c-1.38 0-2.5-1.12-2.5-2.5s1.12-2.5 2.5-2.5 2.5 1.12 2.5 2.5-1.12 2.5-2.5 2.5z"/></symbol>
<symbol id="mail_outline" viewBox="0 0 24 24"><path d="M0 0h24v24H0V0z" fill="none"/><path d="M22 4H2.01L2 20h20V4zm-2 14H4V8l8 5 8-5v10zm-8-7L4 6h16l-8 5z"/></symbol>
<symbol id="mark_chat_read" viewBox="0 0 24 24"><g><rect fill="none" height="24" width="24" x="0"/><path d="M12.03,17.5C12.01,17.67,12,17.83,12,18v0H6l-4,4V2h20v8.68C21.09,10.25,20.08,10,19,10c-3.87,0-7,3.13-7,7 C12,17.17,12.01,17.33,12.03,17.5z M23,14.34l-1.41-1.41l-4.24,4.24l-2.12-2.12l-1.41,1.41L17.34,20L23,14.34z"/></g></symbol>
<symbol id="mark_chat_unread" viewBox="0 0 24 24"><g><rect fill="none" height="24" width="24" y="0"/><path d="M22,6.98V18H6l-4,4V2h12.1C14.04,2.32,14,2.66,14,3c0,2.76,2.24,5,5,5C20.13,8,21.16,7.61,22,6.98z M16,3 c0,1.66,1.34,3,3,3s3-1.34,3-3s-1.34-3-3-3S16,1.34,16,3z"/></g></symbol>
<symbol id="mark_email_read" viewBox="0 0 24 24"><g><rect fill="none" height="24" width="24" x="0"/><path d="M12,19c0-3.87,3.13-7,7-7c1.08,0,2.09,0.25,3,0.68V4H2v16h10.08C12.03,19.67,12,19.34,12,19z M4,6l8,5l8-5v2l-8,5L4,8V6z M17.34,22l-3.54-3.54l1.41-1.41l2.12,2.12l4.24-4.24L23,16.34L17.34,22z"/></g></symbol>
<symbol id="mark_email_unread" viewBox="0 0 24 24"><g><rect fill="none" height="24" width="24" x="0"/><path d="M22,8.98V20H2V4h12.1C14.04,4.32,14,4.66,14,5c0,1.48,0.65,2.79,1.67,3.71L12,11L4,6v2l8,5l5.3-3.32 C17.84,9.88,18.4,10,19,10C20.13,10,21.16,9.61,22,8.98z M16,5c0,1.66,1.34,3,3,3s3-1.34,3-3s-1.34-3-3-3S16,3.34,16,5z"/></g></symbol>
<symbol id="message" viewBox="0 0 24 24"><path d="M0 0h24v24H0V0z" fill="none"/><path d="M22 2H2.01L2 22l4-4h16V2zm-4 12H6v-2h12v2zm0-3H6V9h12v2zm0-3H6V6h12v2z"/></symbol>
<symbol id="mobile_screen_share" viewBox="0 0 24 24"><path d="M0 0h24v24H0V0z" fill="none"/><path d="M5.01 1v22H19V1H5.01zM17 19H7V5h10v14zm-4.2-5.76v1.75L16 12l-3.2-2.98v1.7c-3.11.43-4.35 2.56-4.8 4.7 1.11-1.5 2.58-2.18 4.8-2.18z"/></symbol>
<symbol id="more_time" viewBox="0 0 24 24"><g><rect fill="none" height="24" width="24"/></g><g><g><polygon points="10,8 10,14 14.7,16.9 15.5,15.7 11.5,13.3 11.5,8"/><path d="M17.92,12c0.05,0.33,0.08,0.66,0.08,1c0,3.9-3.1,7-7,7s-7-3.1-7-7c0-3.9,3.1-7,7-7c0.7,0,1.37,0.1,2,0.29V4.23 C12.36,4.08,11.69,4,11,4c-5,0-9,4-9,9s4,9,9,9s9-4,9-9c0-0.34-0.02-0.67-0.06-1H17.92z"/><polygon points="20,5 20,2 18,2 18,5 15,5 15,7 18,7 18,10 20,10 20,7 23,7 23,5"/></g></g></symbol>
<symbol id="nat" viewBox="0 0 24 24"><g><rect fill="none" height="24" width="24"/></g><g><g><path d="M6.82,13H11v-2H6.82C6.4,9.84,5.3,9,4,9c-1.66,0-3,1.34-3,3s1.34,3,3,3C5.3,15,6.4,14.16,6.82,13z M4,13 c-0.55,0-1-0.45-1-1c0-0.55,0.45-1,1-1s1,0.45,1,1C5,12.55,4.55,13,4,13z"/><path d="M23,12l-4-3v2h-4.05C14.45,5.95,10.19,2,5,2v2c4.42,0,8,3.58,8,8s-3.58,8-8,8v2c5.19,0,9.45-3.95,9.95-9H19v2L23,12z"/></g></g></symbol>
<symbol id="no_sim" viewBox="0 0 24 24"><path d="M0 0h24v24H0z" fill="none"/><path d="M3.79 3.74L2.38 5.15l2.74 2.74-.12.12V21h13.27l1.58 1.62 1.41-1.41zM19 16.11V3h-8.99L7.95 5.06z"/></symbol>
<symbol id="pause_presentation" viewBox="0 0 24 24"><path d="M0 0h24v24H0V0z" fill="none"/><path d="M1 3v18h22V3H1zm20 16H3V5h18v14zM9 8h2v8H9zm4 0h2v8h-2z"/></symbol>
<symbol id="person_add_disabled" viewBox="0 0 24 24"><path d="M0 0h24v24H0V0z" fill="none"/><path d="M14.48 11.95c.17.02.34.05.52.05 2.21 0 4-1.79 4-4s-1.79-4-4-4-4 1.79-4 4c0 .18.03.35.05.52l3.43 3.43zm2.21 2.21L22.53 20H23v-2c0-2.14-3.56-3.5-6.31-3.84zM0 3.12l4 4V10H1v2h3v3h2v-3h2.88l2.51 2.51C9.19 15.11 7 16.3 7 18v2h9.88l4 4 1.41-1.41L1.41 1.71 0 3.12zM6.88 10H6v-.88l.88.88z"/></symbol>
<symbol id="person_search" viewBox="0 0 24 24"><g><rect fill="none" height="24" width="24"/></g><g><g><circle cx="10" cy="8" r="4"/><path d="M10.35,14.01C7.62,13.91,2,15.27,2,18v2h9.54C9.07,17.24,10.31,14.11,10.35,14.01z"/><path d="M19.43,18.02C19.79,17.43,20,16.74,20,16c0-2.21-1.79-4-4-4s-4,1.79-4,4c0,2.21,1.79,4,4,4c0.74,0,1.43-0.22,2.02-0.57 L20.59,22L22,20.59L19.43,18.02z M16,18c-1.1,0-2-0.9-2-2c0-1.1,0.9-2,2-2s2,0.9,2,2C18,17.1,17.1,18,16,18z"/></g></g></symbol>
<symbol id="phone" viewBox="0 0 24 24"><path d="M0 0h24v24H0V0z" fill="none"/><path d="M21 15.46l-5.27-.61-2.52 2.52c-2.83-1.44-5.15-3.75-6.59-6.59l2.53-2.53L8.54 3H3.03C2.45 13.18 10.82 21.55 21 20.97v-5.51z"/></symbol>
<symbol id="phonelink_erase" viewBox="0 0 24 24"><path d="M0 0h24v24H0V0z" fill="none"/><path d="M13 8.2l-1-1-4 4-4-4-1 1 4 4-4 4 1 1 4-4 4 4 1-1-4-4 4-4zM21 1H7v5h2V4h10v16H9v-2H7v5h14V1z"/></symbol>
<symbol id="phonelink_lock" viewBox="0 0 24 24"><path d="M0 0h24v24H0V0z" fill="none"/><path d="M21 1H7v5h2V4h10v16H9v-2H7v5h14V1zM10.8 11V9.5C10.8 8.1 9.4 7 8 7S5.2 8.1 5.2 9.5V11H4v6h8v-6h-1.2zm-1.3 0h-3V9.5c0-.8.7-1.3 1.5-1.3s1.5.5 1.5 1.3V11z"/></symbol>
<symbol id="phonelink_ring" viewBox="0 0 24 24"><path d="M0 0h24v24H0V0z" fill="none"/><path d="M20.1 7.7l-1 1c1.8 1.8 1.8 4.6 0 6.5l1 1c2.5-2.3 2.5-6.1 0-8.5zM18 9.8l-1 1c.5.7.5 1.6 0 2.3l1 1c1.2-1.2 1.2-3 0-4.3zM16 1H2v22h14V1zm-2 19H4V4h10v16z"/></symbol>
<symbol id="phonelink_setup" viewBox="0 0 24 24"><path d="M0 0h24v24H0V0z" fill="none"/><path d="M7 1v5h2V4h10v16H9v-2H7v5h14V1zm2.5 14.5c.29-.12.55-.29.8-.48l-.02.03 1.41.55 1.27-2.2-1.18-.95-.02.03c.02-.16.05-.32.05-.48s-.03-.32-.05-.48l.02.03 1.18-.95-1.26-2.2-1.41.55.02.03c-.26-.19-.52-.36-.81-.48L9.27 7H6.73L6.5 8.5c-.29.12-.55.29-.8.48l.02-.03L4.3 8.4l-1.27 2.2 1.18.95.02-.03c-.01.16-.04.32-.04.48s.03.32.05.48l-.02-.03-1.18.95 1.27 2.2 1.41-.55-.02-.03c.25.19.51.36.8.48l.23 1.5h2.54l.23-1.5zM6 12c0-1.1.9-2 2-2s2 .9 2 2-.9 2-2 2-2-.9-2-2z"/></symbol>
<symbol id="phone_disabled" viewBox="0 0 24 24"><rect fill="none" height="24" width="24"/><g><g><path d="M14.52,17.35C11.39,19.83,7.36,21.22,3,20.97v-5.51l5.27-0.61l2.52,2.52c0.81-0.41,1.58-0.9,2.3-1.45 L1.39,4.22l1.42-1.41L21.19,21.2l-1.41,1.41L14.52,17.35z M15.91,13.11c0.56-0.73,1.05-1.51,1.47-2.33l-2.53-2.53L15.46,3h5.51 c0.25,4.37-1.15,8.4-3.63,11.54L15.91,13.11z"/></g></g></symbol>
<symbol id="phone_enabled" viewBox="0 0 24 24"><rect fill="none" height="24" width="24"/><g><g><path d="M3,15.46l5.27-0.61l2.52,2.52c2.83-1.44,5.15-3.75,6.59-6.59l-2.53-2.53L15.46,3h5.51 C21.55,13.18,13.18,21.55,3,20.97V15.46z"/></g></g></symbol>
<symbol id="portable_wifi_off" viewBox="0 0 24 24"><path d="M0 0h24v24H0V0z" fill="none"/><path d="M3.42 2.36L2.01 3.78 4.1 5.87C2.79 7.57 2 9.69 2 12c0 3.7 2.01 6.92 4.99 8.65l1-1.73C5.61 17.53 4 14.96 4 12c0-1.76.57-3.38 1.53-4.69l1.43 1.44C6.36 9.68 6 10.8 6 12c0 2.22 1.21 4.15 3 5.19l1-1.74c-1.19-.7-2-1.97-2-3.45 0-.65.17-1.25.44-1.79l1.58 1.58L10 12c0 1.1.9 2 2 2l.21-.02 7.52 7.52 1.41-1.41L3.42 2.36zm14.29 11.46c.18-.57.29-1.19.29-1.82 0-3.31-2.69-6-6-6-.63 0-1.25.11-1.82.29l1.72 1.72c.03 0 .06-.01.1-.01 2.21 0 4 1.79 4 4 0 .04-.01.07-.01.11l1.72 1.71zM12 4c4.42 0 8 3.58 8 8 0 1.2-.29 2.32-.77 3.35l1.49 1.49C21.53 15.4 22 13.76 22 12c0-5.52-4.48-10-10-10-1.76 0-3.4.48-4.84 1.28l1.48 1.48C9.66 4.28 10.8 4 12 4z"/></symbol>
<symbol id="present_to_all" viewBox="0 0 24 24"><path d="M0 0h24v24H0V0z" fill="none"/><path d="M23 3H1v18h22V3zm-2 16.02H3V4.98h18v14.04zM10 12H8l4-4 4 4h-2v4h-4v-4z"/></symbol>
<symbol id="print_disabled" viewBox="0 0 24 24"><path d="M0 0h24v24H0z" fill="none"/><path d="M9.65 7H18V3.01H6v.35zm1.01 1.01l9 8.99H22v-5.99c0-1.66-1.34-3-3-3h-8.34zM19 10c.55 0 1 .45 1 1s-.45 1-1 1-1-.45-1-1 .45-1 1-1zM1.41 1.6L0 3.01l5 5c-1.66 0-3 1.33-3 2.99v6h4v4h12l2.95 2.96 1.41-1.41L1.41 1.6zM8 19.01V15h4l4 4-8 .01z"/></symbol>
<symbol id="qr_code" viewBox="0 0 24 24"><g><rect fill="none" height="24" width="24"/></g><g><g><path d="M3,11h8V3H3V11z M5,5h4v4H5V5z"/><path d="M3,21h8v-8H3V21z M5,15h4v4H5V15z"/><path d="M13,3v8h8V3H13z M19,9h-4V5h4V9z"/><rect height="2" width="2" x="19" y="19"/><rect height="2" width="2" x="13" y="13"/><rect height="2" width="2" x="15" y="15"/><rect height="2" width="2" x="13" y="17"/><rect height="2" width="2" x="15" y="19"/><rect height="2" width="2" x="17" y="17"/><rect height="2" width="2" x="17" y="13"/><rect height="2" width="2" x="19" y="15"/></g></g></symbol>
<symbol id="qr_code_scanner" viewBox="0 0 24 24"><rect fill="none" height="24" width="24"/><path d="M9.5,6.5v3h-3v-3H9.5 M11,5H5v6h6V5L11,5z M9.5,14.5v3h-3v-3H9.5 M11,13H5v6h6V13L11,13z M17.5,6.5v3h-3v-3H17.5 M19,5h-6v6 h6V5L19,5z M13,13h1.5v1.5H13V13z M14.5,14.5H16V16h-1.5V14.5z M16,13h1.5v1.5H16V13z M13,16h1.5v1.5H13V16z M14.5,17.5H16V19h-1.5 V17.5z M16,16h1.5v1.5H16V16z M17.5,14.5H19V16h-1.5V14.5z M17.5,17.5H19V19h-1.5V17.5z M22,7h-2V4h-3V2h5V7z M22,22v-5h-2v3h-3v2 H22z M2,22h5v-2H4v-3H2V22z M2,2v5h2V4h3V2H2z"/></symbol>
<symbol id="read_more" viewBox="0 0 24 24"><g><rect fill="none" height="24" width="24"/></g><g><g><rect height="2" width="9" x="13" y="7"/><rect height="2" width="9" x="13" y="15"/><rect height="2" width="6" x="16" y="11"/><polygon points="13,12 8,7 8,11 2,11 2,13 8,13 8,17"/></g></g></symbol>
<symbol id="ring_volume" viewBox="0 0 24 24"><path d="M0 0h24v24H0V0z" fill="none"/><path d="M21.16 6.26l-1.41-1.41-3.56 3.55 1.41 1.41s3.45-3.52 3.56-3.55zM11 2h2v5h-2zM6.4 9.81L7.81 8.4 4.26 4.84 2.84 6.26c.11.03 3.56 3.55 3.56 3.55zM0 17.39l3.68 3.68 3.92-3.11v-3.37c2.85-.93 5.94-.93 8.8 0v3.38l3.91 3.1L24 17.39c-6.41-7.19-17.59-7.19-24 0z"/></symbol>
<symbol id="rss_feed" viewBox="0 0 24 24"><path d="M0 0h24v24H0V0z" fill="none"/><circle cx="6.18" cy="17.82" r="2.18"/><path d="M4 10.1v2.83c3.9 0 7.07 3.17 7.07 7.07h2.83c0-5.47-4.43-9.9-9.9-9.9zm0-5.66v2.83c7.03 0 12.73 5.7 12.73 12.73h2.83c0-8.59-6.97-15.56-15.56-15.56z"/></symbol>
<symbol id="screen_share" viewBox="0 0 24 24"><path d="M0 0h24v24H0V0z" fill="none"/><path d="M20 18l2-2V4H2v12l2 2H0v2h24v-2h-4zm-7-3.53v-2.19c-2.78 0-4.61.85-6 2.72.56-2.67 2.11-5.33 6-5.87V7l4 3.73-4 3.74z"/></symbol>
<symbol id="sentiment_satisfied_alt" viewBox="0 0 24 24"><path d="M0 0h24v24H0V0z" fill="none"/><circle cx="15.5" cy="9.5" r="1.5"/><circle cx="8.5" cy="9.5" r="1.5"/><path d="M11.99 2C6.47 2 2 6.48 2 12s4.47 10 9.99 10C17.52 22 22 17.52 22 12S17.52 2 11.99 2zM12 20c-4.42 0-8-3.58-8-8s3.58-8 8-8 8 3.58 8 8-3.58 8-8 8zm0-4c-1.48 0-2.75-.81-3.45-2H6.88c.8 2.05 2.79 3.5 5.12 3.5s4.32-1.45 5.12-3.5h-1.67c-.69 1.19-1.97 2-3.45 2z"/></symbol>
<symbol id="speaker_phone" viewBox="0 0 24 24"><path d="M0 0h24v24H0V0z" fill="none"/><path d="M7 7.07L8.43 8.5c.91-.91 2.18-1.48 3.57-1.48s2.66.57 3.57 1.48L17 7.07C15.72 5.79 13.95 5 12 5s-3.72.79-5 2.07zM12 1C8.98 1 6.24 2.23 4.25 4.21l1.41 1.41C7.28 4 9.53 3 12 3s4.72 1 6.34 2.62l1.41-1.41C17.76 2.23 15.02 1 12 1zm3.99 9.01L8 10v11.99h7.99V10.01zM15 20H9v-8h6v8z"/></symbol>
<symbol id="stay_current_landscape" viewBox="0 0 24 24"><path d="M0 0h24v24H0V0z" fill="none"/><path d="M1 19h22V5H1v14zM19 7v10H5V7h14z"/></symbol>
<symbol id="stay_current_portrait" viewBox="0 0 24 24"><path d="M0 0h24v24H0V0z" fill="none"/><path d="M19 1.01L5.01 1v22H19V1.01zM17 19H7V5h10v14z"/></symbol>
<symbol id="stay_primary_landscape" viewBox="0 0 24 24"><path d="M0 0h24v24H0V0z" fill="none"/><path d="M1 19h22V5H1v14zM19 7v10H5V7h14z"/></symbol>
<symbol id="stay_primary_portrait" viewBox="0 0 24 24"><path d="M0 0h24v24H0V0z" fill="none"/><path d="M5.01 1v22H19V1H5.01zM17 19H7V5h10v14z"/></symbol>
<symbol id="stop_screen_share" viewBox="0 0 24 24"><path d="M0 0h24v24H0z" fill="none"/><path d="M21.79 18l2 2H24v-2zM13 9.13V7l4 3.74-1.28 1.19 5.18 5.18L22 16V4.02H7.8l5.13 5.13c.03-.01.05-.02.07-.02zM1.11 2.98l.89.9v12.14l2 1.99L0 18v2h18.13l2.71 2.71 1.41-1.41L2.52 1.57 1.11 2.98zm7.97 7.97l1.59 1.59C9.13 12.92 7.96 13.71 7 15c.31-1.48.94-2.93 2.08-4.05z"/></symbol>
<symbol id="swap_calls" viewBox="0 0 24 24"><path d="M0 0h24v24H0V0z" fill="none"/><path d="M18 4l-4 4h3v7c0 1.1-.9 2-2 2s-2-.9-2-2V8c0-2.21-1.79-4-4-4S5 5.79 5 8v7H2l4 4 4-4H7V8c0-1.1.9-2 2-2s2 .9 2 2v7c0 2.21 1.79 4 4 4s4-1.79 4-4V8h3l-4-4z"/></symbol>
<symbol id="textsms" viewBox="0 0 24 24"><path d="M0 0h24v24H0V0z" fill="none"/><path d="M22 2H2.01L2 22l4-4h16V2zM9 11H7V9h2v2zm4 0h-2V9h2v2zm4 0h-2V9h2v2z"/></symbol>
<symbol id="unsubscribe" viewBox="0 0 24 24"><path d="M0 0h24v24H0V0z" fill="none"/><path d="M18.5 13c-1.93 0-3.5 1.57-3.5 3.5s1.57 3.5 3.5 3.5 3.5-1.57 3.5-3.5-1.57-3.5-3.5-3.5zm2 4h-4v-1h4v1zm-6.95 0c-.02-.17-.05-.33-.05-.5 0-2.76 2.24-5 5-5 .92 0 1.75.26 2.49.69V3H3v14h10.55zM12 10.5L5 7V5l7 3.5L19 5v2l-7 3.5z"/></symbol>
<symbol id="voicemail" viewBox="0 0 24 24"><path d="M0 0h24v24H0V0z" fill="none"/><path d="M18.5 6C15.46 6 13 8.46 13 11.5c0 1.33.47 2.55 1.26 3.5H9.74c.79-.95 1.26-2.17 1.26-3.5C11 8.46 8.54 6 5.5 6S0 8.46 0 11.5 2.46 17 5.5 17h13c3.04 0 5.5-2.46 5.5-5.5S21.54 6 18.5 6zm-13 9C3.57 15 2 13.43 2 11.5S3.57 8 5.5 8 9 9.57 9 11.5 7.43 15 5.5 15zm13 0c-1.93 0-3.5-1.57-3.5-3.5S16.57 8 18.5 8 22 9.57 22 11.5 20.43 15 18.5 15z"/></symbol>
<symbol id="vpn_key" viewBox="0 0 24 24"><path d="M0 0h24v24H0V0z" fill="none"/><path d="M12.65 10C11.83 7.67 9.61 6 7 6c-3.31 0-6 2.69-6 6s2.69 6 6 6c2.61 0 4.83-1.67 5.65-4H17v4h4v-4h2v-4H12.65zM7 14c-1.1 0-2-.9-2-2s.9-2 2-2 2 .9 2 2-.9 2-2 2z"/></symbol>
<symbol id="wifi_calling" viewBox="0 0 24 24"><g><rect fill="none" height="24" width="24"/></g><g><g><path d="M13.21,17.37c-2.83-1.44-5.15-3.75-6.59-6.59l2.53-2.53L8.54,3H3.03C2.45,13.18,10.82,21.55,21,20.97v-5.51l-5.27-0.61 L13.21,17.37z"/><path d="M22,4.95C21.79,4.78,19.67,3,16.5,3c-3.18,0-5.29,1.78-5.5,1.95L16.5,12L22,4.95z"/></g></g></symbol>
</svg>