<svg xmlns="http://www.w3.org/2000/svg">
<symbol id="attachment" viewBox="0 0 24 24"><path d="M0 0h24v24H0V0z" fill="none"/><path d="M18.5 16H7c-2.21 0-4-1.79-4-4s1.79-4 4-4h12.5c1.38 0 2.5 1.12 2.5 2.5S20.88 13 19.5 13H9c-.55 0-1-.45-1-1s.45-1 1-1h9.5V9.5H9c-1.38 0-2.5 1.12-2.5 2.5s1.12 2.5 2.5 2.5h10.5c2.21 0 4-1.79 4-4s-1.79-4-4-4H7c-3.04 0-5.5 2.46-5.5 5.5s2.46 5.5 5.5 5.5h11.5V16z"/></symbol>
<symbol id="attach_email" viewBox="0 0 24 24"><g><rect fill="none" height="24" width="24"/></g><g><g><path d="M21,10V2H1v16h13v-5c0-1.66,1.34-3,3-3H21z M11,11L3,6V4l8,5l8-5v2L11,11z"/><path d="M21,14v4c0,1.1-0.9,2-2,2s-2-0.9-2-2v-4.5c0-0.28,0.22-0.5,0.5-0.5s0.5,0.22,0.5,0.5V18h2v-4.5c0-1.38-1.12-2.5-2.5-2.5 S15,12.12,15,13.5V18c0,2.21,1.79,4,4,4s4-1.79,4-4v-4H21z"/></g></g></symbol>
<symbol id="cloud" viewBox="0 0 24 24"><path d="M0 0h24v24H0V0z" fill="none"/><path d="M19.35 10.04C18.67 6.59 15.64 4 12 4 9.11 4 6.6 5.64 5.35 8.04 2.34 8.36 0 10.91 0 14c0 3.31 2.69 6 6 6h13c2.76 0 5-2.24 5-5 0-2.64-2.05-4.78-4.65-4.96z"/></symbol>
<symbol id="cloud_circle" viewBox="0 0 24 24"><path d="M0 0h24v24H0V0z" fill="none"/><path d="M12 2C6.48 2 2 6.48 2 12s4.48 10 10 10 10-4.48 10-10S17.52 2 12 2zm4.5 14H8c-1.66 0-3-1.34-3-3s1.34-3 3-3h.14c.44-1.73 1.99-3 3.86-3 2.21 0 4 1.79 4 4h.5c1.38 0 2.5 1.12 2.5 2.5S17.88 16 16.5 16z"/></symbol>
<symbol id="cloud_done" viewBox="0 0 24 24"><path d="M0 0h24v24H0V0z" fill="none"/><path d="M19.35 10.04C18.67 6.59 15.64 4 12 4 9.11 4 6.6 5.64 5.35 8.04 2.34 8.36 0 10.91 0 14c0 3.31 2.69 6 6 6h13c2.76 0 5-2.24 5-5 0-2.64-2.05-4.78-4.65-4.96zM10 17l-3.5-3.5 1.41-1.41L10 14.18 15.18 9l1.41 1.41L10 17z"/></symbol>
<symbol id="cloud_download" viewBox="0 0 24 24"><path d="M0 0h24v24H0V0z" fill="none"/><path d="M19.35 10.04C18.67 6.59 15.64 4 12 4 9.11 4 6.6 5.64 5.35 8.04 2.34 8.36 0 10.91 0 14c0 3.31 2.69 6 6 6h13c2.76 0 5-2.24 5-5 0-2.64-2.05-4.78-4.65-4.96zM17 13l-5 5-5-5h3V9h4v4h3z"/></symbol>
<symbol id="cloud_off" viewBox="0 0 24 24"><path d="M0 0h24v24H0V0z" fill="none"/><path d="M24 15c0-2.64-2.05-4.78-4.65-4.96C18.67 6.59 15.64 4 12 4c-1.33 0-2.57.36-3.65.97l1.49 1.49C10.51 6.17 11.23 6 12 6c3.04 0 5.5 2.46 5.5 5.5v.5H19c1.66 0 3 1.34 3 3 0 .99-.48 1.85-1.21 2.4l1.41 1.41c1.09-.92 1.8-2.27 1.8-3.81zM4.41 3.86L3 5.27l2.77 2.77h-.42C2.34 8.36 0 10.91 0 14c0 3.31 2.69 6 6 6h11.73l2 2 1.41-1.41L4.41 3.86zM6 18c-2.21 0-4-1.79-4-4s1.79-4 4-4h1.73l8 8H6z"/></symbol>
<symbol id="cloud_queue" viewBox="0 0 24 24"><path d="M0 0h24v24H0V0z" fill="none"/><path d="M19.35 10.04C18.67 6.59 15.64 4 12 4 9.11 4 6.6 5.64 5.35 8.04 2.34 8.36 0 10.91 0 14c0 3.31 2.69 6 6 6h13c2.76 0 5-2.24 5-5 0-2.64-2.05-4.78-4.65-4.96zM19 18H6c-2.21 0-4-1.79-4-4s1.79-4 4-4h.71C7.37 7.69 9.48 6 12 6c3.04 0 5.5 2.46 5.5 5.5v.5H19c1.66 0 3 1.34 3 3s-1.34 3-3 3z"/></symbol>
<symbol id="cloud_upload" viewBox="0 0 24 24"><path d="M0 0h24v24H0V0z" fill="none"/><path d="M19.35 10.04C18.67 6.59 15.64 4 12 4 9.11 4 6.6 5.64 5.35 8.04 2.34 8.36 0 10.91 0 14c0 3.31 2.69 6 6 6h13c2.76 0 5-2.24 5-5 0-2.64-2.05-4.78-4.65-4.96zM14 13v4h-4v-4H7l5-5 5 5h-3z"/></symbol>
<symbol id="create_new_folder" viewBox="0 0 24 24"><path d="M0 0h24v24H0V0z" fill="none"/><path d="M22 6H12l-2-2H2v16h20V6zm-3 8h-3v3h-2v-3h-3v-2h3V9h2v3h3v2z"/></symbol>
<symbol id="download" viewBox="0 0 24 24"><path d="M0 0h24v24H0V0z" fill="none"/><path d="M19 9h-4V3H9v6H5l7 7 7-7zM5 18v2h14v-2H5z"/></symbol>
<symbol id="download_done" viewBox="0 0 24 24"><path d="M0 0h24v24H0V0z" fill="none"/><path d="M5 18h14v2H5v-2zm4.6-2.7L5 10.7l2-1.9 2.6 2.6L17 4l2 2-9.4 9.3z"/></symbol>
<symbol id="folder" viewBox="0 0 24 24"><path d="M0 0h24v24H0V0z" fill="none"/><path d="M10 4H2v16h20V6H12l-2-2z"/></symbol>
<symbol id="folder_open" viewBox="0 0 24 24"><path d="M0 0h24v24H0V0z" fill="none"/><path d="M22 6H12l-2-2H2v16h20V6zm-2 12H4V8h16v10z"/></symbol>
<symbol id="folder_shared" viewBox="0 0 24 24"><path d="M0 0h24v24H0V0z" fill="none"/><path d="M22 6H12l-2-2H2v16h20V6zm-7 3c1.1 0 2 .9 2 2s-.9 2-2 2-2-.9-2-2 .9-2 2-2zm4 8h-8v-1c0-1.33 2.67-2 4-2s4 .67 4 2v1z"/></symbol>
<symbol id="request_quote" viewBox="0 0 24 24"><g><rect fill="none" height="24" width="24"/><path d="M14,2H4v20h16V8L14,2z M15,12h-4v1h4v5h-2v1h-2v-1H9v-2h4v-1H9v-5h2V9h2v1h2V12z M13,8V3.5L17.5,8H13z"/></g></symbol>
<symbol id="rule_folder" viewBox="0 0 24 24"><g><rect fill="none" height="24" width="24"/><path d="M22,6H12l-2-2H2v16h20V6z M7.83,16L5,13.17l1.41-1.41l1.41,1.41l3.54-3.54l1.41,1.41L7.83,16z M17.41,13L19,14.59L17.59,16 L16,14.41L14.41,16L13,14.59L14.59,13L13,11.41L14.41,10L16,11.59L17.59,10L19,11.41L17.41,13z"/></g></symbol>
<symbol id="snippet_folder" viewBox="0 0 24 24"><g><rect fill="none" height="24" width="24"/><path d="M12,6l-2-2H2v16h20V6H12z M19,17l-6,0V9h3.5l2.5,2.5V17z M15.88,10.5l1.62,1.62v3.38l-3,0v-5H15.88z"/></g></symbol>
<symbol id="text_snippet" viewBox="0 0 24 24"><g><rect fill="none" height="24" width="24"/><path d="M21,9l-6-6H3v18h18V9z M7,7h7v2H7V7z M17,17H7v-2h10V17z M17,13H7v-2h10V13z"/></g></symbol>
<symbol id="topic" viewBox="0 0 24 24"><g><rect fill="none" height="24" width="24"/><path d="M12,6l-2-2H2v16h20V6H12z M14,16H6v-2h8V16z M18,12H6v-2h12V12z"/></g></symbol>
<symbol id="upload" viewBox="0 0 24 24"><path d="M0 0h24v24H0V0z" fill="none"/><path d="M9 16h6v-6h4l-7-7-7 7h4v6zm-4 2h14v2H5v-2z"/></symbol>
</svg>