<svg xmlns="http://www.w3.org/2000/svg">
<symbol id="browser_not_supported" viewBox="0 0 24 24"><g><rect fill="none" height="24" width="24"/></g><g><g><polygon points="19,6 19,16.5 21,18.5 21,4 6.5,4 8.5,6"/><path d="M3.22,3.32L1.95,4.59L3,5.64L3,20h14.36l2.06,2.06l1.27-1.27L3.22,3.32z M15,18H5V7.64L15.36,18H15z"/></g></g></symbol>
<symbol id="cast" viewBox="0 0 24 24"><path d="M0 0h24v24H0V0zm0 0h24v24H0V0z" fill="none"/><path d="M23 3H1v5h2V5h18v14h-7v2h9V3zM1 18v3h3c0-1.66-1.34-3-3-3zm0-4v2c2.76 0 5 2.24 5 5h2c0-3.87-3.13-7-7-7zm0-4v2c4.97 0 9 4.03 9 9h2c0-6.08-4.93-11-11-11z"/></symbol>
<symbol id="cast_connected" viewBox="0 0 24 24"><path d="M0 0h24v24H0V0zm0 0h24v24H0V0z" fill="none"/><path d="M1 18v3h3c0-1.66-1.34-3-3-3zm0-4v2c2.76 0 5 2.24 5 5h2c0-3.87-3.13-7-7-7zm18-7H5v1.63c3.96 1.28 7.09 4.41 8.37 8.37H19V7zM1 10v2c4.97 0 9 4.03 9 9h2c0-6.08-4.93-11-11-11zm22-7H1v5h2V5h18v14h-7v2h9V3z"/></symbol>
<symbol id="cast_for_education" viewBox="0 0 24 24"><path d="M0 0h24v24H0V0z" fill="none"/><path d="M23 3H1v5h2V5h18v14h-7v2h9V3zM1 18v3h3c0-1.66-1.34-3-3-3zm0-4v2c2.76 0 5 2.24 5 5h2c0-3.87-3.13-7-7-7zm0-4v2c4.97 0 9 4.03 9 9h2c0-6.08-4.93-11-11-11zm10 1.09v2L14.5 15l3.5-1.91v-2L14.5 13 11 11.09zM14.5 6L9 9l5.5 3L20 9l-5.5-3z"/></symbol>
<symbol id="computer" viewBox="0 0 24 24"><path d="M0 0h24v24H0V0z" fill="none"/><path d="M20 18l2-2V4H2v12l2 2H0v2h24v-2h-4zM4 6h16v10H4V6z"/></symbol>
<symbol id="desktop_mac" viewBox="0 0 24 24"><path d="M0 0h24v24H0V0z" fill="none"/><path d="M23 2H1v16h9l-2 3v1h8v-1l-2-3h9V2zm-2 12H3V4h18v10z"/></symbol>
<symbol id="desktop_windows" viewBox="0 0 24 24"><path d="M0 0h24v24H0V0z" fill="none"/><path d="M23 2H1v16h9v2H8v2h8v-2h-2v-2h9V2zm-2 14H3V4h18v12z"/></symbol>
<symbol id="developer_board" viewBox="0 0 24 24"><path d="M0 0h24v24H0V0zm0 0h24v24H0V0z" fill="none"/><path d="M22 9V7h-2V3H2v18h18v-4h2v-2h-2v-2h2v-2h-2V9h2zm-4 10H4V5h14v14zM6 13h5v4H6v-4zm6-6h4v3h-4V7zM6 7h5v5H6V7zm6 4h4v6h-4v-6z"/></symbol>
<symbol id="devices_other" viewBox="0 0 24 24"><path d="M0 0h24v24H0V0z" fill="none"/><path d="M3 6h18V4H1v16h6v-2H3V6zm10 6H9v1.78c-.61.55-1 1.33-1 2.22 0 .89.39 1.67 1 2.22V20h4v-1.78c.61-.55 1-1.34 1-2.22s-.39-1.67-1-2.22V12zm-2 5.5c-.83 0-1.5-.67-1.5-1.5s.67-1.5 1.5-1.5 1.5.67 1.5 1.5-.67 1.5-1.5 1.5zM23 8h-8v12h8V8zm-2 10h-4v-8h4v8z"/></symbol>
<symbol id="device_hub" viewBox="0 0 24 24"><path d="M0 0h24v24H0V0zm0 0h24v24H0V0z" fill="none"/><path d="M17 16l-4-4V8.82C14.16 8.4 15 7.3 15 6c0-1.66-1.34-3-3-3S9 4.34 9 6c0 1.3.84 2.4 2 2.82V12l-4 4H3v5h5v-3.05l4-4.2 4 4.2V21h5v-5h-4z"/></symbol>
<symbol id="device_unknown" viewBox="0 0 24 24"><path d="M0 0h24v24H0V0z" fill="none"/><path d="M19 1H5v22h14V1zm-2 18H7V5h10v14zM12 6.72c-1.96 0-3.5 1.52-3.5 3.47h1.75c0-.93.82-1.75 1.75-1.75s1.75.82 1.75 1.75c0 1.75-2.63 1.57-2.63 4.45h1.76c0-1.96 2.62-2.19 2.62-4.45 0-1.96-1.54-3.47-3.5-3.47zM11 16h2v2h-2v-2z"/></symbol>
<symbol id="dock" viewBox="0 0 24 24"><path d="M0 0h24v24H0V0z" fill="none"/><path d="M8 23h8v-2H8v2zM18 1.01L6 1v18h12V1.01zM16 15H8V5h8v10z"/></symbol>
<symbol id="gamepad" viewBox="0 0 24 24"><path d="M0 0h24v24H0V0z" fill="none"/><path d="M15 7.5V2H9v5.5l3 3 3-3zM7.5 9H2v6h5.5l3-3-3-3zM9 16.5V22h6v-5.5l-3-3-3 3zM16.5 9l-3 3 3 3H22V9h-5.5z"/></symbol>
<symbol id="headset" viewBox="0 0 24 24"><path d="M0 0h24v24H0V0z" fill="none"/><path d="M11.4 1.02C6.62 1.33 3 5.52 3 10.31V20h6v-8H5v-1.71C5 6.45 7.96 3.11 11.79 3 15.76 2.89 19 6.06 19 10v2h-4v8h6V10c0-5.17-4.36-9.32-9.6-8.98z"/></symbol>
<symbol id="headset_mic" viewBox="0 0 24 24"><path d="M0 0h24v24H0V0z" fill="none"/><path d="M11.4 1.02C6.62 1.33 3 5.51 3 10.31V20h6v-8H5v-1.71C5 6.45 7.96 3.11 11.79 3 15.76 2.89 19 6.06 19 10v2h-4v8h4v1h-7v2h9V10c0-5.17-4.36-9.32-9.6-8.98z"/></symbol>
<symbol id="keyboard" viewBox="0 0 24 24"><path d="M0 0h24v24H0V0zm0 0h24v24H0V0z" fill="none"/><path d="M22 5H2.01L2 19h20V5zM11 8h2v2h-2V8zm0 3h2v2h-2v-2zM8 8h2v2H8V8zm0 3h2v2H8v-2zm-1 2H5v-2h2v2zm0-3H5V8h2v2zm9 7H8v-2h8v2zm0-4h-2v-2h2v2zm0-3h-2V8h2v2zm3 3h-2v-2h2v2zm0-3h-2V8h2v2z"/></symbol>
<symbol id="keyboard_arrow_down" viewBox="0 0 24 24"><path d="M0 0h24v24H0V0z" fill="none"/><path d="M7.41 8.59L12 13.17l4.59-4.58L18 10l-6 6-6-6 1.41-1.41z"/></symbol>
<symbol id="keyboard_arrow_left" viewBox="0 0 24 24"><path d="M0 0h24v24H0V0z" fill="none"/><path d="M15.41 16.59L10.83 12l4.58-4.59L14 6l-6 6 6 6 1.41-1.41z"/></symbol>
<symbol id="keyboard_arrow_right" viewBox="0 0 24 24"><path d="M0 0h24v24H0V0z" fill="none"/><path d="M8.59 16.59L13.17 12 8.59 7.41 10 6l6 6-6 6-1.41-1.41z"/></symbol>
<symbol id="keyboard_arrow_up" viewBox="0 0 24 24"><path d="M0 0h24v24H0V0z" fill="none"/><path d="M7.41 15.41L12 10.83l4.59 4.58L18 14l-6-6-6 6 1.41 1.41z"/></symbol>
<symbol id="keyboard_backspace" viewBox="0 0 24 24"><path d="M0 0h24v24H0V0z" fill="none"/><path d="M21 11H6.83l3.58-3.59L9 6l-6 6 6 6 1.41-1.41L6.83 13H21v-2z"/></symbol>
<symbol id="keyboard_capslock" viewBox="0 0 24 24"><path d="M0 0h24v24H0V0z" fill="none"/><path d="M12 8.41L16.59 13 18 11.59l-6-6-6 6L7.41 13 12 8.41zM6 18h12v-2H6v2z"/></symbol>
<symbol id="keyboard_hide" viewBox="0 0 24 24"><path d="M0 0h24v24H0V0z" fill="none"/><path d="M22 3H2.01L2 17h20V3zM11 6h2v2h-2V6zm0 3h2v2h-2V9zM8 6h2v2H8V6zm0 3h2v2H8V9zm-1 2H5V9h2v2zm0-3H5V6h2v2zm9 7H8v-2h8v2zm0-4h-2V9h2v2zm0-3h-2V6h2v2zm3 3h-2V9h2v2zm0-3h-2V6h2v2zm-7 15l4-4H8l4 4z"/></symbol>
<symbol id="keyboard_return" viewBox="0 0 24 24"><path d="M0 0h24v24H0V0z" fill="none"/><path d="M19 7v4H5.83l3.58-3.59L8 6l-6 6 6 6 1.41-1.41L5.83 13H21V7h-2z"/></symbol>
<symbol id="keyboard_tab" viewBox="0 0 24 24"><path d="M0 0h24v24H0V0z" fill="none"/><path d="M11.59 7.41L15.17 11H1v2h14.17l-3.59 3.59L13 18l6-6-6-6-1.41 1.41zM20 6v12h2V6h-2z"/></symbol>
<symbol id="keyboard_voice" viewBox="0 0 24 24"><path d="M0 0h24v24H0V0z" fill="none"/><path d="M12 15c1.66 0 2.99-1.34 2.99-3L15 6c0-1.66-1.34-3-3-3S9 4.34 9 6v6c0 1.66 1.34 3 3 3zm5.3-3c0 3-2.54 5.1-5.3 5.1S6.7 15 6.7 12H5c0 3.42 2.72 6.23 6 6.72V22h2v-3.28c3.28-.48 6-3.3 6-6.72h-1.7z"/></symbol>
<symbol id="laptop" viewBox="0 0 24 24"><g><rect fill="none" height="24" width="24" x="0"/></g><g><g><path d="M20,18l2-2V4H2v12l2,2H0v2h24v-2H20z M4,6h16v10H4V6z"/></g></g></symbol>
<symbol id="laptop_chromebook" viewBox="0 0 24 24"><path d="M0 0h24v24H0V0z" fill="none"/><path d="M22 18V3H2v15H0v2h24v-2h-2zm-8 0h-4v-1h4v1zm6-3H4V5h16v10z"/></symbol>
<symbol id="laptop_mac" viewBox="0 0 24 24"><path d="M0 0h24v24H0V0z" fill="none"/><path d="M20 18l1.99-2L22 3H2v13l2 2H0v2h24v-2h-4zM4 5h16v11H4V5zm8 14c-.55 0-1-.45-1-1s.45-1 1-1 1 .45 1 1-.45 1-1 1z"/></symbol>
<symbol id="laptop_windows" viewBox="0 0 24 24"><path d="M0 0h24v24H0V0z" fill="none"/><path d="M20 18v-1h1.99L22 3H2v14h2v1H0v2h24v-2h-4zM4 5h16v10H4V5z"/></symbol>
<symbol id="memory" viewBox="0 0 24 24"><path d="M0 0h24v24H0V0z" fill="none"/><path d="M15 9H9v6h6V9zm-2 4h-2v-2h2v2zm8-2V9h-2V5h-4V3h-2v2h-2V3H9v2H5v4H3v2h2v2H3v2h2v4h4v2h2v-2h2v2h2v-2h4v-4h2v-2h-2v-2h2zm-4 6H7V7h10v10z"/></symbol>
<symbol id="mouse" viewBox="0 0 24 24"><path d="M0 0h24v24H0V0z" fill="none"/><path d="M13 1.07V9h7c0-4.08-3.05-7.44-7-7.93zM4 15c0 4.42 3.58 8 8 8s8-3.58 8-8v-4H4v4zm7-13.93C7.05 1.56 4 4.92 4 9h7V1.07z"/></symbol>
<symbol id="phonelink" viewBox="0 0 24 24"><path d="M0 0h24v24H0V0z" fill="none"/><path d="M4 6h18V4H2v13H0v3h14v-3H4V6zm20 2h-8v12h8V8zm-2 9h-4v-7h4v7z"/></symbol>
<symbol id="phonelink_off" viewBox="0 0 24 24"><path d="M0 0h24v24H0V0zm0 0h24v24H0V0z" fill="none"/><path d="M4.56 4l-2.5-2.49L4.56 4zM24 8h-8v4.61l2 2V10h4v7h-1.61l3 3H24zm-2-2V4H7.39l2 2zM2.06 1.51L.65 2.92 2 4.27V17H0v3h17.73l2.35 2.35 1.41-1.41L2.06 1.51zM4 17V6.27L14.73 17H4z"/></symbol>
<symbol id="phone_android" viewBox="0 0 24 24"><path d="M0 0h24v24H0V0z" fill="none"/><path d="M19 1H5v22h14V1zm-5 20h-4v-1h4v1zm3-3H7V4h10v14z"/></symbol>
<symbol id="phone_iphone" viewBox="0 0 24 24"><path d="M0 0h24v24H0V0z" fill="none"/><path d="M18 1H5v22h13V1zm-6.5 21c-.83 0-1.5-.67-1.5-1.5s.67-1.5 1.5-1.5 1.5.67 1.5 1.5-.67 1.5-1.5 1.5zm4.5-4H7V4h9v14z"/></symbol>
<symbol id="point_of_sale" viewBox="0 0 24 24"><g><rect fill="none" height="24" width="24"/><path d="M19,2H5c0,0,0,0,0,0v6c0,0,0,0,0,0h14c0,0,0,0,0,0L19,2C19,2,19,2,19,2z M17,6H7V4h10V6z M22,22H2c0,0,0,0,0,0v-3h20L22,22 C22,22,22,22,22,22z M18,9H6c0,0,0,0,0,0l-4,9h20L18,9z M10,16H8v-1h2V16z M10,14H8v-1h2V14z M10,12H8v-1h2V12z M13,16h-2v-1h2V16z M13,14h-2v-1h2V14z M13,12h-2v-1h2V12z M16,16h-2v-1h2V16z M16,14h-2v-1h2V14z M16,12h-2v-1h2V12z"/></g></symbol>
<symbol id="power_input" viewBox="0 0 24 24"><path d="M0 0h24v24H0V0z" fill="none"/><path d="M2 9v2h19V9H2zm0 6h5v-2H2v2zm7 0h5v-2H9v2zm7 0h5v-2h-5v2z"/></symbol>
<symbol id="router" viewBox="0 0 24 24"><path d="M0 0h24v24H0V0zm0 0h24v24H0V0z" fill="none"/><path d="M20.2 5.9l.8-.8C19.6 3.7 17.8 3 16 3s-3.6.7-5 2.1l.8.8C13 4.8 14.5 4.2 16 4.2s3 .6 4.2 1.7zm-.9.8c-.9-.9-2.1-1.4-3.3-1.4s-2.4.5-3.3 1.4l.8.8c.7-.7 1.6-1 2.5-1s1.8.3 2.5 1l.8-.8zM21 13h-4V9h-2v4H3v8h18v-8zM8 18H6v-2h2v2zm3.5 0h-2v-2h2v2zm3.5 0h-2v-2h2v2z"/></symbol>
<symbol id="scanner" viewBox="0 0 24 24"><path d="M0 0h24v24H0V0z" fill="none"/><path d="M4.2 5l-.7 1.9L17.6 12H3v8h18v-8.86L4.2 5zM7 17H5v-2h2v2zm12 0H9v-2h10v2z"/></symbol>
<symbol id="security" viewBox="0 0 24 24"><path d="M0 0h24v24H0V0z" fill="none"/><path d="M12 1L3 5v6c0 5.55 3.84 10.74 9 12 5.16-1.26 9-6.45 9-12V5l-9-4zm0 10.99h7c-.53 4.12-3.28 7.79-7 8.94V12H5V6.3l7-3.11v8.8z"/></symbol>
<symbol id="sim_card" viewBox="0 0 24 24"><path d="M0 0h24v24H0V0z" fill="none"/><path d="M19.99 2H10L4 8v14h16l-.01-20zM9 19H7v-2h2v2zm8 0h-2v-2h2v2zm-8-4H7v-4h2v4zm4 4h-2v-4h2v4zm0-6h-2v-2h2v2zm4 2h-2v-4h2v4z"/></symbol>
<symbol id="smartphone" viewBox="0 0 24 24"><path d="M0 0h24v24H0V0z" fill="none"/><path d="M5 1v22h14V1H5zm12 18H7V5h10v14z"/></symbol>
<symbol id="speaker" viewBox="0 0 24 24"><path d="M0 0h24v24H0V0z" fill="none"/><path d="M19 2H5v19.99h14V2zm-7 2c1.1 0 2 .9 2 2s-.9 2-2 2c-1.11 0-2-.9-2-2s.89-2 2-2zm0 16c-2.76 0-5-2.24-5-5s2.24-5 5-5 5 2.24 5 5-2.24 5-5 5zm0-8c-1.66 0-3 1.34-3 3s1.34 3 3 3 3-1.34 3-3-1.34-3-3-3z"/></symbol>
<symbol id="speaker_group" viewBox="0 0 24 24"><path d="M0 0h24v24H0V0z" fill="none"/><path d="M20 1H8v17.99h12V1zm-6 2c1.1 0 2 .89 2 2s-.9 2-2 2-2-.89-2-2 .9-2 2-2zm0 13.5c-2.21 0-4-1.79-4-4s1.79-4 4-4 4 1.79 4 4-1.79 4-4 4z"/><circle cx="14" cy="12.5" r="2.5"/><path d="M6 5H4v18h12v-2H6z"/></symbol>
<symbol id="tablet" viewBox="0 0 24 24"><path d="M0 0h24v24H0V0z" fill="none"/><path d="M23 4H1v16h21.99L23 4zm-4 14H5V6h14v12z"/></symbol>
<symbol id="tablet_android" viewBox="0 0 24 24"><path d="M0 0h24v24H0V0zm0 0h24v24H0V0z" fill="none"/><path d="M21 0H3v24h18V0zm-7 22h-4v-1h4v1zm5.25-3H4.75V3h14.5v16z"/></symbol>
<symbol id="tablet_mac" viewBox="0 0 24 24"><path d="M0 0h24v24H0V0z" fill="none"/><path d="M21 0H2v24h19V0zm-9.5 23c-.83 0-1.5-.67-1.5-1.5s.67-1.5 1.5-1.5 1.5.67 1.5 1.5-.67 1.5-1.5 1.5zm7.5-4H4V3h15v16z"/></symbol>
<symbol id="toys" viewBox="0 0 24 24"><path d="M0 0h24v24H0V0zm0 0h24v24H0V0z" fill="none"/><path d="M12 12c0-3 2.5-5.5 5.5-5.5S23 9 23 12H12zm0 0c0 3-2.5 5.5-5.5 5.5S1 15 1 12h11zm0 0c-3 0-5.5-2.5-5.5-5.5S9 1 12 1v11zm0 0c3 0 5.5 2.5 5.5 5.5S15 23 12 23V12z"/></symbol>
<symbol id="tv" viewBox="0 0 24 24"><path d="M0 0h24v24H0V0z" fill="none"/><path d="M23 3H1v16h7v2h8v-2h6.99L23 3zm-2 14H3V5h18v12z"/></symbol>
<symbol id="videogame_asset" viewBox="0 0 24 24"><path d="M0 0h24v24H0V0z" fill="none"/><path d="M23 6H1v12h22V6zm-12 7H8v3H6v-3H3v-2h3V8h2v3h3v2zm4.5 2c-.83 0-1.5-.67-1.5-1.5s.67-1.5 1.5-1.5 1.5.67 1.5 1.5-.67 1.5-1.5 1.5zm4-3c-.83 0-1.5-.67-1.5-1.5S18.67 9 19.5 9s1.5.67 1.5 1.5-.67 1.5-1.5 1.5z"/></symbol>
<symbol id="watch" viewBox="0 0 24 24"><path d="M0 0h24v24H0V0z" fill="none"/><path d="M20 12c0-2.54-1.19-4.81-3.04-6.27L16 0H8l-.95 5.73C5.19 7.19 4 9.45 4 12s1.19 4.81 3.05 6.27L8 24h8l.96-5.73C18.81 16.81 20 14.54 20 12zM6 12c0-3.31 2.69-6 6-6s6 2.69 6 6-2.69 6-6 6-6-2.69-6-6z"/></symbol>
</svg>