<svg xmlns="http://www.w3.org/2000/svg">
<symbol id="add_a_photo" viewBox="0 0 24 24"><path d="M0 0h24v24H0z" fill="none"/><path d="M3 4V1h2v3h3v2H5v3H3V6H0V4h3zm3 6V7h3V4h7l1.83 2H23v16H3V10h3zm7 9c2.76 0 5-2.24 5-5s-2.24-5-5-5-5 2.24-5 5 2.24 5 5 5zm-3-5c0 1.66 1.34 3 3 3s3-1.34 3-3-1.34-3-3-3-3 1.34-3 3z"/></symbol>
<symbol id="add_photo_alternate" viewBox="0 0 24 24"><path d="M0 0h24v24H0V0z" fill="none"/><path d="M19 7v2.99s-1.99.01-2 0V7h-3s.01-1.99 0-2h3V2h2v3h3v2h-3zm-3 4V8h-3V5H3v16h16V11h-3zM5 19l3-4 2 3 3-4 4 5H5z"/></symbol>
<symbol id="add_to_photos" viewBox="0 0 24 24"><path d="M0 0h24v24H0V0z" fill="none"/><path d="M4 6H2v16h16v-2H4V6zm18-4H6v16h16V2zm-3 9h-4v4h-2v-4H9V9h4V5h2v4h4v2z"/></symbol>
<symbol id="adjust" viewBox="0 0 24 24"><path d="M0 0h24v24H0V0z" fill="none"/><path d="M12 2C6.49 2 2 6.49 2 12s4.49 10 10 10 10-4.49 10-10S17.51 2 12 2zm0 18c-4.41 0-8-3.59-8-8s3.59-8 8-8 8 3.59 8 8-3.59 8-8 8zm3-8c0 1.66-1.34 3-3 3s-3-1.34-3-3 1.34-3 3-3 3 1.34 3 3z"/></symbol>
<symbol id="assistant" viewBox="0 0 24 24"><path d="M0 0h24v24H0V0z" fill="none"/><path d="M21 2H3v18h6l3 3 3-3h6V2zm-7.12 10.88L12 17l-1.88-4.12L6 11l4.12-1.88L12 5l1.88 4.12L18 11l-4.12 1.88z"/></symbol>
<symbol id="assistant_photo" viewBox="0 0 24 24"><path d="M0 0h24v24H0V0z" fill="none"/><path d="M14.4 6L14 4H5v17h2v-7h5.6l.4 2h7V6h-5.6z"/></symbol>
<symbol id="audiotrack" viewBox="0 0 24 24"><path d="M0 0h24v24H0V0z" fill="none"/><path d="M12 3v10.55c-.59-.34-1.27-.55-2-.55-2.21 0-4 1.79-4 4s1.79 4 4 4 4-1.79 4-4V7h4V3h-6z"/></symbol>
<symbol id="bedtime" viewBox="0 0 24 24"><g><rect fill="none" height="24" width="24"/></g><g><g><path d="M12.34,2.02C6.59,1.82,2,6.42,2,12c0,5.52,4.48,10,10,10c3.71,0,6.93-2.02,8.66-5.02C13.15,16.73,8.57,8.55,12.34,2.02z"/></g></g></symbol>
<symbol id="blur_circular" viewBox="0 0 24 24"><path d="M0 0h24v24H0V0z" fill="none"/><path d="M10 9c-.55 0-1 .45-1 1s.45 1 1 1 1-.45 1-1-.45-1-1-1zm0 4c-.55 0-1 .45-1 1s.45 1 1 1 1-.45 1-1-.45-1-1-1zM7 9.5c-.28 0-.5.22-.5.5s.22.5.5.5.5-.22.5-.5-.22-.5-.5-.5zm3 7c-.28 0-.5.22-.5.5s.22.5.5.5.5-.22.5-.5-.22-.5-.5-.5zm-3-3c-.28 0-.5.22-.5.5s.22.5.5.5.5-.22.5-.5-.22-.5-.5-.5zm3-6c.28 0 .5-.22.5-.5s-.22-.5-.5-.5-.5.22-.5.5.22.5.5.5zM14 9c-.55 0-1 .45-1 1s.45 1 1 1 1-.45 1-1-.45-1-1-1zm0-1.5c.28 0 .5-.22.5-.5s-.22-.5-.5-.5-.5.22-.5.5.22.5.5.5zm3 6c-.28 0-.5.22-.5.5s.22.5.5.5.5-.22.5-.5-.22-.5-.5-.5zm0-4c-.28 0-.5.22-.5.5s.22.5.5.5.5-.22.5-.5-.22-.5-.5-.5zM12 2C6.48 2 2 6.48 2 12s4.48 10 10 10 10-4.48 10-10S17.52 2 12 2zm0 18c-4.42 0-8-3.58-8-8s3.58-8 8-8 8 3.58 8 8-3.58 8-8 8zm2-3.5c-.28 0-.5.22-.5.5s.22.5.5.5.5-.22.5-.5-.22-.5-.5-.5zm0-3.5c-.55 0-1 .45-1 1s.45 1 1 1 1-.45 1-1-.45-1-1-1z"/></symbol>
<symbol id="blur_linear" viewBox="0 0 24 24"><path d="M0 0h24v24H0V0z" fill="none"/><path d="M5 17.5c.83 0 1.5-.67 1.5-1.5s-.67-1.5-1.5-1.5-1.5.67-1.5 1.5.67 1.5 1.5 1.5zM9 13c.55 0 1-.45 1-1s-.45-1-1-1-1 .45-1 1 .45 1 1 1zm0-4c.55 0 1-.45 1-1s-.45-1-1-1-1 .45-1 1 .45 1 1 1zM3 21h18v-2H3v2zM5 9.5c.83 0 1.5-.67 1.5-1.5S5.83 6.5 5 6.5 3.5 7.17 3.5 8 4.17 9.5 5 9.5zm0 4c.83 0 1.5-.67 1.5-1.5s-.67-1.5-1.5-1.5-1.5.67-1.5 1.5.67 1.5 1.5 1.5zM9 17c.55 0 1-.45 1-1s-.45-1-1-1-1 .45-1 1 .45 1 1 1zm8-.5c.28 0 .5-.22.5-.5s-.22-.5-.5-.5-.5.22-.5.5.22.5.5.5zM3 3v2h18V3H3zm14 5.5c.28 0 .5-.22.5-.5s-.22-.5-.5-.5-.5.22-.5.5.22.5.5.5zm0 4c.28 0 .5-.22.5-.5s-.22-.5-.5-.5-.5.22-.5.5.22.5.5.5zM13 9c.55 0 1-.45 1-1s-.45-1-1-1-1 .45-1 1 .45 1 1 1zm0 4c.55 0 1-.45 1-1s-.45-1-1-1-1 .45-1 1 .45 1 1 1zm0 4c.55 0 1-.45 1-1s-.45-1-1-1-1 .45-1 1 .45 1 1 1z"/></symbol>
<symbol id="blur_off" viewBox="0 0 24 24"><path d="M0 0h24v24H0V0z" fill="none"/><circle cx="14" cy="6" r="1"/><path d="M13.8 11.48l.2.02c.83 0 1.5-.67 1.5-1.5s-.67-1.5-1.5-1.5-1.5.67-1.5 1.5l.02.2c.09.67.61 1.19 1.28 1.28zM14 3.5c.28 0 .5-.22.5-.5s-.22-.5-.5-.5-.5.22-.5.5.22.5.5.5zm-4 0c.28 0 .5-.22.5-.5s-.22-.5-.5-.5-.5.22-.5.5.22.5.5.5z"/><circle cx="18" cy="10" r="1"/><circle cx="18" cy="6" r="1"/><path d="M21 10.5c.28 0 .5-.22.5-.5s-.22-.5-.5-.5-.5.22-.5.5.22.5.5.5z"/><circle cx="10" cy="6" r="1"/><circle cx="18" cy="14" r="1"/><circle cx="6" cy="18" r="1"/><path d="M14 20.5c-.28 0-.5.22-.5.5s.22.5.5.5.5-.22.5-.5-.22-.5-.5-.5zm7-7c-.28 0-.5.22-.5.5s.22.5.5.5.5-.22.5-.5-.22-.5-.5-.5zm-18 0c-.28 0-.5.22-.5.5s.22.5.5.5.5-.22.5-.5-.22-.5-.5-.5z"/><circle cx="10" cy="18" r="1"/><path d="M3 9.5c-.28 0-.5.22-.5.5s.22.5.5.5.5-.22.5-.5-.22-.5-.5-.5zm7 11c-.28 0-.5.22-.5.5s.22.5.5.5.5-.22.5-.5-.22-.5-.5-.5z"/><circle cx="6" cy="14" r="1"/><path d="M2.5 5.27L6 8.77l.28.28L6 9c-.55 0-1 .45-1 1s.45 1 1 1 1-.45 1-1c0-.1-.03-.19-.06-.28l2.81 2.81c-.71.11-1.25.73-1.25 1.47 0 .83.67 1.5 1.5 1.5.74 0 1.36-.54 1.47-1.25l2.81 2.81c-.09-.03-.18-.06-.28-.06-.55 0-1 .45-1 1s.45 1 1 1 1-.45 1-1c0-.1-.03-.19-.06-.28l3.78 3.78h.01l1.41-1.41L3.91 3.86 2.5 5.27z"/></symbol>
<symbol id="blur_on" viewBox="0 0 24 24"><path d="M0 0h24v24H0z" fill="none"/><path d="M6 13c-.55 0-1 .45-1 1s.45 1 1 1 1-.45 1-1-.45-1-1-1zm0 4c-.55 0-1 .45-1 1s.45 1 1 1 1-.45 1-1-.45-1-1-1zm0-8c-.55 0-1 .45-1 1s.45 1 1 1 1-.45 1-1-.45-1-1-1zm-3 .5c-.28 0-.5.22-.5.5s.22.5.5.5.5-.22.5-.5-.22-.5-.5-.5zM6 5c-.55 0-1 .45-1 1s.45 1 1 1 1-.45 1-1-.45-1-1-1zm15 5.5c.28 0 .5-.22.5-.5s-.22-.5-.5-.5-.5.22-.5.5.22.5.5.5zM14 7c.55 0 1-.45 1-1s-.45-1-1-1-1 .45-1 1 .45 1 1 1zm0-3.5c.28 0 .5-.22.5-.5s-.22-.5-.5-.5-.5.22-.5.5.22.5.5.5zm-11 10c-.28 0-.5.22-.5.5s.22.5.5.5.5-.22.5-.5-.22-.5-.5-.5zm7 7c-.28 0-.5.22-.5.5s.22.5.5.5.5-.22.5-.5-.22-.5-.5-.5zm0-17c.28 0 .5-.22.5-.5s-.22-.5-.5-.5-.5.22-.5.5.22.5.5.5zM10 7c.55 0 1-.45 1-1s-.45-1-1-1-1 .45-1 1 .45 1 1 1zm0 5.5c-.83 0-1.5.67-1.5 1.5s.67 1.5 1.5 1.5 1.5-.67 1.5-1.5-.67-1.5-1.5-1.5zm8 .5c-.55 0-1 .45-1 1s.45 1 1 1 1-.45 1-1-.45-1-1-1zm0 4c-.55 0-1 .45-1 1s.45 1 1 1 1-.45 1-1-.45-1-1-1zm0-8c-.55 0-1 .45-1 1s.45 1 1 1 1-.45 1-1-.45-1-1-1zm0-4c-.55 0-1 .45-1 1s.45 1 1 1 1-.45 1-1-.45-1-1-1zm3 8.5c-.28 0-.5.22-.5.5s.22.5.5.5.5-.22.5-.5-.22-.5-.5-.5zM14 17c-.55 0-1 .45-1 1s.45 1 1 1 1-.45 1-1-.45-1-1-1zm0 3.5c-.28 0-.5.22-.5.5s.22.5.5.5.5-.22.5-.5-.22-.5-.5-.5zm-4-12c-.83 0-1.5.67-1.5 1.5s.67 1.5 1.5 1.5 1.5-.67 1.5-1.5-.67-1.5-1.5-1.5zm0 8.5c-.55 0-1 .45-1 1s.45 1 1 1 1-.45 1-1-.45-1-1-1zm4-4.5c-.83 0-1.5.67-1.5 1.5s.67 1.5 1.5 1.5 1.5-.67 1.5-1.5-.67-1.5-1.5-1.5zm0-4c-.83 0-1.5.67-1.5 1.5s.67 1.5 1.5 1.5 1.5-.67 1.5-1.5-.67-1.5-1.5-1.5z"/></symbol>
<symbol id="brightness_1" viewBox="0 0 24 24"><path d="M0 0h24v24H0V0z" fill="none"/><circle cx="12" cy="12" r="10"/></symbol>
<symbol id="brightness_2" viewBox="0 0 24 24"><path d="M0 0h24v24H0V0z" fill="none"/><path d="M10 2c-1.82 0-3.53.5-5 1.35C7.99 5.08 10 8.3 10 12s-2.01 6.92-5 8.65C6.47 21.5 8.18 22 10 22c5.52 0 10-4.48 10-10S15.52 2 10 2z"/></symbol>
<symbol id="brightness_3" viewBox="0 0 24 24"><path d="M0 0h24v24H0V0z" fill="none"/><path d="M9 2c-1.05 0-2.05.16-3 .46 4.06 1.27 7 5.06 7 9.54s-2.94 8.27-7 9.54c.95.3 1.95.46 3 .46 5.52 0 10-4.48 10-10S14.52 2 9 2z"/></symbol>
<symbol id="brightness_4" viewBox="0 0 24 24"><path d="M0 0h24v24H0V0z" fill="none"/><path d="M20 8.69V4h-4.69L12 .69 8.69 4H4v4.69L.69 12 4 15.31V20h4.69L12 23.31 15.31 20H20v-4.69L23.31 12 20 8.69zM12 18c-.89 0-1.74-.2-2.5-.55C11.56 16.5 13 14.42 13 12s-1.44-4.5-3.5-5.45C10.26 6.2 11.11 6 12 6c3.31 0 6 2.69 6 6s-2.69 6-6 6z"/></symbol>
<symbol id="brightness_5" viewBox="0 0 24 24"><path d="M0 0h24v24H0V0z" fill="none"/><path d="M20 15.31L23.31 12 20 8.69V4h-4.69L12 .69 8.69 4H4v4.69L.69 12 4 15.31V20h4.69L12 23.31 15.31 20H20v-4.69zM12 18c-3.31 0-6-2.69-6-6s2.69-6 6-6 6 2.69 6 6-2.69 6-6 6z"/></symbol>
<symbol id="brightness_6" viewBox="0 0 24 24"><path d="M0 0h24v24H0V0z" fill="none"/><path d="M20 15.31L23.31 12 20 8.69V4h-4.69L12 .69 8.69 4H4v4.69L.69 12 4 15.31V20h4.69L12 23.31 15.31 20H20v-4.69zM12 18V6c3.31 0 6 2.69 6 6s-2.69 6-6 6z"/></symbol>
<symbol id="brightness_7" viewBox="0 0 24 24"><path d="M0 0h24v24H0V0z" fill="none"/><path d="M20 8.69V4h-4.69L12 .69 8.69 4H4v4.69L.69 12 4 15.31V20h4.69L12 23.31 15.31 20H20v-4.69L23.31 12 20 8.69zM12 18c-3.31 0-6-2.69-6-6s2.69-6 6-6 6 2.69 6 6-2.69 6-6 6zm0-10c-2.21 0-4 1.79-4 4s1.79 4 4 4 4-1.79 4-4-1.79-4-4-4z"/></symbol>
<symbol id="broken_image" viewBox="0 0 24 24"><path d="M0 0h24v24H0V0z" fill="none"/><path d="M21 3v8.59l-3-3.01-4 4.01-4-4-4 4-3-3.01V3h18zm-3 8.42l3 3.01V21H3v-8.58l3 2.99 4-4 4 4 4-3.99z"/></symbol>
<symbol id="brush" viewBox="0 0 24 24"><path d="M0 0h24v24H0V0z" fill="none"/><path d="M7 14c-1.66 0-3 1.34-3 3 0 1.31-1.16 2-2 2 .92 1.22 2.49 2 4 2 2.21 0 4-1.79 4-4 0-1.66-1.34-3-3-3zm14.41-8.66l-2.75-2.75L9 12.25 11.75 15l9.66-9.66z"/></symbol>
<symbol id="burst_mode" viewBox="0 0 24 24"><path d="M0 0h24v24H0z" fill="none"/><path d="M1 5h2v14H1V5zm4 0h2v14H5V5zm18 0H9v14h14V5zM11 17l2.5-3.15L15.29 16l2.5-3.22L21 17H11z"/></symbol>
<symbol id="camera" viewBox="0 0 24 24"><path d="M0 0h24v24H0V0z" fill="none"/><path d="M9.4 10.5l4.77-8.26C13.47 2.09 12.75 2 12 2c-2.4 0-4.6.85-6.32 2.25l3.66 6.35.06-.1zM21.54 9c-.92-2.92-3.15-5.26-6-6.34L11.88 9h9.66zm.26 1h-7.49l.29.5 4.76 8.25C21 16.97 22 14.61 22 12c0-.69-.07-1.35-.2-2zM8.54 12l-3.9-6.75C3.01 7.03 2 9.39 2 12c0 .69.07 1.35.2 2h7.49l-1.15-2zm-6.08 3c.92 2.92 3.15 5.26 6 6.34L12.12 15H2.46zm11.27 0l-3.9 6.76c.7.15 1.42.24 2.17.24 2.4 0 4.6-.85 6.32-2.25l-3.66-6.35-.93 1.6z"/></symbol>
<symbol id="camera_alt" viewBox="0 0 24 24"><path d="M0 0h24v24H0V0z" fill="none"/><circle cx="12" cy="12" r="3"/><path d="M16.83 4L15 2H9L7.17 4H2v16h20V4h-5.17zM12 17c-2.76 0-5-2.24-5-5s2.24-5 5-5 5 2.24 5 5-2.24 5-5 5z"/></symbol>
<symbol id="camera_front" viewBox="0 0 24 24"><path d="M0 0h24v24H0V0z" fill="none"/><path d="M10 20H5v2h5v2l3-3-3-3v2zm4 0v2h5v-2h-5zM12 8c1.1 0 2-.9 2-2s-.9-2-2-2-1.99.9-1.99 2S10.9 8 12 8zm7-8H5v18h14V0zM7 2h10v10.5c0-1.67-3.33-2.5-5-2.5s-5 .83-5 2.5V2z"/></symbol>
<symbol id="camera_rear" viewBox="0 0 24 24"><path d="M0 0h24v24H0V0z" fill="none"/><path d="M10 20H5v2h5v2l3-3-3-3v2zm4 0v2h5v-2h-5zm5-20H5v18h14V0zm-7 6c-1.11 0-2-.9-2-2s.89-2 1.99-2 2 .9 2 2C14 5.1 13.1 6 12 6z"/></symbol>
<symbol id="camera_roll" viewBox="0 0 24 24"><path d="M0 0h24v24H0V0z" fill="none"/><path d="M14 5V3h-3V1H5v2H2v19h12v-2h8V5h-8zm-2 13h-2v-2h2v2zm0-9h-2V7h2v2zm4 9h-2v-2h2v2zm0-9h-2V7h2v2zm4 9h-2v-2h2v2zm0-9h-2V7h2v2z"/></symbol>
<symbol id="center_focus_strong" viewBox="0 0 24 24"><path d="M0 0h24v24H0V0z" fill="none"/><path d="M12 8c-2.21 0-4 1.79-4 4s1.79 4 4 4 4-1.79 4-4-1.79-4-4-4zm-7 7H3v6h6v-2H5v-4zM5 5h4V3H3v6h2V5zm16-2h-6v2h4v4h2V3zm-2 16h-4v2h6v-6h-2v4z"/></symbol>
<symbol id="center_focus_weak" viewBox="0 0 24 24"><path d="M0 0h24v24H0V0z" fill="none"/><path d="M5 15H3v6h6v-2H5v-4zM5 5h4V3H3v6h2V5zm16-2h-6v2h4v4h2V3zm-2 16h-4v2h6v-6h-2v4zM12 8c-2.21 0-4 1.79-4 4s1.79 4 4 4 4-1.79 4-4-1.79-4-4-4zm0 6c-1.1 0-2-.9-2-2s.9-2 2-2 2 .9 2 2-.9 2-2 2z"/></symbol>
<symbol id="collections" viewBox="0 0 24 24"><path d="M0 0h24v24H0V0z" fill="none"/><path d="M22 18V2H6v16h16zm-11-6l2.03 2.71L16 11l4 5H8l3-4zM2 6v16h16v-2H4V6H2z"/></symbol>
<symbol id="collections_bookmark" viewBox="0 0 24 24"><path d="M0 0h24v24H0V0z" fill="none"/><path d="M4 6H2v16h16v-2H4V6zm18-4H6v16h16V2zm-2 10l-2.5-1.5L15 12V4h5v8z"/></symbol>
<symbol id="colorize" viewBox="0 0 24 24"><path d="M0 0h24v24H0V0z" fill="none"/><path d="M21.42 6.34l-3.75-3.75-3.82 3.82-1.94-1.91-1.41 1.41 1.42 1.42L3 16.25V21h4.75l8.92-8.92 1.42 1.42 1.41-1.41-1.92-1.92 3.84-3.83zM6.92 19L5 17.08l8.06-8.06 1.92 1.92L6.92 19z"/></symbol>
<symbol id="color_lens" viewBox="0 0 24 24"><path d="M0 0h24v24H0z" fill="none"/><path d="M12 3c-4.97 0-9 4.03-9 9s4.03 9 9 9c.83 0 1.5-.67 1.5-1.5 0-.39-.15-.74-.39-1.01-.23-.26-.38-.61-.38-.99 0-.83.67-1.5 1.5-1.5H16c2.76 0 5-2.24 5-5 0-4.42-4.03-8-9-8zm-5.5 9c-.83 0-1.5-.67-1.5-1.5S5.67 9 6.5 9 8 9.67 8 10.5 7.33 12 6.5 12zm3-4C8.67 8 8 7.33 8 6.5S8.67 5 9.5 5s1.5.67 1.5 1.5S10.33 8 9.5 8zm5 0c-.83 0-1.5-.67-1.5-1.5S13.67 5 14.5 5s1.5.67 1.5 1.5S15.33 8 14.5 8zm3 4c-.83 0-1.5-.67-1.5-1.5S16.67 9 17.5 9s1.5.67 1.5 1.5-.67 1.5-1.5 1.5z"/></symbol>
<symbol id="compare" viewBox="0 0 24 24"><path d="M0 0h24v24H0V0z" fill="none"/><path d="M10 3H3v18h7v2h2V1h-2v2zm0 15H5l5-6v6zM21 3h-7v2h5v13l-5-6v9h7V3z"/></symbol>
<symbol id="control_point" viewBox="0 0 24 24"><path d="M0 0h24v24H0V0z" fill="none"/><path d="M13 7h-2v4H7v2h4v4h2v-4h4v-2h-4V7zm-1-5C6.49 2 2 6.49 2 12s4.49 10 10 10 10-4.49 10-10S17.51 2 12 2zm0 18c-4.41 0-8-3.59-8-8s3.59-8 8-8 8 3.59 8 8-3.59 8-8 8z"/></symbol>
<symbol id="control_point_duplicate" viewBox="0 0 24 24"><path d="M0 0h24v24H0V0z" fill="none"/><path d="M16 8h-2v3h-3v2h3v3h2v-3h3v-2h-3V8zM2 12c0-2.79 1.64-5.2 4.01-6.32V3.52C2.52 4.76 0 8.09 0 12s2.52 7.24 6.01 8.48v-2.16C3.64 17.2 2 14.79 2 12zm13-9c-4.96 0-9 4.04-9 9s4.04 9 9 9 9-4.04 9-9-4.04-9-9-9zm0 16c-3.86 0-7-3.14-7-7s3.14-7 7-7 7 3.14 7 7-3.14 7-7 7z"/></symbol>
<symbol id="crop" viewBox="0 0 24 24"><path d="M0 0h24v24H0V0z" fill="none"/><path d="M17 15h2V5H9v2h8v8zM7 17V1H5v4H1v2h4v12h12v4h2v-4h4v-2H7z"/></symbol>
<symbol id="crop_16_9" viewBox="0 0 24 24"><path d="M0 0h24v24H0V0z" fill="none"/><path d="M21 6H3v12h18V6zm-2 10H5V8h14v8z"/></symbol>
<symbol id="crop_3_2" viewBox="0 0 24 24"><path d="M0 0h24v24H0V0z" fill="none"/><path d="M21 4H3v16h18V4zm-2 14H5V6h14v12z"/></symbol>
<symbol id="crop_5_4" viewBox="0 0 24 24"><path d="M0 0h24v24H0V0z" fill="none"/><path d="M21 5H3v14h18V5zm-2 12H5V7h14v10z"/></symbol>
<symbol id="crop_7_5" viewBox="0 0 24 24"><path d="M0 0h24v24H0V0z" fill="none"/><path d="M21 7H3v10h18V7zm-2 8H5V9h14v6z"/></symbol>
<symbol id="crop_din" viewBox="0 0 24 24"><path d="M0 0h24v24H0z" fill="none"/><path d="M21 3H3v18h18V3zm-2 16H5V5h14v14z"/></symbol>
<symbol id="crop_free" viewBox="0 0 24 24"><path d="M0 0h24v24H0V0z" fill="none"/><path d="M3 3v6h2V5h4V3H3zm2 12H3v6h6v-2H5v-4zm14 4h-4v2h6v-6h-2v4zm2-16h-6v2h4v4h2V3z"/></symbol>
<symbol id="crop_landscape" viewBox="0 0 24 24"><path d="M0 0h24v24H0V0z" fill="none"/><path d="M21 5H3v14h18V5zm-2 12H5V7h14v10z"/></symbol>
<symbol id="crop_original" viewBox="0 0 24 24"><path d="M0 0h24v24H0V0z" fill="none"/><path d="M21 3H3v18h18V3zm-2 16H5V5h14v14zm-5.04-6.71l-2.75 3.54-1.96-2.36L6.5 17h11l-3.54-4.71z"/></symbol>
<symbol id="crop_portrait" viewBox="0 0 24 24"><path d="M0 0h24v24H0V0z" fill="none"/><path d="M19 3H5v18h14V3zm-2 16H7V5h10v14z"/></symbol>
<symbol id="crop_rotate" viewBox="0 0 24 24"><path d="M0 0h24v24H0V0z" fill="none"/><path d="M7.47 21.49C4.2 19.93 1.86 16.76 1.5 13H0c.51 6.16 5.66 11 11.95 11 .23 0 .44-.02.66-.03L8.8 20.15l-1.33 1.34zM12.05 0c-.23 0-.44.02-.66.04l3.81 3.81 1.33-1.33C19.8 4.07 22.14 7.24 22.5 11H24c-.51-6.16-5.66-11-11.95-11zM16 14h2V6h-8v2h6v6zm-8 2V4H6v2H4v2h2v10h10v2h2v-2h2v-2H8z"/></symbol>
<symbol id="crop_square" viewBox="0 0 24 24"><path d="M0 0h24v24H0V0z" fill="none"/><path d="M20 4H4v16h16V4zm-2 14H6V6h12v12z"/></symbol>
<symbol id="dehaze" viewBox="0 0 24 24"><path d="M0 0h24v24H0V0z" fill="none"/><path d="M2 16v2h20v-2H2zm0-5v2h20v-2H2zm0-5v2h20V6H2z"/></symbol>
<symbol id="details" viewBox="0 0 24 24"><rect fill="none" height="24" width="24"/><path d="M12,3L2,21h20L12,3z M13,8.92L18.6,19H13V8.92z M11,8.92V19H5.4L11,8.92z"/></symbol>
<symbol id="edit" viewBox="0 0 24 24"><path d="M0 0h24v24H0V0z" fill="none"/><path d="M3 17.25V21h3.75L17.81 9.94l-3.75-3.75L3 17.25zM21.41 6.34l-3.75-3.75-2.53 2.54 3.75 3.75 2.53-2.54z"/></symbol>
<symbol id="euro" viewBox="0 0 24 24"><g><rect fill="none" height="24" width="24"/></g><g><g/><path d="M15,18.5c-2.51,0-4.68-1.42-5.76-3.5H15l1-2H8.58c-0.05-0.33-0.08-0.66-0.08-1s0.03-0.67,0.08-1H15l1-2H9.24 C10.32,6.92,12.5,5.5,15,5.5c1.61,0,3.09,0.59,4.23,1.57L21,5.3C19.41,3.87,17.3,3,15,3c-3.92,0-7.24,2.51-8.48,6H3l-1,2h4.06 C6.02,11.33,6,11.66,6,12s0.02,0.67,0.06,1H3l-1,2h4.52c1.24,3.49,4.56,6,8.48,6c2.31,0,4.41-0.87,6-2.3l-1.78-1.77 C18.09,17.91,16.62,18.5,15,18.5z"/></g></symbol>
<symbol id="exposure" viewBox="0 0 24 24"><path d="M0 0h24v24H0z" fill="none"/><path d="M21 3H3v18h18V3zM6 7h5v1.5H6V7zm13 12H5L19 5v14zm-4.5-3v2H16v-2h2v-1.5h-2v-2h-1.5v2h-2V16h2z"/></symbol>
<symbol id="exposure_neg_1" viewBox="0 0 24 24"><path d="M0 0h24v24H0V0z" fill="none"/><path d="M4 11v2h8v-2H4zm15 7h-2V7.38L14 8.4V6.7L18.7 5h.3v13z"/></symbol>
<symbol id="exposure_neg_2" viewBox="0 0 24 24"><path d="M0 0h24v24H0V0z" fill="none"/><path d="M15.05 16.29l2.86-3.07c.38-.39.72-.79 1.04-1.18.32-.39.59-.78.82-1.17s.41-.78.54-1.17.19-.79.19-1.18c0-.53-.09-1.02-.27-1.46s-.44-.81-.78-1.11c-.34-.31-.77-.54-1.26-.71-.51-.16-1.08-.24-1.72-.24-.69 0-1.31.11-1.85.32-.54.21-1 .51-1.36.88-.37.37-.65.8-.84 1.3-.18.47-.27.97-.28 1.5h2.14c.01-.31.05-.6.13-.87.09-.29.23-.54.4-.75.18-.21.41-.37.68-.49s.6-.18.96-.18c.31 0 .58.05.81.15s.43.25.59.43.28.4.37.65c.08.25.13.52.13.81 0 .22-.03.43-.08.65-.06.22-.15.45-.29.7-.14.25-.32.53-.56.83-.23.3-.52.65-.88 1.03l-4.17 4.55V18H21v-1.71h-5.95zM2 11v2h8v-2H2z"/></symbol>
<symbol id="exposure_plus_1" viewBox="0 0 24 24"><path d="M0 0h24v24H0V0z" fill="none"/><path d="M10 7H8v4H4v2h4v4h2v-4h4v-2h-4V7zm10 11h-2V7.38L15 8.4V6.7L19.7 5h.3v13z"/></symbol>
<symbol id="exposure_plus_2" viewBox="0 0 24 24"><path d="M0 0h24v24H0V0z" fill="none"/><path d="M16.05 16.29l2.86-3.07c.38-.39.72-.79 1.04-1.18.32-.39.59-.78.82-1.17s.41-.78.54-1.17c.13-.39.19-.79.19-1.18 0-.53-.09-1.02-.27-1.46s-.44-.81-.78-1.11c-.34-.31-.77-.54-1.26-.71-.51-.16-1.08-.24-1.72-.24-.69 0-1.31.11-1.85.32-.54.21-1 .51-1.36.88-.37.37-.65.8-.84 1.3-.18.47-.27.97-.28 1.5h2.14c.01-.31.05-.6.13-.87.09-.29.23-.54.4-.75.18-.21.41-.37.68-.49s.6-.18.96-.18c.31 0 .58.05.81.15s.43.25.59.43.28.4.37.65c.08.25.13.52.13.81 0 .22-.03.43-.08.65-.06.22-.15.45-.29.7-.14.25-.32.53-.56.83-.23.3-.52.65-.88 1.03l-4.17 4.55V18H22v-1.71h-5.95zM8 7H6v4H2v2h4v4h2v-4h4v-2H8V7z"/></symbol>
<symbol id="exposure_zero" viewBox="0 0 24 24"><path d="M0 0h24v24H0V0z" fill="none"/><path d="M16.14 12.5c0 1-.1 1.85-.3 2.55s-.48 1.27-.83 1.7c-.36.44-.79.75-1.3.95s-1.07.3-1.7.3c-.62 0-1.18-.1-1.69-.3-.51-.2-.95-.51-1.31-.95s-.65-1.01-.85-1.7c-.2-.7-.3-1.55-.3-2.55v-2.04c0-1 .1-1.85.3-2.55.2-.7.48-1.26.84-1.69.36-.43.8-.74 1.31-.93C10.81 5.1 11.38 5 12 5c.63 0 1.19.1 1.7.29.51.19.95.5 1.31.93.36.43.64.99.84 1.69.2.7.3 1.54.3 2.55v2.04h-.01zm-2.11-2.36c0-.64-.05-1.18-.13-1.62-.09-.44-.22-.79-.4-1.06-.17-.27-.39-.46-.64-.58-.25-.13-.54-.19-.86-.19s-.61.06-.86.18-.47.31-.64.58-.31.62-.4 1.06-.13.98-.13 1.62v2.67c0 .64.05 1.18.14 1.62.09.45.23.81.4 1.09s.39.48.64.61.54.19.87.19.62-.06.87-.19.46-.33.63-.61.3-.64.39-1.09.13-.99.13-1.62v-2.66h-.01z"/></symbol>
<symbol id="filter" viewBox="0 0 24 24"><path d="M0 0h24v24H0V0z" fill="none"/><path d="M15.96 10.29l-2.75 3.54-1.96-2.36L8.5 15h11l-3.54-4.71zM3 5H1v18h18v-2H3V5zm20-4H5v18h18V1zm-2 16H7V3h14v14z"/></symbol>
<symbol id="filter_1" viewBox="0 0 24 24"><path d="M0 0h24v24H0V0z" fill="none"/><path d="M3 5H1v18h18v-2H3V5zm11 10h2V5h-4v2h2v8zm9-14H5v18h18V1zm-2 16H7V3h14v14z"/></symbol>
<symbol id="filter_2" viewBox="0 0 24 24"><path d="M0 0h24v24H0V0z" fill="none"/><path d="M3 5H1v18h18v-2H3V5zm20-4H5v18h18V1zm-2 16H7V3h14v14zm-4-4h-4v-2h4V5h-6v2h4v2h-4v6h6v-2z"/></symbol>
<symbol id="filter_3" viewBox="0 0 24 24"><path d="M0 0h24v24H0V0z" fill="none"/><path d="M23 1H5v18h18V1zm-2 16H7V3h14v14zM3 5H1v18h18v-2H3V5zm14 10V5h-6v2h4v2h-2v2h2v2h-4v2h6z"/></symbol>
<symbol id="filter_4" viewBox="0 0 24 24"><path d="M0 0h24v24H0V0z" fill="none"/><path d="M3 5H1v18h18v-2H3V5zm12 10h2V5h-2v4h-2V5h-2v6h4v4zm8-14H5v18h18V1zm-2 16H7V3h14v14z"/></symbol>
<symbol id="filter_5" viewBox="0 0 24 24"><path d="M0 0h24v24H0z" fill="none"/><path d="M23 1H5v18h18V1zm-2 16H7V3h14v14zM3 5H1v18h18v-2H3V5zm14 10V9h-4V7h4V5h-6v6h4v2h-4v2h6z"/></symbol>
<symbol id="filter_6" viewBox="0 0 24 24"><path d="M0 0h24v24H0V0z" fill="none"/><path d="M3 5H1v18h18v-2H3V5zm20-4H5v18h18V1zm-2 16H7V3h14v14zm-10-2h6V9h-4V7h4V5h-6v10zm2-4h2v2h-2v-2z"/></symbol>
<symbol id="filter_7" viewBox="0 0 24 24"><path d="M0 0h24v24H0V0z" fill="none"/><path d="M3 5H1v18h18v-2H3V5zm20-4H5v18h18V1zm-2 16H7V3h14v14zm-8-2l4-8V5h-6v2h4l-4 8h2z"/></symbol>
<symbol id="filter_8" viewBox="0 0 24 24"><path d="M0 0h24v24H0V0z" fill="none"/><path d="M3 5H1v18h18v-2H3V5zm20-4H5v18h18V1zm-2 16H7V3h14v14zm-8-2h2c1.1 0 2-.89 2-2v-1.5c0-.83-.67-1.5-1.5-1.5.83 0 1.5-.67 1.5-1.5V7c0-1.11-.9-2-2-2h-2c-1.1 0-2 .89-2 2v1.5c0 .83.67 1.5 1.5 1.5-.83 0-1.5.67-1.5 1.5V13c0 1.11.9 2 2 2zm0-8h2v2h-2V7zm0 4h2v2h-2v-2z"/></symbol>
<symbol id="filter_9" viewBox="0 0 24 24"><path d="M0 0h24v24H0V0z" fill="none"/><path d="M3 5H1v18h18v-2H3V5zm20-4H5v18h18V1zm-2 16H7V3h14v14zM17 5h-6v6h4v2h-4v2h6V5zm-2 4h-2V7h2v2z"/></symbol>
<symbol id="filter_9_plus" viewBox="0 0 24 24"><path d="M0 0h24v24H0V0z" fill="none"/><path d="M3 5H1v18h18v-2H3V5zm11 9V6H9v5h3v1H9v2h5zm-3-5V8h1v1h-1zm12-8H5v18h18V1zm-2 8h-2V7h-2v2h-2v2h2v2h2v-2h2v6H7V3h14v6z"/></symbol>
<symbol id="filter_b_and_w" viewBox="0 0 24 24"><path d="M0 0h24v24H0V0z" fill="none"/><path d="M21 3H3v18h18V3zm-2 16l-7-8v8H5l7-8V5h7v14z"/></symbol>
<symbol id="filter_center_focus" viewBox="0 0 24 24"><path d="M0 0h24v24H0V0z" fill="none"/><path d="M5 15H3v6h6v-2H5v-4zM5 5h4V3H3v6h2V5zm16-2h-6v2h4v4h2V3zm-2 16h-4v2h6v-6h-2v4zM12 9c-1.66 0-3 1.34-3 3s1.34 3 3 3 3-1.34 3-3-1.34-3-3-3z"/></symbol>
<symbol id="filter_drama" viewBox="0 0 24 24"><path d="M0 0h24v24H0V0z" fill="none"/><path d="M19.35 10.04C18.67 6.59 15.64 4 12 4 9.11 4 6.61 5.64 5.36 8.04 2.35 8.36 0 10.9 0 14c0 3.31 2.69 6 6 6h13c2.76 0 5-2.24 5-5 0-2.64-2.05-4.78-4.65-4.96zM19 18H6c-2.21 0-4-1.79-4-4s1.79-4 4-4 4 1.79 4 4h2c0-2.76-1.86-5.08-4.4-5.78C8.61 6.88 10.2 6 12 6c3.03 0 5.5 2.47 5.5 5.5v.5H19c1.65 0 3 1.35 3 3s-1.35 3-3 3z"/></symbol>
<symbol id="filter_frames" viewBox="0 0 24 24"><path d="M0 0h24v24H0z" fill="none"/><path d="M22 4h-6l-4-4-4 4H2v18h20V4zm-2 16H4V6h4.52l3.52-3.5L15.52 6H20v14zM18 8H6v10h12"/></symbol>
<symbol id="filter_hdr" viewBox="0 0 24 24"><path d="M0 0h24v24H0V0z" fill="none"/><path d="M14 6l-3.75 5 2.85 3.8-1.6 1.2C9.81 13.75 7 10 7 10l-6 8h22L14 6z"/></symbol>
<symbol id="filter_none" viewBox="0 0 24 24"><path d="M0 0h24v24H0V0z" fill="none"/><path d="M3 5H1v18h18v-2H3V5zm20-4H5v18h18V1zm-2 16H7V3h14v14z"/></symbol>
<symbol id="filter_tilt_shift" viewBox="0 0 24 24"><path d="M0 0h24v24H0V0z" fill="none"/><path d="M11 4.07V2.05c-2.01.2-3.84 1-5.32 2.21L7.1 5.69c1.11-.86 2.44-1.44 3.9-1.62zm7.32.19C16.84 3.05 15.01 2.25 13 2.05v2.02c1.46.18 2.79.76 3.9 1.62l1.42-1.43zM19.93 11h2.02c-.2-2.01-1-3.84-2.21-5.32L18.31 7.1c.86 1.11 1.44 2.44 1.62 3.9zM5.69 7.1L4.26 5.68C3.05 7.16 2.25 8.99 2.05 11h2.02c.18-1.46.76-2.79 1.62-3.9zM4.07 13H2.05c.2 2.01 1 3.84 2.21 5.32l1.43-1.43c-.86-1.1-1.44-2.43-1.62-3.89zM15 12c0-1.66-1.34-3-3-3s-3 1.34-3 3 1.34 3 3 3 3-1.34 3-3zm3.31 4.9l1.43 1.43c1.21-1.48 2.01-3.32 2.21-5.32h-2.02c-.18 1.45-.76 2.78-1.62 3.89zM13 19.93v2.02c2.01-.2 3.84-1 5.32-2.21l-1.43-1.43c-1.1.86-2.43 1.44-3.89 1.62zm-7.32-.19C7.16 20.95 9 21.75 11 21.95v-2.02c-1.46-.18-2.79-.76-3.9-1.62l-1.42 1.43z"/></symbol>
<symbol id="filter_vintage" viewBox="0 0 24 24"><path d="M0 0h24v24H0V0z" fill="none"/><path d="M18.7 12.4c-.28-.16-.57-.29-.86-.4.29-.11.58-.24.86-.4 1.92-1.11 2.99-3.12 3-5.19-1.79-1.03-4.07-1.11-6 0-.28.16-.54.35-.78.54.05-.31.08-.63.08-.95 0-2.22-1.21-4.15-3-5.19C10.21 1.85 9 3.78 9 6c0 .32.03.64.08.95-.24-.2-.5-.39-.78-.55-1.92-1.11-4.2-1.03-6 0 0 2.07 1.07 4.08 3 5.19.28.16.57.29.86.4-.29.11-.58.24-.86.4-1.92 1.11-2.99 3.12-3 5.19 1.79 1.03 4.07 1.11 6 0 .28-.16.54-.35.78-.54-.05.32-.08.64-.08.96 0 2.22 1.21 4.15 3 5.19 1.79-1.04 3-2.97 3-5.19 0-.32-.03-.64-.08-.95.24.2.5.38.78.54 1.92 1.11 4.2 1.03 6 0-.01-2.07-1.08-4.08-3-5.19zM12 16c-2.21 0-4-1.79-4-4s1.79-4 4-4 4 1.79 4 4-1.79 4-4 4z"/></symbol>
<symbol id="flare" viewBox="0 0 24 24"><path d="M0 0h24v24H0V0z" fill="none"/><path d="M7 11H1v2h6v-2zm2.17-3.24L7.05 5.64 5.64 7.05l2.12 2.12 1.41-1.41zM13 1h-2v6h2V1zm5.36 6.05l-1.41-1.41-2.12 2.12 1.41 1.41 2.12-2.12zM17 11v2h6v-2h-6zm-5-2c-1.66 0-3 1.34-3 3s1.34 3 3 3 3-1.34 3-3-1.34-3-3-3zm2.83 7.24l2.12 2.12 1.41-1.41-2.12-2.12-1.41 1.41zm-9.19.71l1.41 1.41 2.12-2.12-1.41-1.41-2.12 2.12zM11 23h2v-6h-2v6z"/></symbol>
<symbol id="flash_auto" viewBox="0 0 24 24"><path d="M0 0h24v24H0V0z" fill="none"/><path d="M3 2v12h3v9l7-12H9l4-9H3zm16 0h-2l-3.2 9h1.9l.7-2h3.2l.7 2h1.9L19 2zm-2.15 5.65L18 4l1.15 3.65h-2.3z"/></symbol>
<symbol id="flash_off" viewBox="0 0 24 24"><path d="M0 0h24v24H0V0z" fill="none"/><path d="M17 10h-3.61l2.28 2.28zm0-8H7v1.61l6.13 6.13zm-13.59.86L2 4.27l5 5V13h3v9l3.58-6.15L17.73 20l1.41-1.41z"/></symbol>
<symbol id="flash_on" viewBox="0 0 24 24"><path d="M0 0h24v24H0V0z" fill="none"/><path d="M7 2v11h3v9l7-12h-4l3-8z"/></symbol>
<symbol id="flip" viewBox="0 0 24 24"><path d="M0 0h24v24H0V0z" fill="none"/><path d="M15 21h2v-2h-2v2zm4-12h2V7h-2v2zM3 3v18h6v-2H5V5h4V3H3zm16 0v2h2V3h-2zm-8 20h2V1h-2v22zm8-6h2v-2h-2v2zM15 5h2V3h-2v2zm4 8h2v-2h-2v2zm0 8h2v-2h-2v2z"/></symbol>
<symbol id="flip_camera_android" viewBox="0 0 24 24"><g><rect fill="none" height="24" width="24"/></g><g><g><path d="M9,12c0,1.66,1.34,3,3,3s3-1.34,3-3s-1.34-3-3-3S9,10.34,9,12z"/><path d="M8,10V8H5.09C6.47,5.61,9.05,4,12,4c3.72,0,6.85,2.56,7.74,6h2.06c-0.93-4.56-4.96-8-9.8-8C8.73,2,5.82,3.58,4,6.01V4H2v6 H8z"/><path d="M16,14v2h2.91c-1.38,2.39-3.96,4-6.91,4c-3.72,0-6.85-2.56-7.74-6H2.2c0.93,4.56,4.96,8,9.8,8c3.27,0,6.18-1.58,8-4.01V20 h2v-6H16z"/></g></g></symbol>
<symbol id="flip_camera_ios" viewBox="0 0 24 24"><g><rect fill="none" height="24" width="24"/></g><g><g><path d="M16.83,5L15,3H9L7.17,5H2v16h20V5H16.83z M12,18c-2.76,0-5-2.24-5-5H5l2.5-2.5L10,13H8c0,2.21,1.79,4,4,4 c0.58,0,1.13-0.13,1.62-0.35l0.74,0.74C13.65,17.76,12.86,18,12,18z M16.5,15.5L14,13h2c0-2.21-1.79-4-4-4 c-0.58,0-1.13,0.13-1.62,0.35L9.64,8.62C10.35,8.24,11.14,8,12,8c2.76,0,5,2.24,5,5h2L16.5,15.5z"/></g></g></symbol>
<symbol id="gradient" viewBox="0 0 24 24"><path d="M0 0h24v24H0z" fill="none"/><path d="M11 9h2v2h-2V9zm-2 2h2v2H9v-2zm4 0h2v2h-2v-2zm2-2h2v2h-2V9zM7 9h2v2H7V9zm14-6H3v18h18V3zM9 18H7v-2h2v2zm4 0h-2v-2h2v2zm4 0h-2v-2h2v2zm2-7h-2v2h2v2h-2v-2h-2v2h-2v-2h-2v2H9v-2H7v2H5v-2h2v-2H5V5h14v6z"/></symbol>
<symbol id="grain" viewBox="0 0 24 24"><path d="M0 0h24v24H0V0z" fill="none"/><path d="M10 12c-1.1 0-2 .9-2 2s.9 2 2 2 2-.9 2-2-.9-2-2-2zM6 8c-1.1 0-2 .9-2 2s.9 2 2 2 2-.9 2-2-.9-2-2-2zm0 8c-1.1 0-2 .9-2 2s.9 2 2 2 2-.9 2-2-.9-2-2-2zm12-8c1.1 0 2-.9 2-2s-.9-2-2-2-2 .9-2 2 .9 2 2 2zm-4 8c-1.1 0-2 .9-2 2s.9 2 2 2 2-.9 2-2-.9-2-2-2zm4-4c-1.1 0-2 .9-2 2s.9 2 2 2 2-.9 2-2-.9-2-2-2zm-4-4c-1.1 0-2 .9-2 2s.9 2 2 2 2-.9 2-2-.9-2-2-2zm-4-4c-1.1 0-2 .9-2 2s.9 2 2 2 2-.9 2-2-.9-2-2-2z"/></symbol>
<symbol id="grid_off" viewBox="0 0 24 24"><path d="M0 0h24v24H0V0z" fill="none"/><path d="M8 4v.89l2 2V4h4v4h-2.89l2 2H14v.89l2 2V10h4v4h-2.89l2 2H20v.89l2 2V2H5.11l2 2H8zm8 0h4v4h-4V4zM1.41 1.14L0 2.55l2 2V22h17.45l2.01 2.01 1.41-1.41L1.41 1.14zM10 12.55L11.45 14H10v-1.45zm-6-6L5.45 8H4V6.55zM8 20H4v-4h4v4zm0-6H4v-4h3.45l.55.55V14zm6 6h-4v-4h3.45l.55.55V20zm2 0v-1.45L17.45 20H16z"/></symbol>
<symbol id="grid_on" viewBox="0 0 24 24"><path d="M0 0h24v24H0V0z" fill="none"/><path d="M22 2H2v20h20V2zM8 20H4v-4h4v4zm0-6H4v-4h4v4zm0-6H4V4h4v4zm6 12h-4v-4h4v4zm0-6h-4v-4h4v4zm0-6h-4V4h4v4zm6 12h-4v-4h4v4zm0-6h-4v-4h4v4zm0-6h-4V4h4v4z"/></symbol>
<symbol id="hdr_off" viewBox="0 0 24 24"><path d="M0 0h24v24H0V0z" fill="none"/><path d="M17.5 15v-2h1.1l.9 2H21l-.9-2.1h.9V9h-5v4.86L17.14 15h.36zm0-4.5h2v1h-2v-1zm-4.5 0v.36l1.5 1.5V10.5c0-.8-.7-1.5-1.5-1.5h-1.86l1.5 1.5H13zM2.51 2.49L1.45 3.55 6.9 9h-.4v2h-2V9H3v6h1.5v-2.5h2V15H8v-4.9l1.5 1.5V15h3.4l7.6 7.6 1.06-1.06z"/></symbol>
<symbol id="hdr_on" viewBox="0 0 24 24"><path d="M0 0h24v24H0V0z" fill="none"/><path d="M21 12.9V9h-5v6h1.5v-2h1.1l.9 2H21l-.9-2.1h.9zm-1.5-1.4h-2v-1h2v1zm-13-.5h-2V9H3v6h1.5v-2.5h2V15H8V9H6.5v2zM13 9H9.5v6H13c.8 0 1.5-.7 1.5-1.5v-3c0-.8-.7-1.5-1.5-1.5zm0 4.5h-2v-3h2v3z"/></symbol>
<symbol id="hdr_strong" viewBox="0 0 24 24"><path d="M0 0h24v24H0V0z" fill="none"/><path d="M17 6c-3.31 0-6 2.69-6 6s2.69 6 6 6 6-2.69 6-6-2.69-6-6-6zM5 8c-2.21 0-4 1.79-4 4s1.79 4 4 4 4-1.79 4-4-1.79-4-4-4zm0 6c-1.1 0-2-.9-2-2s.9-2 2-2 2 .9 2 2-.9 2-2 2z"/></symbol>
<symbol id="hdr_weak" viewBox="0 0 24 24"><path d="M0 0h24v24H0V0z" fill="none"/><path d="M5 8c-2.21 0-4 1.79-4 4s1.79 4 4 4 4-1.79 4-4-1.79-4-4-4zm12-2c-3.31 0-6 2.69-6 6s2.69 6 6 6 6-2.69 6-6-2.69-6-6-6zm0 10c-2.21 0-4-1.79-4-4s1.79-4 4-4 4 1.79 4 4-1.79 4-4 4z"/></symbol>
<symbol id="healing" viewBox="0 0 24 24"><path d="M0 0h24v24H0V0z" fill="none"/><path d="M17.74 12.01l4.68-4.68-5.75-5.75-4.68 4.68L7.3 1.58 1.55 7.34l4.68 4.69-4.68 4.68 5.75 5.75 4.68-4.68 4.69 4.69 5.76-5.76-4.69-4.7zM12 9c.55 0 1 .45 1 1s-.45 1-1 1-1-.45-1-1 .45-1 1-1zm-4.71 1.96L3.66 7.34l3.63-3.63 3.62 3.62-3.62 3.63zM10 13c-.55 0-1-.45-1-1s.45-1 1-1 1 .45 1 1-.45 1-1 1zm2 2c-.55 0-1-.45-1-1s.45-1 1-1 1 .45 1 1-.45 1-1 1zm2-4c.55 0 1 .45 1 1s-.45 1-1 1-1-.45-1-1 .45-1 1-1zm2.66 9.34l-3.63-3.62 3.63-3.63 3.62 3.62-3.62 3.63z"/></symbol>
<symbol id="image" viewBox="0 0 24 24"><path d="M0 0h24v24H0V0z" fill="none"/><path d="M21 21V3H3v18h18zM8.5 13.5l2.5 3.01L14.5 12l4.5 6H5l3.5-4.5z"/></symbol>
<symbol id="image_aspect_ratio" viewBox="0 0 24 24"><path d="M0 0h24v24H0z" fill="none"/><path d="M16 10h-2v2h2v-2zm0 4h-2v2h2v-2zm-8-4H6v2h2v-2zm4 0h-2v2h2v-2zm10-6H2v16h20V4zm-2 14H4V6h16v12z"/></symbol>
<symbol id="image_not_supported" viewBox="0 0 24 24"><g><rect fill="none" height="24" width="24"/><path d="M21.9,21.9l-8.49-8.49l0,0L3,3l0,0L2.1,2.1L0.69,3.51L3,5.83V21h15.17l2.31,2.31L21.9,21.9z M5,18l3.5-4.5l2.5,3.01 L12.17,15l3,3H5z M21,18.17L5.83,3H21V18.17z"/></g></symbol>
<symbol id="image_search" viewBox="0 0 24 24"><path d="M0 0h24v24H0V0z" fill="none"/><path d="M18 13v7H4V6h5.02c.05-.71.22-1.38.48-2H2v18h18v-7l-2-2zm-1.5 5h-11l2.75-3.53 1.96 2.36 2.75-3.54L16.5 18zm2.8-9.11c.44-.7.7-1.51.7-2.39C20 4.01 17.99 2 15.5 2S11 4.01 11 6.5s2.01 4.5 4.49 4.5c.88 0 1.7-.26 2.39-.7L21 13.42 22.42 12 19.3 8.89zM15.5 9C14.12 9 13 7.88 13 6.5S14.12 4 15.5 4 18 5.12 18 6.5 16.88 9 15.5 9z"/></symbol>
<symbol id="iso" viewBox="0 0 24 24"><path d="M0 0h24v24H0V0z" fill="none"/><path d="M21 3H3v18h18V3zM5.5 7.5h2v-2H9v2h2V9H9v2H7.5V9h-2V7.5zM19 19H5L19 5v14zm-2-2v-1.5h-5V17h5z"/></symbol>
<symbol id="landscape" viewBox="0 0 24 24"><path d="M0 0h24v24H0V0z" fill="none"/><path d="M14 6l-3.75 5 2.85 3.8-1.6 1.2C9.81 13.75 7 10 7 10l-6 8h22L14 6z"/></symbol>
<symbol id="leak_add" viewBox="0 0 24 24"><path d="M0 0h24v24H0V0z" fill="none"/><path d="M6 3H3v3c1.66 0 3-1.34 3-3zm8 0h-2c0 4.97-4.03 9-9 9v2c6.08 0 11-4.93 11-11zm-4 0H8c0 2.76-2.24 5-5 5v2c3.87 0 7-3.13 7-7zm0 18h2c0-4.97 4.03-9 9-9v-2c-6.07 0-11 4.93-11 11zm8 0h3v-3c-1.66 0-3 1.34-3 3zm-4 0h2c0-2.76 2.24-5 5-5v-2c-3.87 0-7 3.13-7 7z"/></symbol>
<symbol id="leak_remove" viewBox="0 0 24 24"><path d="M0 0h24v24H0V0z" fill="none"/><path d="M14 3h-2c0 1.35-.31 2.63-.84 3.77l1.49 1.49C13.51 6.7 14 4.91 14 3zm7 9v-2c-1.91 0-3.7.49-5.27 1.35l1.49 1.49c1.15-.53 2.43-.84 3.78-.84zm0 4v-2c-.79 0-1.54.13-2.24.37l1.68 1.68c.19-.01.37-.05.56-.05zM10 3H8c0 .19-.04.37-.06.56l1.68 1.68c.25-.7.38-1.46.38-2.24zm-5.59-.14L3 4.27l2.84 2.84C5.03 7.67 4.06 8 3 8v2c1.61 0 3.09-.55 4.27-1.46L8.7 9.97C7.14 11.24 5.16 12 3 12v2c2.72 0 5.2-.99 7.11-2.62l2.51 2.51C10.99 15.81 10 18.29 10 21h2c0-2.16.76-4.14 2.03-5.7l1.43 1.43C14.55 17.91 14 19.39 14 21h2c0-1.06.33-2.03.89-2.84L19.73 21l1.41-1.41L4.41 2.86z"/></symbol>
<symbol id="lens" viewBox="0 0 24 24"><path d="M0 0h24v24H0V0z" fill="none"/><path d="M12 2C6.48 2 2 6.48 2 12s4.48 10 10 10 10-4.48 10-10S17.52 2 12 2z"/></symbol>
<symbol id="linked_camera" viewBox="0 0 24 24"><path d="M0 0h24v24H0V0z" fill="none"/><circle cx="12" cy="14" r="3"/><path d="M18 8h1.33c0-1.84-1.49-3.33-3.33-3.33V6c1.11 0 2 .89 2 2zm2.67 0H22c0-3.31-2.69-6-6-6v1.33c2.58 0 4.67 2.09 4.67 4.67zM15 7V4H9L7.17 6H2v16h20V9h-5c0-1.1-.9-2-2-2zm-3 12c-2.76 0-5-2.24-5-5s2.24-5 5-5 5 2.24 5 5-2.24 5-5 5z"/></symbol>
<symbol id="looks" viewBox="0 0 24 24"><path d="M0 0h24v24H0V0z" fill="none"/><path d="M12 10c-3.86 0-7 3.14-7 7h2c0-2.76 2.24-5 5-5s5 2.24 5 5h2c0-3.86-3.14-7-7-7zm0-4C5.93 6 1 10.93 1 17h2c0-4.96 4.04-9 9-9s9 4.04 9 9h2c0-6.07-4.93-11-11-11z"/></symbol>
<symbol id="looks_3" viewBox="0 0 24 24"><path d="M0 0h24v24H0V0z" fill="none"/><path d="M21 3H3.01v18H21V3zm-5.99 14H9v-2h4v-2h-2v-2h2V9H9V7h6.01v10z"/></symbol>
<symbol id="looks_4" viewBox="0 0 24 24"><path d="M.04 0h24v24h-24V0z" fill="none"/><path d="M21.04 3h-18v18h18V3zm-6 14h-2v-4h-4V7h2v4h2V7h2v10z"/></symbol>
<symbol id="looks_5" viewBox="0 0 24 24"><path d="M0 0h24v24H0V0z" fill="none"/><path d="M21 3H3v18h18V3zm-6 6h-4v2h4v6H9v-2h4v-2H9V7h6v2z"/></symbol>
<symbol id="looks_6" viewBox="0 0 24 24"><path d="M0 0h24v24H0V0z" fill="none"/><path d="M11 15h2v-2h-2v2zM21 3H3v18h18V3zm-6 6h-4v2h4v6H9V7h6v2z"/></symbol>
<symbol id="looks_one" viewBox="0 0 24 24"><path d="M0 0h24v24H0V0z" fill="none"/><path d="M21 3H3v18h18V3zm-7 14h-2V9h-2V7h4v10z"/></symbol>
<symbol id="looks_two" viewBox="0 0 24 24"><path d="M0 0h24v24H0V0z" fill="none"/><path d="M21 3H3v18h18V3zm-6 10h-4v2h4v2H9v-6h4V9H9V7h6v6z"/></symbol>
<symbol id="loupe" viewBox="0 0 24 24"><path d="M0 0h24v24H0V0z" fill="none"/><path d="M13 7h-2v4H7v2h4v4h2v-4h4v-2h-4V7zm-.27-4.97c-6.08-.44-11.14 4.62-10.7 10.7.38 5.28 5 9.27 10.29 9.27H22v-9.68c0-5.3-3.98-9.91-9.27-10.29zM12 20c-4.41 0-8-3.59-8-8s3.59-8 8-8 8 3.59 8 8-3.59 8-8 8z"/></symbol>
<symbol id="monochrome_photos" viewBox="0 0 24 24"><path d="M0 0h24v24H0V0z" fill="none"/><path d="M22 5h-5.2L15 3H9L7.2 5H2v16h20V5zm-2 14h-8v-1c-2.8 0-5-2.2-5-5s2.2-5 5-5V7h8v12zm-3-6c0-2.8-2.2-5-5-5v1.8c1.8 0 3.2 1.4 3.2 3.2s-1.4 3.2-3.2 3.2V18c2.8 0 5-2.2 5-5zm-8.2 0c0 1.8 1.4 3.2 3.2 3.2V9.8c-1.8 0-3.2 1.4-3.2 3.2z"/></symbol>
<symbol id="motion_photos_on" viewBox="0 0 24 24"><rect fill="none" height="24" width="24"/><path d="M22,12c0,5.52-4.48,10-10,10S2,17.52,2,12c0-1.19,0.22-2.32,0.6-3.38L4.48,9.3C4.17,10.14,4,11.05,4,12c0,4.41,3.59,8,8,8 s8-3.59,8-8s-3.59-8-8-8c-0.95,0-1.85,0.17-2.69,0.48L8.63,2.59C9.69,2.22,10.82,2,12,2C17.52,2,22,6.48,22,12z M5.5,4 C4.67,4,4,4.67,4,5.5S4.67,7,5.5,7S7,6.33,7,5.5S6.33,4,5.5,4z M18,12c0,3.31-2.69,6-6,6s-6-2.69-6-6s2.69-6,6-6S18,8.69,18,12z M15,12l-5-3v6L15,12z"/></symbol>
<symbol id="motion_photos_pause" viewBox="0 0 24 24"><rect fill="none" height="24" width="24"/><path d="M22,12c0,5.52-4.48,10-10,10S2,17.52,2,12c0-1.19,0.22-2.32,0.6-3.38L4.48,9.3C4.17,10.14,4,11.05,4,12c0,4.41,3.59,8,8,8 s8-3.59,8-8s-3.59-8-8-8c-0.95,0-1.85,0.17-2.69,0.48L8.63,2.59C9.69,2.22,10.82,2,12,2C17.52,2,22,6.48,22,12z M5.5,4 C4.67,4,4,4.67,4,5.5S4.67,7,5.5,7S7,6.33,7,5.5S6.33,4,5.5,4z M18,12c0,3.31-2.69,6-6,6s-6-2.69-6-6s2.69-6,6-6S18,8.69,18,12z M11,9H9v6h2V9z M15,9h-2v6h2V9z"/></symbol>
<symbol id="motion_photos_paused" viewBox="0 0 24 24"><g><rect fill="none" height="24" width="24"/><path d="M22,12c0,5.52-4.48,10-10,10S2,17.52,2,12c0-1.19,0.22-2.32,0.6-3.38L4.48,9.3C4.17,10.14,4,11.05,4,12c0,4.41,3.59,8,8,8 s8-3.59,8-8s-3.59-8-8-8c-0.95,0-1.85,0.17-2.69,0.48L8.63,2.59C9.69,2.22,10.82,2,12,2C17.52,2,22,6.48,22,12z M5.5,4 C4.67,4,4,4.67,4,5.5S4.67,7,5.5,7S7,6.33,7,5.5S6.33,4,5.5,4z M11,16V8H9v8H11z M15,16V8h-2v8H15z"/></g></symbol>
<symbol id="movie_creation" viewBox="0 0 24 24"><path d="M0 0h24v24H0V0z" fill="none"/><path d="M18 4l2 4h-3l-2-4h-2l2 4h-3l-2-4H8l2 4H7L5 4H4c-1.1 0-1.99.9-1.99 2L2 18c0 1.1.9 2 2 2h16c1.1 0 2-.9 2-2V4h-4z"/></symbol>
<symbol id="movie_filter" viewBox="0 0 24 24"><path d="M0 0h24v24H0V0z" fill="none"/><path d="M18 4l2 3h-3l-2-3h-2l2 3h-3l-2-3H8l2 3H7L5 4H4c-1.1 0-1.99.9-1.99 2L2 18c0 1.1.9 2 2 2h16c1.1 0 2-.9 2-2V4h-4zm-6.75 11.25L10 18l-1.25-2.75L6 14l2.75-1.25L10 10l1.25 2.75L14 14l-2.75 1.25zm5.69-3.31L16 14l-.94-2.06L13 11l2.06-.94L16 8l.94 2.06L19 11l-2.06.94z"/></symbol>
<symbol id="music_note" viewBox="0 0 24 24"><path d="M0 0h24v24H0V0z" fill="none"/><path d="M12 3v10.55c-.59-.34-1.27-.55-2-.55-2.21 0-4 1.79-4 4s1.79 4 4 4 4-1.79 4-4V7h4V3h-6z"/></symbol>
<symbol id="music_off" viewBox="0 0 24 24"><path d="M0 0h24v24H0V0z" fill="none"/><path d="M14 9.61V7h4V3h-6v4.61zM4.41 2.86L3 4.27l9 9v.28c-.94-.54-2.1-.75-3.33-.32-1.34.48-2.37 1.67-2.61 3.07-.46 2.74 1.86 5.08 4.59 4.65 1.96-.31 3.35-2.11 3.35-4.1v-1.58L19.73 21l1.41-1.41L12 10.44 4.41 2.86z"/></symbol>
<symbol id="nature" viewBox="0 0 24 24"><path d="M0 0h24v24H0V0z" fill="none"/><path d="M13 16.12c3.47-.41 6.17-3.36 6.17-6.95 0-3.87-3.13-7-7-7s-7 3.13-7 7c0 3.47 2.52 6.34 5.83 6.89V20H5v2h14v-2h-6v-3.88z"/></symbol>
<symbol id="nature_people" viewBox="0 0 24 24"><path d="M0 0h24v24H0V0z" fill="none"/><path d="M22.17 9.17c0-3.91-3.19-7.06-7.11-7-3.83.06-6.99 3.37-6.88 7.19.09 3.38 2.58 6.16 5.83 6.7V20H6v-3h1v-5H2v5h1v5h16v-2h-3v-3.88c3.47-.41 6.17-3.36 6.17-6.95zM4.5 11c.83 0 1.5-.67 1.5-1.5S5.33 8 4.5 8 3 8.67 3 9.5 3.67 11 4.5 11z"/></symbol>
<symbol id="navigate_before" viewBox="0 0 24 24"><path d="M0 0h24v24H0V0z" fill="none"/><path d="M15.61 7.41L14.2 6l-6 6 6 6 1.41-1.41L11.03 12l4.58-4.59z"/></symbol>
<symbol id="navigate_next" viewBox="0 0 24 24"><path d="M0 0h24v24H0V0z" fill="none"/><path d="M10.02 6L8.61 7.41 13.19 12l-4.58 4.59L10.02 18l6-6-6-6z"/></symbol>
<symbol id="palette" viewBox="0 0 24 24"><path d="M0 0h24v24H0V0z" fill="none"/><path d="M12 3c-4.97 0-9 4.03-9 9s4.03 9 9 9c.83 0 1.5-.67 1.5-1.5 0-.39-.15-.74-.39-1.01-.23-.26-.38-.61-.38-.99 0-.83.67-1.5 1.5-1.5H16c2.76 0 5-2.24 5-5 0-4.42-4.03-8-9-8zm-5.5 9c-.83 0-1.5-.67-1.5-1.5S5.67 9 6.5 9 8 9.67 8 10.5 7.33 12 6.5 12zm3-4C8.67 8 8 7.33 8 6.5S8.67 5 9.5 5s1.5.67 1.5 1.5S10.33 8 9.5 8zm5 0c-.83 0-1.5-.67-1.5-1.5S13.67 5 14.5 5s1.5.67 1.5 1.5S15.33 8 14.5 8zm3 4c-.83 0-1.5-.67-1.5-1.5S16.67 9 17.5 9s1.5.67 1.5 1.5-.67 1.5-1.5 1.5z"/></symbol>
<symbol id="panorama" viewBox="0 0 24 24"><path d="M0 0h24v24H0V0z" fill="none"/><path d="M23 20V4H1v16h22zM8.5 12.5l2.5 3.01L14.5 11l4.5 6H5l3.5-4.5z"/></symbol>
<symbol id="panorama_fish_eye" viewBox="0 0 24 24"><path d="M0 0h24v24H0V0z" fill="none"/><path d="M12 2C6.47 2 2 6.47 2 12s4.47 10 10 10 10-4.47 10-10S17.53 2 12 2zm0 18c-4.41 0-8-3.59-8-8s3.59-8 8-8 8 3.59 8 8-3.59 8-8 8z"/></symbol>
<symbol id="panorama_horizontal" viewBox="0 0 24 24"><path d="M0 0h24v24H0V0z" fill="none"/><path d="M4 6.55c2.6.77 5.28 1.16 8 1.16 2.72 0 5.41-.39 8-1.16v10.91c-2.6-.77-5.28-1.16-8-1.16-2.72 0-5.41.39-8 1.16V6.55M2 3.77v16.47s.77-.26.88-.3C5.82 18.85 8.91 18.3 12 18.3c3.09 0 6.18.55 9.12 1.64.11.04.88.3.88.3V3.77s-.77.26-.88.3C18.18 5.15 15.09 5.71 12 5.71s-6.18-.56-9.12-1.64c-.11-.05-.88-.3-.88-.3z"/></symbol>
<symbol id="panorama_vertical" viewBox="0 0 24 24"><path d="M0 0h24v24H0V0z" fill="none"/><path d="M17.46 4c-.77 2.6-1.16 5.28-1.16 8 0 2.72.39 5.41 1.16 8H6.55c.77-2.6 1.16-5.28 1.16-8 0-2.72-.39-5.41-1.16-8h10.91m2.78-2H3.77s.26.77.3.88C5.16 5.82 5.71 8.91 5.71 12s-.55 6.18-1.64 9.12c-.04.11-.3.88-.3.88h16.47s-.26-.77-.3-.88c-1.09-2.94-1.64-6.03-1.64-9.12s.55-6.18 1.64-9.12c.04-.11.3-.88.3-.88z"/></symbol>
<symbol id="panorama_wide_angle" viewBox="0 0 24 24"><path d="M0 0h24v24H0V0z" fill="none"/><path d="M12 6c2.45 0 4.71.2 7.29.64.47 1.78.71 3.58.71 5.36s-.24 3.58-.71 5.36c-2.58.44-4.84.64-7.29.64s-4.71-.2-7.29-.64C4.24 15.58 4 13.78 4 12s.24-3.58.71-5.36C7.29 6.2 9.55 6 12 6m0-2c-2.73 0-5.22.24-7.95.72l-.93.16-.25.9C2.29 7.85 2 9.93 2 12s.29 4.15.87 6.22l.25.89.93.16c2.73.49 5.22.73 7.95.73s5.22-.24 7.95-.72l.93-.16.25-.89c.58-2.08.87-4.16.87-6.23s-.29-4.15-.87-6.22l-.25-.89-.93-.16C17.22 4.24 14.73 4 12 4z"/></symbol>
<symbol id="photo" viewBox="0 0 24 24"><path d="M0 0h24v24H0V0z" fill="none"/><path d="M21 21V3H3v18h18zM8.5 13.5l2.5 3.01L14.5 12l4.5 6H5l3.5-4.5z"/></symbol>
<symbol id="photo_album" viewBox="0 0 24 24"><path d="M0 0h24v24H0V0z" fill="none"/><path d="M20 2H4v20h16V2zM6 4h5v8l-2.5-1.5L6 12V4zm0 15l3-3.86 2.14 2.58 3-3.86L18 19H6z"/></symbol>
<symbol id="photo_camera" viewBox="0 0 24 24"><path d="M0 0h24v24H0V0z" fill="none"/><circle cx="12" cy="12" r="3"/><path d="M9 2L7.17 4H2v16h20V4h-5.17L15 2H9zm3 15c-2.76 0-5-2.24-5-5s2.24-5 5-5 5 2.24 5 5-2.24 5-5 5z"/></symbol>
<symbol id="photo_filter" viewBox="0 0 24 24"><path d="M0 0h24v24H0V0z" fill="none"/><path d="M19 10v9H4.98V5h9V3H3v18h18V10h-2zm-2 0l.94-2.06L20 7l-2.06-.94L17 4l-.94 2.06L14 7l2.06.94L17 10zm-3.75.75L12 8l-1.25 2.75L8 12l2.75 1.25L12 16l1.25-2.75L16 12l-2.75-1.25z"/></symbol>
<symbol id="photo_library" viewBox="0 0 24 24"><path d="M0 0h24v24H0V0z" fill="none"/><path d="M22 18V2H6v16h16zm-11-6l2.03 2.71L16 11l4 5H8l3-4zM2 6v16h16v-2H4V6H2z"/></symbol>
<symbol id="photo_size_select_actual" viewBox="0 0 24 24"><path d="M0 0h24v24H0V0z" fill="none"/><path d="M23 3H1v18h22V3zM5 17l3.5-4.5 2.5 3.01L14.5 11l4.5 6H5z"/></symbol>
<symbol id="photo_size_select_large" viewBox="0 0 24 24"><path d="M0 0h24v24H0V0z" fill="none"/><path d="M21 15h2v2h-2v-2zm0 4h2v2h-2v-2zm0-8h2v2h-2v-2zm-8-8h2v2h-2V3zm8 4h2v2h-2V7zM1 7h2v2H1V7zm16-4h2v2h-2V3zm0 16h2v2h-2v-2zM3 3H1v2h2V3zm20 0h-2v2h2V3zM9 3h2v2H9V3zM5 3h2v2H5V3zm-4 8v10h14V11H1zm2 8l2.5-3.21 1.79 2.15 2.5-3.22L13 19H3z"/></symbol>
<symbol id="photo_size_select_small" viewBox="0 0 24 24"><path d="M0 0h24v24H0V0z" fill="none"/><path d="M23 15h-2v2h2v-2zm0 4h-2v2h2v-2zm0-8h-2v2h2v-2zm-8-8h-2v2h2V3zm8 4h-2v2h2V7zM1 21h10v-6H1v6zM3 7H1v2h2V7zm12 12h-2v2h2v-2zm4-16h-2v2h2V3zm4 0h-2v2h2V3zm-4 16h-2v2h2v-2zM3 11H1v2h2v-2zm8-8H9v2h2V3zM7 3H5v2h2V3zM3 3H1v2h2V3z"/></symbol>
<symbol id="picture_as_pdf" viewBox="0 0 24 24"><path d="M0 0h24v24H0V0z" fill="none"/><path d="M22 2H6v16h16V2zm-10.5 9H9v2H7.5V7h4v4zm5 .5c0 .83-.67 1.5-1.5 1.5h-2.5V7H15c.83 0 1.5.67 1.5 1.5v3zm4-3H19v1h1.5V11H19v2h-1.5V7h3v1.5zM9 9.5h1v-1H9v1zM4 6H2v16h16v-2H4V6zm10 5.5h1v-3h-1v3z"/></symbol>
<symbol id="portrait" viewBox="0 0 24 24"><path d="M0 0h24v24H0V0z" fill="none"/><path d="M12 12.25c1.24 0 2.25-1.01 2.25-2.25S13.24 7.75 12 7.75 9.75 8.76 9.75 10s1.01 2.25 2.25 2.25zm4.5 4c0-1.5-3-2.25-4.5-2.25s-4.5.75-4.5 2.25V17h9v-.75zM21 3H3v18h18V3zm-2 16H5V5h14v14z"/></symbol>
<symbol id="receipt_long" viewBox="0 0 24 24"><path d="M0,0h24v24H0V0z" fill="none"/><g><path d="M19.5,3.5L18,2l-1.5,1.5L15,2l-1.5,1.5L12,2l-1.5,1.5L9,2L7.5,3.5L6,2v14H3v3c0,1.66,1.34,3,3,3h12c1.66,0,3-1.34,3-3V2 L19.5,3.5z M15,20H6c-0.55,0-1-0.45-1-1v-1h10V20z M19,19c0,0.55-0.45,1-1,1s-1-0.45-1-1v-3H8V5h11V19z"/><rect height="2" width="6" x="9" y="7"/><rect height="2" width="6" x="9" y="10"/><rect height="2" width="2" x="16" y="7"/><rect height="2" width="2" x="16" y="10"/></g></symbol>
<symbol id="remove_red_eye" viewBox="0 0 24 24"><path d="M0 0h24v24H0V0z" fill="none"/><path d="M12 4.5C7 4.5 2.73 7.61 1 12c1.73 4.39 6 7.5 11 7.5s9.27-3.11 11-7.5c-1.73-4.39-6-7.5-11-7.5zM12 17c-2.76 0-5-2.24-5-5s2.24-5 5-5 5 2.24 5 5-2.24 5-5 5zm0-8c-1.66 0-3 1.34-3 3s1.34 3 3 3 3-1.34 3-3-1.34-3-3-3z"/></symbol>
<symbol id="rotate_90_degrees_ccw" viewBox="0 0 24 24"><path d="M0 0h24v24H0V0z" fill="none"/><path d="M7.34 6.41L.86 12.9l6.49 6.48 6.49-6.48-6.5-6.49zM3.69 12.9l3.66-3.66L11 12.9l-3.66 3.66-3.65-3.66zm15.67-6.26C17.61 4.88 15.3 4 13 4V.76L8.76 5 13 9.24V6c1.79 0 3.58.68 4.95 2.05 2.73 2.73 2.73 7.17 0 9.9C16.58 19.32 14.79 20 13 20c-.97 0-1.94-.21-2.84-.61l-1.49 1.49C10.02 21.62 11.51 22 13 22c2.3 0 4.61-.88 6.36-2.64 3.52-3.51 3.52-9.21 0-12.72z"/></symbol>
<symbol id="rotate_left" viewBox="0 0 24 24"><path d="M0 0h24v24H0V0z" fill="none"/><path d="M7.11 8.53L5.7 7.11C4.8 8.27 4.24 9.61 4.07 11h2.02c.14-.87.49-1.72 1.02-2.47zM6.09 13H4.07c.17 1.39.72 2.73 1.62 3.89l1.41-1.42c-.52-.75-.87-1.59-1.01-2.47zm1.01 5.32c1.16.9 2.51 1.44 3.9 1.61V17.9c-.87-.15-1.71-.49-2.46-1.03L7.1 18.32zM13 4.07V1L8.45 5.55 13 10V6.09c2.84.48 5 2.94 5 5.91s-2.16 5.43-5 5.91v2.02c3.95-.49 7-3.85 7-7.93s-3.05-7.44-7-7.93z"/></symbol>
<symbol id="rotate_right" viewBox="0 0 24 24"><path d="M0 0h24v24H0V0z" fill="none"/><path d="M15.55 5.55L11 1v3.07C7.06 4.56 4 7.92 4 12s3.05 7.44 7 7.93v-2.02c-2.84-.48-5-2.94-5-5.91s2.16-5.43 5-5.91V10l4.55-4.45zM19.93 11c-.17-1.39-.72-2.73-1.62-3.89l-1.42 1.42c.54.75.88 1.6 1.02 2.47h2.02zM13 17.9v2.02c1.39-.17 2.74-.71 3.9-1.61l-1.44-1.44c-.75.54-1.59.89-2.46 1.03zm3.89-2.42l1.42 1.41c.9-1.16 1.45-2.5 1.62-3.89h-2.02c-.14.87-.48 1.72-1.02 2.48z"/></symbol>
<symbol id="shutter_speed" viewBox="0 0 24 24"><path d="M0 0h24v24H0V0z" fill="none"/><path d="M15 1H9v2h6V1zm4.03 6.39l1.42-1.42c-.43-.51-.9-.99-1.41-1.41l-1.42 1.42C16.07 4.74 14.12 4 12 4c-4.97 0-9 4.03-9 9s4.02 9 9 9 9-4.03 9-9c0-2.12-.74-4.07-1.97-5.61zM12 20c-3.87 0-7-3.13-7-7s3.13-7 7-7 7 3.13 7 7-3.13 7-7 7zm-.32-5H6.35c.57 1.62 1.82 2.92 3.41 3.56l-.11-.06 2.03-3.5zm5.97-4c-.57-1.6-1.78-2.89-3.34-3.54L12.26 11h5.39zm-7.04 7.83c.45.11.91.17 1.39.17 1.34 0 2.57-.45 3.57-1.19l-2.11-3.9-2.85 4.92zM7.55 8.99C6.59 10.05 6 11.46 6 13c0 .34.04.67.09 1h4.72L7.55 8.99zm8.79 8.14C17.37 16.06 18 14.6 18 13c0-.34-.04-.67-.09-1h-4.34l2.77 5.13zm-3.01-9.98C12.9 7.06 12.46 7 12 7c-1.4 0-2.69.49-3.71 1.29l2.32 3.56 2.72-4.7z"/></symbol>
<symbol id="slideshow" viewBox="0 0 24 24"><path d="M0 0h24v24H0V0z" fill="none"/><path d="M10 8v8l5-4-5-4zm11-5H3v18h18V3zm-2 16H5V5h14v14z"/></symbol>
<symbol id="straighten" viewBox="0 0 24 24"><path d="M0 0h24v24H0V0z" fill="none"/><path d="M23 6H1v12h22V6zm-2 10H3V8h2v4h2V8h2v4h2V8h2v4h2V8h2v4h2V8h2v8z"/></symbol>
<symbol id="style" viewBox="0 0 24 24"><path d="M0 0h24v24H0V0z" fill="none"/><path d="M3.87 20.21v-9.03l-3.19 7.7 3.19 1.33zm18.92-2.43L16.31 2.14 5.26 6.71l6.48 15.64 11.05-4.57zM7.88 8.75c-.55 0-1-.45-1-1s.45-1 1-1 1 .45 1 1-.45 1-1 1zm-2 13h3.45l-3.45-8.34v8.34z"/></symbol>
<symbol id="switch_camera" viewBox="0 0 24 24"><path d="M0 0h24v24H0V0z" fill="none"/><path d="M22 4h-5.17L15 2H9L7.17 4H2v16h20V4zm-7 11.5V13H9v2.5L5.5 12 9 8.5V11h6V8.5l3.5 3.5-3.5 3.5z"/></symbol>
<symbol id="switch_video" viewBox="0 0 24 24"><path d="M0 0h24v24H0V0z" fill="none"/><path d="M18 9.5V5H2v14h16v-4.5l4 4v-13l-4 4zm-5 6V13H7v2.5L3.5 12 7 8.5V11h6V8.5l3.5 3.5-3.5 3.5z"/></symbol>
<symbol id="tag_faces" viewBox="0 0 24 24"><path d="M0 0h24v24H0V0z" fill="none"/><path d="M12.01 2C6.49 2 2.02 6.48 2.02 12s4.47 10 9.99 10c5.53 0 10.01-4.48 10.01-10S17.54 2 12.01 2zm.01 18c-4.42 0-8-3.58-8-8s3.58-8 8-8 8 3.58 8 8-3.58 8-8 8zm3.5-9c.83 0 1.5-.67 1.5-1.5S16.35 8 15.52 8s-1.5.67-1.5 1.5.67 1.5 1.5 1.5zm-7 0c.83 0 1.5-.67 1.5-1.5S9.35 8 8.52 8s-1.5.67-1.5 1.5.67 1.5 1.5 1.5zm3.5 6.5c2.33 0 4.31-1.46 5.11-3.5H6.91c.8 2.04 2.78 3.5 5.11 3.5z"/></symbol>
<symbol id="texture" viewBox="0 0 24 24"><path d="M0 0h24v24H0V0z" fill="none"/><path d="M19.66 3L3.07 19.59V21h1.41L21.07 4.42V3zm-7.71 0l-8.88 8.88v2.83L14.78 3zM3.07 3v4l4-4zm18 18v-4l-4 4zm-8.88 0l8.88-8.88V9.29L9.36 21z"/></symbol>
<symbol id="timelapse" viewBox="0 0 24 24"><path d="M0 0h24v24H0V0z" fill="none"/><path d="M16.24 7.76C15.07 6.59 13.54 6 12 6v6l-4.24 4.24c2.34 2.34 6.14 2.34 8.49 0 2.34-2.34 2.34-6.14-.01-8.48zM12 2C6.48 2 2 6.48 2 12s4.48 10 10 10 10-4.48 10-10S17.52 2 12 2zm0 18c-4.42 0-8-3.58-8-8s3.58-8 8-8 8 3.58 8 8-3.58 8-8 8z"/></symbol>
<symbol id="timer" viewBox="0 0 24 24"><path d="M0 0h24v24H0V0z" fill="none"/><path d="M15 1H9v2h6V1zm-4 13h2V8h-2v6zm8.03-6.61l1.42-1.42c-.43-.51-.9-.99-1.41-1.41l-1.42 1.42C16.07 4.74 14.12 4 12 4c-4.97 0-9 4.03-9 9s4.02 9 9 9 9-4.03 9-9c0-2.12-.74-4.07-1.97-5.61zM12 20c-3.87 0-7-3.13-7-7s3.13-7 7-7 7 3.13 7 7-3.13 7-7 7z"/></symbol>
<symbol id="timer_10" viewBox="0 0 24 24"><path d="M0 0h24v24H0V0z" fill="none"/><path d="M-.01 7.72V9.4l3-1V18h2V6h-.25L-.01 7.72zm23.78 6.65c-.14-.28-.35-.53-.63-.74-.28-.21-.61-.39-1.01-.53s-.85-.27-1.35-.38c-.35-.07-.64-.15-.87-.23-.23-.08-.41-.16-.55-.25s-.23-.19-.28-.3c-.05-.11-.08-.24-.08-.39 0-.14.03-.28.09-.41s.15-.25.27-.34c.12-.1.27-.18.45-.24s.4-.09.64-.09c.25 0 .47.04.66.11s.35.17.48.29.22.26.29.42c.06.16.1.32.1.49h1.95c0-.39-.08-.75-.24-1.09s-.39-.63-.69-.88c-.3-.25-.66-.44-1.09-.59-.43-.15-.92-.22-1.46-.22-.51 0-.98.07-1.39.21s-.77.33-1.06.57c-.29.24-.51.52-.67.84-.16.32-.23.65-.23 1.01s.08.69.23.96c.15.28.36.52.64.73.27.21.6.38.98.53.38.14.81.26 1.27.36.39.08.71.17.95.26s.43.19.57.29c.13.1.22.22.27.34.05.12.07.25.07.39 0 .32-.13.57-.4.77s-.66.29-1.17.29c-.22 0-.43-.02-.64-.08-.21-.05-.4-.13-.56-.24-.17-.11-.3-.26-.41-.44-.11-.18-.17-.41-.18-.67h-1.89c0 .36.08.71.24 1.05s.39.65.7.93c.31.27.69.49 1.15.66s.98.25 1.58.25c.53 0 1.01-.06 1.44-.19.43-.13.8-.31 1.11-.54.31-.23.54-.51.71-.83.17-.32.25-.67.25-1.06-.02-.4-.09-.74-.24-1.02zm-9.96-7.32c-.34-.4-.75-.7-1.23-.88-.47-.18-1.01-.27-1.59-.27s-1.11.09-1.59.27c-.48.18-.89.47-1.23.88-.34.41-.6.93-.79 1.59-.18.65-.28 1.45-.28 2.39v1.92c0 .94.09 1.74.28 2.39.19.66.45 1.19.8 1.6.34.41.75.71 1.23.89s1.01.28 1.59.28c.59 0 1.12-.09 1.59-.28.48-.18.88-.48 1.22-.89s.6-.94.78-1.6c.18-.65.28-1.45.28-2.39v-1.92c0-.94-.09-1.74-.28-2.39-.18-.66-.44-1.19-.78-1.59zm-.92 6.17c0 .6-.04 1.11-.12 1.53s-.2.76-.36 1.02c-.16.26-.36.45-.59.57-.23.12-.51.18-.82.18-.3 0-.58-.06-.82-.18s-.44-.31-.6-.57c-.16-.26-.29-.6-.38-1.02s-.13-.93-.13-1.53v-2.5c0-.6.04-1.11.13-1.52s.21-.74.38-1c.16-.25.36-.43.6-.55.24-.11.51-.17.81-.17.31 0 .58.06.81.17.24.11.44.29.6.55.16.25.29.58.37.99s.13.92.13 1.52v2.51h-.01z"/></symbol>
<symbol id="timer_3" viewBox="0 0 24 24"><path d="M0 0h24v24H0V0z" fill="none"/><path d="M11.61 12.97c-.16-.24-.36-.46-.62-.65-.25-.19-.56-.35-.93-.48.3-.14.57-.3.8-.5.23-.2.42-.41.57-.64.15-.23.27-.46.34-.71.08-.24.11-.49.11-.73 0-.55-.09-1.04-.28-1.46-.18-.42-.44-.77-.78-1.06-.33-.28-.73-.5-1.2-.64-.45-.13-.97-.2-1.53-.2-.55 0-1.06.08-1.52.24-.47.17-.87.4-1.2.69-.33.29-.6.63-.78 1.03-.2.39-.29.83-.29 1.29h1.98c0-.26.05-.49.14-.69.09-.2.22-.38.38-.52.17-.14.36-.25.58-.33s.46-.12.73-.12c.61 0 1.06.16 1.36.47.3.31.44.75.44 1.32 0 .27-.04.52-.12.74-.08.22-.21.41-.38.57s-.38.28-.63.37-.55.13-.89.13H6.72v1.57H7.9c.34 0 .64.04.91.11.27.08.5.19.69.35.19.16.34.36.44.61.1.24.16.54.16.87 0 .62-.18 1.09-.53 1.42-.35.33-.84.49-1.45.49-.29 0-.56-.04-.8-.13-.24-.08-.44-.2-.61-.36s-.3-.34-.39-.56c-.09-.22-.14-.46-.14-.72H4.19c0 .55.11 1.03.32 1.45.21.42.5.77.86 1.05s.77.49 1.24.63.96.21 1.48.21c.57 0 1.09-.08 1.58-.23s.91-.38 1.26-.68c.36-.3.64-.66.84-1.1.2-.43.3-.93.3-1.48 0-.29-.04-.58-.11-.86-.08-.25-.19-.51-.35-.76zm9.26 1.4c-.14-.28-.35-.53-.63-.74-.28-.21-.61-.39-1.01-.53s-.85-.27-1.35-.38c-.35-.07-.64-.15-.87-.23-.23-.08-.41-.16-.55-.25s-.23-.19-.28-.3c-.05-.11-.08-.24-.08-.39s.03-.28.09-.41.15-.25.27-.34c.12-.1.27-.18.45-.24s.4-.09.64-.09c.25 0 .47.04.66.11s.35.17.48.29.22.26.29.42c.06.16.1.32.1.49h1.95c0-.39-.08-.75-.24-1.09s-.39-.63-.69-.88c-.3-.25-.66-.44-1.09-.59-.43-.15-.92-.22-1.46-.22-.51 0-.98.07-1.39.21s-.77.33-1.06.57c-.29.24-.51.52-.67.84s-.23.65-.23 1.01.08.68.23.96.37.52.64.73c.27.21.6.38.98.53.38.14.81.26 1.27.36.39.08.71.17.95.26s.43.19.57.29c.13.1.22.22.27.34.05.12.07.25.07.39 0 .32-.13.57-.4.77s-.66.29-1.17.29c-.22 0-.43-.02-.64-.08-.21-.05-.4-.13-.56-.24-.17-.11-.3-.26-.41-.44-.11-.18-.17-.41-.18-.67h-1.89c0 .36.08.71.24 1.05s.39.65.7.93c.31.27.69.49 1.15.66.46.17.98.25 1.58.25.53 0 1.01-.06 1.44-.19.43-.13.8-.31 1.11-.54.31-.23.54-.51.71-.83.17-.32.25-.67.25-1.06-.02-.4-.09-.74-.24-1.02z"/></symbol>
<symbol id="timer_off" viewBox="0 0 24 24"><path d="M0 0h24v24H0V0z" fill="none"/><path d="M12 6c3.87 0 7 3.13 7 7 0 1.12-.27 2.18-.74 3.12l1.47 1.47C20.53 16.25 21 14.68 21 13c0-2.12-.74-4.07-1.97-5.61l1.42-1.42c-.43-.51-.9-.99-1.41-1.41l-1.42 1.42C16.07 4.74 14.12 4 12 4c-1.68 0-3.25.47-4.59 1.27l1.47 1.47c.94-.47 2-.74 3.12-.74zm-1 2v.86l2 2V8zM9 1h6v2H9zM3.16 3.86L1.75 5.27 4.5 8.02C3.56 9.45 3 11.16 3 13c0 4.97 4.02 9 9 9 1.84 0 3.55-.55 4.98-1.5l2.5 2.5 1.41-1.41L3.16 3.86zM12 20c-3.87 0-7-3.13-7-7 0-1.29.35-2.49.96-3.52l9.57 9.57c-1.04.6-2.24.95-3.53.95z"/></symbol>
<symbol id="tonality" viewBox="0 0 24 24"><path d="M0 0h24v24H0V0z" fill="none"/><path d="M12 2C6.48 2 2 6.48 2 12s4.48 10 10 10 10-4.48 10-10S17.52 2 12 2zm-1 17.93c-3.94-.49-7-3.85-7-7.93s3.05-7.44 7-7.93v15.86zm2-15.86c1.03.13 2 .45 2.87.93H13v-.93zM13 7h5.24c.25.31.48.65.68 1H13V7zm0 3h6.74c.08.33.15.66.19 1H13v-1zm0 9.93V19h2.87c-.87.48-1.84.8-2.87.93zM18.24 17H13v-1h5.92c-.2.35-.43.69-.68 1zm1.5-3H13v-1h6.93c-.04.34-.11.67-.19 1z"/></symbol>
<symbol id="transform" viewBox="0 0 24 24"><path d="M0 0h24v24H0V0z" fill="none"/><path d="M22 18v-2H8V4h2L7 1 4 4h2v2H2v2h4v10h10v2h-2l3 3 3-3h-2v-2h4zM10 8h6v6h2V6h-8v2z"/></symbol>
<symbol id="tune" viewBox="0 0 24 24"><path d="M0 0h24v24H0V0z" fill="none"/><path d="M3 17v2h6v-2H3zM3 5v2h10V5H3zm10 16v-2h8v-2h-8v-2h-2v6h2zM7 9v2H3v2h4v2h2V9H7zm14 4v-2H11v2h10zm-6-4h2V7h4V5h-4V3h-2v6z"/></symbol>
<symbol id="view_comfy" viewBox="0 0 24 24"><path d="M0 0h24v24H0V0z" fill="none"/><path d="M3 9h4V5H3v4zm0 5h4v-4H3v4zm5 0h4v-4H8v4zm5 0h4v-4h-4v4zM8 9h4V5H8v4zm5-4v4h4V5h-4zm5 9h4v-4h-4v4zM3 19h4v-4H3v4zm5 0h4v-4H8v4zm5 0h4v-4h-4v4zm5 0h4v-4h-4v4zm0-14v4h4V5h-4z"/></symbol>
<symbol id="view_compact" viewBox="0 0 24 24"><path d="M0 0h24v24H0V0z" fill="none"/><path d="M3 19h6v-7H3v7zm7 0h12v-7H10v7zM3 5v6h19V5H3z"/></symbol>
<symbol id="vignette" viewBox="0 0 24 24"><path d="M0 0h24v24H0V0z" fill="none"/><path d="M23 3H1v18h22V3zM12 18c-4.42 0-8-2.69-8-6s3.58-6 8-6 8 2.69 8 6-3.58 6-8 6z"/></symbol>
<symbol id="wb_auto" viewBox="0 0 24 24"><path d="M0 0h24v24H0V0z" fill="none"/><path d="M6.85 12.65h2.3L8 9l-1.15 3.65zM22 7l-1.2 6.29L19.3 7h-1.6l-1.49 6.29L15 7h-.76C12.77 5.17 10.53 4 8 4c-4.42 0-8 3.58-8 8s3.58 8 8 8c3.13 0 5.84-1.81 7.15-4.43l.1.43H17l1.5-6.1L20 16h1.75l2.05-9H22zm-11.7 9l-.7-2H6.4l-.7 2H3.8L7 7h2l3.2 9h-1.9z"/></symbol>
<symbol id="wb_cloudy" viewBox="0 0 24 24"><path d="M0 0h24v24H0V0z" fill="none"/><path d="M19.37 10.04C18.68 6.59 15.65 4 12.01 4c-2.89 0-5.4 1.64-6.65 4.04C2.35 8.36.01 10.91.01 14c0 3.31 2.69 6 6 6h13c2.76 0 5-2.24 5-5 0-2.64-2.05-4.78-4.64-4.96z"/></symbol>
<symbol id="wb_incandescent" viewBox="0 0 24 24"><path d="M0 0h24v24H0V0z" fill="none"/><path d="M3.55 19.09l1.41 1.41 1.79-1.8-1.41-1.41-1.79 1.8zM11 23h2v-2.95h-2V23zM4 11.05H1v2h3v-2zm11-4.19V2.05H9v4.81C7.21 7.9 6 9.83 6 12.05c0 3.31 2.69 6 6 6s6-2.69 6-6c0-2.22-1.21-4.15-3-5.19zm5 4.19v2h3v-2h-3zm-2.76 7.66l1.79 1.8 1.41-1.41-1.8-1.79-1.4 1.4z"/></symbol>
<symbol id="wb_iridescent" viewBox="0 0 24 24"><path d="M0 0h24v24H0V0z" fill="none"/><path d="M5 15h14V9.05H5V15zm6-14v3h2V1h-2zm8.04 2.6l-1.79 1.79 1.41 1.41 1.8-1.79-1.42-1.41zM13 23v-2.95h-2V23h2zm7.45-3.91l-1.8-1.79-1.41 1.41 1.79 1.8 1.42-1.42zM3.55 5.01L5.34 6.8l1.41-1.41L4.96 3.6 3.55 5.01zM4.96 20.5l1.79-1.8-1.41-1.41-1.79 1.79 1.41 1.42z"/></symbol>
<symbol id="wb_sunny" viewBox="0 0 24 24"><path d="M0 0h24v24H0V0z" fill="none"/><path d="M6.76 4.84l-1.8-1.79-1.41 1.41 1.79 1.79 1.42-1.41zM4 10.5H1v2h3v-2zm9-9.95h-2V3.5h2V.55zm7.45 3.91l-1.41-1.41-1.79 1.79 1.41 1.41 1.79-1.79zm-3.21 13.7l1.79 1.8 1.41-1.41-1.8-1.79-1.4 1.4zM20 10.5v2h3v-2h-3zm-8-5c-3.31 0-6 2.69-6 6s2.69 6 6 6 6-2.69 6-6-2.69-6-6-6zm-1 16.95h2V19.5h-2v2.95zm-7.45-3.91l1.41 1.41 1.79-1.8-1.41-1.41-1.79 1.8z"/></symbol>
</svg>