<svg xmlns="http://www.w3.org/2000/svg">
<symbol id="360" viewBox="0 0 24 24"><path d="M0 0h24v24H0V0z" fill="none"/><path d="M12 7C6.48 7 2 9.24 2 12c0 2.24 2.94 4.13 7 4.77V20l4-4-4-4v2.73c-3.15-.56-5-1.9-5-2.73 0-1.06 3.04-3 8-3s8 1.94 8 3c0 .73-1.46 1.89-4 2.53v2.05c3.53-.77 6-2.53 6-4.58 0-2.76-4.48-5-10-5z"/></symbol>
<symbol id="add_business" viewBox="0 0 24 24"><g><rect fill="none" height="24" width="24"/></g><g><g><path d="M15,17h2v-3h1v-2l-1-5H2l-1,5v2h1v6h9v-6h4V17z M9,18H4v-4h5V18z"/><rect height="2" width="15" x="2" y="4"/><polygon points="20,18 20,15 18,15 18,18 15,18 15,20 18,20 18,23 20,23 20,20 23,20 23,18"/></g></g></symbol>
<symbol id="add_location" viewBox="0 0 24 24"><rect fill="none" height="24" width="24"/><rect fill="none" height="24" width="24"/><g><g><path d="M13,6h-2v3H8v2h3v3h2v-3h3V9h-3V6z M12,2c4.2,0,8,3.22,8,8.2c0,3.32-2.67,7.25-8,11.8 c-5.33-4.55-8-8.48-8-11.8C4,5.22,7.8,2,12,2z"/></g></g></symbol>
<symbol id="add_location_alt" viewBox="0 0 24 24"><path d="M0 0h24v24H0z" fill="none"/><path d="M20 1v3h3v2h-3v3h-2V6h-3V4h3V1h2zm-8 12c1.1 0 2-.9 2-2s-.9-2-2-2-2 .9-2 2 .9 2 2 2zm2-9.75V7h3v3h2.92c.05.39.08.79.08 1.2 0 3.32-2.67 7.25-8 11.8-5.33-4.55-8-8.48-8-11.8C4 6.22 7.8 3 12 3c.68 0 1.35.08 2 .25z"/></symbol>
<symbol id="add_road" viewBox="0 0 24 24"><g><rect fill="none" height="24" width="24"/></g><g><g><polygon points="20,18 20,15 18,15 18,18 15,18 15,20 18,20 18,23 20,23 20,20 23,20 23,18"/><rect height="9" width="2" x="18" y="4"/><rect height="16" width="2" x="4" y="4"/><rect height="4" width="2" x="11" y="4"/><rect height="4" width="2" x="11" y="10"/><rect height="4" width="2" x="11" y="16"/></g></g></symbol>
<symbol id="agriculture" viewBox="0 0 24 24"><g><rect fill="none" height="24" width="24"/></g><g><g><path d="M19.5,12c0.93,0,1.78,0.28,2.5,0.76V8c0-1.1-0.9-2-2-2h-6.29l-1.06-1.06l1.41-1.41l-0.71-0.71L9.82,6.35l0.71,0.71 l1.41-1.41L13,6.71V9c0,1.1-0.9,2-2,2h-0.54c0.95,1.06,1.54,2.46,1.54,4c0,0.34-0.04,0.67-0.09,1h3.14 C15.3,13.75,17.19,12,19.5,12z"/><path d="M19.5,13c-1.93,0-3.5,1.57-3.5,3.5s1.57,3.5,3.5,3.5s3.5-1.57,3.5-3.5S21.43,13,19.5,13z M19.5,18 c-0.83,0-1.5-0.67-1.5-1.5s0.67-1.5,1.5-1.5s1.5,0.67,1.5,1.5S20.33,18,19.5,18z"/><path d="M4,9h5c0-1.1-0.9-2-2-2H4C3.45,7,3,7.45,3,8C3,8.55,3.45,9,4,9z"/><path d="M9.83,13.82l-0.18-0.47L10.58,13c-0.46-1.06-1.28-1.91-2.31-2.43l-0.4,0.89l-0.46-0.21l0.4-0.9C7.26,10.13,6.64,10,6,10 c-0.53,0-1.04,0.11-1.52,0.26l0.34,0.91l-0.47,0.18L4,10.42c-1.06,0.46-1.91,1.28-2.43,2.31l0.89,0.4l-0.21,0.46l-0.9-0.4 C1.13,13.74,1,14.36,1,15c0,0.53,0.11,1.04,0.26,1.52l0.91-0.34l0.18,0.47L1.42,17c0.46,1.06,1.28,1.91,2.31,2.43l0.4-0.89 l0.46,0.21l-0.4,0.9C4.74,19.87,5.36,20,6,20c0.53,0,1.04-0.11,1.52-0.26l-0.34-0.91l0.47-0.18L8,19.58 c1.06-0.46,1.91-1.28,2.43-2.31l-0.89-0.4l0.21-0.46l0.9,0.4C10.87,16.26,11,15.64,11,15c0-0.53-0.11-1.04-0.26-1.52L9.83,13.82z M7.15,17.77c-1.53,0.63-3.29-0.09-3.92-1.62c-0.63-1.53,0.09-3.29,1.62-3.92c1.53-0.63,3.29,0.09,3.92,1.62 C9.41,15.38,8.68,17.14,7.15,17.77z"/></g></g></symbol>
<symbol id="alt_route" viewBox="0 0 24 24"><g><rect fill="none" height="24" width="24"/><path d="M9.78,11.16l-1.42,1.42c-0.68-0.69-1.34-1.58-1.79-2.94l1.94-0.49C8.83,10.04,9.28,10.65,9.78,11.16z M11,6L7,2L3,6h3.02 C6.04,6.81,6.1,7.54,6.21,8.17l1.94-0.49C8.08,7.2,8.03,6.63,8.02,6H11z M21,6l-4-4l-4,4h2.99c-0.1,3.68-1.28,4.75-2.54,5.88 c-0.5,0.44-1.01,0.92-1.45,1.55c-0.34-0.49-0.73-0.88-1.13-1.24L9.46,13.6C10.39,14.45,11,15.14,11,17c0,0,0,0,0,0h0v5h2v-5 c0,0,0,0,0,0c0-2.02,0.71-2.66,1.79-3.63c1.38-1.24,3.08-2.78,3.2-7.37H21z"/></g></symbol>
<symbol id="atm" viewBox="0 0 24 24"><path d="M0 0h24v24H0V0z" fill="none"/><path d="M8 9v1.5h2.25V15h1.5v-4.5H14V9H8zM7 9H2v6h1.5v-1.5h2V15H7V9zm-1.5 3h-2v-1.5h2V12zM22 9h-6.5v6H17v-4.5h1V14h1.5v-3.51h1V15H22V9z"/></symbol>
<symbol id="beenhere" viewBox="0 0 24 24"><path d="M0 0h24v24H0V0z" fill="none"/><path d="M3.01 1L3 17l9 6 8.99-6L21 1H3.01zM10 16l-5-5 1.41-1.42L10 13.17l7.59-7.59L19 7l-9 9z"/></symbol>
<symbol id="bike_scooter" viewBox="0 0 24 24"><g><rect fill="none" height="24" width="24"/></g><g><g><path d="M10,14h0.74L8.47,4H3v2h3.87l1.42,6.25c0,0-0.01,0-0.01,0C6.12,12.9,4.47,14.73,4.09,17H0v2h6v-1C6,15.79,7.79,14,10,14z"/><path d="M18.18,8l-1.83-5H11v2h3.96l1.1,3H10.4l0.46,2H15c-0.43,0.58-0.75,1.25-0.9,2h-2.79l0.46,2h2.33 c0.44,2.23,2.31,3.88,4.65,3.99c2.8,0.13,5.25-2.19,5.25-5c0-2.8-2.2-5-5-5H18.18z M19,16c-1.68,0-3-1.32-3-3 c0-0.93,0.41-1.73,1.05-2.28l0.96,2.64l1.88-0.68l-0.97-2.67c0.03,0,0.06-0.01,0.09-0.01c1.68,0,3,1.32,3,3S20.68,16,19,16z"/><path d="M10,15c-1.66,0-3,1.34-3,3s1.34,3,3,3s3-1.34,3-3S11.66,15,10,15z M10,19c-0.55,0-1-0.45-1-1s0.45-1,1-1s1,0.45,1,1 S10.55,19,10,19z"/></g></g></symbol>
<symbol id="category" viewBox="0 0 24 24"><path d="M0 0h24v24H0V0z" fill="none"/><path d="M12 2l-5.5 9h11z"/><circle cx="17.5" cy="17.5" r="4.5"/><path d="M3 13.5h8v8H3z"/></symbol>
<symbol id="cleaning_services" viewBox="0 0 24 24"><g><rect fill="none" height="24" width="24"/></g><g><path d="M15,11V1H9v10H3v12h18V11H15z M19,21h-2v-4h-2v4h-2v-4h-2v4H9v-4H7v4H5v-8h14V21z"/></g></symbol>
<symbol id="compass_calibration" viewBox="0 0 24 24"><path d="M0 0h24v24H0V0z" fill="none"/><circle cx="12" cy="17" r="4"/><path d="M12 3C8.1 3 4.56 4.59 2 7.15l5 5c1.28-1.28 3.05-2.08 5-2.08s3.72.79 5 2.07l5-5C19.44 4.59 15.9 3 12 3z"/></symbol>
<symbol id="departure_board" viewBox="0 0 24 24"><path d="M0 0h24v24H0V0z" fill="none"/><path d="M17.34 1.13c-2.94-.55-5.63.75-7.12 2.92.01-.01.01-.02.02-.03C9.84 4 9.42 4 9 4c-4.42 0-8 .5-8 4v10c0 .88.39 1.67 1 2.22V23h3v-2h8v2h3v-2.78c.61-.55 1-1.34 1-2.22v-3.08c3.72-.54 6.5-3.98 5.92-7.97-.42-2.9-2.7-5.29-5.58-5.82zM4.5 19c-.83 0-1.5-.67-1.5-1.5S3.67 16 4.5 16s1.5.67 1.5 1.5S5.33 19 4.5 19zM3 13V8h6c0 1.96.81 3.73 2.11 5H3zm10.5 6c-.83 0-1.5-.67-1.5-1.5s.67-1.5 1.5-1.5 1.5.67 1.5 1.5-.67 1.5-1.5 1.5zm2.5-6c-2.76 0-5-2.24-5-5s2.24-5 5-5 5 2.24 5 5-2.24 5-5 5zm.5-9H15v5l3.62 2.16.75-1.23-2.87-1.68V4z"/></symbol>
<symbol id="design_services" viewBox="0 0 24 24"><g><rect fill="none" height="24" width="24"/></g><g><g/><g><path d="M21.79,17.06l-5.55-5.55l1.57-1.57l-3.75-3.75l-1.57,1.57L6.94,2.21L2.21,6.94l5.55,5.55L3,17.25V21h3.75l4.76-4.76 l5.55,5.55l0,0v0L21.79,17.06z M9.18,11.07L5.04,6.94l1.9-1.9l1.27,1.27L7.02,7.5l1.41,1.41l1.19-1.19l1.45,1.45L9.18,11.07z M12.93,14.82l1.9-1.9l1.45,1.45l-1.19,1.19l1.41,1.41l1.19-1.19l1.27,1.27l-1.9,1.9L12.93,14.82z"/><rect height="5.3" transform="matrix(0.7071 -0.7071 0.7071 0.7071 1.302 14.5981)" width="3.59" x="16.48" y="3.08"/></g></g></symbol>
<symbol id="directions" viewBox="0 0 24 24"><path d="M0 0h24v24H0V0z" fill="none"/><path d="M22.41 12L12 1.59 1.59 11.99 12 22.41 22.41 12zM14 14.5V12h-4v3H8v-5h6V7.5l3.5 3.5-3.5 3.5z"/></symbol>
<symbol id="directions_bike" viewBox="0 0 24 24"><path d="M0 0h24v24H0V0z" fill="none"/><path d="M15.5 5.5c1.1 0 2-.9 2-2s-.9-2-2-2-2 .9-2 2 .9 2 2 2zM5 12c-2.8 0-5 2.2-5 5s2.2 5 5 5 5-2.2 5-5-2.2-5-5-5zm0 8.5c-1.9 0-3.5-1.6-3.5-3.5s1.6-3.5 3.5-3.5 3.5 1.6 3.5 3.5-1.6 3.5-3.5 3.5zm5.8-10l2.4-2.4.8.8c1.3 1.3 3 2.1 5.1 2.1V9c-1.5 0-2.7-.6-3.6-1.5l-1.9-1.9c-.5-.4-1-.6-1.6-.6s-1.1.2-1.4.6L6.31 9.9 11 14v5h2v-6.2l-2.2-2.3zM19 12c-2.8 0-5 2.2-5 5s2.2 5 5 5 5-2.2 5-5-2.2-5-5-5zm0 8.5c-1.9 0-3.5-1.6-3.5-3.5s1.6-3.5 3.5-3.5 3.5 1.6 3.5 3.5-1.6 3.5-3.5 3.5z"/></symbol>
<symbol id="directions_boat" viewBox="0 0 24 24"><path d="M0 0h24v24H0V0z" fill="none"/><path d="M20 21c-1.39 0-2.78-.47-4-1.32-2.44 1.71-5.56 1.71-8 0C6.78 20.53 5.39 21 4 21H2v2h2c1.38 0 2.74-.35 4-.99 2.52 1.29 5.48 1.29 8 0 1.26.65 2.62.99 4 .99h2v-2h-2zM3.95 19H4c1.6 0 3.02-.88 4-2 .98 1.12 2.4 2 4 2s3.02-.88 4-2c.98 1.12 2.4 2 4 2h.05l2.18-7.65-2.23-.73V4h-5V1H9v3H4v6.62l-2.23.73L3.95 19zM6 6h12v3.97L12 8 6 9.97V6z"/></symbol>
<symbol id="directions_bus" viewBox="0 0 24 24"><path d="M0 0h24v24H0V0z" fill="none"/><path d="M4 16c0 .88.39 1.67 1 2.22V21h3v-2h8v2h3v-2.78c.61-.55 1-1.34 1-2.22V6c0-3.5-3.58-4-8-4s-8 .5-8 4v10zm3.5 1c-.83 0-1.5-.67-1.5-1.5S6.67 14 7.5 14s1.5.67 1.5 1.5S8.33 17 7.5 17zm9 0c-.83 0-1.5-.67-1.5-1.5s.67-1.5 1.5-1.5 1.5.67 1.5 1.5-.67 1.5-1.5 1.5zm1.5-6H6V6h12v5z"/></symbol>
<symbol id="directions_car" viewBox="0 0 24 24"><path d="M0 0h24v24H0V0z" fill="none"/><path d="M18.58 5H5.43L3 12v9h3v-2h12v2h3v-9l-2.42-7zM6.5 16c-.83 0-1.5-.67-1.5-1.5S5.67 13 6.5 13s1.5.67 1.5 1.5S7.33 16 6.5 16zm11 0c-.83 0-1.5-.67-1.5-1.5s.67-1.5 1.5-1.5 1.5.67 1.5 1.5-.67 1.5-1.5 1.5zM5 11l1.5-4.5h11L19 11H5z"/></symbol>
<symbol id="directions_railway" viewBox="0 0 24 24"><path d="M0 0h24v24H0V0z" fill="none"/><path d="M4 15.5C4 17.43 5.57 19 7.5 19L6 20.5v.5h12v-.5L16.5 19c1.93 0 3.5-1.57 3.5-3.5V5c0-3.5-3.58-4-8-4s-8 .5-8 4v10.5zm8 1.5c-1.1 0-2-.9-2-2s.9-2 2-2 2 .9 2 2-.9 2-2 2zm6-7H6V5h12v5z"/></symbol>
<symbol id="directions_run" viewBox="0 0 24 24"><path d="M0 0h24v24H0V0z" fill="none"/><path d="M13.49 5.48c1.1 0 2-.9 2-2s-.9-2-2-2-2 .9-2 2 .9 2 2 2zm-3.6 13.9l1-4.4 2.1 2v6h2v-7.5l-2.1-2 .6-3c1.3 1.5 3.3 2.5 5.5 2.5v-2c-1.9 0-3.5-1-4.3-2.4l-1-1.6c-.4-.6-1-1-1.7-1-.3 0-.5.1-.8.1l-5.2 2.2v4.7h2v-3.4l1.8-.7-1.6 8.1-4.9-1-.4 2 7 1.4z"/></symbol>
<symbol id="directions_subway" viewBox="0 0 24 24"><path d="M0 0h24v24H0V0z" fill="none"/><path d="M12 2c-4.42 0-8 .5-8 4v9.5C4 17.43 5.57 19 7.5 19L6 20.5v.5h12v-.5L16.5 19c1.93 0 3.5-1.57 3.5-3.5V6c0-3.5-3.58-4-8-4zM7.5 17c-.83 0-1.5-.67-1.5-1.5S6.67 14 7.5 14s1.5.67 1.5 1.5S8.33 17 7.5 17zm3.5-6H6V6h5v5zm5.5 6c-.83 0-1.5-.67-1.5-1.5s.67-1.5 1.5-1.5 1.5.67 1.5 1.5-.67 1.5-1.5 1.5zm1.5-6h-5V6h5v5z"/></symbol>
<symbol id="directions_transit" viewBox="0 0 24 24"><path d="M0 0h24v24H0V0z" fill="none"/><path d="M12 2c-4.42 0-8 .5-8 4v9.5C4 17.43 5.57 19 7.5 19L6 20.5v.5h12v-.5L16.5 19c1.93 0 3.5-1.57 3.5-3.5V6c0-3.5-3.58-4-8-4zM7.5 17c-.83 0-1.5-.67-1.5-1.5S6.67 14 7.5 14s1.5.67 1.5 1.5S8.33 17 7.5 17zm3.5-6H6V6h5v5zm5.5 6c-.83 0-1.5-.67-1.5-1.5s.67-1.5 1.5-1.5 1.5.67 1.5 1.5-.67 1.5-1.5 1.5zm1.5-6h-5V6h5v5z"/></symbol>
<symbol id="directions_walk" viewBox="0 0 24 24"><path d="M0 0h24v24H0V0z" fill="none"/><path d="M13.5 5.5c1.1 0 2-.9 2-2s-.9-2-2-2-2 .9-2 2 .9 2 2 2zM9.8 8.9L7 23h2.1l1.8-8 2.1 2v6h2v-7.5l-2.1-2 .6-3C14.8 12 16.8 13 19 13v-2c-1.9 0-3.5-1-4.3-2.4l-1-1.6c-.56-.89-1.68-1.25-2.65-.84L6 8.3V13h2V9.6l1.8-.7"/></symbol>
<symbol id="edit_attributes" viewBox="0 0 24 24"><path d="M0 0h24v24H0V0z" fill="none"/><path d="M17.63 7H6.37C3.96 7 2 9.24 2 12s1.96 5 4.37 5h11.26c2.41 0 4.37-2.24 4.37-5s-1.96-5-4.37-5zM7.24 14.46l-2.57-2.57.7-.7 1.87 1.87 3.52-3.52.7.7-4.22 4.22z"/></symbol>
<symbol id="edit_location" viewBox="0 0 24 24"><path d="M0 0h24v24H0z" fill="none"/><path d="M18.11 1.77L19.78.1l2.12 2.12-1.67 1.67-2.12-2.12zm-1 1l2.12 2.12L13.12 11H11V8.89l6.11-6.12zm-1.98-.13L9.5 8.27v4.24h4.24l5.62-5.62c.41.99.64 2.1.64 3.32 0 3.32-2.67 7.25-8 11.8-5.33-4.55-8-8.48-8-11.8 0-4.98 3.8-8.2 8-8.2 1.09 0 2.16.22 3.13.63z"/></symbol>
<symbol id="edit_road" viewBox="0 0 24 24"><g><rect fill="none" height="24" width="24"/></g><g><g><polygon points="18,4 16,4 16,11.9 18,9.9"/><rect height="16" width="2" x="4" y="4"/><rect height="4" width="2" x="10" y="4"/><rect height="4" width="2" x="10" y="10"/><rect height="4" width="2" x="10" y="16"/><path d="M22.56,12.59l-1.15-1.15c-0.59-0.59-1.54-0.59-2.12,0L14,16.73V20h3.27l5.29-5.29C23.15,14.12,23.15,13.17,22.56,12.59z M16.58,18.45h-1.03v-1.03L19,13.97L20.03,15L16.58,18.45z"/></g></g></symbol>
<symbol id="electrical_services" viewBox="0 0 24 24"><g><rect fill="none" height="24" width="24"/></g><g><g><rect height="2" width="3" x="18" y="13"/><polygon points="12,12 12,14 10,14 10,18 12,18 12,20 17,20 17,12"/><polygon points="5,11 12,11 12,4 4,4 4,6 10,6 10,9 3,9 3,17 9,17 9,15 5,15"/><rect height="2" width="3" x="18" y="17"/></g></g></symbol>
<symbol id="electric_bike" viewBox="0 0 24 24"><g><rect fill="none" height="24" width="24"/></g><g><g><path d="M19,7h-0.82L16,1h-4v2h2.6l1.46,4h-4.81l-0.36-1H12V4H7v2h1.75l1.82,5H9.9C9.46,8.77,7.59,7.12,5.25,7.01 C2.45,6.87,0,9.2,0,12c0,2.8,2.2,5,5,5c2.46,0,4.45-1.69,4.9-4h4.2c0.44,2.23,2.31,3.88,4.65,3.99c2.8,0.13,5.25-2.19,5.25-5 C24,9.2,21.8,7,19,7z M7.82,13c-0.4,1.17-1.49,2-2.82,2c-1.68,0-3-1.32-3-3s1.32-3,3-3c1.33,0,2.42,0.83,2.82,2H5v2H7.82z M14.1,11h-1.4l-0.73-2H15C14.56,9.58,14.24,10.25,14.1,11z M19,15c-1.68,0-3-1.32-3-3c0-0.93,0.41-1.73,1.05-2.28l0.96,2.64 l1.88-0.68l-0.97-2.67C18.94,9.01,18.97,9,19,9c1.68,0,3,1.32,3,3S20.68,15,19,15z"/><polygon points="11,20 7,20 13,23 13,21 17,21 11,18"/></g></g></symbol>
<symbol id="electric_car" viewBox="0 0 24 24"><g><rect fill="none" height="24" width="24"/></g><g><path d="M18.58,1H5.43L3,8v9h3v-2h12v2h3V8L18.58,1z M6.5,12C5.67,12,5,11.33,5,10.5S5.67,9,6.5,9S8,9.67,8,10.5S7.33,12,6.5,12z M17.5,12c-0.83,0-1.5-0.67-1.5-1.5S16.67,9,17.5,9S19,9.67,19,10.5S18.33,12,17.5,12z M5,7l1.5-4.5h11L19,7H5z"/><polygon points="7,20 11,20 11,18 17,21 13,21 13,23"/></g></symbol>
<symbol id="electric_moped" viewBox="0 0 24 24"><g><rect fill="none" height="24" width="24"/></g><g><g><path d="M19,8.35V3h-5v2h3v2.65L13.52,12H10V7H6c-2.21,0-4,1.79-4,4v3h2c0,1.66,1.34,3,3,3s3-1.34,3-3h4.48L19,8.35z M7,15 c-0.55,0-1-0.45-1-1h2C8,14.55,7.55,15,7,15z"/><rect height="2" width="5" x="5" y="4"/><path d="M19,11c-1.66,0-3,1.34-3,3s1.34,3,3,3s3-1.34,3-3S20.66,11,19,11z M19,15c-0.55,0-1-0.45-1-1s0.45-1,1-1s1,0.45,1,1 S19.55,15,19,15z"/></g><polygon points="7,20 11,20 11,18 17,21 13,21 13,23"/></g></symbol>
<symbol id="electric_rickshaw" viewBox="0 0 24 24"><g><rect fill="none" height="24" width="24"/></g><g><path d="M21,11.18V9l-5-6H1v12h2.18C3.6,16.16,4.7,17,6,17s2.4-0.84,2.82-2h8.37c0.48,1.34,1.86,2.25,3.42,1.94 c1.16-0.23,2.11-1.17,2.33-2.33C23.25,13.05,22.34,11.66,21,11.18z M18.4,9H16V6.12L18.4,9z M3,5h4v4H3V5z M6,15 c-0.55,0-1-0.45-1-1s0.45-1,1-1s1,0.45,1,1S6.55,15,6,15z M9,13v-2h3V9H9V5h5v8H9z M20,15c-0.55,0-1-0.45-1-1s0.45-1,1-1 s1,0.45,1,1S20.55,15,20,15z"/><polygon points="7,20 11,20 11,18 17,21 13,21 13,23"/></g></symbol>
<symbol id="electric_scooter" viewBox="0 0 24 24"><g><rect fill="none" height="24" width="24"/></g><g><g><path d="M7.82,16H15v-1c0-2.21,1.79-4,4-4h0.74L17.49,1H12v2h3.89l1.4,6.25c0,0-0.01,0-0.01,0c-2.16,0.65-3.81,2.48-4.19,4.75 H7.82c-0.48-1.34-1.86-2.24-3.42-1.94c-1.18,0.23-2.13,1.2-2.35,2.38C1.7,16.34,3.16,18,5,18C6.3,18,7.4,17.16,7.82,16z M5,16 c-0.55,0-1-0.45-1-1s0.45-1,1-1s1,0.45,1,1S5.55,16,5,16z"/><path d="M19,12c-1.66,0-3,1.34-3,3s1.34,3,3,3s3-1.34,3-3S20.66,12,19,12z M19,16c-0.55,0-1-0.45-1-1s0.45-1,1-1s1,0.45,1,1 S19.55,16,19,16z"/><polygon points="11,20 7,20 13,23 13,21 17,21 11,18"/></g></g></symbol>
<symbol id="ev_station" viewBox="0 0 24 24"><path d="M0 0h24v24H0V0z" fill="none"/><path d="M19.77 7.23l.01-.01-3.72-3.72L15 4.56l2.11 2.11c-1.05.4-1.76 1.47-1.58 2.71.16 1.1 1.1 1.99 2.2 2.11.47.05.88-.03 1.27-.2v8.21h-2V12h-3V3H4v18h10v-7.5h1.5V21h5V9c0-.69-.28-1.32-.73-1.77zM18 10c-.55 0-1-.45-1-1s.45-1 1-1 1 .45 1 1-.45 1-1 1zM8 18v-4.5H6L10 6v5h2l-4 7z"/></symbol>
<symbol id="fastfood" viewBox="0 0 24 24"><path d="M0 0h24v24H0V0z" fill="none"/><path d="M18 5V1h-2v4h-5l.23 2.31C14.9 8.16 18 10.77 18 15l.02 8h3.18L23 5h-5zM1 21h15v2H1zM8.5 8.99C4.75 8.99 1 11 1 15h15c0-4-3.75-6.01-7.5-6.01zM1 17h15v2H1z"/></symbol>
<symbol id="flight" viewBox="0 0 24 24"><path d="M0 0h24v24H0V0z" fill="none"/><path d="M21 16v-2l-8-5V3.5c0-.83-.67-1.5-1.5-1.5S10 2.67 10 3.5V9l-8 5v2l8-2.5V19l-2 1.5V22l3.5-1 3.5 1v-1.5L13 19v-5.5l8 2.5z"/></symbol>
<symbol id="handyman" viewBox="0 0 24 24"><g><rect fill="none" height="24" width="24"/></g><g><g><g><path d="M16.37,12.87h-0.99l-2.54,2.54v0.99l6.01,6.01l3.54-3.54L16.37,12.87z"/></g><g><path d="M17.34,10.19l1.41-1.41l2.12,2.12c1.17-1.17,1.17-3.07,0-4.24l-3.54-3.54l-1.41,1.41V1.71L15.22,1l-3.54,3.54l0.71,0.71 h2.83l-1.41,1.41l1.06,1.06l-2.89,2.89L7.85,6.48V5.06L4.83,2.04L2,4.87l3.03,3.03h1.41l4.13,4.13l-0.85,0.85H7.6l-6.01,6.01 l3.54,3.54l6.01-6.01v-2.12l5.15-5.15L17.34,10.19z"/></g></g></g></symbol>
<symbol id="home_repair_service" viewBox="0 0 24 24"><g><rect fill="none" height="24" width="24"/></g><g><g><g><polygon points="18,16 16,16 16,15 8,15 8,16 6,16 6,15 2,15 2,20 22,20 22,15 18,15"/></g><path d="M17,8V4H7v4H2v6h4v-2h2v2h8v-2h2v2h4V8H17z M9,6h6v2H9V6z"/></g></g></symbol>
<symbol id="hotel" viewBox="0 0 24 24"><path d="M0 0h24v24H0V0z" fill="none"/><path d="M7 13c1.66 0 3-1.34 3-3S8.66 7 7 7s-3 1.34-3 3 1.34 3 3 3zm16-6H11v7H3V5H1v15h2v-3h18v3h2V7z"/></symbol>
<symbol id="hvac" viewBox="0 0 24 24"><g><rect fill="none" height="24" width="24"/></g><g><g><g><path d="M8.56,14h6.89c0.26-0.45,0.44-0.96,0.51-1.5h-7.9C8.12,13.04,8.29,13.55,8.56,14z"/></g><g><path d="M12,16c1.01,0,1.91-0.39,2.62-1H9.38C10.09,15.61,10.99,16,12,16z"/></g><g><path d="M12,8c-1.01,0-1.91,0.39-2.62,1h5.24C13.91,8.39,13.01,8,12,8z"/></g><g><path d="M8.56,10c-0.26,0.45-0.44,0.96-0.51,1.5h7.9c-0.07-0.54-0.24-1.05-0.51-1.5H8.56z"/></g><g><path d="M3,3v18h18V3H3z M12,18c-3.31,0-6-2.69-6-6s2.69-6,6-6s6,2.69,6,6S15.31,18,12,18z"/></g></g></g></symbol>
<symbol id="layers" viewBox="0 0 24 24"><path d="M0 0h24v24H0V0z" fill="none"/><path d="M11.99 18.54l-7.37-5.73L3 14.07l9 7 9-7-1.63-1.27-7.38 5.74zM12 16l7.36-5.73L21 9l-9-7-9 7 1.63 1.27L12 16z"/></symbol>
<symbol id="layers_clear" viewBox="0 0 24 24"><path d="M0 0h24v24H0V0z" fill="none"/><path d="M21 9l-9-7-2.59 2.02 7.87 7.87zm0 5.07l-1.63-1.27-.67.52 1.43 1.43zM3.41.86L2 2.27l4.22 4.22L3 9l9 7 2.1-1.63 1.42 1.42-3.53 2.75-7.37-5.73L3 14.07l9 7 4.95-3.85L20.73 21l1.41-1.41z"/></symbol>
<symbol id="local_activity" viewBox="0 0 24 24"><path d="M0 0h24v24H0V0z" fill="none"/><path d="M20 12c0-1.1.9-2 2-2V4H2.01v6c1.1 0 1.99.9 1.99 2s-.89 2-2 2v6h20v-6c-1.1 0-2-.9-2-2zm-4.42 4.8L12 14.5l-3.58 2.3 1.08-4.12-3.29-2.69 4.24-.25L12 5.8l1.54 3.95 4.24.25-3.29 2.69 1.09 4.11z"/></symbol>
<symbol id="local_airport" viewBox="0 0 24 24"><g><path d="M22,16v-2l-8.5-5V3.5C13.5,2.67,12.83,2,12,2s-1.5,0.67-1.5,1.5V9L2,14v2l8.5-2.5V19L8,20.5L8,22l4-1l4,1l0-1.5L13.5,19 v-5.5L22,16z"/><path d="M0,0h24v24H0V0z" fill="none"/></g></symbol>
<symbol id="local_atm" viewBox="0 0 24 24"><path d="M0 0h24v24H0V0z" fill="none"/><path d="M11 17h2v-1h2v-5h-4v-1h4V8h-2V7h-2v1H9v5h4v1H9v2h2v1zM22 4H2.01L2 20h20V4zm-2 14H4V6h16v12z"/></symbol>
<symbol id="local_bar" viewBox="0 0 24 24"><path d="M0 0h24v24H0V0z" fill="none"/><path d="M21 5V3H3v2l8 9v5H6v2h12v-2h-5v-5l8-9zM7.43 7L5.66 5h12.69l-1.78 2H7.43z"/></symbol>
<symbol id="local_cafe" viewBox="0 0 24 24"><path d="M0 0h24v24H0V0z" fill="none"/><path d="M20 3H4v14h14v-7h2c1.1 0 2-.9 2-2V5c0-1.1-.9-2-2-2zm0 5h-2V5h2v3zM2 21h18v-2H2v2z"/></symbol>
<symbol id="local_car_wash" viewBox="0 0 24 24"><path d="M0 0h24v24H0V0z" fill="none"/><path d="M18.58 7H5.43L3 14v9h3v-2h12v2h3v-9l-2.42-7zM6.5 18c-.83 0-1.5-.67-1.5-1.5S5.67 15 6.5 15s1.5.67 1.5 1.5S7.33 18 6.5 18zm11 0c-.83 0-1.5-.67-1.5-1.5s.67-1.5 1.5-1.5 1.5.67 1.5 1.5-.67 1.5-1.5 1.5zM5 13l1.5-4.5h11L19 13H5zm12-8c.83 0 1.5-.67 1.5-1.5 0-1-1.5-2.7-1.5-2.7s-1.5 1.7-1.5 2.7c0 .83.67 1.5 1.5 1.5zm-5 0c.83 0 1.5-.67 1.5-1.5 0-1-1.5-2.7-1.5-2.7s-1.5 1.7-1.5 2.7c0 .83.67 1.5 1.5 1.5zM7 5c.83 0 1.5-.67 1.5-1.5C8.5 2.5 7 .8 7 .8S5.5 2.5 5.5 3.5C5.5 4.33 6.17 5 7 5z"/></symbol>
<symbol id="local_convenience_store" viewBox="0 0 24 24"><path d="M0 0h24v24H0V0z" fill="none"/><path d="M19 7V4H5v3H2v13h8v-4h4v4h8V7h-3zm-8 3H9v1h2v1H8V9h2V8H8V7h3v3zm5 2h-1v-2h-2V7h1v2h1V7h1v5z"/></symbol>
<symbol id="local_dining" viewBox="0 0 24 24"><path d="M0 0h24v24H0V0z" fill="none"/><path d="M8.1 13.34l2.83-2.83L3.91 3.5c-1.56 1.56-1.56 4.09 0 5.66l4.19 4.18zm6.78-1.81c1.53.71 3.68.21 5.27-1.38 1.91-1.91 2.28-4.65.81-6.12-1.46-1.46-4.2-1.1-6.12.81-1.59 1.59-2.09 3.74-1.38 5.27L3.7 19.87l1.41 1.41L12 14.41l6.88 6.88 1.41-1.41L13.41 13l1.47-1.47z"/></symbol>
<symbol id="local_drink" viewBox="0 0 24 24"><path d="M0 0h24v24H0V0z" fill="none"/><path d="M3 2l2.21 20H18.8L21 2H3zm9 17c-1.66 0-3-1.34-3-3 0-2 3-5.4 3-5.4s3 3.4 3 5.4c0 1.66-1.34 3-3 3zm6.33-11H5.67l-.44-4h13.53l-.43 4z"/></symbol>
<symbol id="local_fire_department" viewBox="0 0 24 24"><g><rect fill="none" height="24" width="24" y="0"/></g><g><path d="M19.48,12.37C17.82,8.05,11.65,8,13.99,0.99C9.52,3,5.98,8.17,9.48,15C4.53,12.92,6.7,7.71,6.7,7.71S4,9.37,4,14.39 c0.38,5.6,5.11,7.32,6.81,7.54c2.43,0.31,5.06-0.14,6.95-1.87C19.84,18.13,20.6,15.05,19.48,12.37z M10.2,17.4 c1.44-0.35,2.18-1.39,2.38-2.31c0.33-1.43-0.96-2.83-0.09-5.09c0.33,1.87,3.27,3.04,3.27,5.08C15.84,17.61,13.1,19.78,10.2,17.4z"/></g></symbol>
<symbol id="local_florist" viewBox="0 0 24 24"><path d="M0 0h24v24H0V0z" fill="none"/><path d="M12 22c4.97 0 9-4.03 9-9-4.97 0-9 4.03-9 9zM5.6 10.25c0 1.38 1.12 2.5 2.5 2.5.53 0 1.01-.16 1.42-.44l-.02.19c0 1.38 1.12 2.5 2.5 2.5s2.5-1.12 2.5-2.5l-.02-.19c.4.28.89.44 1.42.44 1.38 0 2.5-1.12 2.5-2.5 0-1-.59-1.85-1.43-2.25.84-.4 1.43-1.25 1.43-2.25 0-1.38-1.12-2.5-2.5-2.5-.53 0-1.01.16-1.42.44l.02-.19C14.5 2.12 13.38 1 12 1S9.5 2.12 9.5 3.5l.02.19c-.4-.28-.89-.44-1.42-.44-1.38 0-2.5 1.12-2.5 2.5 0 1 .59 1.85 1.43 2.25-.84.4-1.43 1.25-1.43 2.25zM12 5.5c1.38 0 2.5 1.12 2.5 2.5s-1.12 2.5-2.5 2.5S9.5 9.38 9.5 8s1.12-2.5 2.5-2.5zM3 13c0 4.97 4.03 9 9 9 0-4.97-4.03-9-9-9z"/></symbol>
<symbol id="local_gas_station" viewBox="0 0 24 24"><path d="M0 0h24v24H0V0z" fill="none"/><path d="M19.77 7.23l.01-.01-3.72-3.72L15 4.56l2.11 2.11c-1.05.4-1.76 1.47-1.58 2.71.16 1.1 1.1 1.99 2.2 2.11.47.05.88-.03 1.27-.2v8.21h-2V12h-3V3H4v18h10v-7.5h1.5v7.49h5V9c0-.69-.28-1.32-.73-1.77zM12 10H6V5h6v5zm6 0c-.55 0-1-.45-1-1s.45-1 1-1 1 .45 1 1-.45 1-1 1z"/></symbol>
<symbol id="local_grocery_store" viewBox="0 0 24 24"><path d="M0 0h24v24H0V0z" fill="none"/><path d="M7 18c-1.1 0-1.99.9-1.99 2S5.9 22 7 22s2-.9 2-2-.9-2-2-2zM1 4h2l3.6 7.59L3.62 17H19v-2H7l1.1-2h8.64l4.97-9H5.21l-.94-2H1v2zm16 14c-1.1 0-1.99.9-1.99 2s.89 2 1.99 2 2-.9 2-2-.9-2-2-2z"/></symbol>
<symbol id="local_hospital" viewBox="0 0 24 24"><path d="M0 0h24v24H0V0z" fill="none"/><path d="M21 3H3.01L3 21h18V3zm-3 11h-4v4h-4v-4H6v-4h4V6h4v4h4v4z"/></symbol>
<symbol id="local_hotel" viewBox="0 0 24 24"><path d="M0 0h24v24H0V0z" fill="none"/><path d="M7 13c1.66 0 3-1.34 3-3S8.66 7 7 7s-3 1.34-3 3 1.34 3 3 3zm16-6H11v7H3V5H1v15h2v-3h18v3h2V7z"/></symbol>
<symbol id="local_laundry_service" viewBox="0 0 24 24"><path d="M0 0h24v24H0V0z" fill="none"/><path d="M9.17 16.83c1.56 1.56 4.1 1.56 5.66 0s1.56-4.1 0-5.66l-5.66 5.66zM20 2.01L4 2v20h16V2.01zM10 4c.55 0 1 .45 1 1s-.45 1-1 1-1-.45-1-1 .45-1 1-1zM7 4c.55 0 1 .45 1 1s-.45 1-1 1-1-.45-1-1 .45-1 1-1zm5 16c-3.31 0-6-2.69-6-6s2.69-6 6-6 6 2.69 6 6-2.69 6-6 6z"/></symbol>
<symbol id="local_library" viewBox="0 0 24 24"><path d="M0 0h24v24H0V0z" fill="none"/><path d="M12 11.55C9.64 9.35 6.48 8 3 8v11c3.48 0 6.64 1.35 9 3.55 2.36-2.19 5.52-3.55 9-3.55V8c-3.48 0-6.64 1.35-9 3.55zM12 8c1.66 0 3-1.34 3-3s-1.34-3-3-3-3 1.34-3 3 1.34 3 3 3z"/></symbol>
<symbol id="local_mall" viewBox="0 0 24 24"><path d="M0 0h24v24H0V0z" fill="none"/><path d="M21 6h-4c0-2.76-2.24-5-5-5S7 3.24 7 6H3v16h18V6zm-9-3c1.66 0 3 1.34 3 3H9c0-1.66 1.34-3 3-3zm0 10c-2.76 0-5-2.24-5-5h2c0 1.66 1.34 3 3 3s3-1.34 3-3h2c0 2.76-2.24 5-5 5z"/></symbol>
<symbol id="local_movies" viewBox="0 0 24 24"><path d="M0 0h24v24H0V0z" fill="none"/><path d="M18 3v2h-2V3H8v2H6V3H4v18h2v-2h2v2h8v-2h2v2h2V3h-2zM8 17H6v-2h2v2zm0-4H6v-2h2v2zm0-4H6V7h2v2zm10 8h-2v-2h2v2zm0-4h-2v-2h2v2zm0-4h-2V7h2v2z"/></symbol>
<symbol id="local_offer" viewBox="0 0 24 24"><path d="M0 0h24v24H0V0z" fill="none"/><path d="M22.83 12.99L11.83 2H2v9.83l10.99 10.99 9.84-9.83zM5.5 7C4.67 7 4 6.33 4 5.5S4.67 4 5.5 4 7 4.67 7 5.5 6.33 7 5.5 7z"/></symbol>
<symbol id="local_parking" viewBox="0 0 24 24"><path d="M0 0h24v24H0V0z" fill="none"/><path d="M13 3H6v18h4v-6h3c3.31 0 6-2.69 6-6s-2.69-6-6-6zm.2 8H10V7h3.2c1.1 0 2 .9 2 2s-.9 2-2 2z"/></symbol>
<symbol id="local_pharmacy" viewBox="0 0 24 24"><path d="M0 0h24v24H0V0z" fill="none"/><path d="M21 5h-2.64l1.14-3.14L17.15 1l-1.46 4H3v2l2 6-2 6v2h18v-2l-2-6 2-6V5zm-5 9h-3v3h-2v-3H8v-2h3V9h2v3h3v2z"/></symbol>
<symbol id="local_phone" viewBox="0 0 24 24"><path d="M0 0h24v24H0V0z" fill="none"/><path d="M21 15.46l-5.27-.61-2.52 2.52c-2.83-1.44-5.15-3.75-6.59-6.59l2.53-2.53L8.54 3H3.03C2.45 13.18 10.82 21.55 21 20.97v-5.51z"/></symbol>
<symbol id="local_pizza" viewBox="0 0 24 24"><path d="M0 0h24v24H0V0z" fill="none"/><path d="M12 2C8.43 2 5.23 3.54 3.01 6L12 22l8.99-16C18.78 3.55 15.57 2 12 2zM7 7c0-1.1.9-2 2-2s2 .9 2 2-.9 2-2 2-2-.9-2-2zm5 8c-1.1 0-2-.9-2-2s.9-2 2-2 2 .9 2 2-.9 2-2 2z"/></symbol>
<symbol id="local_play" viewBox="0 0 24 24"><path d="M0 0h24v24H0V0z" fill="none"/><path d="M20 12c0-1.1.9-2 2-2V4H2.01v6c1.1 0 1.99.9 1.99 2s-.89 2-2 2v6h20v-6c-1.1 0-2-.9-2-2zm-4.42 4.8L12 14.5l-3.58 2.3 1.08-4.12-3.29-2.69 4.24-.25L12 5.8l1.54 3.95 4.24.25-3.29 2.69 1.09 4.11z"/></symbol>
<symbol id="local_police" viewBox="0 0 24 24"><rect fill="none" height="24" width="24"/><path d="M14.5,12.59l0.9,3.88L12,14.42l-3.4,2.05l0.9-3.87l-3-2.59l3.96-0.34L12,6.02l1.54,3.64L17.5,10L14.5,12.59z M3,5v6 c0,5.55,3.84,10.74,9,12c5.16-1.26,9-6.45,9-12V5l-9-4L3,5z"/></symbol>
<symbol id="local_post_office" viewBox="0 0 24 24"><path d="M0 0h24v24H0V0z" fill="none"/><path d="M22 4H2.01v16H22V4zm-2 4l-8 5-8-5V6l8 5 8-5v2z"/></symbol>
<symbol id="local_printshop" viewBox="0 0 24 24"><path d="M0 0h24v24H0V0z" fill="none"/><path d="M2 8v9h4v4h12v-4h4V8H2zm14 11H8v-5h8v5zm3-7c-.55 0-1-.45-1-1s.45-1 1-1 1 .45 1 1-.45 1-1 1zm-1-9H6v4h12V3z"/></symbol>
<symbol id="local_see" viewBox="0 0 24 24"><path d="M0 0h24v24H0V0z" fill="none"/><circle cx="12" cy="12" r="3.2"/><path d="M22 4h-5.17L15 2H9L7.17 4H2v16h20V4zM12 17c-2.76 0-5-2.24-5-5s2.24-5 5-5 5 2.24 5 5-2.24 5-5 5z"/></symbol>
<symbol id="local_shipping" viewBox="0 0 24 24"><path d="M0 0h24v24H0V0z" fill="none"/><path d="M20 8h-3V4H1v13h2c0 1.66 1.34 3 3 3s3-1.34 3-3h6c0 1.66 1.34 3 3 3s3-1.34 3-3h2v-5l-3-4zM6 18c-.55 0-1-.45-1-1s.45-1 1-1 1 .45 1 1-.45 1-1 1zm13.5-8.5l1.96 2.5H17V9.5h2.5zM18 18c-.55 0-1-.45-1-1s.45-1 1-1 1 .45 1 1-.45 1-1 1z"/></symbol>
<symbol id="local_taxi" viewBox="0 0 24 24"><path d="M0 0h24v24H0V0z" fill="none"/><path d="M18.58 5H15V3H9v2H5.43L3 12v9h3v-2h12v2h3v-9l-2.42-7zM6.5 16c-.83 0-1.5-.67-1.5-1.5S5.67 13 6.5 13s1.5.67 1.5 1.5S7.33 16 6.5 16zm11 0c-.83 0-1.5-.67-1.5-1.5s.67-1.5 1.5-1.5 1.5.67 1.5 1.5-.67 1.5-1.5 1.5zM5 11l1.5-4.5h11L19 11H5z"/></symbol>
<symbol id="map" viewBox="0 0 24 24"><path d="M0 0h24v24H0V0z" fill="none"/><path d="M15 5.1L9 3 3 5.02v16.2l6-2.33 6 2.1 6-2.02V2.77L15 5.1zm0 13.79l-6-2.11V5.11l6 2.11v11.67z"/></symbol>
<symbol id="maps_ugc" viewBox="0 0 24 24"><rect fill="none" fill-rule="evenodd" height="24" width="24" y="0"/><g><path d="M12,4c4.41,0,8,3.59,8,8s-3.59,8-8,8c-1.18,0-2.34-0.26-3.43-0.78c-0.27-0.13-0.56-0.19-0.86-0.19 c-0.19,0-0.38,0.03-0.56,0.08l-3.2,0.94l0.94-3.2c0.14-0.47,0.1-0.98-0.11-1.42C4.26,14.34,4,13.18,4,12C4,7.59,7.59,4,12,4 M12,2 C6.48,2,2,6.48,2,12c0,1.54,0.36,2.98,0.97,4.29L1,23l6.71-1.97C9.02,21.64,10.46,22,12,22c5.52,0,10-4.48,10-10 C22,6.48,17.52,2,12,2L12,2z"/></g><polygon fill-rule="evenodd" points="13,8 11,8 11,11 8,11 8,13 11,13 11,16 13,16 13,13 16,13 16,11 13,11"/></symbol>
<symbol id="medical_services" viewBox="0 0 24 24"><g><rect fill="none" height="24" width="24"/></g><g><g><path d="M16,6V2H8v4H2v16h20V6H16z M10,4h4v2h-4V4z M16,15h-3v3h-2v-3H8v-2h3v-3h2v3h3V15z"/></g></g></symbol>
<symbol id="menu_book" viewBox="0 0 24 24"><g><rect fill="none" height="24" width="24"/></g><g><g/><path d="M21,5c-1.11-0.35-2.33-0.5-3.5-0.5c-1.95,0-4.05,0.4-5.5,1.5c-1.45-1.1-3.55-1.5-5.5-1.5S2.45,4.9,1,6v15.5 C2.45,20.4,4.55,20,6.5,20s4.05,0.4,5.5,1.5c1.45-1.1,3.55-1.5,5.5-1.5c1.17,0,2.39,0.15,3.5,0.5c0.75,0.25,1.4,0.55,2,1V6 C22.4,5.55,21.75,5.25,21,5z M21,18.5c-1.1-0.35-2.3-0.5-3.5-0.5c-1.7,0-4.15,0.65-5.5,1.5V8c1.35-0.85,3.8-1.5,5.5-1.5 c1.2,0,2.4,0.15,3.5,0.5V18.5z"/><g><path d="M17.5,10.5c0.88,0,1.73,0.09,2.5,0.26V9.24C19.21,9.09,18.36,9,17.5,9c-1.7,0-3.24,0.29-4.5,0.83v1.66 C14.13,10.85,15.7,10.5,17.5,10.5z"/><path d="M13,12.49v1.66c1.13-0.64,2.7-0.99,4.5-0.99c0.88,0,1.73,0.09,2.5,0.26V11.9c-0.79-0.15-1.64-0.24-2.5-0.24 C15.8,11.66,14.26,11.96,13,12.49z"/><path d="M17.5,14.33c-1.7,0-3.24,0.29-4.5,0.83v1.66c1.13-0.64,2.7-0.99,4.5-0.99c0.88,0,1.73,0.09,2.5,0.26v-1.52 C19.21,14.41,18.36,14.33,17.5,14.33z"/></g></g></symbol>
<symbol id="miscellaneous_services" viewBox="0 0 24 24"><g><rect fill="none" height="24" width="24"/></g><g><g><path d="M14.02,13.97l1.7-2.94c0,0-0.09-0.08-0.23-0.18l-1.47-1.16l-0.01,0.02c0.03-0.24,0.05-0.47,0.05-0.71S14.04,8.53,14,8.31 l0.01,0.01l1.71-1.34l-1.7-2.95l-2.01,0.81v0.01c-0.37-0.28-0.77-0.52-1.2-0.7h0.01L10.52,2H7.11L6.8,4.15h0.01 c-0.43,0.18-0.83,0.42-1.2,0.7V4.84L3.6,4.03L1.9,6.98l1.7,1.34l0.01-0.01C3.58,8.53,3.56,8.76,3.56,9s0.02,0.47,0.05,0.71 L3.6,9.69l-1.47,1.16C2,10.95,1.9,11.03,1.9,11.03l1.7,2.94l2.02-0.8L5.6,13.14c0.37,0.29,0.77,0.53,1.21,0.71H6.8L7.11,16h3.4 c0,0,0.02-0.13,0.04-0.3l0.27-1.85h-0.01c0.44-0.18,0.84-0.42,1.21-0.71L12,13.17L14.02,13.97z M8.81,11c-1.1,0-2-0.9-2-2 s0.9-2,2-2s2,0.9,2,2S9.91,11,8.81,11z"/><path d="M20.98,17.94l-0.01,0.01C20.99,17.8,21,17.65,21,17.5c0-0.15-0.01-0.3-0.04-0.44l0.01,0.01l1.1-0.86l-1.09-1.9l-1.29,0.52 v0.01c-0.24-0.18-0.49-0.33-0.77-0.45h0.01L18.73,13h-2.19l-0.2,1.38h0.01c-0.28,0.12-0.53,0.27-0.77,0.45v-0.01l-1.29-0.52 l-1.09,1.9l1.09,0.86l0.01-0.01c-0.02,0.14-0.03,0.29-0.03,0.44c0,0.15,0.01,0.3,0.03,0.46l-0.01-0.01l-0.94,0.75 c-0.08,0.06-0.15,0.12-0.15,0.12l1.09,1.89l1.3-0.51l-0.01-0.02c0.24,0.19,0.5,0.34,0.78,0.46h-0.01l0.2,1.38h2.19 c0,0,0.01-0.08,0.03-0.19l0.17-1.19h-0.01c0.28-0.12,0.54-0.27,0.78-0.46l-0.01,0.02l1.3,0.51l1.09-1.89c0,0-0.06-0.05-0.15-0.12 L20.98,17.94z M17.63,18.79c-0.71,0-1.29-0.58-1.29-1.29s0.58-1.29,1.29-1.29s1.29,0.58,1.29,1.29S18.34,18.79,17.63,18.79z"/></g></g></symbol>
<symbol id="money" viewBox="0 0 24 24"><path d="M0 0h24v24H0V0z" fill="none"/><path d="M14 16h5V8h-5v8zm2-6h1v4h-1v-4zm-8 6h5V8H8v8zm2-6h1v4h-1v-4zM5 8h2v8H5zM2 4v16h20V4H2zm18 14H4V6h16v12z"/></symbol>
<symbol id="moped" viewBox="0 0 24 24"><g><rect fill="none" height="24" width="24"/></g><g><g><path d="M19,10.35V5h-5v2h3v2.65L13.52,14H10V9H6c-2.21,0-4,1.79-4,4v3h2c0,1.66,1.34,3,3,3s3-1.34,3-3h4.48L19,10.35z M7,17 c-0.55,0-1-0.45-1-1h2C8,16.55,7.55,17,7,17z"/><rect height="2" width="5" x="5" y="6"/><path d="M19,13c-1.66,0-3,1.34-3,3s1.34,3,3,3s3-1.34,3-3S20.66,13,19,13z M19,17c-0.55,0-1-0.45-1-1s0.45-1,1-1s1,0.45,1,1 S19.55,17,19,17z"/></g></g></symbol>
<symbol id="multiple_stop" viewBox="0 0 24 24"><g><rect fill="none" height="24" width="24"/><path d="M17,4l4,4l-4,4V9h-4V7h4V4z M7,17h4v-2H7v-3l-4,4l4,4V17z M19,15h-2v2h2V15z M15,15h-2v2h2V15z M11,7H9v2h2V7z M7,7H5v2h2 V7z"/></g></symbol>
<symbol id="museum" viewBox="0 0 24 24"><g><rect fill="none" height="24" width="24"/></g><g><path d="M22,11V9L12,2L2,9v2h2v9H2v2h20v-2h-2v-9H22z M16,18h-2v-4l-2,3l-2-3v4H8v-7h2l2,3l2-3h2V18z"/></g></symbol>
<symbol id="my_location" viewBox="0 0 24 24"><path d="M0 0h24v24H0V0z" fill="none"/><path d="M12 8c-2.21 0-4 1.79-4 4s1.79 4 4 4 4-1.79 4-4-1.79-4-4-4zm8.94 3c-.46-4.17-3.77-7.48-7.94-7.94V1h-2v2.06C6.83 3.52 3.52 6.83 3.06 11H1v2h2.06c.46 4.17 3.77 7.48 7.94 7.94V23h2v-2.06c4.17-.46 7.48-3.77 7.94-7.94H23v-2h-2.06zM12 19c-3.87 0-7-3.13-7-7s3.13-7 7-7 7 3.13 7 7-3.13 7-7 7z"/></symbol>
<symbol id="navigation" viewBox="0 0 24 24"><path d="M0 0h24v24H0V0z" fill="none"/><path d="M12 2L4.5 20.29l.71.71L12 18l6.79 3 .71-.71L12 2z"/></symbol>
<symbol id="near_me" viewBox="0 0 24 24"><path d="M0 0h24v24H0V0z" fill="none"/><path d="M21 3L3 10.53v.98l6.84 2.65L12.48 21h.98L21 3z"/></symbol>
<symbol id="near_me_disabled" viewBox="0 0 24 24"><rect fill="none" height="24" width="24"/><path d="M12,6.34L21,3l-3.34,9L12,6.34z M22.61,19.78L4.22,1.39L2.81,2.81l5.07,5.07L3,9.69v1.41l7.07,2.83L12.9,21h1.41l1.81-4.88 l5.07,5.07L22.61,19.78z"/></symbol>
<symbol id="not_listed_location" viewBox="0 0 24 24"><path d="M0 0h24v24H0z" fill="none"/><path d="M12.01 16a.99.99 0 0 0 1-1 .99.99 0 0 0-1-1c-.28 0-.51.1-.71.29-.2.19-.3.43-.3.7s.1.51.29.71c.2.2.44.3.72.3zm-.88-3.66V13h1.85v-.42c0-.33.06-.6.18-.81.12-.21.33-.47.65-.77.4-.38.68-.75.89-1.09.19-.35.3-.76.3-1.25s-.13-.94-.39-1.35a2.57 2.57 0 0 0-1.05-.96C13.11 6.12 12.58 6 12 6c-.78 0-1.51.32-2.03.79C9.46 7.27 9 7.99 9 9h1.68c0-.52.19-.77.4-.98.21-.2.58-.3.96-.3.35 0 .64.1.85.3.21.2.32.45.32.74 0 .24-.06.46-.19.64-.13.19-.33.41-.61.66-.48.42-.81.79-1 1.12-.19.33-.28.71-.28 1.16zM12 2c4.2 0 8 3.22 8 8.2 0 3.32-2.67 7.25-8 11.8-5.33-4.55-8-8.48-8-11.8C4 5.22 7.8 2 12 2z"/></symbol>
<symbol id="no_meals" viewBox="0 0 24 24"><rect fill="none" height="24" width="24"/><path d="M16,14V6c0-1.76,2.24-4,5-4v16.17l-2-2V14H16z M20.49,23.31L10.02,12.85C9.69,12.94,9.36,13,9,13v9H7v-9c-2.21,0-4-1.79-4-4 V5.83L0.69,3.51L2.1,2.1l19.8,19.8L20.49,23.31z M6.17,9L5,7.83V9H6.17z M9,2H7v2.17l2,2V2z M13,9V2h-2v6.17l1.85,1.85 C12.94,9.69,13,9.36,13,9z"/></symbol>
<symbol id="no_transfer" viewBox="0 0 24 24"><rect fill="none" height="24" width="24"/><path d="M5.78,2.95C7.24,2.16,9.48,2,12,2c4.42,0,8,0.5,8,4v10c0,0.35-0.08,0.67-0.19,0.98L13.83,11H18V6H8.83L5.78,2.95z M19.78,22.61L18.17,21H16v-2H8v2H5v-2.78C4.39,17.67,4,16.88,4,16V6.83L1.39,4.22l1.41-1.41l18.38,18.38L19.78,22.61z M9,15.5 C9,14.67,8.33,14,7.5,14S6,14.67,6,15.5C6,16.33,6.67,17,7.5,17S9,16.33,9,15.5z M8.17,11L6,8.83V11H8.17z"/></symbol>
<symbol id="pedal_bike" viewBox="0 0 24 24"><g><rect fill="none" height="24" width="24"/></g><g><path d="M18.18,10L16,4h-4v2h2.6l1.46,4h-4.81l-0.36-1H12V7H7v2h1.75l1.82,5H9.9c-0.44-2.23-2.31-3.88-4.65-3.99 C2.45,9.87,0,12.2,0,15c0,2.8,2.2,5,5,5c2.46,0,4.45-1.69,4.9-4h4.2c0.44,2.23,2.31,3.88,4.65,3.99c2.8,0.13,5.25-2.19,5.25-5 c0-2.8-2.2-5-5-5H18.18z M7.82,16c-0.4,1.17-1.49,2-2.82,2c-1.68,0-3-1.32-3-3s1.32-3,3-3c1.33,0,2.42,0.83,2.82,2H5v2H7.82z M14.1,14h-1.4l-0.73-2H15C14.56,12.58,14.24,13.25,14.1,14z M19,18c-1.68,0-3-1.32-3-3c0-0.93,0.41-1.73,1.05-2.28l0.96,2.64 l1.88-0.68l-0.97-2.67c0.03,0,0.06-0.01,0.09-0.01c1.68,0,3,1.32,3,3S20.68,18,19,18z"/></g></symbol>
<symbol id="person_pin" viewBox="0 0 24 24"><path d="M0 0h24v24H0V0z" fill="none"/><path d="M21 2H3v18h6l3 3 3-3h6V2zm-9 3.3c1.49 0 2.7 1.21 2.7 2.7s-1.21 2.7-2.7 2.7S9.3 9.49 9.3 8s1.21-2.7 2.7-2.7zM18 16H6v-.9c0-2 4-3.1 6-3.1s6 1.1 6 3.1v.9z"/></symbol>
<symbol id="person_pin_circle" viewBox="0 0 24 24"><path d="M0 0h24v24H0z" fill="none"/><path d="M12 11c-1.33 0-4 .67-4 2v.16c.97 1.12 2.4 1.84 4 1.84s3.03-.72 4-1.84V13c0-1.33-2.67-2-4-2zm0-1c1.1 0 2-.9 2-2s-.9-2-2-2-2 .9-2 2 .9 2 2 2zm0-8c4.2 0 8 3.22 8 8.2 0 3.32-2.67 7.25-8 11.8-5.33-4.55-8-8.48-8-11.8C4 5.22 7.8 2 12 2z"/></symbol>
<symbol id="pest_control" viewBox="0 0 24 24"><g><rect fill="none" height="24" width="24"/></g><g><g><path d="M21,15v-2h-3.07c-0.05-0.39-0.12-0.77-0.22-1.14l2.58-1.49l-1-1.73L16.92,10c-0.28-0.48-0.62-0.91-0.99-1.29 C15.97,8.48,16,8.25,16,8c0-0.8-0.24-1.55-0.65-2.18L17,4.17l-1.41-1.41l-1.72,1.72c-1.68-0.89-3.1-0.33-3.73,0L8.41,2.76L7,4.17 l1.65,1.65C8.24,6.45,8,7.2,8,8c0,0.25,0.03,0.48,0.07,0.72C7.7,9.1,7.36,9.53,7.08,10L4.71,8.63l-1,1.73l2.58,1.49 c-0.1,0.37-0.17,0.75-0.22,1.14H3v2h3.07c0.05,0.39,0.12,0.77,0.22,1.14l-2.58,1.49l1,1.73L7.08,18c1.08,1.81,2.88,3,4.92,3 s3.84-1.19,4.92-3l2.37,1.37l1-1.73l-2.58-1.49c0.1-0.37,0.17-0.75,0.22-1.14H21z M13,17h-2v-6h2V17z"/></g></g></symbol>
<symbol id="pest_control_rodent" viewBox="0 0 24 24"><g><rect fill="none" height="24" width="24"/></g><g><path d="M21.31,17.38l-2.39-2.13C19.44,12.89,17.56,11,15.5,11c-1.16,0-3.5,0.9-3.5,3.5c0,0.97,0.39,1.84,1.03,2.47l-0.71,0.71 C11.5,16.87,11,15.74,11,14.5c0-1.7,0.96-3.17,2.35-3.93c-0.7-0.36-1.48-0.57-2.28-0.57c-2.38,0-4.37,1.65-4.91,3.87 C4.91,13.5,4,12.36,4,11c0-1.66,1.34-3,3-3c0.94,0,1.56,0,2.5,0C10.88,8,12,6.88,12,5.5C12,4.12,10.88,3,9.5,3H7v2h2.5 C9.78,5,10,5.22,10,5.5C10,5.78,9.78,6,9.5,6C9.47,6,9,6,7,6c-2.76,0-5,2.24-5,5c0,2.42,1.72,4.44,4,4.9v0.03 C6,18.73,8.27,21,11.07,21h8.86C21.8,21,22.74,18.66,21.31,17.38z M18,19c-0.55,0-1-0.45-1-1c0-0.55,0.45-1,1-1s1,0.45,1,1 C19,18.55,18.55,19,18,19z"/></g></symbol>
<symbol id="pin_drop" viewBox="0 0 24 24"><path d="M0 0h24v24H0z" fill="none"/><path d="M5 20h14v2H5v-2zm7-13c-1.1 0-2 .9-2 2s.9 2 2 2a2 2 0 1 0 0-4zm0-5c3.27 0 7 2.46 7 7.15 0 3.12-2.33 6.41-7 9.85-4.67-3.44-7-6.73-7-9.85C5 4.46 8.73 2 12 2z" fill-rule="evenodd"/></symbol>
<symbol id="place" viewBox="0 0 24 24"><path d="M0 0h24v24H0z" fill="none"/><path d="M12 12c-1.1 0-2-.9-2-2s.9-2 2-2 2 .9 2 2-.9 2-2 2zm0-10c-4.2 0-8 3.22-8 8.2 0 3.32 2.67 7.25 8 11.8 5.33-4.55 8-8.48 8-11.8C20 5.22 16.2 2 12 2z"/></symbol>
<symbol id="plumbing" viewBox="0 0 24 24"><g><rect fill="none" height="24" width="24"/></g><g><g><path d="M16.16,5.64l3.54,3.54c1.17-1.17,1.17-3.07,0-4.24l-3.54-3.54l-4.24,4.24l2.12,2.12L16.16,5.64z"/><rect height="3" transform="matrix(0.7071 -0.7071 0.7071 0.7071 -6.2383 8.9393)" width="5" x="5.17" y="10.5"/><path d="M15.45,7.76l-1.41,1.41L9.79,4.93L7.67,7.05l4.24,4.24l-8.49,8.49l2.83,2.83L16.86,12l0.71,0.71l1.41-1.41L15.45,7.76z"/></g></g></symbol>
<symbol id="rate_review" viewBox="0 0 24 24"><path d="M0 0h24v24H0V0z" fill="none"/><path d="M22 2H2v20l4-4h16V2zM6 14v-2.47l6.88-6.88c.2-.2.51-.2.71 0l1.77 1.77c.2.2.2.51 0 .71L8.47 14H6zm12 0h-7.5l2-2H18v2z"/></symbol>
<symbol id="restaurant" viewBox="0 0 24 24"><path d="M0 0h24v24H0V0z" fill="none"/><path d="M16 6v8h3v8h2V2c-2.76 0-5 2.24-5 4zm-5 3H9V2H7v7H5V2H3v7c0 2.21 1.79 4 4 4v9h2v-9c2.21 0 4-1.79 4-4V2h-2v7z"/></symbol>
<symbol id="restaurant_menu" viewBox="0 0 24 24"><path d="M0 0h24v24H0V0z" fill="none"/><path d="M8.1 13.34l2.83-2.83L3.91 3.5c-1.56 1.56-1.56 4.09 0 5.66l4.19 4.18zm6.78-1.81c1.53.71 3.68.21 5.27-1.38 1.91-1.91 2.28-4.65.81-6.12-1.46-1.46-4.2-1.1-6.12.81-1.59 1.59-2.09 3.74-1.38 5.27L3.7 19.87l1.41 1.41L12 14.41l6.88 6.88 1.41-1.41L13.41 13l1.47-1.47z"/></symbol>
<symbol id="run_circle" viewBox="0 0 24 24"><g><rect fill="none" height="24" width="24"/></g><g><path d="M12,2C6.48,2,2,6.48,2,12c0,5.52,4.48,10,10,10s10-4.48,10-10C22,6.48,17.52,2,12,2z M13.5,6c0.55,0,1,0.45,1,1 c0,0.55-0.45,1-1,1s-1-0.45-1-1C12.5,6.45,12.95,6,13.5,6z M16,12c-0.7,0-2.01-0.54-2.91-1.76l-0.41,2.35L14,14.03V18h-1v-3.58 l-1.11-1.21l-0.52,2.64L7.6,15.08l0.2-0.98l2.78,0.57l0.96-4.89L10,10.35V12H9V9.65l3.28-1.21c0.49-0.18,1.03,0.06,1.26,0.53 C14.37,10.67,15.59,11,16,11V12z"/></g></symbol>
<symbol id="satellite" viewBox="0 0 24 24"><path d="M0 0h24v24H0V0z" fill="none"/><path d="M21 3H3v18h18V3zM5 4.99h3C8 6.65 6.66 8 5 8V4.99zM5 12v-2c2.76 0 5-2.25 5-5.01h2C12 8.86 8.87 12 5 12zm0 6l3.5-4.5 2.5 3.01L14.5 12l4.5 6H5z"/></symbol>
<symbol id="set_meal" viewBox="0 0 24 24"><rect fill="none" height="24" width="24"/><path d="M21.05,17.56L3.08,18.5L3,17l17.98-0.94L21.05,17.56z M21,19.48H3v1.5h18V19.48z M22,3v11H2V3H22z M20,6 c-1.68,0-3.04,0.98-3.21,2.23C16.15,7.5,14.06,5.5,10.25,5.5c-4.67,0-6.75,3-6.75,3s2.08,3,6.75,3c3.81,0,5.9-2,6.54-2.73 C16.96,10.02,18.32,11,20,11V6z"/></symbol>
<symbol id="store_mall_directory" viewBox="0 0 24 24"><path d="M0 0h24v24H0V0z" fill="none"/><path d="M20 4H4v2h16V4zm1 10v-2l-1-5H4l-1 5v2h1v6h10v-6h4v6h2v-6h1zm-9 4H6v-4h6v4z"/></symbol>
<symbol id="streetview" viewBox="0 0 24 24"><path d="M0 0h24v24H0V0z" fill="none"/><path d="M12.56 14.33c-.34.27-.56.7-.56 1.17V21h7c1.1 0 2-.9 2-2v-5.98c-.94-.33-1.95-.52-3-.52-2.03 0-3.93.7-5.44 1.83z"/><circle cx="18" cy="6" r="5"/><path d="M11.5 6c0-1.08.27-2.1.74-3H5c-1.1 0-2 .9-2 2v14c0 .55.23 1.05.59 1.41l9.82-9.82C12.23 9.42 11.5 7.8 11.5 6z"/></symbol>
<symbol id="subway" viewBox="0 0 24 24"><path d="M0 0h24v24H0V0z" fill="none"/><circle cx="8.5" cy="16" r="1"/><circle cx="15.5" cy="16" r="1"/><path d="M7.01 9h10v5h-10zM17.8 2.8C16 2.09 13.86 2 12 2s-4 .09-5.8.8C3.53 3.84 2 6.05 2 8.86V22h20V8.86c0-2.81-1.53-5.02-4.2-6.06zm.2 12.7c0 1.54-1.16 2.79-2.65 2.96l1.15 1.16V20h-1.67l-1.5-1.5h-2.66L9.17 20H7.5v-.38l1.15-1.16C7.16 18.29 6 17.04 6 15.5V9c0-2.63 3-3 6-3s6 .37 6 3v6.5z"/></symbol>
<symbol id="terrain" viewBox="0 0 24 24"><path d="M0 0h24v24H0V0z" fill="none"/><path d="M14 6l-3.75 5 2.85 3.8-1.6 1.2C9.81 13.75 7 10 7 10l-6 8h22L14 6z"/></symbol>
<symbol id="traffic" viewBox="0 0 24 24"><path d="M0 0h24v24H0V0z" fill="none"/><path d="M20 10h-3V8.86c1.72-.45 3-2 3-3.86h-3V3H7v2H4c0 1.86 1.28 3.41 3 3.86V10H4c0 1.86 1.28 3.41 3 3.86V15H4c0 1.86 1.28 3.41 3 3.86V21h10v-2.14c1.72-.45 3-2 3-3.86h-3v-1.14c1.72-.45 3-2 3-3.86zm-8 9c-1.11 0-2-.9-2-2s.89-2 2-2c1.1 0 2 .9 2 2s-.89 2-2 2zm0-5c-1.11 0-2-.9-2-2s.89-2 2-2c1.1 0 2 .9 2 2s-.89 2-2 2zm0-5c-1.11 0-2-.9-2-2 0-1.11.89-2 2-2 1.1 0 2 .89 2 2 0 1.1-.89 2-2 2z"/></symbol>
<symbol id="train" viewBox="0 0 24 24"><path d="M0 0h24v24H0V0z" fill="none"/><path d="M12 2c-4 0-8 .5-8 4v9.5C4 17.43 5.57 19 7.5 19L6 20.5v.5h2l2-2h4l2 2h2v-.5L16.5 19c1.93 0 3.5-1.57 3.5-3.5V6c0-3.5-4-4-8-4zM7.5 17c-.83 0-1.5-.67-1.5-1.5S6.67 14 7.5 14s1.5.67 1.5 1.5S8.33 17 7.5 17zm3.5-7H6V6h5v4zm5.5 7c-.83 0-1.5-.67-1.5-1.5s.67-1.5 1.5-1.5 1.5.67 1.5 1.5-.67 1.5-1.5 1.5zm1.5-7h-5V6h5v4z"/></symbol>
<symbol id="tram" viewBox="0 0 24 24"><path d="M0 0h24v24H0V0z" fill="none"/><path d="M13 5l.75-1.5H17V2H7v1.5h4.75L11 5c-3.13.09-6 .73-6 3.5V17c0 1.5 1.11 2.73 2.55 2.95L6 21.5v.5h2l2-2h4l2 2h2v-.5l-1.55-1.55C17.89 19.73 19 18.5 19 17V8.5c0-2.77-2.87-3.41-6-3.5zm-1 13.5c-.83 0-1.5-.67-1.5-1.5s.67-1.5 1.5-1.5 1.5.67 1.5 1.5-.67 1.5-1.5 1.5zm5-4.5H7V9h10v5z"/></symbol>
<symbol id="transfer_within_a_station" viewBox="0 0 24 24"><path d="M0 0h24v24H0V0z" fill="none"/><path d="M16.49 15.5v-1.75L14 16.25l2.49 2.5V17H22v-1.5h-5.51zm3.02 4.25H14v1.5h5.51V23L22 20.5 19.51 18v1.75zM9.5 5.5c1.1 0 2-.9 2-2s-.9-2-2-2-2 .9-2 2 .9 2 2 2zM5.75 8.9L3 23h2.1l1.75-8L9 17v6h2v-7.55L8.95 13.4l.6-3C10.85 12 12.8 13 15 13v-2c-1.85 0-3.45-1-4.35-2.45l-.95-1.6C9.35 6.35 8.7 6 8 6c-.25 0-.5.05-.75.15L2 8.3V13h2V9.65l1.75-.75"/></symbol>
<symbol id="transit_enterexit" viewBox="0 0 24 24"><path d="M0 0h24v24H0V0z" fill="none"/><path d="M16 18H6V8h3v4.77L15.98 6 18 8.03 11.15 15H16v3z"/></symbol>
<symbol id="trip_origin" viewBox="0 0 24 24"><path d="M0 0h24v24H0V0z" fill="none"/><path d="M2 12C2 6.48 6.48 2 12 2s10 4.48 10 10-4.48 10-10 10S2 17.52 2 12zm10 6c3.31 0 6-2.69 6-6s-2.69-6-6-6-6 2.69-6 6 2.69 6 6 6z"/></symbol>
<symbol id="two_wheeler" viewBox="0 0 24 24"><g><rect fill="none" fill-rule="evenodd" height="24" width="24" x="0" y="0"/><path d="M4.17,11L4.17,11C4.12,11,4.06,11,4,11H4.17 M13.41,5H9v2h3.59l2,2H11l-4,2L5,9H0v2h4c-2.21,0-4,1.79-4,4 c0,2.21,1.79,4,4,4c2.21,0,4-1.79,4-4l2,2h3l3.49-6.1l1.01,1.01C16.59,12.64,16,13.75,16,15c0,2.21,1.79,4,4,4c2.21,0,4-1.79,4-4 c0-2.21-1.79-4-4-4c-0.18,0-0.36,0.03-0.53,0.05L17.41,9H20V6l-3.72,1.86L13.41,5L13.41,5z M20,17c-1.1,0-2-0.9-2-2 c0-1.1,0.9-2,2-2c1.1,0,2,0.9,2,2C22,16.1,21.1,17,20,17L20,17z M4,17c-1.1,0-2-0.9-2-2c0-1.1,0.9-2,2-2c1.1,0,2,0.9,2,2 C6,16.1,5.1,17,4,17L4,17z"/></g></symbol>
<symbol id="wine_bar" viewBox="0 0 24 24"><rect fill="none" height="24" width="24"/><path d="M6,3l0,6c0,2.97,2.16,5.43,5,5.91V19H8v2h8v-2h-3v-4.09c2.84-0.48,5-2.94,5-5.91l0-6H6z M16,8H8l0-3h8C16,5,16,8,16,8z"/></symbol>
<symbol id="wrong_location" viewBox="0 0 24 24"><g><rect fill="none" height="24" width="24"/></g><g><g><path d="M14,10V3.26C13.35,3.09,12.68,3,12,3c-4.2,0-8,3.22-8,8.2c0,3.32,2.67,7.25,8,11.8c5.33-4.55,8-8.48,8-11.8 c0-0.41-0.04-0.81-0.09-1.2H14z M12,13c-1.1,0-2-0.9-2-2c0-1.1,0.9-2,2-2s2,0.9,2,2C14,12.1,13.1,13,12,13z"/><polygon points="22.54,2.88 21.12,1.46 19,3.59 16.88,1.46 15.46,2.88 17.59,5 15.46,7.12 16.88,8.54 19,6.41 21.12,8.54 22.54,7.12 20.41,5"/></g></g></symbol>
<symbol id="zoom_out_map" viewBox="0 0 24 24"><path d="M0 0h24v24H0V0z" fill="none"/><path d="M15 3l2.3 2.3-2.89 2.87 1.42 1.42L18.7 6.7 21 9V3h-6zM3 9l2.3-2.3 2.87 2.89 1.42-1.42L6.7 5.3 9 3H3v6zm6 12l-2.3-2.3 2.89-2.87-1.42-1.42L5.3 17.3 3 15v6h6zm12-6l-2.3 2.3-2.87-2.89-1.42 1.42 2.89 2.87L15 21h6v-6z"/></symbol>
</svg>