<svg xmlns="http://www.w3.org/2000/svg">
<symbol id="apps" viewBox="0 0 24 24"><path d="M0 0h24v24H0V0z" fill="none"/><path d="M4 8h4V4H4v4zm6 12h4v-4h-4v4zm-6 0h4v-4H4v4zm0-6h4v-4H4v4zm6 0h4v-4h-4v4zm6-10v4h4V4h-4zm-6 4h4V4h-4v4zm6 6h4v-4h-4v4zm0 6h4v-4h-4v4z"/></symbol>
<symbol id="app_settings_alt" viewBox="0 0 24 24"><g><rect fill="none" height="24" width="24"/><path d="M21.81,12.74l-0.82-0.63c0-0.09,0-0.13,0-0.22l0.8-0.63c0.16-0.12,0.2-0.34,0.1-0.51l-0.85-1.48 c-0.07-0.13-0.21-0.2-0.35-0.2c-0.05,0-0.1,0.01-0.15,0.03l-0.95,0.38c-0.08-0.05-0.11-0.07-0.19-0.11l-0.15-1.01 C19.22,8.15,19.05,8,18.85,8h-1.71c-0.2,0-0.37,0.15-0.4,0.34L16.6,9.35c-0.03,0.02-0.07,0.03-0.1,0.05 c-0.03,0.02-0.06,0.04-0.09,0.06l-0.95-0.38c-0.05-0.02-0.1-0.03-0.15-0.03c-0.14,0-0.27,0.07-0.35,0.2l-0.85,1.48 c-0.1,0.17-0.06,0.39,0.1,0.51l0.8,0.63c0,0.09,0,0.13,0,0.23l-0.8,0.63c-0.16,0.12-0.2,0.34-0.1,0.51l0.85,1.48 c0.07,0.13,0.21,0.2,0.35,0.2c0.05,0,0.1-0.01,0.15-0.03l0.95-0.37c0.08,0.05,0.12,0.07,0.2,0.11l0.15,1.01 c0.03,0.2,0.2,0.34,0.4,0.34h1.71c0.2,0,0.37-0.15,0.4-0.34l0.15-1.01c0.03-0.02,0.07-0.03,0.1-0.05c0.03-0.02,0.06-0.04,0.09-0.06 l0.95,0.38c0.05,0.02,0.1,0.03,0.15,0.03c0.14,0,0.27-0.07,0.35-0.2l0.85-1.48C22.01,13.08,21.97,12.86,21.81,12.74z M18,13.5 c-0.83,0-1.5-0.67-1.5-1.5c0-0.83,0.67-1.5,1.5-1.5s1.5,0.67,1.5,1.5C19.5,12.83,18.83,13.5,18,13.5z M5,23V1h14v6h-2V6H7v12h10v-1 h2v6H5z"/></g></symbol>
<symbol id="arrow_back" viewBox="0 0 24 24"><path d="M0 0h24v24H0V0z" fill="none"/><path d="M20 11H7.83l5.59-5.59L12 4l-8 8 8 8 1.41-1.41L7.83 13H20v-2z"/></symbol>
<symbol id="arrow_back_ios" viewBox="0 0 24 24"><path d="M0 0h24v24H0V0z" fill="none" opacity=".87"/><path d="M17.51 3.87L15.73 2.1 5.84 12l9.9 9.9 1.77-1.77L9.38 12l8.13-8.13z"/></symbol>
<symbol id="arrow_downward" viewBox="0 0 24 24"><path d="M0 0h24v24H0V0z" fill="none"/><path d="M20 12l-1.41-1.41L13 16.17V4h-2v12.17l-5.58-5.59L4 12l8 8 8-8z"/></symbol>
<symbol id="arrow_drop_down" viewBox="0 0 24 24"><path d="M0 0h24v24H0V0z" fill="none"/><path d="M7 10l5 5 5-5H7z"/></symbol>
<symbol id="arrow_drop_down_circle" viewBox="0 0 24 24"><path d="M0 0h24v24H0V0z" fill="none"/><path d="M12 2C6.48 2 2 6.48 2 12s4.48 10 10 10 10-4.48 10-10S17.52 2 12 2zm0 13l-4-4h8l-4 4z"/></symbol>
<symbol id="arrow_drop_up" viewBox="0 0 24 24"><path d="M0 0h24v24H0V0z" fill="none"/><path d="M7 14l5-5 5 5H7z"/></symbol>
<symbol id="arrow_forward" viewBox="0 0 24 24"><path d="M0 0h24v24H0V0z" fill="none"/><path d="M12 4l-1.41 1.41L16.17 11H4v2h12.17l-5.58 5.59L12 20l8-8-8-8z"/></symbol>
<symbol id="arrow_forward_ios" viewBox="0 0 24 24"><path d="M24 24H0V0h24v24z" fill="none" opacity=".87"/><path d="M6.49 20.13l1.77 1.77 9.9-9.9-9.9-9.9-1.77 1.77L14.62 12l-8.13 8.13z"/></symbol>
<symbol id="arrow_left" viewBox="0 0 24 24"><path d="M24 0v24H0V0h24z" fill="none" opacity=".87"/><path d="M14 7l-5 5 5 5V7z"/></symbol>
<symbol id="arrow_right" viewBox="0 0 24 24"><path d="M0 0h24v24H0V0z" fill="none"/><path d="M10 17l5-5-5-5v10z"/></symbol>
<symbol id="arrow_upward" viewBox="0 0 24 24"><path d="M0 0h24v24H0V0z" fill="none"/><path d="M4 12l1.41 1.41L11 7.83V20h2V7.83l5.58 5.59L20 12l-8-8-8 8z"/></symbol>
<symbol id="campaign" viewBox="0 0 24 24"><g><rect fill="none" height="24" width="24"/></g><path d="M18,11c0,0.67,0,1.33,0,2c1.2,0,2.76,0,4,0c0-0.67,0-1.33,0-2C20.76,11,19.2,11,18,11z"/><path d="M16,17.61c0.96,0.71,2.21,1.65,3.2,2.39c0.4-0.53,0.8-1.07,1.2-1.6c-0.99-0.74-2.24-1.68-3.2-2.4 C16.8,16.54,16.4,17.08,16,17.61z"/><path d="M20.4,5.6C20,5.07,19.6,4.53,19.2,4c-0.99,0.74-2.24,1.68-3.2,2.4c0.4,0.53,0.8,1.07,1.2,1.6 C18.16,7.28,19.41,6.35,20.4,5.6z"/><path d="M8,9H2v6h3v4h2v-4h1l5,3V6L8,9z"/><path d="M15.5,12c0-1.33-0.58-2.53-1.5-3.35v6.69C14.92,14.53,15.5,13.33,15.5,12z"/></symbol>
<symbol id="cancel" viewBox="0 0 24 24"><path d="M0 0h24v24H0V0z" fill="none" opacity=".87"/><path d="M12 2C6.47 2 2 6.47 2 12s4.47 10 10 10 10-4.47 10-10S17.53 2 12 2zm5 13.59L15.59 17 12 13.41 8.41 17 7 15.59 10.59 12 7 8.41 8.41 7 12 10.59 15.59 7 17 8.41 13.41 12 17 15.59z"/></symbol>
<symbol id="check" viewBox="0 0 24 24"><path d="M0 0h24v24H0V0z" fill="none"/><path d="M9 16.17L4.83 12l-1.42 1.41L9 19 21 7l-1.41-1.41L9 16.17z"/></symbol>
<symbol id="chevron_left" viewBox="0 0 24 24"><path d="M0 0h24v24H0V0z" fill="none"/><path d="M15.41 7.41L14 6l-6 6 6 6 1.41-1.41L10.83 12l4.58-4.59z"/></symbol>
<symbol id="chevron_right" viewBox="0 0 24 24"><path d="M0 0h24v24H0V0z" fill="none"/><path d="M10 6L8.59 7.41 13.17 12l-4.58 4.59L10 18l6-6-6-6z"/></symbol>
<symbol id="close" viewBox="0 0 24 24"><path d="M0 0h24v24H0V0z" fill="none"/><path d="M19 6.41L17.59 5 12 10.59 6.41 5 5 6.41 10.59 12 5 17.59 6.41 19 12 13.41 17.59 19 19 17.59 13.41 12 19 6.41z"/></symbol>
<symbol id="double_arrow" viewBox="0 0 24 24"><g><rect fill="none" height="24" width="24"/></g><g><g><polygon points="15.5,5 11,5 16,12 11,19 15.5,19 20.5,12"/><polygon points="8.5,5 4,5 9,12 4,19 8.5,19 13.5,12"/></g></g></symbol>
<symbol id="east" viewBox="0 0 24 24"><rect fill="none" height="24" width="24"/><path d="M15,5l-1.41,1.41L18.17,11H2V13h16.17l-4.59,4.59L15,19l7-7L15,5z"/></symbol>
<symbol id="expand_less" viewBox="0 0 24 24"><path d="M0 0h24v24H0V0z" fill="none"/><path d="M12 8l-6 6 1.41 1.41L12 10.83l4.59 4.58L18 14l-6-6z"/></symbol>
<symbol id="expand_more" viewBox="0 0 24 24"><path d="M24 24H0V0h24v24z" fill="none" opacity=".87"/><path d="M16.59 8.59L12 13.17 7.41 8.59 6 10l6 6 6-6-1.41-1.41z"/></symbol>
<symbol id="first_page" viewBox="0 0 24 24"><path d="M24 0v24H0V0h24z" fill="none" opacity=".87"/><path d="M18.41 16.59L13.82 12l4.59-4.59L17 6l-6 6 6 6 1.41-1.41zM6 6h2v12H6V6z"/></symbol>
<symbol id="fullscreen" viewBox="0 0 24 24"><path d="M0 0h24v24H0V0z" fill="none"/><path d="M7 14H5v5h5v-2H7v-3zm-2-4h2V7h3V5H5v5zm12 7h-3v2h5v-5h-2v3zM14 5v2h3v3h2V5h-5z"/></symbol>
<symbol id="fullscreen_exit" viewBox="0 0 24 24"><path d="M0 0h24v24H0V0z" fill="none"/><path d="M5 16h3v3h2v-5H5v2zm3-8H5v2h5V5H8v3zm6 11h2v-3h3v-2h-5v5zm2-11V5h-2v5h5V8h-3z"/></symbol>
<symbol id="home_work" viewBox="0 0 24 24"><path d="M0 0h24v24H0z" fill="none"/><path d="M8.17 5.7L1 10.48V21h5v-8h4v8h5V10.25z"/><path d="M17 7h2v2h-2z" fill="none"/><path d="M10 3v1.51l2 1.33L13.73 7H15v.85l2 1.34V11h2v2h-2v2h2v2h-2v4h6V3H10zm9 6h-2V7h2v2z"/></symbol>
<symbol id="last_page" viewBox="0 0 24 24"><path d="M0 0h24v24H0V0z" fill="none" opacity=".87"/><path d="M5.59 7.41L10.18 12l-4.59 4.59L7 18l6-6-6-6-1.41 1.41zM16 6h2v12h-2V6z"/></symbol>
<symbol id="legend_toggle" viewBox="0 0 24 24"><g><rect fill="none" height="24" width="24"/><path d="M20,15H4v-2h16V15z M20,17H4v2h16V17z M15,11l5-3.55L20,5l-5,3.55L10,5L4,8.66L4,11l5.92-3.61L15,11z"/></g></symbol>
<symbol id="menu" viewBox="0 0 24 24"><path d="M0 0h24v24H0V0z" fill="none"/><path d="M3 18h18v-2H3v2zm0-5h18v-2H3v2zm0-7v2h18V6H3z"/></symbol>
<symbol id="menu_open" viewBox="0 0 24 24"><path d="M0,0h24v24H0V0z" fill="none"/><path d="M3,18h13v-2H3V18z M3,13h10v-2H3V13z M3,6v2h13V6H3z M21,15.59L17.42,12L21,8.41L19.59,7l-5,5l5,5L21,15.59z"/></symbol>
<symbol id="more_horiz" viewBox="0 0 24 24"><path d="M0 0h24v24H0V0z" fill="none"/><path d="M6 10c-1.1 0-2 .9-2 2s.9 2 2 2 2-.9 2-2-.9-2-2-2zm12 0c-1.1 0-2 .9-2 2s.9 2 2 2 2-.9 2-2-.9-2-2-2zm-6 0c-1.1 0-2 .9-2 2s.9 2 2 2 2-.9 2-2-.9-2-2-2z"/></symbol>
<symbol id="more_vert" viewBox="0 0 24 24"><path d="M0 0h24v24H0V0z" fill="none"/><path d="M12 8c1.1 0 2-.9 2-2s-.9-2-2-2-2 .9-2 2 .9 2 2 2zm0 2c-1.1 0-2 .9-2 2s.9 2 2 2 2-.9 2-2-.9-2-2-2zm0 6c-1.1 0-2 .9-2 2s.9 2 2 2 2-.9 2-2-.9-2-2-2z"/></symbol>
<symbol id="north" viewBox="0 0 24 24"><rect fill="none" height="24" width="24"/><path d="M5,9l1.41,1.41L11,5.83V22H13V5.83l4.59,4.59L19,9l-7-7L5,9z"/></symbol>
<symbol id="north_east" viewBox="0 0 24 24"><rect fill="none" height="24" width="24"/><path d="M9,5v2h6.59L4,18.59L5.41,20L17,8.41V15h2V5H9z"/></symbol>
<symbol id="north_west" viewBox="0 0 24 24"><rect fill="none" height="24" width="24"/><path d="M5,15h2V8.41L18.59,20L20,18.59L8.41,7H15V5H5V15z"/></symbol>
<symbol id="payments" viewBox="0 0 24 24"><g><rect fill="none" height="24" width="24"/><path d="M23,7v13H4v-2h17V7H23z M19,16H1V4h18V16z M13,10c0-1.66-1.34-3-3-3s-3,1.34-3,3s1.34,3,3,3S13,11.66,13,10z"/></g></symbol>
<symbol id="refresh" viewBox="0 0 24 24"><path d="M0 0h24v24H0V0z" fill="none"/><path d="M17.65 6.35C16.2 4.9 14.21 4 12 4c-4.42 0-7.99 3.58-7.99 8s3.57 8 7.99 8c3.73 0 6.84-2.55 7.73-6h-2.08c-.82 2.33-3.04 4-5.65 4-3.31 0-6-2.69-6-6s2.69-6 6-6c1.66 0 3.14.69 4.22 1.78L13 11h7V4l-2.35 2.35z"/></symbol>
<symbol id="south" viewBox="0 0 24 24"><rect fill="none" height="24" width="24"/><path d="M19,15l-1.41-1.41L13,18.17V2H11v16.17l-4.59-4.59L5,15l7,7L19,15z"/></symbol>
<symbol id="south_east" viewBox="0 0 24 24"><rect fill="none" height="24" width="24"/><path d="M19,9h-2v6.59L5.41,4L4,5.41L15.59,17H9v2h10V9z"/></symbol>
<symbol id="south_west" viewBox="0 0 24 24"><rect fill="none" height="24" width="24"/><path d="M15,19v-2H8.41L20,5.41L18.59,4L7,15.59V9H5v10H15z"/></symbol>
<symbol id="subdirectory_arrow_left" viewBox="0 0 24 24"><path d="M0 0h24v24H0V0z" fill="none"/><path d="M11 9l1.42 1.42L8.83 14H18V4h2v12H8.83l3.59 3.58L11 21l-6-6 6-6z"/></symbol>
<symbol id="subdirectory_arrow_right" viewBox="0 0 24 24"><path d="M24 24H0V0h24v24z" fill="none" opacity=".87"/><path d="M19 15l-6 6-1.42-1.42L15.17 16H4V4h2v10h9.17l-3.59-3.58L13 9l6 6z"/></symbol>
<symbol id="switch_left" viewBox="0 0 24 24"><rect fill="none" height="24" width="24"/><path d="M8.5,8.62v6.76L5.12,12L8.5,8.62 M10,5l-7,7l7,7V5L10,5z M14,5v14l7-7L14,5z"/></symbol>
<symbol id="switch_right" viewBox="0 0 24 24"><rect fill="none" height="24" transform="matrix(-1 -1.224647e-16 1.224647e-16 -1 24 24)" width="24"/><path d="M15.5,15.38V8.62L18.88,12L15.5,15.38 M14,19l7-7l-7-7V19L14,19z M10,19V5l-7,7L10,19z"/></symbol>
<symbol id="unfold_less" viewBox="0 0 24 24"><path d="M24 0v24H0V0h24z" fill="none" opacity=".87"/><path d="M7.41 18.59L8.83 20 12 16.83 15.17 20l1.41-1.41L12 14l-4.59 4.59zm9.18-13.18L15.17 4 12 7.17 8.83 4 7.41 5.41 12 10l4.59-4.59z"/></symbol>
<symbol id="unfold_more" viewBox="0 0 24 24"><path d="M0 0h24v24H0V0z" fill="none"/><path d="M12 5.83L15.17 9l1.41-1.41L12 3 7.41 7.59 8.83 9 12 5.83zm0 12.34L8.83 15l-1.41 1.41L12 21l4.59-4.59L15.17 15 12 18.17z"/></symbol>
<symbol id="west" viewBox="0 0 24 24"><rect fill="none" height="24" width="24"/><path d="M9,19l1.41-1.41L5.83,13H22V11H5.83l4.59-4.59L9,5l-7,7L9,19z"/></symbol>
</svg>