<svg xmlns="http://www.w3.org/2000/svg">
<symbol id="account_tree" viewBox="0 0 24 24"><g><rect fill="none" height="24" width="24"/></g><polygon points="22,11 22,3 15,3 15,6 9,6 9,3 2,3 2,11 9,11 9,8 11,8 11,18 15,18 15,21 22,21 22,13 15,13 15,16 13,16 13,8 15,8 15,11"/></symbol>
<symbol id="adb" viewBox="0 0 24 24"><path d="M0 0h24v24H0V0z" fill="none"/><path d="M5 16c0 3.87 3.13 7 7 7s7-3.13 7-7v-4H5v4zM16.12 4.37l2.1-2.1-.82-.83-2.3 2.31C14.16 3.28 13.12 3 12 3s-2.16.28-3.09.75L6.6 1.44l-.82.83 2.1 2.1C6.14 5.64 5 7.68 5 10v1h14v-1c0-2.32-1.14-4.36-2.88-5.63zM9 9c-.55 0-1-.45-1-1s.45-1 1-1 1 .45 1 1-.45 1-1 1zm6 0c-.55 0-1-.45-1-1s.45-1 1-1 1 .45 1 1-.45 1-1 1z"/></symbol>
<symbol id="airline_seat_flat" viewBox="0 0 24 24"><path d="M0 0h24v24H0V0z" fill="none"/><path d="M22 7v6H9V7h13zM2 14v2h6v2h8v-2h6v-2H2zm5.14-1.9c1.16-1.19 1.14-3.08-.04-4.24-1.19-1.16-3.08-1.14-4.24.04-1.16 1.19-1.14 3.08.04 4.24 1.19 1.16 3.08 1.14 4.24-.04z"/></symbol>
<symbol id="airline_seat_flat_angled" viewBox="0 0 24 24"><path d="M0 0h24v24H0V0z" fill="none"/><path d="M21.56 16.18L9.2 11.71l2.08-5.66 12.35 4.47-2.07 5.66zM1.5 12.14L8 14.48V19h8v-1.63L20.52 19l.69-1.89-19.02-6.86-.69 1.89zm5.8-1.94c1.49-.72 2.12-2.51 1.41-4C7.99 4.71 6.2 4.08 4.7 4.8c-1.49.71-2.12 2.5-1.4 4 .71 1.49 2.5 2.12 4 1.4z"/></symbol>
<symbol id="airline_seat_individual_suite" viewBox="0 0 24 24"><path d="M0 0h24v24H0V0z" fill="none"/><path d="M7 13c1.65 0 3-1.35 3-3S8.65 7 7 7s-3 1.35-3 3 1.35 3 3 3zm16-6H11v7H3V7H1v10h22V7z"/></symbol>
<symbol id="airline_seat_legroom_extra" viewBox="0 0 24 24"><path d="M0 0h24v24H0V0z" fill="none"/><path d="M4 3H2v14h11v-2H4zm18.24 12.96l-2.53 1.15-3.41-6.98C15.96 9.45 15.27 9 14.51 9H11V3H5v11h10l3.41 7 5.07-2.32-1.24-2.72z"/></symbol>
<symbol id="airline_seat_legroom_normal" viewBox="0 0 24 24"><path d="M0 0h24v24H0V0z" fill="none"/><path d="M5 15V3H3v14h11v-2H5zm17 3h-3v-7c0-1.1-.9-2-2-2h-5V3H6v11h10v7h6v-3z"/></symbol>
<symbol id="airline_seat_legroom_reduced" viewBox="0 0 24 24"><path d="M0 0h24v24H0V0z" fill="none"/><path d="M19.97 21H14v-3l1-4H6V3h6v6h5c1.1 0 2 .9 2 2l-2 7h2.97v3zM5 15V3H3v14h9v-2H5z"/></symbol>
<symbol id="airline_seat_recline_extra" viewBox="0 0 24 24"><path d="M0 0h24v24H0V0z" fill="none"/><path d="M5.35 5.64c-.9-.64-1.12-1.88-.49-2.79.63-.9 1.88-1.12 2.79-.49.9.64 1.12 1.88.49 2.79-.64.9-1.88 1.12-2.79.49zM16 19H6.5L4 7H2l2.85 14H16v-2zm.23-4h-4.88l-1.03-4.1c1.58.89 3.28 1.54 5.15 1.22V9.99c-1.63.31-3.44-.27-4.69-1.25L9.14 7.47c-.23-.18-.49-.3-.76-.38-.32-.09-.66-.12-.99-.06h-.02c-1.23.22-2.05 1.39-1.84 2.61L7.44 18h9.24l3.82 3 1.5-1.5-5.77-4.5z"/></symbol>
<symbol id="airline_seat_recline_normal" viewBox="0 0 24 24"><path d="M0 0h24v24H0V0z" fill="none"/><path d="M7.59 5.41c-.78-.78-.78-2.05 0-2.83s2.05-.78 2.83 0 .78 2.05 0 2.83c-.79.79-2.05.79-2.83 0zM6 19V7H4v14h11v-2H6zm14 1.07L14.93 15H11.5v-3.68c1.4 1.15 3.6 2.16 5.5 2.16v-2.16c-1.66.02-3.61-.87-4.67-2.04l-1.4-1.55c-.19-.21-.43-.38-.69-.5-.29-.14-.62-.23-.96-.23h-.03C8.01 7 7 8.01 7 9.25V18h8.07l3.5 3.5L20 20.07z"/></symbol>
<symbol id="bluetooth_audio" viewBox="0 0 24 24"><path d="M0 0h24v24H0V0z" fill="none"/><path d="M14.24 12.01l2.32 2.32c.28-.72.44-1.51.44-2.33s-.16-1.59-.43-2.31l-2.33 2.32zm5.29-5.3l-1.26 1.26c.63 1.21.98 2.57.98 4.02s-.36 2.82-.98 4.02l1.2 1.2c.97-1.54 1.54-3.36 1.54-5.31-.01-1.89-.55-3.67-1.48-5.19zm-3.82 1L10 2H9v7.59L4.41 5 3 6.41 8.59 12 3 17.59 4.41 19 9 14.41V22h1l5.71-5.71-4.3-4.29 4.3-4.29zM11 5.83l1.88 1.88L11 9.59V5.83zm1.88 10.46L11 18.17v-3.76l1.88 1.88z"/></symbol>
<symbol id="confirmation_number" viewBox="0 0 24 24"><path d="M0 0h24v24H0z" fill="none"/><path d="M22 10V4H2.01v6c1.1 0 1.99.9 1.99 2s-.89 2-2 2v6h20v-6c-1.1 0-2-.9-2-2s.9-2 2-2zm-9 7.5h-2v-2h2v2zm0-4.5h-2v-2h2v2zm0-4.5h-2v-2h2v2z"/></symbol>
<symbol id="directions_off" viewBox="0 0 24 24"><g><rect fill="none" height="24" width="24"/></g><g><g><polygon points="13,7.5 16.5,11 15.17,12.34 18.62,15.79 22.41,12 12.01,1.58 8.21,5.38 13,10.17"/><path d="M1.39,4.22l3.99,3.99l-3.79,3.79L12.01,22.4l3.79-3.79l3.99,3.99l1.41-1.41L2.81,2.81L1.39,4.22z M9.99,12.82V15h-2v-4.18 L9.99,12.82z"/></g></g></symbol>
<symbol id="disc_full" viewBox="0 0 24 24"><path d="M0 0h24v24H0V0z" fill="none"/><path d="M20 16h2v-2h-2v2zm0-9v5h2V7h-2zM10 4c-4.42 0-8 3.58-8 8s3.58 8 8 8 8-3.58 8-8-3.58-8-8-8zm0 10c-1.1 0-2-.9-2-2s.9-2 2-2 2 .9 2 2-.9 2-2 2z"/></symbol>
<symbol id="do_disturb" viewBox="0 0 24 24"><path d="M0 0h24v24H0V0z" fill="none"/><path d="M12 2C6.48 2 2 6.48 2 12s4.48 10 10 10 10-4.48 10-10S17.52 2 12 2zm0 18c-4.42 0-8-3.58-8-8 0-1.85.63-3.55 1.69-4.9L16.9 18.31C15.55 19.37 13.85 20 12 20zm6.31-3.1L7.1 5.69C8.45 4.63 10.15 4 12 4c4.42 0 8 3.58 8 8 0 1.85-.63 3.55-1.69 4.9z"/></symbol>
<symbol id="do_disturb_alt" viewBox="0 0 24 24"><path d="M0 0h24v24H0z" fill="none"/><path d="M12 2C6.5 2 2 6.5 2 12s4.5 10 10 10 10-4.5 10-10S17.5 2 12 2zM4 12c0-4.4 3.6-8 8-8 1.8 0 3.5.6 4.9 1.7L5.7 16.9C4.6 15.5 4 13.8 4 12zm8 8c-1.8 0-3.5-.6-4.9-1.7L18.3 7.1C19.4 8.5 20 10.2 20 12c0 4.4-3.6 8-8 8z"/></symbol>
<symbol id="do_disturb_off" viewBox="0 0 24 24"><path d="M0 0h24v24H0V0z" fill="none"/><path d="M17 11v2h-.88l4.33 4.33C21.43 15.79 22 13.96 22 12c0-5.52-4.48-10-10-10-1.96 0-3.79.57-5.33 1.55L14.12 11H17zM2.41 2.13L1 3.54l2.78 2.78C2.66 7.93 2 9.89 2 12c0 5.52 4.48 10 10 10 2.11 0 4.07-.66 5.68-1.78L20.46 23l1.41-1.41L2.41 2.13zM7 13v-2h1.46l2 2H7z"/></symbol>
<symbol id="do_disturb_on" viewBox="0 0 24 24"><path d="M0 0h24v24H0V0z" fill="none"/><path d="M12 2C6.48 2 2 6.48 2 12s4.48 10 10 10 10-4.48 10-10S17.52 2 12 2zm5 11H7v-2h10v2z"/></symbol>
<symbol id="drive_eta" viewBox="0 0 24 24"><path d="M0 0h24v24H0V0z" fill="none"/><path d="M18.92 5.01L18.57 4H5.43L3 11v9h3v-2h12v2h3v-9l-2.08-5.99zM6.5 15c-.83 0-1.5-.67-1.5-1.5S5.67 12 6.5 12s1.5.67 1.5 1.5S7.33 15 6.5 15zm11 0c-.83 0-1.5-.67-1.5-1.5s.67-1.5 1.5-1.5 1.5.67 1.5 1.5-.67 1.5-1.5 1.5zM5 10l1.5-4.5h11L19 10H5z"/></symbol>
<symbol id="enhanced_encryption" viewBox="0 0 24 24"><path d="M0 0h24v24H0V0zm0 0h24v24H0V0z" fill="none"/><path d="M20 8h-3V6.22c0-2.61-1.91-4.94-4.51-5.19C9.51.74 7 3.08 7 6v2H4v14h16V8zM8.9 6c0-1.71 1.39-3.1 3.1-3.1s3.1 1.39 3.1 3.1v2H8.9V6zM16 16h-3v3h-2v-3H8v-2h3v-3h2v3h3v2z"/></symbol>
<symbol id="event_available" viewBox="0 0 24 24"><path d="M0 0h24v24H0V0z" fill="none"/><path d="M16.53 11.06L15.47 10l-4.88 4.88-2.12-2.12-1.06 1.06L10.59 17l5.94-5.94zM21 3h-3V1h-2v2H8V1H6v2H3v18h18V3zm-2 16H5V8h14v11z"/></symbol>
<symbol id="event_busy" viewBox="0 0 24 24"><path d="M0 0h24v24H0V0z" fill="none"/><path d="M9.31 17l2.44-2.44L14.19 17l1.06-1.06-2.44-2.44 2.44-2.44L14.19 10l-2.44 2.44L9.31 10l-1.06 1.06 2.44 2.44-2.44 2.44L9.31 17zM21 3h-3V1h-2v2H8V1H6v2H3.01L3 21h18V3zm-2 16H5V8h14v11z"/></symbol>
<symbol id="event_note" viewBox="0 0 24 24"><path d="M0 0h24v24H0V0z" fill="none"/><path d="M17 10H7v2h10v-2zm4-7h-3V1h-2v2H8V1H6v2H3v18h18V3zm-2 16H5V8h14v11zm-5-5H7v2h7v-2z"/></symbol>
<symbol id="folder_special" viewBox="0 0 24 24"><path d="M0 0h24v24H0V0z" fill="none"/><path d="M22 6H12l-2-2H2v16h20V6zm-4.06 11L15 15.28 12.06 17l.78-3.33-2.59-2.24 3.41-.29L15 8l1.34 3.14 3.41.29-2.59 2.24.78 3.33z"/></symbol>
<symbol id="live_tv" viewBox="0 0 24 24"><path d="M0 0h24v24H0V0z" fill="none"/><path d="M23 6h-9.59l3.29-3.29L16 2l-4 4-4-4-.71.71L10.59 6H1v16h22V6zm-2 14H3V8h18v12zM9 10v8l7-4-7-4z"/></symbol>
<symbol id="mms" viewBox="0 0 24 24"><path d="M0 0h24v24H0V0z" fill="none"/><path d="M22 2H2v20l4-4h16V2zM5 14l3.5-4.5 2.5 3.01L14.5 8l4.5 6H5z"/></symbol>
<symbol id="more" viewBox="0 0 24 24"><path d="M0 0h24v24H0V0z" fill="none"/><path d="M24 3H6l-6 9 6 9h18V3zM9 13.5c-.83 0-1.5-.67-1.5-1.5s.67-1.5 1.5-1.5 1.5.67 1.5 1.5-.67 1.5-1.5 1.5zm5 0c-.83 0-1.5-.67-1.5-1.5s.67-1.5 1.5-1.5 1.5.67 1.5 1.5-.67 1.5-1.5 1.5zm5 0c-.83 0-1.5-.67-1.5-1.5s.67-1.5 1.5-1.5 1.5.67 1.5 1.5-.67 1.5-1.5 1.5z"/></symbol>
<symbol id="network_check" viewBox="0 0 24 24"><path d="M0 0h24v24H0V0z" fill="none"/><path d="M15.9 5c-.17 0-.32.09-.41.23l-.07.15-5.18 11.65c-.16.29-.26.61-.26.96 0 1.11.9 2.01 2.01 2.01.96 0 1.77-.68 1.96-1.59l.01-.03L16.4 5.5c0-.28-.22-.5-.5-.5zM1 9l2 2c2.88-2.88 6.79-4.08 10.53-3.62l1.19-2.68C9.89 3.84 4.74 5.27 1 9zm20 2l2-2c-1.64-1.64-3.55-2.82-5.59-3.57l-.53 2.82c1.5.62 2.9 1.53 4.12 2.75zm-4 4l2-2c-.8-.8-1.7-1.42-2.66-1.89l-.55 2.92c.42.27.83.59 1.21.97zM5 13l2 2c1.13-1.13 2.56-1.79 4.03-2l1.28-2.88c-2.63-.08-5.3.87-7.31 2.88z"/></symbol>
<symbol id="network_locked" viewBox="0 0 24 24"><path d="M0 0h24v24H0V0zm0 0h24v24H0V0z" fill="none"/><path d="M22 16v-.36c0-1.31-.94-2.5-2.24-2.63-1.5-.15-2.76 1.02-2.76 2.49v.5h-1v6h7v-6h-1zm-1 0h-3v-.5c0-.83.67-1.5 1.5-1.5s1.5.67 1.5 1.5v.5zm-1.5-5c.15 0 .3.01.46.02.01 0 .03.01.04.01V1L1 20h13v-6h1.26c.22-.63.58-1.2 1.06-1.68.85-.85 1.98-1.32 3.18-1.32z"/></symbol>
<symbol id="no_encryption" viewBox="0 0 24 24"><path d="M0 0h24v24H0V0zm0 0h24v24H0V0zm0 0h24v24H0V0zm0 0h24v24H0V0z" fill="none"/><path d="M8.9 6c0-1.71 1.39-3.1 3.1-3.1s3.1 1.39 3.1 3.1v2h-4.66L20 17.56V8h-3V6.22c0-2.61-1.91-4.94-4.51-5.19-2.53-.25-4.72 1.41-5.32 3.7L8.9 6.46V6zM4.41 4.81L3 6.22 4.78 8H4v14h14.78l1 1 1.41-1.41z"/></symbol>
<symbol id="no_encryption_gmailerrorred" viewBox="0 0 24 24"><path d="M0 0h24v24H0V0zm0 0h24v24H0V0zm0 0h24v24H0V0zm0 0h24v24H0V0z" fill="none"/><path d="M8.9 6c0-1.71 1.39-3.1 3.1-3.1s3.1 1.39 3.1 3.1v2h-4.66L20 17.56V8h-3V6.22c0-2.61-1.91-4.94-4.51-5.19-2.53-.25-4.72 1.41-5.32 3.7L8.9 6.46V6zM4.41 4.81L3 6.22 4.78 8H4v14h14.78l1 1 1.41-1.41z"/></symbol>
<symbol id="ondemand_video" viewBox="0 0 24 24"><path d="M0 0h24v24H0V0z" fill="none"/><path d="M23 3H1v16h7v2h8v-2h6.99L23 3zm-2 14H3V5h18v12zm-5-6l-7 4V7l7 4z"/></symbol>
<symbol id="personal_video" viewBox="0 0 24 24"><path d="M0 0h24v24H0V0z" fill="none"/><path d="M23 3H1v16h7v2h8v-2h6.99L23 3zm-2 14H3V5h18v12z"/></symbol>
<symbol id="phone_bluetooth_speaker" viewBox="0 0 24 24"><path d="M0 0h24v24H0V0z" fill="none"/><path d="M14.71 9.5L17 7.21V11h.5l2.85-2.85L18.21 6l2.15-2.15L17.5 1H17v3.79L14.71 2.5l-.71.71L16.79 6 14 8.79l.71.71zM18 2.91l.94.94-.94.94V2.91zm0 4.3l.94.94-.94.94V7.21zm3 8.25l-5.27-.61-2.52 2.52c-2.83-1.44-5.15-3.75-6.59-6.59l2.53-2.53L8.54 3H3.03C2.45 13.18 10.82 21.55 21 20.97v-5.51z"/></symbol>
<symbol id="phone_callback" viewBox="0 0 24 24"><path d="M0 0h24v24H0V0z" fill="none"/><path d="M15.73 14.85l-2.52 2.52c-2.83-1.44-5.15-3.75-6.59-6.59l2.53-2.53L8.54 3H3.03C2.45 13.18 10.82 21.55 21 20.97v-5.51l-5.27-.61zM18 9h-2.59l5.02-5.02-1.41-1.41L14 7.59V5h-2v6h6z"/></symbol>
<symbol id="phone_forwarded" viewBox="0 0 24 24"><path d="M0 0h24v24H0V0z" fill="none"/><path d="M18 11l5-5-5-5v3h-4v4h4zm-4.79 6.37c-2.83-1.44-5.15-3.75-6.59-6.59l2.53-2.53L8.54 3H3.03C2.45 13.18 10.82 21.55 21 20.97v-5.51l-5.27-.61-2.52 2.52z"/></symbol>
<symbol id="phone_in_talk" viewBox="0 0 24 24"><path d="M0 0h24v24H0V0z" fill="none"/><path d="M19 12h2c0-4.97-4.03-9-9-9v2c3.87 0 7 3.13 7 7zm-4 0h2c0-2.76-2.24-5-5-5v2c1.66 0 3 1.34 3 3zm-1.79 5.37c-2.83-1.44-5.15-3.75-6.59-6.59l2.53-2.53L8.54 3H3.03C2.45 13.18 10.82 21.55 21 20.97v-5.51l-5.27-.61-2.52 2.52z"/></symbol>
<symbol id="phone_locked" viewBox="0 0 24 24"><path d="M0 0h24v24H0V0z" fill="none"/><path d="M13.21 17.37c-2.83-1.44-5.15-3.75-6.59-6.59l2.53-2.53L8.54 3H3.03C2.45 13.18 10.82 21.55 21 20.97v-5.51l-5.27-.61-2.52 2.52zM20 4v-.36c0-1.31-.94-2.5-2.24-2.63C16.26.86 15 2.03 15 3.5V4h-1v6h7V4h-1zm-1 0h-3v-.5c0-.83.67-1.5 1.5-1.5s1.5.67 1.5 1.5V4z"/></symbol>
<symbol id="phone_missed" viewBox="0 0 24 24"><path d="M0 0h24v24H0V0z" fill="none"/><path d="M23.32 16.67c-2.95-2.79-6.93-4.51-11.31-4.51-4.39 0-8.37 1.72-11.31 4.51l-.69.69L3.65 21l3.93-2.72-.01-3.49c1.4-.45 2.9-.7 4.44-.7 1.55 0 3.04.24 4.44.7l-.01 3.49L20.37 21l3.64-3.64c0-.01-.52-.52-.69-.69zM7 6.43l4.94 4.94 7.07-7.07-1.41-1.42-5.66 5.66L8.4 5H11V3H5v6h2z"/></symbol>
<symbol id="phone_paused" viewBox="0 0 24 24"><path d="M0 0h24v24H0V0z" fill="none"/><path d="M15 3h2v7h-2zm4 0h2v7h-2zm-5.79 14.37c-2.83-1.44-5.15-3.75-6.59-6.59l2.53-2.53L8.54 3H3.03C2.45 13.18 10.82 21.55 21 20.97v-5.51l-5.27-.61-2.52 2.52z"/></symbol>
<symbol id="power" viewBox="0 0 24 24"><path d="M0 0h24v24H0V0z" fill="none"/><path d="M16 7V3h-2v4h-4V3H8v4H6v7.5L9.5 18v3h5v-3l3.5-3.51V7h-2z"/></symbol>
<symbol id="power_off" viewBox="0 0 24 24"><path d="M0 0h24v24H0V0z" fill="none"/><path d="M18 14.49V9c0-1.1-.9-2-2-2V3h-2v4h-3.88l7.69 7.69.19-.2zM10 3H8v1.88l2 2zm-5.88.84L2.71 5.25l3.34 3.34c-.03.13-.05.27-.05.4v5.51L9.5 18v3h5v-3l.48-.48 4.47 4.47 1.41-1.41L4.12 3.84z"/></symbol>
<symbol id="priority_high" viewBox="0 0 24 24"><path d="M0 0h24v24H0V0z" fill="none"/><circle cx="12" cy="19" r="2"/><path d="M10 3h4v12h-4z"/></symbol>
<symbol id="sd_card" viewBox="0 0 24 24"><path d="M0 0h24v24H0V0z" fill="none"/><path d="M20 2H10L4 8v14h16V2zm-8 6h-2V4h2v4zm3 0h-2V4h2v4zm3 0h-2V4h2v4z"/></symbol>
<symbol id="sd_card_alert" viewBox="0 0 24 24"><path d="M0 0h24v24H0V0z" fill="none"/><path d="M20 2H10L4 8v14h16V2zm-7 15h-2v-2h2v2zm0-4h-2V8h2v5z"/></symbol>
<symbol id="sms" viewBox="0 0 24 24"><path d="M0 0h24v24H0V0z" fill="none"/><path d="M22 2H2v20l4-4h16V2zM9 11H7V9h2v2zm4 0h-2V9h2v2zm4 0h-2V9h2v2z"/></symbol>
<symbol id="sms_failed" viewBox="0 0 24 24"><path d="M0 0h24v24H0V0z" fill="none"/><path d="M22 2H2v20l4-4h16V2zm-9 12h-2v-2h2v2zm0-4h-2V6h2v4z"/></symbol>
<symbol id="support_agent" viewBox="0 0 24 24"><g><rect fill="none" height="24" width="24"/></g><g><g><circle cx="9" cy="13" r="1"/><circle cx="15" cy="13" r="1"/><path d="M18,11.03C17.52,8.18,15.04,6,12.05,6c-3.03,0-6.29,2.51-6.03,6.45c2.47-1.01,4.33-3.21,4.86-5.89 C12.19,9.19,14.88,11,18,11.03z"/><path d="M20.99,12C20.88,6.63,16.68,3,12,3c-4.61,0-8.85,3.53-8.99,9H2v6h3v-5.81c0-3.83,2.95-7.18,6.78-7.29 c3.96-0.12,7.22,3.06,7.22,7V19h-8v2h10v-3h1v-6H20.99z"/></g></g></symbol>
<symbol id="sync" viewBox="0 0 24 24"><path d="M.01 0h24v24h-24V0z" fill="none"/><path d="M12 4V1L8 5l4 4V6c3.31 0 6 2.69 6 6 0 1.01-.25 1.97-.7 2.8l1.46 1.46C19.54 15.03 20 13.57 20 12c0-4.42-3.58-8-8-8zm0 14c-3.31 0-6-2.69-6-6 0-1.01.25-1.97.7-2.8L5.24 7.74C4.46 8.97 4 10.43 4 12c0 4.42 3.58 8 8 8v3l4-4-4-4v3z"/></symbol>
<symbol id="sync_disabled" viewBox="0 0 24 24"><path d="M0 0h24v24H0V0zm0 0h24v24H0V0z" fill="none"/><path d="M10 6.35V4.26c-.66.17-1.29.43-1.88.75l1.5 1.5c.13-.05.25-.11.38-.16zM20 12c0-2.21-.91-4.2-2.36-5.64L20 4h-6v6l2.24-2.24C17.32 8.85 18 10.34 18 12c0 .85-.19 1.65-.51 2.38l1.5 1.5C19.63 14.74 20 13.41 20 12zM4.27 4L2.86 5.41l2.36 2.36C4.45 8.99 4 10.44 4 12c0 2.21.91 4.2 2.36 5.64L4 20h6v-6l-2.24 2.24C6.68 15.15 6 13.66 6 12c0-1 .25-1.94.68-2.77l8.08 8.08c-.25.13-.5.24-.76.34v2.09c.8-.21 1.55-.54 2.23-.96l2.58 2.58 1.41-1.41L4.27 4z"/></symbol>
<symbol id="sync_problem" viewBox="0 0 24 24"><path d="M0 0h24v24H0V0z" fill="none"/><path d="M3 12c0 2.21.91 4.2 2.36 5.64L3 20h6v-6l-2.24 2.24C5.68 15.15 5 13.66 5 12c0-2.61 1.67-4.83 4-5.65V4.26C5.55 5.15 3 8.27 3 12zm8 5h2v-2h-2v2zM21 4h-6v6l2.24-2.24C18.32 8.85 19 10.34 19 12c0 2.61-1.67 4.83-4 5.65v2.09c3.45-.89 6-4.01 6-7.74 0-2.21-.91-4.2-2.36-5.64L21 4zm-10 9h2V7h-2v6z"/></symbol>
<symbol id="system_update" viewBox="0 0 24 24"><path d="M0 0h24v24H0V0z" fill="none"/><path d="M5 1v22h14V1H5zm12 18H7V5h10v14zm-1-6h-3V8h-2v5H8l4 4 4-4z"/></symbol>
<symbol id="tap_and_play" viewBox="0 0 24 24"><path d="M0 0h24v24H0V0z" fill="none"/><path d="M2 16v2c2.76 0 5 2.24 5 5h2c0-3.87-3.13-7-7-7zm0 4v3h3c0-1.66-1.34-3-3-3zm0-8v2c4.97 0 9 4.03 9 9h2c0-6.08-4.92-11-11-11zM5 1v9.37c.69.16 1.36.37 2 .64V5h10v13h-3.03c.52 1.25.84 2.59.95 4H19V1H5z"/></symbol>
<symbol id="time_to_leave" viewBox="0 0 24 24"><path d="M0 0h24v24H0V0z" fill="none"/><path d="M18.57 4H5.43L3 11v9h3v-2h12v2h3v-9l-2.43-7zM6.5 15c-.83 0-1.5-.67-1.5-1.5S5.67 12 6.5 12s1.5.67 1.5 1.5S7.33 15 6.5 15zm11 0c-.83 0-1.5-.67-1.5-1.5s.67-1.5 1.5-1.5 1.5.67 1.5 1.5-.67 1.5-1.5 1.5zM5 10l1.5-4.5h11L19 10H5z"/></symbol>
<symbol id="tv_off" viewBox="0 0 24 24"><path d="M0 0h24v24H0V0z" fill="none"/><path d="M21 7v10.88l2 2V5h-9.58l3.29-3.3L16 1l-4 4-4-4-.7.7L10.58 5H8.12l2 2zM2.41 2.13l-.14.14L1 3.54l1.53 1.53H1V21h17.46l1.99 1.99 1.26-1.26.15-.15L2.41 2.13zM3 19V7h1.46l12 12H3z"/></symbol>
<symbol id="vibration" viewBox="0 0 24 24"><path d="M0 0h24v24H0V0z" fill="none"/><path d="M0 15h2V9H0v6zm3 2h2V7H3v10zm19-8v6h2V9h-2zm-3 8h2V7h-2v10zM18 3H6v18h12V3zm-2 16H8V5h8v14z"/></symbol>
<symbol id="voice_chat" viewBox="0 0 24 24"><path d="M0 0h24v24H0V0z" fill="none"/><path d="M22 2H2.01L2 22l4-4h16V2zm-4 12l-4-3.2V14H6V6h8v3.2L18 6v8z"/></symbol>
<symbol id="vpn_lock" viewBox="0 0 24 24"><path d="M0 0h24v24H0V0z" fill="none"/><path d="M19 13c0 2.08-.8 3.97-2.1 5.39V17H14v-4H7v-2h3V8h4V3.46c-.95-.3-1.95-.46-3-.46C5.48 3 1 7.48 1 13s4.48 10 10 10 10-4.48 10-10c0-.34-.02-.67-.05-1h-2.03c.04.33.08.66.08 1zm-9 7.93c-3.95-.49-7-3.85-7-7.93 0-.62.08-1.21.21-1.79L8 16v3h2v1.93zM22 4v-.36c0-1.31-.94-2.5-2.24-2.63C18.26.86 17 2.03 17 3.5V4h-1v6h7V4h-1zm-1 0h-3v-.5c0-.83.67-1.5 1.5-1.5s1.5.67 1.5 1.5V4z"/></symbol>
<symbol id="wc" viewBox="0 0 24 24"><path d="M.01 0h24v24h-24V0z" fill="none"/><path d="M5.5 22v-7.5H4V7h7v7.5H9.5V22h-4zM18 22v-6h3l-3-9h-3l-3 9h3v6h3zM7.5 6c1.11 0 2-.89 2-2s-.89-2-2-2-2 .89-2 2 .89 2 2 2zm9 0c1.11 0 2-.89 2-2s-.89-2-2-2-2 .89-2 2 .89 2 2 2z"/></symbol>
<symbol id="wifi" viewBox="0 0 24 24"><path d="M0 0h24v24H0V0zm0 0h24v24H0V0z" fill="none"/><path d="M1 9l2 2c4.97-4.97 13.03-4.97 18 0l2-2C16.93 2.93 7.08 2.93 1 9zm8 8l3 3 3-3c-1.65-1.66-4.34-1.66-6 0zm-4-4l2 2c2.76-2.76 7.24-2.76 10 0l2-2C15.14 9.14 8.87 9.14 5 13z"/></symbol>
<symbol id="wifi_off" viewBox="0 0 24 24"><path d="M0 0h24v24H0V0z" fill="none"/><path d="M21 11l2-2c-3.73-3.73-8.87-5.15-13.7-4.31l2.58 2.58c3.3-.02 6.61 1.22 9.12 3.73zM9 17l3 3 3-3c-1.65-1.66-4.34-1.66-6 0zm10-4c-1.08-1.08-2.36-1.85-3.72-2.33l3.02 3.02.7-.69zM3.41 1.64L2 3.05 5.05 6.1C3.59 6.83 2.22 7.79 1 9l2 2c1.23-1.23 2.65-2.16 4.17-2.78l2.24 2.24C7.79 10.89 6.27 11.74 5 13l2 2c1.35-1.35 3.11-2.04 4.89-2.06l7.08 7.08 1.41-1.41L3.41 1.64z"/></symbol>
</svg>