<svg xmlns="http://www.w3.org/2000/svg">
<symbol id="ac_unit" viewBox="0 0 24 24"><path d="M0 0h24v24H0V0z" fill="none"/><path d="M22 11h-4.17l3.24-3.24-1.41-1.42L15 11h-2V9l4.66-4.66-1.42-1.41L13 6.17V2h-2v4.17L7.76 2.93 6.34 4.34 11 9v2H9L4.34 6.34 2.93 7.76 6.17 11H2v2h4.17l-3.24 3.24 1.41 1.42L9 13h2v2l-4.66 4.66 1.42 1.41L11 17.83V22h2v-4.17l3.24 3.24 1.42-1.41L13 15v-2h2l4.66 4.66 1.41-1.42L17.83 13H22v-2z"/></symbol>
<symbol id="airport_shuttle" viewBox="0 0 24 24"><path d="M0 0h24v24H0V0z" fill="none"/><path d="M17 5H1v11h2c0 1.66 1.34 3 3 3s3-1.34 3-3h6c0 1.66 1.34 3 3 3s3-1.34 3-3h2v-5l-6-6zM3 11V7h4v4H3zm3 6.25c-.69 0-1.25-.56-1.25-1.25s.56-1.25 1.25-1.25 1.25.56 1.25 1.25-.56 1.25-1.25 1.25zM13 11H9V7h4v4zm5 6.25c-.69 0-1.25-.56-1.25-1.25s.56-1.25 1.25-1.25 1.25.56 1.25 1.25-.56 1.25-1.25 1.25zM15 11V7h1l4 4h-5z"/></symbol>
<symbol id="all_inclusive" viewBox="0 0 24 24"><path d="M0 0h24v24H0V0z" fill="none"/><path d="M18.6 6.62c-1.44 0-2.8.56-3.77 1.53L7.8 14.39c-.64.64-1.49.99-2.4.99-1.87 0-3.39-1.51-3.39-3.38S3.53 8.62 5.4 8.62c.91 0 1.76.35 2.44 1.03l1.13 1 1.51-1.34L9.22 8.2C8.2 7.18 6.84 6.62 5.4 6.62 2.42 6.62 0 9.04 0 12s2.42 5.38 5.4 5.38c1.44 0 2.8-.56 3.77-1.53L13.51 12l2.69-2.39c.64-.64 1.49-.99 2.4-.99 1.87 0 3.39 1.51 3.39 3.38s-1.52 3.38-3.39 3.38c-.9 0-1.76-.35-2.44-1.03l-1.14-1.01-1.51 1.34 1.27 1.12c1.02 1.01 2.37 1.57 3.82 1.57 2.98 0 5.4-2.41 5.4-5.38s-2.42-5.37-5.4-5.37z"/></symbol>
<symbol id="apartment" viewBox="0 0 24 24"><g><rect fill="none" height="24" width="24"/></g><g><path d="M17,11V3H7v4H3v14h8v-4h2v4h8V11H17z M7,19H5v-2h2V19z M7,15H5v-2h2V15z M7,11H5V9h2V11z M11,15H9v-2h2V15z M11,11H9V9h2 V11z M11,7H9V5h2V7z M15,15h-2v-2h2V15z M15,11h-2V9h2V11z M15,7h-2V5h2V7z M19,19h-2v-2h2V19z M19,15h-2v-2h2V15z"/></g></symbol>
<symbol id="baby_changing_station" viewBox="0 0 24 24"><g><rect fill="none" height="24" width="24"/><path d="M14,8v2h-3L8.31,8.82L7,12.75V22H3V12l1.58-4.63C4.86,6.53,5.63,6.01,6.46,6C6.74,6,7.02,6.05,7.3,6.18l4.15,1.83L14,8z M8,1C6.9,1,6,1.9,6,3s0.9,2,2,2s2-0.9,2-2S9.1,1,8,1z M9,19h12v-2H9V19z M19.5,16c0.83,0,1.5-0.67,1.5-1.5 c0-0.83-0.67-1.5-1.5-1.5S18,13.67,18,14.5C18,15.33,18.67,16,19.5,16z M13,13v-2H9v2h2v3h6v-5h-2v2H13z"/></g></symbol>
<symbol id="backpack" viewBox="0 0 24 24"><g><rect fill="none" height="24" width="24"/><g><g><path d="M20,8v14H4V8c0-1.86,1.28-3.41,3-3.86V2h3v2h4V2h3v2.14C18.72,4.59,20,6.14,20,8z M6,12v2h10v2h2v-4H6z"/></g></g></g></symbol>
<symbol id="bathtub" viewBox="0 0 24 24"><g><rect fill="none" height="24" width="24"/></g><g><g><g><circle cx="7" cy="7" r="2"/></g><g><path d="M20,13V4.83C20,3.27,18.73,2,17.17,2c-0.75,0-1.47,0.3-2,0.83l-1.25,1.25C13.76,4.03,13.59,4,13.41,4 c-0.4,0-0.77,0.12-1.08,0.32l2.76,2.76c0.2-0.31,0.32-0.68,0.32-1.08c0-0.18-0.03-0.34-0.07-0.51l1.25-1.25 C16.74,4.09,16.95,4,17.17,4C17.63,4,18,4.37,18,4.83V13h-6.85c-0.3-0.21-0.57-0.45-0.82-0.72l-1.4-1.55 c-0.19-0.21-0.43-0.38-0.69-0.5C7.93,10.08,7.59,10,7.24,10C6,10.01,5,11.01,5,12.25V13H2v8h2v1h16v-1h2v-8H20z"/></g></g></g></symbol>
<symbol id="beach_access" viewBox="0 0 24 24"><path d="M0 0h24v24H0V0z" fill="none"/><path d="M5.95 5.98c-3.94 3.95-3.93 10.35.02 14.3l2.86-2.86C5.7 14.29 4.65 9.91 5.95 5.98zm11.47 2.85l2.86-2.86c-3.95-3.95-10.35-3.96-14.3-.02 3.93-1.3 8.31-.25 11.44 2.88zM5.97 5.96l-.01.01c-.38 3.01 1.17 6.88 4.3 10.02l5.73-5.73c-3.13-3.13-7.01-4.68-10.02-4.3zm7.156 8.6l1.428-1.428 6.442 6.442-1.43 1.428z"/></symbol>
<symbol id="bento" viewBox="0 0 24 24"><rect fill="none" height="24" width="24"/><g><path d="M16,11V5h6v6H16z M16,19h6v-6h-6V19z M14,5v14H2V5H14z M9.5,12c0-0.83-0.67-1.5-1.5-1.5S6.5,11.17,6.5,12s0.67,1.5,1.5,1.5 S9.5,12.83,9.5,12z"/></g></symbol>
<symbol id="business_center" viewBox="0 0 24 24"><path d="M0 0h24v24H0V0z" fill="none"/><path d="M10 16v-1H3.01v6H21v-6h-7v1h-4zm12-9h-6V5l-2-2h-4L8 5v2H2v7h8v-2h4v2h8V7zm-8 0h-4V5h4v2z"/></symbol>
<symbol id="carpenter" viewBox="0 0 24 24"><rect fill="none" height="24" width="24"/><path d="M7,1.5L3.11,5.39l8.13,11.67l-1.41,1.41l4.24,4.24l7.07-7.07L7,1.5z M12.66,18.47l4.24-4.24l1.41,1.41l-4.24,4.24 L12.66,18.47z"/></symbol>
<symbol id="casino" viewBox="0 0 24 24"><path d="M0 0h24v24H0z" fill="none"/><path d="M21 3H3v18h18V3zM7.5 18c-.83 0-1.5-.67-1.5-1.5S6.67 15 7.5 15s1.5.67 1.5 1.5S8.33 18 7.5 18zm0-9C6.67 9 6 8.33 6 7.5S6.67 6 7.5 6 9 6.67 9 7.5 8.33 9 7.5 9zm4.5 4.5c-.83 0-1.5-.67-1.5-1.5s.67-1.5 1.5-1.5 1.5.67 1.5 1.5-.67 1.5-1.5 1.5zm4.5 4.5c-.83 0-1.5-.67-1.5-1.5s.67-1.5 1.5-1.5 1.5.67 1.5 1.5-.67 1.5-1.5 1.5zm0-9c-.83 0-1.5-.67-1.5-1.5S15.67 6 16.5 6s1.5.67 1.5 1.5S17.33 9 16.5 9z"/></symbol>
<symbol id="charging_station" viewBox="0 0 24 24"><g><rect fill="none" height="24" width="24"/><path d="M14.5,11l-3,6v-4h-2l3-6v4H14.5z M5,1h14v22H5V1z M7,6v12h10V6H7z"/></g></symbol>
<symbol id="checkroom" viewBox="0 0 24 24"><g><rect fill="none" height="24" width="24"/><path d="M21.6,18.2L13,11.75v-0.91c1.65-0.49,2.8-2.17,2.43-4.05c-0.26-1.31-1.3-2.4-2.61-2.7C10.54,3.57,8.5,5.3,8.5,7.5h2 C10.5,6.67,11.17,6,12,6s1.5,0.67,1.5,1.5c0,0.84-0.69,1.52-1.53,1.5L11,9l0,2.75L2.4,18.2C1.63,18.78,2.04,20,3,20h9h9 C21.96,20,22.37,18.78,21.6,18.2z M6,18l6-4.5l6,4.5H6z"/></g></symbol>
<symbol id="child_care" viewBox="0 0 24 24"><path d="M0 0h24v24H0V0z" fill="none"/><circle cx="14.5" cy="10.5" r="1.25"/><circle cx="9.5" cy="10.5" r="1.25"/><path d="M12 17c2.01 0 3.74-1.23 4.5-3h-9c.76 1.77 2.49 3 4.5 3zm10.94-5.66c-.25-1.51-1.36-2.74-2.81-3.17-.53-1.12-1.28-2.1-2.19-2.91C16.36 3.85 14.28 3 12 3s-4.36.85-5.94 2.26c-.92.81-1.67 1.8-2.19 2.91-1.45.43-2.56 1.65-2.81 3.17-.04.21-.06.43-.06.66 0 .23.02.45.06.66.25 1.51 1.36 2.74 2.81 3.17.52 1.11 1.27 2.09 2.17 2.89C7.62 20.14 9.71 21 12 21s4.38-.86 5.97-2.28c.9-.8 1.65-1.79 2.17-2.89 1.44-.43 2.55-1.65 2.8-3.17.04-.21.06-.43.06-.66 0-.23-.02-.45-.06-.66zM19 14c-.1 0-.19-.02-.29-.03-.2.67-.49 1.29-.86 1.86C16.6 17.74 14.45 19 12 19s-4.6-1.26-5.85-3.17c-.37-.57-.66-1.19-.86-1.86-.1.01-.19.03-.29.03-1.1 0-2-.9-2-2s.9-2 2-2c.1 0 .19.02.29.03.2-.67.49-1.29.86-1.86C7.4 6.26 9.55 5 12 5s4.6 1.26 5.85 3.17c.37.57.66 1.19.86 1.86.1-.01.19-.03.29-.03 1.1 0 2 .9 2 2s-.9 2-2 2z"/></symbol>
<symbol id="child_friendly" viewBox="0 0 24 24"><path d="M0 0h24v24H0V0z" fill="none"/><path d="M13 2v8h8c0-4.42-3.58-8-8-8zm6.32 13.89C20.37 14.54 21 12.84 21 11H6.44l-.95-2H2v2h2.22s1.89 4.07 2.12 4.42c-1.1.59-1.84 1.75-1.84 3.08C4.5 20.43 6.07 22 8 22c1.76 0 3.22-1.3 3.46-3h2.08c.24 1.7 1.7 3 3.46 3 1.93 0 3.5-1.57 3.5-3.5 0-1.04-.46-1.97-1.18-2.61zM8 20c-.83 0-1.5-.67-1.5-1.5S7.17 17 8 17s1.5.67 1.5 1.5S8.83 20 8 20zm9 0c-.83 0-1.5-.67-1.5-1.5S16.17 17 17 17s1.5.67 1.5 1.5S17.83 20 17 20z"/></symbol>
<symbol id="corporate_fare" viewBox="0 0 24 24"><rect fill="none" height="24" width="24"/><path d="M12,7V3H2v18h20V7H12z M10,19H4v-2h6V19z M10,15H4v-2h6V15z M10,11H4V9h6V11z M10,7H4V5h6V7z M20,19h-8V9h8V19z M18,11h-4v2 h4V11z M18,15h-4v2h4V15z"/></symbol>
<symbol id="countertops" viewBox="0 0 24 24"><rect fill="none" height="24" width="24"/><path d="M18,10V7c0-1.66-1.34-3-3-3c-1.66,0-3,1.34-3,3h2c0-0.55,0.45-1,1-1c0.55,0,1,0.45,1,1v3H8c1.1,0,2-0.9,2-2V4H4v4 c0,1.1,0.9,2,2,2H2v2h2v8h16v-8h2v-2H18z M13,18h-2v-6h2V18z"/></symbol>
<symbol id="do_not_step" viewBox="0 0 24 24"><g><rect fill="none" height="24" width="24"/><path d="M1.39,4.22l8.24,8.24l-0.69,0.72L6.87,11.1c-0.11,0.4-0.26,0.78-0.45,1.12l1.75,1.75l-0.69,0.72l-1.63-1.63 c-0.24,0.29-0.5,0.56-0.77,0.8l1.63,1.63l-0.7,0.72l-1.74-1.74C2.83,15.43,1.34,15.82,1,15.92L1,20h9.5l3.33-3.33l5.94,5.94 l1.41-1.41L2.81,2.81L1.39,4.22z M18.51,15.68l-1.41-1.41l4.48-4.48L23,11.2L18.51,15.68z M20.88,9.08l-4.48,4.48L9.3,6.47L13.8,2 L20.88,9.08z"/></g></symbol>
<symbol id="do_not_touch" viewBox="0 0 24 24"><g><rect fill="none" height="24" width="24"/><path d="M13,10.17l-2.5-2.5V1H13V10.17z M20,4h-2.5v7h-1V2H14v9.17l6,6V4z M9.5,3H7.01v1.18L9.5,6.67V3z M21.19,21.19L2.81,2.81 L1.39,4.22L7,9.83v4.3l-3.32-1.9L2,13.88L9.68,22h9.54l0.56,0.61L21.19,21.19z"/></g></symbol>
<symbol id="dry" viewBox="0 0 24 24"><g><rect fill="none" height="24" width="24"/><path d="M1,12.68V23h18v-2.5h-7v-1h9V17h-9v-1h10v-2.5H12v-1h8V10H8.86l1.88-3.3L9.12,5L1,12.68z M15.65,4.86l-0.07-0.07 c-0.57-0.62-0.82-1.41-0.67-2.2L15,2h-1.89l-0.06,0.43c-0.2,1.36,0.27,2.71,1.3,3.72l0.07,0.06c0.57,0.62,0.82,1.41,0.67,2.2 L14.98,9h1.91l0.06-0.43C17.16,7.21,16.68,5.86,15.65,4.86z M19.65,4.86l-0.07-0.07c-0.57-0.62-0.82-1.41-0.67-2.2L19,2h-1.89 l-0.06,0.43c-0.2,1.36,0.27,2.71,1.3,3.72l0.07,0.06c0.57,0.62,0.82,1.41,0.67,2.2L18.98,9h1.91l0.06-0.43 C21.16,7.21,20.68,5.86,19.65,4.86z"/></g></symbol>
<symbol id="elevator" viewBox="0 0 24 24"><g><rect fill="none" height="24" width="24"/><path d="M21,3H3v18h18V3z M8.5,6c0.69,0,1.25,0.56,1.25,1.25c0,0.69-0.56,1.25-1.25,1.25S7.25,7.94,7.25,7.25 C7.25,6.56,7.81,6,8.5,6z M11,14h-1v4H7v-4H6V9.5h5V14z M15.5,17L13,13h5L15.5,17z M13,11l2.5-4l2.5,4H13z"/></g></symbol>
<symbol id="escalator" viewBox="0 0 24 24"><g><rect fill="none" height="24" width="24"/><g><path d="M21,3H3v18h18L21,3z M18.5,9h-3.2l-5,9H5.5v-3h3.2l5-9h4.8V9z"/></g></g></symbol>
<symbol id="escalator_warning" viewBox="0 0 24 24"><g><rect fill="none" height="24" width="24"/><path d="M6.5,2c1.1,0,2,0.9,2,2s-0.9,2-2,2s-2-0.9-2-2S5.4,2,6.5,2z M15.5,9.5c0,0.83,0.67,1.5,1.5,1.5s1.5-0.67,1.5-1.5 S17.83,8,17,8S15.5,8.67,15.5,9.5z M14.21,12.86l-0.92,1.32L9.72,8C9.37,7.38,8.71,7,7.99,7H3v8h1.5v7h5V11.61L12.03,16h2.2 L15,14.9V22h4v-5h1v-5h-4.15C15.19,12,14.58,12.32,14.21,12.86z"/></g></symbol>
<symbol id="family_restroom" viewBox="0 0 24 24"><g><rect fill="none" height="24" width="24"/><path d="M16,4c0-1.11,0.89-2,2-2s2,0.89,2,2s-0.89,2-2,2S16,5.11,16,4z M20,22v-6h2.5l-3-9l-3,0l-1.17,3.5H17V22H20z M12.5,11.5 c0.83,0,1.5-0.67,1.5-1.5s-0.67-1.5-1.5-1.5S11,9.17,11,10S11.67,11.5,12.5,11.5z M5.5,6c1.11,0,2-0.89,2-2s-0.89-2-2-2 s-2,0.89-2,2S4.39,6,5.5,6z M7.5,22v-7H9V7H2v8h1.5v7H7.5z M14,22v-4h1v-5.5h-5V18h1v4H14z"/></g></symbol>
<symbol id="fence" viewBox="0 0 24 24"><g><rect fill="none" height="24" width="24"/></g><g><path d="M21,12v-2h-2V7l-3-3l-2,2l-2-2l-2,2L8,4L5,7v3H3v2h2v2H3v2h2v4h14v-4h2v-2h-2v-2H21z M16,6.83l1,1V10h-2V7.83l0.41-0.41 L16,6.83z M12,6.83l0.59,0.59L13,7.83V10h-2V7.83l0.41-0.41L12,6.83z M11,14v-2h2v2H11z M13,16v2h-2v-2H13z M7,7.83l1-1l0.59,0.59 L9,7.83V10H7V7.83z M7,12h2v2H7V12z M7,16h2v2H7V16z M17,18h-2v-2h2V18z M17,14h-2v-2h2V14z"/></g></symbol>
<symbol id="fire_extinguisher" viewBox="0 0 24 24"><g><rect fill="none" height="24" width="24"/><path d="M7,19h10v3H7V19z M7,18h10v-5H7V18z M17,3v6l-3.15-0.66c-0.01,0-0.01,0.01-0.02,0.02c1.55,0.62,2.72,1.98,3.07,3.64H7.1 c0.34-1.66,1.52-3.02,3.07-3.64c-0.33-0.26-0.6-0.58-0.8-0.95L5,6.5v-1l4.37-0.91C9.87,3.65,10.86,3,12,3 c0.7,0,1.34,0.25,1.85,0.66L17,3z M13,6c-0.03-0.59-0.45-1-1-1s-1,0.45-1,1s0.45,1,1,1S13,6.55,13,6z"/></g></symbol>
<symbol id="fitness_center" viewBox="0 0 24 24"><path d="M0 0h24v24H0V0z" fill="none"/><path d="M20.57 14.86L22 13.43 20.57 12 17 15.57 8.43 7 12 3.43 10.57 2 9.14 3.43 7.71 2 5.57 4.14 4.14 2.71 2.71 4.14l1.43 1.43L2 7.71l1.43 1.43L2 10.57 3.43 12 7 8.43 15.57 17 12 20.57 13.43 22l1.43-1.43L16.29 22l2.14-2.14 1.43 1.43 1.43-1.43-1.43-1.43L22 16.29l-1.43-1.43z"/></symbol>
<symbol id="food_bank" viewBox="0 0 24 24"><rect fill="none" height="24" width="24"/><path d="M12,3L4,9v12h16V9L12,3z M12.5,12.5c0,0.83-0.67,1.5-1.5,1.5v4h-1v-4c-0.83,0-1.5-0.67-1.5-1.5v-3h1v3H10v-3h1v3h0.5v-3h1 V12.5z M15,18h-1v-3.5h-1v-3c0-1.1,0.9-2,2-2V18z"/></symbol>
<symbol id="foundation" viewBox="0 0 24 24"><rect fill="none" height="24" width="24"/><path d="M19,12h3L12,3L2,12h3v3H3v2h2v3h2v-3h4v3h2v-3h4v3h2v-3h2v-2h-2V12z M7,15v-4.81l4-3.6V15H7z M13,15V6.59l4,3.6V15H13z"/></symbol>
<symbol id="free_breakfast" viewBox="0 0 24 24"><path d="M0 0h24v24H0V0z" fill="none"/><path d="M20 3H4v14h14v-7h2c1.11 0 2-.9 2-2V5c0-1.1-.9-2-2-2zm0 5h-2V5h2v3zM4 19h16v2H4v-2z"/></symbol>
<symbol id="golf_course" viewBox="0 0 24 24"><path d="M0 0h24v24H0V0z" fill="none"/><circle cx="19.5" cy="19.5" r="1.5"/><path d="M17 5.92L9 2v18H7v-1.73c-1.79.35-3 .99-3 1.73 0 1.1 2.69 2 6 2s6-.9 6-2c0-.99-2.16-1.81-5-1.97V8.98l6-3.06z"/></symbol>
<symbol id="grass" viewBox="0 0 24 24"><rect fill="none" height="24" width="24"/><path d="M12,20H2v-2h5.75l0,0C7.02,15.19,4.81,12.99,2,12.26C2.64,12.1,3.31,12,4,12C8.42,12,12,15.58,12,20z M22,12.26 C21.36,12.1,20.69,12,20,12c-2.93,0-5.48,1.58-6.88,3.93c0.29,0.66,0.53,1.35,0.67,2.07c0.13,0.65,0.2,1.32,0.2,2h2h6v-2h-5.75 C16.98,15.19,19.19,12.99,22,12.26z M15.64,11.02c0.78-2.09,2.23-3.84,4.09-5C15.44,6.16,12,9.67,12,14c0,0.01,0,0.02,0,0.02 C12.95,12.75,14.2,11.72,15.64,11.02z M11.42,8.85C10.58,6.66,8.88,4.89,6.7,4C8.14,5.86,9,8.18,9,10.71c0,0.21-0.03,0.41-0.04,0.61 c0.43,0.24,0.83,0.52,1.22,0.82C10.39,10.96,10.83,9.85,11.42,8.85z"/></symbol>
<symbol id="hot_tub" viewBox="0 0 24 24"><path d="M0 0h24v24H0V0z" fill="none"/><circle cx="7" cy="6" r="2"/><path d="M11.15 12c-.31-.22-.59-.46-.82-.72l-1.4-1.55c-.19-.21-.43-.38-.69-.5-.29-.14-.62-.23-.96-.23h-.03C6.01 9 5 10.01 5 11.25V12H2v10h20V12H11.15zM7 20H5v-6h2v6zm4 0H9v-6h2v6zm4 0h-2v-6h2v6zm4 0h-2v-6h2v6zm-.35-14.14l-.07-.07c-.57-.62-.82-1.41-.67-2.2L18 3h-1.89l-.06.43c-.2 1.36.27 2.71 1.3 3.72l.07.06c.57.62.82 1.41.67 2.2l-.11.59h1.91l.06-.43c.21-1.36-.27-2.71-1.3-3.71zm-4 0l-.07-.07c-.57-.62-.82-1.41-.67-2.2L14 3h-1.89l-.06.43c-.2 1.36.27 2.71 1.3 3.72l.07.06c.57.62.82 1.41.67 2.2l-.11.59h1.91l.06-.43c.21-1.36-.27-2.71-1.3-3.71z"/></symbol>
<symbol id="house" viewBox="0 0 24 24"><g><rect fill="none" height="24" width="24"/></g><g><path d="M19,9.3V4h-3v2.6L12,3L2,12h3v8h5v-6h4v6h5v-8h3L19,9.3z M10,10c0-1.1,0.9-2,2-2s2,0.9,2,2H10z"/></g></symbol>
<symbol id="house_siding" viewBox="0 0 24 24"><rect fill="none" height="24" width="24"/><path d="M19,12h3L12,3L2,12h3v8h2v-2h10v2h2V12z M7.21,10h9.58L17,10.19V12H7v-1.81L7.21,10z M14.57,8H9.43L12,5.69L14.57,8z M7,16 v-2h10v2H7z"/></symbol>
<symbol id="kitchen" viewBox="0 0 24 24"><path d="M0 0h24v24H0V0z" fill="none"/><path d="M20 2.01L4 2v20h16V2.01zM18 20H6v-9.02h12V20zm0-11H6V4h12v5zM8 5h2v3H8V5zm0 7h2v5H8v-5z"/></symbol>
<symbol id="meeting_room" viewBox="0 0 24 24"><path d="M0 0h24v24H0V0z" fill="none"/><path d="M14 6v15H3v-2h2V3h9v1h5v15h2v2h-4V6h-3zm-4 5v2h2v-2h-2z"/></symbol>
<symbol id="microwave" viewBox="0 0 24 24"><rect fill="none" height="24" width="24"/><path d="M6.8,10.61L5.37,9.19C5.73,8.79,6.59,8,7.75,8c0.8,0,1.39,0.39,1.81,0.67C9.87,8.88,10.07,9,10.25,9 c0.37,0,0.8-0.41,0.95-0.61l1.42,1.42c-0.36,0.4-1.22,1.19-2.37,1.19c-0.79,0-1.37-0.38-1.79-0.66C8.13,10.12,7.94,10,7.75,10 C7.38,10,6.95,10.41,6.8,10.61z M7.75,15c0.19,0,0.38,0.12,0.71,0.34c0.42,0.28,1,0.66,1.79,0.66c1.16,0,2.01-0.79,2.37-1.19 l-1.42-1.42c-0.15,0.2-0.59,0.61-0.95,0.61c-0.18,0-0.38-0.12-0.69-0.33C9.14,13.39,8.55,13,7.75,13c-1.16,0-2.02,0.79-2.38,1.19 l1.42,1.42C6.95,15.41,7.38,15,7.75,15z M22,4v16H2V4H22z M14,6H4v12h10V6z M19,16c0-0.55-0.45-1-1-1c-0.55,0-1,0.45-1,1 c0,0.55,0.45,1,1,1C18.55,17,19,16.55,19,16z M19,12c0-0.55-0.45-1-1-1c-0.55,0-1,0.45-1,1c0,0.55,0.45,1,1,1 C18.55,13,19,12.55,19,12z M19,7h-2v2h2V7z"/></symbol>
<symbol id="night_shelter" viewBox="0 0 24 24"><rect fill="none" height="24" width="24"/><path d="M12,3L4,9v12h16V9L12,3z M9.75,12.5c0.69,0,1.25,0.56,1.25,1.25S10.44,15,9.75,15S8.5,14.44,8.5,13.75S9.06,12.5,9.75,12.5z M17,18h-1v-1.5H8V18H7v-7h1v4.5h3.5V12H17V18z"/></symbol>
<symbol id="no_backpack" viewBox="0 0 24 24"><rect fill="none" height="24" width="24" y="0"/><g><g><path d="M21.19,21.19L2.81,2.81L1.39,4.22l2.76,2.76C4.06,7.31,4,7.64,4,8v14h15.17l0.61,0.61L21.19,21.19z M6,14v-2h3.17l2,2H6z M6.98,4.15c0.01,0,0.01-0.01,0.02-0.01V2h3v2h4V2h3v2.14c1.72,0.45,3,2,3,3.86v9.17l-2-2V12h-3.17L6.98,4.15z"/></g></g></symbol>
<symbol id="no_cell" viewBox="0 0 24 24"><g><rect fill="none" height="24" width="24"/><path d="M21.19,21.19L2.81,2.81L1.39,4.22L5,7.83V23h14v-1.17l0.78,0.78L21.19,21.19z M7,18V9.83L15.17,18H7z M8.83,6L5,2.17V1h14 v15.17l-2-2V6H8.83z"/></g></symbol>
<symbol id="no_drinks" viewBox="0 0 24 24"><g><rect fill="none" height="24" width="24"/><path d="M21.19,21.19L2.81,2.81L1.39,4.22l8.23,8.23L11,14v5H6v2h12v-0.17l1.78,1.78L21.19,21.19z M13,19v-3.17L16.17,19H13z M7.83,5l-2-2H21v2l-6.2,6.97L9.83,7h6.74l1.78-2H7.83z"/></g></symbol>
<symbol id="no_flash" viewBox="0 0 24 24"><g><path d="M2.45,2.45L1.04,3.87l5.3,5.3L6.14,9.4H2V22h16v-1.17l2.13,2.13l1.41-1.41L2.45,2.45z M10,20c-2.21,0-4-1.79-4-4 c0-1.95,1.4-3.57,3.25-3.92l1.57,1.57c-0.26-0.09-0.53-0.15-0.82-0.15c-1.38,0-2.5,1.12-2.5,2.5c0,1.38,1.12,2.5,2.5,2.5 c1.38,0,2.5-1.12,2.5-2.5c0-0.29-0.06-0.56-0.15-0.82l1.57,1.57C13.57,18.6,11.95,20,10,20z M18,15.17L10.83,8h1.75l1.28,1.4H18 V15.17z M20.4,5.6H22L19,11V7h-1V2h4L20.4,5.6z"/><path d="M0,0h24v24H0V0z" fill="none"/></g></symbol>
<symbol id="no_food" viewBox="0 0 24 24"><g><rect fill="none" height="24" width="24"/><path d="M11.35,8.52L11,5h5V1h2v4h5l-1.38,13.79L18,15.17L11.35,8.52z M21.9,21.9L2.1,2.1L0.69,3.51l5.7,5.7 C3.46,9.83,1,11.76,1,15h11.17l2,2H1v2h15v-0.17l4.49,4.49L21.9,21.9z M1,23h15v-2H1V23z"/></g></symbol>
<symbol id="no_meeting_room" viewBox="0 0 24 24"><path d="M0 0h24v24H0V0z" fill="none"/><path d="M14 6h3v7.88l2 2V4h-5V3H6.12L14 10.88zm-2 5.71V13h-2v-2h1.29L2.41 2.13 1 3.54l4 4V19H3v2h11v-4.46L20.46 23l1.41-1.41z"/></symbol>
<symbol id="no_photography" viewBox="0 0 24 24"><g><rect fill="none" height="24" width="24"/><path d="M10.94,8.12L7.48,4.66L9,3h6l1.83,2H22v14.17l-5.12-5.12C16.96,13.71,17,13.36,17,13c0-2.76-2.24-5-5-5 C11.64,8,11.29,8.04,10.94,8.12z M20.49,23.31L18.17,21H2V5h0.17L0.69,3.51L2.1,2.1L21,21l0.9,0.9L20.49,23.31z M14.49,17.32 l-1.5-1.5C12.67,15.92,12.35,16,12,16c-1.66,0-3-1.34-3-3c0-0.35,0.08-0.67,0.19-0.98l-1.5-1.5C7.25,11.24,7,12.09,7,13 c0,2.76,2.24,5,5,5C12.91,18,13.76,17.75,14.49,17.32z"/></g></symbol>
<symbol id="no_stroller" viewBox="0 0 24 24"><g><rect fill="none" height="24" width="24"/><path d="M10.91,8.08L6.53,3.7C7.6,3.25,8.77,3,10,3c1.56,0,3.03,0.4,4.3,1.1L10.91,8.08z M21.19,21.19l-4.78-4.78l-5.75-5.75 L2.81,2.81L1.39,4.22l7.97,7.97L5.27,17h8.9l1.13,1.13c-0.88,0.33-1.47,1.25-1.26,2.28c0.15,0.76,0.78,1.39,1.54,1.54 c1.03,0.21,1.95-0.38,2.28-1.26l1.91,1.91L21.19,21.19z M6,18c-1.1,0-2,0.9-2,2s0.9,2,2,2s2-0.9,2-2S7.1,18,6,18z M17,6.27 C17.58,5.59,17.97,5,18.65,5C19.42,5,20,5.66,20,6.48V7h2V6.48C22,4.56,20.52,3,18.65,3c-1.66,0-2.54,1.27-3.18,2.03l-3.5,4.11 L17,14.17V6.27z"/></g></symbol>
<symbol id="pool" viewBox="0 0 24 24"><path d="M0 0h24v24H0V0z" fill="none"/><path d="M10 8l-3.25 3.25c.31.12.56.27.77.39.37.23.59.36 1.15.36s.78-.13 1.15-.36c.46-.27 1.08-.64 2.19-.64s1.73.37 2.18.64c.37.22.6.36 1.15.36.55 0 .78-.13 1.15-.36.12-.07.26-.15.41-.23L10.48 5 5 3v2.5L9 7l1 1zm12 8.5h-.02.02zm-16.65-1c.55 0 .78.14 1.15.36.45.27 1.07.64 2.18.64s1.73-.37 2.18-.64c.37-.23.59-.36 1.15-.36.55 0 .78.14 1.15.36.45.27 1.07.64 2.18.64s1.73-.37 2.18-.64c.37-.23.59-.36 1.15-.36.55 0 .78.14 1.15.36.45.27 1.06.63 2.16.64v-2c-.55 0-.78-.14-1.15-.36-.45-.27-1.07-.64-2.18-.64s-1.73.37-2.18.64c-.37.23-.6.36-1.15.36s-.78-.14-1.15-.36c-.45-.27-1.07-.64-2.18-.64s-1.73.37-2.18.64c-.37.23-.59.36-1.15.36-.55 0-.78-.14-1.15-.36-.45-.27-1.07-.64-2.18-.64s-1.73.37-2.18.64c-.37.23-.59.36-1.15.36v2c1.11 0 1.73-.37 2.2-.64.37-.23.6-.36 1.15-.36zM18.67 18c-1.11 0-1.73.37-2.18.64-.37.23-.6.36-1.15.36-.55 0-.78-.14-1.15-.36-.45-.27-1.07-.64-2.18-.64s-1.73.37-2.19.64c-.37.23-.59.36-1.15.36s-.78-.13-1.15-.36c-.45-.27-1.07-.64-2.18-.64s-1.73.37-2.19.64c-.37.23-.59.36-1.15.36v2c1.11 0 1.73-.37 2.19-.64.37-.23.6-.36 1.15-.36.55 0 .78.13 1.15.36.45.27 1.07.64 2.18.64s1.73-.37 2.19-.64c.37-.23.59-.36 1.15-.36.55 0 .78.14 1.15.36.45.27 1.07.64 2.18.64s1.72-.37 2.18-.64c.37-.23.59-.36 1.15-.36.55 0 .78.14 1.15.36.45.27 1.07.64 2.18.64v-2c-.56 0-.78-.13-1.15-.36-.45-.27-1.07-.64-2.18-.64z"/><circle cx="16.5" cy="5.5" r="2.5"/></symbol>
<symbol id="rice_bowl" viewBox="0 0 24 24"><rect fill="none" height="24" width="24"/><path d="M22,12L22,12c0-5.52-4.48-10-10-10S2,6.48,2,12c0,3.69,2.47,6.86,6,8.25V22h8v-1.75C19.53,18.86,22,15.69,22,12z M20,12h-4 V5.08C18.39,6.47,20,9.05,20,12z M14,4.26V12h-4V4.26C10.64,4.1,11.31,4,12,4S13.36,4.1,14,4.26z M4,12c0-2.95,1.61-5.53,4-6.92V12 H4z"/></symbol>
<symbol id="roofing" viewBox="0 0 24 24"><rect fill="none" height="24" width="24"/><path d="M13,18h-2v-2h2V18z M15,14H9v6h6V14L15,14z M19,9.3L19,9.3V4h-3v2.6v0L12,3L2,12h3l7-6.31L19,12h3L19,9.3z"/></symbol>
<symbol id="room_preferences" viewBox="0 0 24 24"><g><rect fill="none" height="24" width="24"/><path d="M14,11.26V6h3v4h2V4h-5V3H5v16H3v2h9.26C11.47,19.87,11,18.49,11,17C11,14.62,12.19,12.53,14,11.26z M10,11h2v2h-2V11z M21.69,16.37l1.14-1l-1-1.73l-1.45,0.49c-0.32-0.27-0.68-0.48-1.08-0.63L19,12h-2l-0.3,1.49c-0.4,0.15-0.76,0.36-1.08,0.63 l-1.45-0.49l-1,1.73l1.14,1c-0.08,0.5-0.08,0.76,0,1.26l-1.14,1l1,1.73l1.45-0.49c0.32,0.27,0.68,0.48,1.08,0.63L17,22h2l0.3-1.49 c0.4-0.15,0.76-0.36,1.08-0.63l1.45,0.49l1-1.73l-1.14-1C21.77,17.13,21.77,16.87,21.69,16.37z M18,19c-1.1,0-2-0.9-2-2s0.9-2,2-2 s2,0.9,2,2S19.1,19,18,19z"/></g></symbol>
<symbol id="room_service" viewBox="0 0 24 24"><path d="M0 0h24v24H0V0z" fill="none"/><path d="M2 17h20v2H2v-2zm11.84-9.21c.1-.24.16-.51.16-.79 0-1.1-.9-2-2-2s-2 .9-2 2c0 .28.06.55.16.79C6.25 8.6 3.27 11.93 3 16h18c-.27-4.07-3.25-7.4-7.16-8.21z"/></symbol>
<symbol id="rv_hookup" viewBox="0 0 24 24"><path d="M0 0h24v24H0V0z" fill="none"/><path d="M20 17V9H7V7l-3 3 3 3v-2h4v3H4v5h4c0 1.66 1.34 3 3 3s3-1.34 3-3h8v-2h-2zm-9 3c-.55 0-1-.45-1-1s.45-1 1-1 1 .45 1 1-.45 1-1 1zm7-6h-4v-3h4v3zM17 2v2H9v2h8v2l3-3-3-3z"/></symbol>
<symbol id="smoke_free" viewBox="0 0 24 24"><path d="M0 0h24v24H0V0z" fill="none"/><path d="M20.5 13H22v3h-1.5zm-6-4.35h1.53c1.05 0 1.97.74 1.97 2.05V12h1.5v-1.64c0-1.81-1.6-3.16-3.47-3.16H14.5c-1.02 0-1.85-.98-1.85-2s.83-1.75 1.85-1.75v-1.5c-1.85 0-3.35 1.5-3.35 3.35s1.5 3.35 3.35 3.35zM17 13h-2.34L17 15.34zm1.85-8.27c.62-.61 1-1.45 1-2.38h-1.5c0 1.02-.83 1.85-1.85 1.85v1.5c2.24 0 4 1.83 4 4.07V12H22V9.76c0-2.22-1.28-4.14-3.15-5.03zM18 13h1.5v3H18zM3.41 4.59L2 6l7 7H2v3h10l7 7 1.41-1.41z"/></symbol>
<symbol id="smoking_rooms" viewBox="0 0 24 24"><path d="M0 0h24v24H0V0z" fill="none"/><path d="M2 16h15v3H2v-3zm18.5 0H22v3h-1.5v-3zM18 16h1.5v3H18v-3zm.85-8.27c.62-.61 1-1.45 1-2.38C19.85 3.5 18.35 2 16.5 2v1.5c1.02 0 1.85.83 1.85 1.85S17.52 7.2 16.5 7.2v1.5c2.24 0 4 1.83 4 4.07V15H22v-2.24c0-2.22-1.28-4.14-3.15-5.03zm-2.82 2.47H14.5c-1.02 0-1.85-.98-1.85-2s.83-1.75 1.85-1.75v-1.5c-1.85 0-3.35 1.5-3.35 3.35s1.5 3.35 3.35 3.35h1.53c1.05 0 1.97.74 1.97 2.05V15h1.5v-1.64c0-1.81-1.6-3.16-3.47-3.16z"/></symbol>
<symbol id="soap" viewBox="0 0 24 24"><g><rect fill="none" height="24" width="24"/><path d="M14.25,6C14.66,6,15,6.34,15,6.75S14.66,7.5,14.25,7.5S13.5,7.16,13.5,6.75S13.84,6,14.25,6 M14.25,4.5 C13.01,4.5,12,5.51,12,6.75S13.01,9,14.25,9s2.25-1.01,2.25-2.25S15.49,4.5,14.25,4.5L14.25,4.5z M20,5.5c0.28,0,0.5,0.22,0.5,0.5 S20.28,6.5,20,6.5S19.5,6.28,19.5,6S19.72,5.5,20,5.5 M20,4c-1.1,0-2,0.9-2,2s0.9,2,2,2s2-0.9,2-2S21.1,4,20,4L20,4z M18,2.5 C18,3.33,17.33,4,16.5,4C15.67,4,15,3.33,15,2.5S15.67,1,16.5,1C17.33,1,18,1.67,18,2.5z M1,12.68V23h18v-2.5h-7v-1h9V17h-9v-1h10 v-2.5H12v-1h8V10H8.86l1.88-3.3L9.12,5L1,12.68z"/></g></symbol>
<symbol id="spa" viewBox="0 0 24 24"><path d="M0 0h24v24H0V0z" fill="none"/><path d="M8.55 12c-1.07-.71-2.25-1.27-3.53-1.61 1.28.34 2.46.9 3.53 1.61zm10.43-1.61c-1.29.34-2.49.91-3.57 1.64 1.08-.73 2.28-1.3 3.57-1.64zm-3.49-.76c-.18-2.79-1.31-5.51-3.43-7.63-2.14 2.14-3.32 4.86-3.55 7.63 1.28.68 2.46 1.56 3.49 2.63 1.03-1.06 2.21-1.94 3.49-2.63zm-6.5 2.65c-.14-.1-.3-.19-.45-.29.15.11.31.19.45.29zm6.42-.25c-.13.09-.27.16-.4.26.13-.1.27-.17.4-.26zM12 15.45C9.85 12.17 6.18 10 2 10c0 5.32 3.36 9.82 8.03 11.49.63.23 1.29.4 1.97.51.68-.12 1.33-.29 1.97-.51C18.64 19.82 22 15.32 22 10c-4.18 0-7.85 2.17-10 5.45z"/></symbol>
<symbol id="sports_bar" viewBox="0 0 24 24"><rect fill="none" height="24" width="24"/><path d="M21,9h-3.56C17.79,8.41,18,7.73,18,7c0-2.21-1.79-4-4-4c-0.34,0-0.66,0.05-0.98,0.13C12.2,2.45,11.16,2.02,10,2.02 c-1.89,0-3.51,1.11-4.27,2.71C4.15,5.26,3,6.74,3,8.5c0,1.86,1.28,3.41,3,3.86L6,21h11v-2h4V9z M7,10.5c-1.1,0-2-0.9-2-2 c0-0.85,0.55-1.6,1.37-1.88l0.8-0.27l0.36-0.76C8,4.62,8.94,4.02,10,4.02c0.79,0,1.39,0.35,1.74,0.65l0.78,0.65 c0,0,0.64-0.32,1.47-0.32c1.1,0,2,0.9,2,2c0,0-3,0-3,0C9.67,7,9.15,10.5,7,10.5z M19,17h-2v-6h2V17z"/></symbol>
<symbol id="stairs" viewBox="0 0 24 24"><g><rect fill="none" height="24" width="24" x="0"/><g><g><path d="M3,3v18h18V3H3z M18,8h-2.42v3.33H13v3.33h-2.58V18H6v-2h2.42v-3.33H11V9.33h2.58V6H18V8z"/></g></g></g></symbol>
<symbol id="storefront" viewBox="0 0 24 24"><g><rect fill="none" height="24" width="24"/></g><g><g/><g><path d="M21.9,8.89L20.49,3h-3.75h-2.01H13h-2H9.28H7.26H3.51L2.1,8.89c-0.24,1.02-0.02,2.06,0.62,2.88 C2.8,11.88,2.91,11.96,3,12.06V21h18v-8.94c0.09-0.09,0.2-0.18,0.28-0.28C21.92,10.96,22.15,9.91,21.9,8.89z M7.02,5L6.44,9.86 C6.36,10.51,5.84,11,5.23,11c-0.49,0-0.8-0.29-0.93-0.47c-0.26-0.33-0.35-0.76-0.25-1.17L5.09,5H7.02z M18.91,5l1.05,4.36 c0.1,0.42,0.01,0.84-0.25,1.17C19.57,10.71,19.27,11,18.77,11c-0.61,0-1.14-0.49-1.21-1.14L16.98,5H18.91z M15.51,9.52 c0.05,0.39-0.07,0.78-0.33,1.07C14.95,10.85,14.63,11,14.22,11C13.55,11,13,10.41,13,9.69V5h1.96L15.51,9.52z M11,9.69 C11,10.41,10.45,11,9.71,11c-0.34,0-0.65-0.15-0.89-0.41C8.57,10.3,8.45,9.91,8.49,9.52L9.04,5H11V9.69z M5,19v-6.03 C5.08,12.98,5.15,13,5.23,13c0.87,0,1.66-0.36,2.24-0.95c0.6,0.6,1.4,0.95,2.31,0.95c0.87,0,1.65-0.36,2.23-0.93 c0.59,0.57,1.39,0.93,2.29,0.93c0.84,0,1.64-0.35,2.24-0.95c0.58,0.59,1.37,0.95,2.24,0.95c0.08,0,0.15-0.02,0.23-0.03V19H5z"/></g></g></symbol>
<symbol id="stroller" viewBox="0 0 24 24"><g><rect fill="none" height="24" width="24"/><path d="M18,20c0,1.1-0.9,2-2,2s-2-0.9-2-2s0.9-2,2-2S18,18.9,18,20z M6,18c-1.1,0-2,0.9-2,2s0.9,2,2,2s2-0.9,2-2S7.1,18,6,18z M22,7V6.48C22,4.56,20.52,3,18.65,3c-1.66,0-2.54,1.27-3.18,2.03L5.27,17H17V6.27C17.58,5.59,17.97,5,18.65,5 C19.42,5,20,5.66,20,6.48V7H22z M14.3,4.1C13.03,3.4,11.56,3,10,3C8.03,3,6.21,3.64,4.72,4.72l4.89,4.89L14.3,4.1z"/></g></symbol>
<symbol id="tapas" viewBox="0 0 24 24"><rect fill="none" height="24" width="24"/><path d="M22,10V1h-8v9c0,1.86,1.28,3.41,3,3.86V21h-2v2h6v-2h-2v-7.14C20.72,13.41,22,11.86,22,10z M20,3v3h-4V3H20z M10,9H8V8h2 c1.38,0,2.5-1.12,2.5-2.5C12.5,4.12,11.38,3,10,3H8V1H6v2H4C2.62,3,1.5,4.12,1.5,5.5C1.5,6.88,2.62,8,4,8h2v1H4 c-1.38,0-2.5,1.12-2.5,2.5C1.5,12.88,2.62,14,4,14h2v9h2v-9h2c1.38,0,2.5-1.12,2.5-2.5C12.5,10.12,11.38,9,10,9z"/></symbol>
<symbol id="tty" viewBox="0 0 24 24"><g><rect fill="none" height="24" width="24" x="0"/><path d="M20,15v6c-3.28,0-6.35-0.89-9-2.43C8.27,16.99,6.01,14.73,4.43,12C2.89,9.35,2,6.28,2,3h6l1,5l-2.9,2.9 c1.43,2.5,3.5,4.57,6,6L15,14L20,15z M14,6h2V4h-2V6z M13,9h2V7h-2V9z M11,6h2V4h-2V6z M18,7h-2v2h2V7z M19,4h-2v2h2V4z M21,7h-2v2 h2V7z M22,4h-2v2h2V4z M14,12h2v-2h-2V12z M11,12h2v-2h-2V12z M19,10h-2v2h2V10z M22,10h-2v2h2V10z"/></g></symbol>
<symbol id="umbrella" viewBox="0 0 24 24"><g><rect fill="none" height="24" width="24"/><path d="M14.5,6.92L13,5.77V3.88V3.4c0-0.26,0.22-0.48,0.5-0.48c0.28,0,0.5,0.21,0.5,0.48V4h2V3.4C16,2.07,14.88,1,13.5,1 C12.12,1,11,2.07,11,3.4v0.48v1.89L9.5,6.92L6,6.07l5.05,15.25C11.2,21.77,11.6,22,12,22s0.8-0.23,0.95-0.69L18,6.07L14.5,6.92z M13.28,8.5l0.76,0.58l0.92-0.23L13,14.8V8.29L13.28,8.5z M9.96,9.09l0.76-0.58L11,8.29v6.51L9.03,8.86L9.96,9.09z"/></g></symbol>
<symbol id="wash" viewBox="0 0 24 24"><g><rect fill="none" height="24" width="24"/><path d="M9.12,5L1,12.68V23h18v-2.5h-7v-1h9V17h-9v-1h10v-2.5H12v-1h8V10H8.86l1.88-3.3L9.12,5L9.12,5z M13.5,9 C14.33,9,15,8.33,15,7.5C15,6.66,13.5,5,13.5,5S12,6.66,12,7.5C12,8.33,12.67,9,13.5,9z M18.5,1c0,0-2.5,2.83-2.5,4.5 C16,6.88,17.12,8,18.5,8S21,6.88,21,5.5C21,3.83,18.5,1,18.5,1z"/></g></symbol>
<symbol id="water_damage" viewBox="0 0 24 24"><rect fill="none" height="24" width="24"/><path d="M12,3L2,12h3v8h14v-8h3L12,3z M12,16c-1.1,0-2-0.9-2-2c0-1.1,2-4,2-4s2,2.9,2,4C14,15.1,13.1,16,12,16z"/></symbol>
<symbol id="wheelchair_pickup" viewBox="0 0 24 24"><g><rect fill="none" height="24" width="24" x="0"/><path d="M4.5,4c0-1.11,0.89-2,2-2s2,0.89,2,2s-0.89,2-2,2S4.5,5.11,4.5,4z M10,10.95V7H3v8h2v7h3.5v-0.11c-1.24-1.26-2-2.99-2-4.89 C6.5,14.42,7.91,12.16,10,10.95z M16.5,17c0,1.65-1.35,3-3,3s-3-1.35-3-3c0-1.11,0.61-2.06,1.5-2.58v-2.16 C9.98,12.9,8.5,14.77,8.5,17c0,2.76,2.24,5,5,5s5-2.24,5-5H16.5z M19.54,14H15V8h-2v8h5.46l2.47,3.71l1.66-1.11L19.54,14z"/></g></symbol>
</svg>