<svg xmlns="http://www.w3.org/2000/svg">
<symbol id="6_ft_apart" viewBox="0 0 24 24"><rect fill="none" height="24" width="24" x="0"/><path d="M6,6c1.1,0,2-0.9,2-2S7.1,2,6,2S4,2.9,4,4S4.9,6,6,6z M10,9.43c0-0.81-0.48-1.53-1.22-1.85C7.93,7.21,6.99,7,6,7 C5.01,7,4.07,7.21,3.22,7.58C2.48,7.9,2,8.62,2,9.43V10h8V9.43z M18,6c1.1,0,2-0.9,2-2s-0.9-2-2-2s-2,0.9-2,2S16.9,6,18,6z M22,9.43 c0-0.81-0.48-1.53-1.22-1.85C19.93,7.21,18.99,7,18,7c-0.99,0-1.93,0.21-2.78,0.58C14.48,7.9,14,8.62,14,9.43V10h8V9.43z M19,17 v-2.01L5,15v2l-3-3l3-3v2.01L19,13v-2l3,3L19,17z M10,19v-1H7v4h3v-2.5H8V19H10z M9,20.5V21H8v-0.5H9z M17.5,19h-1v3h-1v-3h-1v-1h3 V19z M12.5,19v0.5h1v1h-1V22h-1v-4H14v1H12.5z"/></symbol>
<symbol id="architecture" viewBox="0 0 24 24"><g><rect fill="none" height="24" width="24"/></g><g><g><path d="M6.36,18.78L6.61,21l1.62-1.54l2.77-7.6c-0.68-0.17-1.28-0.51-1.77-0.98L6.36,18.78z"/><path d="M14.77,10.88c-0.49,0.47-1.1,0.81-1.77,0.98l2.77,7.6L17.39,21l0.26-2.22L14.77,10.88z"/><path d="M15,8c0-1.3-0.84-2.4-2-2.82V3h-2v2.18C9.84,5.6,9,6.7,9,8c0,1.66,1.34,3,3,3S15,9.66,15,8z M12,9c-0.55,0-1-0.45-1-1 c0-0.55,0.45-1,1-1s1,0.45,1,1C13,8.55,12.55,9,12,9z"/></g></g></symbol>
<symbol id="cake" viewBox="0 0 24 24"><path d="M0 0h24v24H0V0z" fill="none"/><path d="M12 6c1.11 0 2-.9 2-2 0-.38-.1-.73-.29-1.03L12 0l-1.71 2.97c-.19.3-.29.65-.29 1.03 0 1.1.9 2 2 2zm4.53 9.92l-1-1-1.08 1.07c-1.3 1.3-3.58 1.31-4.89 0l-1.07-1.07-1.09 1.07C6.75 16.64 5.88 17 4.96 17c-.73 0-1.4-.23-1.96-.61V22h18v-5.61c-.75.51-1.71.75-2.74.52-.66-.14-1.25-.51-1.73-.99zM18 9h-5V7h-2v2H6c-1.66 0-3 1.34-3 3v1.54c0 1.08.88 1.96 1.96 1.96.52 0 1.02-.2 1.38-.57l2.14-2.13 2.13 2.13c.74.74 2.03.74 2.77 0l2.14-2.13 2.13 2.13c.37.37.86.57 1.38.57 1.08 0 1.96-.88 1.96-1.96V12C21 10.34 19.66 9 18 9z"/></symbol>
<symbol id="clean_hands" viewBox="0 0 24 24"><rect fill="none" height="24" width="24"/><g><path d="M14.99,7l1.37-0.63L16.99,5l0.63,1.37L18.99,7l-1.37,0.63L16.99,9l-0.63-1.37L14.99,7z M20,14c1.1,0,2-0.9,2-2 c0-1.1-2-4-2-4s-2,2.9-2,4C18,13.1,18.9,14,20,14z M1,22h4V11H1V22z M9.24,9.5L15,11.65V11c0-2.42-1.72-4.44-4-4.9V4h2 c0.57,0,1.1,0.17,1.55,0.45l1.43-1.43C15.15,2.39,14.13,2,13,2c-1.48,0-5.5,0-5.5,0v2H9v2.11C7.22,6.48,5.8,7.79,5.25,9.5H9.24z M22,17h-9l-2.09-0.73l0.33-0.94L13,16h4l0-2l-8.03-3H7v9.02L14,22l8-3V17z"/></g></symbol>
<symbol id="connect_without_contact" viewBox="0 0 24 24"><rect fill="none" height="24" width="24"/><path d="M11,14H9c0-4.97,4.03-9,9-9v2C14.13,7,11,10.13,11,14z M18,11V9c-2.76,0-5,2.24-5,5h2C15,12.34,16.34,11,18,11z M7,4 c0-1.11-0.89-2-2-2S3,2.89,3,4s0.89,2,2,2S7,5.11,7,4z M11.45,4.5h-2C9.21,5.92,7.99,7,6.5,7H2v4h6V8.74 C9.86,8.15,11.25,6.51,11.45,4.5z M19,17c1.11,0,2-0.89,2-2s-0.89-2-2-2s-2,0.89-2,2S17.89,17,19,17z M17.5,18 c-1.49,0-2.71-1.08-2.95-2.5h-2c0.2,2.01,1.59,3.65,3.45,4.24V22h6v-4H17.5z"/></symbol>
<symbol id="construction" viewBox="0 0 24 24"><g><rect fill="none" height="24" width="24"/></g><g><g><rect height="8.48" transform="matrix(0.7071 -0.7071 0.7071 0.7071 -6.8717 17.6255)" width="3" x="16.34" y="12.87"/><path d="M17.5,10c1.93,0,3.5-1.57,3.5-3.5c0-0.58-0.16-1.12-0.41-1.6l-2.7,2.7L16.4,6.11l2.7-2.7C18.62,3.16,18.08,3,17.5,3 C15.57,3,14,4.57,14,6.5c0,0.41,0.08,0.8,0.21,1.16l-1.85,1.85l-1.78-1.78l0.71-0.71L9.88,5.61L12,3.49 c-1.17-1.17-3.07-1.17-4.24,0L4.22,7.03l1.41,1.41H2.81L2.1,9.15l3.54,3.54l0.71-0.71V9.15l1.41,1.41l0.71-0.71l1.78,1.78 l-7.41,7.41l2.12,2.12L16.34,9.79C16.7,9.92,17.09,10,17.5,10z"/></g></g></symbol>
<symbol id="coronavirus" viewBox="0 0 24 24"><rect fill="none" height="24" width="24"/><path d="M20.5,10.5v0.75h-1.54c-0.15-1.37-0.69-2.63-1.52-3.65l1.09-1.09l0.01,0.01l0.53,0.53l1.06-1.06l-2.12-2.12l-1.06,1.06 l0.52,0.52l-1.09,1.09c-1.02-0.82-2.27-1.36-3.64-1.51V3.5h0.01h0.75V2h-3v1.5h0.74v1.54C9.87,5.19,8.62,5.74,7.6,6.56L6.51,5.47 l0.01-0.01l0.53-0.53L5.99,3.87L3.87,5.99l1.06,1.06l0.52-0.52l1.09,1.09c-0.82,1.02-1.36,2.26-1.5,3.63H3.5V10.5H2v3h1.5v-0.75 h1.54c0.15,1.37,0.69,2.61,1.5,3.63l-1.09,1.09l-0.52-0.52l-1.06,1.06l2.12,2.12l1.06-1.06l-0.53-0.53v0l-0.01-0.01l1.09-1.09 c1.02,0.82,2.26,1.36,3.63,1.51v1.54H10.5V22h3v-1.5h-0.75h-0.01v-1.54c1.37-0.14,2.62-0.69,3.64-1.51l1.09,1.09l-0.52,0.52 l1.06,1.06l2.12-2.12l-1.06-1.06l-0.53,0.53c0,0,0,0,0,0l-0.01,0.01l-1.09-1.09c0.82-1.02,1.37-2.27,1.52-3.65h1.54v0.75H22v-3H20.5 z M13.75,8c0.55,0,1,0.45,1,1s-0.45,1-1,1s-1-0.45-1-1S13.2,8,13.75,8z M10.25,8c0.55,0,1,0.45,1,1s-0.45,1-1,1s-1-0.45-1-1 S9.7,8,10.25,8z M8.5,13c-0.55,0-1-0.45-1-1c0-0.55,0.45-1,1-1s1,0.45,1,1C9.5,12.55,9.05,13,8.5,13z M10.25,16c-0.55,0-1-0.45-1-1 c0-0.55,0.45-1,1-1s1,0.45,1,1C11.25,15.55,10.8,16,10.25,16z M12,13c-0.55,0-1-0.45-1-1c0-0.55,0.45-1,1-1s1,0.45,1,1 C13,12.55,12.55,13,12,13z M13.75,16c-0.55,0-1-0.45-1-1c0-0.55,0.45-1,1-1s1,0.45,1,1C14.75,15.55,14.3,16,13.75,16z M15.5,13 c-0.55,0-1-0.45-1-1c0-0.55,0.45-1,1-1s1,0.45,1,1C16.5,12.55,16.05,13,15.5,13z"/></symbol>
<symbol id="deck" viewBox="0 0 24 24"><g><rect fill="none" height="24" width="24"/></g><g><g><polygon points="22,9 12,2 2,9 11,9 11,22 13,22 13,9"/><polygon points="4.14,12 2.18,12.37 3,16.74 3,22 5,22 5.02,18 7,18 7,22 9,22 9,16 4.9,16"/><polygon points="19.1,16 15,16 15,22 17,22 17,18 18.98,18 19,22 21,22 21,16.74 21.82,12.37 19.86,12"/></g></g></symbol>
<symbol id="domain" viewBox="0 0 24 24"><path d="M0 0h24v24H0V0z" fill="none"/><path d="M12 7V3H2v18h20V7H12zM6 19H4v-2h2v2zm0-4H4v-2h2v2zm0-4H4V9h2v2zm0-4H4V5h2v2zm4 12H8v-2h2v2zm0-4H8v-2h2v2zm0-4H8V9h2v2zm0-4H8V5h2v2zm10 12h-8v-2h2v-2h-2v-2h2v-2h-2V9h8v10zm-2-8h-2v2h2v-2zm0 4h-2v2h2v-2z"/></symbol>
<symbol id="elderly" viewBox="0 0 24 24"><rect fill="none" height="24" width="24"/><path d="M13.5,5.5c1.1,0,2-0.9,2-2s-0.9-2-2-2s-2,0.9-2,2S12.4,5.5,13.5,5.5z M20,12.5V23h-1V12.5c0-0.28-0.22-0.5-0.5-0.5 S18,12.22,18,12.5v1h-1v-0.69c-1.46-0.38-2.7-1.29-3.51-2.52C13.18,11.16,13,12.07,13,13c0,0.23,0.02,0.46,0.03,0.69L15,16.5V23h-2 v-5l-1.78-2.54L11,19l-3,4l-1.6-1.2L9,18.33V13c0-1.15,0.18-2.29,0.5-3.39L8,10.46V14H6V9.3l5.4-3.07l0,0.01 c0.59-0.31,1.32-0.33,1.94,0.03c0.36,0.21,0.63,0.51,0.8,0.85l0,0l0.79,1.67C15.58,10.1,16.94,11,18.5,11C19.33,11,20,11.67,20,12.5 z"/></symbol>
<symbol id="emoji_emotions" viewBox="0 0 24 24"><g><rect fill="none" height="24" width="24"/></g><g><g/><path d="M11.99,2C6.47,2,2,6.48,2,12c0,5.52,4.47,10,9.99,10C17.52,22,22,17.52,22,12C22,6.48,17.52,2,11.99,2z M8.5,8 C9.33,8,10,8.67,10,9.5S9.33,11,8.5,11S7,10.33,7,9.5S7.67,8,8.5,8z M12,18c-2.28,0-4.22-1.66-5-4h10C16.22,16.34,14.28,18,12,18z M15.5,11c-0.83,0-1.5-0.67-1.5-1.5S14.67,8,15.5,8S17,8.67,17,9.5S16.33,11,15.5,11z"/></g></symbol>
<symbol id="emoji_events" viewBox="0 0 24 24"><rect fill="none" height="24" width="24"/><path d="M19,5h-2V3H7v2H5C3.9,5,3,5.9,3,7v1c0,2.55,1.92,4.63,4.39,4.94c0.63,1.5,1.98,2.63,3.61,2.96V19H7v2h10v-2h-4v-3.1 c1.63-0.33,2.98-1.46,3.61-2.96C19.08,12.63,21,10.55,21,8V7C21,5.9,20.1,5,19,5z M5,8V7h2v3.82C5.84,10.4,5,9.3,5,8z M19,8 c0,1.3-0.84,2.4-2,2.82V7h2V8z"/></symbol>
<symbol id="emoji_flags" viewBox="0 0 24 24"><g><rect fill="none" height="24" width="24"/></g><g><g/><path d="M14,9l-1-2H7V5.72C7.6,5.38,8,4.74,8,4c0-1.1-0.9-2-2-2S4,2.9,4,4c0,0.74,0.4,1.38,1,1.72V21h2v-4h5l1,2h7V9H14z M18,17h-4 l-1-2H7V9h5l1,2h5V17z"/></g></symbol>
<symbol id="emoji_food_beverage" viewBox="0 0 24 24"><g><rect fill="none" height="24" width="24"/></g><g><g/><g><rect height="2" width="18" x="2" y="19"/><path d="M20,3H9v2.4L11,7v5H6V7l2-1.6V3H4v14h14v-7h2c1.1,0,2-0.9,2-2V5C22,3.9,21.1,3,20,3z M20,8h-2V5h2V8z"/></g></g></symbol>
<symbol id="emoji_nature" viewBox="0 0 24 24"><g><rect fill="none" height="24" width="24"/></g><g><g/><g><path d="M21.94,4.88C21.76,4.35,21.25,4,20.68,4c-0.03,0-0.06,0-0.09,0H19.6l-0.31-0.97C19.15,2.43,18.61,2,18,2h0 c-0.61,0-1.15,0.43-1.29,1.04L16.4,4h-0.98c-0.03,0-0.06,0-0.09,0c-0.57,0-1.08,0.35-1.26,0.88c-0.19,0.56,0.04,1.17,0.56,1.48 l0.87,0.52L15.1,8.12c-0.23,0.58-0.04,1.25,0.45,1.62C15.78,9.91,16.06,10,16.33,10c0.31,0,0.61-0.11,0.86-0.32L18,8.98l0.81,0.7 C19.06,9.89,19.36,10,19.67,10c0.27,0,0.55-0.09,0.78-0.26c0.5-0.37,0.68-1.04,0.45-1.62l-0.39-1.24l0.87-0.52 C21.89,6.05,22.12,5.44,21.94,4.88z M18,7c-0.55,0-1-0.45-1-1c0-0.55,0.45-1,1-1s1,0.45,1,1C19,6.55,18.55,7,18,7z"/><path d="M13.49,10.51c-0.43-0.43-0.94-0.73-1.49-0.93V8h-1v1.38c-0.11-0.01-0.23-0.03-0.34-0.03c-1.02,0-2.05,0.39-2.83,1.17 c-0.16,0.16-0.3,0.34-0.43,0.53L6,10.52c-1.56-0.55-3.28,0.27-3.83,1.82c0,0,0,0,0,0c-0.27,0.75-0.23,1.57,0.12,2.29 c0.23,0.48,0.58,0.87,1,1.16c-0.38,1.35-0.06,2.85,1,3.91c1.06,1.06,2.57,1.38,3.91,1c0.29,0.42,0.68,0.77,1.16,1 C9.78,21.9,10.21,22,10.65,22c0.34,0,0.68-0.06,1.01-0.17c0,0,0,0,0,0c1.56-0.55,2.38-2.27,1.82-3.85l-0.52-1.37 c0.18-0.13,0.36-0.27,0.53-0.43c0.87-0.87,1.24-2.04,1.14-3.17H16v-1h-1.59C14.22,11.46,13.92,10.95,13.49,10.51z M4.67,14.29 c-0.25-0.09-0.45-0.27-0.57-0.51s-0.13-0.51-0.04-0.76c0.19-0.52,0.76-0.79,1.26-0.61l3.16,1.19C7.33,14.2,5.85,14.71,4.67,14.29z M10.99,19.94c-0.25,0.09-0.52,0.08-0.76-0.04c-0.24-0.11-0.42-0.32-0.51-0.57c-0.42-1.18,0.09-2.65,0.7-3.8l1.18,3.13 C11.78,19.18,11.51,19.76,10.99,19.94z M12.2,14.6l-0.61-1.61c0-0.01-0.01-0.02-0.02-0.03c-0.02-0.04-0.04-0.08-0.06-0.12 c-0.02-0.04-0.04-0.07-0.07-0.11c-0.03-0.03-0.06-0.06-0.09-0.09c-0.03-0.03-0.06-0.06-0.09-0.09c-0.03-0.03-0.07-0.05-0.11-0.07 c-0.04-0.02-0.07-0.05-0.12-0.06c-0.01,0-0.02-0.01-0.03-0.02L9.4,11.8c0.36-0.29,0.79-0.46,1.26-0.46c0.53,0,1.04,0.21,1.41,0.59 C12.8,12.66,12.84,13.81,12.2,14.6z"/></g></g></symbol>
<symbol id="emoji_objects" viewBox="0 0 24 24"><g><rect fill="none" height="24" width="24"/></g><g><g/><g><path d="M12,3c-0.42,0-0.85,0.04-1.28,0.11c-2.81,0.5-5.08,2.75-5.6,5.55c-0.48,2.61,0.48,5.01,2.22,6.56 C7.77,15.6,8,16.13,8,16.69C8,18.21,8,21,8,21h2.28c0.35,0.6,0.98,1,1.72,1s1.38-0.4,1.72-1H16v-4.31c0-0.55,0.22-1.09,0.64-1.46 C18.09,13.95,19,12.08,19,10C19,6.13,15.87,3,12,3z M14,19h-4v-1h4V19z M14,17h-4v-1h4V17z M12.5,11.41V14h-1v-2.59L9.67,9.59 l0.71-0.71L12,10.5l1.62-1.62l0.71,0.71L12.5,11.41z"/></g></g></symbol>
<symbol id="emoji_people" viewBox="0 0 24 24"><g><rect fill="none" height="24" width="24"/></g><g><g/><g><circle cx="12" cy="4" r="2"/><path d="M15.89,8.11C15.5,7.72,14.83,7,13.53,7c-0.21,0-1.42,0-2.54,0C8.24,6.99,6,4.75,6,2H4c0,3.16,2.11,5.84,5,6.71V22h2v-6h2 v6h2V10.05L18.95,14l1.41-1.41L15.89,8.11z"/></g></g></symbol>
<symbol id="emoji_symbols" viewBox="0 0 24 24"><g><rect fill="none" height="24" width="24"/></g><g><g/><g><rect height="2" width="8" x="3" y="2"/><polygon points="6,11 8,11 8,7 11,7 11,5 3,5 3,7 6,7"/><rect height="2" transform="matrix(0.7071 -0.7071 0.7071 0.7071 -7.0416 16.9999)" width="11" x="11.5" y="16"/><circle cx="14.5" cy="14.5" r="1.5"/><circle cx="19.5" cy="19.5" r="1.5"/><path d="M15.5,11c1.38,0,2.5-1.12,2.5-2.5V4h3V2h-4v4.51C16.58,6.19,16.07,6,15.5,6C14.12,6,13,7.12,13,8.5 C13,9.88,14.12,11,15.5,11z"/><path d="M9.74,15.96l-1.41,1.41l-0.71-0.71l0.35-0.35c0.98-0.98,0.98-2.56,0-3.54c-0.49-0.49-1.13-0.73-1.77-0.73 c-0.64,0-1.28,0.24-1.77,0.73c-0.98,0.98-0.98,2.56,0,3.54l0.35,0.35l-1.06,1.06c-0.98,0.98-0.98,2.56,0,3.54 C4.22,21.76,4.86,22,5.5,22s1.28-0.24,1.77-0.73l1.06-1.06l1.41,1.41l1.41-1.41l-1.41-1.41l1.41-1.41L9.74,15.96z M5.85,14.2 c0.12-0.12,0.26-0.15,0.35-0.15s0.23,0.03,0.35,0.15c0.19,0.2,0.19,0.51,0,0.71l-0.35,0.35L5.85,14.9 C5.66,14.71,5.66,14.39,5.85,14.2z M5.85,19.85C5.73,19.97,5.59,20,5.5,20s-0.23-0.03-0.35-0.15c-0.19-0.19-0.19-0.51,0-0.71 l1.06-1.06l0.71,0.71L5.85,19.85z"/></g></g></symbol>
<symbol id="emoji_transportation" viewBox="0 0 24 24"><g><rect fill="none" height="24" width="24"/></g><g><g/><g><path d="M20.57,10.66C20.43,10.26,20.05,10,19.6,10h-7.19c-0.46,0-0.83,0.26-0.98,0.66L10,14.77l0.01,5.51 c0,0.38,0.31,0.72,0.69,0.72h0.62C11.7,21,12,20.62,12,20.24V19h8v1.24c0,0.38,0.31,0.76,0.69,0.76h0.61 c0.38,0,0.69-0.34,0.69-0.72L22,18.91v-4.14L20.57,10.66z M12.41,11h7.19l1.03,3h-9.25L12.41,11z M12,17c-0.55,0-1-0.45-1-1 s0.45-1,1-1s1,0.45,1,1S12.55,17,12,17z M20,17c-0.55,0-1-0.45-1-1s0.45-1,1-1s1,0.45,1,1S20.55,17,20,17z"/><polygon points="14,9 15,9 15,3 7,3 7,8 2,8 2,21 3,21 3,9 8,9 8,4 14,4"/><rect height="2" width="2" x="5" y="11"/><rect height="2" width="2" x="10" y="5"/><rect height="2" width="2" x="5" y="15"/><rect height="2" width="2" x="5" y="19"/></g></g></symbol>
<symbol id="engineering" viewBox="0 0 24 24"><g><rect fill="none" height="24" width="24"/></g><g><g><path d="M9,15c-2.67,0-8,1.34-8,4v2h16v-2C17,16.34,11.67,15,9,15z"/><path d="M13.75,8H13c0-1.48-0.81-2.75-2-3.45V5.5C11,5.78,10.78,6,10.5,6S10,5.78,10,5.5V4.14C9.68,4.06,9.35,4,9,4 S8.32,4.06,8,4.14V5.5C8,5.78,7.78,6,7.5,6S7,5.78,7,5.5V4.55C5.81,5.25,5,6.52,5,8H4.25v1h9.5V8z"/><path d="M9,13c1.86,0,3.41-1.28,3.86-3H5.14C5.59,11.72,7.14,13,9,13z"/><path d="M21.98,6.23l0.93-0.83l-0.75-1.3l-1.19,0.39c-0.14-0.11-0.3-0.2-0.47-0.27L20.25,3h-1.5L18.5,4.22 c-0.17,0.07-0.33,0.16-0.48,0.27L16.84,4.1l-0.75,1.3l0.93,0.83C17,6.4,17,6.58,17.02,6.75L16.09,7.6l0.75,1.3l1.2-0.38 c0.13,0.1,0.28,0.18,0.43,0.25L18.75,10h1.5l0.27-1.22c0.16-0.07,0.3-0.15,0.44-0.25l1.19,0.38l0.75-1.3l-0.93-0.85 C22,6.57,21.99,6.4,21.98,6.23z M19.5,7.75c-0.69,0-1.25-0.56-1.25-1.25s0.56-1.25,1.25-1.25s1.25,0.56,1.25,1.25 S20.19,7.75,19.5,7.75z"/><path d="M19.4,10.79l-0.85,0.28c-0.1-0.08-0.21-0.14-0.33-0.19L18.04,10h-1.07l-0.18,0.87c-0.12,0.05-0.24,0.12-0.34,0.19 l-0.84-0.28l-0.54,0.93l0.66,0.59c-0.01,0.13-0.01,0.25,0,0.37l-0.66,0.61l0.54,0.93l0.86-0.27c0.1,0.07,0.2,0.13,0.31,0.18 L16.96,15h1.07l0.19-0.87c0.11-0.05,0.22-0.11,0.32-0.18l0.85,0.27l0.54-0.93l-0.66-0.61c0.01-0.13,0.01-0.25,0-0.37l0.66-0.59 L19.4,10.79z M17.5,13.39c-0.49,0-0.89-0.4-0.89-0.89c0-0.49,0.4-0.89,0.89-0.89s0.89,0.4,0.89,0.89 C18.39,12.99,17.99,13.39,17.5,13.39z"/></g></g></symbol>
<symbol id="facebook" viewBox="0 0 24 24"><rect fill="none" height="24" width="24"/><path d="M22,12c0-5.52-4.48-10-10-10S2,6.48,2,12c0,4.84,3.44,8.87,8,9.8V15H8v-3h2V9.5C10,7.57,11.57,6,13.5,6H16v3h-2 c-0.55,0-1,0.45-1,1v2h3v3h-3v6.95C18.05,21.45,22,17.19,22,12z"/></symbol>
<symbol id="fireplace" viewBox="0 0 24 24"><g><rect fill="none" height="24" width="24"/></g><g><path d="M2,2v20h20V2H2z M13.2,13.74c-0.08-0.46-0.07-0.85,0.08-1.28c0.54,1.21,2.15,1.64,1.98,3.18 c-0.19,1.69-2.11,2.37-3.39,1.32c0.76-0.24,1.4-1.04,1.53-1.63C13.52,14.78,13.29,14.29,13.2,13.74z M20,20h-2v-2h-2.02 c0.63-0.84,1.02-1.87,1.02-3c0-1.89-1.09-2.85-1.85-3.37C12.2,9.61,13,7,13,7c-6.73,3.57-6.02,7.47-6,8c0.03,0.96,0.49,2.07,1.23,3 H6v2H4V4h16V20z"/></g></symbol>
<symbol id="follow_the_signs" viewBox="0 0 24 24"><rect fill="none" height="24" width="24"/><path d="M9.5,5.5c1.1,0,2-0.9,2-2s-0.9-2-2-2s-2,0.9-2,2S8.4,5.5,9.5,5.5z M5.75,8.9L3,23h2.1l1.75-8L9,17v6h2v-7.55L8.95,13.4 l0.6-3C10.85,12,12.8,13,15,13v-2c-1.85,0-3.45-1-4.35-2.45L9.7,6.95C9.35,6.35,8.7,6,8,6C7.75,6,7.5,6.05,7.25,6.15L2,8.3V13h2 V9.65L5.75,8.9 M13,2v7h3.75v14h1.5V9H22V2H13z M18.01,8V6.25H14.5v-1.5h3.51V3l2.49,2.5L18.01,8z"/></symbol>
<symbol id="group" viewBox="0 0 24 24"><path d="M0 0h24v24H0V0z" fill="none"/><path d="M16 11c1.66 0 2.99-1.34 2.99-3S17.66 5 16 5s-3 1.34-3 3 1.34 3 3 3zm-8 0c1.66 0 2.99-1.34 2.99-3S9.66 5 8 5 5 6.34 5 8s1.34 3 3 3zm0 2c-2.33 0-7 1.17-7 3.5V19h14v-2.5c0-2.33-4.67-3.5-7-3.5zm8 0c-.29 0-.62.02-.97.05 1.16.84 1.97 1.97 1.97 3.45V19h6v-2.5c0-2.33-4.67-3.5-7-3.5z"/></symbol>
<symbol id="groups" viewBox="0 0 24 24"><rect fill="none" height="24" width="24"/><g><path d="M12,12.75c1.63,0,3.07,0.39,4.24,0.9c1.08,0.48,1.76,1.56,1.76,2.73L18,18H6l0-1.61c0-1.18,0.68-2.26,1.76-2.73 C8.93,13.14,10.37,12.75,12,12.75z M4,13c1.1,0,2-0.9,2-2c0-1.1-0.9-2-2-2s-2,0.9-2,2C2,12.1,2.9,13,4,13z M5.13,14.1 C4.76,14.04,4.39,14,4,14c-0.99,0-1.93,0.21-2.78,0.58C0.48,14.9,0,15.62,0,16.43V18l4.5,0v-1.61C4.5,15.56,4.73,14.78,5.13,14.1z M20,13c1.1,0,2-0.9,2-2c0-1.1-0.9-2-2-2s-2,0.9-2,2C18,12.1,18.9,13,20,13z M24,16.43c0-0.81-0.48-1.53-1.22-1.85 C21.93,14.21,20.99,14,20,14c-0.39,0-0.76,0.04-1.13,0.1c0.4,0.68,0.63,1.46,0.63,2.29V18l4.5,0V16.43z M12,6c1.66,0,3,1.34,3,3 c0,1.66-1.34,3-3,3s-3-1.34-3-3C9,7.34,10.34,6,12,6z"/></g></symbol>
<symbol id="group_add" viewBox="0 0 24 24"><path d="M0 0h24v24H0V0z" fill="none"/><path d="M8 10H5V7H3v3H0v2h3v3h2v-3h3v-2zm10 1c1.66 0 2.99-1.34 2.99-3S19.66 5 18 5c-.32 0-.63.05-.91.14.57.81.9 1.79.9 2.86s-.34 2.04-.9 2.86c.28.09.59.14.91.14zm-5 0c1.66 0 2.99-1.34 2.99-3S14.66 5 13 5s-3 1.34-3 3 1.34 3 3 3zm6.62 2.16c.83.73 1.38 1.66 1.38 2.84v2h3v-2c0-1.54-2.37-2.49-4.38-2.84zM13 13c-2 0-6 1-6 3v2h12v-2c0-2-4-3-6-3z"/></symbol>
<symbol id="history_edu" viewBox="0 0 24 24"><g><rect fill="none" height="24" width="24"/></g><g><g><path d="M9,4v1.38c-0.83-0.33-1.72-0.5-2.61-0.5c-1.79,0-3.58,0.68-4.95,2.05l3.33,3.33h1.11v1.11c0.86,0.86,1.98,1.31,3.11,1.36 V15H6v3c0,1.1,0.9,2,2,2h10c1.66,0,3-1.34,3-3V4H9z M7.89,10.41V8.26H5.61L4.57,7.22C5.14,7,5.76,6.88,6.39,6.88 c1.34,0,2.59,0.52,3.54,1.46l1.41,1.41l-0.2,0.2c-0.51,0.51-1.19,0.8-1.92,0.8C8.75,10.75,8.29,10.63,7.89,10.41z M19,17 c0,0.55-0.45,1-1,1s-1-0.45-1-1v-2h-6v-2.59c0.57-0.23,1.1-0.57,1.56-1.03l0.2-0.2L15.59,14H17v-1.41l-6-5.97V6h8V17z"/></g></g></symbol>
<symbol id="king_bed" viewBox="0 0 24 24"><g><rect fill="none" height="24" width="24"/></g><g><g><rect fill="none" height="3" width="5" x="6" y="7"/><rect fill="none" height="3" width="5" x="13" y="7"/><path d="M20,10V5H4v5H2v7h1.33L4,19h1l0.67-2h12.67L19,19h1l0.67-2H22v-7H20z M11,10H6V7h5V10z M18,10h-5V7h5V10z"/></g></g></symbol>
<symbol id="location_city" viewBox="0 0 24 24"><path d="M0 0h24v24H0V0z" fill="none"/><path d="M15 11V5l-3-3-3 3v2H3v14h18V11h-6zm-8 8H5v-2h2v2zm0-4H5v-2h2v2zm0-4H5V9h2v2zm6 8h-2v-2h2v2zm0-4h-2v-2h2v2zm0-4h-2V9h2v2zm0-4h-2V5h2v2zm6 12h-2v-2h2v2zm0-4h-2v-2h2v2z"/></symbol>
<symbol id="luggage" viewBox="0 0 24 24"><rect fill="none" height="24" width="24"/><g><path d="M19,6h-4V2H9v4H5v15h2c0,0.55,0.45,1,1,1c0.55,0,1-0.45,1-1h6c0,0.55,0.45,1,1,1c0.55,0,1-0.45,1-1h2V6z M9.5,18H8V9h1.5 V18z M12.75,18h-1.5V9h1.5V18z M13.5,6h-3V3.5h3V6z M16,18h-1.5V9H16V18z"/></g></symbol>
<symbol id="masks" viewBox="0 0 24 24"><rect fill="none" height="24" width="24"/><path d="M19.5,6c-1.31,0-2.37,1.01-2.48,2.3C15.14,7.8,14.18,6.5,12,6.5c-2.19,0-3.14,1.3-5.02,1.8C6.87,7.02,5.81,6,4.5,6 C3.12,6,2,7.12,2,8.5V9c0,6,3.6,7.81,6.52,7.98C9.53,17.62,10.72,18,12,18s2.47-0.38,3.48-1.02C18.4,16.81,22,15,22,9V8.5 C22,7.12,20.88,6,19.5,6z M3.5,9V8.5c0-0.55,0.45-1,1-1s1,0.45,1,1v3c0,1.28,0.38,2.47,1.01,3.48C4.99,14.27,3.5,12.65,3.5,9z M20.5,9c0,3.65-1.49,5.27-3.01,5.98c0.64-1.01,1.01-2.2,1.01-3.48v-3c0-0.55,0.45-1,1-1s1,0.45,1,1V9z M10.69,10.48 c-0.44,0.26-0.96,0.56-1.69,0.76V10.2c0.48-0.17,0.84-0.38,1.18-0.58C10.72,9.3,11.23,9,12,9s1.27,0.3,1.8,0.62 c0.34,0.2,0.71,0.42,1.2,0.59v1.04c-0.75-0.21-1.26-0.51-1.71-0.78C12.83,10.2,12.49,10,12,10C11.51,10,11.16,10.2,10.69,10.48z"/></symbol>
<symbol id="military_tech" viewBox="0 0 24 24"><g><rect fill="none" height="24" width="24"/></g><g><path d="M17,11V2H7v9l4.66,2.8l-0.99,2.34l-3.41,0.29l2.59,2.24L9.07,22L12,20.23L14.93,22l-0.78-3.33l2.59-2.24l-3.41-0.29 l-0.99-2.34L17,11z M13,12.23l-1,0.6l-1-0.6V3h2V12.23z"/></g></symbol>
<symbol id="mood" viewBox="0 0 24 24"><path d="M0 0h24v24H0V0z" fill="none"/><path d="M11.99 2C6.47 2 2 6.48 2 12s4.47 10 9.99 10C17.52 22 22 17.52 22 12S17.52 2 11.99 2zM12 20c-4.42 0-8-3.58-8-8s3.58-8 8-8 8 3.58 8 8-3.58 8-8 8zm3.5-9c.83 0 1.5-.67 1.5-1.5S16.33 8 15.5 8 14 8.67 14 9.5s.67 1.5 1.5 1.5zm-7 0c.83 0 1.5-.67 1.5-1.5S9.33 8 8.5 8 7 8.67 7 9.5 7.67 11 8.5 11zm3.5 6.5c2.33 0 4.31-1.46 5.11-3.5H6.89c.8 2.04 2.78 3.5 5.11 3.5z"/></symbol>
<symbol id="mood_bad" viewBox="0 0 24 24"><path d="M0 0h24v24H0V0z" fill="none"/><path d="M11.99 2C6.47 2 2 6.48 2 12s4.47 10 9.99 10C17.52 22 22 17.52 22 12S17.52 2 11.99 2zM12 20c-4.42 0-8-3.58-8-8s3.58-8 8-8 8 3.58 8 8-3.58 8-8 8zm3.5-9c.83 0 1.5-.67 1.5-1.5S16.33 8 15.5 8 14 8.67 14 9.5s.67 1.5 1.5 1.5zm-7 0c.83 0 1.5-.67 1.5-1.5S9.33 8 8.5 8 7 8.67 7 9.5 7.67 11 8.5 11zm3.5 2.5c-2.33 0-4.31 1.46-5.11 3.5h10.22c-.8-2.04-2.78-3.5-5.11-3.5z"/></symbol>
<symbol id="nights_stay" viewBox="0 0 24 24"><g><rect fill="none" height="24" width="24"/></g><g><g><g><path d="M11.1,12.08C8.77,7.57,10.6,3.6,11.63,2.01C6.27,2.2,1.98,6.59,1.98,12c0,0.14,0.02,0.28,0.02,0.42 C2.62,12.15,3.29,12,4,12c1.66,0,3.18,0.83,4.1,2.15C9.77,14.63,11,16.17,11,18c0,1.52-0.87,2.83-2.12,3.51 c0.98,0.32,2.03,0.5,3.11,0.5c3.5,0,6.58-1.8,8.37-4.52C18,17.72,13.38,16.52,11.1,12.08z"/></g><path d="M7,16l-0.18,0C6.4,14.84,5.3,14,4,14c-1.66,0-3,1.34-3,3s1.34,3,3,3c0.62,0,2.49,0,3,0c1.1,0,2-0.9,2-2 C9,16.9,8.1,16,7,16z"/></g></g></symbol>
<symbol id="notifications" viewBox="0 0 24 24"><path d="M0 0h24v24H0V0z" fill="none"/><path d="M12 22c1.1 0 2-.9 2-2h-4c0 1.1.89 2 2 2zm6-6v-5c0-3.07-1.64-5.64-4.5-6.32V2.5h-3v2.18C7.63 5.36 6 7.92 6 11v5l-2 2v1h16v-1l-2-2z"/></symbol>
<symbol id="notifications_active" viewBox="0 0 24 24"><path d="M0 0h24v24H0V0z" fill="none"/><path d="M7.58 4.08L6.15 2.65C3.75 4.48 2.17 7.3 2.03 10.5h2c.15-2.65 1.51-4.97 3.55-6.42zm12.39 6.42h2c-.15-3.2-1.73-6.02-4.12-7.85l-1.42 1.43c2.02 1.45 3.39 3.77 3.54 6.42zM18 11c0-3.07-1.64-5.64-4.5-6.32V2.5h-3v2.18C7.63 5.36 6 7.92 6 11v5l-2 2v1h16v-1l-2-2v-5zm-6 11c.14 0 .27-.01.4-.04.65-.14 1.18-.58 1.44-1.18.1-.24.15-.5.15-.78h-4c.01 1.1.9 2 2.01 2z"/></symbol>
<symbol id="notifications_none" viewBox="0 0 24 24"><path d="M0 0h24v24H0V0z" fill="none"/><path d="M12 22c1.1 0 2-.9 2-2h-4c0 1.1.9 2 2 2zm6-6v-5c0-3.07-1.63-5.64-4.5-6.32V2.5h-3v2.18C7.64 5.36 6 7.92 6 11v5l-2 2v1h16v-1l-2-2zm-2 1H8v-6c0-2.48 1.51-4.5 4-4.5s4 2.02 4 4.5v6z"/></symbol>
<symbol id="notifications_off" viewBox="0 0 24 24"><path d="M0 0h24v24H0V0z" fill="none"/><path d="M12 22c1.1 0 2-.9 2-2h-4c0 1.1.89 2 2 2zm6-11c0-3.07-1.64-5.64-4.5-6.32V2.5h-3v2.18c-.24.06-.47.15-.69.23L18 13.1V11zM5.41 3.35L4 4.76l2.81 2.81C6.29 8.57 6 9.73 6 11v5l-2 2v1h14.24l1.74 1.74 1.41-1.41L5.41 3.35z"/></symbol>
<symbol id="notifications_paused" viewBox="0 0 24 24"><path d="M0 0h24v24H0V0z" fill="none"/><path d="M12 22c1.1 0 2-.9 2-2h-4c0 1.1.89 2 2 2zm6-6v-5c0-3.07-1.64-5.64-4.5-6.32V2.5h-3v2.18C7.63 5.36 6 7.93 6 11v5l-2 2v1h16v-1l-2-2zm-3.5-6.2l-2.8 3.4h2.8V15h-5v-1.8l2.8-3.4H9.5V8h5v1.8z"/></symbol>
<symbol id="no_luggage" viewBox="0 0 24 24"><rect fill="none" height="24" width="24"/><path d="M12.75,9v0.92l1.75,1.75V9H16v4.17l3,3V6h-4V2H9v4H8.83l3,3H12.75z M10.5,3.5h3V6h-3V3.5z M21.19,21.19L2.81,2.81L1.39,4.22 L5,7.83V21h2v1h2v-1h6v1h2v-1h1.17l1.61,1.61L21.19,21.19z M8,18v-7.17l1.5,1.5V18H8z M11.25,18v-3.92l1.5,1.5V18H11.25z"/></symbol>
<symbol id="outdoor_grill" viewBox="0 0 24 24"><g><rect fill="none" height="24" width="24"/></g><g><g><path d="M17,22c1.66,0,3-1.34,3-3s-1.34-3-3-3c-1.3,0-2.4,0.84-2.82,2H9.14l1.99-3.06C11.42,14.98,11.71,15,12,15 c0.29,0,0.58-0.02,0.87-0.06l1.02,1.57c0.42-0.53,0.96-0.95,1.6-1.21l-0.6-0.93C17.31,13.27,19,10.84,19,8H5 c0,2.84,1.69,5.27,4.12,6.37l-4.5,6.92l1.68,1.09L7.84,20h6.34C14.6,21.16,15.7,22,17,22z M17,18c0.55,0,1,0.45,1,1 c0,0.55-0.45,1-1,1s-1-0.45-1-1C16,18.45,16.45,18,17,18z"/><path d="M9.41,7h1c0.15-1.15,0.23-1.64-0.89-2.96C9.1,3.54,8.84,3.27,9.06,2H8.07C7.86,3.11,8.1,4.05,8.96,4.96 C9.18,5.2,9.75,5.63,9.41,7z"/><path d="M11.89,7h1c0.15-1.15,0.23-1.64-0.89-2.96c-0.42-0.5-0.68-0.78-0.46-2.04h-0.99c-0.21,1.11,0.03,2.05,0.89,2.96 C11.67,5.2,12.24,5.63,11.89,7z"/><path d="M14.41,7h1c0.15-1.15,0.23-1.64-0.89-2.96C14.1,3.54,13.84,3.27,14.06,2h-0.99c-0.21,1.11,0.03,2.05,0.89,2.96 C14.18,5.2,14.75,5.63,14.41,7z"/></g></g></symbol>
<symbol id="pages" viewBox="0 0 24 24"><path d="M0 0h24v24H0V0z" fill="none"/><path d="M3 3v8h5L7 7l4 1V3H3zm5 10H3v8h8v-5l-4 1 1-4zm9 4l-4-1v5h8v-8h-5l1 4zm4-14h-8v5l4-1-1 4h5V3z"/></symbol>
<symbol id="party_mode" viewBox="0 0 24 24"><path d="M0 0h24v24H0V0z" fill="none"/><path d="M22 4h-5.17L15 2H9L7.17 4H2v16h20V4zM12 7c1.63 0 3.06.79 3.98 2H12c-1.66 0-3 1.34-3 3 0 .35.07.69.18 1H7.1c-.06-.32-.1-.66-.1-1 0-2.76 2.24-5 5-5zm0 10c-1.63 0-3.06-.79-3.98-2H12c1.66 0 3-1.34 3-3 0-.35-.07-.69-.18-1h2.08c.07.32.1.66.1 1 0 2.76-2.24 5-5 5z"/></symbol>
<symbol id="people" viewBox="0 0 24 24"><path d="M0 0h24v24H0V0z" fill="none"/><path d="M16 11c1.66 0 2.99-1.34 2.99-3S17.66 5 16 5s-3 1.34-3 3 1.34 3 3 3zm-8 0c1.66 0 2.99-1.34 2.99-3S9.66 5 8 5 5 6.34 5 8s1.34 3 3 3zm0 2c-2.33 0-7 1.17-7 3.5V19h14v-2.5c0-2.33-4.67-3.5-7-3.5zm8 0c-.29 0-.62.02-.97.05 1.16.84 1.97 1.97 1.97 3.45V19h6v-2.5c0-2.33-4.67-3.5-7-3.5z"/></symbol>
<symbol id="people_alt" viewBox="0 0 24 24"><g><rect fill="none" height="24" width="24"/></g><g><g/><g><g><path d="M16.67,13.13C18.04,14.06,19,15.32,19,17v3h4v-3 C23,14.82,19.43,13.53,16.67,13.13z" fill-rule="evenodd"/></g><g><circle cx="9" cy="8" fill-rule="evenodd" r="4"/></g><g><path d="M15,12c2.21,0,4-1.79,4-4c0-2.21-1.79-4-4-4c-0.47,0-0.91,0.1-1.33,0.24 C14.5,5.27,15,6.58,15,8s-0.5,2.73-1.33,3.76C14.09,11.9,14.53,12,15,12z" fill-rule="evenodd"/></g><g><path d="M9,13c-2.67,0-8,1.34-8,4v3h16v-3C17,14.34,11.67,13,9,13z" fill-rule="evenodd"/></g></g></g></symbol>
<symbol id="people_outline" viewBox="0 0 24 24"><path d="M0 0h24v24H0V0z" fill="none"/><path d="M9 12c1.93 0 3.5-1.57 3.5-3.5S10.93 5 9 5 5.5 6.57 5.5 8.5 7.07 12 9 12zm0-5c.83 0 1.5.67 1.5 1.5S9.83 10 9 10s-1.5-.67-1.5-1.5S8.17 7 9 7zm0 6.75c-2.34 0-7 1.17-7 3.5V19h14v-1.75c0-2.33-4.66-3.5-7-3.5zM4.34 17c.84-.58 2.87-1.25 4.66-1.25s3.82.67 4.66 1.25H4.34zm11.7-3.19c1.16.84 1.96 1.96 1.96 3.44V19h4v-1.75c0-2.02-3.5-3.17-5.96-3.44zM15 12c1.93 0 3.5-1.57 3.5-3.5S16.93 5 15 5c-.54 0-1.04.13-1.5.35.63.89 1 1.98 1 3.15s-.37 2.26-1 3.15c.46.22.96.35 1.5.35z"/></symbol>
<symbol id="person" viewBox="0 0 24 24"><path d="M0 0h24v24H0V0z" fill="none"/><path d="M12 12c2.21 0 4-1.79 4-4s-1.79-4-4-4-4 1.79-4 4 1.79 4 4 4zm0 2c-2.67 0-8 1.34-8 4v2h16v-2c0-2.66-5.33-4-8-4z"/></symbol>
<symbol id="person_add" viewBox="0 0 24 24"><path d="M0 0h24v24H0V0z" fill="none"/><path d="M15 12c2.21 0 4-1.79 4-4s-1.79-4-4-4-4 1.79-4 4 1.79 4 4 4zm-9-2V7H4v3H1v2h3v3h2v-3h3v-2H6zm9 4c-2.67 0-8 1.34-8 4v2h16v-2c0-2.66-5.33-4-8-4z"/></symbol>
<symbol id="person_add_alt_1" viewBox="0 0 24 24"><g><rect fill="none" height="24" width="24"/></g><g><path d="M13,8c0-2.21-1.79-4-4-4S5,5.79,5,8s1.79,4,4,4S13,10.21,13,8z M15,10v2h3v3h2v-3h3v-2h-3V7h-2v3H15z M1,18v2h16v-2 c0-2.66-5.33-4-8-4S1,15.34,1,18z"/></g></symbol>
<symbol id="person_outline" viewBox="0 0 24 24"><path d="M0 0h24v24H0V0z" fill="none"/><path d="M12 5.9c1.16 0 2.1.94 2.1 2.1s-.94 2.1-2.1 2.1S9.9 9.16 9.9 8s.94-2.1 2.1-2.1m0 9c2.97 0 6.1 1.46 6.1 2.1v1.1H5.9V17c0-.64 3.13-2.1 6.1-2.1M12 4C9.79 4 8 5.79 8 8s1.79 4 4 4 4-1.79 4-4-1.79-4-4-4zm0 9c-2.67 0-8 1.34-8 4v3h16v-3c0-2.66-5.33-4-8-4z"/></symbol>
<symbol id="person_remove" viewBox="0 0 24 24"><g><rect fill="none" height="24" width="24"/></g><g><path d="M14,8c0-2.21-1.79-4-4-4S6,5.79,6,8s1.79,4,4,4S14,10.21,14,8z M17,10v2h6v-2H17z M2,18v2h16v-2c0-2.66-5.33-4-8-4 S2,15.34,2,18z"/></g></symbol>
<symbol id="person_remove_alt_1" viewBox="0 0 24 24"><g><rect fill="none" height="24" width="24"/></g><g><path d="M14,8c0-2.21-1.79-4-4-4S6,5.79,6,8s1.79,4,4,4S14,10.21,14,8z M17,10v2h6v-2H17z M2,18v2h16v-2c0-2.66-5.33-4-8-4 S2,15.34,2,18z"/></g></symbol>
<symbol id="plus_one" viewBox="0 0 24 24"><path d="M0 0h24v24H0V0z" fill="none"/><path d="M10 8H8v4H4v2h4v4h2v-4h4v-2h-4V8zm4.5-1.92V7.9l2.5-.5V18h2V5l-4.5 1.08z"/></symbol>
<symbol id="poll" viewBox="0 0 24 24"><path d="M0 0h24v24H0V0z" fill="none"/><path d="M3 3v18h18V3H3zm6 14H7v-7h2v7zm4 0h-2V7h2v10zm4 0h-2v-4h2v4z"/></symbol>
<symbol id="precision_manufacturing" viewBox="0 0 24 24"><g><rect fill="none" height="24" width="24"/></g><g><path d="M14,10V9.82l2.01,2.01l5.23-2.44l-0.63-1.36l-4.28,2L14,7.7V6.3l2.33-2.33l4.28,2l0.63-1.36l-5.23-2.44L14,4.18V4h-2v2 H8.82C8.4,4.84,7.3,4,6,4C4.34,4,3,5.34,3,7c0,1.1,0.6,2.05,1.48,2.58L7.08,18H4v3h13v-3h-3.62L8.41,8.76 C8.58,8.53,8.72,8.28,8.82,8H12v2H14z M6,8C5.45,8,5,7.55,5,7c0-0.55,0.45-1,1-1s1,0.45,1,1C7,7.55,6.55,8,6,8z"/></g></symbol>
<symbol id="psychology" viewBox="0 0 24 24"><g><rect fill="none" height="24" width="24"/></g><g><g><path d="M13,8.57c-0.79,0-1.43,0.64-1.43,1.43s0.64,1.43,1.43,1.43s1.43-0.64,1.43-1.43S13.79,8.57,13,8.57z"/><path d="M13,3C9.25,3,6.2,5.94,6.02,9.64L4.1,12.2C3.85,12.53,4.09,13,4.5,13H6v3c0,1.1,0.9,2,2,2h1v3h7v-4.68 c2.36-1.12,4-3.53,4-6.32C20,6.13,16.87,3,13,3z M16,10c0,0.13-0.01,0.26-0.02,0.39l0.83,0.66c0.08,0.06,0.1,0.16,0.05,0.25 l-0.8,1.39c-0.05,0.09-0.16,0.12-0.24,0.09l-0.99-0.4c-0.21,0.16-0.43,0.29-0.67,0.39L14,13.83c-0.01,0.1-0.1,0.17-0.2,0.17h-1.6 c-0.1,0-0.18-0.07-0.2-0.17l-0.15-1.06c-0.25-0.1-0.47-0.23-0.68-0.39l-0.99,0.4c-0.09,0.03-0.2,0-0.25-0.09l-0.8-1.39 c-0.05-0.08-0.03-0.19,0.05-0.25l0.84-0.66C10.01,10.26,10,10.13,10,10c0-0.13,0.02-0.27,0.04-0.39L9.19,8.95 c-0.08-0.06-0.1-0.16-0.05-0.26l0.8-1.38c0.05-0.09,0.15-0.12,0.24-0.09l1,0.4c0.2-0.15,0.43-0.29,0.67-0.39l0.15-1.06 C12.02,6.07,12.1,6,12.2,6h1.6c0.1,0,0.18,0.07,0.2,0.17l0.15,1.06c0.24,0.1,0.46,0.23,0.67,0.39l1-0.4c0.09-0.03,0.2,0,0.24,0.09 l0.8,1.38c0.05,0.09,0.03,0.2-0.05,0.26l-0.85,0.66C15.99,9.73,16,9.86,16,10z"/></g></g></symbol>
<symbol id="public" viewBox="0 0 24 24"><path d="M0 0h24v24H0V0z" fill="none"/><path d="M12 2C6.48 2 2 6.48 2 12s4.48 10 10 10 10-4.48 10-10S17.52 2 12 2zm-1 17.93c-3.95-.49-7-3.85-7-7.93 0-.62.08-1.21.21-1.79L9 15v1c0 1.1.9 2 2 2v1.93zm6.9-2.54c-.26-.81-1-1.39-1.9-1.39h-1v-3c0-.55-.45-1-1-1H8v-2h2c.55 0 1-.45 1-1V7h2c1.1 0 2-.9 2-2v-.41c2.93 1.19 5 4.06 5 7.41 0 2.08-.8 3.97-2.1 5.39z"/></symbol>
<symbol id="public_off" viewBox="0 0 24 24"><g><rect fill="none" height="24" width="24"/><path d="M11,8.17L6.49,3.66C8.07,2.61,9.96,2,12,2c5.52,0,10,4.48,10,10c0,2.04-0.61,3.93-1.66,5.51l-1.46-1.46 C19.59,14.87,20,13.48,20,12c0-3.35-2.07-6.22-5-7.41V5c0,1.1-0.9,2-2,2h-2V8.17z M21.19,21.19l-1.41,1.41l-2.27-2.27 C15.93,21.39,14.04,22,12,22C6.48,22,2,17.52,2,12c0-2.04,0.61-3.93,1.66-5.51L1.39,4.22l1.41-1.41L21.19,21.19z M11,18 c-1.1,0-2-0.9-2-2v-1l-4.79-4.79C4.08,10.79,4,11.38,4,12c0,4.08,3.05,7.44,7,7.93V18z"/></g></symbol>
<symbol id="reduce_capacity" viewBox="0 0 24 24"><rect fill="none" height="24" width="24"/><path d="M16,4c0-1.1,0.9-2,2-2s2,0.9,2,2s-0.9,2-2,2S16,5.1,16,4z M20.78,7.58C19.93,7.21,18.99,7,18,7c-0.67,0-1.31,0.1-1.92,0.28 C16.66,7.83,17,8.6,17,9.43V10h5V9.43C22,8.62,21.52,7.9,20.78,7.58z M6,6c1.1,0,2-0.9,2-2S7.1,2,6,2S4,2.9,4,4S4.9,6,6,6z M7.92,7.28C7.31,7.1,6.67,7,6,7C5.01,7,4.07,7.21,3.22,7.58C2.48,7.9,2,8.62,2,9.43V10h5V9.43C7,8.6,7.34,7.83,7.92,7.28z M10,4 c0-1.1,0.9-2,2-2s2,0.9,2,2s-0.9,2-2,2S10,5.1,10,4z M16,10H8V9.43C8,8.62,8.48,7.9,9.22,7.58C10.07,7.21,11.01,7,12,7 c0.99,0,1.93,0.21,2.78,0.58C15.52,7.9,16,8.62,16,9.43V10z M15,16c0-1.1,0.9-2,2-2s2,0.9,2,2s-0.9,2-2,2S15,17.1,15,16z M21,22h-8 v-0.57c0-0.81,0.48-1.53,1.22-1.85C15.07,19.21,16.01,19,17,19c0.99,0,1.93,0.21,2.78,0.58C20.52,19.9,21,20.62,21,21.43V22z M5,16 c0-1.1,0.9-2,2-2s2,0.9,2,2s-0.9,2-2,2S5,17.1,5,16z M11,22H3v-0.57c0-0.81,0.48-1.53,1.22-1.85C5.07,19.21,6.01,19,7,19 c0.99,0,1.93,0.21,2.78,0.58C10.52,19.9,11,20.62,11,21.43V22z M12.75,13v-2h-1.5v2H9l3,3l3-3H12.75z"/></symbol>
<symbol id="sanitizer" viewBox="0 0 24 24"><rect fill="none" height="24" width="24"/><path d="M15.5,6.5C15.5,5.66,17,4,17,4s1.5,1.66,1.5,2.5C18.5,7.33,17.83,8,17,8S15.5,7.33,15.5,6.5z M19.5,15 c1.38,0,2.5-1.12,2.5-2.5c0-1.67-2.5-4.5-2.5-4.5S17,10.83,17,12.5C17,13.88,18.12,15,19.5,15z M13,14h-2v-2H9v2H7v2h2v2h2v-2h2V14z M16,12v10H4V12c0-2.97,2.16-5.43,5-5.91V4H7V2h6c1.13,0,2.15,0.39,2.99,1.01l-1.43,1.43C14.1,4.17,13.57,4,13,4h-2v2.09 C13.84,6.57,16,9.03,16,12z"/></symbol>
<symbol id="school" viewBox="0 0 24 24"><path d="M0 0h24v24H0V0z" fill="none"/><path d="M5 13.18v4L12 21l7-3.82v-4L12 17l-7-3.82zM12 3L1 9l11 6 9-4.91V17h2V9L12 3z"/></symbol>
<symbol id="science" viewBox="0 0 24 24"><g><rect fill="none" height="24" width="24"/></g><g><path d="M19.8,18.4L14,10.67V6.5l1.35-1.69C15.61,4.48,15.38,4,14.96,4H9.04C8.62,4,8.39,4.48,8.65,4.81L10,6.5v4.17L4.2,18.4 C3.71,19.06,4.18,20,5,20h14C19.82,20,20.29,19.06,19.8,18.4z"/></g></symbol>
<symbol id="self_improvement" viewBox="0 0 24 24"><g><rect fill="none" height="24" width="24"/></g><g><g><circle cx="12" cy="6" r="2"/><path d="M21,16v-2c-2.24,0-4.16-0.96-5.6-2.68l-1.34-1.6C13.68,9.26,13.12,9,12.53,9h-1.05c-0.59,0-1.15,0.26-1.53,0.72l-1.34,1.6 C7.16,13.04,5.24,14,3,14v2c2.77,0,5.19-1.17,7-3.25V15l-3.88,1.55C5.45,16.82,5,17.48,5,18.21C5,19.2,5.8,20,6.79,20H9v-0.5 c0-1.38,1.12-2.5,2.5-2.5h3c0.28,0,0.5,0.22,0.5,0.5S14.78,18,14.5,18h-3c-0.83,0-1.5,0.67-1.5,1.5V20h7.21 C18.2,20,19,19.2,19,18.21c0-0.73-0.45-1.39-1.12-1.66L14,15v-2.25C15.81,14.83,18.23,16,21,16z"/></g></g></symbol>
<symbol id="sentiment_dissatisfied" viewBox="0 0 24 24"><path d="M0 0h24v24H0V0z" fill="none"/><circle cx="15.5" cy="9.5" r="1.5"/><circle cx="8.5" cy="9.5" r="1.5"/><path d="M12 14c-2.33 0-4.32 1.45-5.12 3.5h1.67c.69-1.19 1.97-2 3.45-2s2.75.81 3.45 2h1.67c-.8-2.05-2.79-3.5-5.12-3.5zm-.01-12C6.47 2 2 6.48 2 12s4.47 10 9.99 10C17.52 22 22 17.52 22 12S17.52 2 11.99 2zM12 20c-4.42 0-8-3.58-8-8s3.58-8 8-8 8 3.58 8 8-3.58 8-8 8z"/></symbol>
<symbol id="sentiment_satisfied" viewBox="0 0 24 24"><path d="M0 0h24v24H0V0z" fill="none"/><circle cx="15.5" cy="9.5" r="1.5"/><circle cx="8.5" cy="9.5" r="1.5"/><path d="M11.99 2C6.47 2 2 6.48 2 12s4.47 10 9.99 10C17.52 22 22 17.52 22 12S17.52 2 11.99 2zM12 20c-4.42 0-8-3.58-8-8s3.58-8 8-8 8 3.58 8 8-3.58 8-8 8zm0-4c-1.48 0-2.75-.81-3.45-2H6.88c.8 2.05 2.79 3.5 5.12 3.5s4.32-1.45 5.12-3.5h-1.67c-.7 1.19-1.97 2-3.45 2z"/></symbol>
<symbol id="sentiment_very_dissatisfied" viewBox="0 0 24 24"><path d="M0 0h24v24H0V0z" fill="none"/><path d="M12 13.5c-2.33 0-4.31 1.46-5.11 3.5h10.22c-.8-2.04-2.78-3.5-5.11-3.5zM7.82 12l1.06-1.06L9.94 12 11 10.94 9.94 9.88 11 8.82 9.94 7.76 8.88 8.82 7.82 7.76 6.76 8.82l1.06 1.06-1.06 1.06zm4.17-10C6.47 2 2 6.47 2 12s4.47 10 9.99 10S22 17.53 22 12 17.52 2 11.99 2zM12 20c-4.42 0-8-3.58-8-8s3.58-8 8-8 8 3.58 8 8-3.58 8-8 8zm4.18-12.24l-1.06 1.06-1.06-1.06L13 8.82l1.06 1.06L13 10.94 14.06 12l1.06-1.06L16.18 12l1.06-1.06-1.06-1.06 1.06-1.06z"/></symbol>
<symbol id="sentiment_very_satisfied" viewBox="0 0 24 24"><path d="M0 0h24v24H0V0z" fill="none"/><path d="M8.88 9.94L9.94 11 11 9.94 8.88 7.82 6.76 9.94 7.82 11zM12 17.5c2.33 0 4.31-1.46 5.11-3.5H6.89c.8 2.04 2.78 3.5 5.11 3.5zm1-7.56L14.06 11l1.06-1.06L16.18 11l1.06-1.06-2.12-2.12zM11.99 2C6.47 2 2 6.47 2 12s4.47 10 9.99 10S22 17.53 22 12 17.52 2 11.99 2zM12 20c-4.42 0-8-3.58-8-8s3.58-8 8-8 8 3.58 8 8-3.58 8-8 8z"/></symbol>
<symbol id="share" viewBox="0 0 24 24"><path d="M0 0h24v24H0V0z" fill="none"/><path d="M18 16.08c-.76 0-1.44.3-1.96.77L8.91 12.7c.05-.23.09-.46.09-.7s-.04-.47-.09-.7l7.05-4.11c.54.5 1.25.81 2.04.81 1.66 0 3-1.34 3-3s-1.34-3-3-3-3 1.34-3 3c0 .24.04.47.09.7L8.04 9.81C7.5 9.31 6.79 9 6 9c-1.66 0-3 1.34-3 3s1.34 3 3 3c.79 0 1.5-.31 2.04-.81l7.12 4.16c-.05.21-.08.43-.08.65 0 1.61 1.31 2.92 2.92 2.92s2.92-1.31 2.92-2.92-1.31-2.92-2.92-2.92z"/></symbol>
<symbol id="sick" viewBox="0 0 24 24"><rect fill="none" height="24" width="24"/><path d="M21,9c-1.1,0-2-0.9-2-2c0-1.1,2-4,2-4s2,2.9,2,4C23,8.1,22.1,9,21,9z M17.5,7c0-0.73,0.41-1.71,0.92-2.66 C16.68,2.88,14.44,2,11.99,2C6.47,2,2,6.48,2,12c0,5.52,4.47,10,9.99,10C17.52,22,22,17.52,22,12c0-0.55-0.06-1.09-0.14-1.62 C21.58,10.45,21.3,10.5,21,10.5C19.07,10.5,17.5,8.93,17.5,7z M15.62,7.38l1.06,1.06L15.62,9.5l1.06,1.06l-1.06,1.06L13.5,9.5 L15.62,7.38z M7.32,8.44l1.06-1.06L10.5,9.5l-2.12,2.12l-1.06-1.06L8.38,9.5L7.32,8.44z M15.44,17c-0.69-1.19-1.97-2-3.44-2 s-2.75,0.81-3.44,2H6.88c0.3-0.76,0.76-1.43,1.34-1.99L5.24,13.3c-0.45,0.26-1.01,0.28-1.49,0c-0.72-0.41-0.96-1.33-0.55-2.05 c0.41-0.72,1.33-0.96,2.05-0.55c0.48,0.28,0.74,0.78,0.74,1.29l3.58,2.07c0.73-0.36,1.55-0.56,2.43-0.56c2.33,0,4.32,1.45,5.12,3.5 H15.44z"/></symbol>
<symbol id="single_bed" viewBox="0 0 24 24"><g><rect fill="none" height="24" width="24"/></g><g><path d="M18,10V5H6v5H4v7h1.33L6,19h1l0.67-2h8.67L17,19h1l0.67-2H20v-7H18z M11,10H8V7h3V10z M16,10h-3V7h3V10z"/></g></symbol>
<symbol id="sports" viewBox="0 0 24 24"><g><rect fill="none" height="24" width="24"/></g><g><g><g><path d="M11.23,6C9.57,6,8.01,6.66,6.87,7.73C6.54,6.73,5.61,6,4.5,6C3.12,6,2,7.12,2,8.5C2,9.88,3.12,11,4.5,11 c0.21,0,0.41-0.03,0.61-0.08c-0.05,0.25-0.09,0.51-0.1,0.78c-0.18,3.68,2.95,6.68,6.68,6.27c2.55-0.28,4.68-2.26,5.19-4.77 c0.15-0.71,0.15-1.4,0.06-2.06c-0.09-0.6,0.38-1.13,0.99-1.13H22V6H11.23z M4.5,9C4.22,9,4,8.78,4,8.5C4,8.22,4.22,8,4.5,8 S5,8.22,5,8.5C5,8.78,4.78,9,4.5,9z M11,15c-1.66,0-3-1.34-3-3s1.34-3,3-3s3,1.34,3,3S12.66,15,11,15z"/></g><g><circle cx="11" cy="12" r="2"/></g></g></g></symbol>
<symbol id="sports_baseball" viewBox="0 0 24 24"><g><rect fill="none" height="24" width="24"/></g><g><g><g><path d="M3.81,6.28C2.67,7.9,2,9.87,2,12s0.67,4.1,1.81,5.72C6.23,16.95,8,14.68,8,12S6.23,7.05,3.81,6.28z"/></g><g><path d="M20.19,6.28C17.77,7.05,16,9.32,16,12s1.77,4.95,4.19,5.72C21.33,16.1,22,14.13,22,12S21.33,7.9,20.19,6.28z"/></g><g><path d="M14,12c0-3.28,1.97-6.09,4.79-7.33C17.01,3.02,14.63,2,12,2S6.99,3.02,5.21,4.67C8.03,5.91,10,8.72,10,12 s-1.97,6.09-4.79,7.33C6.99,20.98,9.37,22,12,22s5.01-1.02,6.79-2.67C15.97,18.09,14,15.28,14,12z"/></g></g></g></symbol>
<symbol id="sports_basketball" viewBox="0 0 24 24"><g><rect fill="none" height="24" width="24"/></g><g><g><g><path d="M17.09,11h4.86c-0.16-1.61-0.71-3.11-1.54-4.4C18.68,7.43,17.42,9.05,17.09,11z"/></g><g><path d="M6.91,11C6.58,9.05,5.32,7.43,3.59,6.6C2.76,7.89,2.21,9.39,2.05,11H6.91z"/></g><g><path d="M15.07,11c0.32-2.59,1.88-4.79,4.06-6c-1.6-1.63-3.74-2.71-6.13-2.95V11H15.07z"/></g><g><path d="M8.93,11H11V2.05C8.61,2.29,6.46,3.37,4.87,5C7.05,6.21,8.61,8.41,8.93,11z"/></g><g><path d="M15.07,13H13v8.95c2.39-0.24,4.54-1.32,6.13-2.95C16.95,17.79,15.39,15.59,15.07,13z"/></g><g><path d="M3.59,17.4c1.72-0.83,2.99-2.46,3.32-4.4H2.05C2.21,14.61,2.76,16.11,3.59,17.4z"/></g><g><path d="M17.09,13c0.33,1.95,1.59,3.57,3.32,4.4c0.83-1.29,1.38-2.79,1.54-4.4H17.09z"/></g><g><path d="M8.93,13c-0.32,2.59-1.88,4.79-4.06,6c1.6,1.63,3.74,2.71,6.13,2.95V13H8.93z"/></g></g></g></symbol>
<symbol id="sports_cricket" viewBox="0 0 24 24"><g><rect fill="none" height="24" width="24"/></g><g><g><g><path d="M15.05,12.81L6.56,4.32c-0.39-0.39-1.02-0.39-1.41,0L2.32,7.15c-0.39,0.39-0.39,1.02,0,1.41l8.49,8.49 c0.39,0.39,1.02,0.39,1.41,0l2.83-2.83C15.44,13.83,15.44,13.2,15.05,12.81z"/><rect height="6" transform="matrix(0.7071 -0.7071 0.7071 0.7071 -8.5264 17.7562)" width="2" x="16.17" y="16.17"/></g><circle cx="18.5" cy="5.5" r="3.5"/></g></g></symbol>
<symbol id="sports_esports" viewBox="0 0 24 24"><g><rect fill="none" height="24" width="24"/></g><g><g><path d="M20,5H4L2,19h4l3-3h6l3,3h4L20,5z M11,11H9v2H8v-2H6v-1h2V8h1v2h2V11z M15,10c-0.55,0-1-0.45-1-1c0-0.55,0.45-1,1-1 s1,0.45,1,1C16,9.55,15.55,10,15,10z M17,13c-0.55,0-1-0.45-1-1c0-0.55,0.45-1,1-1s1,0.45,1,1C18,12.55,17.55,13,17,13z"/></g></g></symbol>
<symbol id="sports_football" viewBox="0 0 24 24"><g><rect fill="none" height="24" width="24"/></g><g><g><path d="M3.02,15.62c-0.08,2.42,0.32,4.34,0.67,4.69s2.28,0.76,4.69,0.67L3.02,15.62z"/><path d="M13.08,3.28C10.75,3.7,8.29,4.62,6.46,6.46s-2.76,4.29-3.18,6.62l7.63,7.63c2.34-0.41,4.79-1.34,6.62-3.18 s2.76-4.29,3.18-6.62L13.08,3.28z M9.9,15.5l-1.4-1.4l5.6-5.6l1.4,1.4L9.9,15.5z"/><path d="M20.98,8.38c0.08-2.42-0.32-4.34-0.67-4.69s-2.28-0.76-4.69-0.67L20.98,8.38z"/></g></g></symbol>
<symbol id="sports_golf" viewBox="0 0 24 24"><g><rect fill="none" height="24" width="24"/></g><g><g><path d="M12,16c3.87,0,7-3.13,7-7c0-3.87-3.13-7-7-7S5,5.13,5,9C5,12.87,8.13,16,12,16z M12,4c2.76,0,5,2.24,5,5s-2.24,5-5,5 s-5-2.24-5-5S9.24,4,12,4z"/><circle cx="10" cy="8" r="1"/><circle cx="14" cy="8" r="1"/><circle cx="12" cy="6" r="1"/><path d="M7,19h2c1.1,0,2,0.9,2,2v1h2v-1c0-1.1,0.9-2,2-2h2v-2H7V19z"/></g></g></symbol>
<symbol id="sports_handball" viewBox="0 0 24 24"><g><rect fill="none" height="24" width="24"/></g><g><g><path d="M14.27,6C13.72,6.95,14.05,8.18,15,8.73c0.95,0.55,2.18,0.22,2.73-0.73c0.55-0.95,0.22-2.18-0.73-2.73 C16.05,4.72,14.82,5.05,14.27,6z"/><path d="M15.84,10.41c0,0-1.63-0.94-2.6-1.5c-2.38-1.38-3.2-4.44-1.82-6.82l-1.73-1C8.1,3.83,8.6,7.21,10.66,9.4l-5.15,8.92 l1.73,1l1.5-2.6l1.73,1l-3,5.2l1.73,1l6.29-10.89c1.14,1.55,1.33,3.69,0.31,5.46l1.73,1C19.13,16.74,18.81,12.91,15.84,10.41z"/><path d="M12.75,3.8c0.72,0.41,1.63,0.17,2.05-0.55c0.41-0.72,0.17-1.63-0.55-2.05c-0.72-0.41-1.63-0.17-2.05,0.55 C11.79,2.47,12.03,3.39,12.75,3.8z"/></g></g></symbol>
<symbol id="sports_hockey" viewBox="0 0 24 24"><g><rect fill="none" height="24" width="24"/></g><g><g><path d="M2,17v3l2,0v-4H3C2.45,16,2,16.45,2,17z"/><path d="M9,16H5v4l4.69-0.01c0.38,0,0.72-0.21,0.89-0.55l0.87-1.9l-1.59-3.48L9,16z"/><g><path d="M21.71,16.29C21.53,16.11,21.28,16,21,16h-1v4l2,0v-3C22,16.72,21.89,16.47,21.71,16.29z"/></g><path d="M13.6,12.84L17.65,4H14.3l-1.76,3.97l-0.49,1.1L12,9.21L9.7,4H6.35l4.05,8.84l1.52,3.32L12,16.34l1.42,3.1 c0.17,0.34,0.51,0.55,0.89,0.55L19,20v-4h-4L13.6,12.84z"/></g></g></symbol>
<symbol id="sports_kabaddi" viewBox="0 0 24 24"><g><rect fill="none" height="24" width="24"/></g><g><g><circle cx="16.5" cy="2.38" r="2"/><path d="M24,11.88v-4.7l-5.05-2.14c-0.97-0.41-2.09-0.06-2.65,0.84l0,0l-1,1.6c-0.67,1.18-1.91,2.06-3.41,2.32l0.06,0.06 c0.69,0.69,1.52,1.07,2.46,1.17c0.8-0.42,1.52-0.98,2.09-1.64l0.6,3l-1.16,1.1L15,14.38v0.76v6.74h2v-6l2.1-2l1.8,8H23l-2.18-11 l-0.62-3.1l1.8,0.7v3.4H24z"/><path d="M10.29,8.09c0.22,0.15,0.47,0.24,0.72,0.29c0.13,0.02,0.25,0.04,0.38,0.04s0.26-0.01,0.38-0.04 c0.13-0.02,0.25-0.06,0.37-0.11c0.24-0.1,0.47-0.24,0.66-0.44c0.49-0.49,0.67-1.17,0.55-1.8C13.28,5.66,13.1,5.29,12.8,5 c-0.19-0.19-0.42-0.34-0.66-0.44c-0.12-0.05-0.24-0.09-0.37-0.11s-0.25-0.04-0.38-0.04c-0.12,0-0.23,0.01-0.35,0.03 c-0.14,0.02-0.28,0.06-0.41,0.11C10.4,4.66,10.17,4.81,9.98,5C9.68,5.29,9.5,5.66,9.43,6.03c-0.12,0.63,0.06,1.31,0.55,1.8 C10.07,7.93,10.18,8.01,10.29,8.09z"/><path d="M11.24,10.56l-2-2c-0.1-0.1-0.2-0.18-0.31-0.26C8.71,8.16,8.46,8.06,8.21,8.02C8.08,7.99,7.96,7.98,7.83,7.98 c-0.51,0-1.02,0.2-1.41,0.59l-3.34,3.34c-0.41,0.41-0.62,0.98-0.58,1.54C2.5,13.63,2.54,13.82,2.61,14l1.07,2.95l-3.63,3.63 L1.46,22l4.24-4.24v-2.22L7,16.75v5.13h2v-6l-2.12-2.12l2.36-2.36l0.71,0.71l0,0c1.29,1.26,2.97,2.04,5.03,2.04l-0.14-2.07 C13.34,12.06,12.14,11.46,11.24,10.56z"/></g></g></symbol>
<symbol id="sports_mma" viewBox="0 0 24 24"><g><rect fill="none" height="24" width="24"/></g><g><g><rect height="4" width="10" x="7" y="17"/><path d="M18,7c-0.55,0-1,0.45-1,1V5c0-1.1-0.9-2-2-2H7C5.9,3,5,3.9,5,5v5.8c0,0.13,0.01,0.26,0.04,0.39l0.8,4 c0.09,0.47,0.5,0.8,0.98,0.8h10.36c0.45,0,0.89-0.36,0.98-0.8l0.8-4C18.99,11.06,19,10.93,19,10.8V8C19,7.45,18.55,7,18,7z M15,10 H7V7h8V10z"/></g></g></symbol>
<symbol id="sports_motorsports" viewBox="0 0 24 24"><g><rect fill="none" height="24" width="24"/></g><g><g><path d="M12,11.39c0-0.65-0.39-1.23-0.98-1.48L5.44,7.55c-1.48,1.68-2.32,3.7-2.8,5.45h7.75C11.28,13,12,12.28,12,11.39z"/><path d="M21.96,11.22c-0.41-4.41-4.56-7.49-8.98-7.2c-2.51,0.16-4.44,0.94-5.93,2.04l4.74,2.01c1.33,0.57,2.2,1.87,2.2,3.32 c0,1.99-1.62,3.61-3.61,3.61H2.21C2,16.31,2,17.2,2,17.2V20h12C18.67,20,22.41,15.99,21.96,11.22z"/></g></g></symbol>
<symbol id="sports_rugby" viewBox="0 0 24 24"><g><rect fill="none" height="24" width="24"/></g><g><g><path d="M20.49,3.51c-0.56-0.56-2.15-0.97-4.16-0.97c-3.08,0-7.15,0.96-9.98,3.79C1.66,11.03,2.1,19.07,3.51,20.49 c0.56,0.56,2.15,0.97,4.16,0.97c3.08,0,7.15-0.96,9.98-3.79C22.34,12.97,21.9,4.93,20.49,3.51z M7.76,7.76 c2.64-2.64,6.35-3.12,8.03-3.19c-2.05,0.94-4.46,2.45-6.61,4.61c-2.16,2.16-3.67,4.58-4.61,6.63C4.66,13.33,5.44,10.07,7.76,7.76z M16.24,16.24c-2.64,2.64-6.35,3.12-8.03,3.19c2.05-0.94,4.46-2.45,6.61-4.61c2.16-2.16,3.67-4.58,4.62-6.63 C19.34,10.67,18.56,13.93,16.24,16.24z"/></g></g></symbol>
<symbol id="sports_soccer" viewBox="0 0 24 24"><g><rect fill="none" height="24" width="24"/></g><g><g><path d="M12,2C6.48,2,2,6.48,2,12c0,5.52,4.48,10,10,10s10-4.48,10-10C22,6.48,17.52,2,12,2z M13,5.3l1.35-0.95 c1.82,0.56,3.37,1.76,4.38,3.34l-0.39,1.34l-1.35,0.46L13,6.7V5.3z M9.65,4.35L11,5.3v1.4L7.01,9.49L5.66,9.03L5.27,7.69 C6.28,6.12,7.83,4.92,9.65,4.35z M7.08,17.11l-1.14,0.1C4.73,15.81,4,13.99,4,12c0-0.12,0.01-0.23,0.02-0.35l1-0.73L6.4,11.4 l1.46,4.34L7.08,17.11z M14.5,19.59C13.71,19.85,12.87,20,12,20s-1.71-0.15-2.5-0.41l-0.69-1.49L9.45,17h5.11l0.64,1.11 L14.5,19.59z M14.27,15H9.73l-1.35-4.02L12,8.44l3.63,2.54L14.27,15z M18.06,17.21l-1.14-0.1l-0.79-1.37l1.46-4.34l1.39-0.47 l1,0.73C19.99,11.77,20,11.88,20,12C20,13.99,19.27,15.81,18.06,17.21z"/></g></g></symbol>
<symbol id="sports_tennis" viewBox="0 0 24 24"><g><rect fill="none" height="24" width="24"/></g><g><path d="M19.52,2.49c-2.34-2.34-6.62-1.87-9.55,1.06c-1.6,1.6-2.52,3.87-2.54,5.46c-0.02,1.58,0.26,3.89-1.35,5.5l-4.24,4.24 l1.42,1.42l4.24-4.24c1.61-1.61,3.92-1.33,5.5-1.35s3.86-0.94,5.46-2.54C21.38,9.11,21.86,4.83,19.52,2.49z M10.32,11.68 c-1.53-1.53-1.05-4.61,1.06-6.72s5.18-2.59,6.72-1.06c1.53,1.53,1.05,4.61-1.06,6.72S11.86,13.21,10.32,11.68z"/><path d="M18,17c0.53,0,1.04,0.21,1.41,0.59c0.78,0.78,0.78,2.05,0,2.83C19.04,20.79,18.53,21,18,21s-1.04-0.21-1.41-0.59 c-0.78-0.78-0.78-2.05,0-2.83C16.96,17.21,17.47,17,18,17 M18,15c-1.02,0-2.05,0.39-2.83,1.17c-1.56,1.56-1.56,4.09,0,5.66 C15.95,22.61,16.98,23,18,23s2.05-0.39,2.83-1.17c1.56-1.56,1.56-4.09,0-5.66C20.05,15.39,19.02,15,18,15L18,15z"/></g></symbol>
<symbol id="sports_volleyball" viewBox="0 0 24 24"><g><rect fill="none" height="24" width="24"/></g><g><g><path d="M6,4.01C3.58,5.84,2,8.73,2,12c0,1.46,0.32,2.85,0.89,4.11L6,14.31V4.01z"/><path d="M11,11.42V2.05C9.94,2.16,8.93,2.43,8,2.84v10.32L11,11.42z"/><path d="M12,13.15l-8.11,4.68c0.61,0.84,1.34,1.59,2.18,2.2L15,14.89L12,13.15z"/><path d="M13,7.96v3.46l8.11,4.68c0.42-0.93,0.7-1.93,0.82-2.98L13,7.96z"/><path d="M8.07,21.2C9.28,21.71,10.6,22,12,22c3.34,0,6.29-1.65,8.11-4.16L17,16.04L8.07,21.2z"/><path d="M21.92,10.81c-0.55-4.63-4.26-8.3-8.92-8.76v3.6L21.92,10.81z"/></g></g></symbol>
<symbol id="thumb_down_alt" viewBox="0 0 24 24"><path d="M0 0h24v24H0V0z" fill="none" opacity=".87"/><path d="M1 11.6V16h8.31l-1.12 5.38L9.83 23 17 15.82V3H4.69zM19 3h4v12h-4z"/></symbol>
<symbol id="thumb_up_alt" viewBox="0 0 24 24"><path d="M0 0h24v24H0V0z" fill="none" opacity=".87"/><path d="M14.17 1L7 8.18V21h12.31L23 12.4V8h-8.31l1.12-5.38zM1 9h4v12H1z"/></symbol>
<symbol id="whatshot" viewBox="0 0 24 24"><path d="M0 0h24v24H0V0z" fill="none"/><path d="M13.5.67s.74 2.65.74 4.8c0 2.06-1.35 3.73-3.41 3.73-2.07 0-3.63-1.67-3.63-3.73l.03-.36C5.21 7.51 4 10.62 4 14c0 4.42 3.58 8 8 8s8-3.58 8-8C20 8.61 17.41 3.8 13.5.67zM11.71 19c-1.78 0-3.22-1.4-3.22-3.14 0-1.62 1.05-2.76 2.81-3.12 1.77-.36 3.6-1.21 4.62-2.58.39 1.29.59 2.65.59 4.04 0 2.65-2.15 4.8-4.8 4.8z"/></symbol>
</svg>