<svg xmlns="http://www.w3.org/2000/svg">
<symbol id="add_ic_call" viewBox="0 0 24 24"><path d="M0 0h24v24H0V0z" fill="none"/><path d="M20 15.45c-1.25 0-2.45-.2-3.57-.57-.1-.03-.21-.05-.31-.05-.26 0-.51.1-.71.29l-2.2 2.2c-2.83-1.44-5.15-3.75-6.59-6.59l2.2-2.21c.28-.26.36-.65.25-1C8.7 6.4 8.5 5.2 8.5 3.95c0-.55-.45-1-1-1H4c-.55 0-1 .45-1 1 0 9.39 7.61 17 17 17 .55 0 1-.45 1-1v-3.5c0-.55-.45-1-1-1zM5.03 4.95h1.5c.07.88.22 1.75.45 2.58l-1.2 1.21c-.4-1.21-.66-2.47-.75-3.79zM19 18.92c-1.32-.09-2.6-.35-3.8-.76l1.2-1.2c.85.24 1.72.39 2.6.45v1.51zM18 5.95v-3h-2v3h-3v2h3v3h2v-3h3v-2z"/></symbol>
<symbol id="alternate_email" viewBox="0 0 24 24"><path d="M0 0h24v24H0V0z" fill="none"/><path d="M12 1.95c-5.52 0-10 4.48-10 10s4.48 10 10 10h5v-2h-5c-4.34 0-8-3.66-8-8s3.66-8 8-8 8 3.66 8 8v1.43c0 .79-.71 1.57-1.5 1.57s-1.5-.78-1.5-1.57v-1.43c0-2.76-2.24-5-5-5s-5 2.24-5 5 2.24 5 5 5c1.38 0 2.64-.56 3.54-1.47.65.89 1.77 1.47 2.96 1.47 1.97 0 3.5-1.6 3.5-3.57v-1.43c0-5.52-4.48-10-10-10zm0 13c-1.66 0-3-1.34-3-3s1.34-3 3-3 3 1.34 3 3-1.34 3-3 3z"/></symbol>
<symbol id="business" viewBox="0 0 24 24"><path d="M0 0h24v24H0V0z" fill="none"/><path d="M12 7V3H2v18h20V7H12zM6 19H4v-2h2v2zm0-4H4v-2h2v2zm0-4H4V9h2v2zm0-4H4V5h2v2zm4 12H8v-2h2v2zm0-4H8v-2h2v2zm0-4H8V9h2v2zm0-4H8V5h2v2zm10 12h-8v-2h2v-2h-2v-2h2v-2h-2V9h8v10zm-2-8h-2v2h2v-2zm0 4h-2v2h2v-2z"/></symbol>
<symbol id="call" viewBox="0 0 24 24"><path d="M0 0h24v24H0V0z" fill="none"/><path d="M6.54 5c.06.89.21 1.76.45 2.59l-1.2 1.2c-.41-1.2-.67-2.47-.76-3.79h1.51m9.86 12.02c.85.24 1.72.39 2.6.45v1.49c-1.32-.09-2.59-.35-3.8-.75l1.2-1.19M7.5 3H4c-.55 0-1 .45-1 1 0 9.39 7.61 17 17 17 .55 0 1-.45 1-1v-3.49c0-.55-.45-1-1-1-1.24 0-2.45-.2-3.57-.57-.1-.04-.21-.05-.31-.05-.26 0-.51.1-.71.29l-2.2 2.2c-2.83-1.45-5.15-3.76-6.59-6.59l2.2-2.2c.28-.28.36-.67.25-1.02C8.7 6.45 8.5 5.25 8.5 4c0-.55-.45-1-1-1z"/></symbol>
<symbol id="call_end" viewBox="0 0 24 24"><path d="M0 0h24v24H0V0z" fill="none"/><path d="M18.59 10.52c1.05.51 2.04 1.15 2.96 1.91l-1.07 1.07c-.58-.47-1.21-.89-1.88-1.27v-1.71m-13.2 0v1.7c-.65.37-1.28.79-1.87 1.27l-1.07-1.07c.91-.75 1.9-1.38 2.94-1.9M12 7C7.46 7 3.34 8.78.29 11.67c-.18.18-.29.43-.29.71s.11.53.29.7l2.48 2.48c.18.18.43.29.71.29.27 0 .52-.1.7-.28.79-.73 1.68-1.36 2.66-1.85.33-.16.56-.51.56-.9v-3.1C8.85 9.25 10.4 9 12 9s3.15.25 4.59.73v3.1c0 .4.23.74.56.9.98.49 1.88 1.11 2.67 1.85.18.17.43.28.7.28.28 0 .53-.11.71-.29l2.48-2.48c.18-.18.29-.43.29-.71s-.11-.53-.29-.71C20.66 8.78 16.54 7 12 7z"/></symbol>
<symbol id="call_made" viewBox="0 0 24 24"><path d="M0 0h24v24H0V0z" fill="none"/><path d="M9 5v2h6.59L4 18.59 5.41 20 17 8.41V15h2V5H9z"/></symbol>
<symbol id="call_merge" viewBox="0 0 24 24"><path d="M0 0h24v24H0V0z" fill="none"/><path d="M17 20.41L18.41 19 15 15.59 13.59 17 17 20.41zM7.5 8H11v5.59L5.59 19 7 20.41l6-6V8h3.5L12 3.5 7.5 8z"/></symbol>
<symbol id="call_missed" viewBox="0 0 24 24"><path d="M0 0h24v24H0V0z" fill="none"/><path d="M19.59 7L12 14.59 6.41 9H11V7H3v8h2v-4.59l7 7 9-9L19.59 7z"/></symbol>
<symbol id="call_missed_outgoing" viewBox="0 0 24 24"><path d="M0 0h24v24H0z" fill="none"/><path d="M3 8.41l9 9 7-7V15h2V7h-8v2h4.59L12 14.59 4.41 7 3 8.41z"/></symbol>
<symbol id="call_received" viewBox="0 0 24 24"><path d="M0 0h24v24H0V0z" fill="none"/><path d="M20 5.41L18.59 4 7 15.59V9H5v10h10v-2H8.41L20 5.41z"/></symbol>
<symbol id="call_split" viewBox="0 0 24 24"><path d="M0 0h24v24H0V0z" fill="none"/><path d="M14 4l2.29 2.29-2.88 2.88 1.42 1.42 2.88-2.88L20 10V4h-6zm-4 0H4v6l2.29-2.29 4.71 4.7V20h2v-8.41l-5.29-5.3L10 4z"/></symbol>
<symbol id="cancel_presentation" viewBox="0 0 24 24"><path d="M0 0h24v24H0V0z" fill="none"/><path d="M21 3H3c-1.1 0-2 .9-2 2v14c0 1.1.9 2 2 2h18c1.1 0 2-.9 2-2V5c0-1.1-.9-2-2-2zm0 16H3V5h18v14zM9.41 15.95L12 13.36l2.59 2.59L16 14.54l-2.59-2.59L16 9.36l-1.41-1.41L12 10.54 9.41 7.95 8 9.36l2.59 2.59L8 14.54z"/></symbol>
<symbol id="chat" viewBox="0 0 24 24"><path d="M0 0h24v24H0V0z" fill="none"/><path d="M4 4h16v12H5.17L4 17.17V4m0-2c-1.1 0-1.99.9-1.99 2L2 22l4-4h14c1.1 0 2-.9 2-2V4c0-1.1-.9-2-2-2H4zm2 10h8v2H6v-2zm0-3h12v2H6V9zm0-3h12v2H6V6z"/></symbol>
<symbol id="chat_bubble" viewBox="0 0 24 24"><path d="M0 0h24v24H0V0z" fill="none"/><path d="M20 2H4c-1.1 0-2 .9-2 2v18l4-4h14c1.1 0 2-.9 2-2V4c0-1.1-.9-2-2-2z"/></symbol>
<symbol id="chat_bubble_outline" viewBox="0 0 24 24"><path d="M0 0h24v24H0V0z" fill="none"/><path d="M20 2H4c-1.1 0-2 .9-2 2v18l4-4h14c1.1 0 2-.9 2-2V4c0-1.1-.9-2-2-2zm0 14H6l-2 2V4h16v12z"/></symbol>
<symbol id="clear_all" viewBox="0 0 24 24"><path d="M0 0h24v24H0V0z" fill="none"/><path d="M5 13h14v-2H5v2zm-2 4h14v-2H3v2zM7 7v2h14V7H7z"/></symbol>
<symbol id="comment" viewBox="0 0 24 24"><path d="M0 0h24v24H0V0z" fill="none"/><path d="M21.99 4c0-1.1-.89-2-1.99-2H4c-1.1 0-2 .9-2 2v12c0 1.1.9 2 2 2h14l4 4-.01-18zM20 4v13.17L18.83 16H4V4h16zM6 12h12v2H6zm0-3h12v2H6zm0-3h12v2H6z"/></symbol>
<symbol id="contacts" viewBox="0 0 24 24"><path d="M0 0h24v24H0V0z" fill="none"/><path d="M20 4H4c-1.1 0-2 .9-2 2v12c0 1.1.9 2 2 2h16c1.1 0 2-.9 2-2V6c0-1.1-.9-2-2-2zm0 14H4V6h16v12zM4 0h16v2H4zm0 22h16v2H4zm8-10c1.38 0 2.5-1.12 2.5-2.5S13.38 7 12 7 9.5 8.12 9.5 9.5 10.62 12 12 12zm0-3.5c.55 0 1 .45 1 1s-.45 1-1 1-1-.45-1-1 .45-1 1-1zm5 7.49C17 13.9 13.69 13 12 13s-5 .9-5 2.99V17h10v-1.01zm-8.19-.49c.61-.52 2.03-1 3.19-1 1.17 0 2.59.48 3.2 1H8.81z"/></symbol>
<symbol id="contact_mail" viewBox="0 0 24 24"><path d="M0 0h24v24H0z" fill="none"/><path d="M22 3H2C.9 3 0 3.9 0 5v14c0 1.1.9 2 2 2h20c1.1 0 1.99-.9 1.99-2L24 5c0-1.1-.9-2-2-2zm0 16H2V5h20v14zM21 6h-7v5h7V6zm-1 2l-2.5 1.75L15 8V7l2.5 1.75L20 7v1zM9 12c1.65 0 3-1.35 3-3s-1.35-3-3-3-3 1.35-3 3 1.35 3 3 3zm0-4c.55 0 1 .45 1 1s-.45 1-1 1-1-.45-1-1 .45-1 1-1zm6 8.59c0-2.5-3.97-3.58-6-3.58s-6 1.08-6 3.58V18h12v-1.41zM5.48 16c.74-.5 2.22-1 3.52-1s2.77.49 3.52 1H5.48z"/></symbol>
<symbol id="contact_phone" viewBox="0 0 24 24"><path d="M0 0h24v24H0V0z" fill="none"/><path d="M22 3H2C.9 3 0 3.9 0 5v14c0 1.1.9 2 2 2h20c1.1 0 1.99-.9 1.99-2L24 5c0-1.1-.9-2-2-2zm0 16H2V5h20v14zm-2.99-1.01L21 16l-1.51-2h-1.64c-.22-.63-.35-1.3-.35-2s.13-1.37.35-2h1.64L21 8l-1.99-1.99c-1.31.98-2.28 2.37-2.73 3.99-.18.64-.28 1.31-.28 2s.1 1.36.28 2c.45 1.61 1.42 3.01 2.73 3.99zM9 12c1.65 0 3-1.35 3-3s-1.35-3-3-3-3 1.35-3 3 1.35 3 3 3zm0-4c.55 0 1 .45 1 1s-.45 1-1 1-1-.45-1-1 .45-1 1-1zm6 8.59c0-2.5-3.97-3.58-6-3.58s-6 1.08-6 3.58V18h12v-1.41zM5.48 16c.74-.5 2.22-1 3.52-1s2.77.49 3.52 1H5.48z"/></symbol>
<symbol id="desktop_access_disabled" viewBox="0 0 24 24"><path d="M0 0h24v24H0V0z" fill="none"/><path d="M1.41 1.69L0 3.1l1 .99V16c0 1.1.89 2 1.99 2H10v2H8v2h8v-2h-2v-2h.9l6 6 1.41-1.41-20.9-20.9zM2.99 16V6.09L12.9 16H2.99zM4.55 2l2 2H21v12h-2.45l2 2h.44c1.1 0 2-.9 2-2V4c0-1.1-.9-2-2-2H4.55z"/></symbol>
<symbol id="dialer_sip" viewBox="0 0 24 24"><path d="M0 0h24v24H0V0z" fill="none"/><path d="M16 3h1v5h-1zm-1 2h-2V4h2V3h-3v3h2v1h-2v1h3zm3-2v5h1V6h2V3h-3zm2 2h-1V4h1v1zm0 10.5c-1.25 0-2.45-.2-3.57-.57-.1-.03-.21-.05-.31-.05-.26 0-.51.1-.7.29l-2.2 2.2c-2.83-1.44-5.15-3.75-6.59-6.59l2.2-2.21c.27-.26.35-.65.24-1C8.7 6.45 8.5 5.25 8.5 4c0-.55-.45-1-1-1H4c-.55 0-1 .45-1 1 0 9.39 7.61 17 17 17 .55 0 1-.45 1-1v-3.5c0-.55-.45-1-1-1zM5.03 5h1.5c.07.88.22 1.75.46 2.59L5.79 8.8c-.41-1.21-.67-2.48-.76-3.8zM19 18.97c-1.32-.09-2.59-.35-3.8-.75l1.2-1.2c.85.24 1.71.39 2.59.45v1.5z"/></symbol>
<symbol id="dialpad" viewBox="0 0 24 24"><path d="M0 0h24v24H0V0z" fill="none"/><path d="M12 19c-1.1 0-2 .9-2 2s.9 2 2 2 2-.9 2-2-.9-2-2-2zM6 1c-1.1 0-2 .9-2 2s.9 2 2 2 2-.9 2-2-.9-2-2-2zm0 6c-1.1 0-2 .9-2 2s.9 2 2 2 2-.9 2-2-.9-2-2-2zm0 6c-1.1 0-2 .9-2 2s.9 2 2 2 2-.9 2-2-.9-2-2-2zm12-8c1.1 0 2-.9 2-2s-.9-2-2-2-2 .9-2 2 .9 2 2 2zm-6 8c-1.1 0-2 .9-2 2s.9 2 2 2 2-.9 2-2-.9-2-2-2zm6 0c-1.1 0-2 .9-2 2s.9 2 2 2 2-.9 2-2-.9-2-2-2zm0-6c-1.1 0-2 .9-2 2s.9 2 2 2 2-.9 2-2-.9-2-2-2zm-6 0c-1.1 0-2 .9-2 2s.9 2 2 2 2-.9 2-2-.9-2-2-2zm0-6c-1.1 0-2 .9-2 2s.9 2 2 2 2-.9 2-2-.9-2-2-2z"/></symbol>
<symbol id="domain_disabled" viewBox="0 0 24 24"><path d="M0 0h24v24H0V0z" fill="none"/><path d="M1.41 1.69L0 3.1l2 2V21h15.9l3 3 1.41-1.41-20.9-20.9zM6 19H4v-2h2v2zm0-4H4v-2h2v2zm-2-4V9h2v2H4zm6 8H8v-2h2v2zm-2-4v-2h2v2H8zm4 4v-2h1.9l2 2H12zM8 5h2v2h-.45L12 9.45V9h8v8.45l2 2V7H12V3H5.55L8 5.45zm8 6h2v2h-2z"/></symbol>
<symbol id="domain_verification" viewBox="0 0 24 24"><g><rect fill="none" height="24" width="24"/></g><g><g><polygon points="16.6,10.88 15.18,9.46 10.94,13.71 8.82,11.58 7.4,13 10.94,16.54"/><path d="M19,4H5C3.89,4,3,4.9,3,6v12c0,1.1,0.89,2,2,2h14c1.1,0,2-0.9,2-2V6C21,4.9,20.11,4,19,4z M19,18H5V8h14V18z"/></g></g></symbol>
<symbol id="duo" viewBox="0 0 24 24"><path d="M0 0h24v24H0V0z" fill="none"/><path d="M20 2h-8C6.38 2 2 6.66 2 12.28 2 17.5 6.49 22 11.72 22 17.39 22 22 17.62 22 12V4c0-1.1-.9-2-2-2zm-3 13l-3-2v2H7V9h7v2l3-2v6z"/></symbol>
<symbol id="email" viewBox="0 0 24 24"><path d="M0 0h24v24H0V0z" fill="none"/><path d="M22 6c0-1.1-.9-2-2-2H4c-1.1 0-2 .9-2 2v12c0 1.1.9 2 2 2h16c1.1 0 2-.9 2-2V6zm-2 0l-8 5-8-5h16zm0 12H4V8l8 5 8-5v10z"/></symbol>
<symbol id="forum" viewBox="0 0 24 24"><path d="M0 0h24v24H0V0z" fill="none"/><path d="M15 4v7H5.17L4 12.17V4h11m1-2H3c-.55 0-1 .45-1 1v14l4-4h10c.55 0 1-.45 1-1V3c0-.55-.45-1-1-1zm5 4h-2v9H6v2c0 .55.45 1 1 1h11l4 4V7c0-.55-.45-1-1-1z"/></symbol>
<symbol id="forward_to_inbox" viewBox="0 0 24 24"><g><rect fill="none" height="24" width="24"/><path d="M20,4H4C2.9,4,2,4.9,2,6v12c0,1.1,0.9,2,2,2h9v-2H4V8l8,5l8-5v5h2V6C22,4.9,21.1,4,20,4z M12,11L4,6h16L12,11z M19,15l4,4 l-4,4v-3h-4v-2h4V15z"/></g></symbol>
<symbol id="hourglass_bottom" viewBox="0 0 24 24"><g><rect fill="none" height="24" width="24"/></g><g><path d="M18,22l-0.01-6L14,12l3.99-4.01L18,2H6v6l4,4l-4,3.99V22H18z M8,7.5V4h8v3.5l-4,4L8,7.5z"/></g></symbol>
<symbol id="hourglass_top" viewBox="0 0 24 24"><g><rect fill="none" height="24" width="24"/></g><g><path d="M6,2l0.01,6L10,12l-3.99,4.01L6,22h12v-6l-4-4l4-3.99V2H6z M16,16.5V20H8v-3.5l4-4L16,16.5z"/></g></symbol>
<symbol id="import_contacts" viewBox="0 0 24 24"><path d="M0 0h24v24H0z" fill="none"/><path d="M21 5c-1.11-.35-2.33-.5-3.5-.5-1.95 0-4.05.4-5.5 1.5-1.45-1.1-3.55-1.5-5.5-1.5S2.45 4.9 1 6v14.65c0 .25.25.5.5.5.1 0 .15-.05.25-.05C3.1 20.45 5.05 20 6.5 20c1.95 0 4.05.4 5.5 1.5 1.35-.85 3.8-1.5 5.5-1.5 1.65 0 3.35.3 4.75 1.05.1.05.15.05.25.05.25 0 .5-.25.5-.5V6c-.6-.45-1.25-.75-2-1zm0 13.5c-1.1-.35-2.3-.5-3.5-.5-1.7 0-4.15.65-5.5 1.5V8c1.35-.85 3.8-1.5 5.5-1.5 1.2 0 2.4.15 3.5.5v11.5z"/></symbol>
<symbol id="import_export" viewBox="0 0 24 24"><path d="M0 0h24v24H0V0z" fill="none"/><path d="M9 3L5 6.99h3V14h2V6.99h3L9 3zm7 14.01V10h-2v7.01h-3L15 21l4-3.99h-3z"/></symbol>
<symbol id="invert_colors_off" viewBox="0 0 24 24"><path d="M0 0h24v24H0V0z" fill="none"/><path d="M12 5.1v4.05l7.4 7.4c1.15-2.88.59-6.28-1.75-8.61L12 2.27 8.56 5.71l1.41 1.41L12 5.1zm-7.6-.73L2.99 5.78l2.78 2.78c-2.54 3.14-2.35 7.75.57 10.68C7.9 20.8 9.95 21.58 12 21.58c1.78 0 3.56-.59 5.02-1.77l2.7 2.7 1.41-1.41L4.4 4.37zM12 19.59c-1.6 0-3.11-.62-4.24-1.76C6.62 16.69 6 15.19 6 13.59c0-1.32.43-2.56 1.21-3.59L12 14.79v4.8z"/></symbol>
<symbol id="list_alt" viewBox="0 0 24 24"><path d="M0 0h24v24H0V0z" fill="none"/><path d="M11 7h6v2h-6zm0 4h6v2h-6zm0 4h6v2h-6zM7 7h2v2H7zm0 4h2v2H7zm0 4h2v2H7zM20.1 3H3.9c-.5 0-.9.4-.9.9v16.2c0 .4.4.9.9.9h16.2c.4 0 .9-.5.9-.9V3.9c0-.5-.5-.9-.9-.9zM19 19H5V5h14v14z"/></symbol>
<symbol id="live_help" viewBox="0 0 24 24"><path d="M0 0h24v24H0V0z" fill="none"/><path d="M19 2H5c-1.11 0-2 .9-2 2v14c0 1.1.89 2 2 2h4l3 3 3-3h4c1.1 0 2-.9 2-2V4c0-1.1-.9-2-2-2zm0 16h-4.83l-.59.59L12 20.17l-1.59-1.59-.58-.58H5V4h14v14zm-8-3h2v2h-2zm1-8c1.1 0 2 .9 2 2 0 2-3 1.75-3 5h2c0-2.25 3-2.5 3-5 0-2.21-1.79-4-4-4S8 6.79 8 9h2c0-1.1.9-2 2-2z"/></symbol>
<symbol id="location_off" viewBox="0 0 24 24"><path d="M0 0h24v24H0V0z" fill="none"/><path d="M12 4c2.76 0 5 2.24 5 5 0 1.06-.39 2.32-1 3.62l1.49 1.49C18.37 12.36 19 10.57 19 9c0-3.87-3.13-7-7-7-1.84 0-3.5.71-4.75 1.86l1.43 1.43C9.56 4.5 10.72 4 12 4zm0 2.5c-.59 0-1.13.21-1.56.56l3.5 3.5c.35-.43.56-.97.56-1.56 0-1.38-1.12-2.5-2.5-2.5zM3.41 2.86L2 4.27l3.18 3.18C5.07 7.95 5 8.47 5 9c0 5.25 7 13 7 13s1.67-1.85 3.38-4.35L18.73 21l1.41-1.41L3.41 2.86zM12 18.88c-2.01-2.58-4.8-6.74-4.98-9.59l6.92 6.92c-.65.98-1.33 1.89-1.94 2.67z"/></symbol>
<symbol id="location_on" viewBox="0 0 24 24"><path d="M0 0h24v24H0V0z" fill="none"/><path d="M12 2C8.13 2 5 5.13 5 9c0 5.25 7 13 7 13s7-7.75 7-13c0-3.87-3.13-7-7-7zM7 9c0-2.76 2.24-5 5-5s5 2.24 5 5c0 2.88-2.88 7.19-5 9.88C9.92 16.21 7 11.85 7 9z"/><circle cx="12" cy="9" r="2.5"/></symbol>
<symbol id="mail_outline" viewBox="0 0 24 24"><path d="M0 0h24v24H0V0z" fill="none"/><path d="M20 4H4c-1.1 0-1.99.9-1.99 2L2 18c0 1.1.9 2 2 2h16c1.1 0 2-.9 2-2V6c0-1.1-.9-2-2-2zm0 14H4V8l8 5 8-5v10zm-8-7L4 6h16l-8 5z"/></symbol>
<symbol id="mark_chat_read" viewBox="0 0 24 24"><g><rect fill="none" height="24" width="24"/><path d="M12,18l-6,0l-4,4V4c0-1.1,0.9-2,2-2h16c1.1,0,2,0.9,2,2v7l-2,0V4H4v12l8,0V18z M23,14.34l-1.41-1.41l-4.24,4.24l-2.12-2.12 l-1.41,1.41L17.34,20L23,14.34z"/></g></symbol>
<symbol id="mark_chat_unread" viewBox="0 0 24 24"><g><rect fill="none" height="24" width="24" x="0" y="0"/><path d="M22,6.98V16c0,1.1-0.9,2-2,2H6l-4,4V4c0-1.1,0.9-2,2-2h10.1C14.04,2.32,14,2.66,14,3s0.04,0.68,0.1,1H4v12h16V7.9 C20.74,7.75,21.42,7.42,22,6.98z M16,3c0,1.66,1.34,3,3,3s3-1.34,3-3s-1.34-3-3-3S16,1.34,16,3z"/></g></symbol>
<symbol id="mark_email_read" viewBox="0 0 24 24"><g><rect fill="none" height="24" width="24"/><path d="M20,4H4C2.9,4,2.01,4.9,2.01,6L2,18c0,1.1,0.9,2,2,2h8l0-2H4V8l8,5l8-5v5h2V6C22,4.9,21.1,4,20,4z M12,11L4,6h16L12,11z M17.34,22l-3.54-3.54l1.41-1.41l2.12,2.12l4.24-4.24L23,16.34L17.34,22z"/></g></symbol>
<symbol id="mark_email_unread" viewBox="0 0 24 24"><g><rect fill="none" height="24" width="24" x="0"/><path d="M22,8.98V18c0,1.1-0.9,2-2,2H4c-1.1,0-2-0.9-2-2L2.01,6C2.01,4.9,2.9,4,4,4h10.1C14.04,4.32,14,4.66,14,5s0.04,0.68,0.1,1 H4l8,5l3.67-2.29c0.47,0.43,1.02,0.76,1.63,0.98L12,13L4,8v10h16V9.9C20.74,9.75,21.42,9.42,22,8.98z M16,5c0,1.66,1.34,3,3,3 s3-1.34,3-3s-1.34-3-3-3S16,3.34,16,5z"/></g></symbol>
<symbol id="message" viewBox="0 0 24 24"><path d="M0 0h24v24H0V0z" fill="none"/><path d="M4 4h16v12H5.17L4 17.17V4m0-2c-1.1 0-1.99.9-1.99 2L2 22l4-4h14c1.1 0 2-.9 2-2V4c0-1.1-.9-2-2-2H4zm2 10h12v2H6v-2zm0-3h12v2H6V9zm0-3h12v2H6V6z"/></symbol>
<symbol id="mobile_screen_share" viewBox="0 0 24 24"><path d="M0 0h24v24H0V0z" fill="none"/><path d="M17 1H7c-1.1 0-1.99.85-1.99 1.95v18C5.01 22.05 5.9 23 7 23h10c1.1 0 2-.95 2-2.05v-18C19 1.85 18.1 1 17 1zm0 18H7V5h10v14zm-4.2-5.76v1.75L16 12l-3.2-2.98v1.7c-3.11.43-4.35 2.56-4.8 4.7 1.11-1.5 2.58-2.18 4.8-2.18z"/></symbol>
<symbol id="more_time" viewBox="0 0 24 24"><g><rect fill="none" height="24" width="24"/></g><g><g><polygon points="10,8 10,14 14.7,16.9 15.5,15.7 11.5,13.3 11.5,8"/><path d="M17.92,12c0.05,0.33,0.08,0.66,0.08,1c0,3.9-3.1,7-7,7s-7-3.1-7-7c0-3.9,3.1-7,7-7c0.7,0,1.37,0.1,2,0.29V4.23 C12.36,4.08,11.69,4,11,4c-5,0-9,4-9,9s4,9,9,9s9-4,9-9c0-0.34-0.02-0.67-0.06-1H17.92z"/><polygon points="20,5 20,2 18,2 18,5 15,5 15,7 18,7 18,10 20,10 20,7 23,7 23,5"/></g></g></symbol>
<symbol id="nat" viewBox="0 0 24 24"><g><rect fill="none" height="24" width="24"/></g><g><g><path d="M6.82,13H11v-2H6.82C6.4,9.84,5.3,9,4,9c-1.66,0-3,1.34-3,3s1.34,3,3,3C5.3,15,6.4,14.16,6.82,13z M4,13 c-0.55,0-1-0.45-1-1c0-0.55,0.45-1,1-1s1,0.45,1,1C5,12.55,4.55,13,4,13z"/><path d="M23,12l-4-3v2h-4.05C14.45,5.95,10.19,2,5,2v2c4.42,0,8,3.58,8,8s-3.58,8-8,8v2c5.19,0,9.45-3.95,9.95-9H19v2L23,12z"/></g></g></symbol>
<symbol id="no_sim" viewBox="0 0 24 24"><path d="M0 0h24v24H0z" fill="none"/><path d="M21.26 21.21L3.79 3.74 2.38 5.15l2.74 2.74-.12.12V19c0 1.1.9 2 2 2h10c.35 0 .68-.1.97-.26l1.88 1.88 1.41-1.41zM7 19V9.77L16.23 19H7zm3.84-14H17v9.11l2 2V5c0-1.1-.9-2-2-2h-6.99L7.95 5.06l1.41 1.41L10.84 5z"/></symbol>
<symbol id="pause_presentation" viewBox="0 0 24 24"><path d="M0 0h24v24H0V0z" fill="none"/><path d="M21 3H3c-1.1 0-2 .85-2 1.95v14c0 1.1.9 2.05 2 2.05h18c1.1 0 2-.95 2-2.05v-14C23 3.85 22.1 3 21 3zm0 16H3V5h18v14zM9 8h2v8H9zm4 0h2v8h-2z"/></symbol>
<symbol id="person_add_disabled" viewBox="0 0 24 24"><path d="M0 0h24v24H0V0z" fill="none"/><path d="M15 6c1.1 0 2 .9 2 2 0 .99-.73 1.82-1.67 1.97l-2.31-2.31C13.19 6.72 14.01 6 15 6m0-2c-2.21 0-4 1.79-4 4 0 .18.03.35.05.52l3.43 3.43c.17.02.34.05.52.05 2.21 0 4-1.79 4-4s-1.79-4-4-4zm1.69 10.16L22.53 20H23v-2c0-2.14-3.56-3.5-6.31-3.84zm-3.68 1.97L14.88 18H9c.08-.24.88-1.01 2.91-1.57l1.1-.3M1.41 1.71L0 3.12l4 4V10H1v2h3v3h2v-3h2.88l2.51 2.51C9.19 15.11 7 16.3 7 18v2h9.88l4 4 1.41-1.41L1.41 1.71zM6 10v-.88l.88.88H6z"/></symbol>
<symbol id="person_search" viewBox="0 0 24 24"><g><rect fill="none" height="24" width="24"/></g><g><g><path d="M10,12c2.21,0,4-1.79,4-4c0-2.21-1.79-4-4-4S6,5.79,6,8C6,10.21,7.79,12,10,12z M10,6c1.1,0,2,0.9,2,2c0,1.1-0.9,2-2,2 S8,9.1,8,8C8,6.9,8.9,6,10,6z"/><path d="M4,18c0.22-0.72,3.31-2,6-2c0-0.7,0.13-1.37,0.35-1.99C7.62,13.91,2,15.27,2,18v2h9.54c-0.52-0.58-0.93-1.25-1.19-2H4z"/><path d="M19.43,18.02C19.79,17.43,20,16.74,20,16c0-2.21-1.79-4-4-4s-4,1.79-4,4c0,2.21,1.79,4,4,4c0.74,0,1.43-0.22,2.02-0.57 c0.93,0.93,1.62,1.62,2.57,2.57L22,20.59C20.5,19.09,21.21,19.79,19.43,18.02z M16,18c-1.1,0-2-0.9-2-2c0-1.1,0.9-2,2-2s2,0.9,2,2 C18,17.1,17.1,18,16,18z"/></g></g></symbol>
<symbol id="phone" viewBox="0 0 24 24"><path d="M0 0h24v24H0V0z" fill="none"/><path d="M6.54 5c.06.89.21 1.76.45 2.59l-1.2 1.2c-.41-1.2-.67-2.47-.76-3.79h1.51m9.86 12.02c.85.24 1.72.39 2.6.45v1.49c-1.32-.09-2.59-.35-3.8-.75l1.2-1.19M7.5 3H4c-.55 0-1 .45-1 1 0 9.39 7.61 17 17 17 .55 0 1-.45 1-1v-3.49c0-.55-.45-1-1-1-1.24 0-2.45-.2-3.57-.57-.1-.04-.21-.05-.31-.05-.26 0-.51.1-.71.29l-2.2 2.2c-2.83-1.45-5.15-3.76-6.59-6.59l2.2-2.2c.28-.28.36-.67.25-1.02C8.7 6.45 8.5 5.25 8.5 4c0-.55-.45-1-1-1z"/></symbol>
<symbol id="phonelink_erase" viewBox="0 0 24 24"><path d="M0 0h24v24H0V0z" fill="none"/><path d="M13 8.2l-1-1-4 4-4-4-1 1 4 4-4 4 1 1 4-4 4 4 1-1-4-4 4-4zM19 1H9c-1.1 0-2 .9-2 2v3h2V4h10v16H9v-2H7v3c0 1.1.9 2 2 2h10c1.1 0 2-.9 2-2V3c0-1.1-.9-2-2-2z"/></symbol>
<symbol id="phonelink_lock" viewBox="0 0 24 24"><path d="M0 0h24v24H0V0z" fill="none"/><path d="M19 1H9c-1.1 0-2 .9-2 2v3h2V4h10v16H9v-2H7v3c0 1.1.9 2 2 2h10c1.1 0 2-.9 2-2V3c0-1.1-.9-2-2-2zm-8.2 10V9.5C10.8 8.1 9.4 7 8 7S5.2 8.1 5.2 9.5V11c-.6 0-1.2.6-1.2 1.2v3.5c0 .7.6 1.3 1.2 1.3h5.5c.7 0 1.3-.6 1.3-1.2v-3.5c0-.7-.6-1.3-1.2-1.3zm-1.3 0h-3V9.5c0-.8.7-1.3 1.5-1.3s1.5.5 1.5 1.3V11z"/></symbol>
<symbol id="phonelink_ring" viewBox="0 0 24 24"><path d="M0 0h24v24H0V0z" fill="none"/><path d="M20.1 7.7l-1 1c1.8 1.8 1.8 4.6 0 6.5l1 1c2.5-2.3 2.5-6.1 0-8.5zM18 9.8l-1 1c.5.7.5 1.6 0 2.3l1 1c1.2-1.2 1.2-3 0-4.3zM14 1H4c-1.1 0-2 .9-2 2v18c0 1.1.9 2 2 2h10c1.1 0 2-.9 2-2V3c0-1.1-.9-2-2-2zm0 19H4V4h10v16z"/></symbol>
<symbol id="phonelink_setup" viewBox="0 0 24 24"><path d="M0 0h24v24H0V0z" fill="none"/><path d="M7 3v3h2V4h10v16H9v-2H7v3c0 1.1.9 2 2 2h10c1.1 0 2-.9 2-2V3c0-1.1-.9-2-2-2H9c-1.1 0-2 .9-2 2zm2.5 12.5c.29-.12.55-.29.8-.48l-.02.03 1.01.39c.23.09.49 0 .61-.22l.84-1.46c.12-.21.07-.49-.12-.64l-.85-.68-.02.03c.02-.16.05-.32.05-.48s-.03-.32-.05-.48l.02.03.85-.68c.19-.15.24-.43.12-.64l-.84-1.46c-.12-.21-.38-.31-.61-.22l-1.01.39.02.03c-.25-.17-.51-.34-.8-.46l-.17-1.08C9.3 7.18 9.09 7 8.84 7H7.16c-.25 0-.46.18-.49.42L6.5 8.5c-.29.12-.55.29-.8.48l.02-.03-1.02-.39c-.23-.09-.49 0-.61.22l-.84 1.46c-.12.21-.07.49.12.64l.85.68.02-.03c-.02.15-.05.31-.05.47s.03.32.05.48l-.02-.03-.85.68c-.19.15-.24.43-.12.64l.84 1.46c.12.21.38.31.61.22l1.01-.39-.01-.04c.25.19.51.36.8.48l.17 1.07c.03.25.24.43.49.43h1.68c.25 0 .46-.18.49-.42l.17-1.08zM6 12c0-1.1.9-2 2-2s2 .9 2 2-.9 2-2 2-2-.9-2-2z"/></symbol>
<symbol id="phone_disabled" viewBox="0 0 24 24"><rect fill="none" height="24" width="24"/><g><g><path d="M17.34,14.54l-1.43-1.43c0.56-0.73,1.05-1.5,1.47-2.32l-2.2-2.2c-0.28-0.28-0.36-0.67-0.25-1.02 C15.3,6.45,15.5,5.25,15.5,4c0-0.55,0.45-1,1-1H20c0.55,0,1,0.45,1,1C21,7.98,19.63,11.64,17.34,14.54z M14.52,17.35 C11.63,19.64,7.97,21,4,21c-0.55,0-1-0.45-1-1v-3.49c0-0.55,0.45-1,1-1c1.24,0,2.45-0.2,3.57-0.57c0.1-0.04,0.21-0.05,0.31-0.05 c0.26,0,0.51,0.1,0.71,0.29l2.2,2.2c0.81-0.42,1.58-0.9,2.3-1.46L1.39,4.22l1.42-1.41L21.19,21.2l-1.41,1.41L14.52,17.35z M7.6,17.02c-0.85,0.24-1.72,0.39-2.6,0.45v1.49c1.32-0.09,2.59-0.35,3.8-0.75L7.6,17.02z M17.46,5 c-0.06,0.89-0.21,1.76-0.45,2.59l1.2,1.2c0.41-1.2,0.67-2.47,0.76-3.79H17.46z"/></g></g></symbol>
<symbol id="phone_enabled" viewBox="0 0 24 24"><rect fill="none" height="24" width="24"/><g><g><path d="M17.46,5c-0.06,0.89-0.21,1.76-0.45,2.59l1.2,1.2c0.41-1.2,0.67-2.47,0.76-3.79H17.46z M7.6,17.02 c-0.85,0.24-1.72,0.39-2.6,0.45v1.49c1.32-0.09,2.59-0.35,3.8-0.75L7.6,17.02z M16.5,3H20c0.55,0,1,0.45,1,1c0,9.39-7.61,17-17,17 c-0.55,0-1-0.45-1-1v-3.49c0-0.55,0.45-1,1-1c1.24,0,2.45-0.2,3.57-0.57c0.1-0.04,0.21-0.05,0.31-0.05c0.26,0,0.51,0.1,0.71,0.29 l2.2,2.2c2.83-1.45,5.15-3.76,6.59-6.59l-2.2-2.2c-0.28-0.28-0.36-0.67-0.25-1.02C15.3,6.45,15.5,5.25,15.5,4 C15.5,3.45,15.95,3,16.5,3z"/></g></g></symbol>
<symbol id="portable_wifi_off" viewBox="0 0 24 24"><path d="M0 0h24v24H0V0z" fill="none"/><path d="M3.42 2.36L2.01 3.78 4.1 5.87C2.79 7.57 2 9.69 2 12c0 3.7 2.01 6.92 4.99 8.65l1-1.73C5.61 17.53 4 14.96 4 12c0-1.76.57-3.38 1.53-4.69l1.43 1.44C6.36 9.68 6 10.8 6 12c0 2.22 1.21 4.15 3 5.19l1-1.74c-1.19-.7-2-1.97-2-3.45 0-.65.17-1.25.44-1.79l1.58 1.58L10 12c0 1.1.9 2 2 2l.21-.02 7.52 7.52 1.41-1.41L3.42 2.36zm14.29 11.46c.18-.57.29-1.19.29-1.82 0-3.31-2.69-6-6-6-.63 0-1.25.11-1.82.29l1.72 1.72c.03 0 .06-.01.1-.01 2.21 0 4 1.79 4 4 0 .04-.01.07-.01.11l1.72 1.71zM12 4c4.42 0 8 3.58 8 8 0 1.2-.29 2.32-.77 3.35l1.49 1.49C21.53 15.4 22 13.76 22 12c0-5.52-4.48-10-10-10-1.76 0-3.4.48-4.84 1.28l1.48 1.48C9.66 4.28 10.8 4 12 4z"/></symbol>
<symbol id="present_to_all" viewBox="0 0 24 24"><path d="M0 0h24v24H0V0z" fill="none"/><path d="M21 3H3c-1.11 0-2 .89-2 2v14c0 1.11.89 2 2 2h18c1.11 0 2-.89 2-2V5c0-1.11-.89-2-2-2zm0 16.02H3V4.98h18v14.04zM10 12H8l4-4 4 4h-2v4h-4v-4z"/></symbol>
<symbol id="print_disabled" viewBox="0 0 24 24"><path d="M0 0h24v24H0z" fill="none"/><path d="M1.41 1.6L0 3.01 5 8c-1.66 0-3 1.34-3 3v6h4v4h12l2.95 2.96 1.41-1.41L1.41 1.6zM6 15H4v-4c0-.55.45-1 1-1h2l3 3H6v2zm2 4v-4h4l4 4H8zM8 5h8v3h-5.34l2 2H19c.55 0 1 .45 1 1v4l-2 .01V13h-2.34l4 4H22v-6c0-1.66-1.34-3-3-3h-1V3H6v.36l2 2V5z"/><circle cx="18" cy="11.51" r="1"/></symbol>
<symbol id="qr_code" viewBox="0 0 24 24"><g><rect fill="none" height="24" width="24"/></g><g><g><path d="M3,11h8V3H3V11z M5,5h4v4H5V5z"/><path d="M3,21h8v-8H3V21z M5,15h4v4H5V15z"/><path d="M13,3v8h8V3H13z M19,9h-4V5h4V9z"/><rect height="2" width="2" x="19" y="19"/><rect height="2" width="2" x="13" y="13"/><rect height="2" width="2" x="15" y="15"/><rect height="2" width="2" x="13" y="17"/><rect height="2" width="2" x="15" y="19"/><rect height="2" width="2" x="17" y="17"/><rect height="2" width="2" x="17" y="13"/><rect height="2" width="2" x="19" y="15"/></g></g></symbol>
<symbol id="qr_code_scanner" viewBox="0 0 24 24"><rect fill="none" height="24" width="24"/><path d="M9.5,6.5v3h-3v-3H9.5 M11,5H5v6h6V5L11,5z M9.5,14.5v3h-3v-3H9.5 M11,13H5v6h6V13L11,13z M17.5,6.5v3h-3v-3H17.5 M19,5h-6v6 h6V5L19,5z M13,13h1.5v1.5H13V13z M14.5,14.5H16V16h-1.5V14.5z M16,13h1.5v1.5H16V13z M13,16h1.5v1.5H13V16z M14.5,17.5H16V19h-1.5 V17.5z M16,16h1.5v1.5H16V16z M17.5,14.5H19V16h-1.5V14.5z M17.5,17.5H19V19h-1.5V17.5z M22,7h-2V4h-3V2h5V7z M22,22v-5h-2v3h-3v2 H22z M2,22h5v-2H4v-3H2V22z M2,2v5h2V4h3V2H2z"/></symbol>
<symbol id="read_more" viewBox="0 0 24 24"><g><rect fill="none" height="24" width="24"/></g><g><g><rect height="2" width="9" x="13" y="7"/><rect height="2" width="9" x="13" y="15"/><rect height="2" width="6" x="16" y="11"/><polygon points="13,12 8,7 8,11 2,11 2,13 8,13 8,17"/></g></g></symbol>
<symbol id="ring_volume" viewBox="0 0 24 24"><path d="M0 0h24v24H0V0z" fill="none"/><path d="M23.71 16.67C20.66 13.78 16.54 12 12 12 7.46 12 3.34 13.78.29 16.67c-.18.18-.29.43-.29.71 0 .28.11.53.29.71l2.48 2.48c.18.18.43.29.71.29.27 0 .52-.11.7-.28.79-.74 1.69-1.36 2.66-1.85.33-.16.56-.5.56-.9v-3.1c1.45-.48 3-.73 4.6-.73 1.6 0 3.15.25 4.6.72v3.1c0 .39.23.74.56.9.98.49 1.87 1.12 2.66 1.85.18.18.43.28.7.28.28 0 .53-.11.71-.29l2.48-2.48c.18-.18.29-.43.29-.71 0-.27-.11-.52-.29-.7zm-18.31.56c-.66.37-1.29.8-1.87 1.27l-1.07-1.07c.91-.75 1.9-1.39 2.95-1.9v1.7zm15.07 1.26c-.59-.48-1.21-.9-1.87-1.27v-1.7c1.04.51 2.03 1.15 2.94 1.9l-1.07 1.07zm.69-12.23l-1.41-1.41-3.56 3.55 1.41 1.41s3.45-3.52 3.56-3.55zM11 2h2v5h-2zM6.4 9.81L7.81 8.4 4.26 4.84 2.84 6.26c.11.03 3.56 3.55 3.56 3.55z"/></symbol>
<symbol id="rss_feed" viewBox="0 0 24 24"><path d="M0 0h24v24H0V0z" fill="none"/><circle cx="6.18" cy="17.82" r="2.18"/><path d="M4 4.44v2.83c7.03 0 12.73 5.7 12.73 12.73h2.83c0-8.59-6.97-15.56-15.56-15.56zm0 5.66v2.83c3.9 0 7.07 3.17 7.07 7.07h2.83c0-5.47-4.43-9.9-9.9-9.9z"/></symbol>
<symbol id="screen_share" viewBox="0 0 24 24"><path d="M0 0h24v24H0V0z" fill="none"/><path d="M20 18c1.1 0 1.99-.9 1.99-2L22 6c0-1.11-.9-2-2-2H4c-1.11 0-2 .89-2 2v10c0 1.1.89 2 2 2H0v2h24v-2h-4zM4 16V6h16v10.01L4 16zm9-6.87c-3.89.54-5.44 3.2-6 5.87 1.39-1.87 3.22-2.72 6-2.72v2.19l4-3.74L13 7v2.13z"/></symbol>
<symbol id="sentiment_satisfied_alt" viewBox="0 0 24 24"><path d="M0 0h24v24H0V0z" fill="none"/><circle cx="15.5" cy="9.5" r="1.5"/><circle cx="8.5" cy="9.5" r="1.5"/><path d="M12 16c-1.48 0-2.75-.81-3.45-2H6.88c.8 2.05 2.79 3.5 5.12 3.5s4.32-1.45 5.12-3.5h-1.67c-.69 1.19-1.97 2-3.45 2zm-.01-14C6.47 2 2 6.48 2 12s4.47 10 9.99 10C17.52 22 22 17.52 22 12S17.52 2 11.99 2zM12 20c-4.42 0-8-3.58-8-8s3.58-8 8-8 8 3.58 8 8-3.58 8-8 8z"/></symbol>
<symbol id="speaker_phone" viewBox="0 0 24 24"><path d="M0 0h24v24H0V0z" fill="none"/><path d="M7 7.07L8.43 8.5c.91-.91 2.18-1.48 3.57-1.48s2.66.57 3.57 1.48L17 7.07C15.72 5.79 13.95 5 12 5s-3.72.79-5 2.07zM12 1C8.98 1 6.24 2.23 4.25 4.21l1.41 1.41C7.28 4 9.53 3 12 3s4.72 1 6.34 2.62l1.41-1.41C17.76 2.23 15.02 1 12 1zm2.86 9.01L9.14 10C8.51 10 8 10.51 8 11.14v9.71c0 .63.51 1.14 1.14 1.14h5.71c.63 0 1.14-.51 1.14-1.14v-9.71c.01-.63-.5-1.13-1.13-1.13zM15 20H9v-8h6v8z"/></symbol>
<symbol id="stay_current_landscape" viewBox="0 0 24 24"><path d="M0 0h24v24H0V0z" fill="none"/><path d="M1.01 7L1 17c0 1.1.9 2 2 2h18c1.1 0 2-.9 2-2V7c0-1.1-.9-2-2-2H3c-1.1 0-1.99.9-1.99 2zM19 7v10H5V7h14z"/></symbol>
<symbol id="stay_current_portrait" viewBox="0 0 24 24"><path d="M0 0h24v24H0V0z" fill="none"/><path d="M17 1.01L7 1c-1.1 0-1.99.9-1.99 2v18c0 1.1.89 2 1.99 2h10c1.1 0 2-.9 2-2V3c0-1.1-.9-1.99-2-1.99zM17 19H7V5h10v14z"/></symbol>
<symbol id="stay_primary_landscape" viewBox="0 0 24 24"><path d="M0 0h24v24H0V0z" fill="none"/><path d="M1.01 7L1 17c0 1.1.9 2 2 2h18c1.1 0 2-.9 2-2V7c0-1.1-.9-2-2-2H3c-1.1 0-1.99.9-1.99 2zM19 7v10H5V7h14z"/></symbol>
<symbol id="stay_primary_portrait" viewBox="0 0 24 24"><path d="M0 0h24v24H0V0z" fill="none"/><path d="M17 1.01L7 1c-1.1 0-1.99.9-1.99 2v18c0 1.1.89 2 1.99 2h10c1.1 0 2-.9 2-2V3c0-1.1-.9-1.99-2-1.99zM17 19H7V5h10v14z"/></symbol>
<symbol id="stop_screen_share" viewBox="0 0 24 24"><path d="M0 0h24v24H0z" fill="none"/><path d="M21.79 18l2 2H24v-2h-2.21zM1.11 2.98l1.55 1.56c-.41.37-.66.89-.66 1.48V16c0 1.1.9 2 2.01 2H0v2h18.13l2.71 2.71 1.41-1.41L2.52 1.57 1.11 2.98zM4 6.02h.13l4.95 4.93C7.94 12.07 7.31 13.52 7 15c.96-1.29 2.13-2.08 3.67-2.46l3.46 3.48H4v-10zm16 0v10.19l1.3 1.3c.42-.37.7-.89.7-1.49v-10c0-1.11-.9-2-2-2H7.8l2 2H20zm-7.07 3.13l2.79 2.78 1.28-1.2L13 7v2.13l-.07.02z"/></symbol>
<symbol id="swap_calls" viewBox="0 0 24 24"><path d="M0 0h24v24H0V0z" fill="none"/><path d="M18 4l-4 4h3v7c0 1.1-.9 2-2 2s-2-.9-2-2V8c0-2.21-1.79-4-4-4S5 5.79 5 8v7H2l4 4 4-4H7V8c0-1.1.9-2 2-2s2 .9 2 2v7c0 2.21 1.79 4 4 4s4-1.79 4-4V8h3l-4-4z"/></symbol>
<symbol id="textsms" viewBox="0 0 24 24"><path d="M0 0h24v24H0V0z" fill="none"/><path d="M20 2H4c-1.1 0-2 .9-2 2v18l4-4h14c1.1 0 2-.9 2-2V4c0-1.1-.9-2-2-2zm0 14H6l-2 2V4h16v12zM7 9h2v2H7zm4 0h2v2h-2zm4 0h2v2h-2z"/></symbol>
<symbol id="unsubscribe" viewBox="0 0 24 24"><path d="M0 0h24v24H0V0z" fill="none"/><path d="M20.99 14.04V5c0-1.1-.9-2-2-2H5c-1.1 0-2 .9-2 2v10c0 1.1.9 2 2 2h10.05c.28 1.92 2.1 3.35 4.18 2.93 1.34-.27 2.43-1.37 2.7-2.71.25-1.24-.16-2.39-.94-3.18zm-2-9.04L12 8.5 5 5h13.99zm-3.64 10H5V7l7 3.5L19 7v6.05c-.16-.02-.33-.05-.5-.05-1.39 0-2.59.82-3.15 2zm5.15 2h-4v-1h4v1z"/></symbol>
<symbol id="voicemail" viewBox="0 0 24 24"><path d="M0 0h24v24H0V0z" fill="none"/><path d="M18.5 6C15.46 6 13 8.46 13 11.5c0 1.33.47 2.55 1.26 3.5H9.74c.79-.95 1.26-2.17 1.26-3.5C11 8.46 8.54 6 5.5 6S0 8.46 0 11.5 2.46 17 5.5 17h13c3.04 0 5.5-2.46 5.5-5.5S21.54 6 18.5 6zm-13 9C3.57 15 2 13.43 2 11.5S3.57 8 5.5 8 9 9.57 9 11.5 7.43 15 5.5 15zm13 0c-1.93 0-3.5-1.57-3.5-3.5S16.57 8 18.5 8 22 9.57 22 11.5 20.43 15 18.5 15z"/></symbol>
<symbol id="vpn_key" viewBox="0 0 24 24"><path d="M0 0h24v24H0V0z" fill="none"/><path d="M22 19h-6v-4h-2.68c-1.14 2.42-3.6 4-6.32 4-3.86 0-7-3.14-7-7s3.14-7 7-7c2.72 0 5.17 1.58 6.32 4H24v6h-2v4zm-4-2h2v-4h2v-2H11.94l-.23-.67C11.01 8.34 9.11 7 7 7c-2.76 0-5 2.24-5 5s2.24 5 5 5c2.11 0 4.01-1.34 4.71-3.33l.23-.67H18v4zM7 15c-1.65 0-3-1.35-3-3s1.35-3 3-3 3 1.35 3 3-1.35 3-3 3zm0-4c-.55 0-1 .45-1 1s.45 1 1 1 1-.45 1-1-.45-1-1-1z"/></symbol>
<symbol id="wifi_calling" viewBox="0 0 24 24"><g><rect fill="none" height="24" width="24"/></g><g><g><g><path d="M20,15.51c-1.24,0-2.45-0.2-3.57-0.57c-0.1-0.04-0.21-0.05-0.31-0.05c-0.26,0-0.51,0.1-0.71,0.29l-2.2,2.2 c-2.83-1.45-5.15-3.76-6.59-6.59l2.2-2.2C9.1,8.31,9.18,7.92,9.07,7.57C8.7,6.45,8.5,5.25,8.5,4c0-0.55-0.45-1-1-1H4 C3.45,3,3,3.45,3,4c0,9.39,7.61,17,17,17c0.55,0,1-0.45,1-1v-3.49C21,15.96,20.55,15.51,20,15.51z M5.03,5h1.5 C6.6,5.89,6.75,6.76,6.99,7.59l-1.2,1.2C5.38,7.59,5.12,6.32,5.03,5z M19,18.97c-1.32-0.09-2.59-0.35-3.8-0.75l1.19-1.19 c0.85,0.24,1.72,0.39,2.6,0.45V18.97z"/></g><g><path d="M22,4.95C21.79,4.78,19.67,3,16.5,3c-3.18,0-5.29,1.78-5.5,1.95L16.5,12L22,4.95z"/></g></g></g></symbol>
</svg>