<svg xmlns="http://www.w3.org/2000/svg">
<symbol id="ac_unit" viewBox="0 0 24 24"><path d="M0 0h24v24H0V0z" fill="none"/><path d="M22 11h-4.17l3.24-3.24-1.41-1.42L15 11h-2V9l4.66-4.66-1.42-1.41L13 6.17V2h-2v4.17L7.76 2.93 6.34 4.34 11 9v2H9L4.34 6.34 2.93 7.76 6.17 11H2v2h4.17l-3.24 3.24 1.41 1.42L9 13h2v2l-4.66 4.66 1.42 1.41L11 17.83V22h2v-4.17l3.24 3.24 1.42-1.41L13 15v-2h2l4.66 4.66 1.41-1.42L17.83 13H22v-2z"/></symbol>
<symbol id="airport_shuttle" viewBox="0 0 24 24"><path d="M0 0h24v24H0V0z" fill="none"/><path d="M17 5H3c-1.1 0-2 .89-2 2v9h2c0 1.66 1.34 3 3 3s3-1.34 3-3h6c0 1.66 1.34 3 3 3s3-1.34 3-3h2v-5l-6-6zm-2 2h1l3 3h-4V7zM9 7h4v3H9V7zM3 7h4v3H3V7zm3 10.25c-.69 0-1.25-.56-1.25-1.25s.56-1.25 1.25-1.25 1.25.56 1.25 1.25-.56 1.25-1.25 1.25zm12 0c-.69 0-1.25-.56-1.25-1.25s.56-1.25 1.25-1.25 1.25.56 1.25 1.25-.56 1.25-1.25 1.25zM21 14h-.78c-.55-.61-1.34-1-2.22-1s-1.67.39-2.22 1H8.22c-.55-.61-1.33-1-2.22-1s-1.67.39-2.22 1H3v-2h18v2z"/></symbol>
<symbol id="all_inclusive" viewBox="0 0 24 24"><path d="M0 0h24v24H0V0z" fill="none"/><path d="M18.6 6.62c-1.44 0-2.8.56-3.77 1.53L7.8 14.39c-.64.64-1.49.99-2.4.99-1.87 0-3.39-1.51-3.39-3.38S3.53 8.62 5.4 8.62c.91 0 1.76.35 2.44 1.03l1.13 1 1.51-1.34L9.22 8.2C8.2 7.18 6.84 6.62 5.4 6.62 2.42 6.62 0 9.04 0 12s2.42 5.38 5.4 5.38c1.44 0 2.8-.56 3.77-1.53l7.03-6.24c.64-.64 1.49-.99 2.4-.99 1.87 0 3.39 1.51 3.39 3.38s-1.52 3.38-3.39 3.38c-.9 0-1.76-.35-2.44-1.03l-1.14-1.01-1.51 1.34 1.27 1.12c1.02 1.01 2.37 1.57 3.82 1.57 2.98 0 5.4-2.41 5.4-5.38s-2.42-5.37-5.4-5.37z"/></symbol>
<symbol id="apartment" viewBox="0 0 24 24"><g><rect fill="none" height="24" width="24"/></g><g><path d="M17,11V3H7v4H3v14h8v-4h2v4h8V11H17z M7,19H5v-2h2V19z M7,15H5v-2h2V15z M7,11H5V9h2V11z M11,15H9v-2h2V15z M11,11H9V9h2 V11z M11,7H9V5h2V7z M15,15h-2v-2h2V15z M15,11h-2V9h2V11z M15,7h-2V5h2V7z M19,19h-2v-2h2V19z M19,15h-2v-2h2V15z"/></g></symbol>
<symbol id="baby_changing_station" viewBox="0 0 24 24"><g><rect fill="none" height="24" width="24"/><path d="M14,8v2h-3L8.31,8.82L7,12.75V22H3V12l1.58-4.63C4.96,6.25,6.22,5.69,7.3,6.18l4.15,1.83L14,8z M8,1C6.9,1,6,1.9,6,3 s0.9,2,2,2s2-0.9,2-2S9.1,1,8,1z M9,19h12v-2H9V19z M19.5,16c0.83,0,1.5-0.67,1.5-1.5c0-0.83-0.67-1.5-1.5-1.5S18,13.67,18,14.5 C18,15.33,18.67,16,19.5,16z M13,12c0-0.55-0.45-1-1-1H9v2h2v1c0,1.1,0.9,2,2,2h2c1.1,0,2-0.9,2-2v-3h-2v2h-2V12z"/></g></symbol>
<symbol id="backpack" viewBox="0 0 24 24"><g><path d="M17,4.14V2h-3v2h-4V2H7v2.14C5.28,4.59,4,6.14,4,8v12c0,1.1,0.9,2,2,2h12c1.1,0,2-0.9,2-2V8C20,6.14,18.72,4.59,17,4.14z M18,20H6V8c0-1.1,0.9-2,2-2h8c1.1,0,2,0.9,2,2V20z M16.5,12v4h-2v-2h-7v-2H16.5z"/><path d="M0,0v24h24V0H0z" fill="none"/></g></symbol>
<symbol id="bathtub" viewBox="0 0 24 24"><g><rect fill="none" height="24" width="24"/></g><g><g><circle cx="7" cy="7" r="2"/><path d="M20,13V4.83C20,3.27,18.73,2,17.17,2c-0.75,0-1.47,0.3-2,0.83l-1.25,1.25C13.76,4.03,13.59,4,13.41,4 c-0.4,0-0.77,0.12-1.08,0.32l2.76,2.76c0.2-0.31,0.32-0.68,0.32-1.08c0-0.18-0.03-0.34-0.07-0.51l1.25-1.25 C16.74,4.09,16.95,4,17.17,4C17.63,4,18,4.37,18,4.83V13h-6.85c-0.3-0.21-0.57-0.45-0.82-0.72l-1.4-1.55 c-0.19-0.21-0.43-0.38-0.69-0.5C7.93,10.08,7.59,10,7.24,10C6,10.01,5,11.01,5,12.25V13H2v6c0,1.1,0.9,2,2,2c0,0.55,0.45,1,1,1h14 c0.55,0,1-0.45,1-1c1.1,0,2-0.9,2-2v-6H20z M20,19H4v-4h16V19z"/></g></g></symbol>
<symbol id="beach_access" viewBox="0 0 24 24"><path d="M0 0h24v24H0V0z" fill="none"/><path d="M21 19.57l-1.427 1.428-6.442-6.442 1.43-1.428zM13.12 3c-2.58 0-5.16.98-7.14 2.95l-.01.01c-3.95 3.95-3.95 10.36 0 14.31l14.3-14.31C18.3 3.99 15.71 3 13.12 3zM6.14 17.27C5.4 16.03 5 14.61 5 13.12c0-.93.16-1.82.46-2.67.19 1.91.89 3.79 2.07 5.44l-1.39 1.38zm2.84-2.84C7.63 12.38 7.12 9.93 7.6 7.6c.58-.12 1.16-.18 1.75-.18 1.8 0 3.55.55 5.08 1.56l-5.45 5.45zm1.47-8.97c.85-.3 1.74-.46 2.67-.46 1.49 0 2.91.4 4.15 1.14l-1.39 1.39c-1.65-1.18-3.52-1.88-5.43-2.07z"/></symbol>
<symbol id="bento" viewBox="0 0 24 24"><rect fill="none" height="24" width="24"/><g><path d="M20,5H4C2.9,5,2,5.9,2,7v10c0,1.1,0.9,2,2,2h16c1.1,0,2-0.9,2-2V7C22,5.9,21.1,5,20,5z M20,11h-6V7h6V11z M4,7h8v10H4V7z M14,17v-4h6v4H14z M9.5,12c0,0.83-0.67,1.5-1.5,1.5S6.5,12.83,6.5,12s0.67-1.5,1.5-1.5S9.5,11.17,9.5,12z"/></g></symbol>
<symbol id="business_center" viewBox="0 0 24 24"><path d="M0 0h24v24H0V0z" fill="none"/><path d="M20 7h-4V5l-2-2h-4L8 5v2H4c-1.1 0-2 .9-2 2v5c0 .75.4 1.38 1 1.73V19c0 1.11.89 2 2 2h14c1.11 0 2-.89 2-2v-3.28c.59-.35 1-.99 1-1.72V9c0-1.1-.9-2-2-2zM10 5h4v2h-4V5zM4 9h16v5h-5v-3H9v3H4V9zm9 6h-2v-2h2v2zm6 4H5v-3h4v1h6v-1h4v3z"/></symbol>
<symbol id="carpenter" viewBox="0 0 24 24"><rect fill="none" height="24" width="24"/><path d="M19.73,14.23L7,1.5L3.11,5.39l8.13,11.67c-0.78,0.78-0.78,2.05,0,2.83l1.41,1.41c0.78,0.78,2.05,0.78,2.83,0l4.24-4.24 C20.51,16.28,20.51,15.01,19.73,14.23z M5.71,5.62L7,4.33l8.49,8.49l-2.81,2.81L5.71,5.62z M14.07,19.88l-1.41-1.41l4.24-4.24 l1.41,1.41L14.07,19.88z"/></symbol>
<symbol id="casino" viewBox="0 0 24 24"><path d="M0 0h24v24H0z" fill="none"/><path d="M19 3H5c-1.1 0-2 .9-2 2v14c0 1.1.9 2 2 2h14c1.1 0 2-.9 2-2V5c0-1.1-.9-2-2-2zm0 16H5V5h14v14z"/><circle cx="7.5" cy="16.5" r="1.5"/><circle cx="7.5" cy="7.5" r="1.5"/><circle cx="12" cy="12" r="1.5"/><circle cx="16.5" cy="16.5" r="1.5"/><circle cx="16.5" cy="7.5" r="1.5"/></symbol>
<symbol id="charging_station" viewBox="0 0 24 24"><g><rect fill="none" height="24" width="24"/><path d="M14.5,11l-3,6v-4h-2l3-6v4H14.5z M17,3H7v1h10V3 M17,20H7v1h10V20 M17,1c1.1,0,2,0.9,2,2v18c0,1.1-0.9,2-2,2H7 c-1.1,0-2-0.9-2-2V3c0-1.1,0.9-2,2-2H17L17,1z M7,18h10V6H7V18L7,18z"/></g></symbol>
<symbol id="checkroom" viewBox="0 0 24 24"><g><rect fill="none" height="24" width="24"/><path d="M21.6,18.2L13,11.75v-0.91c1.65-0.49,2.8-2.17,2.43-4.05c-0.26-1.31-1.3-2.4-2.61-2.7C10.54,3.57,8.5,5.3,8.5,7.5h2 C10.5,6.67,11.17,6,12,6s1.5,0.67,1.5,1.5c0,0.84-0.69,1.52-1.53,1.5C11.43,8.99,11,9.45,11,9.99v1.76L2.4,18.2 C1.63,18.78,2.04,20,3,20h9h9C21.96,20,22.37,18.78,21.6,18.2z M6,18l6-4.5l6,4.5H6z"/></g></symbol>
<symbol id="child_care" viewBox="0 0 24 24"><path d="M0 0h24v24H0V0z" fill="none"/><circle cx="14.5" cy="10.5" r="1.25"/><circle cx="9.5" cy="10.5" r="1.25"/><path d="M22.94 11.34c-.25-1.51-1.36-2.74-2.81-3.17-.53-1.12-1.28-2.1-2.19-2.91C16.36 3.85 14.28 3 12 3s-4.36.85-5.94 2.26c-.92.81-1.67 1.8-2.19 2.91-1.45.43-2.56 1.65-2.81 3.17-.04.21-.06.43-.06.66 0 .23.02.45.06.66.25 1.51 1.36 2.74 2.81 3.17.52 1.11 1.27 2.09 2.17 2.89C7.62 20.14 9.71 21 12 21s4.38-.86 5.97-2.28c.9-.8 1.65-1.79 2.17-2.89 1.44-.43 2.55-1.65 2.8-3.17.04-.21.06-.43.06-.66 0-.23-.02-.45-.06-.66zM19 14c-.1 0-.19-.02-.29-.03-.2.67-.49 1.29-.86 1.86C16.6 17.74 14.45 19 12 19s-4.6-1.26-5.85-3.17c-.37-.57-.66-1.19-.86-1.86-.1.01-.19.03-.29.03-1.1 0-2-.9-2-2s.9-2 2-2c.1 0 .19.02.29.03.2-.67.49-1.29.86-1.86C7.4 6.26 9.55 5 12 5s4.6 1.26 5.85 3.17c.37.57.66 1.19.86 1.86.1-.01.19-.03.29-.03 1.1 0 2 .9 2 2s-.9 2-2 2zm-7 3c2.01 0 3.74-1.23 4.5-3h-9c.76 1.77 2.49 3 4.5 3z"/></symbol>
<symbol id="child_friendly" viewBox="0 0 24 24"><path d="M0 0h24v24H0V0z" fill="none"/><path d="M13 2v8h8c0-4.42-3.58-8-8-8zm2 6V4.34c1.7.6 3.05 1.95 3.66 3.66H15zm-8.56 3l-.95-2H2v2h2.22s1.89 4.07 2.12 4.42c-1.1.59-1.84 1.75-1.84 3.08C4.5 20.43 6.07 22 8 22c1.76 0 3.22-1.3 3.46-3h2.08c.24 1.7 1.7 3 3.46 3 1.93 0 3.5-1.57 3.5-3.5 0-1.04-.46-1.97-1.18-2.61C20.37 14.54 21 12.84 21 11H6.44zM8 20c-.83 0-1.5-.67-1.5-1.5S7.17 17 8 17s1.5.67 1.5 1.5S8.83 20 8 20zm9 0c-.83 0-1.5-.67-1.5-1.5S16.17 17 17 17s1.5.67 1.5 1.5S17.83 20 17 20zm.74-5.34l-.29.37c-.14-.02-.3-.03-.45-.03-1.39 0-2.6.82-3.16 2h-2.68c-.5-1.04-1.5-1.8-2.68-1.97l-.44-.67c-.1-.17-.34-.69-.67-1.36h11.29c-.21.59-.52 1.15-.92 1.66z"/></symbol>
<symbol id="corporate_fare" viewBox="0 0 24 24"><rect fill="none" height="24" width="24"/><path d="M12,7V3H2v18h20V7H12z M10,19H4v-2h6V19z M10,15H4v-2h6V15z M10,11H4V9h6V11z M10,7H4V5h6V7z M20,19h-8V9h8V19z M18,11h-4v2 h4V11z M18,15h-4v2h4V15z"/></symbol>
<symbol id="countertops" viewBox="0 0 24 24"><rect fill="none" height="24" width="24"/><path d="M22,10h-4V7c0-1.66-1.34-3-3-3c-1.66,0-3,1.34-3,3h2c0-0.55,0.45-1,1-1c0.55,0,1,0.45,1,1v3H8c1.1,0,2-0.9,2-2V4H4v4 c0,1.1,0.9,2,2,2H2v2h2v8h16v-8h2V10z M6,6h2v2H6V6z M6,18v-6h5v6H6z M18,18h-5v-6h5V18z"/></symbol>
<symbol id="do_not_step" viewBox="0 0 24 24"><g><rect fill="none" height="24" width="24"/><path d="M18.51,15.68l-1.41-1.41l4.48-4.48L23,11.2L18.51,15.68z M14.98,12.15 M14.98,12.15l3.07-3.07L13.8,4.82l-3.08,3.07 L9.3,6.47L13.8,2l0,0l7.08,7.08l-4.48,4.48L14.98,12.15z M21.18,21.2l-1.41,1.41l-5.94-5.94L10.5,20H1v-2.63 c0-0.84,0.52-1.57,1.3-1.88c0.58-0.23,1.28-0.56,1.97-1.02l1.38,1.38C5.74,15.95,5.87,16,6,16s0.26-0.05,0.36-0.15 c0.2-0.2,0.2-0.51,0-0.71l-1.28-1.28c0.27-0.24,0.53-0.51,0.77-0.8l1.27,1.27c0.09,0.1,0.23,0.15,0.35,0.15s0.25-0.05,0.35-0.15 c0.2-0.2,0.2-0.51,0-0.71l-1.4-1.4c0.19-0.34,0.34-0.72,0.45-1.12l1.71,1.72c0.09,0.1,0.23,0.15,0.35,0.15s0.25-0.05,0.35-0.15 c0.19-0.2,0.19-0.5,0.01-0.7l-7.9-7.9l1.42-1.41L21.18,21.2z M12.42,15.26l-1.67-1.68L7.42,16.9c-0.78,0.78-2.05,0.78-2.83-0.01 L4.4,16.72l-0.47,0.24c-0.29,0.14-0.59,0.27-0.89,0.39L3.03,18h6.64L12.42,15.26z"/></g></symbol>
<symbol id="do_not_touch" viewBox="0 0 24 24"><g><rect fill="none" height="24" width="24"/><path d="M2.81,2.81L1.39,4.22L7,9.83l0,4.3l-2.6-1.48c-0.17-0.09-0.34-0.14-0.54-0.14c-0.26,0-0.5,0.09-0.7,0.26L2,13.88l6.8,7.18 c0.57,0.6,1.35,0.94,2.18,0.94H17c0.62,0,1.18-0.19,1.66-0.52l1.12,1.12l1.41-1.41L2.81,2.81z M17,20h-6 c-0.39,0-0.64-0.23-0.75-0.36L6.87,16H9l0-4.17l8.14,8.14C17.09,19.98,17.05,20,17,20z M13.83,11H14V3.25C14,2.56,14.56,2,15.25,2 s1.25,0.56,1.25,1.25V11h1V5.25C17.5,4.56,18.06,4,18.75,4S20,4.56,20,5.25v11.92l-2-2V13h-2.17L13.83,11z M13,10.17V2.25 C13,1.56,12.44,1,11.75,1S10.5,1.56,10.5,2.25v5.42L13,10.17z M9.5,6.67V4.25C9.5,3.56,8.94,3,8.25,3c-0.67,0-1.2,0.53-1.24,1.18v0 L9.5,6.67z"/></g></symbol>
<symbol id="dry" viewBox="0 0 24 24"><g><rect fill="none" height="24" width="24"/><path d="M20.75,16c0.69,0,1.25-0.56,1.25-1.25s-0.56-1.25-1.25-1.25H12v-1h6.75c0.69,0,1.25-0.56,1.25-1.25 c0-0.67-0.53-1.2-1.18-1.24L8.87,10l1.48-2.6c0.09-0.17,0.14-0.34,0.14-0.54c0-0.26-0.09-0.5-0.26-0.7L9.12,5l-7.18,6.8 C1.34,12.36,1,13.15,1,13.97V20c0,1.66,1.34,3,3,3h13.75c0.69,0,1.25-0.56,1.25-1.25s-0.56-1.25-1.25-1.25H12v-1h7.75 c0.69,0,1.25-0.56,1.25-1.25S20.44,17,19.75,17H12v-1H20.75z M10,21H4c-0.55,0-1-0.45-1-1v-6c0-0.39,0.23-0.64,0.36-0.75L7,9.87V12 l3,0V21z M15.65,4.86l-0.07-0.07c-0.57-0.62-0.82-1.41-0.67-2.2L15,2h-1.89l-0.06,0.43c-0.2,1.36,0.27,2.71,1.3,3.72l0.07,0.06 c0.57,0.62,0.82,1.41,0.67,2.2L14.98,9h1.91l0.06-0.43C17.16,7.21,16.68,5.86,15.65,4.86z M19.65,4.86l-0.07-0.07 c-0.57-0.62-0.82-1.41-0.67-2.2L19,2h-1.89l-0.06,0.43c-0.2,1.36,0.27,2.71,1.3,3.72l0.07,0.06c0.57,0.62,0.82,1.41,0.67,2.2 L18.98,9h1.91l0.06-0.43C21.16,7.21,20.68,5.86,19.65,4.86z"/></g></symbol>
<symbol id="elevator" viewBox="0 0 24 24"><g><rect fill="none" height="24" width="24"/><path d="M19,5v14H5V5H19 M19,3H5C3.9,3,3,3.9,3,5v14c0,1.1,0.9,2,2,2h14c1.1,0,2-0.9,2-2V5C21,3.9,20.1,3,19,3L19,3z M10,18v-4h1 v-2.5c0-1.1-0.9-2-2-2H8c-1.1,0-2,0.9-2,2V14h1v4H10z M8.5,8.5c0.69,0,1.25-0.56,1.25-1.25S9.19,6,8.5,6S7.25,6.56,7.25,7.25 S7.81,8.5,8.5,8.5z M18,11l-2.5-4L13,11H18z M13,13l2.5,4l2.5-4H13z"/></g></symbol>
<symbol id="escalator" viewBox="0 0 24 24"><g><rect fill="none" height="24" width="24"/><path d="M19,5L19,5l0,14H5V5H19 M19,3H5C3.9,3,3,3.9,3,5v14c0,1.1,0.9,2,2,2h14c1.1,0,2-0.9,2-2l0-14C21,3.9,20.1,3,19,3L19,3z M17,6h-3.3l-5,9H7c-0.83,0-1.5,0.67-1.5,1.5S6.17,18,7,18h3.3l5-9H17c0.83,0,1.5-0.67,1.5-1.5S17.83,6,17,6z"/></g></symbol>
<symbol id="escalator_warning" viewBox="0 0 24 24"><g><rect fill="none" height="24" width="24"/><path d="M6.5,2c1.1,0,2,0.9,2,2s-0.9,2-2,2s-2-0.9-2-2S5.4,2,6.5,2z M15.5,9.5c0,0.83,0.67,1.5,1.5,1.5s1.5-0.67,1.5-1.5 S17.83,8,17,8S15.5,8.67,15.5,9.5z M18.5,12h-2.84c-0.58,0.01-1.14,0.32-1.45,0.86l-0.92,1.32L9.72,8C9.35,7.37,8.69,7.01,8.01,7H5 C3.9,7,3,7.9,3,9v6h1.5v7h5V11.61L12.03,16h2.2L15,14.9V22h4v-5h1v-3.5C20,12.68,19.33,12,18.5,12z"/></g></symbol>
<symbol id="family_restroom" viewBox="0 0 24 24"><g><rect fill="none" height="24" width="24"/><path d="M16,4c0-1.11,0.89-2,2-2s2,0.89,2,2s-0.89,2-2,2S16,5.11,16,4z M20,22v-6h2.5l-2.54-7.63C19.68,7.55,18.92,7,18.06,7h-0.12 c-0.86,0-1.63,0.55-1.9,1.37l-0.86,2.58C16.26,11.55,17,12.68,17,14v8H20z M12.5,11.5c0.83,0,1.5-0.67,1.5-1.5s-0.67-1.5-1.5-1.5 S11,9.17,11,10S11.67,11.5,12.5,11.5z M5.5,6c1.11,0,2-0.89,2-2s-0.89-2-2-2s-2,0.89-2,2S4.39,6,5.5,6z M7.5,22v-7H9V9 c0-1.1-0.9-2-2-2H4C2.9,7,2,7.9,2,9v6h1.5v7H7.5z M14,22v-4h1v-4c0-0.82-0.68-1.5-1.5-1.5h-2c-0.82,0-1.5,0.68-1.5,1.5v4h1v4H14z"/></g></symbol>
<symbol id="fence" viewBox="0 0 24 24"><g><rect fill="none" height="24" width="24"/></g><g><path d="M21,12v-2h-2V7l-3-3l-2,2l-2-2l-2,2L8,4L5,7v3H3v2h2v2H3v2h2v4h14v-4h2v-2h-2v-2H21z M16,6.83l1,1V10h-2V7.83l0.41-0.41 L16,6.83z M12,6.83l0.59,0.59L13,7.83V10h-2V7.83l0.41-0.41L12,6.83z M11,14v-2h2v2H11z M13,16v2h-2v-2H13z M7,7.83l1-1l0.59,0.59 L9,7.83V10H7V7.83z M7,12h2v2H7V12z M7,16h2v2H7V16z M17,18h-2v-2h2V18z M17,14h-2v-2h2V14z"/></g></symbol>
<symbol id="fire_extinguisher" viewBox="0 0 24 24"><g><rect fill="none" height="24" width="24"/><path d="M7,19h10v1c0,1.1-0.9,2-2,2H9c-1.1,0-2-0.9-2-2V19z M7,18h10v-5H7V18z M17,3v6l-3.15-0.66c-0.01,0-0.01,0.01-0.02,0.02 c1.55,0.62,2.72,1.98,3.07,3.64H7.1c0.34-1.66,1.52-3.02,3.07-3.64c-0.33-0.26-0.6-0.58-0.8-0.95L5,6.5v-1l4.37-0.91 C9.87,3.65,10.86,3,12,3c0.7,0,1.34,0.25,1.85,0.66L17,3z M13,6c-0.03-0.59-0.45-1-1-1s-1,0.45-1,1s0.45,1,1,1S13,6.55,13,6z"/></g></symbol>
<symbol id="fitness_center" viewBox="0 0 24 24"><path d="M0 0h24v24H0V0z" fill="none"/><path d="M20.57 14.86L22 13.43 20.57 12 17 15.57 8.43 7 12 3.43 10.57 2 9.14 3.43 7.71 2 5.57 4.14 4.14 2.71 2.71 4.14l1.43 1.43L2 7.71l1.43 1.43L2 10.57 3.43 12 7 8.43 15.57 17 12 20.57 13.43 22l1.43-1.43L16.29 22l2.14-2.14 1.43 1.43 1.43-1.43-1.43-1.43L22 16.29l-1.43-1.43z"/></symbol>
<symbol id="food_bank" viewBox="0 0 24 24"><rect fill="none" height="24" width="24"/><path d="M12,5.5l6,4.5v9H6v-9L12,5.5 M12,3L4,9v12h16V9L12,3L12,3z M11.5,9.5v3H11v-3h-1v3H9.5v-3h-1v3c0,0.83,0.67,1.5,1.5,1.5v4h1 v-4c0.83,0,1.5-0.67,1.5-1.5v-3H11.5z M13,11.5v3h1V18h1V9.5C13.9,9.5,13,10.4,13,11.5z"/></symbol>
<symbol id="foundation" viewBox="0 0 24 24"><rect fill="none" height="24" width="24"/><path d="M19,12h3L12,3L2,12h3v3H3v2h2v3h2v-3h4v3h2v-3h4v3h2v-3h2v-2h-2V12z M7,15v-4.81l4-3.6V15H7z M13,15V6.59l4,3.6V15H13z"/></symbol>
<symbol id="free_breakfast" viewBox="0 0 24 24"><path d="M0 0h24v24H0V0z" fill="none"/><path d="M4 19h16v2H4zM20 3H4v10c0 2.21 1.79 4 4 4h6c2.21 0 4-1.79 4-4v-3h2c1.11 0 2-.9 2-2V5c0-1.11-.89-2-2-2zm-4 10c0 1.1-.9 2-2 2H8c-1.1 0-2-.9-2-2V5h10v8zm4-5h-2V5h2v3z"/></symbol>
<symbol id="golf_course" viewBox="0 0 24 24"><path d="M0 0h24v24H0V0z" fill="none"/><circle cx="19.5" cy="19.5" r="1.5"/><path d="M17 5.92L9 2v18H7v-1.73c-1.79.35-3 .99-3 1.73 0 1.1 2.69 2 6 2s6-.9 6-2c0-.99-2.16-1.81-5-1.97V8.98l6-3.06z"/></symbol>
<symbol id="grass" viewBox="0 0 24 24"><rect fill="none" height="24" width="24"/><path d="M12,20H2v-2h5.75l0,0C7.02,15.19,4.81,12.99,2,12.26C2.64,12.1,3.31,12,4,12C8.42,12,12,15.58,12,20z M22,12.26 C21.36,12.1,20.69,12,20,12c-2.93,0-5.48,1.58-6.88,3.93c0.29,0.66,0.53,1.35,0.67,2.07c0.13,0.65,0.2,1.32,0.2,2h2h6v-2h-5.75 C16.98,15.19,19.19,12.99,22,12.26z M15.64,11.02c0.78-2.09,2.23-3.84,4.09-5C15.44,6.16,12,9.67,12,14c0,0.01,0,0.02,0,0.02 C12.95,12.75,14.2,11.72,15.64,11.02z M11.42,8.85C10.58,6.66,8.88,4.89,6.7,4C8.14,5.86,9,8.18,9,10.71c0,0.21-0.03,0.41-0.04,0.61 c0.43,0.24,0.83,0.52,1.22,0.82C10.39,10.96,10.83,9.85,11.42,8.85z"/></symbol>
<symbol id="hot_tub" viewBox="0 0 24 24"><path d="M0 0h24v24H0V0z" fill="none"/><circle cx="7" cy="6" r="2"/><path d="M11.15 12c-.31-.22-.59-.46-.82-.72l-1.4-1.55c-.19-.21-.43-.38-.69-.5-.29-.14-.62-.23-.96-.23h-.03C6.01 9 5 10.01 5 11.25V12H2v8c0 1.1.9 2 2 2h16c1.1 0 2-.9 2-2v-8H11.15zM7 20H5v-6h2v6zm4 0H9v-6h2v6zm4 0h-2v-6h2v6zm4 0h-2v-6h2v6zM17.42 7.21c.57.62.82 1.41.67 2.2l-.11.59h1.91l.06-.43c.21-1.36-.27-2.71-1.3-3.71l-.07-.07c-.57-.62-.82-1.41-.67-2.2L18 3h-1.89l-.06.43c-.2 1.36.27 2.71 1.3 3.72l.07.06zm-4 0c.57.62.82 1.41.67 2.2l-.11.59h1.91l.06-.43c.21-1.36-.27-2.71-1.3-3.71l-.07-.07c-.57-.62-.82-1.41-.67-2.2L14 3h-1.89l-.06.43c-.2 1.36.27 2.71 1.3 3.72l.07.06z"/></symbol>
<symbol id="house" viewBox="0 0 24 24"><g><rect fill="none" height="24" width="24"/></g><g><g><path d="M19,9.3V4h-3v2.6L12,3L2,12h3v8h6v-6h2v6h6v-8h3L19,9.3z M17,18h-2v-6H9v6H7v-7.81l5-4.5l5,4.5V18z"/><path d="M10,10h4c0-1.1-0.9-2-2-2S10,8.9,10,10z"/></g></g></symbol>
<symbol id="house_siding" viewBox="0 0 24 24"><rect fill="none" height="24" width="24"/><path d="M19,12h3L12,3L2,12h3v8h2v-2h10v2h2V12z M7.21,10h9.58L17,10.19V12H7v-1.81L7.21,10z M14.57,8H9.43L12,5.69L14.57,8z M7,16 v-2h10v2H7z"/></symbol>
<symbol id="kitchen" viewBox="0 0 24 24"><path d="M0 0h24v24H0V0z" fill="none"/><path d="M8 5h2v3H8zm0 7h2v5H8zm10-9.99L6 2c-1.1 0-2 .89-2 2v16c0 1.1.9 2 2 2h12c1.1 0 2-.9 2-2V4c0-1.11-.9-1.99-2-1.99zM18 20H6v-9.02h12V20zm0-11H6V4h12v5z"/></symbol>
<symbol id="meeting_room" viewBox="0 0 24 24"><path d="M0 0h24v24H0V0z" fill="none"/><path d="M19 19V4h-4V3H5v16H3v2h12V6h2v15h4v-2h-2zm-6 0H7V5h6v14zm-3-8h2v2h-2z"/></symbol>
<symbol id="microwave" viewBox="0 0 24 24"><rect fill="none" height="24" width="24"/><path d="M20,4H4C2.9,4,2,4.9,2,6v12c0,1.1,0.9,2,2,2h16c1.1,0,2-0.9,2-2V6C22,4.9,21.1,4,20,4z M4,6h10v12H4V6z M20,18h-4V6h4V18z M19,9h-2V7h2V9z M18,13L18,13c-0.55,0-1-0.45-1-1v0c0-0.55,0.45-1,1-1h0c0.55,0,1,0.45,1,1v0C19,12.55,18.55,13,18,13z M18,17 L18,17c-0.55,0-1-0.45-1-1v0c0-0.55,0.45-1,1-1h0c0.55,0,1,0.45,1,1v0C19,16.55,18.55,17,18,17z M10.25,16 c-0.79,0-1.37-0.38-1.79-0.66C8.13,15.12,7.94,15,7.75,15c-0.37,0-0.8,0.41-0.95,0.61l-1.42-1.42C5.73,13.79,6.59,13,7.75,13 c0.8,0,1.39,0.39,1.81,0.67C9.87,13.88,10.07,14,10.25,14c0.37,0,0.8-0.41,0.95-0.61l1.42,1.42C12.26,15.21,11.41,16,10.25,16z M10.25,11c-0.79,0-1.37-0.38-1.79-0.66C8.13,10.12,7.94,10,7.75,10c-0.37,0-0.8,0.41-0.95,0.61L5.37,9.19C5.73,8.79,6.59,8,7.75,8 c0.8,0,1.39,0.39,1.81,0.67C9.87,8.88,10.07,9,10.25,9c0.37,0,0.8-0.41,0.95-0.61l1.42,1.42C12.26,10.21,11.41,11,10.25,11z"/></symbol>
<symbol id="night_shelter" viewBox="0 0 24 24"><rect fill="none" height="24" width="24"/><path d="M12,5.5l6,4.5v9H6v-9L12,5.5 M12,3L4,9v12h16V9L12,3L12,3z M15,12h-3.5v3.5H8V11H7v7h1v-1.5h8V18h1v-4 C17,12.9,16.1,12,15,12z M9.75,12.5c-0.69,0-1.25,0.56-1.25,1.25C8.5,14.44,9.06,15,9.75,15S11,14.44,11,13.75 C11,13.06,10.44,12.5,9.75,12.5z"/></symbol>
<symbol id="no_backpack" viewBox="0 0 24 24"><rect fill="none" height="24" width="24" y="0"/><path d="M6.98,4.15c0.01,0,0.01-0.01,0.02-0.01V2h3v2h4V2h3v2.14c1.72,0.45,3,2,3,3.86v9.17l-2-2V8c0-1.1-0.9-2-2-2H8.83L6.98,4.15z M14.83,12l1.67,1.67V12H14.83z M19.78,22.61l-0.85-0.85C18.65,21.91,18.34,22,18,22H6c-1.1,0-2-0.9-2-2V8 c0-0.36,0.06-0.69,0.15-1.02L1.39,4.22l1.41-1.41l18.38,18.38L19.78,22.61z M17.17,20l-6-6H7.5v-2h1.67L6,8.83V20H17.17z"/></symbol>
<symbol id="no_cell" viewBox="0 0 24 24"><g><rect fill="none" height="24" width="24"/><path d="M17,6v8.17l2,2V3c0-1.1-0.9-1.99-2-1.99L7,1C6.15,1,5.42,1.55,5.13,2.3L8.83,6H17z M7,3h10v1H7V3z M21.19,21.19L19,19l-2-2 L7,7L5,5L2.81,2.81L1.39,4.22L5,7.83V21c0,1.1,0.9,2,2,2h10c0.85,0,1.58-0.55,1.87-1.3l0.91,0.91L21.19,21.19z M17,21H7v-1h10V21z M7,18V9.83L15.17,18H7z"/></g></symbol>
<symbol id="no_drinks" viewBox="0 0 24 24"><g><rect fill="none" height="24" width="24"/><path d="M21.19,21.19L2.81,2.81L1.39,4.22l8.23,8.23L11,14v5H6v2h12v-0.17l1.78,1.78L21.19,21.19z M13,19v-3.17L16.17,19H13z M7.83,5l-2-2H21v2l-6.2,6.97l-1.42-1.42L14.77,9h-2.94l-2-2h6.74l1.78-2H7.83z"/></g></symbol>
<symbol id="no_flash" viewBox="0 0 24 24"><g><path d="M20.4,5.6H22L19,11V7h-1V2h4L20.4,5.6z M16,11.4l0,1.77l2,2V11c0-0.88-0.72-1.6-1.6-1.6h-2.54L12.58,8h-1.75l3.4,3.4H16z M2.1,2.1L0.69,3.51l5.66,5.66L6.14,9.4H3.6C2.72,9.4,2,10.12,2,11v9.4C2,21.28,2.72,22,3.6,22h12.8c0.75,0,1.38-0.52,1.55-1.22 l2.54,2.54l1.41-1.41L2.1,2.1z M11.5,15.5c0,0.83-0.67,1.5-1.5,1.5s-1.5-0.67-1.5-1.5S9.17,14,10,14S11.5,14.67,11.5,15.5z M15.96,20H4v-8.6h2.14h0.88l0.59-0.65l0.15-0.16l1.5,1.5C7.68,12.43,6.5,13.82,6.5,15.5c0,1.93,1.57,3.5,3.5,3.5 c1.68,0,3.07-1.18,3.42-2.76l2.55,2.55L15.96,20z"/><path d="M0,0h24v24H0V0z" fill="none"/></g></symbol>
<symbol id="no_food" viewBox="0 0 24 24"><g><rect fill="none" height="24" width="24"/><path d="M1,21h15.01v0.98c0,0.56-0.45,1.01-1.01,1.01H2.01C1.45,22.99,1,22.54,1,21.98V21z M20.49,23.31L16,18.83V19H1v-2h13.17 l-2-2H1c0-3.24,2.46-5.17,5.38-5.79l-5.7-5.7L2.1,2.1L13,13l2,2l6.9,6.9L20.49,23.31z M10.17,13l-2-2c-1.42,0.06-3.52,0.56-4.55,2 H10.17z M23,5h-5V1h-2v4h-5l0.23,2h9.56l-1,9.97l1.83,1.83L23,5z"/></g></symbol>
<symbol id="no_meeting_room" viewBox="0 0 24 24"><path d="M0 0h24v24H0V0z" fill="none"/><path d="M12 5v3.88l2 2V6h3v7.88l2 2V4h-5V3H6.12l2 2zM2.41 2.13L1 3.54l4 4V19H3v2h11v-4.46L20.46 23l1.41-1.41L2.41 2.13zM12 19H7V9.54l5 5V19z"/></symbol>
<symbol id="no_photography" viewBox="0 0 24 24"><g><rect fill="none" height="24" width="24"/><g><path d="M8.9,6.07L7.48,4.66L9,3h6l1.83,2H20c1.1,0,2,0.9,2,2v12c0,0.05-0.01,0.1-0.02,0.16L20,17.17V7h-4.05l-1.83-2H9.88 L8.9,6.07z M20.49,23.31L18.17,21H4c-1.1,0-2-0.9-2-2V7c0-0.59,0.27-1.12,0.68-1.49l-2-2L2.1,2.1l19.8,19.8L20.49,23.31z M9.19,12.02C9.08,12.33,9,12.65,9,13c0,1.66,1.34,3,3,3c0.35,0,0.67-0.08,0.98-0.19L9.19,12.02z M16.17,19l-1.68-1.68 C13.76,17.75,12.91,18,12,18c-2.76,0-5-2.24-5-5c0-0.91,0.25-1.76,0.68-2.49L4.17,7H4v12H16.17z M14.81,11.98l2.07,2.07 C16.96,13.71,17,13.36,17,13c0-2.76-2.24-5-5-5c-0.36,0-0.71,0.04-1.06,0.12l2.07,2.07C13.85,10.49,14.51,11.15,14.81,11.98z"/></g></g></symbol>
<symbol id="no_stroller" viewBox="0 0 24 24"><g><rect fill="none" height="24" width="24"/><path d="M8,20c0,1.1-0.9,2-2,2s-2-0.9-2-2s0.9-2,2-2S8,18.9,8,20z M15,8.66v3.51l2,2v-7.9C17.58,5.59,17.97,5,18.65,5 C19.42,5,20,5.66,20,6.48V7h2V6.48C22,4.56,20.52,3,18.65,3c-1.66,0-2.54,1.27-3.18,2.03l-3.5,4.11l1.42,1.42L15,8.66z M19.78,22.61l-1.91-1.91C17.58,21.46,16.86,22,16,22c-1.1,0-2-0.9-2-2c0-0.86,0.54-1.58,1.3-1.87L14.17,17H7.43 c-0.85,0-1.31-1-0.76-1.65l2.69-3.16L1.39,4.22l1.41-1.41l7.86,7.86l1.42,1.42l0,0l9.11,9.11L19.78,22.61z M12.17,15l-1.39-1.39 L9.6,15H12.17z M10,5c0.29,0,0.58,0.02,0.86,0.05L9.49,6.67l1.42,1.42L14.3,4.1C13.03,3.4,11.56,3,10,3C8.77,3,7.6,3.25,6.53,3.7 L8.1,5.27C8.71,5.1,9.35,5,10,5z"/></g></symbol>
<symbol id="pool" viewBox="0 0 24 24"><path d="M0 0h24v24H0V0z" fill="none"/><path d="M10 8l-3.25 3.25c.31.12.56.27.77.39.37.23.59.36 1.15.36s.78-.13 1.15-.36c.46-.27 1.08-.64 2.19-.64s1.73.37 2.18.64c.37.22.6.36 1.15.36.55 0 .78-.13 1.15-.36.12-.07.26-.15.41-.23L10.48 5C8.93 3.45 7.5 2.99 5 3v2.5c1.82-.01 2.89.39 4 1.5l1 1zm12 8.5h-.02.02zm-16.65-1c.55 0 .78.14 1.15.36.45.27 1.07.64 2.18.64s1.73-.37 2.18-.64c.37-.23.59-.36 1.15-.36.55 0 .78.14 1.15.36.45.27 1.07.64 2.18.64s1.73-.37 2.18-.64c.37-.23.59-.36 1.15-.36.55 0 .78.14 1.15.36.45.27 1.06.63 2.16.64v-2c-.55 0-.78-.14-1.15-.36-.45-.27-1.07-.64-2.18-.64s-1.73.37-2.18.64c-.37.23-.6.36-1.15.36s-.78-.14-1.15-.36c-.45-.27-1.07-.64-2.18-.64s-1.73.37-2.18.64c-.37.23-.59.36-1.15.36-.55 0-.78-.14-1.15-.36-.45-.27-1.07-.64-2.18-.64s-1.73.37-2.18.64c-.37.23-.59.36-1.15.36v2c1.11 0 1.73-.37 2.2-.64.37-.23.6-.36 1.15-.36zM18.67 18c-1.11 0-1.73.37-2.18.64-.37.23-.6.36-1.15.36-.55 0-.78-.14-1.15-.36-.45-.27-1.07-.64-2.18-.64s-1.73.37-2.19.64c-.37.23-.59.36-1.15.36s-.78-.13-1.15-.36c-.45-.27-1.07-.64-2.18-.64s-1.73.37-2.19.64c-.37.23-.59.36-1.15.36v2c1.11 0 1.73-.37 2.19-.64.37-.23.6-.36 1.15-.36.55 0 .78.13 1.15.36.45.27 1.07.64 2.18.64s1.73-.37 2.19-.64c.37-.23.59-.36 1.15-.36.55 0 .78.14 1.15.36.45.27 1.07.64 2.18.64s1.72-.37 2.18-.64c.37-.23.59-.36 1.15-.36.55 0 .78.14 1.15.36.45.27 1.07.64 2.18.64v-2c-.56 0-.78-.13-1.15-.36-.45-.27-1.07-.64-2.18-.64z"/><circle cx="16.5" cy="5.5" r="2.5"/></symbol>
<symbol id="rice_bowl" viewBox="0 0 24 24"><rect fill="none" height="24" width="24"/><path d="M19.66,14c-0.66,1.92-2.24,3.54-4.4,4.39L14,18.88V20h-4v-1.12l-1.27-0.5c-2.16-0.85-3.74-2.47-4.4-4.39H19.66 M12,2 C6.48,2,2,6.48,2,12c0,3.69,2.47,6.86,6,8.25V22h8v-1.75c3.53-1.39,6-4.56,6-8.25h0C22,6.48,17.52,2,12,2L12,2z M10,12V4.26 C10.64,4.1,11.31,4,12,4s1.36,0.1,2,0.26V12H10L10,12z M16,12V5.08c2.39,1.39,4,3.96,4,6.92H16L16,12z M4,12 c0-2.95,1.61-5.53,4-6.92V12H4L4,12z"/></symbol>
<symbol id="roofing" viewBox="0 0 24 24"><rect fill="none" height="24" width="24"/><path d="M13,18h-2v-2h2V18z M15,14H9v6h6V14L15,14z M19,9.3L19,9.3V4h-3v2.6v0L12,3L2,12h3l7-6.31L19,12h3L19,9.3z"/></symbol>
<symbol id="room_preferences" viewBox="0 0 24 24"><g><rect fill="none" height="24" width="24"/><path d="M21.69,16.37l1.14-1l-1-1.73l-1.45,0.49c-0.32-0.27-0.68-0.48-1.08-0.63L19,12h-2l-0.3,1.49c-0.4,0.15-0.76,0.36-1.08,0.63 l-1.45-0.49l-1,1.73l1.14,1c-0.08,0.5-0.08,0.76,0,1.26l-1.14,1l1,1.73l1.45-0.49c0.32,0.27,0.68,0.48,1.08,0.63L17,22h2l0.3-1.49 c0.4-0.15,0.76-0.36,1.08-0.63l1.45,0.49l1-1.73l-1.14-1C21.77,17.13,21.77,16.87,21.69,16.37z M18,19c-1.1,0-2-0.9-2-2s0.9-2,2-2 s2,0.9,2,2S19.1,19,18,19z M19,4v6h-2V6h-2v6h-2V5H7v14h5v2H3v-2h2V3h10v1H19z M12,13h-2v-2h2V13z"/></g></symbol>
<symbol id="room_service" viewBox="0 0 24 24"><path d="M0 0h24v24H0V0z" fill="none"/><path d="M18.98 17H2v2h20v-2zM21 16c-.27-4.07-3.25-7.4-7.16-8.21.1-.24.16-.51.16-.79 0-1.1-.9-2-2-2s-2 .9-2 2c0 .28.06.55.16.79C6.25 8.6 3.27 11.93 3 16h18zm-9-6.42c2.95 0 5.47 1.83 6.5 4.41h-13c1.03-2.58 3.55-4.41 6.5-4.41z"/></symbol>
<symbol id="rv_hookup" viewBox="0 0 24 24"><path d="M0 0h24v24H0V0z" fill="none"/><path d="M20 17v-6c0-1.1-.9-2-2-2H7V7l-3 3 3 3v-2h4v3H4v3c0 1.1.9 2 2 2h2c0 1.66 1.34 3 3 3s3-1.34 3-3h8v-2h-2zm-9 3c-.55 0-1-.45-1-1s.45-1 1-1 1 .45 1 1-.45 1-1 1zm7-6h-4v-3h4v3zM17 2v2H9v2h8v2l3-3-3-3z"/></symbol>
<symbol id="smoke_free" viewBox="0 0 24 24"><path d="M0 0h24v24H0V0z" fill="none"/><path d="M20.5 13H22v3h-1.5zM18 13h1.5v3H18zm-1 0h-2.34L17 15.34zm-2.5-4.35h1.53c1.05 0 1.97.74 1.97 2.05V12h1.5v-1.64c0-1.81-1.6-3.16-3.47-3.16H14.5c-1.02 0-1.85-.98-1.85-2s.83-1.75 1.85-1.75v-1.5c-1.85 0-3.35 1.5-3.35 3.35s1.5 3.35 3.35 3.35zm4.35-3.92c.62-.61 1-1.45 1-2.38h-1.5c0 1.02-.83 1.85-1.85 1.85v1.5c2.24 0 4 1.83 4 4.07V12H22V9.76c0-2.22-1.28-4.14-3.15-5.03zM3.41 4.59L2 6l7 7H2v3h10l7 7 1.41-1.41z"/></symbol>
<symbol id="smoking_rooms" viewBox="0 0 24 24"><path d="M0 0h24v24H0V0z" fill="none"/><path d="M18 16h1.5v3H18zM2 16h15v3H2zm14.03-5.8H14.5c-1.02 0-1.85-.98-1.85-2s.83-1.75 1.85-1.75v-1.5c-1.85 0-3.35 1.5-3.35 3.35s1.5 3.35 3.35 3.35h1.53c1.05 0 1.97.74 1.97 2.05V15h1.5v-1.64c0-1.81-1.6-3.16-3.47-3.16zM20.5 16H22v3h-1.5zm-1.65-8.27c.62-.61 1-1.45 1-2.38C19.85 3.5 18.35 2 16.5 2v1.5c1.02 0 1.85.83 1.85 1.85S17.52 7.2 16.5 7.2v1.5c2.24 0 4 1.83 4 4.07V15H22v-2.24c0-2.22-1.28-4.14-3.15-5.03z"/></symbol>
<symbol id="soap" viewBox="0 0 24 24"><g><rect fill="none" height="24" width="24"/><path d="M14.25,6C14.66,6,15,6.34,15,6.75S14.66,7.5,14.25,7.5S13.5,7.16,13.5,6.75S13.84,6,14.25,6 M14.25,4.5 C13.01,4.5,12,5.51,12,6.75S13.01,9,14.25,9s2.25-1.01,2.25-2.25S15.49,4.5,14.25,4.5L14.25,4.5z M20,5.5c0.28,0,0.5,0.22,0.5,0.5 S20.28,6.5,20,6.5S19.5,6.28,19.5,6S19.72,5.5,20,5.5 M20,4c-1.1,0-2,0.9-2,2s0.9,2,2,2s2-0.9,2-2S21.1,4,20,4L20,4z M16.5,1 C15.67,1,15,1.67,15,2.5S15.67,4,16.5,4C17.33,4,18,3.33,18,2.5S17.33,1,16.5,1z M20.75,16c0.69,0,1.25-0.56,1.25-1.25 s-0.56-1.25-1.25-1.25H12v-1h6.75c0.69,0,1.25-0.56,1.25-1.25c0-0.67-0.53-1.2-1.18-1.24L8.87,10l1.48-2.6 c0.09-0.17,0.14-0.34,0.14-0.54c0-0.26-0.09-0.5-0.26-0.7L9.12,5l-7.18,6.8C1.34,12.36,1,13.15,1,13.97V20c0,1.66,1.34,3,3,3h13.75 c0.69,0,1.25-0.56,1.25-1.25s-0.56-1.25-1.25-1.25H12v-1h7.75c0.69,0,1.25-0.56,1.25-1.25S20.44,17,19.75,17H12v-1H20.75z M10,21H4 c-0.55,0-1-0.45-1-1v-6c0-0.39,0.23-0.64,0.36-0.75L7,9.87V12l3,0V21z"/></g></symbol>
<symbol id="spa" viewBox="0 0 24 24"><path d="M0 0h24v24H0V0z" fill="none"/><path d="M15.49 9.63c-.18-2.79-1.31-5.51-3.43-7.63-2.14 2.14-3.32 4.86-3.55 7.63 1.28.68 2.46 1.56 3.49 2.63 1.03-1.06 2.21-1.94 3.49-2.63zm-3.44-4.44c.63 1.03 1.07 2.18 1.3 3.38-.47.3-.91.63-1.34.98-.42-.34-.87-.67-1.33-.97.25-1.2.71-2.35 1.37-3.39zM12 15.45c-.82-1.25-1.86-2.34-3.06-3.2-.13-.09-.27-.16-.4-.26.13.09.27.17.39.25C6.98 10.83 4.59 10 2 10c0 5.32 3.36 9.82 8.03 11.49.63.23 1.29.4 1.97.51.68-.12 1.33-.29 1.97-.51C18.64 19.82 22 15.32 22 10c-4.18 0-7.85 2.17-10 5.45zm1.32 4.15c-.44.15-.88.27-1.33.37-.44-.09-.87-.21-1.28-.36-3.29-1.18-5.7-3.99-6.45-7.35 1.1.26 2.15.71 3.12 1.33l-.02.01c.13.09.26.18.39.25l.07.04c.99.72 1.84 1.61 2.51 2.65L12 19.1l1.67-2.55c.69-1.05 1.55-1.95 2.53-2.66l.07-.05c.09-.05.18-.11.27-.17l-.01-.02c.98-.65 2.07-1.13 3.21-1.4-.75 3.37-3.15 6.18-6.42 7.35zm-4.33-7.32c-.02-.01-.04-.03-.05-.04 0 0 .01 0 .01.01.01.01.02.02.04.03z"/></symbol>
<symbol id="sports_bar" viewBox="0 0 24 24"><rect fill="none" height="24" width="24"/><path d="M15,19H8l0-6.63c1.26-0.34,2.11-1.27,2.77-1.99C11.6,9.47,12.08,9,13,9l2,0V19z M10,2.02c-1.89,0-3.51,1.11-4.27,2.71 C4.15,5.26,3,6.74,3,8.5c0,1.86,1.28,3.41,3,3.86L6,21h11v-2h2c1.1,0,2-0.9,2-2v-6c0-1.1-0.9-2-2-2h-1.56C17.79,8.41,18,7.73,18,7 c0-2.21-1.79-4-4-4c-0.34,0-0.66,0.05-0.98,0.13C12.2,2.45,11.16,2.02,10,2.02L10,2.02z M7,10.5c-1.1,0-2-0.9-2-2 c0-0.85,0.55-1.6,1.37-1.88l0.8-0.27l0.36-0.76C8,4.62,8.94,4.02,10,4.02c0.79,0,1.39,0.35,1.74,0.65l0.78,0.65 c0,0,0.64-0.32,1.47-0.32c1.1,0,2,0.9,2,2c0,0-3,0-3,0C9.67,7,9.15,10.5,7,10.5C7,10.5,7,10.5,7,10.5L7,10.5z M17,17v-6h2v6H17 L17,17z"/></symbol>
<symbol id="stairs" viewBox="0 0 24 24"><g><rect fill="none" height="24" width="24" x="0"/><path d="M19,5v14H5V5H19 M19,3H5C3.9,3,3,3.9,3,5v14c0,1.1,0.9,2,2,2h14c1.1,0,2-0.9,2-2V5C21,3.9,20.1,3,19,3L19,3z M18,6h-4.42 v3.33H11v3.33H8.42V16H6v2h4.42v-3.33H13v-3.33h2.58V8H18V6z"/></g></symbol>
<symbol id="storefront" viewBox="0 0 24 24"><g><rect fill="none" height="24" width="24"/></g><g><g/><g><path d="M21.9,8.89l-1.05-4.37c-0.22-0.9-1-1.52-1.91-1.52H5.05C4.15,3,3.36,3.63,3.15,4.52L2.1,8.89 c-0.24,1.02-0.02,2.06,0.62,2.88C2.8,11.88,2.91,11.96,3,12.06V19c0,1.1,0.9,2,2,2h14c1.1,0,2-0.9,2-2v-6.94 c0.09-0.09,0.2-0.18,0.28-0.28C21.92,10.96,22.15,9.91,21.9,8.89z M18.91,4.99l1.05,4.37c0.1,0.42,0.01,0.84-0.25,1.17 C19.57,10.71,19.27,11,18.77,11c-0.61,0-1.14-0.49-1.21-1.14L16.98,5L18.91,4.99z M13,5h1.96l0.54,4.52 c0.05,0.39-0.07,0.78-0.33,1.07C14.95,10.85,14.63,11,14.22,11C13.55,11,13,10.41,13,9.69V5z M8.49,9.52L9.04,5H11v4.69 C11,10.41,10.45,11,9.71,11c-0.34,0-0.65-0.15-0.89-0.41C8.57,10.3,8.45,9.91,8.49,9.52z M4.04,9.36L5.05,5h1.97L6.44,9.86 C6.36,10.51,5.84,11,5.23,11c-0.49,0-0.8-0.29-0.93-0.47C4.03,10.21,3.94,9.78,4.04,9.36z M5,19v-6.03C5.08,12.98,5.15,13,5.23,13 c0.87,0,1.66-0.36,2.24-0.95c0.6,0.6,1.4,0.95,2.31,0.95c0.87,0,1.65-0.36,2.23-0.93c0.59,0.57,1.39,0.93,2.29,0.93 c0.84,0,1.64-0.35,2.24-0.95c0.58,0.59,1.37,0.95,2.24,0.95c0.08,0,0.15-0.02,0.23-0.03V19H5z"/></g></g></symbol>
<symbol id="stroller" viewBox="0 0 24 24"><g><rect fill="none" height="24" width="24"/><path d="M18,20c0,1.1-0.9,2-2,2s-2-0.9-2-2s0.9-2,2-2S18,18.9,18,20z M6,18c-1.1,0-2,0.9-2,2s0.9,2,2,2s2-0.9,2-2S7.1,18,6,18z M15,8.66L9.6,15H15V8.66 M18.65,3C20.52,3,22,4.56,22,6.48V7h-2V6.48C20,5.66,19.42,5,18.65,5C17.97,5,17.58,5.59,17,6.27V15 c0,1.1-0.9,2-2,2H7.43c-0.85,0-1.31-1-0.76-1.65l8.8-10.32C16.11,4.27,16.99,3,18.65,3L18.65,3z M10,5C9.35,5,8.71,5.09,8.09,5.27 l1.4,1.4l1.37-1.61C10.58,5.02,10.29,5,10,5 M10,3c1.56,0,3.03,0.4,4.3,1.1l-4.7,5.51L4.72,4.72C6.21,3.64,8.03,3,10,3L10,3z"/></g></symbol>
<symbol id="tapas" viewBox="0 0 24 24"><rect fill="none" height="24" width="24"/><path d="M22,10V1h-8v9c0,1.86,1.28,3.41,3,3.86V21h-2v2h6v-2h-2v-7.14C20.72,13.41,22,11.86,22,10z M20,3v3h-4V3H20z M16,10V8h4v2 c0,1.1-0.9,2-2,2S16,11.1,16,10z M10,9H8V8h2c1.38,0,2.5-1.12,2.5-2.5C12.5,4.12,11.38,3,10,3H8V1H6v2H4C2.62,3,1.5,4.12,1.5,5.5 C1.5,6.88,2.62,8,4,8h2v1H4c-1.38,0-2.5,1.12-2.5,2.5C1.5,12.88,2.62,14,4,14h2v9h2v-9h2c1.38,0,2.5-1.12,2.5-2.5 C12.5,10.12,11.38,9,10,9z M4,6C3.72,6,3.5,5.78,3.5,5.5S3.72,5,4,5h6c0.28,0,0.5,0.22,0.5,0.5S10.28,6,10,6H4z M10,12H4 c-0.28,0-0.5-0.22-0.5-0.5S3.72,11,4,11h6c0.28,0,0.5,0.22,0.5,0.5S10.28,12,10,12z"/></symbol>
<symbol id="tty" viewBox="0 0 24 24"><g><rect fill="none" height="24" width="24" x="0"/><path d="M16,6h-2V4h2V6z M18,7h-2v2h2V7z M19,9h2V7h-2V9z M19,4h-2v2h2V4z M15,7h-2v2h2V7z M19,10h-2v2h2V10z M16,10h-2v2h2V10z M13,4h-2v2h2V4z M20,15.82v4.15c0,0.56-0.47,1.03-1.03,1c-2.89-0.17-5.6-1.03-7.97-2.4C8.27,16.99,6.01,14.73,4.43,12 C3.05,9.63,2.2,6.92,2.03,4.03C2,3.47,2.47,3,3.03,3h4.15c0.48,0,0.89,0.34,0.98,0.8L8.9,7.48c0.07,0.33-0.04,0.67-0.27,0.9 L6.1,10.9c1.43,2.5,3.5,4.57,6,6l2.52-2.52c0.24-0.24,0.58-0.34,0.9-0.27l3.67,0.73C19.66,14.93,20,15.34,20,15.82z M5.18,8.99 l1.65-1.65L6.36,5H4.13C4.3,6.37,4.66,7.71,5.18,8.99z M18,16.64l-2.34-0.47l-1.65,1.65c1.28,0.52,2.63,0.87,3.99,1.05V16.64z M20,4v2h2V4H20z M20,12h2v-2h-2V12z M13,10h-2v2h2V10z"/></g></symbol>
<symbol id="umbrella" viewBox="0 0 24 24"><g><rect fill="none" height="24" width="24"/><path d="M14.5,6.92L13,5.77V3.88V3.4c0-0.26,0.22-0.48,0.5-0.48c0.28,0,0.5,0.21,0.5,0.48V4h2V3.4C16,2.07,14.88,1,13.5,1 C12.12,1,11,2.07,11,3.4v0.48v1.89L9.5,6.92L6,6.07l5.05,15.25C11.2,21.77,11.6,22,12,22s0.8-0.23,0.95-0.69L18,6.07L14.5,6.92z M13.28,8.5l0.76,0.58l0.92-0.23L13,14.8V8.29L13.28,8.5z M9.96,9.09l0.76-0.58L11,8.29v6.51L9.03,8.86L9.96,9.09z"/></g></symbol>
<symbol id="wash" viewBox="0 0 24 24"><g><rect fill="none" height="24" width="24"/><path d="M20.75,16c0.69,0,1.25-0.56,1.25-1.25s-0.56-1.25-1.25-1.25H12v-1h6.75c0.69,0,1.25-0.56,1.25-1.25 c0-0.67-0.53-1.2-1.18-1.24L8.87,10l1.48-2.6c0.09-0.17,0.14-0.34,0.14-0.54c0-0.26-0.09-0.5-0.26-0.7L9.12,5l-7.18,6.8 C1.34,12.36,1,13.15,1,13.97V20c0,1.66,1.34,3,3,3h13.75c0.69,0,1.25-0.56,1.25-1.25s-0.56-1.25-1.25-1.25H12v-1h7.75 c0.69,0,1.25-0.56,1.25-1.25S20.44,17,19.75,17H12v-1H20.75z M10,21H4c-0.55,0-1-0.45-1-1v-6c0-0.39,0.23-0.64,0.36-0.75L7,9.87V12 l3,0V21z M13.5,9C14.33,9,15,8.33,15,7.5C15,6.66,13.5,5,13.5,5S12,6.66,12,7.5C12,8.33,12.67,9,13.5,9z M18.5,1 c0,0-2.5,2.83-2.5,4.5C16,6.88,17.12,8,18.5,8S21,6.88,21,5.5C21,3.83,18.5,1,18.5,1z M18.5,6.5c-0.55,0-1-0.45-1-1 c0-0.4,0.43-1.22,1-2.05c0.57,0.83,1,1.65,1,2.05C19.5,6.05,19.05,6.5,18.5,6.5z"/></g></symbol>
<symbol id="water_damage" viewBox="0 0 24 24"><rect fill="none" height="24" width="24"/><path d="M12,3L2,12h3v8h14v-8h3L12,3z M7,18v-7.81l5-4.5l5,4.5V18H7z M14,14c0,1.1-0.9,2-2,2s-2-0.9-2-2c0-1.1,2-4,2-4 S14,12.9,14,14z"/></symbol>
<symbol id="wheelchair_pickup" viewBox="0 0 24 24"><g><rect fill="none" height="24" width="24" x="0"/><path d="M4.5,4c0-1.11,0.89-2,2-2s2,0.89,2,2s-0.89,2-2,2S4.5,5.11,4.5,4z M10,10.95V9c0-1.1-0.9-2-2-2H5C3.9,7,3,7.9,3,9v6h2v7 h3.5v-0.11c-1.24-1.26-2-2.99-2-4.89C6.5,14.42,7.91,12.16,10,10.95z M16.5,17c0,1.65-1.35,3-3,3s-3-1.35-3-3 c0-1.11,0.61-2.06,1.5-2.58v-2.16C9.98,12.9,8.5,14.77,8.5,17c0,2.76,2.24,5,5,5s5-2.24,5-5H16.5z M19.54,14H15V8h-2v8h5.46 l2.47,3.71l1.66-1.11L19.54,14z"/></g></symbol>
</svg>