<svg xmlns="http://www.w3.org/2000/svg">
<symbol id="connected" viewBox="0 0 24 24"><path d="M3.9 12c0-1.71 1.39-3.1 3.1-3.1h4V7H7c-2.76 0-5 2.24-5 5s2.24 5 5 5h4v-1.9H7c-1.71 0-3.1-1.39-3.1-3.1zM8 13h8v-2H8v2zm9-6h-4v1.9h4c1.71 0 3.1 1.39 3.1 3.1s-1.39 3.1-3.1 3.1h-4V17h4c2.76 0 5-2.24 5-5s-2.24-5-5-5z" /></symbol>
<symbol id="disconnected" viewBox="0 0 24 24"><path d="M 3.9,12 C 3.9,10.29 5.29,8.9 7,8.9 l 4,0 L 11,7 7,7 c -2.76,0 -5,2.24 -5,5 0,2.76 2.24,5 5,5 l 4,0 0,-1.9 -4,0 C 5.29,15.1 3.9,13.71 3.9,12 Z m 3.2792511,-5.502857 1.0276213,1.5349583 2.0062066,2.8292167 -2.4132107,0.01973 0.071865,1.951252 3.6389702,-0.03749 3.794813,5.918862 1.704633,-1.179251 -3.546797,-4.86925 2.112192,-0.01776 -0.192219,-1.880226 -2.90982,0.02762 L 9.0101525,5.2547574 Z M 17,7 l -4,0 0,1.9 4,0 c 1.71,0 3.1,1.39 3.1,3.1 0,1.71 -1.39,3.1 -3.1,3.1 l -4,0 L 13.06314,17 17,17 c 2.76,0 5,-2.24 5,-5 0,-2.76 -2.24,-5 -5,-5 z" /></symbol>
<symbol id="no_connection" viewBox="0 0 24 24"><path d="M 1.9,12 C 1.9,10.29 3.290139,8.9218015 5,8.9 L 7.9515501,8.8368655 6.8706034,7 5,7 c -2.76,0 -5,2.24 -5,5 0,2.76 2.2400952,4.977079 5,5 L 8.375,17.04464 7.2832213,15.1 5,15.1 C 3.29,15.1 1.9,13.71 1.9,12 Z M 17,7 13.54786,7.0631345 14.691942,8.9 17,8.9 c 1.71,0 3.1,1.39 3.1,3.1 0,1.71 -1.39,3.1 -3.1,3.1 L 14.205357,15.189286 15.36027,17 17,17 c 2.76,0 5,-2.24 5,-5 0,-2.76 -2.24,-5 -5,-5 z" /></symbol>
<symbol id="connection_pending" viewBox="0 0 24 24"><path d="M 1.9,12 C 1.9,10.29 3.290139,8.9218015 5,8.9 L 7.9515501,8.8368655 6.8706034,7 5,7 c -2.76,0 -5,2.24 -5,5 0,2.76 2.2400952,4.977079 5,5 L 8.375,17.04464 7.2832213,15.1 5,15.1 C 3.29,15.1 1.9,13.71 1.9,12 Z M 17,7 13.54786,7.0631345 14.691942,8.9 17,8.9 c 1.71,0 3.1,1.39 3.1,3.1 0,1.71 -1.39,3.1 -3.1,3.1 L 14.205357,15.189286 15.36027,17 17,17 c 2.76,0 5,-2.24 5,-5 0,-2.76 -2.24,-5 -5,-5 z"/><circle r="1" cy="12" cx="7" style="fill-opacity:1;fill-rule:nonzero;stroke:none;"/><circle r="1" cy="12" cx="11" style="fill-opacity:1;fill-rule:nonzero;stroke:none;"/><circle r="1" cy="12" cx="15" style="fill-opacity:1;fill-rule:nonzero;stroke:none;" /></symbol>
<symbol id="top_stack_frame" viewBox="0 0 24 24"><g transform="matrix(2.164833, 0, 0, 1.969688, -6.570415, -3.697497)"><path d="M12.5,8,9,12H5V4H9Z" /></g></symbol>
<symbol id="breakpoint" viewBox="0 0 24 24"><circle style="alignment-baseline: initial;" cx="10.797" cy="11.983" r="5.19" /></symbol>
</svg>