<svg xmlns="http://www.w3.org/2000/svg">
<symbol id="add_alert" viewBox="0 0 24 24"><path d="M12 6c-2.76 0-5 2.24-5 5v7h10v-7c0-2.76-2.24-5-5-5zm4 7h-3v3h-2v-3H8v-2h3V8h2v3h3v2z" opacity=".3"/><path d="M12 23c1.1 0 1.99-.89 1.99-1.99h-3.98c0 1.1.89 1.99 1.99 1.99zm7-6v-6c0-3.35-2.36-6.15-5.5-6.83V3c0-.83-.67-1.5-1.5-1.5s-1.5.67-1.5 1.5v1.17C7.36 4.85 5 7.65 5 11v6l-2 2v1h18v-1l-2-2zm-2 1H7v-7c0-2.76 2.24-5 5-5s5 2.24 5 5v7zm-4-7V8h-2v3H8v2h3v3h2v-3h3v-2z"/></symbol>
<symbol id="auto_delete" viewBox="0 0 24 24"><g><rect fill="none" height="24" width="24"/></g><g><g><path d="M12,7H4v10h5.08C9.03,16.67,9,16.34,9,16c0-2.38,1.19-4.47,3-5.74V7z" opacity=".3"/><polygon points="15,2 11.5,2 10.5,1 5.5,1 4.5,2 1,2 1,4 15,4"/><path d="M16,9c-0.7,0-1.37,0.1-2,0.29V5H2v12c0,1.1,0.9,2,2,2h5.68c1.12,2.36,3.53,4,6.32,4c3.87,0,7-3.13,7-7 C23,12.13,19.87,9,16,9z M9,16c0,0.34,0.03,0.67,0.08,1H4V7h8v3.26C10.19,11.53,9,13.62,9,16z M16,21c-2.76,0-5-2.24-5-5 s2.24-5,5-5s5,2.24,5,5S18.76,21,16,21z"/><polygon points="16.5,12 15,12 15,17 18.6,19.1 19.4,17.9 16.5,16.2"/></g></g></symbol>
<symbol id="error" viewBox="0 0 24 24"><path d="M12 4c-4.42 0-8 3.58-8 8s3.58 8 8 8 8-3.58 8-8-3.58-8-8-8zm1 13h-2v-2h2v2zm0-4h-2V7h2v6z" opacity=".3"/><path d="M11.99 2C6.47 2 2 6.48 2 12s4.47 10 9.99 10C17.52 22 22 17.52 22 12S17.52 2 11.99 2zM12 20c-4.42 0-8-3.58-8-8s3.58-8 8-8 8 3.58 8 8-3.58 8-8 8zm-1-5h2v2h-2zm0-8h2v6h-2z"/></symbol>
<symbol id="error_outline" viewBox="0 0 24 24"><path d="M11.99 2C6.47 2 2 6.48 2 12s4.47 10 9.99 10C17.52 22 22 17.52 22 12S17.52 2 11.99 2zM12 20c-4.42 0-8-3.58-8-8s3.58-8 8-8 8 3.58 8 8-3.58 8-8 8zm-1-5h2v2h-2zm0-8h2v6h-2z"/></symbol>
<symbol id="notification_important" viewBox="0 0 24 24"><path d="M12 6c-2.76 0-5 2.24-5 5v7h10v-7c0-2.76-2.24-5-5-5zm1 10h-2v-2h2v2zm0-4h-2V8h2v4z" opacity=".3"/><path d="M12 23c1.1 0 1.99-.89 1.99-1.99h-3.98c0 1.1.89 1.99 1.99 1.99zm7-6v-6c0-3.35-2.36-6.15-5.5-6.83V3c0-.83-.67-1.5-1.5-1.5s-1.5.67-1.5 1.5v1.17C7.36 4.85 5 7.65 5 11v6l-2 2v1h18v-1l-2-2zm-2 1H7v-7c0-2.76 2.24-5 5-5s5 2.24 5 5v7zM11 8h2v4h-2zm0 6h2v2h-2z"/></symbol>
<symbol id="warning" viewBox="0 0 24 24"><path d="M4.47 19h15.06L12 5.99 4.47 19zM13 18h-2v-2h2v2zm0-4h-2v-4h2v4z" opacity=".3"/><path d="M1 21h22L12 2 1 21zm3.47-2L12 5.99 19.53 19H4.47zM11 16h2v2h-2zm0-6h2v4h-2z"/></symbol>
<symbol id="warning_amber" viewBox="0 0 24 24"><path d="M1 21h22L12 2 1 21zm3.47-2L12 5.99 19.53 19H4.47zM11 16h2v2h-2zm0-6h2v4h-2z"/></symbol>
</svg>