<svg xmlns="http://www.w3.org/2000/svg">
<symbol id="4k" viewBox="0 0 24 24"><path d="M0 0h24v24H0V0z" fill="none"/><path d="M19 5H5v14h14V5zm-7 8.51h-1V15H9.5v-1.5h-3V9H8v3h1.5V9H11v3h1v1.51zM18.2 15h-1.7l-2-3v3H13V9h1.5v3l2-3h1.7l-2 3 2 3z" opacity=".3"/><path d="M5 21h14c1.1 0 2-.9 2-2V5c0-1.1-.89-2-2-2H5c-1.1 0-2 .9-2 2v14c0 1.1.89 2 2 2zM5 5h14v14H5V5zm6 4H9.5v3H8V9H6.5v4.5h3V15H11v-1.49h1V12h-1zm5.5 0l-2 3 2 3h1.7l-2-3 2-3zM13 9v6h1.5V9z"/></symbol>
<symbol id="5g" viewBox="0 0 24 24"><g><rect fill="none" height="24" width="24"/></g><g><g><path d="M16.5,13H19v2h-5V9h7c0-1.1-0.9-2-2-2h-5c-1.1,0-2,0.9-2,2v6c0,1.1,0.9,2,2,2h5c1.1,0,2-0.9,2-2v-4h-4.5V13z"/><path d="M3,13h5v2H3v2h5c1.1,0,2-0.9,2-2v-2c0-1.1-0.9-2-2-2H5V9h5V7H3V13z"/></g></g></symbol>
<symbol id="add_to_queue" viewBox="0 0 24 24"><path d="M0 0h24v24H0V0z" fill="none"/><path d="M3 17h18V5H3v12zm5-7h3V7h2v3h3v2h-3v3h-2v-3H8v-2z" opacity=".3"/><path d="M11 15h2v-3h3v-2h-3V7h-2v3H8v2h3zM21 3H3c-1.11 0-2 .89-2 2v12c0 1.1.89 2 2 2h5v2h8v-2h5c1.1 0 2-.9 2-2V5c0-1.11-.9-2-2-2zm0 14H3V5h18v12z"/></symbol>
<symbol id="airplay" viewBox="0 0 24 24"><g><rect fill="none" height="24" width="24"/><rect fill="none" height="24" width="24"/><rect fill="none" height="24" width="24"/></g><g><g/><g><polygon points="6,22 18,22 12,16"/><path d="M21,3H3C1.9,3,1,3.9,1,5v12c0,1.1,0.9,2,2,2h4v-2H3V5h18v12h-4v2h4c1.1,0,2-0.9,2-2V5C23,3.9,22.1,3,21,3z"/></g></g></symbol>
<symbol id="album" viewBox="0 0 24 24"><path d="M0 0h24v24H0V0z" fill="none"/><path d="M12 4c-4.41 0-8 3.59-8 8s3.59 8 8 8 8-3.59 8-8-3.59-8-8-8zm0 12.5c-2.49 0-4.5-2.01-4.5-4.5S9.51 7.5 12 7.5s4.5 2.01 4.5 4.5-2.01 4.5-4.5 4.5z" opacity=".3"/><path d="M12 2C6.48 2 2 6.48 2 12s4.48 10 10 10 10-4.48 10-10S17.52 2 12 2zm0 18c-4.41 0-8-3.59-8-8s3.59-8 8-8 8 3.59 8 8-3.59 8-8 8zm0-12.5c-2.49 0-4.5 2.01-4.5 4.5s2.01 4.5 4.5 4.5 4.5-2.01 4.5-4.5-2.01-4.5-4.5-4.5zm0 5.5c-.55 0-1-.45-1-1s.45-1 1-1 1 .45 1 1-.45 1-1 1z"/></symbol>
<symbol id="art_track" viewBox="0 0 24 24"><path d="M0 0h24v24H0V0z" fill="none"/><path d="M14 7h8v2h-8zm0 4h8v2h-8zm0 4h8v2h-8zM4 17h6c1.1 0 2-.9 2-2V9c0-1.1-.9-2-2-2H4c-1.1 0-2 .9-2 2v6c0 1.1.9 2 2 2zm1.25-4.25l1.25 1.51L8.25 12l2.25 3h-7l1.75-2.25z"/></symbol>
<symbol id="av_timer" viewBox="0 0 24 24"><path d="M0 0h24v24H0V0z" fill="none"/><path d="M12 21c4.97 0 9-4.03 9-9s-4.03-9-9-9h-1v4h2V5.08c3.39.49 6 3.39 6 6.92 0 3.87-3.13 7-7 7s-7-3.13-7-7c0-1.68.59-3.22 1.58-4.42L12 13l1.41-1.41-6.8-6.8v.02C4.42 6.45 3 9.05 3 12c0 4.97 4.02 9 9 9z"/><circle cx="12" cy="17" r="1"/><circle cx="17" cy="12" r="1"/><circle cx="7" cy="12" r="1"/></symbol>
<symbol id="branding_watermark" viewBox="0 0 24 24"><path d="M0 0h24v24H0V0z" fill="none"/><path d="M3 19h18V5H3v14zm8-7h9v6h-9v-6z" opacity=".3"/><path d="M21 3H3c-1.1 0-2 .9-2 2v14c0 1.1.9 2 2 2h18c1.1 0 2-.9 2-2V5c0-1.1-.9-2-2-2zm0 16H3V5h18v14zm-10-7h9v6h-9z"/></symbol>
<symbol id="call_to_action" viewBox="0 0 24 24"><path d="M0 0h24v24H0V0z" fill="none"/><path d="M3 19h18V5H3v14zm2-4h14v3H5v-3z" opacity=".3"/><path d="M21 3H3c-1.1 0-2 .9-2 2v14c0 1.1.9 2 2 2h18c1.1 0 2-.9 2-2V5c0-1.1-.9-2-2-2zm0 16H3V5h18v14zM5 15h14v3H5z"/></symbol>
<symbol id="closed_caption" viewBox="0 0 24 24"><path d="M0 0h24v24H0V0z" fill="none"/><path d="M19 6H5v12h14V6zm-8 5H9.5v-.5h-2v3h2V13H11v1c0 .55-.45 1-1 1H7c-.55 0-1-.45-1-1v-4c0-.55.45-1 1-1h3c.55 0 1 .45 1 1v1zm7 0h-1.5v-.5h-2v3h2V13H18v1c0 .55-.45 1-1 1h-3c-.55 0-1-.45-1-1v-4c0-.55.45-1 1-1h3c.55 0 1 .45 1 1v1z" opacity=".3"/><path d="M5 20h14c1.1 0 2-.9 2-2V6c0-1.1-.9-2-2-2H5c-1.11 0-2 .9-2 2v12c0 1.1.89 2 2 2zM5 6h14v12H5V6zm5 3H7c-.55 0-1 .45-1 1v4c0 .55.45 1 1 1h3c.55 0 1-.45 1-1v-1H9.5v.5h-2v-3h2v.5H11v-1c0-.55-.45-1-1-1zm7 0h-3c-.55 0-1 .45-1 1v4c0 .55.45 1 1 1h3c.55 0 1-.45 1-1v-1h-1.5v.5h-2v-3h2v.5H18v-1c0-.55-.45-1-1-1z"/></symbol>
<symbol id="closed_caption_disabled" viewBox="0 0 24 24"><rect fill="none" height="24" width="24"/><path d="M8.83,6H19v10.17l-1.4-1.4C17.84,14.59,18,14.32,18,14v-1h-1.5v0.5h-0.17 l-1.83-1.83V10.5h2V11H18v-1c0-0.55-0.45-1-1-1h-3c-0.55,0-1,0.45-1,1v0.17L8.83,6z M7.5,13.5h2V13h0.67l-2.5-2.5H7.5V13.5z M11,14 c0,0.55-0.45,1-1,1H7c-0.55,0-1-0.45-1-1v-4c0-0.32,0.16-0.59,0.4-0.78L5,7.83V18h10.17L11,13.83V14z" enable-background="new" opacity=".3"/><path d="M6.83,4H19c1.1,0,2,0.9,2,2v12c0,0.05-0.01,0.1-0.02,0.16L19,16.17V6H8.83L6.83,4z M19.78,22.61L17.17,20H5 c-1.11,0-2-0.9-2-2V6c0-0.05,0.02-0.1,0.02-0.15L1.39,4.22l1.41-1.41L18,18l1.82,1.82l1.37,1.37L19.78,22.61z M7.5,13.5h2V13h0.67 l-2.5-2.5H7.5V13.5z M15.17,18L11,13.83V14c0,0.55-0.45,1-1,1H7c-0.55,0-1-0.45-1-1v-4c0-0.32,0.16-0.59,0.4-0.78L5,7.83V18H15.17z M18,14v-1h-1.5v0.5h-0.17l1.28,1.28C17.84,14.59,18,14.32,18,14z M14.5,11.67V10.5h2V11H18v-1c0-0.55-0.45-1-1-1h-3 c-0.55,0-1,0.45-1,1v0.17L14.5,11.67z"/></symbol>
<symbol id="control_camera" viewBox="0 0 24 24"><path d="M0 0h24v24H0V0z" fill="none"/><path d="M7.3 13.77L5.54 12l1.76-1.77-1.76-1.77L2 12l3.54 3.54zm8.24 4.69l-1.77-1.76L12 18.46l-1.77-1.76-1.77 1.76L12 22zm2.92-2.92L22 12l-3.54-3.54-1.76 1.77L18.46 12l-1.76 1.77zM12 5.54l1.77 1.76 1.77-1.76L12 2 8.46 5.54l1.77 1.76z"/><circle cx="12" cy="12" r="3"/></symbol>
<symbol id="equalizer" viewBox="0 0 24 24"><path d="M0 0h24v24H0V0z" fill="none"/><path d="M16 9h4v11h-4zm-6-5h4v16h-4zm-6 8h4v8H4z"/></symbol>
<symbol id="explicit" viewBox="0 0 24 24"><path d="M0 0h24v24H0V0z" fill="none"/><path d="M5 19h14V5H5v14zM9 7h6v2h-4v2h4v2h-4v2h4v2H9V7z" opacity=".3"/><path d="M21 19V5c0-1.1-.9-2-2-2H5c-1.1 0-2 .9-2 2v14c0 1.1.9 2 2 2h14c1.1 0 2-.9 2-2zm-2 0H5V5h14v14zm-4-4h-4v-2h4v-2h-4V9h4V7H9v10h6z"/></symbol>
<symbol id="fast_forward" viewBox="0 0 24 24"><g><rect fill="none" height="24" width="24"/><rect fill="none" height="24" width="24"/><rect fill="none" height="24" width="24"/></g><g><g/><g><polygon opacity=".3" points="15,9.86 15,14.14 18.03,12"/><polygon opacity=".3" points="6,9.86 6,14.14 9.03,12"/><path d="M4,18l8.5-6L4,6V18z M6,9.86L9.03,12L6,14.14V9.86z"/><path d="M21.5,12L13,6v12L21.5,12z M15,9.86L18.03,12L15,14.14V9.86z"/></g></g></symbol>
<symbol id="fast_rewind" viewBox="0 0 24 24"><path d="M0 0h24v24H0V0z" fill="none"/><path d="M9 14.14V9.86L5.97 12zm9 0V9.86L14.97 12z" opacity=".3"/><path d="M11 6l-8.5 6 8.5 6V6zm-2 8.14L5.97 12 9 9.86v4.28zM20 6l-8.5 6 8.5 6V6zm-2 8.14L14.97 12 18 9.86v4.28z"/></symbol>
<symbol id="featured_play_list" viewBox="0 0 24 24"><path d="M0 0h24v24H0V0z" fill="none"/><path d="M3 19h18V5H3v14zM5 7h9v2H5V7zm0 3h9v2H5v-2z" opacity=".3"/><path d="M21 3H3c-1.1 0-2 .9-2 2v14c0 1.1.9 2 2 2h18c1.1 0 2-.9 2-2V5c0-1.1-.9-2-2-2zm0 16H3V5h18v14zM5 10h9v2H5zm0-3h9v2H5z"/></symbol>
<symbol id="featured_video" viewBox="0 0 24 24"><path d="M0 0h24v24H0V0z" fill="none"/><path d="M3 19h18V5H3v14zM4 6h9v7H4V6z" opacity=".3"/><path d="M21 3H3c-1.1 0-2 .9-2 2v14c0 1.1.9 2 2 2h18c1.1 0 2-.9 2-2V5c0-1.1-.9-2-2-2zm0 16H3V5h18v14zM4 6h9v7H4z"/></symbol>
<symbol id="fiber_dvr" viewBox="0 0 24 24"><path d="M0 0h24v24H0V0z" fill="none"/><path d="M20 11.56v-.89c0-.76-.58-1.33-1.33-1.33h-3.11v5.33h1.33v-1.78h1.02l.76 1.78H20l-.8-1.87c.44-.22.8-.71.8-1.24zm-1.33 0h-1.78v-.89h1.78v.89zM7.11 9.33H4v5.33h3.11c.76 0 1.33-.58 1.33-1.33v-2.67c0-.75-.57-1.33-1.33-1.33zm0 4H5.33v-2.67h1.78v2.67zm7-4h-1.34l-.89 3.05L11 9.33H9.66l1.56 5.34h1.33z"/><path d="M3 5h18v14H3z" opacity=".3"/><path d="M21 3H3c-1.11 0-2 .89-2 2v14c0 1.1.89 2 2 2h18c1.11 0 2-.9 2-2V5c0-1.11-.89-2-2-2zm0 16H3V5h18v14z"/></symbol>
<symbol id="fiber_manual_record" viewBox="0 0 24 24"><path d="M0 0h24v24H0V0z" fill="none"/><path d="M12 18c3.31 0 6-2.69 6-6s-2.69-6-6-6-6 2.69-6 6 2.69 6 6 6z" opacity=".3"/><path d="M12 20c4.42 0 8-3.58 8-8s-3.58-8-8-8-8 3.58-8 8 3.58 8 8 8zm0-14c3.31 0 6 2.69 6 6s-2.69 6-6 6-6-2.69-6-6 2.69-6 6-6z"/></symbol>
<symbol id="fiber_new" viewBox="0 0 24 24"><path d="M0 0h24v24H0V0z" fill="none"/><path d="M9.12 14.47V9.53H8.09v2.88L6.03 9.53H5v4.94h1.03v-2.88l2.1 2.88zm4.12-3.9V9.53h-3.3v4.94h3.3v-1.03h-2.06v-.91h2.06v-1.04h-2.06v-.92zm.82-1.04v4.12c0 .45.37.82.82.82h3.29c.45 0 .82-.37.82-.82V9.53h-1.03v3.71h-.92v-2.89h-1.03v2.9h-.93V9.53h-1.02z"/><path d="M4 6h16v12H4z" opacity=".3"/><path d="M20 4H4c-1.11 0-1.99.89-1.99 2L2 18c0 1.11.89 2 2 2h16c1.11 0 2-.89 2-2V6c0-1.11-.89-2-2-2zm0 14H4V6h16v12z"/></symbol>
<symbol id="fiber_pin" viewBox="0 0 24 24"><path d="M0 0h24v24H0V0z" fill="none"/><path d="M5 14.62h1.31v-1.75h1.75c.74 0 1.31-.57 1.31-1.31v-.88c0-.74-.57-1.31-1.31-1.31H5v5.25zm1.31-3.93h1.75v.88H6.31v-.88zm5.03-1.31h1.31v5.25h-1.31zm3.28 5.24h1.1v-3.06l2.23 3.06H19V9.38h-1.09v3.06l-2.19-3.06h-1.1z"/><path d="M4 6h16v12H4z" opacity=".3"/><path d="M20 4H4c-1.11 0-1.99.89-1.99 2L2 18c0 1.11.89 2 2 2h16c1.11 0 2-.89 2-2V6c0-1.11-.89-2-2-2zm0 14H4V6h16v12z"/></symbol>
<symbol id="fiber_smart_record" viewBox="0 0 24 24"><path d="M0 0h24v24H0V0z" fill="none"/><path d="M9 18c3.31 0 6-2.69 6-6s-2.69-6-6-6-6 2.69-6 6 2.69 6 6 6z" opacity=".3"/><path d="M9 20c4.42 0 8-3.58 8-8s-3.58-8-8-8-8 3.58-8 8 3.58 8 8 8zM9 6c3.31 0 6 2.69 6 6s-2.69 6-6 6-6-2.69-6-6 2.69-6 6-6zm8-1.74v2.09c2.33.82 4 3.04 4 5.65s-1.67 4.83-4 5.65v2.09c3.45-.89 6-4.01 6-7.74 0-3.73-2.55-6.85-6-7.74z"/></symbol>
<symbol id="forward_10" viewBox="0 0 24 24"><g><rect fill="none" height="24" width="24"/><rect fill="none" height="24" width="24"/><rect fill="none" height="24" width="24"/></g><g><g/><g><path d="M18,13c0,3.31-2.69,6-6,6s-6-2.69-6-6s2.69-6,6-6v4l5-5l-5-5v4c-4.42,0-8,3.58-8,8c0,4.42,3.58,8,8,8s8-3.58,8-8H18z"/><polygon points="10.9,16 10.9,11.73 10.81,11.73 9.04,12.36 9.04,13.05 10.05,12.74 10.05,16"/><path d="M14.32,11.78c-0.18-0.07-0.37-0.1-0.59-0.1s-0.41,0.03-0.59,0.1s-0.33,0.18-0.45,0.33s-0.23,0.34-0.29,0.57 s-0.1,0.5-0.1,0.82v0.74c0,0.32,0.04,0.6,0.11,0.82s0.17,0.42,0.3,0.57s0.28,0.26,0.46,0.33s0.37,0.1,0.59,0.1s0.41-0.03,0.59-0.1 s0.33-0.18,0.45-0.33s0.22-0.34,0.29-0.57s0.1-0.5,0.1-0.82V13.5c0-0.32-0.04-0.6-0.11-0.82s-0.17-0.42-0.3-0.57 S14.49,11.85,14.32,11.78z M14.33,14.35c0,0.19-0.01,0.35-0.04,0.48s-0.06,0.24-0.11,0.32s-0.11,0.14-0.19,0.17 s-0.16,0.05-0.25,0.05s-0.18-0.02-0.25-0.05s-0.14-0.09-0.19-0.17s-0.09-0.19-0.12-0.32s-0.04-0.29-0.04-0.48v-0.97 c0-0.19,0.01-0.35,0.04-0.48s0.06-0.23,0.12-0.31s0.11-0.14,0.19-0.17s0.16-0.05,0.25-0.05s0.18,0.02,0.25,0.05 s0.14,0.09,0.19,0.17s0.09,0.18,0.12,0.31s0.04,0.29,0.04,0.48V14.35z"/></g></g></symbol>
<symbol id="forward_30" viewBox="0 0 24 24"><path d="M0 0h24v24H0V0z" fill="none"/><path d="M18 13c0 3.31-2.69 6-6 6s-6-2.69-6-6 2.69-6 6-6v4l5-5-5-5v4c-4.42 0-8 3.58-8 8s3.58 8 8 8 8-3.58 8-8h-2zm-7.46 2.22c-.06.05-.12.09-.2.12s-.17.04-.27.04c-.09 0-.17-.01-.25-.04s-.14-.06-.2-.11-.1-.1-.13-.17-.05-.14-.05-.22h-.85c0 .21.04.39.12.55s.19.28.33.38.29.18.46.23.35.07.53.07c.21 0 .41-.03.6-.08s.34-.14.48-.24.24-.24.32-.39.12-.33.12-.53c0-.23-.06-.44-.18-.61s-.3-.3-.54-.39c.1-.05.2-.1.28-.17s.15-.14.2-.22.1-.16.13-.25.04-.18.04-.27c0-.2-.04-.37-.11-.53s-.17-.28-.3-.38-.28-.18-.46-.23-.37-.08-.59-.08c-.19 0-.38.03-.54.08s-.32.13-.44.23-.23.22-.3.37-.11.3-.11.48h.85c0-.07.02-.14.05-.2s.07-.11.12-.15.11-.07.18-.1.14-.03.22-.03c.1 0 .18.01.25.04s.13.06.18.11.08.11.11.17.04.14.04.22c0 .18-.05.32-.16.43s-.26.16-.48.16h-.43v.66h.45c.11 0 .2.01.29.04s.16.06.22.11.11.12.14.2.05.18.05.29c0 .09-.01.17-.04.24s-.08.11-.13.17zm3.9-3.44c-.18-.07-.37-.1-.59-.1s-.41.03-.59.1-.33.18-.45.33-.23.34-.29.57-.1.5-.1.82v.74c0 .32.04.6.11.82s.17.42.3.57.28.26.46.33.37.1.59.1.41-.03.59-.1.33-.18.45-.33.22-.34.29-.57.1-.5.1-.82v-.74c0-.32-.04-.6-.11-.82s-.17-.42-.3-.57-.28-.26-.46-.33zm.01 2.57c0 .19-.01.35-.04.48s-.06.24-.11.32-.11.14-.19.17-.16.05-.25.05-.18-.02-.25-.05-.14-.09-.19-.17-.09-.19-.12-.32-.04-.29-.04-.48v-.97c0-.19.01-.35.04-.48s.06-.23.12-.31.11-.14.19-.17.16-.05.25-.05.18.02.25.05.14.09.19.17.09.18.12.31.04.29.04.48v.97z"/></symbol>
<symbol id="forward_5" viewBox="0 0 24 24"><path d="M0 0h24v24H0V0z" fill="none"/><path d="M17.95 13c0 3.31-2.69 6-6 6s-6-2.69-6-6 2.69-6 6-6v4l5-5-5-5v4c-4.42 0-8 3.58-8 8s3.58 8 8 8 8-3.58 8-8h-2zm-5.52 2.15c-.05.07-.11.13-.18.17s-.17.06-.27.06c-.17 0-.31-.05-.42-.15s-.17-.24-.19-.41h-.84c.01.2.05.37.13.53s.19.28.32.39.29.19.46.24.35.08.53.08c.24 0 .46-.04.64-.12s.33-.18.45-.31.21-.28.27-.45.09-.35.09-.54c0-.22-.03-.43-.09-.6s-.14-.33-.25-.45-.25-.22-.41-.28-.34-.1-.55-.1c-.07 0-.14.01-.2.02s-.13.02-.18.04-.1.03-.15.05-.08.04-.11.05l.11-.92h1.7v-.71H10.9l-.25 2.17.67.17c.03-.03.06-.06.1-.09s.07-.05.12-.07.1-.04.15-.05.13-.02.2-.02c.12 0 .22.02.3.05s.16.09.21.15.1.14.13.24.04.19.04.31-.01.22-.03.31-.06.17-.11.24z"/></symbol>
<symbol id="games" viewBox="0 0 24 24"><path d="M0 0h24v24H0V0z" fill="none"/><path d="M11 17.33V20h2v-2.67l-1-1zm2-10.66V4h-2v2.67l1 1zM16.33 12l1 1H20v-2h-2.67zM4 11v2h2.67l1-1-1-1z" opacity=".3"/><path d="M2 9v6h5.5l3-3-3-3H2zm4.67 4H4v-2h2.67l1 1-1 1zM22 9h-5.5l-3 3 3 3H22V9zm-2 4h-2.67l-1-1 1-1H20v2zm-5 3.5l-3-3-3 3V22h6v-5.5zM13 20h-2v-2.67l1-1 1 1V20zM9 7.5l3 3 3-3V2H9v5.5zM11 4h2v2.67l-1 1-1-1V4z"/></symbol>
<symbol id="hd" viewBox="0 0 24 24"><path d="M0 0h24v24H0V0z" fill="none"/><path d="M14.5 10.5h2v3h-2zM19 5H5v14h14V5zm-8 10H9.5v-2h-2v2H6V9h1.5v2.5h2V9H11v6zm7-1c0 .55-.45 1-1 1h-4V9h4c.55 0 1 .45 1 1v4z" opacity=".3"/><path d="M5 21h14c1.1 0 2-.9 2-2V5c0-1.1-.9-2-2-2H5c-1.11 0-2 .9-2 2v14c0 1.1.89 2 2 2zM5 5h14v14H5V5zm4.5 6.5h-2V9H6v6h1.5v-2h2v2H11V9H9.5zM17 9h-4v6h4c.55 0 1-.45 1-1v-4c0-.55-.45-1-1-1zm-.5 4.5h-2v-3h2v3z"/></symbol>
<symbol id="hearing" viewBox="0 0 24 24"><path d="M0 0h24v24H0V0z" fill="none"/><path d="M7.64 2.64L6.22 1.22C4.23 3.21 3 5.96 3 9s1.23 5.79 3.22 7.78l1.41-1.41C6.01 13.74 5 11.49 5 9s1.01-4.74 2.64-6.36z"/><circle cx="14" cy="9" r="2.5"/><path d="M17 20c-.29 0-.56-.06-.76-.15-.71-.37-1.21-.88-1.71-2.38-.51-1.56-1.47-2.29-2.39-3-.79-.61-1.61-1.24-2.32-2.53C9.29 10.98 9 9.93 9 9c0-2.8 2.2-5 5-5s5 2.2 5 5h2c0-3.93-3.07-7-7-7S7 5.07 7 9c0 1.26.38 2.65 1.07 3.9.91 1.65 1.98 2.48 2.85 3.15.81.62 1.39 1.07 1.71 2.05.6 1.82 1.37 2.84 2.73 3.55.51.23 1.07.35 1.64.35 2.21 0 4-1.79 4-4h-2c0 1.1-.9 2-2 2z"/></symbol>
<symbol id="hearing_disabled" viewBox="0 0 24 24"><g><rect fill="none" height="24" width="24"/><path d="M6.03,3.2C7.15,2.44,8.51,2,10,2c3.93,0,7,3.07,7,7c0,1.26-0.38,2.65-1.07,3.9c-0.02,0.04-0.05,0.08-0.08,0.13l-1.48-1.48 C14.77,10.69,15,9.8,15,9c0-2.8-2.2-5-5-5C9.08,4,8.24,4.26,7.5,4.67L6.03,3.2z M17.21,14.38l1.43,1.43C20.11,13.93,21,11.57,21,9 c0-3.04-1.23-5.79-3.22-7.78l-1.42,1.42C17.99,4.26,19,6.51,19,9C19,11.02,18.33,12.88,17.21,14.38z M10,6.5 c-0.21,0-0.4,0.03-0.59,0.08l3.01,3.01C12.47,9.4,12.5,9.21,12.5,9C12.5,7.62,11.38,6.5,10,6.5z M21.19,21.19L2.81,2.81L1.39,4.22 l2.13,2.13C3.19,7.16,3,8.05,3,9h2c0-0.36,0.05-0.71,0.12-1.05l6.61,6.61c-0.88,0.68-1.78,1.41-2.27,2.9c-0.5,1.5-1,2.01-1.71,2.38 C7.56,19.94,7.29,20,7,20c-1.1,0-2-0.9-2-2H3c0,2.21,1.79,4,4,4c0.57,0,1.13-0.12,1.64-0.35c1.36-0.71,2.13-1.73,2.73-3.55 c0.32-0.98,0.9-1.43,1.71-2.05c0.03-0.02,0.05-0.04,0.08-0.06l6.62,6.62L21.19,21.19z"/></g></symbol>
<symbol id="high_quality" viewBox="0 0 24 24"><path d="M0 0h24v24H0V0z" fill="none"/><path d="M19 6H5v12h14V6zm-8 9H9.5v-2h-2v2H6V9h1.5v2.5h2V9H11v6zm7-1c0 .55-.45 1-1 1h-.75v1.5h-1.5V15H14c-.55 0-1-.45-1-1v-4c0-.55.45-1 1-1h3c.55 0 1 .45 1 1v4zm-3.5-3.5h2v3h-2z" opacity=".3"/><path d="M3 6v12c0 1.1.89 2 2 2h14c1.1 0 2-.9 2-2V6c0-1.1-.9-2-2-2H5c-1.11 0-2 .9-2 2zm2 0h14v12H5V6zm4.5 5.5h-2V9H6v6h1.5v-2h2v2H11V9H9.5zM17 9h-3c-.55 0-1 .45-1 1v4c0 .55.45 1 1 1h.75v1.5h1.5V15H17c.55 0 1-.45 1-1v-4c0-.55-.45-1-1-1zm-.5 4.5h-2v-3h2v3z"/></symbol>
<symbol id="library_add" viewBox="0 0 24 24"><path d="M0 0h24v24H0V0z" fill="none"/><path d="M8 16h12V4H8v12zm2-7h3V6h2v3h3v2h-3v3h-2v-3h-3V9z" opacity=".3"/><path d="M4 22h14v-2H4V6H2v14c0 1.1.9 2 2 2zM8 2c-1.1 0-2 .9-2 2v12c0 1.1.9 2 2 2h12c1.1 0 2-.9 2-2V4c0-1.1-.9-2-2-2H8zm12 14H8V4h12v12zm-7-2h2v-3h3V9h-3V6h-2v3h-3v2h3z"/></symbol>
<symbol id="library_add_check" viewBox="0 0 24 24"><g><g><path d="M8,16h12V4H8V16z M10.4,9.09l2.07,2.08L17.6,6L19,7.41L12.47,14L9,10.5L10.4,9.09z" opacity=".3"/><path d="M20,2H8C6.9,2,6,2.9,6,4v12c0,1.1,0.9,2,2,2h12c1.1,0,2-0.9,2-2V4C22,2.9,21.1,2,20,2z M20,16H8V4h12V16z M12.47,14 L9,10.5l1.4-1.41l2.07,2.08L17.6,6L19,7.41L12.47,14z M4,20h14v2H4c-1.1,0-2-0.9-2-2V6h2V20z"/></g><path d="M0,0h24v24H0V0z" fill="none"/></g></symbol>
<symbol id="library_books" viewBox="0 0 24 24"><path d="M0 0h24v24H0V0z" fill="none"/><path d="M8 16h12V4H8v12zm2-10h8v2h-8V6zm0 3h8v2h-8V9zm0 3h4v2h-4v-2z" opacity=".3"/><path d="M4 22h14v-2H4V6H2v14c0 1.1.9 2 2 2zM6 4v12c0 1.1.9 2 2 2h12c1.1 0 2-.9 2-2V4c0-1.1-.9-2-2-2H8c-1.1 0-2 .9-2 2zm14 12H8V4h12v12zM10 9h8v2h-8zm0 3h4v2h-4zm0-6h8v2h-8z"/></symbol>
<symbol id="library_music" viewBox="0 0 24 24"><path d="M0 0h24v24H0V0z" fill="none"/><path d="M8 16h12V4H8v12zm4.5-6c.57 0 1.08.19 1.5.51V5h4v2h-3v5.5c0 1.38-1.12 2.5-2.5 2.5S10 13.88 10 12.5s1.12-2.5 2.5-2.5z" opacity=".3"/><path d="M20 2H8c-1.1 0-2 .9-2 2v12c0 1.1.9 2 2 2h12c1.1 0 2-.9 2-2V4c0-1.1-.9-2-2-2zm0 14H8V4h12v12zm-7.5-1c1.38 0 2.5-1.12 2.5-2.5V7h3V5h-4v5.51c-.42-.32-.93-.51-1.5-.51-1.38 0-2.5 1.12-2.5 2.5s1.12 2.5 2.5 2.5zM2 6v14c0 1.1.9 2 2 2h14v-2H4V6H2z"/></symbol>
<symbol id="loop" viewBox="0 0 24 24"><path d="M0 0h24v24H0V0z" fill="none"/><path d="M12 18c-3.31 0-6-2.69-6-6 0-1.01.25-1.97.7-2.8L5.24 7.74C4.46 8.97 4 10.43 4 12c0 4.42 3.58 8 8 8v3l4-4-4-4v3zm0-14V1L8 5l4 4V6c3.31 0 6 2.69 6 6 0 1.01-.25 1.97-.7 2.8l1.46 1.46C19.54 15.03 20 13.57 20 12c0-4.42-3.58-8-8-8z"/></symbol>
<symbol id="mic" viewBox="0 0 24 24"><g><rect fill="none" height="24" width="24"/><rect fill="none" height="24" width="24"/><rect fill="none" height="24" width="24"/></g><g><g/><g><path d="M12,12c0.55,0,1-0.45,1-1V5c0-0.55-0.45-1-1-1s-1,0.45-1,1v6C11,11.55,11.45,12,12,12z" opacity=".3"/><path d="M12,14c1.66,0,3-1.34,3-3V5c0-1.66-1.34-3-3-3S9,3.34,9,5v6C9,12.66,10.34,14,12,14z M11,5c0-0.55,0.45-1,1-1s1,0.45,1,1 v6c0,0.55-0.45,1-1,1s-1-0.45-1-1V5z"/><path d="M17,11c0,2.76-2.24,5-5,5s-5-2.24-5-5H5c0,3.53,2.61,6.43,6,6.92V21h2v-3.08c3.39-0.49,6-3.39,6-6.92H17z"/></g></g></symbol>
<symbol id="mic_none" viewBox="0 0 24 24"><path d="M0 0h24v24H0V0z" fill="none"/><path d="M12 12c.55 0 1-.45 1-1V5c0-.55-.45-1-1-1s-1 .45-1 1v6c0 .55.45 1 1 1z" opacity=".3"/><path d="M12 14c1.66 0 3-1.34 3-3V5c0-1.66-1.34-3-3-3S9 3.34 9 5v6c0 1.66 1.34 3 3 3zm-1-9c0-.55.45-1 1-1s1 .45 1 1v6c0 .55-.45 1-1 1s-1-.45-1-1V5zm6 6c0 2.76-2.24 5-5 5s-5-2.24-5-5H5c0 3.53 2.61 6.43 6 6.92V21h2v-3.08c3.39-.49 6-3.39 6-6.92h-2z"/></symbol>
<symbol id="mic_off" viewBox="0 0 24 24"><path d="M0 0h24v24H0V0z" fill="none"/><path d="M12 3.7c-.66 0-1.2.54-1.2 1.2v1.51l2.39 2.39.01-3.9c0-.66-.54-1.2-1.2-1.2z" opacity=".3"/><path d="M19 11h-1.7c0 .58-.1 1.13-.27 1.64l1.27 1.27c.44-.88.7-1.87.7-2.91zM4.41 2.86L3 4.27l6 6V11c0 1.66 1.34 3 3 3 .23 0 .44-.03.65-.08l1.66 1.66c-.71.33-1.5.52-2.31.52-2.76 0-5.3-2.1-5.3-5.1H5c0 3.41 2.72 6.23 6 6.72V21h2v-3.28c.91-.13 1.77-.45 2.55-.9l4.2 4.2 1.41-1.41L4.41 2.86zM10.8 4.9c0-.66.54-1.2 1.2-1.2s1.2.54 1.2 1.2l-.01 3.91L15 10.6V5c0-1.66-1.34-3-3-3-1.54 0-2.79 1.16-2.96 2.65l1.76 1.76V4.9z"/></symbol>
<symbol id="missed_video_call" viewBox="0 0 24 24"><path d="M0 0h24v24H0V0z" fill="none"/><path d="M15 13.5V8H5v8h10v-2.5zM11 15l-3.89-3.89v2.55H6V9.22h4.44v1.11H7.89l3.11 3.1 2.99-3.01.78.79L11 15z" opacity=".3"/><path d="M3 17c0 .55.45 1 1 1h12c.55 0 1-.45 1-1v-3.5l4 4v-11l-4 4V7c0-.55-.45-1-1-1H4c-.55 0-1 .45-1 1v10zm2-9h10v8H5V8zm6 5.43l-3.11-3.1h2.55V9.22H6v4.44h1.11v-2.55L11 15l3.77-3.79-.78-.79z"/></symbol>
<symbol id="movie" viewBox="0 0 24 24"><path d="M0 0h24v24H0V0z" fill="none"/><path d="M20 10H5.76L4 6.47V18h16z" opacity=".3"/><path d="M2.01 6L2 18c0 1.1.9 2 2 2h16c1.1 0 2-.9 2-2V4h-4l2 4h-3l-2-4h-2l2 4h-3l-2-4H8l2 4H7L5 4H4c-1.1 0-1.99.9-1.99 2zM4 6.47L5.76 10H20v8H4V6.47z"/></symbol>
<symbol id="music_video" viewBox="0 0 24 24"><path d="M0 0h24v24H0V0z" fill="none"/><path d="M3 19h18V5H3v14zm8-7c.35 0 .69.07 1 .18V6h5v2h-3v7.03c-.02 1.64-1.35 2.97-3 2.97-1.66 0-3-1.34-3-3s1.34-3 3-3z" opacity=".3"/><path d="M21 3H3c-1.1 0-2 .9-2 2v14c0 1.1.9 2 2 2h18c1.1 0 2-.9 2-2V5c0-1.1-.9-2-2-2zm0 16H3V5h18v14zm-10-1c1.65 0 2.98-1.33 3-2.97V8h3V6h-5v6.18c-.31-.11-.65-.18-1-.18-1.66 0-3 1.34-3 3s1.34 3 3 3z"/></symbol>
<symbol id="new_releases" viewBox="0 0 24 24"><path d="M0 0h24v24H0V0z" fill="none"/><path d="M18.49 9.89l.26-2.79-2.74-.62-1.43-2.41L12 5.18 9.42 4.07 7.99 6.48l-2.74.62.26 2.78L3.66 12l1.85 2.11-.26 2.8 2.74.62 1.43 2.41L12 18.82l2.58 1.11 1.43-2.41 2.74-.62-.26-2.79L20.34 12l-1.85-2.11zM13 17h-2v-2h2v2zm0-4h-2V7h2v6z" opacity=".3"/><path d="M20.9 5.54l-3.61-.82-1.89-3.18L12 3 8.6 1.54 6.71 4.72l-3.61.81.34 3.68L1 12l2.44 2.78-.34 3.69 3.61.82 1.89 3.18L12 21l3.4 1.46 1.89-3.18 3.61-.82-.34-3.68L23 12l-2.44-2.78.34-3.68zM18.75 16.9l-2.74.62-1.43 2.41L12 18.82l-2.58 1.11-1.43-2.41-2.74-.62.26-2.8L3.66 12l1.85-2.12-.26-2.78 2.74-.61 1.43-2.41L12 5.18l2.58-1.11 1.43 2.41 2.74.62-.26 2.79L20.34 12l-1.85 2.11.26 2.79zM11 15h2v2h-2zm0-8h2v6h-2z"/></symbol>
<symbol id="note" viewBox="0 0 24 24"><path d="M0 0h24v24H0V0z" fill="none"/><path d="M15 6H4v12.01h16V11h-5z" opacity=".3"/><path d="M4 4c-1.1 0-2 .9-2 2v12.01c0 1.1.9 1.99 2 1.99h16c1.1 0 2-.9 2-2v-8l-6-6H4zm16 14.01H4V6h11v5h5v7.01z"/></symbol>
<symbol id="not_interested" viewBox="0 0 24 24"><path d="M0 0h24v24H0V0z" fill="none"/><path d="M12 22c5.52 0 10-4.48 10-10S17.52 2 12 2 2 6.48 2 12s4.48 10 10 10zm0-18c4.42 0 8 3.58 8 8 0 1.85-.63 3.55-1.69 4.9L7.1 5.69C8.45 4.63 10.15 4 12 4zM5.69 7.1L16.9 18.31C15.55 19.37 13.85 20 12 20c-4.42 0-8-3.58-8-8 0-1.85.63-3.55 1.69-4.9z"/></symbol>
<symbol id="pause" viewBox="0 0 24 24"><path d="M0 0h24v24H0V0z" fill="none"/><path d="M6 5h4v14H6zm8 0h4v14h-4z"/></symbol>
<symbol id="pause_circle_filled" viewBox="0 0 24 24"><g><rect fill="none" height="24" width="24"/><rect fill="none" height="24" width="24"/><rect fill="none" height="24" width="24"/></g><g><g/><g><path d="M12,4c-4.41,0-8,3.59-8,8c0,4.41,3.59,8,8,8s8-3.59,8-8C20,7.59,16.41,4,12,4z M11,16H9V8h2V16z M15,16h-2 V8h2V16z" opacity=".3"/><rect height="8" width="2" x="13" y="8"/><rect height="8" width="2" x="9" y="8"/><path d="M12,2C6.48,2,2,6.48,2,12c0,5.52,4.48,10,10,10s10-4.48,10-10C22,6.48,17.52,2,12,2z M12,20c-4.41,0-8-3.59-8-8 c0-4.41,3.59-8,8-8s8,3.59,8,8C20,16.41,16.41,20,12,20z"/></g></g></symbol>
<symbol id="pause_circle_outline" viewBox="0 0 24 24"><path d="M0 0h24v24H0V0z" fill="none"/><path d="M13 8h2v8h-2zM9 8h2v8H9zm3 14c5.52 0 10-4.48 10-10S17.52 2 12 2 2 6.48 2 12s4.48 10 10 10zm0-18c4.41 0 8 3.59 8 8s-3.59 8-8 8-8-3.59-8-8 3.59-8 8-8z"/></symbol>
<symbol id="playlist_add" viewBox="0 0 24 24"><path d="M0 0h24v24H0V0z" fill="none"/><path d="M2 14h8v2H2zm0-4h12v2H2zm0-4h12v2H2zm16 4h-2v4h-4v2h4v4h2v-4h4v-2h-4z"/></symbol>
<symbol id="playlist_add_check" viewBox="0 0 24 24"><path d="M0 0h24v24H0V0z" fill="none"/><path d="M2 6h12v2H2zm0 4h12v2H2zm0 4h8v2H2zm14.01 3L13 14l-1.5 1.5 4.51 4.5L23 13l-1.5-1.5z"/></symbol>
<symbol id="playlist_play" viewBox="0 0 24 24"><path d="M0 0h24v24H0V0z" fill="none"/><path d="M4 10h12v2H4zm0-4h12v2H4zm0 8h8v2H4zm10 6l5-3-5-3z"/></symbol>
<symbol id="play_arrow" viewBox="0 0 24 24"><path d="M0 0h24v24H0V0z" fill="none"/><path d="M10 8.64v6.72L15.27 12z" opacity=".3"/><path d="M8 19l11-7L8 5v14zm2-10.36L15.27 12 10 15.36V8.64z"/></symbol>
<symbol id="play_circle_filled" viewBox="0 0 24 24"><path d="M0 0h24v24H0V0z" fill="none"/><path d="M12 20c4.41 0 8-3.59 8-8s-3.59-8-8-8-8 3.59-8 8 3.59 8 8 8zM10 7.5l6 4.5-6 4.5v-9z" opacity=".3"/><path d="M12 22c5.52 0 10-4.48 10-10S17.52 2 12 2 2 6.48 2 12s4.48 10 10 10zm0-18c4.41 0 8 3.59 8 8s-3.59 8-8 8-8-3.59-8-8 3.59-8 8-8zm-2 3.5v9l6-4.5z"/></symbol>
<symbol id="play_circle_outline" viewBox="0 0 24 24"><path d="M0 0h24v24H0V0z" fill="none"/><path d="M10 16.5l6-4.5-6-4.5zM12 2C6.48 2 2 6.48 2 12s4.48 10 10 10 10-4.48 10-10S17.52 2 12 2zm0 18c-4.41 0-8-3.59-8-8s3.59-8 8-8 8 3.59 8 8-3.59 8-8 8z"/></symbol>
<symbol id="queue" viewBox="0 0 24 24"><path d="M0 0h24v24H0V0z" fill="none"/><path d="M8 16h12V4H8v12zm1-7h4V5h2v4h4v2h-4v4h-2v-4H9V9z" opacity=".3"/><path d="M2 20c0 1.1.9 2 2 2h14v-2H4V6H2v14zM20 2H8c-1.1 0-2 .9-2 2v12c0 1.1.9 2 2 2h12c1.1 0 2-.9 2-2V4c0-1.1-.9-2-2-2zm0 14H8V4h12v12zm-7-1h2v-4h4V9h-4V5h-2v4H9v2h4z"/></symbol>
<symbol id="queue_music" viewBox="0 0 24 24"><g><rect fill="none" height="24" width="24"/><rect fill="none" height="24" width="24"/><rect fill="none" height="24" width="24"/></g><g><g/><g><circle cx="16" cy="17" opacity=".3" r="1"/><rect height="2" width="12" x="3" y="10"/><rect height="2" width="8" x="3" y="14"/><rect height="2" width="12" x="3" y="6"/><path d="M17,14.18C16.69,14.07,16.35,14,16,14c-1.66,0-3,1.34-3,3c0,1.66,1.34,3,3,3s3-1.34,3-3V8h3V6h-5V14.18z M16,18 c-0.55,0-1-0.45-1-1c0-0.55,0.45-1,1-1s1,0.45,1,1C17,17.55,16.55,18,16,18z"/></g></g></symbol>
<symbol id="queue_play_next" viewBox="0 0 24 24"><path d="M0 0h24v24H0V0z" fill="none"/><path d="M13 15v-3h3v-2h-3V7h-2v3H8v2h3v3zm5 0l3 3-3 3 1.5 1.5L24 18l-4.5-4.5zM8 19v2h8v-2h2v-2H3V5h18v8h2V5c0-1.11-.9-2-2-2H3c-1.11 0-2 .89-2 2v12c0 1.1.89 2 2 2h5z"/></symbol>
<symbol id="radio" viewBox="0 0 24 24"><path d="M0 0h24v24H0V0z" fill="none"/><path d="M20 13H4v7h16v-7zM8 18.98c-1.38 0-2.5-1.12-2.5-2.5s1.12-2.5 2.5-2.5 2.5 1.12 2.5 2.5-1.12 2.5-2.5 2.5z" opacity=".3"/><path d="M2 20c0 1.1.89 2 2 2h16c1.11 0 2-.9 2-2V8c0-1.11-.89-2-2-2H8.3l8.26-3.34L15.88 1 3.24 6.15C2.51 6.43 2 7.17 2 8v12zM4 8h16v3h-2V9h-2v2H4V8zm0 5h16v7H4v-7z"/><circle cx="8" cy="16.48" r="2.5"/></symbol>
<symbol id="recent_actors" viewBox="0 0 24 24"><path d="M0 0h24v24H0V0z" fill="none"/><path d="M13 7H3v10h10V7zM8 8c1.07 0 1.95.87 1.95 1.95 0 1.07-.87 1.95-1.95 1.95s-1.95-.87-1.95-1.95S6.93 8 8 8zm3.89 8H4.11v-.65c0-1.3 2.59-1.95 3.89-1.95s3.89.65 3.89 1.95V16z" opacity=".3"/><path d="M21 5h2v14h-2zm-4 0h2v14h-2zm-3 14c.55 0 1-.45 1-1V6c0-.55-.45-1-1-1H2c-.55 0-1 .45-1 1v12c0 .55.45 1 1 1h12zM3 7h10v10H3V7z"/><circle cx="8" cy="9.94" r="1.95"/><path d="M8 13.4c-1.3 0-3.89.65-3.89 1.95V16h7.78v-.65c0-1.3-2.59-1.95-3.89-1.95z"/></symbol>
<symbol id="remove_from_queue" viewBox="0 0 24 24"><path d="M0 0h24v24H0V0z" fill="none"/><path d="M3 17h18V5H3v12zm5-7h8v2H8v-2z" opacity=".3"/><path d="M21 3H3c-1.11 0-2 .89-2 2v12c0 1.1.89 2 2 2h5v2h8v-2h5c1.1 0 2-.9 2-2V5c0-1.11-.9-2-2-2zm0 14H3V5h18v12zM8 10h8v2H8z"/></symbol>
<symbol id="repeat" viewBox="0 0 24 24"><path d="M0 0h24v24H0V0z" fill="none"/><path d="M7 22v-3h12v-6h-2v4H7v-3l-4 4zM21 6l-4-4v3H5v6h2V7h10v3z"/></symbol>
<symbol id="repeat_one" viewBox="0 0 24 24"><path d="M0 0h24v24H0V0z" fill="none"/><path d="M13 15V9h-1l-2 1v1h1.5v4zm6-2h-2v4H7v-3l-4 4 4 4v-3h12zM17 2v3H5v6h2V7h10v3l4-4z"/></symbol>
<symbol id="replay" viewBox="0 0 24 24"><g><rect fill="none" height="24" width="24"/><rect fill="none" height="24" width="24"/><rect fill="none" height="24" width="24"/></g><g><g/><path d="M7,6l5,5V7c3.31,0,6,2.69,6,6s-2.69,6-6,6s-6-2.69-6-6H4c0,4.42,3.58,8,8,8s8-3.58,8-8c0-4.42-3.58-8-8-8V1L7,6z"/></g></symbol>
<symbol id="replay_10" viewBox="0 0 24 24"><path d="M0 0h24v24H0V0z" fill="none"/><path d="M11.99 5V1l-5 5 5 5V7c3.31 0 6 2.69 6 6s-2.69 6-6 6-6-2.69-6-6h-2c0 4.42 3.58 8 8 8s8-3.58 8-8-3.58-8-8-8zm-1.1 11h-.85v-3.26l-1.01.31v-.69l1.77-.63h.09V16zm4.28-1.76c0 .32-.03.6-.1.82s-.17.42-.29.57-.28.26-.45.33-.37.1-.59.1-.41-.03-.59-.1-.33-.18-.46-.33-.23-.34-.3-.57-.11-.5-.11-.82v-.74c0-.32.03-.6.1-.82s.17-.42.29-.57.28-.26.45-.33.37-.1.59-.1.41.03.59.1.33.18.46.33.23.34.3.57.11.5.11.82v.74zm-.85-.86c0-.19-.01-.35-.04-.48s-.07-.23-.12-.31-.11-.14-.19-.17-.16-.05-.25-.05-.18.02-.25.05-.14.09-.19.17-.09.18-.12.31-.04.29-.04.48v.97c0 .19.01.35.04.48s.07.24.12.32.11.14.19.17.16.05.25.05.18-.02.25-.05.14-.09.19-.17.09-.19.11-.32.04-.29.04-.48v-.97z"/></symbol>
<symbol id="replay_30" viewBox="0 0 24 24"><path d="M0 0h24v24H0V0z" fill="none"/><path d="M12 5V1L7 6l5 5V7c3.31 0 6 2.69 6 6s-2.69 6-6 6-6-2.69-6-6H4c0 4.42 3.58 8 8 8s8-3.58 8-8-3.58-8-8-8zm-2.44 8.49h.45c.21 0 .37-.05.48-.16s.16-.25.16-.43c0-.08-.01-.15-.04-.22s-.06-.12-.11-.17-.11-.09-.18-.11-.16-.04-.25-.04c-.08 0-.15.01-.22.03s-.13.05-.18.1-.09.09-.12.15-.05.13-.05.2h-.85c0-.18.04-.34.11-.48s.17-.27.3-.37.27-.18.44-.23.35-.08.54-.08c.21 0 .41.03.59.08s.33.13.46.23.23.23.3.38.11.33.11.53c0 .09-.01.18-.04.27s-.07.17-.13.25-.12.15-.2.22-.17.12-.28.17c.24.09.42.21.54.39s.18.38.18.61c0 .2-.04.38-.12.53s-.18.29-.32.39-.29.19-.48.24-.38.08-.6.08c-.18 0-.36-.02-.53-.07s-.33-.12-.46-.23-.25-.23-.33-.38-.12-.34-.12-.55h.85c0 .08.02.15.05.22s.07.12.13.17.12.09.2.11.16.04.25.04c.1 0 .19-.01.27-.04s.15-.07.2-.12.1-.11.13-.18.04-.15.04-.24c0-.11-.02-.21-.05-.29s-.08-.15-.14-.2-.13-.09-.22-.11-.18-.04-.29-.04h-.47v-.65zm5.74.75c0 .32-.03.6-.1.82s-.17.42-.29.57-.28.26-.45.33-.37.1-.59.1-.41-.03-.59-.1-.33-.18-.46-.33-.23-.34-.3-.57-.11-.5-.11-.82v-.74c0-.32.03-.6.1-.82s.17-.42.29-.57.28-.26.45-.33.37-.1.59-.1.41.03.59.1.33.18.46.33.23.34.3.57.11.5.11.82v.74zm-.85-.86c0-.19-.01-.35-.04-.48s-.07-.23-.12-.31-.11-.14-.19-.17-.16-.05-.25-.05-.18.02-.25.05-.14.09-.19.17-.09.18-.12.31-.04.29-.04.48v.97c0 .19.01.35.04.48s.07.24.12.32.11.14.19.17.16.05.25.05.18-.02.25-.05.14-.09.19-.17.09-.19.11-.32c.03-.13.04-.29.04-.48v-.97z"/></symbol>
<symbol id="replay_5" viewBox="0 0 24 24"><path d="M0 0h24v24H0V0z" fill="none"/><path d="M12 5V1L7 6l5 5V7c3.31 0 6 2.69 6 6s-2.69 6-6 6-6-2.69-6-6H4c0 4.42 3.58 8 8 8s8-3.58 8-8-3.58-8-8-8zm-1.31 8.9l.25-2.17h2.39v.71h-1.7l-.11.92c.03-.02.07-.03.11-.05s.09-.04.15-.05.12-.03.18-.04.13-.02.2-.02c.21 0 .39.03.55.1s.3.16.41.28.2.27.25.45.09.38.09.6c0 .19-.03.37-.09.54s-.15.32-.27.45-.27.24-.45.31-.39.12-.64.12c-.18 0-.36-.03-.53-.08s-.32-.14-.46-.24-.24-.24-.32-.39-.13-.33-.13-.53h.84c.02.18.08.32.19.41s.25.15.42.15c.11 0 .2-.02.27-.06s.14-.1.18-.17.08-.15.11-.25.03-.2.03-.31-.01-.21-.04-.31-.07-.17-.13-.24-.13-.12-.21-.15-.19-.05-.3-.05c-.08 0-.15.01-.2.02s-.11.03-.15.05-.08.05-.12.07-.07.06-.1.09l-.67-.16z"/></symbol>
<symbol id="shuffle" viewBox="0 0 24 24"><path d="M0 0h24v24H0V0z" fill="none"/><path d="M20 4h-5.5l2.04 2.04L4 18.59 5.41 20 17.96 7.46 20 9.5zM5.41 4L4 5.41l5.17 5.17 1.42-1.41zM20 20v-5.5l-2.04 2.04-3.13-3.13-1.41 1.41 3.13 3.13L14.5 20z"/></symbol>
<symbol id="skip_next" viewBox="0 0 24 24"><path d="M0 0h24v24H0V0z" fill="none"/><path d="M8 9.86v4.28L11.03 12z" opacity=".3"/><path d="M14.5 12L6 6v12l8.5-6zM8 9.86L11.03 12 8 14.14V9.86zM16 6h2v12h-2z"/></symbol>
<symbol id="skip_previous" viewBox="0 0 24 24"><path d="M0 0h24v24H0V0z" fill="none"/><path d="M16 14.14V9.86L12.97 12z" opacity=".3"/><path d="M6 6h2v12H6zm12 12V6l-8.5 6 8.5 6zm-2-3.86L12.97 12 16 9.86v4.28z"/></symbol>
<symbol id="slow_motion_video" viewBox="0 0 24 24"><path d="M0 0h24v24H0V0z" fill="none"/><path d="M4.26 18.32l1.43-1.43c-.86-1.1-1.44-2.43-1.62-3.89H2.05c.2 2.01 1 3.84 2.21 5.32zM7.1 5.69c1.11-.86 2.44-1.44 3.9-1.62V2.05c-2.01.2-3.84 1-5.32 2.21L7.1 5.69zM2.05 11h2.02c.18-1.46.76-2.79 1.62-3.9L4.26 5.68C3.05 7.16 2.25 8.99 2.05 11zm11-8.95v2.02C16.97 4.59 20 7.95 20 12s-3.03 7.41-6.95 7.93v2.02C18.08 21.42 22 17.16 22 12c0-5.16-3.92-9.42-8.95-9.95zM16 12l-2.95-2.21L10 7.5v9l3.05-2.29zM5.68 19.74C7.16 20.95 9 21.75 11 21.95v-2.02c-1.46-.18-2.79-.76-3.9-1.62l-1.42 1.43z"/></symbol>
<symbol id="snooze" viewBox="0 0 24 24"><path d="M0 0h24v24H0V0z" fill="none"/><path d="M9 11h3.63L9 15.2V17h6v-2h-3.63L15 10.8V9H9zm8.337-9.19l4.607 3.845-1.28 1.535-4.61-3.843zm-10.674 0l1.282 1.536L3.337 7.19l-1.28-1.536zM12 4c-4.97 0-9 4.03-9 9s4.03 9 9 9 9-4.03 9-9-4.03-9-9-9zm0 16c-3.86 0-7-3.14-7-7s3.14-7 7-7 7 3.14 7 7-3.14 7-7 7z"/></symbol>
<symbol id="sort_by_alpha" viewBox="0 0 24 24"><path d="M0 0h24v24H0V0z" fill="none"/><path d="M14.94 4.66L12.58 2.3l-2.36 2.36zm-4.55 13.07h1.84L7.74 6.27H6.1L1.6 17.73h1.84l.92-2.45h5.11l.92 2.45zm-5.42-4.09l1.94-5.18 1.94 5.18H4.97zm7.61 8.06l2.33-2.33h-4.66zm9.08-14.16V6.28h-8.3v1.6h5.88l-5.92 8.56v1.29h8.53v-1.59h-6.12z"/></symbol>
<symbol id="speed" viewBox="0 0 24 24"><path d="M0 0h24v24H0z" fill="none"/><path d="M20.38 8.57l-1.23 1.85a8 8 0 0 1-.22 7.58H5.07A8 8 0 0 1 15.58 6.85l1.85-1.23A10 10 0 0 0 3.35 19a2 2 0 0 0 1.72 1h13.85a2 2 0 0 0 1.74-1 10 10 0 0 0-.27-10.44z"/><path d="M10.59 15.41a2 2 0 0 0 2.83 0l5.66-8.49-8.49 5.66a2 2 0 0 0 0 2.83z"/></symbol>
<symbol id="stop" viewBox="0 0 24 24"><path d="M0 0h24v24H0V0z" fill="none"/><path d="M8 8h8v8H8z" opacity=".3"/><path d="M6 18h12V6H6v12zM8 8h8v8H8V8z"/></symbol>
<symbol id="stop_circle" viewBox="0 0 24 24"><g><rect fill="none" height="24" width="24"/></g><g><g><path d="M12,4c-4.41,0-8,3.59-8,8c0,4.41,3.59,8,8,8c4.41,0,8-3.59,8-8C20,7.59,16.41,4,12,4z M16,16H8V8h8V16z" opacity=".3"/><rect height="8" width="8" x="8" y="8"/><path d="M12,2C6.48,2,2,6.48,2,12s4.48,10,10,10s10-4.48,10-10S17.52,2,12,2z M12,20c-4.41,0-8-3.59-8-8c0-4.41,3.59-8,8-8 c4.41,0,8,3.59,8,8C20,16.41,16.41,20,12,20z"/></g></g></symbol>
<symbol id="subscriptions" viewBox="0 0 24 24"><path d="M0 0h24v24H0V0z" fill="none"/><path d="M4 20h16v-8H4v8zm6-7.27L16 16l-6 3.26v-6.53z" opacity=".3"/><path d="M4 6h16v2H4zm2-4h12v2H6zm14 8H4c-1.1 0-2 .9-2 2v8c0 1.1.9 2 2 2h16c1.1 0 2-.9 2-2v-8c0-1.1-.9-2-2-2zm0 10H4v-8h16v8zm-10-7.27v6.53L16 16z"/></symbol>
<symbol id="subtitles" viewBox="0 0 24 24"><path d="M0 0h24v24H0V0z" fill="none"/><path d="M4 18h16V6H4v12zm14-2h-2v-2h2v2zm-8-6h8v2h-8v-2zm-4 0h2v2H6v-2zm0 4h8v2H6v-2z" opacity=".3"/><path d="M20 4H4c-1.1 0-2 .9-2 2v12c0 1.1.9 2 2 2h16c1.1 0 2-.9 2-2V6c0-1.1-.9-2-2-2zm0 14H4V6h16v12zM6 10h2v2H6zm0 4h8v2H6zm10 0h2v2h-2zm-6-4h8v2h-8z"/></symbol>
<symbol id="surround_sound" viewBox="0 0 24 24"><g><rect fill="none" height="24" width="24"/><rect fill="none" height="24" width="24"/><rect fill="none" height="24" width="24"/></g><g><g/><g><path d="M4,18h16V6H4V18z M16.94,7.06C18.32,8.41,19,10.21,19,12s-0.68,3.59-2.05,4.95l-1.23-1.23 c1.02-1.03,1.53-2.37,1.53-3.72c0-1.35-0.52-2.69-1.54-3.71L16.94,7.06z M12,8.5c1.93,0,3.5,1.57,3.5,3.5c0,1.93-1.57,3.5-3.5,3.5 c-1.93,0-3.5-1.57-3.5-3.5C8.5,10.07,10.07,8.5,12,8.5z M7.05,7.05l1.23,1.23C7.27,9.31,6.75,10.65,6.75,12 c0,1.35,0.52,2.69,1.54,3.71l-1.23,1.23C5.68,15.59,5,13.79,5,12S5.68,8.41,7.05,7.05z" opacity=".3"/><path d="M20,4H4C2.9,4,2,4.9,2,6v12c0,1.1,0.9,2,2,2h16c1.1,0,2-0.9,2-2V6C22,4.9,21.1,4,20,4z M20,18H4V6h16V18z"/><path d="M8.29,15.71C7.27,14.69,6.75,13.35,6.75,12c0-1.35,0.52-2.69,1.53-3.72L7.05,7.05C5.68,8.41,5,10.21,5,12 s0.68,3.59,2.06,4.94L8.29,15.71z"/><path d="M12,15.5c1.93,0,3.5-1.57,3.5-3.5c0-1.93-1.57-3.5-3.5-3.5c-1.93,0-3.5,1.57-3.5,3.5C8.5,13.93,10.07,15.5,12,15.5z M12,10.5c0.83,0,1.5,0.67,1.5,1.5s-0.67,1.5-1.5,1.5s-1.5-0.67-1.5-1.5S11.17,10.5,12,10.5z"/><path d="M15.72,15.72l1.23,1.23C18.32,15.59,19,13.79,19,12s-0.68-3.59-2.06-4.94l-1.23,1.23c1.02,1.02,1.54,2.36,1.54,3.71 C17.25,13.35,16.73,14.69,15.72,15.72z"/></g></g></symbol>
<symbol id="videocam" viewBox="0 0 24 24"><path d="M0 0h24v24H0V0z" fill="none"/><path d="M5 8h10v8H5z" opacity=".3"/><path d="M17 7c0-.55-.45-1-1-1H4c-.55 0-1 .45-1 1v10c0 .55.45 1 1 1h12c.55 0 1-.45 1-1v-3.5l4 4v-11l-4 4V7zm-2 9H5V8h10v8z"/></symbol>
<symbol id="videocam_off" viewBox="0 0 24 24"><path d="M0 0h24v24H0V0z" fill="none"/><path d="M12.39 8L15 10.61V8zM5 8v8h9.73l-8-8z" opacity=".3"/><path d="M3.41 1.86L2 3.27 4.73 6H4c-.55 0-1 .45-1 1v10c0 .55.45 1 1 1h12c.21 0 .39-.08.55-.18L19.73 21l1.41-1.41L3.41 1.86zM5 16V8h1.73l8 8H5zm10-8v2.61l6 6V6.5l-4 4V7c0-.55-.45-1-1-1h-5.61l2 2H15z"/></symbol>
<symbol id="video_call" viewBox="0 0 24 24"><path d="M0 0h24v24H0V0z" fill="none"/><path d="M5 16h10V8H5v8zm2-5h2V9h2v2h2v2h-2v2H9v-2H7v-2z" opacity=".3"/><path d="M17 7c0-.55-.45-1-1-1H4c-.55 0-1 .45-1 1v10c0 .55.45 1 1 1h12c.55 0 1-.45 1-1v-3.5l4 4v-11l-4 4V7zm-2 9H5V8h10v8zm-6-1h2v-2h2v-2h-2V9H9v2H7v2h2z"/></symbol>
<symbol id="video_label" viewBox="0 0 24 24"><path d="M0 0h24v24H0V0z" fill="none"/><path d="M3 5h18v11H3z" opacity=".3"/><path d="M21 3H3c-1.1 0-2 .9-2 2v14c0 1.1.9 2 2 2h18c1.1 0 2-.9 2-2V5c0-1.1-.9-2-2-2zm0 13H3V5h18v11z"/></symbol>
<symbol id="video_library" viewBox="0 0 24 24"><path d="M0 0h24v24H0V0z" fill="none"/><path d="M8 16h12V4H8v12zm4-10.5l6 4.5-6 4.5v-9z" opacity=".3"/><path d="M4 6H2v14c0 1.1.9 2 2 2h14v-2H4V6zm16-4H8c-1.1 0-2 .9-2 2v12c0 1.1.9 2 2 2h12c1.1 0 2-.9 2-2V4c0-1.1-.9-2-2-2zm0 14H8V4h12v12zM12 5.5v9l6-4.5z"/></symbol>
<symbol id="video_settings" viewBox="0 0 24 24"><g><rect fill="none" height="24" width="24"/></g><g><g><path d="M3,6h18v5h2V6c0-1.1-0.9-2-2-2H3C1.9,4,1,4.9,1,6v12c0,1.1,0.9,2,2,2h9v-2H3V6z"/><polygon points="15,12 9,8 9,16"/><path d="M22.71,18.43c0.03-0.29,0.04-0.58,0.01-0.86l1.07-0.85c0.1-0.08,0.12-0.21,0.06-0.32l-1.03-1.79 c-0.06-0.11-0.19-0.15-0.31-0.11L21.23,15c-0.23-0.17-0.48-0.31-0.75-0.42l-0.2-1.36C20.26,13.09,20.16,13,20.03,13h-2.07 c-0.12,0-0.23,0.09-0.25,0.21l-0.2,1.36c-0.26,0.11-0.51,0.26-0.74,0.42l-1.28-0.5c-0.12-0.05-0.25,0-0.31,0.11l-1.03,1.79 c-0.06,0.11-0.04,0.24,0.06,0.32l1.07,0.86c-0.03,0.29-0.04,0.58-0.01,0.86l-1.07,0.85c-0.1,0.08-0.12,0.21-0.06,0.32l1.03,1.79 c0.06,0.11,0.19,0.15,0.31,0.11l1.27-0.5c0.23,0.17,0.48,0.31,0.75,0.42l0.2,1.36c0.02,0.12,0.12,0.21,0.25,0.21h2.07 c0.12,0,0.23-0.09,0.25-0.21l0.2-1.36c0.26-0.11,0.51-0.26,0.74-0.42l1.28,0.5c0.12,0.05,0.25,0,0.31-0.11l1.03-1.79 c0.06-0.11,0.04-0.24-0.06-0.32L22.71,18.43z M19,19.5c-0.83,0-1.5-0.67-1.5-1.5s0.67-1.5,1.5-1.5s1.5,0.67,1.5,1.5 S19.83,19.5,19,19.5z"/></g></g></symbol>
<symbol id="volume_down" viewBox="0 0 24 24"><path d="M0 0h24v24H0V0z" fill="none"/><path d="M7 13h2.83L12 15.17V8.83L9.83 11H7z" opacity=".3"/><path d="M16 7.97v8.05c1.48-.73 2.5-2.25 2.5-4.02 0-1.77-1.02-3.29-2.5-4.03zM5 9v6h4l5 5V4L9 9H5zm7-.17v6.34L9.83 13H7v-2h2.83L12 8.83z"/></symbol>
<symbol id="volume_mute" viewBox="0 0 24 24"><path d="M0 0h24v24H0V0z" fill="none"/><path d="M9 13h2.83L14 15.17V8.83L11.83 11H9z" opacity=".3"/><path d="M7 9v6h4l5 5V4l-5 5H7zm7-.17v6.34L11.83 13H9v-2h2.83L14 8.83z"/></symbol>
<symbol id="volume_off" viewBox="0 0 24 24"><path d="M0 0h24v24H0V0z" fill="none"/><path d="M7.83 11H5v2h2.83L10 15.17v-3.76l-1.29-1.29z" opacity=".3"/><path d="M4.34 2.93L2.93 4.34 7.29 8.7 7 9H3v6h4l5 5v-6.59l4.18 4.18c-.65.49-1.38.88-2.18 1.11v2.06c1.34-.3 2.57-.92 3.61-1.75l2.05 2.05 1.41-1.41L4.34 2.93zM10 15.17L7.83 13H5v-2h2.83l.88-.88L10 11.41v3.76zM19 12c0 .82-.15 1.61-.41 2.34l1.53 1.53c.56-1.17.88-2.48.88-3.87 0-4.28-2.99-7.86-7-8.77v2.06c2.89.86 5 3.54 5 6.71zm-7-8l-1.88 1.88L12 7.76zm4.5 8c0-1.77-1.02-3.29-2.5-4.03v1.79l2.48 2.48c.01-.08.02-.16.02-.24z"/></symbol>
<symbol id="volume_up" viewBox="0 0 24 24"><path d="M0 0h24v24H0V0z" fill="none"/><path d="M5 13h2.83L10 15.17V8.83L7.83 11H5z" opacity=".3"/><path d="M3 9v6h4l5 5V4L7 9H3zm7-.17v6.34L7.83 13H5v-2h2.83L10 8.83zm4-.86v8.05c1.48-.73 2.5-2.25 2.5-4.02 0-1.77-1.02-3.29-2.5-4.03zm0-4.74v2.06c2.89.86 5 3.54 5 6.71s-2.11 5.85-5 6.71v2.06c4.01-.91 7-4.49 7-8.77 0-4.28-2.99-7.86-7-8.77z"/></symbol>
<symbol id="web" viewBox="0 0 24 24"><g><rect fill="none" height="24" width="24"/><rect fill="none" height="24" width="24"/><rect fill="none" height="24" width="24"/></g><g><g/><g><rect height="3.5" opacity=".3" width="10.5" x="4" y="9"/><rect height="3.5" opacity=".3" width="10.5" x="4" y="14.5"/><rect height="9" opacity=".3" width="3.5" x="16.5" y="9"/><path d="M20,4H4C2.9,4,2.01,4.9,2.01,6L2,18c0,1.1,0.9,2,2,2h16c1.1,0,2-0.9,2-2V6C22,4.9,21.1,4,20,4z M14.5,18L4,18v-3.5h10.5 V18z M14.5,12.5H4V9h10.5V12.5z M20,18l-3.5,0V9H20V18z"/></g></g></symbol>
<symbol id="web_asset" viewBox="0 0 24 24"><path d="M0 0h24v24H0V0z" fill="none"/><path d="M5 8h14v10H5z" opacity=".3"/><path d="M19 4H5c-1.11 0-2 .9-2 2v12c0 1.1.89 2 2 2h14c1.1 0 2-.9 2-2V6c0-1.1-.89-2-2-2zm0 14H5V8h14v10z"/></symbol>
</svg>