<svg xmlns="http://www.w3.org/2000/svg">
<symbol id="add" viewBox="0 0 24 24"><path d="M0 0h24v24H0V0z" fill="none"/><path d="M19 13h-6v6h-2v-6H5v-2h6V5h2v6h6v2z"/></symbol>
<symbol id="add_box" viewBox="0 0 24 24"><path d="M0 0h24v24H0V0z" fill="none"/><path d="M5 19h14V5H5v14zm2-8h4V7h2v4h4v2h-4v4h-2v-4H7v-2z" opacity=".3"/><path d="M19 3H5c-1.11 0-2 .9-2 2v14c0 1.1.89 2 2 2h14c1.1 0 2-.9 2-2V5c0-1.1-.9-2-2-2zm0 16H5V5h14v14zm-8-2h2v-4h4v-2h-4V7h-2v4H7v2h4z"/></symbol>
<symbol id="add_circle" viewBox="0 0 24 24"><path d="M0 0h24v24H0V0z" fill="none"/><path d="M12 4c-4.41 0-8 3.59-8 8s3.59 8 8 8 8-3.59 8-8-3.59-8-8-8zm5 9h-4v4h-2v-4H7v-2h4V7h2v4h4v2z" opacity=".3"/><path d="M13 7h-2v4H7v2h4v4h2v-4h4v-2h-4zm-1-5C6.48 2 2 6.48 2 12s4.48 10 10 10 10-4.48 10-10S17.52 2 12 2zm0 18c-4.41 0-8-3.59-8-8s3.59-8 8-8 8 3.59 8 8-3.59 8-8 8z"/></symbol>
<symbol id="add_circle_outline" viewBox="0 0 24 24"><path d="M0 0h24v24H0V0z" fill="none"/><path d="M13 7h-2v4H7v2h4v4h2v-4h4v-2h-4zm-1-5C6.48 2 2 6.48 2 12s4.48 10 10 10 10-4.48 10-10S17.52 2 12 2zm0 18c-4.41 0-8-3.59-8-8s3.59-8 8-8 8 3.59 8 8-3.59 8-8 8z"/></symbol>
<symbol id="amp_stories" viewBox="0 0 24 24"><g><rect fill="none" height="24" width="24"/></g><g><g/><g><g opacity=".3"><rect height="11" width="6" x="9" y="6"/></g><path d="M7,19h10V4H7V19z M9,6h6v11H9V6z"/><rect height="11" width="2" x="3" y="6"/><rect height="11" width="2" x="19" y="6"/></g></g></symbol>
<symbol id="archive" viewBox="0 0 24 24"><path d="M0 0h24v24H0V0z" fill="none"/><path d="M5 19h14V8H5v11zm5.55-6v-3h2.91v3H16l-4 4-4-4h2.55z" opacity=".3"/><path d="M16 13h-2.55v-3h-2.9v3H8l4 4zm4.54-7.77l-1.39-1.68C18.88 3.21 18.47 3 18 3H6c-.47 0-.88.21-1.16.55L3.46 5.23C3.17 5.57 3 6.02 3 6.5V19c0 1.1.9 2 2 2h14c1.1 0 2-.9 2-2V6.5c0-.48-.17-.93-.46-1.27zM6.24 5h11.52l.81.97H5.44l.8-.97zM19 19H5V8h14v11z"/></symbol>
<symbol id="attribution" viewBox="0 0 24 24"><path d="M0 0h24v24H0V0z" fill="none"/><path d="M12 4c-4.42 0-8 3.58-8 8s3.58 8 8 8 8-3.58 8-8-3.58-8-8-8zm0 1c.83 0 1.5.67 1.5 1.5S12.83 8 12 8s-1.5-.67-1.5-1.5S11.17 5 12 5zm2.75 9.5h-1.5V19h-2.5v-4.5h-1.5V9.88c0-.92 1.84-1.38 2.75-1.38s2.75.47 2.75 1.38v4.62z" opacity=".3"/><path d="M12 2C6.47 2 2 6.47 2 12s4.47 10 10 10 10-4.48 10-10S17.52 2 12 2zm0 18c-4.42 0-8-3.58-8-8s3.58-8 8-8 8 3.58 8 8-3.58 8-8 8zm0-11.5c-.91 0-2.75.46-2.75 1.38v4.62h1.5V19h2.5v-4.5h1.5V9.88c0-.91-1.84-1.38-2.75-1.38z"/><circle cx="12" cy="6.5" r="1.5"/></symbol>
<symbol id="backspace" viewBox="0 0 24 24"><path d="M0 0h24v24H0V0z" fill="none"/><path d="M7.06 5L2.4 12l4.67 7H22V5H7.06c.01 0 .01 0 0 0zM9 8.41L10.41 7 14 10.59 17.59 7 19 8.41 15.41 12 19 15.59 17.59 17 14 13.41 10.41 17 9 15.59 12.59 12 9 8.41z" opacity=".3"/><path d="M22 3H7c-.69 0-1.23.35-1.59.88L0 12l5.41 8.11c.36.53.9.89 1.59.89h15c1.1 0 2-.9 2-2V5c0-1.1-.9-2-2-2zm0 16H7.07L2.4 12l4.66-7H22v14zm-11.59-2L14 13.41 17.59 17 19 15.59 15.41 12 19 8.41 17.59 7 14 10.59 10.41 7 9 8.41 12.59 12 9 15.59z"/></symbol>
<symbol id="ballot" viewBox="0 0 24 24"><path d="M0 0h24v24H0V0z" fill="none"/><path d="M7 14h3v3H7zm0-7h3v3H7zM5 19h14V5H5v14zm8-11.5h5v2h-5v-2zm0 7h5v2h-5v-2zM6 6h5v5H6V6zm0 7h5v5H6v-5z" opacity=".3"/><path d="M13 7.5h5v2h-5zm0 7h5v2h-5zM19 3H5c-1.1 0-2 .9-2 2v14c0 1.1.9 2 2 2h14c1.1 0 2-.9 2-2V5c0-1.1-.9-2-2-2zm0 16H5V5h14v14zM11 6H6v5h5V6zm-1 4H7V7h3v3zm1 3H6v5h5v-5zm-1 4H7v-3h3v3z"/></symbol>
<symbol id="biotech" viewBox="0 0 24 24"><g><rect fill="none" height="24" width="24"/></g><g><g><rect height="5" opacity=".3" transform="matrix(0.9397 -0.342 0.342 0.9397 -1.6091 4.9556)" width="1" x="12.75" y="4.54"/><circle cx="10.5" cy="8" opacity=".3" r="1"/><path d="M7,19c-1.1,0-2,0.9-2,2h14c0-1.1-0.9-2-2-2h-4v-2h3c1.1,0,2-0.9,2-2h-8c-1.66,0-3-1.34-3-3c0-1.09,0.59-2.04,1.47-2.57 c0.41,0.59,1.06,1,1.83,1.06c0.7,0.06,1.36-0.19,1.85-0.62l0.59,1.61l0.94-0.34l0.34,0.94l1.88-0.68l-0.34-0.94l0.94-0.34 L13.76,2.6l-0.94,0.34L12.48,2L10.6,2.68l0.34,0.94L10,3.97l0.56,1.55C9.39,5.48,8.37,6.27,8.08,7.38C6.27,8.14,5,9.92,5,12 c0,2.76,2.24,5,5,5v2H7z M12.86,4.52l1.71,4.7l-0.94,0.34l-1.71-4.7L12.86,4.52z M10.5,7c0.55,0,1,0.45,1,1c0,0.55-0.45,1-1,1 c-0.55,0-1-0.45-1-1C9.5,7.45,9.95,7,10.5,7z"/></g></g></symbol>
<symbol id="block" viewBox="0 0 24 24"><path d="M0 0h24v24H0V0z" fill="none"/><path d="M12 2C6.48 2 2 6.48 2 12s4.48 10 10 10 10-4.48 10-10S17.52 2 12 2zM4 12c0-4.42 3.58-8 8-8 1.85 0 3.55.63 4.9 1.69L5.69 16.9C4.63 15.55 4 13.85 4 12zm8 8c-1.85 0-3.55-.63-4.9-1.69L18.31 7.1C19.37 8.45 20 10.15 20 12c0 4.42-3.58 8-8 8z"/></symbol>
<symbol id="calculate" viewBox="0 0 24 24"><g><rect fill="none" height="24" width="24"/></g><g><g><path d="M5,19h14V5H5V19z M13.03,7.06L14.09,6l1.41,1.41L16.91,6l1.06,1.06l-1.41,1.41l1.41,1.41l-1.06,1.06 L15.5,9.54l-1.41,1.41l-1.06-1.06l1.41-1.41L13.03,7.06z M13,13.25h5v1.5h-5V13.25z M13,15.75h5v1.5h-5V15.75z M6.25,7.72h5v1.5 h-5V7.72z M6,14.5h2v-2h1.5v2h2V16h-2v2H8v-2H6V14.5z" opacity=".3"/><path d="M19,3H5C3.9,3,3,3.9,3,5v14c0,1.1,0.9,2,2,2h14c1.1,0,2-0.9,2-2V5C21,3.9,20.1,3,19,3z M19,19H5V5h14V19z"/><rect height="1.5" width="5" x="6.25" y="7.72"/><rect height="1.5" width="5" x="13" y="15.75"/><rect height="1.5" width="5" x="13" y="13.25"/><polygon points="8,18 9.5,18 9.5,16 11.5,16 11.5,14.5 9.5,14.5 9.5,12.5 8,12.5 8,14.5 6,14.5 6,16 8,16"/><polygon points="14.09,10.95 15.5,9.54 16.91,10.95 17.97,9.89 16.56,8.47 17.97,7.06 16.91,6 15.5,7.41 14.09,6 13.03,7.06 14.44,8.47 13.03,9.89"/></g></g></symbol>
<symbol id="clear" viewBox="0 0 24 24"><path d="M0 0h24v24H0V0z" fill="none"/><path d="M19 6.41L17.59 5 12 10.59 6.41 5 5 6.41 10.59 12 5 17.59 6.41 19 12 13.41 17.59 19 19 17.59 13.41 12 19 6.41z"/></symbol>
<symbol id="content_copy" viewBox="0 0 24 24"><path d="M0 0h24v24H0V0z" fill="none"/><path d="M8 7h11v14H8z" opacity=".3"/><path d="M16 1H4c-1.1 0-2 .9-2 2v14h2V3h12V1zm3 4H8c-1.1 0-2 .9-2 2v14c0 1.1.9 2 2 2h11c1.1 0 2-.9 2-2V7c0-1.1-.9-2-2-2zm0 16H8V7h11v14z"/></symbol>
<symbol id="content_cut" viewBox="0 0 24 24"><path d="M0 0h24v24H0V0z" fill="none"/><path d="M19 3l-6 6 2 2 7-7V3zm-9 3c0-2.21-1.79-4-4-4S2 3.79 2 6s1.79 4 4 4c.59 0 1.14-.13 1.64-.36L10 12l-2.36 2.36C7.14 14.13 6.59 14 6 14c-2.21 0-4 1.79-4 4s1.79 4 4 4 4-1.79 4-4c0-.59-.13-1.14-.36-1.64L12 14l7 7h3v-1L9.64 7.64c.23-.5.36-1.05.36-1.64zM6 8c-1.1 0-2-.89-2-2s.9-2 2-2 2 .89 2 2-.9 2-2 2zm0 12c-1.1 0-2-.89-2-2s.9-2 2-2 2 .89 2 2-.9 2-2 2zm6-8.5c.28 0 .5.22.5.5s-.22.5-.5.5-.5-.22-.5-.5.22-.5.5-.5z"/></symbol>
<symbol id="content_paste" viewBox="0 0 24 24"><path d="M0 0h24v24H0V0z" fill="none"/><path d="M17 7H7V4H5v16h14V4h-2z" opacity=".3"/><path d="M19 2h-4.18C14.4.84 13.3 0 12 0S9.6.84 9.18 2H5c-1.1 0-2 .9-2 2v16c0 1.1.9 2 2 2h14c1.1 0 2-.9 2-2V4c0-1.1-.9-2-2-2zm-7 0c.55 0 1 .45 1 1s-.45 1-1 1-1-.45-1-1 .45-1 1-1zm7 18H5V4h2v3h10V4h2v16z"/></symbol>
<symbol id="create" viewBox="0 0 24 24"><path d="M0 0h24v24H0V0z" fill="none"/><path d="M5 18.08V19h.92l9.06-9.06-.92-.92z" opacity=".3"/><path d="M3 17.25V21h3.75L17.81 9.94l-3.75-3.75L3 17.25zM5.92 19H5v-.92l9.06-9.06.92.92L5.92 19zM20.71 5.63l-2.34-2.34c-.2-.2-.45-.29-.71-.29s-.51.1-.7.29l-1.83 1.83 3.75 3.75 1.83-1.83c.39-.39.39-1.02 0-1.41z"/></symbol>
<symbol id="delete_sweep" viewBox="0 0 24 24"><path d="M0 0h24v24H0V0z" fill="none"/><path d="M5 10h6v8H5z" opacity=".3"/><path d="M15 16h4v2h-4zm0-8h7v2h-7zm0 4h6v2h-6zM3 18c0 1.1.9 2 2 2h6c1.1 0 2-.9 2-2V8H3v10zm2-8h6v8H5v-8zm5-6H6L5 5H2v2h12V5h-3z"/></symbol>
<symbol id="drafts" viewBox="0 0 24 24"><path d="M0 0h24v24H0V0z" fill="none"/><path d="M12 15.36l-8-5.02V18h16l-.01-7.63z" opacity=".3"/><path d="M21.99 8c0-.72-.37-1.35-.94-1.7L12 1 2.95 6.3C2.38 6.65 2 7.28 2 8v10c0 1.1.9 2 2 2h16c1.1 0 2-.9 2-2l-.01-10zM12 3.32L19.99 8v.01L12 13 4 8l8-4.68zM4 18v-7.66l8 5.02 7.99-4.99L20 18H4z"/></symbol>
<symbol id="dynamic_feed" viewBox="0 0 24 24"><g><rect fill="none" height="24" width="24"/></g><g><rect height="4" opacity=".3" width="8" x="12" y="7"/><g/><g><path d="M8,8H6v7c0,1.1,0.9,2,2,2h9v-2H8V8z"/><path d="M20,3h-8c-1.1,0-2,0.9-2,2v6c0,1.1,0.9,2,2,2h8c1.1,0,2-0.9,2-2V5C22,3.9,21.1,3,20,3z M20,11h-8V7h8V11z"/><path d="M4,12H2v7c0,1.1,0.9,2,2,2h9v-2H4V12z"/></g></g><g display="none"><rect display="inline" height="4" opacity=".3" width="8" x="12" y="7"/><g display="inline"/><g display="inline"><path d="M8,8H6v7c0,1.1,0.9,2,2,2h9v-2H8V8z"/><path d="M20,3h-8c-1.1,0-2,0.9-2,2v6c0,1.1,0.9,2,2,2h8c1.1,0,2-0.9,2-2V5C22,3.9,21.1,3,20,3z M20,11h-8V7h8V11z"/><path d="M4,12H2v7c0,1.1,0.9,2,2,2h9v-2H4V12z"/></g></g></symbol>
<symbol id="file_copy" viewBox="0 0 24 24"><path d="M0 0h24v24H0V0z" fill="none"/><path d="M14 7H8v14h11v-9h-5z" opacity=".3"/><path d="M16 1H4c-1.1 0-2 .9-2 2v14h2V3h12V1zm-1 4H8c-1.1 0-1.99.9-1.99 2L6 21c0 1.1.89 2 1.99 2H19c1.1 0 2-.9 2-2V11l-6-6zm4 16H8V7h6v5h5v9z"/></symbol>
<symbol id="filter_list" viewBox="0 0 24 24"><path d="M0 0h24v24H0V0z" fill="none"/><path d="M10 18h4v-2h-4v2zM3 6v2h18V6H3zm3 7h12v-2H6v2z"/></symbol>
<symbol id="flag" viewBox="0 0 24 24"><path d="M0 0h24v24H0V0z" fill="none"/><path d="M12.36 6H7v6h7.24l.4 2H18V8h-5.24z" opacity=".3"/><path d="M14.4 6L14 4H5v17h2v-7h5.6l.4 2h7V6h-5.6zm3.6 8h-3.36l-.4-2H7V6h5.36l.4 2H18v6z"/></symbol>
<symbol id="font_download" viewBox="0 0 24 24"><path d="M0 0h24v24H0V0z" fill="none"/><path d="M4 20h16V4H4v16zm7.07-14.5h1.86l5.11 13h-2.09l-1.14-3H9.17l-1.12 3H5.96l5.11-13zM12 7.98L9.93 13.5h4.14z" opacity=".3"/><path d="M9.17 15.5h5.64l1.14 3h2.09l-5.11-13h-1.86l-5.11 13h2.09l1.12-3zM12 7.98l2.07 5.52H9.93L12 7.98zM20 2H4c-1.1 0-2 .9-2 2v16c0 1.1.9 2 2 2h16c1.1 0 2-.9 2-2V4c0-1.1-.9-2-2-2zm0 18H4V4h16v16z"/></symbol>
<symbol id="forward" viewBox="0 0 24 24"><path d="M0 0h24v24H0V0z" fill="none"/><path d="M14 14v1.17L17.17 12 14 8.83V10H6v4z" opacity=".3"/><path d="M20 12l-8-8v4H4v8h8v4l8-8zM6 14v-4h8V8.83L17.17 12 14 15.17V14H6z"/></symbol>
<symbol id="gesture" viewBox="0 0 24 24"><path d="M0 0h24v24H0V0z" fill="none"/><path d="M4.59 6.89c.7-.71 1.4-1.35 1.71-1.22.5.2 0 1.03-.3 1.52-.25.42-2.86 3.89-2.86 6.31 0 1.28.48 2.34 1.34 2.98.75.56 1.74.73 2.64.46 1.07-.31 1.95-1.4 3.06-2.77 1.21-1.49 2.83-3.44 4.08-3.44 1.63 0 1.65 1.01 1.76 1.79-3.78.64-5.38 3.67-5.38 5.37 0 1.7 1.44 3.09 3.21 3.09 1.63 0 4.29-1.33 4.69-6.1H21v-2.5h-2.47c-.15-1.65-1.09-4.2-4.03-4.2-2.25 0-4.18 1.91-4.94 2.84-.58.73-2.06 2.48-2.29 2.72-.25.3-.68.84-1.11.84-.45 0-.72-.83-.36-1.92.35-1.09 1.4-2.86 1.85-3.52.78-1.14 1.3-1.92 1.3-3.28C8.95 3.69 7.31 3 6.44 3 5.12 3 3.97 4 3.72 4.25c-.36.36-.66.66-.88.93l1.75 1.71zm9.29 11.66c-.31 0-.74-.26-.74-.72 0-.6.73-2.2 2.87-2.76-.3 2.69-1.43 3.48-2.13 3.48z"/></symbol>
<symbol id="how_to_reg" viewBox="0 0 24 24"><path d="M0 0h24v24H0V0z" fill="none"/><circle cx="11" cy="8" opacity=".3" r="2"/><path d="M5 18h4.99L9 17l.93-.94C7.55 16.33 5.2 17.37 5 18z" opacity=".3"/><path d="M11 12c2.21 0 4-1.79 4-4s-1.79-4-4-4-4 1.79-4 4 1.79 4 4 4zm0-6c1.1 0 2 .9 2 2s-.9 2-2 2-2-.9-2-2 .9-2 2-2zm-1 12H5c.2-.63 2.55-1.67 4.93-1.94h.03l.46-.45L12 14.06c-.39-.04-.68-.06-1-.06-2.67 0-8 1.34-8 4v2h9l-2-2zm10.6-5.5l-5.13 5.17-2.07-2.08L12 17l3.47 3.5L22 13.91z"/></symbol>
<symbol id="how_to_vote" viewBox="0 0 24 24"><path d="M0 0h24v24H0V0z" fill="none"/><path d="M5 19h14v1H5z" opacity=".3"/><path d="M18 13h-.68l-2 2h1.91L19 17H5l1.78-2h2.05l-2-2H6l-3 3v4c0 1.1.89 2 1.99 2H19c1.1 0 2-.89 2-2v-4l-3-3zm1 7H5v-1h14v1z"/><path d="M12.048 12.905L8.505 9.362l4.95-4.95 3.543 3.543z" opacity=".3"/><path d="M19.11 7.25L14.16 2.3c-.38-.4-1.01-.4-1.4-.01L6.39 8.66c-.39.39-.39 1.02 0 1.41l4.95 4.95c.39.39 1.02.39 1.41 0l6.36-6.36c.39-.39.39-1.02 0-1.41zm-7.06 5.65L8.51 9.36l4.95-4.95L17 7.95l-4.95 4.95z"/></symbol>
<symbol id="inbox" viewBox="0 0 24 24"><path d="M0 0h24v24H0V0z" fill="none"/><path d="M12.01 18c-1.48 0-2.75-.81-3.45-2H5v3h14v-3h-3.55c-.69 1.19-1.97 2-3.44 2z" opacity=".3"/><path d="M19 3H5c-1.1 0-2 .9-2 2v14c0 1.1.89 2 2 2h14c1.1 0 2-.9 2-2V5c0-1.1-.9-2-2-2zm0 16H5v-3h3.56c.69 1.19 1.97 2 3.45 2s2.75-.81 3.45-2H19v3zm0-5h-5c0 1.1-.9 2-2 2s-2-.9-2-2H5V5h14v9z"/></symbol>
<symbol id="insights" viewBox="0 0 24 24"><g><rect fill="none" height="24" width="24"/></g><g><g><path d="M21,8c-1.45,0-2.26,1.44-1.93,2.51l-3.55,3.56c-0.3-0.09-0.74-0.09-1.04,0l-2.55-2.55C12.27,10.45,11.46,9,10,9 c-1.45,0-2.27,1.44-1.93,2.52l-4.56,4.55C2.44,15.74,1,16.55,1,18c0,1.1,0.9,2,2,2c1.45,0,2.26-1.44,1.93-2.51l4.55-4.56 c0.3,0.09,0.74,0.09,1.04,0l2.55,2.55C12.73,16.55,13.54,18,15,18c1.45,0,2.27-1.44,1.93-2.52l3.56-3.55 C21.56,12.26,23,11.45,23,10C23,8.9,22.1,8,21,8z"/><polygon points="15,9 15.94,6.93 18,6 15.94,5.07 15,3 14.08,5.07 12,6 14.08,6.93"/><polygon points="3.5,11 4,9 6,8.5 4,8 3.5,6 3,8 1,8.5 3,9"/></g></g></symbol>
<symbol id="link" viewBox="0 0 24 24"><path d="M0 0h24v24H0V0z" fill="none"/><path d="M17 7h-4v2h4c1.65 0 3 1.35 3 3s-1.35 3-3 3h-4v2h4c2.76 0 5-2.24 5-5s-2.24-5-5-5zm-6 8H7c-1.65 0-3-1.35-3-3s1.35-3 3-3h4V7H7c-2.76 0-5 2.24-5 5s2.24 5 5 5h4v-2zm-3-4h8v2H8z" opacity=".87"/></symbol>
<symbol id="link_off" viewBox="0 0 24 24"><path d="M0 0h24v24H0V0z" fill="none"/><path d="M14.39 11L16 12.61V11zM17 7h-4v1.9h4c1.71 0 3.1 1.39 3.1 3.1 0 1.27-.77 2.37-1.87 2.84l1.4 1.4C21.05 15.36 22 13.79 22 12c0-2.76-2.24-5-5-5zM2 4.27l3.11 3.11C3.29 8.12 2 9.91 2 12c0 2.76 2.24 5 5 5h4v-1.9H7c-1.71 0-3.1-1.39-3.1-3.1 0-1.59 1.21-2.9 2.76-3.07L8.73 11H8v2h2.73L13 15.27V17h1.73l4.01 4.01 1.41-1.41L3.41 2.86 2 4.27z"/></symbol>
<symbol id="low_priority" viewBox="0 0 24 24"><path d="M0 0h24v24H0V0z" fill="none"/><path d="M14 5h8v2h-8V5zm0 5.5h8v2h-8v-2zm0 5.5h8v2h-8v-2zM2 11.5C2 15.08 4.92 18 8.5 18H9v2l3-3-3-3v2h-.5C6.02 16 4 13.98 4 11.5S6.02 7 8.5 7H12V5H8.5C4.92 5 2 7.92 2 11.5z"/></symbol>
<symbol id="mail" viewBox="0 0 24 24"><path d="M0 0h24v24H0V0z" fill="none"/><path d="M20 6H4l8 4.99zM4 8v10h16V8l-8 5z" opacity=".3"/><path d="M20 4H4c-1.1 0-2 .9-2 2v12c0 1.1.9 2 2 2h16c1.1 0 2-.9 2-2V6c0-1.1-.9-2-2-2zm0 2l-8 4.99L4 6h16zm0 12H4V8l8 5 8-5v10z"/></symbol>
<symbol id="markunread" viewBox="0 0 24 24"><path d="M0 0h24v24H0V0z" fill="none"/><path d="M20 6H4l8 5zM4 8v10h16V8l-8 5z" opacity=".3"/><path d="M20 4H4c-1.1 0-2 .9-2 2v12c0 1.1.9 2 2 2h16c1.1 0 2-.9 2-2V6c0-1.1-.9-2-2-2zm0 2l-8 5-8-5h16zm0 12H4V8l8 5 8-5v10z"/></symbol>
<symbol id="move_to_inbox" viewBox="0 0 24 24"><path d="M0 0h24v24H0V0z" fill="none"/><path d="M12.01 18c-1.48 0-2.75-.81-3.45-2H5v3h14v-3h-3.55c-.69 1.19-1.97 2-3.44 2z" opacity=".3"/><path d="M16 9h-2.55V6h-2.9v3H8l4 4zm3-6H4.99C3.88 3 3 3.9 3 5v14c0 1.1.88 2 1.99 2H19c1.1 0 2-.9 2-2V5c0-1.1-.9-2-2-2zm0 16H5v-3h3.56c.69 1.19 1.97 2 3.45 2s2.75-.81 3.45-2H19v3zm0-5h-4.99c0 1.1-.9 2-2 2s-2-.9-2-2H5l-.01-9H19v9z"/></symbol>
<symbol id="next_week" viewBox="0 0 24 24"><path d="M0 0h24v24H0V0z" fill="none"/><path d="M4 20h16V9H4v11zm6-8.5l1-1 4 4-4 4-1-1 3-3-3-3z" opacity=".3"/><path d="M11 18.5l4-4-4-4-1 1 3 3-3 3zM20 7h-4V5c0-.55-.22-1.05-.59-1.41C15.05 3.22 14.55 3 14 3h-4c-1.1 0-2 .9-2 2v2H4c-1.1 0-2 .9-2 2v11c0 1.1.9 2 2 2h16c1.1 0 2-.9 2-2V9c0-1.1-.9-2-2-2zM10 5h4v2h-4V5zm10 15H4V9h16v11z"/></symbol>
<symbol id="outlined_flag" viewBox="0 0 24 24"><path d="M0 0h24v24H0V0z" fill="none"/><path d="M14 6l-1-2H5v17h2v-7h5l1 2h7V6h-6zm4 8h-4l-1-2H7V6h5l1 2h5v6z"/></symbol>
<symbol id="policy" viewBox="0 0 24 24"><g><rect fill="none" height="24" width="24"/></g><g><g/><g><path d="M5,6.3V11c0,4.52,2.98,8.69,7,9.93c1.74-0.53,3.28-1.62,4.47-3.04l-1.72-1.72 c-1.94,1.29-4.58,1.07-6.29-0.64c-1.95-1.95-1.95-5.12,0-7.07c1.95-1.95,5.12-1.95,7.07,0c1.71,1.71,1.92,4.35,0.64,6.29 l1.45,1.45C18.49,14.65,19,12.85,19,11V6.3l-7-3.11L5,6.3z" opacity=".3"/><path d="M12,1L3,5v6c0,5.55,3.84,10.74,9,12c0.65-0.16,1.27-0.38,1.87-0.65c1.8-0.82,3.36-2.13,4.57-3.74 C20.04,16.46,21,13.77,21,11V5L12,1z M19,11c0,1.85-0.51,3.65-1.38,5.21l-1.45-1.45c1.29-1.94,1.07-4.58-0.64-6.29 c-1.95-1.95-5.12-1.95-7.07,0c-1.95,1.95-1.95,5.12,0,7.07c1.71,1.71,4.35,1.92,6.29,0.64l1.72,1.72 c-1.19,1.42-2.73,2.51-4.47,3.04C7.98,19.69,5,15.52,5,11V6.3l7-3.11l7,3.11V11z M15,12c0,1.66-1.34,3-3,3s-3-1.34-3-3s1.34-3,3-3 S15,10.34,15,12z"/></g></g></symbol>
<symbol id="push_pin" viewBox="0 0 24 24"><g><rect fill="none" height="24" width="24"/></g><g><g><path d="M14,4h-4v5c0,1.1-0.35,2.14-1,3h6c-0.63-0.84-1-1.88-1-3V4z" opacity=".3"/><path d="M19,12c-1.66,0-3-1.34-3-3V4l1,0c0,0,0,0,0,0c0.55,0,1-0.45,1-1s-0.45-1-1-1H7C6.45,2,6,2.45,6,3s0.45,1,1,1c0,0,0,0,0,0 l1,0v5c0,1.66-1.34,3-3,3v2h5.97v7l1,1l1-1v-7H19L19,12C19,12,19,12,19,12z M9,12c0.65-0.86,1-1.9,1-3V4h4v5c0,1.12,0.37,2.16,1,3 H9z"/></g></g></symbol>
<symbol id="redo" viewBox="0 0 24 24"><path d="M0 0h24v24H0V0z" fill="none"/><path d="M18.4 10.6C16.55 8.99 14.15 8 11.5 8c-4.65 0-8.58 3.03-9.96 7.22L3.9 16c1.05-3.19 4.05-5.5 7.6-5.5 1.95 0 3.73.72 5.12 1.88L13 16h9V7l-3.6 3.6z"/></symbol>
<symbol id="remove" viewBox="0 0 24 24"><path d="M0 0h24v24H0V0z" fill="none"/><path d="M19 13H5v-2h14v2z"/></symbol>
<symbol id="remove_circle" viewBox="0 0 24 24"><path d="M0 0h24v24H0V0z" fill="none"/><path d="M12 4c-4.41 0-8 3.59-8 8s3.59 8 8 8 8-3.59 8-8-3.59-8-8-8zm5 9H7v-2h10v2z" opacity=".3"/><path d="M7 11h10v2H7zm5-9C6.48 2 2 6.48 2 12s4.48 10 10 10 10-4.48 10-10S17.52 2 12 2zm0 18c-4.41 0-8-3.59-8-8s3.59-8 8-8 8 3.59 8 8-3.59 8-8 8z"/></symbol>
<symbol id="remove_circle_outline" viewBox="0 0 24 24"><path d="M0 0h24v24H0V0z" fill="none"/><path d="M7 11h10v2H7zm5-9C6.48 2 2 6.48 2 12s4.48 10 10 10 10-4.48 10-10S17.52 2 12 2zm0 18c-4.41 0-8-3.59-8-8s3.59-8 8-8 8 3.59 8 8-3.59 8-8 8z"/></symbol>
<symbol id="reply" viewBox="0 0 24 24"><path d="M0 0h24v24H0V0z" fill="none"/><path d="M10 9V5l-7 7 7 7v-4.1c5 0 8.5 1.6 11 5.1-1-5-4-10-11-11z"/></symbol>
<symbol id="reply_all" viewBox="0 0 24 24"><path d="M0 0h24v24H0V0z" fill="none"/><path d="M7 8V5l-7 7 7 7v-3l-4-4 4-4zm6 1V5l-7 7 7 7v-4.1c5 0 8.5 1.6 11 5.1-1-5-4-10-11-11z"/></symbol>
<symbol id="report" viewBox="0 0 24 24"><path d="M0 0h24v24H0V0z" fill="none"/><path d="M9.1 5L5 9.1v5.8L9.1 19h5.8l4.1-4.1V9.1L14.9 5H9.1zM12 17c-.55 0-1-.45-1-1s.45-1 1-1 1 .45 1 1-.45 1-1 1zm1-3h-2V7h2v7z" opacity=".3"/><path d="M15.73 3H8.27L3 8.27v7.46L8.27 21h7.46L21 15.73V8.27L15.73 3zM19 14.9L14.9 19H9.1L5 14.9V9.1L9.1 5h5.8L19 9.1v5.8z"/><circle cx="12" cy="16" r="1"/><path d="M11 7h2v7h-2z"/></symbol>
<symbol id="report_gmailerrorred" viewBox="0 0 24 24"><path d="M0 0h24v24H0V0z" fill="none"/><path d="M15.73 3H8.27L3 8.27v7.46L8.27 21h7.46L21 15.73V8.27L15.73 3zM19 14.9L14.9 19H9.1L5 14.9V9.1L9.1 5h5.8L19 9.1v5.8z"/><circle cx="12" cy="16" r="1"/><path d="M11 7h2v7h-2z"/></symbol>
<symbol id="report_off" viewBox="0 0 24 24"><path d="M0 0h24v24H0V0z" fill="none"/><path d="M19 9.1L14.9 5H9.1l-.22.22L11 7.33V7h2v2.33l5.78 5.79.22-.22zM6.05 8.04L5 9.1v5.8L9.1 19h5.8l1.05-1.05-9.9-9.91zM13 16c0 .55-.45 1-1 1s-1-.45-1-1 .45-1 1-1 1 .45 1 1z" opacity=".3"/><path d="M9.1 5h5.8L19 9.1v5.8l-.22.22 1.42 1.41.8-.8V8.27L15.73 3H8.27l-.8.8 1.41 1.42z"/><circle cx="12" cy="16" r="1"/><path d="M13 7h-2v.33l2 2zM2.41 1.58L1 2.99l3.64 3.64L3 8.27v7.46L8.27 21h7.46l1.64-1.64L21.01 23l1.41-1.41L2.41 1.58zM14.9 19H9.1L5 14.9V9.1l1.05-1.05 9.9 9.9L14.9 19z"/></symbol>
<symbol id="save" viewBox="0 0 24 24"><path d="M0 0h24v24H0V0z" fill="none"/><path d="M5 5v14h14V7.83L16.17 5H5zm7 13c-1.66 0-3-1.34-3-3s1.34-3 3-3 3 1.34 3 3-1.34 3-3 3zm3-8H6V6h9v4z" opacity=".3"/><path d="M17 3H5c-1.11 0-2 .9-2 2v14c0 1.1.89 2 2 2h14c1.1 0 2-.9 2-2V7l-4-4zm2 16H5V5h11.17L19 7.83V19zm-7-7c-1.66 0-3 1.34-3 3s1.34 3 3 3 3-1.34 3-3-1.34-3-3-3zM6 6h9v4H6z"/></symbol>
<symbol id="save_alt" viewBox="0 0 24 24"><path d="M0 0h24v24H0V0z" fill="none"/><path d="M19 12v7H5v-7H3v7c0 1.1.9 2 2 2h14c1.1 0 2-.9 2-2v-7h-2zm-6 .67l2.59-2.58L17 11.5l-5 5-5-5 1.41-1.41L11 12.67V3h2v9.67z"/></symbol>
<symbol id="select_all" viewBox="0 0 24 24"><path d="M0 0h24v24H0V0z" fill="none"/><path d="M3 5h2V3c-1.1 0-2 .9-2 2zm0 8h2v-2H3v2zm4 8h2v-2H7v2zM3 9h2V7H3v2zm10-6h-2v2h2V3zm6 0v2h2c0-1.1-.9-2-2-2zM5 21v-2H3c0 1.1.9 2 2 2zm-2-4h2v-2H3v2zM9 3H7v2h2V3zm2 18h2v-2h-2v2zm8-8h2v-2h-2v2zm0 8c1.1 0 2-.9 2-2h-2v2zm0-12h2V7h-2v2zm0 8h2v-2h-2v2zm-4 4h2v-2h-2v2zm0-16h2V3h-2v2zM7 17h10V7H7v10zm2-8h6v6H9V9z"/></symbol>
<symbol id="send" viewBox="0 0 24 24"><path d="M0 0h24v24H0V0z" fill="none"/><path d="M4 8.25l7.51 1-7.5-3.22zm.01 9.72l7.5-3.22-7.51 1z" opacity=".3"/><path d="M2.01 3L2 10l15 2-15 2 .01 7L23 12 2.01 3zM4 8.25V6.03l7.51 3.22-7.51-1zm.01 9.72v-2.22l7.51-1-7.51 3.22z"/></symbol>
<symbol id="sort" viewBox="0 0 24 24"><path d="M0 0h24v24H0V0z" fill="none"/><path d="M3 18h6v-2H3v2zM3 6v2h18V6H3zm0 7h12v-2H3v2z"/></symbol>
<symbol id="square_foot" viewBox="0 0 24 24"><g><rect fill="none" height="24" width="24"/></g><g><g><polygon opacity=".3" points="7,17 12.76,17 7,11.24"/><g><path d="M17.66,17.66l-1.06,1.06l-0.71-0.71l1.06-1.06l-1.94-1.94l-1.06,1.06l-0.71-0.71l1.06-1.06l-1.94-1.94l-1.06,1.06 l-0.71-0.71l1.06-1.06L9.7,9.7l-1.06,1.06l-0.71-0.71l1.06-1.06L7.05,7.05L5.99,8.11L5.28,7.4l1.06-1.06L4,4v14c0,1.1,0.9,2,2,2 h14L17.66,17.66z M7,17v-5.76L12.76,17H7z"/></g></g></g></symbol>
<symbol id="text_format" viewBox="0 0 24 24"><path d="M0 0h24v24H0V0z" fill="none"/><path d="M5 17v2h14v-2H5zm4.5-4.2h5l.9 2.2h2.1L12.75 4h-1.5L6.5 15h2.1l.9-2.2zM12 5.98L13.87 11h-3.74L12 5.98z"/></symbol>
<symbol id="unarchive" viewBox="0 0 24 24"><path d="M0 0h24v24H0V0z" fill="none"/><path d="M5 19h14V8H5v11zm7-9l4 4h-2.55v3h-2.91v-3H8l4-4z" opacity=".3"/><path d="M20.54 5.23l-1.39-1.68C18.88 3.21 18.47 3 18 3H6c-.47 0-.88.21-1.16.55L3.46 5.23C3.17 5.57 3 6.02 3 6.5V19c0 1.1.9 2 2 2h14c1.1 0 2-.9 2-2V6.5c0-.48-.17-.93-.46-1.27zM6.24 5h11.52l.83 1H5.42l.82-1zM19 19H5V8h14v11zm-8.45-2h2.9v-3H16l-4-4-4 4h2.55z"/></symbol>
<symbol id="undo" viewBox="0 0 24 24"><path d="M0 0h24v24H0V0z" fill="none"/><path d="M12.5 8c-2.65 0-5.05.99-6.9 2.6L2 7v9h9l-3.62-3.62c1.39-1.16 3.16-1.88 5.12-1.88 3.54 0 6.55 2.31 7.6 5.5l2.37-.78C21.08 11.03 17.15 8 12.5 8z"/></symbol>
<symbol id="waves" viewBox="0 0 24 24"><path d="M0 0h24v24H0V0z" fill="none"/><path d="M17 16.99c-1.35 0-2.2.42-2.95.8-.65.33-1.18.6-2.05.6-.9 0-1.4-.25-2.05-.6-.75-.38-1.57-.8-2.95-.8s-2.2.42-2.95.8c-.65.33-1.17.6-2.05.6v1.95c1.35 0 2.2-.42 2.95-.8.65-.33 1.17-.6 2.05-.6s1.4.25 2.05.6c.75.38 1.57.8 2.95.8s2.2-.42 2.95-.8c.65-.33 1.18-.6 2.05-.6.9 0 1.4.25 2.05.6.75.38 1.58.8 2.95.8v-1.95c-.9 0-1.4-.25-2.05-.6-.75-.38-1.6-.8-2.95-.8zm0-4.45c-1.35 0-2.2.43-2.95.8-.65.32-1.18.6-2.05.6-.9 0-1.4-.25-2.05-.6-.75-.38-1.57-.8-2.95-.8s-2.2.43-2.95.8c-.65.32-1.17.6-2.05.6v1.95c1.35 0 2.2-.43 2.95-.8.65-.35 1.15-.6 2.05-.6s1.4.25 2.05.6c.75.38 1.57.8 2.95.8s2.2-.43 2.95-.8c.65-.35 1.15-.6 2.05-.6s1.4.25 2.05.6c.75.38 1.58.8 2.95.8v-1.95c-.9 0-1.4-.25-2.05-.6-.75-.38-1.6-.8-2.95-.8zm2.95-8.08c-.75-.38-1.58-.8-2.95-.8s-2.2.42-2.95.8c-.65.32-1.18.6-2.05.6-.9 0-1.4-.25-2.05-.6-.75-.37-1.57-.8-2.95-.8s-2.2.42-2.95.8c-.65.33-1.17.6-2.05.6v1.93c1.35 0 2.2-.43 2.95-.8.65-.33 1.17-.6 2.05-.6s1.4.25 2.05.6c.75.38 1.57.8 2.95.8s2.2-.43 2.95-.8c.65-.32 1.18-.6 2.05-.6.9 0 1.4.25 2.05.6.75.38 1.58.8 2.95.8V5.04c-.9 0-1.4-.25-2.05-.58zM17 8.09c-1.35 0-2.2.43-2.95.8-.65.35-1.15.6-2.05.6s-1.4-.25-2.05-.6c-.75-.38-1.57-.8-2.95-.8s-2.2.43-2.95.8c-.65.35-1.15.6-2.05.6v1.95c1.35 0 2.2-.43 2.95-.8.65-.32 1.18-.6 2.05-.6s1.4.25 2.05.6c.75.38 1.57.8 2.95.8s2.2-.43 2.95-.8c.65-.32 1.18-.6 2.05-.6.9 0 1.4.25 2.05.6.75.38 1.58.8 2.95.8V9.49c-.9 0-1.4-.25-2.05-.6-.75-.38-1.6-.8-2.95-.8z"/></symbol>
<symbol id="weekend" viewBox="0 0 24 24"><path d="M0 0h24v24H0V0z" fill="none"/><path d="M21 11c-.55 0-1 .45-1 1v4H4v-4c0-.55-.45-1-1-1s-1 .45-1 1v5c0 .55.45 1 1 1h18c.55 0 1-.45 1-1v-5c0-.55-.45-1-1-1zM6 14h12v-2c0-.88.39-1.67 1-2.22V7c0-.55-.45-1-1-1H6c-.55 0-1 .45-1 1v2.78c.61.55 1 1.34 1 2.22v2z" opacity=".3"/><path d="M21 9V7c0-1.65-1.35-3-3-3H6C4.35 4 3 5.35 3 7v2c-1.65 0-3 1.35-3 3v5c0 1.65 1.35 3 3 3h18c1.65 0 3-1.35 3-3v-5c0-1.65-1.35-3-3-3zM5 7c0-.55.45-1 1-1h12c.55 0 1 .45 1 1v2.78c-.61.55-1 1.34-1 2.22v2H6v-2c0-.88-.39-1.67-1-2.22V7zm17 10c0 .55-.45 1-1 1H3c-.55 0-1-.45-1-1v-5c0-.55.45-1 1-1s1 .45 1 1v4h16v-4c0-.55.45-1 1-1s1 .45 1 1v5z"/></symbol>
<symbol id="where_to_vote" viewBox="0 0 24 24"><path d="M0 0h24v24H0V0z" fill="none"/><path d="M12 3C8.69 3 6 5.69 6 9c0 3.54 3.82 8.86 6 11.47 1.75-2.11 6-7.63 6-11.47 0-3.31-2.69-6-6-6zm-1.53 11l-3.18-3.18L8.71 9.4l1.77 1.77 4.6-4.6 1.41 1.41L10.47 14z" opacity=".3"/><path d="M12 1C7.59 1 4 4.59 4 9c0 5.57 6.96 13.34 7.26 13.67l.74.82.74-.82C13.04 22.34 20 14.57 20 9c0-4.41-3.59-8-8-8zm0 19.47C9.82 17.86 6 12.54 6 9c0-3.31 2.69-6 6-6s6 2.69 6 6c0 3.83-4.25 9.36-6 11.47zm3.07-13.9l-4.6 4.6L8.71 9.4l-1.42 1.42L10.47 14l6.01-6.01z"/></symbol>
</svg>