<svg xmlns="http://www.w3.org/2000/svg">
<symbol id="add_comment" viewBox="0 0 24 24"><path d="M0 0h24v24H0V0z" fill="none"/><path d="M20 2H4c-1.1 0-2 .9-2 2v12c0 1.1.9 2 2 2h14l4 4V4c0-1.1-.9-2-2-2zm0 15.17L18.83 16H4V4h16v13.17zM13 5h-2v4H7v2h4v4h2v-4h4V9h-4z"/><path d="M4 4v12h14.83L20 17.17V4H4zm13 7h-4v4h-2v-4H7V9h4V5h2v4h4v2z" opacity=".3"/></symbol>
<symbol id="attach_file" viewBox="0 0 24 24"><path d="M0 0h24v24H0V0z" fill="none"/><path d="M12.5 23c3.04 0 5.5-2.46 5.5-5.5V6h-1.5v11.5c0 2.21-1.79 4-4 4s-4-1.79-4-4V5c0-1.38 1.12-2.5 2.5-2.5s2.5 1.12 2.5 2.5v10.5c0 .55-.45 1-1 1s-1-.45-1-1V6H10v9.5c0 1.38 1.12 2.5 2.5 2.5s2.5-1.12 2.5-2.5V5c0-2.21-1.79-4-4-4S7 2.79 7 5v12.5c0 3.04 2.46 5.5 5.5 5.5z"/></symbol>
<symbol id="attach_money" viewBox="0 0 24 24"><path d="M0 0h24v24H0V0z" fill="none"/><path d="M11.5 17.1c-2.06 0-2.87-.92-2.98-2.1h-2.2c.12 2.19 1.76 3.42 3.68 3.83V21h3v-2.15c1.95-.37 3.5-1.5 3.5-3.55 0-2.84-2.43-3.81-4.7-4.4-2.27-.59-3-1.2-3-2.15 0-1.09 1.01-1.85 2.7-1.85 1.78 0 2.44.85 2.5 2.1h2.21c-.07-1.72-1.12-3.3-3.21-3.81V3h-3v2.16c-1.94.42-3.5 1.68-3.5 3.61 0 2.31 1.91 3.46 4.7 4.13 2.5.6 3 1.48 3 2.41 0 .69-.49 1.79-2.7 1.79z"/></symbol>
<symbol id="bar_chart" viewBox="0 0 24 24"><path d="M0 0h24v24H0V0z" fill="none"/><path d="M5 9.2h3V19H5zM16.2 13H19v6h-2.8zm-5.6-8h2.8v14h-2.8z"/></symbol>
<symbol id="border_all" viewBox="0 0 24 24"><path d="M0 0h24v24H0V0z" fill="none"/><path d="M21 3H3v18h18V3zM11 19H5v-6h6v6zm0-8H5V5h6v6zm8 8h-6v-6h6v6zm0-8h-6V5h6v6z"/></symbol>
<symbol id="border_bottom" viewBox="0 0 24 24"><path d="M0 0h24v24H0V0z" fill="none"/><path d="M3 11h2v2H3zm0 4h2v2H3zm0 4h18v2H3zm16-4h2v2h-2zM3 7h2v2H3zm16 4h2v2h-2zm0-8h2v2h-2zm-4 8h2v2h-2zm4-4h2v2h-2zm-4-4h2v2h-2zm-8 8h2v2H7zM3 3h2v2H3zm8 4h2v2h-2zM7 3h2v2H7zm4 8h2v2h-2zm0 4h2v2h-2zm0-12h2v2h-2z"/></symbol>
<symbol id="border_clear" viewBox="0 0 24 24"><path d="M0 0h24v24H0V0z" fill="none"/><path d="M7 3h2v2H7zm0 16h2v2H7zM3 3h2v2H3zm16 0h2v2h-2zm0 4h2v2h-2zm0 4h2v2h-2zM3 7h2v2H3zm0 12h2v2H3zm16 0h2v2h-2zm0-4h2v2h-2zM3 15h2v2H3zm0-4h2v2H3zm4 0h2v2H7zm8 0h2v2h-2zm-4 8h2v2h-2zm4 0h2v2h-2zm0-16h2v2h-2zm-4 0h2v2h-2zm0 4h2v2h-2zm0 8h2v2h-2zm0-4h2v2h-2z"/></symbol>
<symbol id="border_color" viewBox="0 0 24 24"><path d="M0 0h24v24H0V0z" fill="none"/><path d="M14 6.08l-8 8V15h.92l8-8z" fill-opacity=".36"/><path d="M14 3.25l-10 10V17h3.75l10-10L14 3.25zM6.92 15H6v-.92l8-8 .92.92-8 8zM20.71 4.04c.39-.39.39-1.02 0-1.41L18.37.29c-.39-.39-1.02-.39-1.41 0L15 2.25 18.75 6l1.96-1.96z"/><path d="M0 20h24v4H0v-4z" fill-opacity=".36"/></symbol>
<symbol id="border_horizontal" viewBox="0 0 24 24"><path d="M0 0h24v24H0V0z" fill="none"/><path d="M11 3h2v2h-2zm8 0h2v2h-2zm0 4h2v2h-2zm-4-4h2v2h-2zM3 19h2v2H3zm0-4h2v2H3zm0-8h2v2H3zm4 12h2v2H7zm4-12h2v2h-2zM7 3h2v2H7zM3 3h2v2H3zm12 16h2v2h-2zm-4 0h2v2h-2zm8-4h2v2h-2zm0 4h2v2h-2zm-8-4h2v2h-2zm-8-4h18v2H3z"/></symbol>
<symbol id="border_inner" viewBox="0 0 24 24"><path d="M0 0h24v24H0V0z" fill="none"/><path d="M3 15h2v2H3zM3 3h2v2H3zm0 16h2v2H3zm8 2h2v-8h8v-2h-8V3h-2v8H3v2h8zm-4-2h2v2H7zm12-4h2v2h-2zm-4 4h2v2h-2zm4 0h2v2h-2zM3 7h2v2H3zm16 0h2v2h-2zM7 3h2v2H7zm8 0h2v2h-2zm4 0h2v2h-2z"/></symbol>
<symbol id="border_left" viewBox="0 0 24 24"><path d="M0 0h24v24H0V0z" fill="none"/><path d="M11 3h2v2h-2zM3 3h2v18H3zm12 0h2v2h-2zm-4 16h2v2h-2zm0-4h2v2h-2zm4 4h2v2h-2zM11 7h2v2h-2zm0 4h2v2h-2zm8 4h2v2h-2zm0 4h2v2h-2zm0-12h2v2h-2zm0 4h2v2h-2zm0-8h2v2h-2zm-4 8h2v2h-2zm-8 8h2v2H7zm0-8h2v2H7zm0-8h2v2H7z"/></symbol>
<symbol id="border_outer" viewBox="0 0 24 24"><path d="M0 0h24v24H0V0z" fill="none"/><path d="M11 11h2v2h-2zm0-4h2v2h-2zm10-4H3v18h18V3zm-2 16H5V5h14v14zm-4-8h2v2h-2zm-8 0h2v2H7zm4 4h2v2h-2z"/></symbol>
<symbol id="border_right" viewBox="0 0 24 24"><path d="M0 0h24v24H0V0z" fill="none"/><path d="M3 3h2v2H3zm0 16h2v2H3zM15 3h2v2h-2zm0 16h2v2h-2zm0-8h2v2h-2zM3 15h2v2H3zm0-4h2v2H3zm0-4h2v2H3zm8 8h2v2h-2zm-4-4h2v2H7zm0-8h2v2H7zm12 0h2v18h-2zM7 19h2v2H7zm4-16h2v2h-2zm0 4h2v2h-2zm0 4h2v2h-2zm0 8h2v2h-2z"/></symbol>
<symbol id="border_style" viewBox="0 0 24 24"><path d="M0 0h24v24H0V0z" fill="none"/><path d="M19 19h2v2h-2zm0-8h2v2h-2zm0 4h2v2h-2zm-4 4h2v2h-2zM3 21h2V5h16V3H3zM19 7h2v2h-2zm-8 12h2v2h-2zm-4 0h2v2H7z"/></symbol>
<symbol id="border_top" viewBox="0 0 24 24"><path d="M0 0h24v24H0V0z" fill="none"/><path d="M19 19h2v2h-2zM3 19h2v2H3zm8 0h2v2h-2zm-8-8h2v2H3zm0 4h2v2H3zm4 4h2v2H7zm4-12h2v2h-2zm0 4h2v2h-2zM3 7h2v2H3zm0-4h18v2H3zm8 12h2v2h-2zm4 4h2v2h-2zm-8-8h2v2H7zm8 0h2v2h-2zm4 4h2v2h-2zm0-4h2v2h-2zm0-4h2v2h-2z"/></symbol>
<symbol id="border_vertical" viewBox="0 0 24 24"><path d="M0 0h24v24H0V0z" fill="none"/><path d="M7 3h2v2H7zm0 8h2v2H7zm0 8h2v2H7zm-4 0h2v2H3zM3 3h2v2H3zm0 8h2v2H3zm16-8h2v2h-2zM3 7h2v2H3zm8-4h2v18h-2zM3 15h2v2H3zm12-4h2v2h-2zm4 4h2v2h-2zm0-4h2v2h-2zm0-4h2v2h-2zm0 12h2v2h-2zm-4 0h2v2h-2zm0-16h2v2h-2z"/></symbol>
<symbol id="bubble_chart" viewBox="0 0 24 24"><path d="M0 0h24v24H0V0z" fill="none"/><path d="M16.5 12c1.93 0 3.5-1.57 3.5-3.5S18.43 5 16.5 5 13 6.57 13 8.5s1.57 3.5 3.5 3.5z" opacity=".3"/><circle cx="15.01" cy="18" opacity=".3" r="1"/><circle cx="7" cy="14" opacity=".3" r="2"/><path d="M7 18c2.21 0 4-1.79 4-4s-1.79-4-4-4-4 1.79-4 4 1.79 4 4 4zm0-6c1.1 0 2 .9 2 2s-.9 2-2 2-2-.9-2-2 .9-2 2-2zm11.01 6c0-1.65-1.35-3-3-3s-3 1.35-3 3 1.35 3 3 3 3-1.35 3-3zm-4 0c0-.55.45-1 1-1s1 .45 1 1-.45 1-1 1-1-.45-1-1zm2.49-4c3.03 0 5.5-2.47 5.5-5.5S19.53 3 16.5 3 11 5.47 11 8.5s2.47 5.5 5.5 5.5zm0-9C18.43 5 20 6.57 20 8.5S18.43 12 16.5 12 13 10.43 13 8.5 14.57 5 16.5 5z"/></symbol>
<symbol id="drag_handle" viewBox="0 0 24 24"><path d="M0 0h24v24H0z" fill="none"/><path d="M4 9h16v2H4zm0 4h16v2H4z"/></symbol>
<symbol id="format_align_center" viewBox="0 0 24 24"><path d="M0 0h24v24H0V0z" fill="none"/><path d="M3 3h18v2H3zm4 12h10v2H7zm0-8h10v2H7zm-4 4h18v2H3zm0 8h18v2H3z"/></symbol>
<symbol id="format_align_justify" viewBox="0 0 24 24"><path d="M0 0h24v24H0V0z" fill="none"/><path d="M3 3h18v2H3zm0 8h18v2H3zm0 8h18v2H3zm0-4h18v2H3zm0-8h18v2H3z"/></symbol>
<symbol id="format_align_left" viewBox="0 0 24 24"><path d="M0 0h24v24H0V0z" fill="none"/><path d="M3 19h18v2H3zM3 7h12v2H3zm0-4h18v2H3zm0 12h12v2H3zm0-4h18v2H3z"/></symbol>
<symbol id="format_align_right" viewBox="0 0 24 24"><path d="M0 0h24v24H0V0z" fill="none"/><path d="M3 3h18v2H3zm0 16h18v2H3zm0-8h18v2H3zm6 4h12v2H9zm0-8h12v2H9z"/></symbol>
<symbol id="format_bold" viewBox="0 0 24 24"><path d="M0 0h24v24H0V0z" fill="none"/><path d="M17.25 8c0-2.26-1.75-4-4-4H7v14h7.04c2.09 0 3.71-1.7 3.71-3.79 0-1.52-.86-2.82-2.15-3.42.97-.67 1.65-1.77 1.65-2.79zM10 6.5h3c.83 0 1.5.67 1.5 1.5s-.67 1.5-1.5 1.5h-3v-3zm3.5 9H10v-3h3.5c.83 0 1.5.67 1.5 1.5s-.67 1.5-1.5 1.5z"/></symbol>
<symbol id="format_clear" viewBox="0 0 24 24"><path d="M0 0h24v24H0V0z" fill="none"/><path d="M20 8V5H6.39l3 3h1.83l-.55 1.28 2.09 2.1L14.21 8zM3.41 4.86L2 6.27l6.97 6.97L6.5 19h3l1.57-3.66L16.73 21l1.41-1.41z"/></symbol>
<symbol id="format_color_fill" viewBox="0 0 24 24"><path d="M0 0h24v24H0V0z" fill="none"/><path d="M10 5.21L5.21 10h9.58z" opacity=".3"/><path d="M19 17c1.1 0 2-.9 2-2 0-1.33-2-3.5-2-3.5s-2 2.17-2 3.5c0 1.1.9 2 2 2zm-10.06-.44c.29.29.68.44 1.06.44s.77-.15 1.06-.44l5.5-5.5c.59-.58.59-1.53 0-2.12L7.62 0 6.21 1.41l2.38 2.38-5.15 5.15c-.59.59-.59 1.54 0 2.12l5.5 5.5zM10 5.21L14.79 10H5.21L10 5.21z"/><path d="M0 20h24v4H0z" fill-opacity=".36"/></symbol>
<symbol id="format_color_reset" viewBox="0 0 24 24"><path d="M0 0h24v24H0V0zm0 0h24v24H0V0zm0 0h24v24H0V0z" fill="none"/><path d="M10.93 7.83l4.77 4.77c-.62-1.81-2.17-4.24-3.71-6.24-.35.47-.71.96-1.06 1.47zM12 18c.96 0 1.83-.36 2.53-.92l-5.72-5.72C8.32 12.38 8 13.31 8 14c0 2.21 1.79 4 4 4z" opacity=".3"/><path d="M12 6.36c1.53 2 3.08 4.43 3.71 6.24l2.23 2.23c.03-.27.06-.55.06-.83 0-3.98-6-10.8-6-10.8s-1.18 1.35-2.5 3.19l1.44 1.44c.34-.51.7-1 1.06-1.47zM5.41 5.14L4 6.55l3.32 3.32C6.55 11.33 6 12.79 6 14c0 3.31 2.69 6 6 6 1.52 0 2.9-.57 3.95-1.5l2.63 2.63L20 19.72 5.41 5.14zM12 18c-2.21 0-4-1.79-4-4 0-.69.32-1.62.81-2.64l5.72 5.72c-.7.56-1.57.92-2.53.92z"/></symbol>
<symbol id="format_color_text" viewBox="0 0 24 24"><path d="M0 0h24v24H0V0z" fill="none"/><path d="M0 20h24v4H0z" fill-opacity=".36"/><path d="M5.5 17h2.25l1.12-3h6.25l1.12 3h2.25L13 3h-2L5.5 17zm8.88-5H9.62L12 5.67 14.38 12z"/></symbol>
<symbol id="format_indent_decrease" viewBox="0 0 24 24"><path d="M0 0h24v24H0V0z" fill="none"/><path d="M7 16V8l-4 4zm4-9h10v2H11zm0 4h10v2H11zm0 4h10v2H11zm-8 4h18v2H3zM3 3h18v2H3z"/></symbol>
<symbol id="format_indent_increase" viewBox="0 0 24 24"><path d="M0 0h24v24H0V0z" fill="none"/><path d="M3 19h18v2H3zM3 3h18v2H3zm8 4h10v2H11zM3 8v8l4-4zm8 3h10v2H11zm0 4h10v2H11z"/></symbol>
<symbol id="format_italic" viewBox="0 0 24 24"><path d="M0 0h24v24H0V0z" fill="none"/><path d="M6 15v3h8v-3h-2.21l3.42-8H18V4h-8v3h2.21l-3.42 8z"/></symbol>
<symbol id="format_line_spacing" viewBox="0 0 24 24"><path d="M0 0h24v24H0V0z" fill="none"/><path d="M10 5h12v2H10zm0 12h12v2H10zm-8.5 0L5 20.5 8.5 17H6V7h2.5L5 3.5 1.5 7H4v10zm8.5-6h12v2H10z"/></symbol>
<symbol id="format_list_bulleted" viewBox="0 0 24 24"><path d="M0 0h24v24H0V0z" fill="none"/><path d="M7 5h14v2H7z"/><circle cx="4" cy="6" r="1.5"/><path d="M7 11h14v2H7zm0 6h14v2H7zm-3 2.5c.82 0 1.5-.68 1.5-1.5s-.67-1.5-1.5-1.5-1.5.68-1.5 1.5.68 1.5 1.5 1.5z"/><circle cx="4" cy="12" r="1.5"/></symbol>
<symbol id="format_list_numbered" viewBox="0 0 24 24"><path d="M0 0h24v24H0V0z" fill="none"/><path d="M5 13H3.2L5 10.9V10H2v1h1.8L2 13.1v.9h3zm2-8h14v2H7zM5 16H2v1h2v.5H3v1h1v.5H2v1h3zm2 1h14v2H7zM3 8h1V4H2v1h1zm4 3h14v2H7z"/></symbol>
<symbol id="format_list_numbered_rtl" viewBox="0 0 24 24"><path d="M0 0h24v24H0V0z" fill="none"/><path d="M2 11h14v2H2zm16 6h2v.5h-1v1h1v.5h-2v1h3v-4h-3zm0-6h1.8L18 13.1v.9h3v-1h-1.8l1.8-2.1V10h-3zm2-3V4h-2v1h1v3zM2 17h14v2H2zM2 5h14v2H2z"/></symbol>
<symbol id="format_paint" viewBox="0 0 24 24"><path d="M0 0h24v24H0V0z" fill="none"/><path d="M6 4h10v2H6z" opacity=".3"/><path d="M17 2H5c-.55 0-1 .45-1 1v4c0 .55.45 1 1 1h12c.55 0 1-.45 1-1V6h1v4H9v11c0 .55.45 1 1 1h2c.55 0 1-.45 1-1v-9h8V4h-3V3c0-.55-.45-1-1-1zm-1 4H6V4h10v2z"/></symbol>
<symbol id="format_quote" viewBox="0 0 24 24"><path d="M0 0h24v24H0V0z" fill="none"/><path d="M16.62 16h.76L19 12.76V8h-4v4h3.62zm-10 0h.76L9 12.76V8H5v4h3.62z" opacity=".3"/><path d="M18.62 18L21 13.24V6h-8v8h2.38l-2 4h5.24zM15 12V8h4v4.76L17.38 16h-.76l2-4H15zM3.38 18h5.24L11 13.24V6H3v8h2.38l-2 4zM5 12V8h4v4.76L7.38 16h-.76l2-4H5z"/></symbol>
<symbol id="format_shapes" viewBox="0 0 24 24"><path d="M0 0h24v24H0V0z" fill="none"/><path d="M3 3h2v2H3zm16 16h2v2h-2zm0-16h2v2h-2zM3 19h2v2H3z" opacity=".3"/><path d="M11.29 7l-3.4 9h1.62l.73-2h3.49l.74 2h1.63l-3.41-9h-1.4zm-.6 5.74L12 8.91l1.3 3.83h-2.61zM17 3H7V1H1v6h2v10H1v6h6v-2h10v2h6v-6h-2V7h2V1h-6v2zM3 3h2v2H3V3zm2 18H3v-2h2v2zm16 0h-2v-2h2v2zM19 3h2v2h-2V3zm0 14h-2v2H7v-2H5V7h2V5h10v2h2v10z"/></symbol>
<symbol id="format_size" viewBox="0 0 24 24"><path d="M0 0h24v24H0V0z" fill="none"/><path d="M3 12h3v7h3v-7h3V9H3zm6-5h5v12h3V7h5V4H9z"/></symbol>
<symbol id="format_strikethrough" viewBox="0 0 24 24"><path d="M0 0h24v24H0V0z" fill="none"/><path d="M3 12h18v2H3zm11-2V7h5V4H5v3h5v3zm-4 6h4v3h-4z"/></symbol>
<symbol id="format_textdirection_l_to_r" viewBox="0 0 24 24"><path d="M0 0h24v24H0V0z" fill="none"/><path d="M9 8V4c-1.1 0-2 .9-2 2s.9 2 2 2z" opacity=".3"/><path d="M9 10v5h2V4h2v11h2V4h2V2H9C6.79 2 5 3.79 5 6s1.79 4 4 4zm0-6v4c-1.1 0-2-.9-2-2s.9-2 2-2zm12 14l-4-4v3H5v2h12v3z"/></symbol>
<symbol id="format_textdirection_r_to_l" viewBox="0 0 24 24"><path d="M0 0h24v24H0V0z" fill="none"/><path d="M8 6c0 1.1.9 2 2 2V4c-1.1 0-2 .9-2 2z" opacity=".3"/><path d="M6 6c0 2.21 1.79 4 4 4v5h2V4h2v11h2V4h2V2h-8C7.79 2 6 3.79 6 6zm4 2c-1.1 0-2-.9-2-2s.9-2 2-2v4zM4 18l4 4v-3h12v-2H8v-3z"/></symbol>
<symbol id="format_underlined" viewBox="0 0 24 24"><path d="M0 0h24v24H0V0z" fill="none"/><path d="M5 19h14v2H5zM6 3v8c0 3.31 2.69 6 6 6s6-2.69 6-6V3h-2.5v8c0 1.93-1.57 3.5-3.5 3.5S8.5 12.93 8.5 11V3H6z"/></symbol>
<symbol id="functions" viewBox="0 0 24 24"><path d="M0 0h24v24H0V0z" fill="none"/><path d="M18 17h-7l5-5-5-5h7V4H6v2l6.5 6L6 18v2h12z"/></symbol>
<symbol id="height" viewBox="0 0 24 24"><g><rect fill="none" height="24" width="24"/></g><g><g/><polygon points="13,6.99 16,6.99 12,3 8,6.99 11,6.99 11,17.01 8,17.01 12,21 16,17.01 13,17.01"/></g></symbol>
<symbol id="highlight" viewBox="0 0 24 24"><path d="M0 0h24v24H0z" fill="none"/><path d="M11 20h2v-3.83l3-3V11H8v2.17l3 3z" opacity=".3"/><path d="M6 14l3 3v5h6v-5l3-3V9H6v5zm2-3h8v2.17l-3 3V20h-2v-3.83l-3-3V11zm3-9h2v3h-2zM4.916 4.464l2.12 2.122L5.62 8 3.5 5.877zM18.372 8l-1.414-1.414 2.12-2.12 1.415 1.413z"/></symbol>
<symbol id="horizontal_rule" viewBox="0 0 24 24"><g><rect fill="none" fill-rule="evenodd" height="24" width="24"/><g><rect fill-rule="evenodd" height="2" width="16" x="4" y="11"/></g></g></symbol>
<symbol id="insert_chart" viewBox="0 0 24 24"><path d="M0 0h24v24H0V0z" fill="none"/><path d="M19 5H5v14h14V5zM9 17H7v-7h2v7zm4 0h-2V7h2v10zm4 0h-2v-4h2v4z" opacity=".3"/><path d="M3 5v14c0 1.1.9 2 2 2h14c1.1 0 2-.9 2-2V5c0-1.1-.9-2-2-2H5c-1.1 0-2 .9-2 2zm2 0h14v14H5V5zm2 5h2v7H7zm4-3h2v10h-2zm4 6h2v4h-2z"/></symbol>
<symbol id="insert_chart_outlined" viewBox="0 0 24 24"><path d="M0 0h24v24H0V0z" fill="none"/><path d="M9 17H7v-7h2v7zm4 0h-2V7h2v10zm4 0h-2v-4h2v4zm2 2H5V5h14v14zm0-16H5c-1.1 0-2 .9-2 2v14c0 1.1.9 2 2 2h14c1.1 0 2-.9 2-2V5c0-1.1-.9-2-2-2z"/></symbol>
<symbol id="insert_comment" viewBox="0 0 24 24"><path d="M0 0h24v24H0V0z" fill="none"/><path d="M4 16h14.83L20 17.17V4H4v12zM6 6h12v2H6V6zm0 3h12v2H6V9zm0 3h12v2H6v-2z" opacity=".3"/><path d="M20 2H4c-1.1 0-2 .9-2 2v12c0 1.1.9 2 2 2h14l4 4V4c0-1.1-.9-2-2-2zm0 2v13.17L18.83 16H4V4h16zM6 12h12v2H6zm0-3h12v2H6zm0-3h12v2H6z"/></symbol>
<symbol id="insert_drive_file" viewBox="0 0 24 24"><path d="M0 0h24v24H0V0z" fill="none"/><path d="M13 4H6v16h12V9h-5z" opacity=".3"/><path d="M20 8l-6-6H6c-1.1 0-1.99.9-1.99 2L4 20c0 1.1.89 2 1.99 2H18c1.1 0 2-.9 2-2V8zm-2 12H6V4h7v5h5v11z"/></symbol>
<symbol id="insert_emoticon" viewBox="0 0 24 24"><path d="M0 0h24v24H0V0z" fill="none"/><path d="M12 4c-4.42 0-8 3.58-8 8s3.58 8 8 8 8-3.58 8-8-3.58-8-8-8zm3.5 4c.83 0 1.5.67 1.5 1.5s-.67 1.5-1.5 1.5-1.5-.67-1.5-1.5.67-1.5 1.5-1.5zm-7 0c.83 0 1.5.67 1.5 1.5S9.33 11 8.5 11 7 10.33 7 9.5 7.67 8 8.5 8zm3.5 9.5c-2.33 0-4.31-1.46-5.11-3.5h10.22c-.8 2.04-2.78 3.5-5.11 3.5z" opacity=".3"/><circle cx="15.5" cy="9.5" r="1.5"/><path d="M11.99 2C6.47 2 2 6.48 2 12s4.47 10 9.99 10C17.52 22 22 17.52 22 12S17.52 2 11.99 2zM12 20c-4.42 0-8-3.58-8-8s3.58-8 8-8 8 3.58 8 8-3.58 8-8 8z"/><circle cx="8.5" cy="9.5" r="1.5"/><path d="M12 17.5c2.33 0 4.31-1.46 5.11-3.5H6.89c.8 2.04 2.78 3.5 5.11 3.5z"/></symbol>
<symbol id="insert_invitation" viewBox="0 0 24 24"><path d="M0 0h24v24H0V0z" fill="none"/><path d="M19 5H5v2h14z" opacity=".3"/><path d="M5 21h14c1.1 0 2-.9 2-2V5c0-1.1-.9-2-2-2h-1V1h-2v2H8V1H6v2H5c-1.11 0-1.99.9-1.99 2L3 19c0 1.1.89 2 2 2zM5 7V5h14v2H5zm0 2h14v10H5V9zm7 3h5v5h-5z"/></symbol>
<symbol id="insert_link" viewBox="0 0 24 24"><path d="M0 0h24v24H0V0z" fill="none"/><path d="M3.9 12c0-1.71 1.39-3.1 3.1-3.1h4V7H7c-2.76 0-5 2.24-5 5s2.24 5 5 5h4v-1.9H7c-1.71 0-3.1-1.39-3.1-3.1zM8 13h8v-2H8v2zm9-6h-4v1.9h4c1.71 0 3.1 1.39 3.1 3.1s-1.39 3.1-3.1 3.1h-4V17h4c2.76 0 5-2.24 5-5s-2.24-5-5-5z"/></symbol>
<symbol id="insert_photo" viewBox="0 0 24 24"><path d="M0 0h24v24H0V0z" fill="none"/><path d="M5 19h14V5H5v14zm4-5.86l2.14 2.58 3-3.87L18 17H6l3-3.86z" opacity=".3"/><path d="M3 5v14c0 1.1.9 2 2 2h14c1.1 0 2-.9 2-2V5c0-1.1-.9-2-2-2H5c-1.1 0-2 .9-2 2zm16 14H5V5h14v14zm-4.86-7.14l-3 3.86L9 13.14 6 17h12z"/></symbol>
<symbol id="linear_scale" viewBox="0 0 24 24"><path d="M0 0h24v24H0z" fill="none"/><path d="M19.5 9.5c-1.03 0-1.9.62-2.29 1.5h-2.92c-.39-.88-1.26-1.5-2.29-1.5s-1.9.62-2.29 1.5H6.79c-.39-.88-1.26-1.5-2.29-1.5C3.12 9.5 2 10.62 2 12s1.12 2.5 2.5 2.5c1.03 0 1.9-.62 2.29-1.5h2.92c.39.88 1.26 1.5 2.29 1.5s1.9-.62 2.29-1.5h2.92c.39.88 1.26 1.5 2.29 1.5 1.38 0 2.5-1.12 2.5-2.5s-1.12-2.5-2.5-2.5z"/></symbol>
<symbol id="merge_type" viewBox="0 0 24 24"><path d="M0 0h24v24H0V0z" fill="none"/><path d="M5.59 19L7 20.41l6-6V8h3.5L12 3.5 7.5 8H11v5.59zm11.407 1.41l-3.408-3.407 1.4-1.407 3.41 3.408z"/></symbol>
<symbol id="mode" viewBox="0 0 24 24"><path d="M0 0h24v24H0V0z" fill="none"/><path d="M14.06 9.02L5 18.08V19h.92l9.06-9.06z" opacity=".3"/><path d="M18.37 3.29c-.2-.2-.45-.29-.71-.29s-.51.1-.7.29l-1.83 1.83 3.75 3.75 1.83-1.83c.39-.39.39-1.02 0-1.41l-2.34-2.34zm-.56 6.65l-3.75-3.75L3 17.25V21h3.75L17.81 9.94zM5 19v-.92l9.06-9.06.92.92L5.92 19H5z"/></symbol>
<symbol id="mode_comment" viewBox="0 0 24 24"><path d="M0 0h24v24H0V0z" fill="none"/><path d="M20 2H4c-1.1 0-2 .9-2 2v12c0 1.1.9 2 2 2h14l4 4V4c0-1.1-.9-2-2-2zm0 15.17L18.83 16H4V4h16v13.17z"/><path d="M4 4v12h14.83L20 17.17V4z" opacity=".3"/></symbol>
<symbol id="monetization_on" viewBox="0 0 24 24"><path d="M0 0h24v24H0V0z" fill="none"/><path d="M12 4c-4.41 0-8 3.59-8 8s3.59 8 8 8 8-3.59 8-8-3.59-8-8-8zm1.23 13.33V19H10.9v-1.69c-1.5-.31-2.77-1.28-2.86-2.97h1.71c.09.92.72 1.64 2.32 1.64 1.71 0 2.1-.86 2.1-1.39 0-.73-.39-1.41-2.34-1.87-2.17-.53-3.66-1.42-3.66-3.21 0-1.51 1.22-2.48 2.72-2.81V5h2.34v1.71c1.63.39 2.44 1.63 2.49 2.97h-1.71c-.04-.97-.56-1.64-1.94-1.64-1.31 0-2.1.59-2.1 1.43 0 .73.57 1.22 2.34 1.67 1.77.46 3.66 1.22 3.66 3.42-.01 1.6-1.21 2.48-2.74 2.77z" opacity=".3"/><path d="M12 2C6.48 2 2 6.48 2 12s4.48 10 10 10 10-4.48 10-10S17.52 2 12 2zm0 18c-4.41 0-8-3.59-8-8s3.59-8 8-8 8 3.59 8 8-3.59 8-8 8zm.31-8.86c-1.77-.45-2.34-.94-2.34-1.67 0-.84.79-1.43 2.1-1.43 1.38 0 1.9.66 1.94 1.64h1.71c-.05-1.34-.87-2.57-2.49-2.97V5H10.9v1.69c-1.51.32-2.72 1.3-2.72 2.81 0 1.79 1.49 2.69 3.66 3.21 1.95.46 2.34 1.15 2.34 1.87 0 .53-.39 1.39-2.1 1.39-1.6 0-2.23-.72-2.32-1.64H8.04c.1 1.7 1.36 2.66 2.86 2.97V19h2.34v-1.67c1.52-.29 2.72-1.16 2.73-2.77-.01-2.2-1.9-2.96-3.66-3.42z"/></symbol>
<symbol id="money_off" viewBox="0 0 24 24"><path d="M0 0h24v24H0V0z" fill="none"/><path d="M12.5 6.9c1.78 0 2.44.85 2.5 2.1h2.21c-.07-1.72-1.12-3.3-3.21-3.81V3h-3v2.16c-.39.08-.75.21-1.1.36l1.51 1.51c.32-.08.69-.13 1.09-.13zM5.47 3.92L4.06 5.33 7.5 8.77c0 2.08 1.56 3.22 3.91 3.91l3.51 3.51c-.34.49-1.05.91-2.42.91-2.06 0-2.87-.92-2.98-2.1h-2.2c.12 2.19 1.76 3.42 3.68 3.83V21h3v-2.15c.96-.18 1.83-.55 2.46-1.12l2.22 2.22 1.41-1.41L5.47 3.92z"/></symbol>
<symbol id="money_off_csred" viewBox="0 0 24 24"><path d="M0 0h24v24H0V0z" fill="none"/><path d="M12.5 6.9c1.78 0 2.44.85 2.5 2.1h2.21c-.07-1.72-1.12-3.3-3.21-3.81V3h-3v2.16c-.39.08-.75.21-1.1.36l1.51 1.51c.32-.08.69-.13 1.09-.13zM5.47 3.92L4.06 5.33 7.5 8.77c0 2.08 1.56 3.22 3.91 3.91l3.51 3.51c-.34.49-1.05.91-2.42.91-2.06 0-2.87-.92-2.98-2.1h-2.2c.12 2.19 1.76 3.42 3.68 3.83V21h3v-2.15c.96-.18 1.83-.55 2.46-1.12l2.22 2.22 1.41-1.41L5.47 3.92z"/></symbol>
<symbol id="multiline_chart" viewBox="0 0 24 24"><path d="M0 0h24v24H0V0z" fill="none"/><path d="M22 6.92l-1.41-1.41-2.85 3.21C15.68 6.4 12.83 5 9.61 5 6.72 5 4.07 6.16 2 8l1.42 1.42C5.12 7.93 7.27 7 9.61 7c2.74 0 5.09 1.26 6.77 3.24l-2.88 3.24-4-4L2 16.99l1.5 1.5 6-6.01 4 4 4.05-4.55c.75 1.35 1.25 2.9 1.44 4.55H21c-.22-2.3-.95-4.39-2.04-6.14L22 6.92z"/></symbol>
<symbol id="notes" viewBox="0 0 24 24"><path d="M0 0h24v24H0V0z" fill="none"/><path d="M21 11.01L3 11v2h18zM3 16h12v2H3zM21 6H3v2.01L21 8z"/></symbol>
<symbol id="pie_chart" viewBox="0 0 24 24"><path d="M0 0h24v24H0V0z" fill="none"/><path d="M4 12c0 4.07 3.06 7.44 7 7.93V4.07C7.06 4.56 4 7.93 4 12zm9 7.93c3.61-.45 6.48-3.32 6.93-6.93H13v6.93zm0-15.86V11h6.93c-.45-3.61-3.32-6.48-6.93-6.93z" opacity=".3"/><path d="M12 2C6.48 2 2 6.48 2 12s4.48 10 10 10 10-4.48 10-10S17.52 2 12 2zm-1 17.93c-3.94-.49-7-3.86-7-7.93s3.06-7.44 7-7.93v15.86zm2 0V13h6.93c-.45 3.61-3.32 6.48-6.93 6.93zM13 11V4.07c3.61.45 6.48 3.32 6.93 6.93H13z"/></symbol>
<symbol id="pie_chart_outline" viewBox="0 0 24 24"><path d="M0 0h24v24H0V0z" fill="none"/><path d="M12 2C6.5 2 2 6.5 2 12s4.5 10 10 10 10-4.5 10-10S17.5 2 12 2zm-1 17.94c-3.93-.5-7-3.88-7-7.94s3.07-7.44 7-7.93v15.87zm2-.01V13h6.93c-.45 3.61-3.32 6.48-6.93 6.93zM13 11V4.07c3.61.45 6.48 3.33 6.93 6.93H13z"/></symbol>
<symbol id="post_add" viewBox="0 0 24 24"><g><rect fill="none" height="24" width="24"/></g><g><g/><g><path d="M17,19.22H5V7h7V5H5C3.9,5,3,5.9,3,7v12c0,1.1,0.9,2,2,2h12c1.1,0,2-0.9,2-2v-7h-2V19.22z"/><path d="M19,2h-2v3h-3c0.01,0.01,0,2,0,2h3v2.99c0.01,0.01,2,0,2,0V7h3V5h-3V2z"/><rect height="2" width="8" x="7" y="9"/><polygon points="7,12 7,14 15,14 15,12 12,12"/><rect height="2" width="8" x="7" y="15"/></g></g></symbol>
<symbol id="publish" viewBox="0 0 24 24"><path d="M0 0h24v24H0V0z" fill="none"/><path d="M9.83 12H11v6h2v-6h1.17L12 9.83z" opacity=".3"/><path d="M5 4h14v2H5zm7 3l-7 7h4v6h6v-6h4l-7-7zm1 5v6h-2v-6H9.83L12 9.83 14.17 12H13z"/></symbol>
<symbol id="scatter_plot" viewBox="0 0 24 24"><path d="M0 0h24v24H0V0z" fill="none"/><circle cx="11" cy="6" opacity=".3" r="2"/><circle cx="16.6" cy="17.6" opacity=".3" r="2"/><circle cx="7" cy="14" opacity=".3" r="2"/><path d="M7 10c-2.21 0-4 1.79-4 4s1.79 4 4 4 4-1.79 4-4-1.79-4-4-4zm0 6c-1.1 0-2-.9-2-2s.9-2 2-2 2 .9 2 2-.9 2-2 2zm8-10c0-2.21-1.79-4-4-4S7 3.79 7 6s1.79 4 4 4 4-1.79 4-4zm-4 2c-1.1 0-2-.9-2-2s.9-2 2-2 2 .9 2 2-.9 2-2 2zm5.6 5.6c-2.21 0-4 1.79-4 4s1.79 4 4 4 4-1.79 4-4-1.79-4-4-4zm0 6c-1.1 0-2-.9-2-2s.9-2 2-2 2 .9 2 2-.9 2-2 2z"/></symbol>
<symbol id="score" viewBox="0 0 24 24"><path d="M0 0h24v24H0V0z" fill="none"/><path d="M5 19h8l-4-4zm0-2.5l4-4 4 4 6-6V5H5v11.5zM12 6h1.5v3l2-3h1.7l-2 3 2 3h-1.7l-2-3v3H12V6zM7 8.25h2.5V7.5H7V6h4v3.75H8.5v.75H11V12H7V8.25zM19 19v-6l-6 6z" opacity=".3"/><path d="M19 3H5c-1.1 0-2 .9-2 2v14c0 1.1.9 2 2 2h14c1.1 0 2-.9 2-2V5c0-1.1-.9-2-2-2zm0 16H5l4-4 4 4 6-6v6zm0-8.5l-6 6-4-4-4 4V5h14v5.5zM13.5 9V6H12v6h1.5zm3.7 3l-2-3 2-3h-1.7l-2 3 2 3zM11 10.5H8.5v-.75H11V6H7v1.5h2.5v.75H7V12h4z"/></symbol>
<symbol id="short_text" viewBox="0 0 24 24"><path d="M0 0h24v24H0z" fill="none"/><path d="M4 9h16v2H4zm0 4h10v2H4z"/></symbol>
<symbol id="show_chart" viewBox="0 0 24 24"><path d="M0 0h24v24H0V0z" fill="none"/><path d="M13.5 13.48l-4-4L2 16.99l1.5 1.5 6-6.01 4 4L22 6.92l-1.41-1.41z"/></symbol>
<symbol id="space_bar" viewBox="0 0 24 24"><path d="M0 0h24v24H0V0z" fill="none"/><path d="M18 13H6V9H4v6h16V9h-2z"/></symbol>
<symbol id="stacked_line_chart" viewBox="0 0 24 24"><rect fill="none" height="24" width="24"/><path d="M2,19.99l7.5-7.51l4,4l7.09-7.97L22,9.92l-8.5,9.56l-4-4l-6,6.01L2,19.99z M3.5,15.49l6-6.01l4,4L22,3.92l-1.41-1.41 l-7.09,7.97l-4-4L2,13.99L3.5,15.49z"/></symbol>
<symbol id="strikethrough_s" viewBox="0 0 24 24"><path d="M0 0h24v24H0z" fill="none"/><path d="M10.44 5.88c.19-.15.43-.27.72-.36.29-.09.64-.13 1.03-.13.4 0 .76.06 1.06.16.3.11.55.25.75.44s.35.41.44.68c.1.26.15.54.15.85h3.01c0-.66-.13-1.26-.38-1.81s-.61-1.03-1.08-1.43c-.46-.4-1.03-.72-1.69-.94-.67-.23-1.4-.34-2.21-.34-.79 0-1.52.1-2.18.29-.65.2-1.22.48-1.7.83-.48.36-.85.79-1.11 1.29-.27.51-.4 1.06-.4 1.67 0 .64.13 1.19.39 1.67.04.08.1.17.15.25H12c-.64-.22-1.03-.45-1.41-.7-.49-.33-.74-.73-.74-1.21 0-.23.05-.45.15-.66s.25-.39.44-.55zM3 12h9.62c.18.07.4.14.55.2.37.17.66.34.87.51.21.17.35.36.43.57.07.2.11.43.11.69 0 .23-.05.45-.14.66-.09.2-.23.38-.42.53-.19.15-.42.26-.71.35-.29.08-.63.13-1.01.13-.43 0-.83-.04-1.18-.13s-.66-.23-.91-.42-.45-.44-.59-.75-.25-.76-.25-1.21H6.4c0 .55.08 1.13.24 1.58.16.45.37.85.65 1.21.28.35.6.66.98.92.37.26.78.48 1.22.65s.9.3 1.38.39c.48.08.96.13 1.44.13.8 0 1.53-.09 2.18-.28.65-.19 1.21-.45 1.67-.79.46-.34.82-.77 1.07-1.27s.38-1.07.38-1.71c0-.6-.1-1.14-.31-1.61-.05-.11-.11-.23-.17-.33H21V10H3v2z"/></symbol>
<symbol id="subscript" viewBox="0 0 24 24"><g><rect fill="none" height="24" width="24"/><path d="M22,18h-2v1h3v1h-4v-2c0-0.55,0.45-1,1-1h2v-1h-3v-1h3c0.55,0,1,0.45,1,1v1C23,17.55,22.55,18,22,18z M5.88,18h2.66 l3.4-5.42h0.12l3.4,5.42h2.66l-4.65-7.27L17.81,4h-2.68l-3.07,4.99h-0.12L8.85,4H6.19l4.32,6.73L5.88,18z"/></g></symbol>
<symbol id="superscript" viewBox="0 0 24 24"><g><rect fill="none" height="24" width="24" x="0" y="0"/><path d="M22,7h-2v1h3v1h-4V7c0-0.55,0.45-1,1-1h2V5h-3V4h3c0.55,0,1,0.45,1,1v1C23,6.55,22.55,7,22,7z M5.88,20h2.66l3.4-5.42h0.12 l3.4,5.42h2.66l-4.65-7.27L17.81,6h-2.68l-3.07,4.99h-0.12L8.85,6H6.19l4.32,6.73L5.88,20z"/></g></symbol>
<symbol id="table_chart" viewBox="0 0 24 24"><path d="M0 0h24v24H0V0z" fill="none"/><path d="M5 5h15v3H5zm12 5h3v9h-3zm-7 0h5v9h-5zm-5 0h3v9H5z" opacity=".3"/><path d="M20 3H5c-1.1 0-2 .9-2 2v14c0 1.1.9 2 2 2h15c1.1 0 2-.9 2-2V5c0-1.1-.9-2-2-2zM8 19H5v-9h3v9zm7 0h-5v-9h5v9zm5 0h-3v-9h3v9zm0-11H5V5h15v3z"/></symbol>
<symbol id="table_rows" viewBox="0 0 24 24"><g><g><rect fill="none" height="24" width="24"/></g><g opacity=".3"><path d="M20,4v4H4V4H20z M20,10v4H4v-4H20z M4,20v-4h16v4H4z"/></g><g><path d="M2,2v20h20V2H2z M20,4v4H4V4H20z M20,10v4H4v-4H20z M4,20v-4h16v4H4z"/></g></g></symbol>
<symbol id="text_fields" viewBox="0 0 24 24"><path d="M0 0h24v24H0z" fill="none"/><path d="M12.5 12h3v7h3v-7h3V9h-9zm3-8h-13v3h5v12h3V7h5z"/></symbol>
<symbol id="title" viewBox="0 0 24 24"><path d="M0 0h24v24H0V0z" fill="none"/><path d="M5 7h5.5v12h3V7H19V4H5z"/></symbol>
<symbol id="vertical_align_bottom" viewBox="0 0 24 24"><path d="M0 0h24v24H0V0z" fill="none"/><path d="M11 3v10H8l4 4 4-4h-3V3zM4 19h16v2H4z"/></symbol>
<symbol id="vertical_align_center" viewBox="0 0 24 24"><path d="M0 0h24v24H0V0z" fill="none"/><path d="M11 1v4H8l4 4 4-4h-3V1zM4 11h16v2H4zm4 8h3v4h2v-4h3l-4-4z"/></symbol>
<symbol id="vertical_align_top" viewBox="0 0 24 24"><path d="M0 0h24v24H0V0z" fill="none"/><path d="M4 3h16v2H4zm4 8h3v10h2V11h3l-4-4z"/></symbol>
<symbol id="wrap_text" viewBox="0 0 24 24"><path d="M0 0h24v24H0V0z" fill="none"/><path d="M4 17h6v2H4zm13-6H4v2h13.25c1.1 0 2 .9 2 2s-.9 2-2 2H15v-2l-3 3 3 3v-2h2c2.21 0 4-1.79 4-4s-1.79-4-4-4zM4 5h16v2H4z"/></symbol>
</svg>