<svg xmlns="http://www.w3.org/2000/svg">
<symbol id="attachment" viewBox="0 0 24 24"><path d="M0 0h24v24H0V0z" fill="none"/><path d="M18.5 16H7c-2.21 0-4-1.79-4-4s1.79-4 4-4h12.5c1.38 0 2.5 1.12 2.5 2.5S20.88 13 19.5 13H9c-.55 0-1-.45-1-1s.45-1 1-1h9.5V9.5H9c-1.38 0-2.5 1.12-2.5 2.5s1.12 2.5 2.5 2.5h10.5c2.21 0 4-1.79 4-4s-1.79-4-4-4H7c-3.04 0-5.5 2.46-5.5 5.5s2.46 5.5 5.5 5.5h11.5V16z"/></symbol>
<symbol id="attach_email" viewBox="0 0 24 24"><g><rect fill="none" height="24" width="24"/></g><g><g><path d="M3,6l8,5l8-5v3h2V4c0-1.1-0.9-2-2-2H3C1.9,2,1.01,2.9,1.01,4L1,16c0,1.1,0.9,2,2,2h10v-2H3V6z M19,4l-8,5L3,4H19z"/><path d="M21,14v4c0,1.1-0.9,2-2,2s-2-0.9-2-2v-4.5c0-0.28,0.22-0.5,0.5-0.5s0.5,0.22,0.5,0.5V18h2v-4.5c0-1.38-1.12-2.5-2.5-2.5 S15,12.12,15,13.5V18c0,2.21,1.79,4,4,4s4-1.79,4-4v-4H21z"/></g></g></symbol>
<symbol id="cloud" viewBox="0 0 24 24"><path d="M0 0h24v24H0V0z" fill="none"/><path d="M19.21 12.04l-1.53-.11-.3-1.5C16.88 7.86 14.62 6 12 6 9.94 6 8.08 7.14 7.12 8.96l-.5.95-1.07.11C3.53 10.24 2 11.95 2 14c0 2.21 1.79 4 4 4h13c1.65 0 3-1.35 3-3 0-1.55-1.22-2.86-2.79-2.96z" opacity=".3"/><path d="M19.35 10.04C18.67 6.59 15.64 4 12 4 9.11 4 6.6 5.64 5.35 8.04 2.34 8.36 0 10.91 0 14c0 3.31 2.69 6 6 6h13c2.76 0 5-2.24 5-5 0-2.64-2.05-4.78-4.65-4.96zM19 18H6c-2.21 0-4-1.79-4-4 0-2.05 1.53-3.76 3.56-3.97l1.07-.11.5-.95C8.08 7.14 9.94 6 12 6c2.62 0 4.88 1.86 5.39 4.43l.3 1.5 1.53.11c1.56.1 2.78 1.41 2.78 2.96 0 1.65-1.35 3-3 3z"/></symbol>
<symbol id="cloud_circle" viewBox="0 0 24 24"><path d="M0 0h24v24H0V0z" fill="none"/><path d="M12 4c-4.41 0-8 3.59-8 8s3.59 8 8 8 8-3.59 8-8-3.59-8-8-8zm4.08 12H8.5C6.57 16 5 14.43 5 12.5c0-1.8 1.36-3.29 3.12-3.48.73-1.4 2.19-2.36 3.88-2.36 2.12 0 3.89 1.51 4.29 3.52 1.52.1 2.71 1.35 2.71 2.89 0 1.62-1.31 2.93-2.92 2.93z" opacity=".3"/><path d="M12 2C6.48 2 2 6.48 2 12s4.48 10 10 10 10-4.48 10-10S17.52 2 12 2zm0 18c-4.41 0-8-3.59-8-8s3.59-8 8-8 8 3.59 8 8-3.59 8-8 8zm4.29-9.81c-.4-2.01-2.16-3.52-4.29-3.52-1.69 0-3.15.96-3.88 2.36C6.36 9.21 5 10.7 5 12.5 5 14.43 6.57 16 8.5 16h7.58c1.61 0 2.92-1.31 2.92-2.92 0-1.54-1.2-2.79-2.71-2.89zM16 14H8.5c-.83 0-1.5-.67-1.5-1.5S7.67 11 8.5 11h.9l.49-1.05c.41-.79 1.22-1.28 2.11-1.28 1.13 0 2.11.8 2.33 1.91l.28 1.42H16c.55 0 1 .45 1 1s-.45 1-1 1z"/></symbol>
<symbol id="cloud_done" viewBox="0 0 24 24"><path d="M0 0h24v24H0V0z" fill="none"/><path d="M19.21 12.04l-1.53-.11-.3-1.5C16.88 7.86 14.62 6 12 6 9.94 6 8.08 7.14 7.12 8.96l-.5.95-1.07.11C3.53 10.24 2 11.95 2 14c0 2.21 1.79 4 4 4h13c1.65 0 3-1.35 3-3 0-1.55-1.22-2.86-2.79-2.96zM10 17l-3.5-3.5 1.41-1.41L10 14.18l4.6-4.6 1.41 1.41L10 17z" opacity=".3"/><path d="M19.35 10.04C18.67 6.59 15.64 4 12 4 9.11 4 6.6 5.64 5.35 8.04 2.34 8.36 0 10.91 0 14c0 3.31 2.69 6 6 6h13c2.76 0 5-2.24 5-5 0-2.64-2.05-4.78-4.65-4.96zM19 18H6c-2.21 0-4-1.79-4-4 0-2.05 1.53-3.76 3.56-3.97l1.07-.11.5-.95C8.08 7.14 9.94 6 12 6c2.62 0 4.88 1.86 5.39 4.43l.3 1.5 1.53.11c1.56.1 2.78 1.41 2.78 2.96 0 1.65-1.35 3-3 3zm-9-3.82l-2.09-2.09L6.5 13.5 10 17l6.01-6.01-1.41-1.41z"/></symbol>
<symbol id="cloud_download" viewBox="0 0 24 24"><path d="M0 0h24v24H0V0z" fill="none"/><path d="M19.21 12.04l-1.53-.11-.3-1.5C16.88 7.86 14.62 6 12 6 9.94 6 8.08 7.14 7.12 8.96l-.5.95-1.07.11C3.53 10.24 2 11.95 2 14c0 2.21 1.79 4 4 4h13c1.65 0 3-1.35 3-3 0-1.55-1.22-2.86-2.79-2.96zM12 17l-4-4h2.55v-3h2.91v3H16l-4 4z" opacity=".3"/><path d="M19.35 10.04C18.67 6.59 15.64 4 12 4 9.11 4 6.6 5.64 5.35 8.04 2.34 8.36 0 10.91 0 14c0 3.31 2.69 6 6 6h13c2.76 0 5-2.24 5-5 0-2.64-2.05-4.78-4.65-4.96zM19 18H6c-2.21 0-4-1.79-4-4 0-2.05 1.53-3.76 3.56-3.97l1.07-.11.5-.95C8.08 7.14 9.94 6 12 6c2.62 0 4.88 1.86 5.39 4.43l.3 1.5 1.53.11c1.56.1 2.78 1.41 2.78 2.96 0 1.65-1.35 3-3 3zm-5.55-8h-2.9v3H8l4 4 4-4h-2.55z"/></symbol>
<symbol id="cloud_off" viewBox="0 0 24 24"><path d="M0 0h24v24H0V0z" fill="none"/><path d="M22 15c0-1.66-1.34-3-3-3h-1.5v-.5C17.5 8.46 15.04 6 12 6c-.77 0-1.49.17-2.16.46L20.79 17.4c.73-.55 1.21-1.41 1.21-2.4zM2 14c0 2.21 1.79 4 4 4h9.73l-8-8H6c-2.21 0-4 1.79-4 4z" opacity=".3"/><path d="M19.35 10.04C18.67 6.59 15.64 4 12 4c-1.33 0-2.57.36-3.65.97l1.49 1.49C10.51 6.17 11.23 6 12 6c3.04 0 5.5 2.46 5.5 5.5v.5H19c1.66 0 3 1.34 3 3 0 .99-.48 1.85-1.21 2.4l1.41 1.41c1.09-.92 1.8-2.27 1.8-3.81 0-2.64-2.05-4.78-4.65-4.96zM3 5.27l2.77 2.77h-.42C2.34 8.36 0 10.91 0 14c0 3.31 2.69 6 6 6h11.73l2 2 1.41-1.41L4.41 3.86 3 5.27zM7.73 10l8 8H6c-2.21 0-4-1.79-4-4s1.79-4 4-4h1.73z"/></symbol>
<symbol id="cloud_queue" viewBox="0 0 24 24"><path d="M0 0h24v24H0V0z" fill="none"/><path d="M19 12h-1.5v-.5C17.5 8.46 15.04 6 12 6c-2.52 0-4.63 1.69-5.29 4H6c-2.21 0-4 1.79-4 4s1.79 4 4 4h13c1.66 0 3-1.34 3-3s-1.34-3-3-3z" opacity=".3"/><path d="M19.35 10.04C18.67 6.59 15.64 4 12 4 9.11 4 6.6 5.64 5.35 8.04 2.34 8.36 0 10.91 0 14c0 3.31 2.69 6 6 6h13c2.76 0 5-2.24 5-5 0-2.64-2.05-4.78-4.65-4.96zM19 18H6c-2.21 0-4-1.79-4-4s1.79-4 4-4h.71C7.37 7.69 9.48 6 12 6c3.04 0 5.5 2.46 5.5 5.5v.5H19c1.66 0 3 1.34 3 3s-1.34 3-3 3z"/></symbol>
<symbol id="cloud_upload" viewBox="0 0 24 24"><path d="M0 0h24v24H0V0z" fill="none"/><path d="M19.21 12.04l-1.53-.11-.3-1.5C16.88 7.86 14.62 6 12 6 9.94 6 8.08 7.14 7.12 8.96l-.5.95-1.07.11C3.53 10.24 2 11.95 2 14c0 2.21 1.79 4 4 4h13c1.65 0 3-1.35 3-3 0-1.55-1.22-2.86-2.79-2.96zm-5.76.96v3h-2.91v-3H8l4-4 4 4h-2.55z" opacity=".3"/><path d="M19.35 10.04C18.67 6.59 15.64 4 12 4 9.11 4 6.6 5.64 5.35 8.04 2.34 8.36 0 10.91 0 14c0 3.31 2.69 6 6 6h13c2.76 0 5-2.24 5-5 0-2.64-2.05-4.78-4.65-4.96zM19 18H6c-2.21 0-4-1.79-4-4 0-2.05 1.53-3.76 3.56-3.97l1.07-.11.5-.95C8.08 7.14 9.94 6 12 6c2.62 0 4.88 1.86 5.39 4.43l.3 1.5 1.53.11c1.56.1 2.78 1.41 2.78 2.96 0 1.65-1.35 3-3 3zM8 13h2.55v3h2.9v-3H16l-4-4z"/></symbol>
<symbol id="create_new_folder" viewBox="0 0 24 24"><path d="M0 0h24v24H0V0z" fill="none"/><path d="M11.17 8l-.59-.59L9.17 6H4v12h16V8h-8.83zM14 10h2v2h2v2h-2v2h-2v-2h-2v-2h2v-2z" opacity=".3"/><path d="M20 6h-8l-2-2H4c-1.11 0-1.99.89-1.99 2L2 18c0 1.11.89 2 2 2h16c1.11 0 2-.89 2-2V8c0-1.11-.89-2-2-2zm0 12H4V6h5.17l1.41 1.41.59.59H20v10zm-8-4h2v2h2v-2h2v-2h-2v-2h-2v2h-2z"/></symbol>
<symbol id="download" viewBox="0 0 24 24"><path d="M0 0h24v24H0V0z" fill="none"/><path d="M13 9V5h-2v6H9.83L12 13.17 14.17 11H13z" opacity=".3"/><path d="M15 9V3H9v6H5l7 7 7-7h-4zm-3 4.17L9.83 11H11V5h2v6h1.17L12 13.17zM5 18h14v2H5z"/></symbol>
<symbol id="download_done" viewBox="0 0 24 24"><path d="M0 0h24v24H0V0z" fill="none"/><path d="M5 18h14v2H5v-2zm4.6-2.7L5 10.7l2-1.9 2.6 2.6L17 4l2 2-9.4 9.3z"/></symbol>
<symbol id="folder" viewBox="0 0 24 24"><path d="M0 0h24v24H0V0z" fill="none"/><path d="M11.17 8l-.58-.59L9.17 6H4v12h16V8h-8z" opacity=".3"/><path d="M20 6h-8l-2-2H4c-1.1 0-1.99.9-1.99 2L2 18c0 1.1.9 2 2 2h16c1.1 0 2-.9 2-2V8c0-1.1-.9-2-2-2zm0 12H4V6h5.17l1.41 1.41.59.59H20v10z"/></symbol>
<symbol id="folder_open" viewBox="0 0 24 24"><path d="M0 0h24v24H0V0z" fill="none"/><path d="M4 8h16v10H4z" opacity=".3"/><path d="M20 6h-8l-2-2H4c-1.1 0-1.99.9-1.99 2L2 18c0 1.1.9 2 2 2h16c1.1 0 2-.9 2-2V8c0-1.1-.9-2-2-2zm0 12H4V8h16v10z"/></symbol>
<symbol id="folder_shared" viewBox="0 0 24 24"><path d="M0 0h24v24H0V0z" fill="none"/><path d="M11.17 8l-.59-.59L9.17 6H4v12h16V8h-8.83zM19 16v1h-8v-1c0-1.33 2.67-2 4-2s4 .67 4 2zm-4-7c1.1 0 2 .9 2 2s-.9 2-2 2-2-.9-2-2 .9-2 2-2z" opacity=".3"/><path d="M20 6h-8l-2-2H4c-1.1 0-1.99.9-1.99 2L2 18c0 1.1.9 2 2 2h16c1.1 0 2-.9 2-2V8c0-1.1-.9-2-2-2zm0 12H4V6h5.17l2 2H20v10zm-5-5c1.1 0 2-.9 2-2s-.9-2-2-2-2 .9-2 2 .9 2 2 2zm-4 3v1h8v-1c0-1.33-2.67-2-4-2s-4 .67-4 2z"/></symbol>
<symbol id="request_quote" viewBox="0 0 24 24"><g><rect fill="none" height="24" width="24"/><path d="M6,20V4h7v4h5v12H6z M11,19h2v-1h1c0.55,0,1-0.45,1-1v-3c0-0.55-0.45-1-1-1h-3v-1h4v-2h-2V9h-2v1h-1 c-0.55,0-1,0.45-1,1v3c0,0.55,0.45,1,1,1h3v1H9v2h2V19z" opacity=".3"/><path d="M14,2H6C4.9,2,4,2.9,4,4v16c0,1.1,0.9,2,2,2h12c1.1,0,2-0.9,2-2V8L14,2z M6,20V4h7v4h5v12H6z M11,19h2v-1h1 c0.55,0,1-0.45,1-1v-3c0-0.55-0.45-1-1-1h-3v-1h4v-2h-2V9h-2v1h-1c-0.55,0-1,0.45-1,1v3c0,0.55,0.45,1,1,1h3v1H9v2h2V19z"/></g></symbol>
<symbol id="rule_folder" viewBox="0 0 24 24"><g><rect fill="none" height="24" width="24"/><path d="M11.17,8l-2-2H4v12l16,0V8H11.17z M7.83,16L5,13.17l1.41-1.41l1.41,1.41l3.54-3.54l1.41,1.41L7.83,16z M19,14.59L17.59,16L16,14.41L14.41,16L13,14.59L14.59,13L13,11.41L14.41,10L16,11.59L17.59,10L19,11.41L17.41,13L19,14.59z" opacity=".3"/><path d="M7.83,16L5,13.17l1.41-1.41l1.41,1.41l3.54-3.54l1.41,1.41L7.83,16z M17.41,13L19,14.59L17.59,16L16,14.41L14.41,16 L13,14.59L14.59,13L13,11.41L14.41,10L16,11.59L17.59,10L19,11.41L17.41,13z M20,6h-8l-2-2H4C2.9,4,2.01,4.9,2.01,6L2,18 c0,1.1,0.9,2,2,2h16c1.1,0,2-0.9,2-2V8C22,6.9,21.1,6,20,6z M20,18L4,18V6h5.17l2,2H20V18z"/></g></symbol>
<symbol id="snippet_folder" viewBox="0 0 24 24"><g><rect fill="none" height="24" width="24"/><path d="M9.17,6H4v12l16,0V8h-8.83L9.17,6z" opacity=".3"/><path d="M20,6h-8l-2-2H4C2.9,4,2.01,4.9,2.01,6L2,18c0,1.1,0.9,2,2,2h16c1.1,0,2-0.9,2-2V8C22,6.9,21.1,6,20,6z M20,18L4,18V6h5.17 l2,2H20V18z M17.5,12.12v3.38l-3,0v-5h1.38L17.5,12.12z M16.5,9H13v8l6,0v-5.5L16.5,9L16.5,9z"/></g></symbol>
<symbol id="text_snippet" viewBox="0 0 24 24"><g><rect fill="none" height="24" width="24"/><path d="M14.17,5L19,9.83V19H5V5L14.17,5L14.17,5 M7,15h10v2H7V15z M7,11h10v2H7V11z M7,7h7v2H7V7z" opacity=".3"/><path d="M14.17,5L19,9.83V19H5V5L14.17,5L14.17,5 M14.17,3H5C3.9,3,3,3.9,3,5v14c0,1.1,0.9,2,2,2h14c1.1,0,2-0.9,2-2V9.83 c0-0.53-0.21-1.04-0.59-1.41l-4.83-4.83C15.21,3.21,14.7,3,14.17,3L14.17,3z M7,15h10v2H7V15z M7,11h10v2H7V11z M7,7h7v2H7V7z"/></g></symbol>
<symbol id="topic" viewBox="0 0 24 24"><g><rect fill="none" height="24" width="24"/><path d="M20,18L4,18V6h5.17l2,2H20V18z M18,12H6v-2h12V12z M14,16H6v-2h8V16z" opacity=".3"/><path d="M20,6h-8l-2-2H4C2.9,4,2.01,4.9,2.01,6L2,18c0,1.1,0.9,2,2,2h16.77c0.68,0,1.23-0.56,1.23-1.23V8C22,6.9,21.1,6,20,6z M20,18L4,18V6h5.17l2,2H20V18z M18,12H6v-2h12V12z M14,16H6v-2h8V16z"/></g></symbol>
<symbol id="upload" viewBox="0 0 24 24"><path d="M0 0h24v24H0V0z" fill="none"/><path d="M9.83 8H11v6h2V8h1.17L12 5.83z" opacity=".3"/><path d="M12 3l-7 7h4v6h6v-6h4l-7-7zm1 5v6h-2V8H9.83L12 5.83 14.17 8H13zM5 18h14v2H5z"/></symbol>
</svg>