<svg xmlns="http://www.w3.org/2000/svg">
<symbol id="browser_not_supported" viewBox="0 0 24 24"><g><rect fill="none" height="24" width="24"/></g><g><g><path d="M19,6v10.5l1.95,1.95C20.98,18.3,21,18.15,21,18V6c0-1.1-0.9-2-2-2H6.5l2,2H19z"/><path d="M3.22,3.32L1.95,4.59L3,5.64L3,18c0,1.1,0.9,2,2,2h12.36l2.06,2.06l1.27-1.27L3.22,3.32z M15,18H5V7.64L15.36,18H15z"/></g></g></symbol>
<symbol id="cast" viewBox="0 0 24 24"><path d="M0 0h24v24H0V0zm0 0h24v24H0V0z" fill="none"/><path d="M21 3H3c-1.1 0-2 .9-2 2v3h2V5h18v14h-7v2h7c1.1 0 2-.9 2-2V5c0-1.1-.9-2-2-2zM1 18v3h3c0-1.66-1.34-3-3-3zm0-4v2c2.76 0 5 2.24 5 5h2c0-3.87-3.13-7-7-7zm0-4v2c4.97 0 9 4.03 9 9h2c0-6.08-4.93-11-11-11z"/></symbol>
<symbol id="cast_connected" viewBox="0 0 24 24"><path d="M0 0h24v24H0V0zm0 0h24v24H0V0z" fill="none"/><path d="M17 9H5.95c2.83 1.17 5.15 3.3 6.56 6H17V9z" opacity=".3"/><path d="M1 18v3h3c0-1.66-1.34-3-3-3zm0-4v2c2.76 0 5 2.24 5 5h2c0-3.87-3.13-7-7-7zm0-4v2c4.97 0 9 4.03 9 9h2c0-6.08-4.93-11-11-11zm20-7H3c-1.1 0-2 .9-2 2v3h2V5h18v14h-7v2h7c1.1 0 2-.9 2-2V5c0-1.1-.9-2-2-2zM5 7v1.63c.32.1.63.24.95.37H17v6h-4.49c.15.29.29.58.42.88.16.36.31.74.44 1.12H19V7H5z"/></symbol>
<symbol id="cast_for_education" viewBox="0 0 24 24"><path d="M0 0h24v24H0V0z" fill="none"/><path d="M21 3H3c-1.1 0-2 .9-2 2v3h2V5h18v14h-7v2h7c1.1 0 2-.9 2-2V5c0-1.1-.9-2-2-2zM1 18v3h3c0-1.66-1.34-3-3-3zm0-4v2c2.76 0 5 2.24 5 5h2c0-3.87-3.13-7-7-7zm0-4v2c4.97 0 9 4.03 9 9h2c0-6.08-4.93-11-11-11zm10 1.09v2L14.5 15l3.5-1.91v-2L14.5 13 11 11.09zM14.5 6L9 9l5.5 3L20 9l-5.5-3z"/></symbol>
<symbol id="computer" viewBox="0 0 24 24"><path d="M0 0h24v24H0V0z" fill="none"/><path d="M4 6h16v10H4z" opacity=".3"/><path d="M20 18c1.1 0 1.99-.9 1.99-2L22 6c0-1.1-.9-2-2-2H4c-1.1 0-2 .9-2 2v10c0 1.1.9 2 2 2H0v2h24v-2h-4zM4 6h16v10H4V6z"/></symbol>
<symbol id="desktop_mac" viewBox="0 0 24 24"><path d="M0 0h24v24H0V0z" fill="none"/><path d="M3 4h18v10H3z" opacity=".3"/><path d="M21 2H3c-1.1 0-2 .9-2 2v12c0 1.1.9 2 2 2h7l-2 3v1h8v-1l-2-3h7c1.1 0 2-.9 2-2V4c0-1.1-.9-2-2-2zm0 12H3V4h18v10z"/></symbol>
<symbol id="desktop_windows" viewBox="0 0 24 24"><path d="M0 0h24v24H0V0z" fill="none"/><path d="M3 4h18v12H3z" opacity=".3"/><path d="M21 2H3c-1.1 0-2 .9-2 2v12c0 1.1.9 2 2 2h7v2H8v2h8v-2h-2v-2h7c1.1 0 2-.9 2-2V4c0-1.1-.9-2-2-2zm0 14H3V4h18v12z"/></symbol>
<symbol id="developer_board" viewBox="0 0 24 24"><path d="M0 0h24v24H0V0zm0 0h24v24H0V0z" fill="none"/><path d="M4 19h14V5H4v14zm8-12h4v3h-4V7zm0 4h4v6h-4v-6zM6 7h5v5H6V7zm0 6h5v4H6v-4z" opacity=".3"/><path d="M6 13h5v4H6zm0-6h5v5H6zm6 0h4v3h-4zm0 4h4v6h-4zm10-2V7h-2V5c0-1.1-.9-2-2-2H4c-1.1 0-2 .9-2 2v14c0 1.1.9 2 2 2h14c1.1 0 2-.9 2-2v-2h2v-2h-2v-2h2v-2h-2V9h2zm-4 10H4V5h14v14z"/></symbol>
<symbol id="devices_other" viewBox="0 0 24 24"><path d="M0 0h24v24H0V0z" fill="none"/><path d="M17 10h4v8h-4z" opacity=".3"/><circle cx="11" cy="16" opacity=".3" r="1.5"/><path d="M3 6h18V4H3c-1.1 0-2 .9-2 2v12c0 1.1.9 2 2 2h4v-2H3V6zm19 2h-6c-.5 0-1 .5-1 1v10c0 .5.5 1 1 1h6c.5 0 1-.5 1-1V9c0-.5-.5-1-1-1zm-1 10h-4v-8h4v8zm-8-6H9v1.78c-.61.55-1 1.33-1 2.22s.39 1.67 1 2.22V20h4v-1.78c.61-.55 1-1.34 1-2.22s-.39-1.67-1-2.22V12zm-2 5.5c-.83 0-1.5-.67-1.5-1.5s.67-1.5 1.5-1.5 1.5.67 1.5 1.5-.67 1.5-1.5 1.5z"/></symbol>
<symbol id="device_hub" viewBox="0 0 24 24"><path d="M0 0h24v24H0V0zm0 0h24v24H0V0z" fill="none"/><path d="M17 16l-4-4V8.82C14.16 8.4 15 7.3 15 6c0-1.66-1.34-3-3-3S9 4.34 9 6c0 1.3.84 2.4 2 2.82V12l-4 4H3v5h5v-3.05l4-4.2 4 4.2V21h5v-5h-4z"/></symbol>
<symbol id="device_unknown" viewBox="0 0 24 24"><path d="M0 0h24v24H0V0z" fill="none"/><path d="M7 19h10V5H7v14zm6-1h-2v-2h2v2zM12 6.72c1.96 0 3.5 1.51 3.5 3.47 0 2.26-2.62 2.49-2.62 4.45h-1.76c0-2.88 2.63-2.7 2.63-4.45 0-.93-.82-1.75-1.75-1.75s-1.75.82-1.75 1.75H8.5c0-1.95 1.54-3.47 3.5-3.47z" opacity=".3"/><path d="M11 16h2v2h-2zm6-15H7c-1.1 0-2 .9-2 2v18c0 1.1.9 2 2 2h10c1.1 0 2-.9 2-2V3c0-1.1-.9-2-2-2zm0 18H7V5h10v14zM12 8.44c.93 0 1.75.82 1.75 1.75 0 1.75-2.63 1.57-2.63 4.45h1.76c0-1.96 2.62-2.19 2.62-4.45 0-1.96-1.54-3.47-3.5-3.47s-3.5 1.52-3.5 3.47h1.75c0-.93.82-1.75 1.75-1.75z"/></symbol>
<symbol id="dock" viewBox="0 0 24 24"><path d="M0 0h24v24H0V0z" fill="none"/><path d="M8 5h8v10H8z" opacity=".3"/><path d="M8 21h8v2H8zm8-19.99L8 1c-1.1 0-2 .9-2 2v14c0 1.1.9 2 2 2h8c1.1 0 2-.9 2-2V3c0-1.1-.9-1.99-2-1.99zM16 15H8V5h8v10z"/></symbol>
<symbol id="gamepad" viewBox="0 0 24 24"><path d="M0 0h24v24H0V0z" fill="none"/><path d="M6.67 11H4v2h2.67l1-1zM13 6.67V4h-2v2.67l1 1zm-2 10.66V20h2v-2.67l-1-1zM16.33 12l1 1H20v-2h-2.67z" opacity=".3"/><path d="M9 16.5V22h6v-5.5l-3-3-3 3zm4 3.5h-2v-2.67l1-1 1 1V20zm2-12.5V2H9v5.5l3 3 3-3zM11 4h2v2.67l-1 1-1-1V4zM7.5 9H2v6h5.5l3-3-3-3zm-.83 4H4v-2h2.67l1 1-1 1zm9.83-4l-3 3 3 3H22V9h-5.5zm3.5 4h-2.67l-1-1 1-1H20v2z"/></symbol>
<symbol id="headset" viewBox="0 0 24 24"><path d="M0 0h24v24H0V0z" fill="none"/><path d="M17 18h1c.55 0 1-.45 1-1v-3h-2v4zM5 17c0 .55.45 1 1 1h1v-4H5v3z" opacity=".3"/><path d="M12 1c-4.97 0-9 4.03-9 9v7c0 1.66 1.34 3 3 3h3v-8H5v-2c0-3.87 3.13-7 7-7s7 3.13 7 7v2h-4v8h3c1.66 0 3-1.34 3-3v-7c0-4.97-4.03-9-9-9zM7 14v4H6c-.55 0-1-.45-1-1v-3h2zm12 3c0 .55-.45 1-1 1h-1v-4h2v3z"/></symbol>
<symbol id="headset_mic" viewBox="0 0 24 24"><path d="M0 0h24v24H0V0z" fill="none"/><path d="M5 17c0 .55.45 1 1 1h1v-4H5v3zm12-3h2v4h-2z" opacity=".3"/><path d="M12 1c-4.97 0-9 4.03-9 9v7c0 1.66 1.34 3 3 3h3v-8H5v-2c0-3.87 3.13-7 7-7s7 3.13 7 7v2h-4v8h4v1h-7v2h6c1.66 0 3-1.34 3-3V10c0-4.97-4.03-9-9-9zM7 14v4H6c-.55 0-1-.45-1-1v-3h2zm12 4h-2v-4h2v4z"/></symbol>
<symbol id="keyboard" viewBox="0 0 24 24"><path d="M0 0h24v24H0V0zm0 0h24v24H0V0z" fill="none"/><path d="M4 17h16V7H4v10zm13-9h2v2h-2V8zm0 3h2v2h-2v-2zm-3-3h2v2h-2V8zm0 3h2v2h-2v-2zm-3-3h2v2h-2V8zm0 3h2v2h-2v-2zM8 8h2v2H8V8zm0 3h2v2H8v-2zm0 3h8v2H8v-2zM5 8h2v2H5V8zm0 3h2v2H5v-2z" opacity=".3"/><path d="M20 5H4c-1.1 0-1.99.9-1.99 2L2 17c0 1.1.9 2 2 2h16c1.1 0 2-.9 2-2V7c0-1.1-.9-2-2-2zm0 12H4V7h16v10zm-9-9h2v2h-2zm0 3h2v2h-2zM8 8h2v2H8zm0 3h2v2H8zm-3 0h2v2H5zm0-3h2v2H5zm3 6h8v2H8zm6-3h2v2h-2zm0-3h2v2h-2zm3 3h2v2h-2zm0-3h2v2h-2z"/></symbol>
<symbol id="keyboard_arrow_down" viewBox="0 0 24 24"><path d="M0 0h24v24H0V0z" fill="none"/><path d="M7.41 8.59L12 13.17l4.59-4.58L18 10l-6 6-6-6 1.41-1.41z"/></symbol>
<symbol id="keyboard_arrow_left" viewBox="0 0 24 24"><path d="M0 0h24v24H0V0z" fill="none"/><path d="M15.41 16.59L10.83 12l4.58-4.59L14 6l-6 6 6 6 1.41-1.41z"/></symbol>
<symbol id="keyboard_arrow_right" viewBox="0 0 24 24"><path d="M0 0h24v24H0V0z" fill="none"/><path d="M8.59 16.59L13.17 12 8.59 7.41 10 6l6 6-6 6-1.41-1.41z"/></symbol>
<symbol id="keyboard_arrow_up" viewBox="0 0 24 24"><path d="M0 0h24v24H0V0z" fill="none"/><path d="M7.41 15.41L12 10.83l4.59 4.58L18 14l-6-6-6 6 1.41 1.41z"/></symbol>
<symbol id="keyboard_backspace" viewBox="0 0 24 24"><path d="M0 0h24v24H0V0z" fill="none"/><path d="M21 11H6.83l3.58-3.59L9 6l-6 6 6 6 1.41-1.41L6.83 13H21v-2z"/></symbol>
<symbol id="keyboard_capslock" viewBox="0 0 24 24"><path d="M0 0h24v24H0V0z" fill="none"/><path d="M12 8.41L16.59 13 18 11.59l-6-6-6 6L7.41 13 12 8.41zM6 18h12v-2H6v2z"/></symbol>
<symbol id="keyboard_hide" viewBox="0 0 24 24"><path d="M0 0h24v24H0V0z" fill="none"/><path d="M4 15h16V5H4v10zm13-9h2v2h-2V6zm0 3h2v2h-2V9zm-3-3h2v2h-2V6zm0 3h2v2h-2V9zm-3-3h2v2h-2V6zm0 3h2v2h-2V9zM8 6h2v2H8V6zm0 3h2v2H8V9zm0 3h8v2H8v-2zM5 6h2v2H5V6zm0 3h2v2H5V9z" opacity=".3"/><path d="M20 3H4c-1.1 0-1.99.9-1.99 2L2 15c0 1.1.9 2 2 2h16c1.1 0 2-.9 2-2V5c0-1.1-.9-2-2-2zm0 12H4V5h16v10zm-9-9h2v2h-2zm0 3h2v2h-2zM8 6h2v2H8zm0 3h2v2H8zM5 9h2v2H5zm0-3h2v2H5zm3 6h8v2H8zm6-3h2v2h-2zm0-3h2v2h-2zm3 3h2v2h-2zm0-3h2v2h-2zm-5 17l4-4H8l4 4z"/></symbol>
<symbol id="keyboard_return" viewBox="0 0 24 24"><path d="M0 0h24v24H0V0z" fill="none"/><path d="M19 7v4H5.83l3.58-3.59L8 6l-6 6 6 6 1.41-1.41L5.83 13H21V7h-2z"/></symbol>
<symbol id="keyboard_tab" viewBox="0 0 24 24"><path d="M0 0h24v24H0V0z" fill="none"/><path d="M11.59 7.41L15.17 11H1v2h14.17l-3.59 3.59L13 18l6-6-6-6-1.41 1.41zM20 6v12h2V6h-2z"/></symbol>
<symbol id="keyboard_voice" viewBox="0 0 24 24"><path d="M0 0h24v24H0V0z" fill="none"/><path d="M12 13.3c.66 0 1.19-.54 1.19-1.2l.01-6.2c0-.66-.54-1.2-1.2-1.2s-1.2.54-1.2 1.2v6.2c0 .66.54 1.2 1.2 1.2z" opacity=".3"/><path d="M12 15c1.66 0 2.99-1.34 2.99-3L15 6c0-1.66-1.34-3-3-3S9 4.34 9 6v6c0 1.66 1.34 3 3 3zm-1.2-9.1c0-.66.54-1.2 1.2-1.2s1.2.54 1.2 1.2l-.01 6.2c0 .66-.53 1.2-1.19 1.2s-1.2-.54-1.2-1.2V5.9zm6.5 6.1c0 3-2.54 5.1-5.3 5.1S6.7 15 6.7 12H5c0 3.41 2.72 6.23 6 6.72V22h2v-3.28c3.28-.48 6-3.3 6-6.72h-1.7z"/></symbol>
<symbol id="laptop" viewBox="0 0 24 24"><g><rect fill="none" height="24" width="24" x="0"/></g><g><g><path d="M4,6h16v10H4V6z" enable-background="new" opacity=".3"/><path d="M20,18c1.1,0,2-0.9,2-2V6c0-1.1-0.9-2-2-2H4C2.9,4,2,4.9,2,6v10c0,1.1,0.9,2,2,2H0v2h24v-2H20z M4,6h16v10H4V6z"/></g></g></symbol>
<symbol id="laptop_chromebook" viewBox="0 0 24 24"><path d="M0 0h24v24H0V0z" fill="none"/><path d="M4 5h16v10H4z" opacity=".3"/><path d="M22 18V3H2v15H0v2h24v-2h-2zm-8 0h-4v-1h4v1zm6-3H4V5h16v10z"/></symbol>
<symbol id="laptop_mac" viewBox="0 0 24 24"><path d="M0 0h24v24H0V0z" fill="none"/><path d="M4 5h16v11H4z" opacity=".3"/><path d="M20 18c1.1 0 1.99-.9 1.99-2L22 5c0-1.1-.9-2-2-2H4c-1.1 0-2 .9-2 2v11c0 1.1.9 2 2 2H0c0 1.1.9 2 2 2h20c1.1 0 2-.9 2-2h-4zM4 5h16v11H4V5zm8 14c-.55 0-1-.45-1-1s.45-1 1-1 1 .45 1 1-.45 1-1 1z"/></symbol>
<symbol id="laptop_windows" viewBox="0 0 24 24"><path d="M0 0h24v24H0V0z" fill="none"/><path d="M4 5h16v10H4z" opacity=".3"/><path d="M20 18v-1c1.1 0 1.99-.9 1.99-2L22 5c0-1.1-.9-2-2-2H4c-1.1 0-2 .9-2 2v10c0 1.1.9 2 2 2v1H0v2h24v-2h-4zM4 5h16v10H4V5z"/></symbol>
<symbol id="memory" viewBox="0 0 24 24"><path d="M0 0h24v24H0V0z" fill="none"/><path d="M7 17h10V7H7v10zm2-8h6v6H9V9z" opacity=".3"/><path d="M21 11V9h-2V7c0-1.1-.9-2-2-2h-2V3h-2v2h-2V3H9v2H7c-1.1 0-2 .9-2 2v2H3v2h2v2H3v2h2v2c0 1.1.9 2 2 2h2v2h2v-2h2v2h2v-2h2c1.1 0 2-.9 2-2v-2h2v-2h-2v-2h2zm-4 6H7V7h10v10zm-2-8H9v6h6V9zm-2 4h-2v-2h2v2z"/></symbol>
<symbol id="mouse" viewBox="0 0 24 24"><path d="M0 0h24v24H0V0z" fill="none"/><path d="M13 3.16V9h5c-.04-2.94-2.19-5.37-5-5.84zm-2 0C8.19 3.63 6.04 6.06 6 9h5V3.16zM11 11H6v4c0 3.31 2.69 6 6 6s6-2.69 6-6v-4h-7z" opacity=".3"/><path d="M20 9c-.04-4.39-3.6-7.93-8-7.93S4.04 4.61 4 9v6c0 4.42 3.58 8 8 8s8-3.58 8-8V9zm-7-5.84c2.81.47 4.96 2.9 5 5.84h-5V3.16zm-2 0V9H6c.04-2.94 2.19-5.37 5-5.84zM18 15c0 3.31-2.69 6-6 6s-6-2.69-6-6v-4h12v4z"/></symbol>
<symbol id="phonelink" viewBox="0 0 24 24"><path d="M0 0h24v24H0V0z" fill="none"/><path d="M18 10h4v7h-4z" opacity=".3"/><path d="M4 6h18V4H4c-1.1 0-2 .9-2 2v11H0v3h14v-3H4V6zm19 2h-6c-.55 0-1 .45-1 1v10c0 .55.45 1 1 1h6c.55 0 1-.45 1-1V9c0-.55-.45-1-1-1zm-1 9h-4v-7h4v7z"/></symbol>
<symbol id="phonelink_off" viewBox="0 0 24 24"><path d="M0 0h24v24H0V0zm0 0h24v24H0V0z" fill="none"/><path d="M22 17v-7h-4v4.61L20.39 17z" opacity=".3"/><path d="M23 8h-6c-.55 0-1 .45-1 1v3.61l2 2V10h4v7h-1.61l2.93 2.93c.39-.13.68-.49.68-.93V9c0-.55-.45-1-1-1zm-1-2V4H7.39l2 2zM.65 2.92l1.82 1.82C2.18 5.08 2 5.52 2 6v11H0v3h17.73l2.35 2.35 1.41-1.41L2.06 1.51.65 2.92zM4 6.27L14.73 17H4V6.27z"/></symbol>
<symbol id="phone_android" viewBox="0 0 24 24"><path d="M0 0h24v24H0V0z" fill="none"/><path d="M7 4h10v14H7z" opacity=".3"/><path d="M16 1H8C6.34 1 5 2.34 5 4v16c0 1.66 1.34 3 3 3h8c1.66 0 3-1.34 3-3V4c0-1.66-1.34-3-3-3zm-2 20h-4v-1h4v1zm3-3H7V4h10v14z"/></symbol>
<symbol id="phone_iphone" viewBox="0 0 24 24"><path d="M0 0h24v24H0V0z" fill="none"/><path d="M7 4h9v14H7z" opacity=".3"/><path d="M15.5 1h-8C6.12 1 5 2.12 5 3.5v17C5 21.88 6.12 23 7.5 23h8c1.38 0 2.5-1.12 2.5-2.5v-17C18 2.12 16.88 1 15.5 1zm-4 21c-.83 0-1.5-.67-1.5-1.5s.67-1.5 1.5-1.5 1.5.67 1.5 1.5-.67 1.5-1.5 1.5zm4.5-4H7V4h9v14z"/></symbol>
<symbol id="point_of_sale" viewBox="0 0 24 24"><g><rect fill="none" height="24" width="24"/><path d="M9.5,16h-1C8.22,16,8,15.78,8,15.5C8,15.22,8.22,15,8.5,15h1c0.28,0,0.5,0.22,0.5,0.5 C10,15.78,9.78,16,9.5,16z M10,13.5c0-0.28-0.22-0.5-0.5-0.5h-1C8.22,13,8,13.22,8,13.5C8,13.78,8.22,14,8.5,14h1 C9.78,14,10,13.78,10,13.5z M10,11.5c0-0.28-0.22-0.5-0.5-0.5h-1C8.22,11,8,11.22,8,11.5C8,11.78,8.22,12,8.5,12h1 C9.78,12,10,11.78,10,11.5z M13,15.5c0-0.28-0.22-0.5-0.5-0.5h-1c-0.28,0-0.5,0.22-0.5,0.5c0,0.28,0.22,0.5,0.5,0.5h1 C12.78,16,13,15.78,13,15.5z M13,13.5c0-0.28-0.22-0.5-0.5-0.5h-1c-0.28,0-0.5,0.22-0.5,0.5c0,0.28,0.22,0.5,0.5,0.5h1 C12.78,14,13,13.78,13,13.5z M13,11.5c0-0.28-0.22-0.5-0.5-0.5h-1c-0.28,0-0.5,0.22-0.5,0.5c0,0.28,0.22,0.5,0.5,0.5h1 C12.78,12,13,11.78,13,11.5z M16,15.5c0-0.28-0.22-0.5-0.5-0.5h-1c-0.28,0-0.5,0.22-0.5,0.5c0,0.28,0.22,0.5,0.5,0.5h1 C15.78,16,16,15.78,16,15.5z M16,13.5c0-0.28-0.22-0.5-0.5-0.5h-1c-0.28,0-0.5,0.22-0.5,0.5c0,0.28,0.22,0.5,0.5,0.5h1 C15.78,14,16,13.78,16,13.5z M16,11.5c0-0.28-0.22-0.5-0.5-0.5h-1c-0.28,0-0.5,0.22-0.5,0.5c0,0.28,0.22,0.5,0.5,0.5h1 C15.78,12,16,11.78,16,11.5z M17,4H7v2h10V4z" opacity=".3"/><path d="M17,2H7C5.9,2,5,2.9,5,4v2c0,1.1,0.9,2,2,2h10c1.1,0,2-0.9,2-2V4C19,2.9,18.1,2,17,2z M17,6H7V4h10V6z M20,22H4 c-1.1,0-2-0.9-2-2v-1h20v1C22,21.1,21.1,22,20,22z M18.53,10.19C18.21,9.47,17.49,9,16.7,9H7.3c-0.79,0-1.51,0.47-1.83,1.19L2,18 h20L18.53,10.19z M9.5,16h-1C8.22,16,8,15.78,8,15.5C8,15.22,8.22,15,8.5,15h1c0.28,0,0.5,0.22,0.5,0.5C10,15.78,9.78,16,9.5,16z M9.5,14h-1C8.22,14,8,13.78,8,13.5C8,13.22,8.22,13,8.5,13h1c0.28,0,0.5,0.22,0.5,0.5C10,13.78,9.78,14,9.5,14z M9.5,12h-1 C8.22,12,8,11.78,8,11.5C8,11.22,8.22,11,8.5,11h1c0.28,0,0.5,0.22,0.5,0.5C10,11.78,9.78,12,9.5,12z M12.5,16h-1 c-0.28,0-0.5-0.22-0.5-0.5c0-0.28,0.22-0.5,0.5-0.5h1c0.28,0,0.5,0.22,0.5,0.5C13,15.78,12.78,16,12.5,16z M12.5,14h-1 c-0.28,0-0.5-0.22-0.5-0.5c0-0.28,0.22-0.5,0.5-0.5h1c0.28,0,0.5,0.22,0.5,0.5C13,13.78,12.78,14,12.5,14z M12.5,12h-1 c-0.28,0-0.5-0.22-0.5-0.5c0-0.28,0.22-0.5,0.5-0.5h1c0.28,0,0.5,0.22,0.5,0.5C13,11.78,12.78,12,12.5,12z M15.5,16h-1 c-0.28,0-0.5-0.22-0.5-0.5c0-0.28,0.22-0.5,0.5-0.5h1c0.28,0,0.5,0.22,0.5,0.5C16,15.78,15.78,16,15.5,16z M15.5,14h-1 c-0.28,0-0.5-0.22-0.5-0.5c0-0.28,0.22-0.5,0.5-0.5h1c0.28,0,0.5,0.22,0.5,0.5C16,13.78,15.78,14,15.5,14z M15.5,12h-1 c-0.28,0-0.5-0.22-0.5-0.5c0-0.28,0.22-0.5,0.5-0.5h1c0.28,0,0.5,0.22,0.5,0.5C16,11.78,15.78,12,15.5,12z"/></g></symbol>
<symbol id="power_input" viewBox="0 0 24 24"><path d="M0 0h24v24H0V0z" fill="none"/><path d="M2 9v2h19V9H2zm0 6h5v-2H2v2zm7 0h5v-2H9v2zm7 0h5v-2h-5v2z"/></symbol>
<symbol id="router" viewBox="0 0 24 24"><path d="M0 0h24v24H0V0zm0 0h24v24H0V0z" fill="none"/><path d="M15 15H5v4h14v-4h-4zm-7 3H6v-2h2v2zm3.5 0h-2v-2h2v2zm3.5 0h-2v-2h2v2z" opacity=".3"/><path d="M16 4.2c1.5 0 3 .6 4.2 1.7l.8-.8C19.6 3.7 17.8 3 16 3s-3.6.7-5 2.1l.8.8C13 4.8 14.5 4.2 16 4.2zm-3.3 2.5l.8.8c.7-.7 1.6-1 2.5-1s1.8.3 2.5 1l.8-.8c-.9-.9-2.1-1.4-3.3-1.4s-2.4.5-3.3 1.4zM19 13h-2V9h-2v4H5c-1.1 0-2 .9-2 2v4c0 1.1.9 2 2 2h14c1.1 0 2-.9 2-2v-4c0-1.1-.9-2-2-2zm0 6H5v-4h14v4zM6 16h2v2H6zm3.5 0h2v2h-2zm3.5 0h2v2h-2z"/></symbol>
<symbol id="scanner" viewBox="0 0 24 24"><path d="M0 0h24v24H0V0z" fill="none"/><path d="M5 14v4h14v-4H5zm3 3H6v-2h2v2zm10 0h-8v-2h8v2z" opacity=".3"/><path d="M19.8 10.7L4.2 5l-.7 1.9L17.6 12H5c-1.1 0-2 .9-2 2v4c0 1.1.9 2 2 2h14c1.1 0 2-.9 2-2v-5.5c0-.8-.5-1.6-1.2-1.8zM19 18H5v-4h14v4zM6 15h2v2H6zm4 0h8v2h-8z"/></symbol>
<symbol id="security" viewBox="0 0 24 24"><path d="M0 0h24v24H0V0z" fill="none"/><path d="M12 3.19L5 6.3V12h7v8.93c3.72-1.15 6.47-4.82 7-8.94h-7v-8.8z" opacity=".3"/><path d="M12 1L3 5v6c0 5.55 3.84 10.74 9 12 5.16-1.26 9-6.45 9-12V5l-9-4zm0 19.93V12H5V6.3l7-3.11v8.8h7c-.53 4.12-3.28 7.79-7 8.94z"/></symbol>
<symbol id="sim_card" viewBox="0 0 24 24"><path d="M0 0h24v24H0V0z" fill="none"/><path d="M6 8.83V20h12V4h-7.17L6 8.83zM9 19H7v-2h2v2zm0-4H7v-4h2v4zm6-4h2v4h-2v-4zm0 6h2v2h-2v-2zm-4-6h2v2h-2v-2zm0 4h2v4h-2v-4z" opacity=".3"/><path d="M18 2h-8L4 8v12c0 1.1.9 2 2 2h12c1.1 0 2-.9 2-2V4c0-1.1-.9-2-2-2zm0 2v16H6V8.83L10.83 4H18zM7 17h2v2H7zm8 0h2v2h-2zm-8-6h2v4H7zm4 4h2v4h-2zm0-4h2v2h-2zm4 0h2v4h-2z"/></symbol>
<symbol id="smartphone" viewBox="0 0 24 24"><path d="M0 0h24v24H0V0z" fill="none"/><path d="M7 5h10v14H7z" opacity=".3"/><path d="M17 1.01L7 1c-1.1 0-2 .9-2 2v18c0 1.1.9 2 2 2h10c1.1 0 2-.9 2-2V3c0-1.1-.9-1.99-2-1.99zM17 19H7V5h10v14z"/></symbol>
<symbol id="speaker" viewBox="0 0 24 24"><path d="M0 0h24v24H0V0z" fill="none"/><path d="M7 4v16h10V4H7zm5 1c1.1 0 2 .9 2 2s-.9 2-2 2c-1.11 0-2-.9-2-2s.89-2 2-2zm0 14c-2.21 0-4-1.79-4-4s1.79-4 4-4 4 1.79 4 4-1.79 4-4 4z" opacity=".3"/><path d="M17 2H7c-1.1 0-2 .9-2 2v16c0 1.1.9 1.99 2 1.99L17 22c1.1 0 2-.9 2-2V4c0-1.1-.9-2-2-2zM7 20V4h10v16H7zm5-11c1.1 0 2-.9 2-2s-.9-2-2-2c-1.11 0-2 .9-2 2s.89 2 2 2zm0 2c-2.21 0-4 1.79-4 4s1.79 4 4 4 4-1.79 4-4-1.79-4-4-4zm0 6c-1.1 0-2-.9-2-2s.9-2 2-2 2 .9 2 2-.9 2-2 2z"/></symbol>
<symbol id="speaker_group" viewBox="0 0 24 24"><path d="M0 0h24v24H0V0z" fill="none"/><path d="M10 16.99l8 .01V3h-8v13.99zM14 4c1.1 0 2 .89 2 2s-.9 2-2 2-2-.89-2-2 .9-2 2-2zm0 5c1.93 0 3.5 1.57 3.5 3.5S15.93 16 14 16s-3.5-1.57-3.5-3.5S12.07 9 14 9z" opacity=".3"/><path d="M18.2 1H9.8C8.81 1 8 1.81 8 2.8v14.4c0 .99.81 1.79 1.8 1.79l8.4.01c.99 0 1.8-.81 1.8-1.8V2.8c0-.99-.81-1.8-1.8-1.8zM18 17l-8-.01V3h8v14zm-4-9c1.1 0 2-.89 2-2s-.9-2-2-2-2 .89-2 2 .9 2 2 2zm0 8c1.93 0 3.5-1.57 3.5-3.5S15.93 9 14 9s-3.5 1.57-3.5 3.5S12.07 16 14 16zm0-5c.83 0 1.5.67 1.5 1.5S14.83 14 14 14s-1.5-.67-1.5-1.5.67-1.5 1.5-1.5zM6 5H4v16c0 1.1.89 2 2 2h10v-2H6V5z"/></symbol>
<symbol id="tablet" viewBox="0 0 24 24"><path d="M0 0h24v24H0V0z" fill="none"/><path d="M5 6h14v12H5z" opacity=".3"/><path d="M21 4H3c-1.1 0-2 .9-2 2v12c0 1.1.9 2 2 2h18c1.1 0 1.99-.9 1.99-2L23 6c0-1.1-.9-2-2-2zm-2 14H5V6h14v12z"/></symbol>
<symbol id="tablet_android" viewBox="0 0 24 24"><path d="M0 0h24v24H0V0zm0 0h24v24H0V0z" fill="none"/><path d="M4.75 3h14.5v16H4.75z" opacity=".3"/><path d="M18 0H6C4.34 0 3 1.34 3 3v18c0 1.66 1.34 3 3 3h12c1.66 0 3-1.34 3-3V3c0-1.66-1.34-3-3-3zm-4 22h-4v-1h4v1zm5.25-3H4.75V3h14.5v16z"/></symbol>
<symbol id="tablet_mac" viewBox="0 0 24 24"><path d="M0 0h24v24H0V0z" fill="none"/><path d="M4 3h15v16H4z" opacity=".3"/><path d="M18.5 0h-14C3.12 0 2 1.12 2 2.5v19C2 22.88 3.12 24 4.5 24h14c1.38 0 2.5-1.12 2.5-2.5v-19C21 1.12 19.88 0 18.5 0zm-7 23c-.83 0-1.5-.67-1.5-1.5s.67-1.5 1.5-1.5 1.5.67 1.5 1.5-.67 1.5-1.5 1.5zm7.5-4H4V3h15v16z"/></symbol>
<symbol id="toys" viewBox="0 0 24 24"><path d="M0 0h24v24H0V0zm0 0h24v24H0V0z" fill="none"/><path d="M7 16c1.82 0 3.41-1.3 3.87-3H3.13c.46 1.7 2.05 3 3.87 3zm1-9c0 1.82 1.3 3.41 3 3.87V3.13C9.3 3.59 8 5.18 8 7zm9 1c-1.82 0-3.41 1.3-3.87 3h7.74c-.46-1.7-2.05-3-3.87-3zm-4 5.13v7.74c1.7-.46 3-2.04 3-3.87s-1.3-3.41-3-3.87z" opacity=".3"/><path d="M23 12c0-3.25-2.75-6-6-6-1.52 0-2.93.6-4 1.57V1h-1C8.75 1 6 3.75 6 7c0 1.52.6 2.93 1.57 4H1v1c0 3.25 2.75 6 6 6 1.52 0 2.93-.6 4-1.57V23h1c3.25 0 6-2.75 6-6 0-1.52-.6-2.93-1.57-4H23v-1zM7 16c-1.82 0-3.41-1.3-3.87-3h7.74c-.46 1.7-2.05 3-3.87 3zm4-5.13C9.3 10.41 8 8.82 8 7s1.3-3.41 3-3.87v7.74zm2 10v-7.74c1.7.46 3 2.04 3 3.87s-1.3 3.41-3 3.87zm.13-9.87c.46-1.7 2.04-3 3.87-3s3.41 1.3 3.87 3h-7.74z"/></symbol>
<symbol id="tv" viewBox="0 0 24 24"><path d="M0 0h24v24H0V0z" fill="none"/><path d="M3 5h18v12H3z" opacity=".3"/><path d="M21 3H3c-1.1 0-2 .9-2 2v12c0 1.1.9 2 2 2h5v2h8v-2h5c1.1 0 1.99-.9 1.99-2L23 5c0-1.1-.9-2-2-2zm0 14H3V5h18v12z"/></symbol>
<symbol id="videogame_asset" viewBox="0 0 24 24"><path d="M0 0h24v24H0V0z" fill="none"/><path d="M3 16h18V8H3v8zm15.5-7c.83 0 1.5.67 1.5 1.5s-.67 1.5-1.5 1.5-1.5-.67-1.5-1.5.67-1.5 1.5-1.5zm-4 3c.83 0 1.5.67 1.5 1.5s-.67 1.5-1.5 1.5-1.5-.67-1.5-1.5.67-1.5 1.5-1.5zM4 11h2V9h2v2h2v2H8v2H6v-2H4v-2z" opacity=".3"/><path d="M21 6H3c-1.1 0-2 .9-2 2v8c0 1.1.9 2 2 2h18c1.1 0 2-.9 2-2V8c0-1.1-.9-2-2-2zm0 10H3V8h18v8zM6 15h2v-2h2v-2H8V9H6v2H4v2h2z"/><circle cx="14.5" cy="13.5" r="1.5"/><circle cx="18.5" cy="10.5" r="1.5"/></symbol>
<symbol id="watch" viewBox="0 0 24 24"><path d="M0 0h24v24H0V0z" fill="none"/><path d="M14.72 4.48L14.31 2H9.7l-.41 2.47C10.13 4.17 11.05 4 12 4c.96 0 1.87.17 2.72.48zM9.29 19.53L9.7 22h4.61l.41-2.48c-.85.31-1.76.48-2.72.48-.95 0-1.87-.17-2.71-.47z" opacity=".3"/><path d="M16.96 5.73L16 0H8l-.95 5.73C5.19 7.19 4 9.45 4 12s1.19 4.81 3.05 6.27L8 24h8l.96-5.73C18.81 16.81 20 14.54 20 12s-1.19-4.81-3.04-6.27zM9.7 2h4.61l.41 2.48C13.87 4.17 12.96 4 12 4c-.95 0-1.87.17-2.71.47L9.7 2zm4.61 20H9.7l-.41-2.47c.84.3 1.76.47 2.71.47.96 0 1.87-.17 2.72-.48L14.31 22zM12 18c-3.31 0-6-2.69-6-6s2.69-6 6-6 6 2.69 6 6-2.69 6-6 6z"/></symbol>
</svg>