<svg xmlns="http://www.w3.org/2000/svg">
<symbol id="add_a_photo" viewBox="0 0 24 24"><path d="M0 0h24v24H0z" fill="none"/><path d="M6 7v3H5v10h16V8h-4.05l-1.83-2H9v1H6zm7 2c2.76 0 5 2.24 5 5s-2.24 5-5 5-5-2.24-5-5 2.24-5 5-5z" opacity=".3"/><path d="M21 6h-3.17L16 4H9v2h6.12l1.83 2H21v12H5V10H3v10c0 1.1.9 2 2 2h16c1.1 0 2-.9 2-2V8c0-1.1-.9-2-2-2zM8 14c0 2.76 2.24 5 5 5s5-2.24 5-5-2.24-5-5-5-5 2.24-5 5zm5-3c1.65 0 3 1.35 3 3s-1.35 3-3 3-3-1.35-3-3 1.35-3 3-3zM5 9V6h3V4H5V1H3v3H0v2h3v3z"/></symbol>
<symbol id="add_photo_alternate" viewBox="0 0 24 24"><path d="M0 0h24v24H0V0z" fill="none"/><path d="M10.21 16.83l-1.96-2.36L5.5 18h11l-3.54-4.71z"/><path d="M16.5 18h-11l2.75-3.53 1.96 2.36 2.75-3.54L16.5 18zM17 7h-3V6H4v14h14V10h-1V7z" opacity=".3"/><path d="M20 4V1h-2v3h-3v2h3v2.99h2V6h3V4zm-2 16H4V6h10V4H4c-1.1 0-2 .9-2 2v14c0 1.1.9 2 2 2h14c1.1 0 2-.9 2-2V10h-2v10z"/></symbol>
<symbol id="add_to_photos" viewBox="0 0 24 24"><path d="M0 0h24v24H0V0z" fill="none"/><path d="M20 4H8v12h12V4zm-1 7h-4v4h-2v-4H9V9h4V5h2v4h4v2z" opacity=".3"/><path d="M4 22h14v-2H4V6H2v14c0 1.1.9 2 2 2zm4-4h12c1.1 0 2-.9 2-2V4c0-1.1-.9-2-2-2H8c-1.1 0-2 .9-2 2v12c0 1.1.9 2 2 2zM8 4h12v12H8V4zm7 1h-2v4H9v2h4v4h2v-4h4V9h-4z"/></symbol>
<symbol id="adjust" viewBox="0 0 24 24"><path d="M0 0h24v24H0V0z" fill="none"/><path d="M12 9c-1.66 0-3 1.34-3 3s1.34 3 3 3 3-1.34 3-3-1.34-3-3-3zm0-7C6.49 2 2 6.49 2 12s4.49 10 10 10 10-4.49 10-10S17.51 2 12 2zm0 18c-4.41 0-8-3.59-8-8s3.59-8 8-8 8 3.59 8 8-3.59 8-8 8z"/></symbol>
<symbol id="assistant" viewBox="0 0 24 24"><path d="M0 0h24v24H0V0z" fill="none"/><path d="M9.83 18l.59.59L12 20.17l1.59-1.59.58-.58H19V4H5v14h4.83zm.29-8.88L12 5l1.88 4.12L18 11l-4.12 1.88L12 17l-1.88-4.12L6 11l4.12-1.88z" opacity=".3"/><path d="M5 20h4l3 3 3-3h4c1.1 0 2-.9 2-2V4c0-1.1-.9-2-2-2H5c-1.1 0-2 .9-2 2v14c0 1.1.9 2 2 2zM5 4h14v14h-4.83l-.59.59L12 20.17l-1.59-1.59-.58-.58H5V4zm7 13l1.88-4.12L18 11l-4.12-1.88L12 5l-1.88 4.12L6 11l4.12 1.88z"/></symbol>
<symbol id="assistant_photo" viewBox="0 0 24 24"><path d="M0 0h24v24H0V0z" fill="none"/><path d="M14.24 12l.4 2H18V8h-5.24l-.4-2H7v6z" opacity=".3"/><path d="M7 14h5.6l.4 2h7V6h-5.6L14 4H5v17h2v-7zm0-8h5.36l.4 2H18v6h-3.36l-.4-2H7V6z"/></symbol>
<symbol id="audiotrack" viewBox="0 0 24 24"><path d="M0 0h24v24H0V0z" fill="none"/><circle cx="10" cy="17" opacity=".3" r="2"/><path d="M10 21c2.21 0 4-1.79 4-4V7h4V3h-6v10.55c-.59-.34-1.27-.55-2-.55-2.21 0-4 1.79-4 4s1.79 4 4 4zm0-6c1.1 0 2 .9 2 2s-.9 2-2 2-2-.9-2-2 .9-2 2-2z"/></symbol>
<symbol id="bedtime" viewBox="0 0 24 24"><g><rect fill="none" height="24" width="24"/></g><g><g><g opacity=".3"><path d="M9.27,4.49C6.2,5.6,4,8.55,4,12c0,4.41,3.59,8,8,8c1.81,0,3.54-0.62,4.93-1.71C13.02,16.9,7.64,12.03,9.27,4.49z"/></g><path d="M12.34,2.02c-0.12,0-0.23-0.01-0.35-0.01C6.4,2.01,2,6.54,2,12c0,5.52,4.48,10,10,10c3.71,0,6.93-2.02,8.66-5.02 C13.15,16.73,8.57,8.55,12.34,2.02z M12,20c-4.41,0-8-3.59-8-8c0-3.45,2.2-6.4,5.27-7.51c-1.63,7.54,3.75,12.41,7.66,13.8 C15.54,19.38,13.81,20,12,20z"/></g></g></symbol>
<symbol id="blur_circular" viewBox="0 0 24 24"><path d="M0 0h24v24H0V0z" fill="none"/><path d="M14 7.5c.28 0 .5-.22.5-.5s-.22-.5-.5-.5-.5.22-.5.5.22.5.5.5z"/><circle cx="14" cy="10" r="1"/><circle cx="14" cy="14" r="1"/><path d="M10 16.5c-.28 0-.5.22-.5.5s.22.5.5.5.5-.22.5-.5-.22-.5-.5-.5z"/><circle cx="10" cy="10" r="1"/><path d="M7 13.5c-.28 0-.5.22-.5.5s.22.5.5.5.5-.22.5-.5-.22-.5-.5-.5zM12 2C6.48 2 2 6.48 2 12s4.48 10 10 10 10-4.48 10-10S17.52 2 12 2zm0 18c-4.42 0-8-3.58-8-8s3.58-8 8-8 8 3.58 8 8-3.58 8-8 8zM7 9.5c-.28 0-.5.22-.5.5s.22.5.5.5.5-.22.5-.5-.22-.5-.5-.5z"/><circle cx="10" cy="14" r="1"/><path d="M10 7.5c.28 0 .5-.22.5-.5s-.22-.5-.5-.5-.5.22-.5.5.22.5.5.5zm4 9c-.28 0-.5.22-.5.5s.22.5.5.5.5-.22.5-.5-.22-.5-.5-.5zm3-7c-.28 0-.5.22-.5.5s.22.5.5.5.5-.22.5-.5-.22-.5-.5-.5zm0 4c-.28 0-.5.22-.5.5s.22.5.5.5.5-.22.5-.5-.22-.5-.5-.5z"/></symbol>
<symbol id="blur_linear" viewBox="0 0 24 24"><path d="M0 0h24v24H0V0z" fill="none"/><path d="M17 16.5c.28 0 .5-.22.5-.5s-.22-.5-.5-.5-.5.22-.5.5.22.5.5.5z"/><circle cx="9" cy="12" r="1"/><circle cx="13" cy="8" r="1"/><circle cx="13" cy="16" r="1"/><path d="M17 12.5c.28 0 .5-.22.5-.5s-.22-.5-.5-.5-.5.22-.5.5.22.5.5.5z"/><circle cx="13" cy="12" r="1"/><path d="M3 3h18v2H3z"/><circle cx="5" cy="8" r="1.5"/><circle cx="5" cy="12" r="1.5"/><circle cx="5" cy="16" r="1.5"/><path d="M17 8.5c.28 0 .5-.22.5-.5s-.22-.5-.5-.5-.5.22-.5.5.22.5.5.5z"/><circle cx="9" cy="16" r="1"/><circle cx="9" cy="8" r="1"/><path d="M3 19h18v2H3z"/></symbol>
<symbol id="blur_off" viewBox="0 0 24 24"><path d="M0 0h24v24H0V0z" fill="none"/><circle cx="14" cy="6" r="1"/><path d="M13.8 11.48l.2.02c.83 0 1.5-.67 1.5-1.5s-.67-1.5-1.5-1.5-1.5.67-1.5 1.5l.02.2c.09.67.61 1.19 1.28 1.28zM14 3.5c.28 0 .5-.22.5-.5s-.22-.5-.5-.5-.5.22-.5.5.22.5.5.5zm-4 0c.28 0 .5-.22.5-.5s-.22-.5-.5-.5-.5.22-.5.5.22.5.5.5z"/><circle cx="18" cy="10" r="1"/><circle cx="18" cy="6" r="1"/><path d="M21 10.5c.28 0 .5-.22.5-.5s-.22-.5-.5-.5-.5.22-.5.5.22.5.5.5z"/><circle cx="10" cy="6" r="1"/><circle cx="18" cy="14" r="1"/><circle cx="6" cy="18" r="1"/><path d="M14 20.5c-.28 0-.5.22-.5.5s.22.5.5.5.5-.22.5-.5-.22-.5-.5-.5zm7-7c-.28 0-.5.22-.5.5s.22.5.5.5.5-.22.5-.5-.22-.5-.5-.5zm-18 0c-.28 0-.5.22-.5.5s.22.5.5.5.5-.22.5-.5-.22-.5-.5-.5z"/><circle cx="10" cy="18" r="1"/><path d="M3 9.5c-.28 0-.5.22-.5.5s.22.5.5.5.5-.22.5-.5-.22-.5-.5-.5zm7 11c-.28 0-.5.22-.5.5s.22.5.5.5.5-.22.5-.5-.22-.5-.5-.5z"/><circle cx="6" cy="14" r="1"/><path d="M2.5 5.27L6 8.77l.28.28L6 9c-.55 0-1 .45-1 1s.45 1 1 1 1-.45 1-1c0-.1-.03-.19-.06-.28l2.81 2.81c-.71.11-1.25.73-1.25 1.47 0 .83.67 1.5 1.5 1.5.74 0 1.36-.54 1.47-1.25l2.81 2.81c-.09-.03-.18-.06-.28-.06-.55 0-1 .45-1 1s.45 1 1 1 1-.45 1-1c0-.1-.03-.19-.06-.28l3.78 3.78h.01l1.41-1.41L3.91 3.86 2.5 5.27z"/></symbol>
<symbol id="blur_on" viewBox="0 0 24 24"><path d="M0 0h24v24H0z" fill="none"/><circle cx="14" cy="10" r="1.5"/><circle cx="14" cy="18" r="1"/><circle cx="14" cy="14" r="1.5"/><circle cx="14" cy="6" r="1"/><path d="M3 9.5c-.28 0-.5.22-.5.5s.22.5.5.5.5-.22.5-.5-.22-.5-.5-.5zM14.5 3c0-.28-.22-.5-.5-.5s-.5.22-.5.5.22.5.5.5.5-.22.5-.5zM21 14.5c.28 0 .5-.22.5-.5s-.22-.5-.5-.5-.5.22-.5.5.22.5.5.5z"/><circle cx="18" cy="18" r="1"/><path d="M13.5 21c0 .28.22.5.5.5s.5-.22.5-.5-.22-.5-.5-.5-.5.22-.5.5zM21 10.5c.28 0 .5-.22.5-.5s-.22-.5-.5-.5-.5.22-.5.5.22.5.5.5z"/><circle cx="18" cy="14" r="1"/><circle cx="18" cy="6" r="1"/><circle cx="6" cy="18" r="1"/><circle cx="6" cy="14" r="1"/><path d="M3.5 14c0-.28-.22-.5-.5-.5s-.5.22-.5.5.22.5.5.5.5-.22.5-.5z"/><circle cx="10" cy="6" r="1"/><circle cx="6" cy="10" r="1"/><circle cx="6" cy="6" r="1"/><path d="M9.5 21c0 .28.22.5.5.5s.5-.22.5-.5-.22-.5-.5-.5-.5.22-.5.5z"/><circle cx="10" cy="18" r="1"/><path d="M10.5 3c0-.28-.22-.5-.5-.5s-.5.22-.5.5.22.5.5.5.5-.22.5-.5z"/><circle cx="10" cy="14" r="1.5"/><circle cx="10" cy="10" r="1.5"/><circle cx="18" cy="10" r="1"/></symbol>
<symbol id="brightness_1" viewBox="0 0 24 24"><path d="M0 0h24v24H0V0z" fill="none"/><path d="M12 20c4.41 0 8-3.59 8-8s-3.59-8-8-8-8 3.59-8 8 3.59 8 8 8z" opacity=".3"/><path d="M12 22c5.52 0 10-4.48 10-10S17.52 2 12 2 2 6.48 2 12s4.48 10 10 10zm0-18c4.41 0 8 3.59 8 8s-3.59 8-8 8-8-3.59-8-8 3.59-8 8-8z"/></symbol>
<symbol id="brightness_2" viewBox="0 0 24 24"><path d="M0 0h24v24H0V0z" fill="none"/><path d="M18 12c0-4.41-3.59-8-8-8-.34 0-.68.02-1.01.07C10.9 6.23 12 9.05 12 12c0 2.95-1.1 5.77-3.01 7.93.33.05.67.07 1.01.07 4.41 0 8-3.59 8-8z" opacity=".3"/><path d="M5 20.65C6.47 21.5 8.18 22 10 22c5.52 0 10-4.48 10-10S15.52 2 10 2c-1.82 0-3.53.5-5 1.35C7.99 5.08 10 8.3 10 12s-2.01 6.92-5 8.65zM12 12c0-2.95-1.1-5.77-3.01-7.93C9.32 4.02 9.66 4 10 4c4.41 0 8 3.59 8 8s-3.59 8-8 8c-.34 0-.68-.02-1.01-.07C10.9 17.77 12 14.95 12 12z"/></symbol>
<symbol id="brightness_3" viewBox="0 0 24 24"><path d="M0 0h24v24H0V0z" fill="none"/><path d="M12.7 4.91c1.46 2 2.3 4.46 2.3 7.09s-.84 5.09-2.3 7.09C15.25 17.76 17 15.08 17 12s-1.75-5.76-4.3-7.09z" opacity=".3"/><path d="M9 2c-1.05 0-2.05.16-3 .46 4.06 1.27 7 5.06 7 9.54 0 4.48-2.94 8.27-7 9.54.95.3 1.95.46 3 .46 5.52 0 10-4.48 10-10S14.52 2 9 2zm3.7 17.09c1.46-2 2.3-4.46 2.3-7.09s-.84-5.09-2.3-7.09C15.25 6.24 17 8.92 17 12s-1.75 5.76-4.3 7.09z"/></symbol>
<symbol id="brightness_4" viewBox="0 0 24 24"><path d="M0 0h24v24H0V0z" fill="none"/><path d="M18 9.52V6h-3.52L12 3.52 9.52 6H6v3.52L3.52 12 6 14.48V18h3.52L12 20.48 14.48 18H18v-3.52L20.48 12 18 9.52zM12.29 17c-.74 0-1.45-.17-2.08-.46 1.72-.79 2.92-2.52 2.92-4.54s-1.2-3.75-2.92-4.54c.63-.29 1.34-.46 2.08-.46 2.76 0 5 2.24 5 5s-2.24 5-5 5z" opacity=".3"/><path d="M20 8.69V4h-4.69L12 .69 8.69 4H4v4.69L.69 12 4 15.31V20h4.69L12 23.31 15.31 20H20v-4.69L23.31 12 20 8.69zm-2 5.79V18h-3.52L12 20.48 9.52 18H6v-3.52L3.52 12 6 9.52V6h3.52L12 3.52 14.48 6H18v3.52L20.48 12 18 14.48zM12.29 7c-.74 0-1.45.17-2.08.46 1.72.79 2.92 2.53 2.92 4.54s-1.2 3.75-2.92 4.54c.63.29 1.34.46 2.08.46 2.76 0 5-2.24 5-5s-2.24-5-5-5z"/></symbol>
<symbol id="brightness_5" viewBox="0 0 24 24"><path d="M0 0h24v24H0V0z" fill="none"/><path d="M18 9.52V6h-3.52L12 3.52 9.52 6H6v3.52L3.52 12 6 14.48V18h3.52L12 20.48 14.48 18H18v-3.52L20.48 12 18 9.52zm-6 7.98c-3.03 0-5.5-2.47-5.5-5.5S8.97 6.5 12 6.5s5.5 2.47 5.5 5.5-2.47 5.5-5.5 5.5z" opacity=".3"/><path d="M20 8.69V4h-4.69L12 .69 8.69 4H4v4.69L.69 12 4 15.31V20h4.69L12 23.31 15.31 20H20v-4.69L23.31 12 20 8.69zm-2 5.79V18h-3.52L12 20.48 9.52 18H6v-3.52L3.52 12 6 9.52V6h3.52L12 3.52 14.48 6H18v3.52L20.48 12 18 14.48zM12 6.5c-3.03 0-5.5 2.47-5.5 5.5s2.47 5.5 5.5 5.5 5.5-2.47 5.5-5.5-2.47-5.5-5.5-5.5zm0 9c-1.93 0-3.5-1.57-3.5-3.5s1.57-3.5 3.5-3.5 3.5 1.57 3.5 3.5-1.57 3.5-3.5 3.5z"/></symbol>
<symbol id="brightness_6" viewBox="0 0 24 24"><path d="M0 0h24v24H0V0z" fill="none"/><path d="M18 9.52V6h-3.52L12 3.52 9.52 6H6v3.52L3.52 12 6 14.48V18h3.52L12 20.48 14.48 18H18v-3.52L20.48 12 18 9.52zm-6 7.98v-11c3.03 0 5.5 2.47 5.5 5.5s-2.47 5.5-5.5 5.5z" opacity=".3"/><path d="M20 8.69V4h-4.69L12 .69 8.69 4H4v4.69L.69 12 4 15.31V20h4.69L12 23.31 15.31 20H20v-4.69L23.31 12 20 8.69zm-2 5.79V18h-3.52L12 20.48 9.52 18H6v-3.52L3.52 12 6 9.52V6h3.52L12 3.52 14.48 6H18v3.52L20.48 12 18 14.48zM12 6.5v11c3.03 0 5.5-2.47 5.5-5.5S15.03 6.5 12 6.5z"/></symbol>
<symbol id="brightness_7" viewBox="0 0 24 24"><path d="M0 0h24v24H0V0z" fill="none"/><path d="M18 9.52V6h-3.52L12 3.52 9.52 6H6v3.52L3.52 12 6 14.48V18h3.52L12 20.48 14.48 18H18v-3.52L20.48 12 18 9.52zm-6 7.98c-3.03 0-5.5-2.47-5.5-5.5S8.97 6.5 12 6.5s5.5 2.47 5.5 5.5-2.47 5.5-5.5 5.5z" opacity=".3"/><path d="M20 8.69V4h-4.69L12 .69 8.69 4H4v4.69L.69 12 4 15.31V20h4.69L12 23.31 15.31 20H20v-4.69L23.31 12 20 8.69zm-2 5.79V18h-3.52L12 20.48 9.52 18H6v-3.52L3.52 12 6 9.52V6h3.52L12 3.52 14.48 6H18v3.52L20.48 12 18 14.48zM12 6.5c-3.03 0-5.5 2.47-5.5 5.5s2.47 5.5 5.5 5.5 5.5-2.47 5.5-5.5-2.47-5.5-5.5-5.5zm0 9c-1.93 0-3.5-1.57-3.5-3.5s1.57-3.5 3.5-3.5 3.5 1.57 3.5 3.5-1.57 3.5-3.5 3.5z"/><circle cx="12" cy="12" r="2"/></symbol>
<symbol id="broken_image" viewBox="0 0 24 24"><path d="M0 0h24v24H0V0z" fill="none"/><path d="M13.99 15.41l-4-4-4 4-.99-.99V19h14v-6.57l-1.01-1.01zM5 11.59l.99 1 4-4 4 4 4-4.01L19 9.59V5H5z" opacity=".3"/><path d="M19 3H5c-1.1 0-2 .9-2 2v14c0 1.1.9 2 2 2h14c1.1 0 2-.9 2-2V5c0-1.1-.9-2-2-2zm0 16H5v-4.58l.99.99 4-4 4 4 4-3.99L19 12.43V19zm0-9.41l-1.01-1.01-4 4.01-4-4-4 4-.99-1V5h14v4.59z"/></symbol>
<symbol id="brush" viewBox="0 0 24 24"><path d="M0 0h24v24H0V0z" fill="none"/><path d="M8 17c0-.55-.45-1-1-1s-1 .45-1 1c0 .74-.19 1.4-.5 1.95.17.03.33.05.5.05 1.1 0 2-.9 2-2z" opacity=".3"/><path d="M11.75 15l8.96-8.96c.39-.39.39-1.02 0-1.41l-1.34-1.34c-.2-.2-.45-.29-.7-.29s-.51.1-.71.29L9 12.25 11.75 15zM6 21c2.21 0 4-1.79 4-4 0-1.66-1.34-3-3-3s-3 1.34-3 3c0 1.31-1.16 2-2 2 .92 1.22 2.49 2 4 2zm0-4c0-.55.45-1 1-1s1 .45 1 1c0 1.1-.9 2-2 2-.17 0-.33-.02-.5-.05.31-.55.5-1.21.5-1.95z"/></symbol>
<symbol id="burst_mode" viewBox="0 0 24 24"><path d="M0 0h24v24H0z" fill="none"/><path d="M11 17h10V7H11v10zm3-3.53l1.43 1.72 2-2.58L20 15.99h-8l2-2.52z" opacity=".3"/><path d="M1 5h2v14H1zm4 0h2v14H5zm17 0H10c-.55 0-1 .45-1 1v12c0 .55.45 1 1 1h12c.55 0 1-.45 1-1V6c0-.55-.45-1-1-1zm-1 12H11V7h10v10zm-3.57-4.38l-2 2.57L14 13.47l-2 2.52h8z"/></symbol>
<symbol id="camera" viewBox="0 0 24 24"><path d="M0 0h24v24H0V0z" fill="none"/><path d="M10.9 19.91c.36.05.72.09 1.1.09 2.18 0 4.16-.88 5.61-2.3L14.89 13l-3.99 6.91zm-1.04-.21l2.71-4.7H4.59c.93 2.28 2.87 4.03 5.27 4.7zM8.54 12L5.7 7.09C4.64 8.45 4 10.15 4 12c0 .69.1 1.36.26 2h5.43l-1.15-2zm9.76 4.91C19.36 15.55 20 13.85 20 12c0-.69-.1-1.36-.26-2h-5.43l3.99 6.91zM13.73 9h5.68c-.93-2.28-2.88-4.04-5.28-4.7L11.42 9h2.31zm-3.46 0l2.83-4.92C12.74 4.03 12.37 4 12 4c-2.18 0-4.16.88-5.6 2.3L9.12 11l1.15-2z" opacity=".3"/><path d="M12 22c5.52 0 10-4.48 10-10 0-4.75-3.31-8.72-7.75-9.74l-.08-.04-.01.02C13.46 2.09 12.74 2 12 2 6.48 2 2 6.48 2 12s4.48 10 10 10zm0-2c-.38 0-.74-.04-1.1-.09L14.89 13l2.72 4.7C16.16 19.12 14.18 20 12 20zm8-8c0 1.85-.64 3.55-1.7 4.91l-4-6.91h5.43c.17.64.27 1.31.27 2zm-.59-3h-7.99l2.71-4.7c2.4.66 4.35 2.42 5.28 4.7zM12 4c.37 0 .74.03 1.1.08L10.27 9l-1.15 2L6.4 6.3C7.84 4.88 9.82 4 12 4zm-8 8c0-1.85.64-3.55 1.7-4.91L8.54 12l1.15 2H4.26C4.1 13.36 4 12.69 4 12zm6.27 3h2.3l-2.71 4.7c-2.4-.67-4.35-2.42-5.28-4.7h5.69z"/></symbol>
<symbol id="camera_alt" viewBox="0 0 24 24"><path d="M0 0h24v24H0V0z" fill="none"/><path d="M14.12 4H9.88L8.05 6H4v12h16V6h-4.05l-1.83-2zM12 17c-2.76 0-5-2.24-5-5s2.24-5 5-5 5 2.24 5 5-2.24 5-5 5z" opacity=".3"/><path d="M20 4h-3.17L15 2H9L7.17 4H4c-1.1 0-2 .9-2 2v12c0 1.1.9 2 2 2h16c1.1 0 2-.9 2-2V6c0-1.1-.9-2-2-2zm0 14H4V6h4.05l1.83-2h4.24l1.83 2H20v12zM12 7c-2.76 0-5 2.24-5 5s2.24 5 5 5 5-2.24 5-5-2.24-5-5-5zm0 8c-1.65 0-3-1.35-3-3s1.35-3 3-3 3 1.35 3 3-1.35 3-3 3z"/></symbol>
<symbol id="camera_front" viewBox="0 0 24 24"><path d="M0 0h24v24H0V0z" fill="none"/><path d="M7 14h10v2H7z" opacity=".3"/><path d="M5 20v2h5v2l3-3-3-3v2zm9 0h5v2h-5zM11.99 8C13.1 8 14 7.1 14 6s-.9-2-2.01-2S10 4.9 10 6s.89 2 1.99 2zM17 0H7C5.9 0 5 .9 5 2v14c0 1.1.9 2 2 2h10c1.1 0 2-.9 2-2V2c0-1.1-.9-2-2-2zm0 16H7v-2h10v2zm0-3.5c0-1.67-3.33-2.5-5-2.5s-5 .83-5 2.5V2h10v10.5z"/></symbol>
<symbol id="camera_rear" viewBox="0 0 24 24"><path d="M0 0h24v24H0V0z" fill="none"/><path d="M7 16h10V2H7v14zm4.99-13c1.1 0 2 .9 2 2C14 6.1 13.1 7 12 7c-1.11 0-2-.9-2-2s.89-2 1.99-2z" opacity=".3"/><path d="M5 20v2h5v2l3-3-3-3v2zm9 0h5v2h-5zm5-18c0-1.1-.9-2-2-2H7C5.9 0 5 .9 5 2v14c0 1.1.9 2 2 2h10c1.1 0 2-.9 2-2V2zm-2 14H7V2h10v14zm-5-9c1.1 0 2-.9 1.99-2 0-1.1-.9-2-2-2S10 3.9 10 5s.89 2 2 2z"/></symbol>
<symbol id="camera_roll" viewBox="0 0 24 24"><path d="M0 0h24v24H0V0z" fill="none"/><path d="M12 5H9V3H7v2H4v15h8v-2h8V7h-8V5zm-1 12H9v-2h2v2zm0-7H9V8h2v2zm6-2h2v2h-2V8zm0 7h2v2h-2v-2zm-4-7h2v2h-2V8zm0 7h2v2h-2v-2z" opacity=".3"/><path d="M14 5c0-1.1-.9-2-2-2h-1V2c0-.55-.45-1-1-1H6c-.55 0-1 .45-1 1v1H4c-1.1 0-2 .9-2 2v15c0 1.1.9 2 2 2h8c1.1 0 2-.9 2-2h8V5h-8zm6 13h-8v2H4V5h3V3h2v2h3v2h8v11zM9 15h2v2H9zm0-7h2v2H9zm4 7h2v2h-2zm0-7h2v2h-2zm4 7h2v2h-2zm0-7h2v2h-2z"/></symbol>
<symbol id="center_focus_strong" viewBox="0 0 24 24"><path d="M0 0h24v24H0V0z" fill="none"/><circle cx="12" cy="12" opacity=".3" r="3"/><path d="M7 12c0 2.76 2.24 5 5 5s5-2.24 5-5-2.24-5-5-5-5 2.24-5 5zm8 0c0 1.65-1.35 3-3 3s-3-1.35-3-3 1.35-3 3-3 3 1.35 3 3zM3 19c0 1.1.9 2 2 2h4v-2H5v-4H3v4zM3 5v4h2V5h4V3H5c-1.1 0-2 .9-2 2zm18 0c0-1.1-.9-2-2-2h-4v2h4v4h2V5zm-2 14h-4v2h4c1.1 0 2-.9 2-2v-4h-2v4z"/></symbol>
<symbol id="center_focus_weak" viewBox="0 0 24 24"><path d="M0 0h24v24H0V0z" fill="none"/><path d="M12 10c-1.1 0-2 .9-2 2s.9 2 2 2 2-.9 2-2-.9-2-2-2z" opacity=".3"/><path d="M3 19c0 1.1.9 2 2 2h4v-2H5v-4H3v4zM3 5v4h2V5h4V3H5c-1.1 0-2 .9-2 2zm9 3c-2.21 0-4 1.79-4 4s1.79 4 4 4 4-1.79 4-4-1.79-4-4-4zm0 6c-1.1 0-2-.9-2-2s.9-2 2-2 2 .9 2 2-.9 2-2 2zm9-9c0-1.1-.9-2-2-2h-4v2h4v4h2V5zm-2 14h-4v2h4c1.1 0 2-.9 2-2v-4h-2v4z"/></symbol>
<symbol id="collections" viewBox="0 0 24 24"><path d="M0 0h24v24H0V0z" fill="none"/><path d="M8 16h12V4H8v12zm3.5-4.33l1.69 2.26 2.48-3.09L19 15H9l2.5-3.33z" opacity=".3"/><path d="M8 2c-1.1 0-2 .9-2 2v12c0 1.1.9 2 2 2h12c1.1 0 2-.9 2-2V4c0-1.1-.9-2-2-2H8zm12 14H8V4h12v12zm-4.33-5.17l-2.48 3.09-1.69-2.25L9 15h10zM4 22h14v-2H4V6H2v14c0 1.1.9 2 2 2z"/></symbol>
<symbol id="collections_bookmark" viewBox="0 0 24 24"><path d="M0 0h24v24H0V0z" fill="none"/><path d="M20 4h-1v9l-3-2.25L13 13V4H8v12h12z" opacity=".3"/><path d="M4 22h14v-2H4V6H2v14c0 1.1.9 2 2 2zm18-6V4c0-1.1-.9-2-2-2H8c-1.1 0-2 .9-2 2v12c0 1.1.9 2 2 2h12c1.1 0 2-.9 2-2zM15 4h2v5l-1-.75L15 9V4zM8 4h5v9l3-2.25L19 13V4h1v12H8V4z"/></symbol>
<symbol id="colorize" viewBox="0 0 24 24"><path d="M0 0h24v24H0V0z" fill="none"/><path d="M15.896 9.023l-.92-.92L17.67 5.41l.92.92z" opacity=".3"/><path d="M20.71 5.63l-2.34-2.34c-.2-.2-.45-.29-.71-.29s-.51.1-.7.29l-3.12 3.12-1.93-1.91-1.41 1.41 1.42 1.42L3 16.25V21h4.75l8.92-8.92 1.42 1.42 1.41-1.41-1.92-1.92 3.12-3.12c.4-.4.4-1.03.01-1.42zM6.92 19L5 17.08l8.06-8.06 1.92 1.92L6.92 19zm8.98-9.97l-.93-.93 2.69-2.69.92.92-2.68 2.7z"/></symbol>
<symbol id="color_lens" viewBox="0 0 24 24"><path d="M0 0h24v24H0z" fill="none"/><path d="M12 4c-4.41 0-8 3.59-8 8s3.59 8 8 8c.28 0 .5-.22.5-.5 0-.16-.08-.28-.14-.35-.41-.46-.63-1.05-.63-1.65 0-1.38 1.12-2.5 2.5-2.5H16c2.21 0 4-1.79 4-4 0-3.86-3.59-7-8-7zm-5.5 9c-.83 0-1.5-.67-1.5-1.5S5.67 10 6.5 10s1.5.67 1.5 1.5S7.33 13 6.5 13zm3-4C8.67 9 8 8.33 8 7.5S8.67 6 9.5 6s1.5.67 1.5 1.5S10.33 9 9.5 9zm5 0c-.83 0-1.5-.67-1.5-1.5S13.67 6 14.5 6s1.5.67 1.5 1.5S15.33 9 14.5 9zm4.5 2.5c0 .83-.67 1.5-1.5 1.5s-1.5-.67-1.5-1.5.67-1.5 1.5-1.5 1.5.67 1.5 1.5z" opacity=".3"/><path d="M12 2C6.49 2 2 6.49 2 12s4.49 10 10 10c1.38 0 2.5-1.12 2.5-2.5 0-.61-.23-1.21-.64-1.67-.08-.09-.13-.21-.13-.33 0-.28.22-.5.5-.5H16c3.31 0 6-2.69 6-6 0-4.96-4.49-9-10-9zm4 13h-1.77c-1.38 0-2.5 1.12-2.5 2.5 0 .61.22 1.19.63 1.65.06.07.14.19.14.35 0 .28-.22.5-.5.5-4.41 0-8-3.59-8-8s3.59-8 8-8 8 3.14 8 7c0 2.21-1.79 4-4 4z"/><circle cx="6.5" cy="11.5" r="1.5"/><circle cx="9.5" cy="7.5" r="1.5"/><circle cx="14.5" cy="7.5" r="1.5"/><circle cx="17.5" cy="11.5" r="1.5"/></symbol>
<symbol id="compare" viewBox="0 0 24 24"><path d="M0 0h24v24H0V0z" fill="none"/><path d="M19 5h-5v7l5 6zm-9 13v-6l-5 6z" opacity=".3"/><path d="M19 3h-5v2h5v13l-5-6v9h5c1.1 0 2-.9 2-2V5c0-1.1-.9-2-2-2zm-7-2h-2v2H5c-1.1 0-2 .9-2 2v14c0 1.1.9 2 2 2h5v2h2V1zm-2 17H5l5-6v6z"/></symbol>
<symbol id="control_point" viewBox="0 0 24 24"><path d="M0 0h24v24H0V0z" fill="none"/><path d="M12 4c-4.41 0-8 3.59-8 8s3.59 8 8 8 8-3.59 8-8-3.59-8-8-8zm5 9h-4v4h-2v-4H7v-2h4V7h2v4h4v2z" opacity=".3"/><path d="M12 2C6.49 2 2 6.49 2 12s4.49 10 10 10 10-4.49 10-10S17.51 2 12 2zm0 18c-4.41 0-8-3.59-8-8s3.59-8 8-8 8 3.59 8 8-3.59 8-8 8zm1-13h-2v4H7v2h4v4h2v-4h4v-2h-4z"/></symbol>
<symbol id="control_point_duplicate" viewBox="0 0 24 24"><path d="M0 0h24v24H0V0z" fill="none"/><path d="M15 5c-3.86 0-7 3.14-7 7s3.14 7 7 7 7-3.14 7-7-3.14-7-7-7zm4 8h-3v3h-2v-3h-3v-2h3V8h2v3h3v2z" opacity=".3"/><path d="M16 8h-2v3h-3v2h3v3h2v-3h3v-2h-3zm-1-5c-4.96 0-9 4.04-9 9s4.04 9 9 9 9-4.04 9-9-4.04-9-9-9zm0 16c-3.86 0-7-3.14-7-7s3.14-7 7-7 7 3.14 7 7-3.14 7-7 7zM2 12c0-2.79 1.64-5.2 4.01-6.32V3.52C2.52 4.76 0 8.09 0 12s2.52 7.24 6.01 8.48v-2.16C3.64 17.2 2 14.79 2 12z"/></symbol>
<symbol id="crop" viewBox="0 0 24 24"><path d="M0 0h24v24H0V0z" fill="none"/><path d="M5 17c0 1.1.9 2 2 2h10v4h2v-4h4v-2H7V1H5v4H1v2h4v10zm14-2V7c0-1.1-.9-2-2-2H9v2h8v8h2z"/></symbol>
<symbol id="crop_16_9" viewBox="0 0 24 24"><path d="M0 0h24v24H0V0z" fill="none"/><path d="M19 6H5c-1.1 0-2 .9-2 2v8c0 1.1.9 2 2 2h14c1.1 0 2-.9 2-2V8c0-1.1-.9-2-2-2zm0 10H5V8h14v8z"/></symbol>
<symbol id="crop_3_2" viewBox="0 0 24 24"><path d="M0 0h24v24H0V0z" fill="none"/><path d="M19 4H5c-1.1 0-2 .9-2 2v12c0 1.1.9 2 2 2h14c1.1 0 2-.9 2-2V6c0-1.1-.9-2-2-2zm0 14H5V6h14v12z"/></symbol>
<symbol id="crop_5_4" viewBox="0 0 24 24"><path d="M0 0h24v24H0V0z" fill="none"/><path d="M19 5H5c-1.1 0-2 .9-2 2v10c0 1.1.9 2 2 2h14c1.1 0 2-.9 2-2V7c0-1.1-.9-2-2-2zm0 12H5V7h14v10z"/></symbol>
<symbol id="crop_7_5" viewBox="0 0 24 24"><path d="M0 0h24v24H0V0z" fill="none"/><path d="M19 7H5c-1.1 0-2 .9-2 2v6c0 1.1.9 2 2 2h14c1.1 0 2-.9 2-2V9c0-1.1-.9-2-2-2zm0 8H5V9h14v6z"/></symbol>
<symbol id="crop_din" viewBox="0 0 24 24"><path d="M0 0h24v24H0z" fill="none"/><path d="M19 3H5c-1.1 0-2 .9-2 2v14c0 1.1.9 2 2 2h14c1.1 0 2-.9 2-2V5c0-1.1-.9-2-2-2zm0 16H5V5h14v14z"/></symbol>
<symbol id="crop_free" viewBox="0 0 24 24"><path d="M0 0h24v24H0V0z" fill="none"/><path d="M3 19c0 1.1.9 2 2 2h4v-2H5v-4H3v4zM21 5c0-1.1-.9-2-2-2h-4v2h4v4h2V5zM5 5h4V3H5c-1.1 0-2 .9-2 2v4h2V5zm16 14v-4h-2v4h-4v2h4c1.1 0 2-.9 2-2z"/></symbol>
<symbol id="crop_landscape" viewBox="0 0 24 24"><path d="M0 0h24v24H0V0z" fill="none"/><path d="M19 5H5c-1.1 0-2 .9-2 2v10c0 1.1.9 2 2 2h14c1.1 0 2-.9 2-2V7c0-1.1-.9-2-2-2zm0 12H5V7h14v10z"/></symbol>
<symbol id="crop_original" viewBox="0 0 24 24"><path d="M0 0h24v24H0V0z" fill="none"/><path d="M19 3H5c-1.1 0-2 .9-2 2v14c0 1.1.9 2 2 2h14c1.1 0 2-.9 2-2V5c0-1.1-.9-2-2-2zm0 16H5V5h14v14zm-5.04-6.71l-2.75 3.54-1.96-2.36L6.5 17h11z"/></symbol>
<symbol id="crop_portrait" viewBox="0 0 24 24"><path d="M0 0h24v24H0V0z" fill="none"/><path d="M17 3H7c-1.1 0-2 .9-2 2v14c0 1.1.9 2 2 2h10c1.1 0 2-.9 2-2V5c0-1.1-.9-2-2-2zm0 16H7V5h10v14z"/></symbol>
<symbol id="crop_rotate" viewBox="0 0 24 24"><path d="M0 0h24v24H0V0z" fill="none"/><path d="M11.95 24c.23 0 .44-.02.66-.03L8.8 20.15l-1.33 1.34C4.2 19.93 1.86 16.76 1.5 13H0c.51 6.16 5.66 11 11.95 11zm.1-24c-.23 0-.44.02-.66.04l3.81 3.81 1.33-1.33C19.8 4.07 22.14 7.24 22.5 11H24c-.51-6.16-5.66-11-11.95-11zM16 6h-6v2h6v6h2V8c0-1.11-.9-2-2-2zm2 12h2v-2H8V4H6v2H4v2h2v8c0 1.1.89 2 2 2h8v2h2v-2z"/></symbol>
<symbol id="crop_square" viewBox="0 0 24 24"><path d="M0 0h24v24H0V0z" fill="none"/><path d="M18 4H6c-1.1 0-2 .9-2 2v12c0 1.1.9 2 2 2h12c1.1 0 2-.9 2-2V6c0-1.1-.9-2-2-2zm0 14H6V6h12v12z"/></symbol>
<symbol id="dehaze" viewBox="0 0 24 24"><path d="M0 0h24v24H0V0z" fill="none"/><path d="M2 16v2h20v-2H2zm0-5v2h20v-2H2zm0-5v2h20V6H2z"/></symbol>
<symbol id="details" viewBox="0 0 24 24"><rect fill="none" height="24" width="24"/><path d="M13,8.92L18.6,19H13V8.92z M11,8.92V19H5.4L11,8.92z" opacity=".3"/><path d="M12,3L2,21h20L12,3z M13,8.92L18.6,19H13V8.92z M11,8.92V19H5.4L11,8.92z"/></symbol>
<symbol id="edit" viewBox="0 0 24 24"><path d="M0 0h24v24H0V0z" fill="none"/><path d="M5 18.08V19h.92l9.06-9.06-.92-.92z" opacity=".3"/><path d="M20.71 7.04c.39-.39.39-1.02 0-1.41l-2.34-2.34c-.2-.2-.45-.29-.71-.29s-.51.1-.7.29l-1.83 1.83 3.75 3.75 1.83-1.83zM3 17.25V21h3.75L17.81 9.94l-3.75-3.75L3 17.25zM5.92 19H5v-.92l9.06-9.06.92.92L5.92 19z"/></symbol>
<symbol id="euro" viewBox="0 0 24 24"><g><rect fill="none" height="24" width="24"/></g><g><g/><path d="M15,18.5c-2.51,0-4.68-1.42-5.76-3.5H15l1-2H8.58c-0.05-0.33-0.08-0.66-0.08-1s0.03-0.67,0.08-1H15l1-2H9.24 C10.32,6.92,12.5,5.5,15,5.5c1.61,0,3.09,0.59,4.23,1.57L21,5.3C19.41,3.87,17.3,3,15,3c-3.92,0-7.24,2.51-8.48,6H3l-1,2h4.06 C6.02,11.33,6,11.66,6,12s0.02,0.67,0.06,1H3l-1,2h4.52c1.24,3.49,4.56,6,8.48,6c2.31,0,4.41-0.87,6-2.3l-1.78-1.77 C18.09,17.91,16.62,18.5,15,18.5z"/></g></symbol>
<symbol id="exposure" viewBox="0 0 24 24"><path d="M0 0h24v24H0z" fill="none"/><path d="M19 19V5L5 19h14zm-4.5-4.5v-2H16v2h2V16h-2v2h-1.5v-2h-2v-1.5h2z" opacity=".3"/><path d="M19 3H5c-1.1 0-2 .9-2 2v14c0 1.1.9 2 2 2h14c1.1 0 2-.9 2-2V5c0-1.1-.9-2-2-2zM6 7h5v1.5H6V7zm13 12H5L19 5v14zm-4.5-3v2H16v-2h2v-1.5h-2v-2h-1.5v2h-2V16z"/></symbol>
<symbol id="exposure_neg_1" viewBox="0 0 24 24"><path d="M0 0h24v24H0V0z" fill="none"/><path d="M19 18V5h-.3L14 6.7v1.7l3-1.02V18zM4 11h8v2H4z"/></symbol>
<symbol id="exposure_neg_2" viewBox="0 0 24 24"><path d="M0 0h24v24H0V0z" fill="none"/><path d="M17.98 10.1c-.14.25-.32.53-.56.83-.23.3-.52.65-.88 1.03l-4.17 4.55V18H21v-1.71h-5.95l2.86-3.07c.38-.39.72-.79 1.04-1.18s.59-.78.82-1.17c.23-.39.41-.78.54-1.17.13-.39.19-.79.19-1.18 0-.53-.09-1.02-.27-1.46s-.44-.81-.78-1.11c-.34-.31-.77-.54-1.26-.71-.51-.16-1.08-.24-1.72-.24-.69 0-1.31.11-1.85.32-.54.21-1 .51-1.36.88-.37.37-.65.8-.84 1.3-.18.47-.27.97-.28 1.5h2.14c.01-.31.05-.6.13-.87.09-.29.23-.54.4-.75.18-.21.41-.37.68-.49.27-.12.6-.18.96-.18.31 0 .58.05.81.15s.43.25.59.43c.16.18.28.4.37.65.08.25.13.52.13.81 0 .22-.03.43-.08.65-.06.22-.15.45-.29.7zM2 11h8v2H2z"/></symbol>
<symbol id="exposure_plus_1" viewBox="0 0 24 24"><path d="M0 0h24v24H0V0z" fill="none"/><path d="M20 18V5h-.3L15 6.7v1.7l3-1.02V18zm-10-1v-4h4v-2h-4V7H8v4H4v2h4v4z"/></symbol>
<symbol id="exposure_plus_2" viewBox="0 0 24 24"><path d="M0 0h24v24H0V0z" fill="none"/><path d="M8 17v-4h4v-2H8V7H6v4H2v2h4v4zm11.95-4.96c.32-.39.59-.78.82-1.17.23-.39.41-.78.54-1.17.13-.39.19-.79.19-1.18 0-.53-.09-1.02-.27-1.46s-.44-.81-.78-1.11c-.34-.31-.77-.54-1.26-.71-.51-.16-1.08-.24-1.72-.24-.69 0-1.31.11-1.85.32-.54.21-1 .51-1.36.88-.37.37-.65.8-.84 1.3-.18.47-.27.97-.28 1.5h2.14c.01-.31.05-.6.13-.87.09-.29.23-.54.4-.75.18-.21.41-.37.68-.49.27-.12.6-.18.96-.18.31 0 .58.05.81.15s.43.25.59.43c.16.18.28.4.37.65.08.25.13.52.13.81 0 .22-.03.43-.08.65-.06.22-.15.45-.29.7-.14.25-.32.53-.56.83-.23.3-.52.65-.88 1.03l-4.17 4.55V18H22v-1.71h-5.95l2.86-3.07c.38-.39.72-.79 1.04-1.18z"/></symbol>
<symbol id="exposure_zero" viewBox="0 0 24 24"><path d="M0 0h24v24H0V0z" fill="none"/><path d="M15.01 6.22c-.36-.43-.8-.74-1.31-.93S12.63 5 12 5c-.62 0-1.19.1-1.69.29-.51.19-.95.5-1.31.93s-.64.99-.84 1.69c-.2.7-.3 1.55-.3 2.55v2.04c0 1 .1 1.85.3 2.55.2.69.49 1.26.85 1.7s.8.75 1.31.95c.51.2 1.07.3 1.69.3.63 0 1.19-.1 1.7-.3.51-.2.94-.51 1.3-.95.35-.43.63-1 .83-1.7.2-.7.3-1.55.3-2.55h.01v-2.04c0-1.01-.1-1.85-.3-2.55-.2-.7-.48-1.26-.84-1.69zm-.97 6.58c0 .63-.04 1.17-.13 1.62-.09.45-.22.81-.39 1.09s-.38.48-.63.61-.54.19-.87.19c-.33 0-.62-.06-.87-.19s-.47-.33-.64-.61c-.17-.28-.31-.64-.4-1.09-.09-.44-.14-.98-.14-1.62v-2.67c0-.64.04-1.18.13-1.62.09-.44.23-.79.4-1.06s.39-.46.64-.58.54-.18.86-.18.61.06.86.19c.25.12.47.31.64.58.18.27.31.62.4 1.06.08.44.13.98.13 1.62h.01v2.66z"/></symbol>
<symbol id="filter" viewBox="0 0 24 24"><path d="M0 0h24v24H0V0z" fill="none"/><path d="M7 17h14V3H7v14zm4.25-5.53l1.96 2.36 2.75-3.54L19.5 15h-11l2.75-3.53z" opacity=".3"/><path d="M1 21c0 1.1.9 2 2 2h16v-2H3V5H1v16zM21 1H7c-1.1 0-2 .9-2 2v14c0 1.1.9 2 2 2h14c1.1 0 2-.9 2-2V3c0-1.1-.9-2-2-2zm0 16H7V3h14v14zm-5.04-6.71l-2.75 3.54-1.96-2.36L8.5 15h11z"/></symbol>
<symbol id="filter_1" viewBox="0 0 24 24"><path d="M0 0h24v24H0V0z" fill="none"/><path d="M7 17h14V3H7v14zm5-12h4v10h-2V7h-2V5z" opacity=".3"/><path d="M14 15h2V5h-4v2h2zm7-14H7c-1.1 0-2 .9-2 2v14c0 1.1.9 2 2 2h14c1.1 0 2-.9 2-2V3c0-1.1-.9-2-2-2zm0 16H7V3h14v14zM1 5v16c0 1.1.9 2 2 2h16v-2H3V5H1z"/></symbol>
<symbol id="filter_2" viewBox="0 0 24 24"><path d="M0 0h24v24H0V0z" fill="none"/><path d="M7 17h14V3H7v14zm4-6c0-1.11.9-2 2-2h2V7h-4V5h4c1.1 0 2 .89 2 2v2c0 1.11-.9 2-2 2h-2v2h4v2h-6v-4z" opacity=".3"/><path d="M17 13h-4v-2h2c1.1 0 2-.89 2-2V7c0-1.11-.9-2-2-2h-4v2h4v2h-2c-1.1 0-2 .89-2 2v4h6v-2zm4-12H7c-1.1 0-2 .9-2 2v14c0 1.1.9 2 2 2h14c1.1 0 2-.9 2-2V3c0-1.1-.9-2-2-2zm0 16H7V3h14v14zM1 21c0 1.1.9 2 2 2h16v-2H3V5H1v16z"/></symbol>
<symbol id="filter_3" viewBox="0 0 24 24"><path d="M0 0h24v24H0V0z" fill="none"/><path d="M7 17h14V3H7v14zm4-4h4v-2h-2V9h2V7h-4V5h4c1.1 0 2 .89 2 2v1.5c0 .83-.67 1.5-1.5 1.5.83 0 1.5.67 1.5 1.5V13c0 1.11-.9 2-2 2h-4v-2z" opacity=".3"/><path d="M21 1H7c-1.1 0-2 .9-2 2v14c0 1.1.9 2 2 2h14c1.1 0 2-.9 2-2V3c0-1.1-.9-2-2-2zm0 16H7V3h14v14zm-4-4v-1.5c0-.83-.67-1.5-1.5-1.5.83 0 1.5-.67 1.5-1.5V7c0-1.11-.9-2-2-2h-4v2h4v2h-2v2h2v2h-4v2h4c1.1 0 2-.89 2-2zm2 10v-2H3V5H1v16c0 1.1.9 2 2 2h16z"/></symbol>
<symbol id="filter_4" viewBox="0 0 24 24"><path d="M0 0h24v24H0V0z" fill="none"/><path d="M21 3H7v14h14V3zm-4 12h-2v-4h-4V5h2v4h2V5h2v10z" opacity=".3"/><path d="M3 23h16v-2H3V5H1v16c0 1.1.9 2 2 2zm4-4h14c1.1 0 2-.9 2-2V3c0-1.1-.9-2-2-2H7c-1.1 0-2 .9-2 2v14c0 1.1.9 2 2 2zM7 3h14v14H7V3zm8 6h-2V5h-2v6h4v4h2V5h-2z"/></symbol>
<symbol id="filter_5" viewBox="0 0 24 24"><path d="M0 0h24v24H0z" fill="none"/><path d="M7 17h14V3H7v14zm4-4h4v-2h-4V5h6v2h-4v2h2c1.1 0 2 .89 2 2v2c0 1.11-.9 2-2 2h-4v-2z" opacity=".3"/><path d="M19 23v-2H3V5H1v16c0 1.1.9 2 2 2h16zm-2-10v-2c0-1.11-.9-2-2-2h-2V7h4V5h-6v6h4v2h-4v2h4c1.1 0 2-.89 2-2zm4-12H7c-1.1 0-2 .9-2 2v14c0 1.1.9 2 2 2h14c1.1 0 2-.9 2-2V3c0-1.1-.9-2-2-2zm0 16H7V3h14v14z"/></symbol>
<symbol id="filter_6" viewBox="0 0 24 24"><path d="M0 0h24v24H0V0z" fill="none"/><path d="M7 17h14V3H7v14zm4-10c0-1.11.9-2 2-2h4v2h-4v2h2c1.1 0 2 .89 2 2v2c0 1.11-.9 2-2 2h-2c-1.1 0-2-.89-2-2V7zm2 4h2v2h-2z" opacity=".3"/><path d="M21 1H7c-1.1 0-2 .9-2 2v14c0 1.1.9 2 2 2h14c1.1 0 2-.9 2-2V3c0-1.1-.9-2-2-2zm0 16H7V3h14v14zm-8-2h2c1.1 0 2-.89 2-2v-2c0-1.11-.9-2-2-2h-2V7h4V5h-4c-1.1 0-2 .89-2 2v6c0 1.11.9 2 2 2zm0-4h2v2h-2v-2zM3 23h16v-2H3V5H1v16c0 1.1.9 2 2 2z"/></symbol>
<symbol id="filter_7" viewBox="0 0 24 24"><path d="M0 0h24v24H0V0z" fill="none"/><path d="M7 17h14V3H7v14zm4-10V5h6v2l-4 8h-2l4-8h-4z" opacity=".3"/><path d="M3 23h16v-2H3V5H1v16c0 1.1.9 2 2 2zm10-8l4-8V5h-6v2h4l-4 8zm8-14H7c-1.1 0-2 .9-2 2v14c0 1.1.9 2 2 2h14c1.1 0 2-.9 2-2V3c0-1.1-.9-2-2-2zm0 16H7V3h14v14z"/></symbol>
<symbol id="filter_8" viewBox="0 0 24 24"><path d="M0 0h24v24H0V0z" fill="none"/><path d="M7 17h14V3H7v14zm4-5.5c0-.83.67-1.5 1.5-1.5-.83 0-1.5-.67-1.5-1.5V7c0-1.11.9-2 2-2h2c1.1 0 2 .89 2 2v1.5c0 .83-.67 1.5-1.5 1.5.83 0 1.5.67 1.5 1.5V13c0 1.11-.9 2-2 2h-2c-1.1 0-2-.89-2-2v-1.5zM13 7h2v2h-2zm0 4h2v2h-2z" opacity=".3"/><path d="M21 1H7c-1.1 0-2 .9-2 2v14c0 1.1.9 2 2 2h14c1.1 0 2-.9 2-2V3c0-1.1-.9-2-2-2zm0 16H7V3h14v14zM3 23h16v-2H3V5H1v16c0 1.1.9 2 2 2zm10-8h2c1.1 0 2-.89 2-2v-1.5c0-.83-.67-1.5-1.5-1.5.83 0 1.5-.67 1.5-1.5V7c0-1.11-.9-2-2-2h-2c-1.1 0-2 .89-2 2v1.5c0 .83.67 1.5 1.5 1.5-.83 0-1.5.67-1.5 1.5V13c0 1.11.9 2 2 2zm0-8h2v2h-2V7zm0 4h2v2h-2v-2z"/></symbol>
<symbol id="filter_9" viewBox="0 0 24 24"><path d="M0 0h24v24H0V0z" fill="none"/><path d="M13 7h2v2h-2zM7 17h14V3H7v14zm4-4h4v-2h-2c-1.1 0-2-.89-2-2V7c0-1.11.9-2 2-2h2c1.1 0 2 .89 2 2v6c0 1.11-.9 2-2 2h-4v-2z" opacity=".3"/><path d="M21 1H7c-1.1 0-2 .9-2 2v14c0 1.1.9 2 2 2h14c1.1 0 2-.9 2-2V3c0-1.1-.9-2-2-2zm0 16H7V3h14v14zM3 23h16v-2H3V5H1v16c0 1.1.9 2 2 2zm14-10V7c0-1.11-.9-2-2-2h-2c-1.1 0-2 .89-2 2v2c0 1.11.9 2 2 2h2v2h-4v2h4c1.1 0 2-.89 2-2zm-4-4V7h2v2h-2z"/></symbol>
<symbol id="filter_9_plus" viewBox="0 0 24 24"><path d="M0 0h24v24H0V0z" fill="none"/><path d="M7 17h14v-6h-2v2h-2v-2h-2V9h2V7h2v2h2V3H7v14zm2-5h3v-1h-1c-1.1 0-2-.89-2-2V8c0-1.11.9-2 2-2h1c1.1 0 2 .89 2 2v4c0 1.11-.9 2-2 2H9v-2z" opacity=".3"/><path d="M19 21H3V5H1v16c0 1.1.9 2 2 2h16v-2z"/><path d="M11 8h1v1h-1z" opacity=".3"/><path d="M12 6h-1c-1.1 0-2 .89-2 2v1c0 1.11.9 2 2 2h1v1H9v2h3c1.1 0 2-.89 2-2V8c0-1.11-.9-2-2-2zm0 3h-1V8h1v1zm9-8H7c-1.1 0-2 .9-2 2v14c0 1.1.9 2 2 2h14c1.1 0 2-.9 2-2V3c0-1.1-.9-2-2-2zm0 8h-2V7h-2v2h-2v2h2v2h2v-2h2v6H7V3h14v6z"/></symbol>
<symbol id="filter_b_and_w" viewBox="0 0 24 24"><path d="M0 0h24v24H0V0z" fill="none"/><path d="M19 5h-7v6l7 8zm-7 14v-8l-7 8z" opacity=".3"/><path d="M21 19V5c0-1.1-.9-2-2-2H5c-1.1 0-2 .9-2 2v14c0 1.1.9 2 2 2h14c1.1 0 2-.9 2-2zm-9 0H5l7-8V5h7v14l-7-8v8z"/></symbol>
<symbol id="filter_center_focus" viewBox="0 0 24 24"><path d="M0 0h24v24H0V0z" fill="none"/><path d="M5 5h4V3H5c-1.1 0-2 .9-2 2v4h2V5zm7 4c-1.66 0-3 1.34-3 3s1.34 3 3 3 3-1.34 3-3-1.34-3-3-3zm7-6h-4v2h4v4h2V5c0-1.1-.9-2-2-2zm0 16h-4v2h4c1.1 0 2-.9 2-2v-4h-2v4zM5 15H3v4c0 1.1.9 2 2 2h4v-2H5v-4z"/></symbol>
<symbol id="filter_drama" viewBox="0 0 24 24"><path d="M0 0h24v24H0V0z" fill="none"/><path d="M19 12h-1.5v-.5C17.5 8.47 15.03 6 12 6c-1.8 0-3.39.88-4.4 2.22 2.54.7 4.4 3.02 4.4 5.78h-2c0-2.21-1.79-4-4-4s-4 1.79-4 4 1.79 4 4 4h13c1.65 0 3-1.35 3-3s-1.35-3-3-3z" opacity=".3"/><path d="M19.35 10.04C18.67 6.59 15.64 4 12 4 9.11 4 6.61 5.64 5.36 8.04 2.35 8.36 0 10.9 0 14c0 3.31 2.69 6 6 6h13c2.76 0 5-2.24 5-5 0-2.64-2.05-4.78-4.65-4.96zM19 18H6c-2.21 0-4-1.79-4-4s1.79-4 4-4 4 1.79 4 4h2c0-2.76-1.86-5.08-4.4-5.78C8.61 6.88 10.2 6 12 6c3.03 0 5.5 2.47 5.5 5.5v.5H19c1.65 0 3 1.35 3 3s-1.35 3-3 3z"/></symbol>
<symbol id="filter_frames" viewBox="0 0 24 24"><path d="M0 0h24v24H0z" fill="none"/><path d="M8 10h8v6H8z" opacity=".3"/><path d="M20 4h-4l-4-4-4 4H4c-1.1 0-2 .9-2 2v14c0 1.1.9 2 2 2h16c1.1 0 2-.9 2-2V6c0-1.1-.9-2-2-2zm0 16H4V6h4.52l3.52-3.5L15.52 6H20v14zM6 18h12V8H6v10zm2-8h8v6H8v-6z"/></symbol>
<symbol id="filter_hdr" viewBox="0 0 24 24"><path d="M0 0h24v24H0V0z" fill="none"/><path d="M5 16h3.04l-1.52-2.03z" opacity=".3"/><path d="M9.78 11.63l1.25 1.67L14 9.33 19 16h-8.46l-4.01-5.37L1 18h22L14 6l-4.22 5.63zM5 16l1.52-2.03L8.04 16H5z"/></symbol>
<symbol id="filter_none" viewBox="0 0 24 24"><path d="M0 0h24v24H0V0z" fill="none"/><path d="M7 3h14v14H7z" opacity=".3"/><path d="M3 23h16v-2H3V5H1v16c0 1.1.9 2 2 2zM21 1H7c-1.1 0-2 .9-2 2v14c0 1.1.9 2 2 2h14c1.1 0 2-.9 2-2V3c0-1.1-.9-2-2-2zm0 16H7V3h14v14z"/></symbol>
<symbol id="filter_tilt_shift" viewBox="0 0 24 24"><path d="M0 0h24v24H0V0z" fill="none"/><path d="M13 2.05v2.02c1.46.18 2.79.76 3.9 1.62l1.42-1.43C16.84 3.05 15.01 2.25 13 2.05zm0 17.88v2.02c2.01-.2 3.84-1 5.32-2.21l-1.43-1.43c-1.1.86-2.43 1.44-3.89 1.62zm-8.74-1.61l1.43-1.43c-.86-1.1-1.44-2.43-1.62-3.89H2.05c.2 2.01 1 3.84 2.21 5.32zM2.05 11h2.02c.18-1.46.76-2.79 1.62-3.9L4.26 5.68C3.05 7.16 2.25 8.99 2.05 11zm16.26-3.9c.86 1.11 1.44 2.44 1.62 3.9h2.02c-.2-2.01-1-3.84-2.21-5.32L18.31 7.1zM7.1 5.69c1.11-.86 2.44-1.44 3.9-1.62V2.05c-2.01.2-3.84 1-5.32 2.21L7.1 5.69zM5.68 19.74C7.16 20.95 9 21.75 11 21.95v-2.02c-1.46-.18-2.79-.76-3.9-1.62l-1.42 1.43zm16.27-6.73h-2.02c-.18 1.45-.76 2.78-1.62 3.89l1.43 1.43c1.21-1.48 2.01-3.32 2.21-5.32zM9 12c0 1.66 1.34 3 3 3s3-1.34 3-3-1.34-3-3-3-3 1.34-3 3z"/></symbol>
<symbol id="filter_vintage" viewBox="0 0 24 24"><path d="M0 0h24v24H0V0z" fill="none"/><path d="M18.69 7.61c-.7 0-1.39.19-2 .54-.16.09-.32.21-.54.37l-1.13.9c.31.36.56.78.72 1.24l1.38-.52c.22-.08.41-.17.58-.27.84-.49 1.47-1.27 1.78-2.18-.26-.06-.52-.08-.79-.08zm-1.56 6.26l-1.38-.52c-.16.45-.4.85-.7 1.21l1.15.96c.15.12.31.24.49.34.61.35 1.3.54 1.99.54.27 0 .53-.03.8-.08-.31-.91-.94-1.69-1.78-2.18-.16-.1-.35-.19-.57-.27zM11 6c0 .19.02.41.05.63l.23 1.44c.24-.04.48-.07.72-.07s.48.03.71.07l.23-1.44c.04-.22.06-.44.06-.63 0-.98-.37-1.91-1-2.63-.63.72-1 1.65-1 2.63zm1.71 9.93c-.23.04-.47.07-.71.07-.25 0-.49-.03-.72-.07l-.22 1.42c-.04.24-.06.45-.06.65 0 .98.37 1.91 1 2.63.63-.72 1-1.66 1-2.63 0-.19-.02-.41-.05-.63l-.24-1.44zm-5.84-5.81l1.38.52c.16-.44.4-.85.7-1.2L7.8 8.49c-.17-.15-.34-.27-.49-.35-.62-.36-1.3-.54-2-.54-.27 0-.54.03-.81.08.3.91.93 1.68 1.79 2.18.17.09.36.18.58.26zm0 3.74c-.22.08-.41.17-.58.27-.84.49-1.47 1.27-1.78 2.18.26.05.52.08.79.08.7 0 1.39-.19 2-.54.16-.09.32-.21.54-.37l1.13-.89c-.31-.36-.56-.78-.72-1.24l-1.38.51z" opacity=".3"/><path d="M18.7 12.4c-.28-.16-.57-.29-.86-.4.29-.11.58-.24.86-.4 1.92-1.11 2.99-3.12 3-5.19-.91-.52-1.95-.8-3.01-.8-1.02 0-2.05.26-2.99.8-.28.16-.54.35-.78.54.05-.31.08-.63.08-.95 0-2.22-1.21-4.15-3-5.19C10.21 1.85 9 3.78 9 6c0 .32.03.64.08.95-.24-.2-.5-.39-.78-.55-.94-.54-1.97-.8-2.99-.8-1.05 0-2.1.28-3.01.8 0 2.07 1.07 4.08 3 5.19.28.16.57.29.86.4-.29.11-.58.24-.86.4-1.92 1.11-2.99 3.12-3 5.19.91.52 1.95.8 3.01.8 1.02 0 2.05-.26 2.99-.8.28-.16.54-.35.78-.54-.05.32-.08.64-.08.96 0 2.22 1.21 4.15 3 5.19 1.79-1.04 3-2.97 3-5.19 0-.32-.03-.64-.08-.95.24.2.5.38.78.54.94.54 1.97.8 2.99.8 1.05 0 2.1-.28 3.01-.8-.01-2.07-1.08-4.08-3-5.19zM4.51 7.68c.26-.06.53-.08.8-.08.69 0 1.38.18 1.99.54.15.09.32.2.49.35l1.15.96c-.3.36-.53.76-.7 1.2l-1.38-.52c-.21-.09-.4-.18-.56-.27-.87-.5-1.49-1.27-1.79-2.18zm3.33 7.79c-.21.17-.38.29-.54.37-.61.35-1.3.54-2 .54-.27 0-.53-.03-.79-.08.31-.91.94-1.69 1.78-2.18.17-.1.36-.18.58-.27l1.38-.52c.16.46.41.88.72 1.24l-1.13.9zM12 3.37c.63.72 1 1.66 1 2.63 0 .19-.02.41-.05.63l-.23 1.44C12.48 8.03 12.24 8 12 8s-.48.03-.71.07l-.23-1.44C11.02 6.41 11 6.19 11 6c0-.98.37-1.91 1-2.63zm0 17.26c-.63-.72-1-1.66-1-2.63 0-.2.02-.41.06-.65l.22-1.42c.23.04.47.07.72.07.24 0 .48-.03.71-.07l.23 1.44c.04.22.06.44.06.63 0 .98-.37 1.91-1 2.63zM12 14c-1.1 0-2-.9-2-2s.9-2 2-2 2 .9 2 2-.9 2-2 2zm4.16-5.48c.21-.17.38-.29.54-.37.61-.35 1.3-.54 2-.54.27 0 .53.03.79.08-.31.91-.94 1.69-1.78 2.18-.17.1-.36.18-.58.27l-1.38.52c-.17-.46-.41-.87-.72-1.24l1.13-.9zm2.53 7.87c-.69 0-1.38-.18-1.99-.54-.18-.1-.34-.22-.49-.34l-1.15-.96c.3-.36.54-.76.7-1.21l1.38.52c.22.08.41.17.57.26.85.49 1.47 1.27 1.78 2.18-.27.07-.54.09-.8.09z"/></symbol>
<symbol id="flare" viewBox="0 0 24 24"><path d="M0 0h24v24H0V0z" fill="none"/><path d="M5.644 7.05L7.05 5.645l2.123 2.122-1.408 1.407zM11 1h2v6h-2zm5.242 13.834l2.12 2.12-1.406 1.408-2.12-2.12zM14.834 7.76l2.12-2.123 1.41 1.407-2.123 2.122zm-5.668 8.482l-2.122 2.12-1.407-1.406 2.122-2.122zM12 9c-1.66 0-3 1.34-3 3s1.34 3 3 3 3-1.34 3-3-1.34-3-3-3zm-1 8h2v6h-2zM1 11h6v2H1zm16 0h6v2h-6z"/></symbol>
<symbol id="flash_auto" viewBox="0 0 24 24"><path d="M0 0h24v24H0V0z" fill="none"/><path d="M3 2v12h3v9l7-12H9l4-9zm14 0l-3.2 9h1.9l.7-2h3.2l.7 2h1.9L19 2h-2zm-.15 5.65L18 4l1.15 3.65h-2.3z"/></symbol>
<symbol id="flash_off" viewBox="0 0 24 24"><path d="M0 0h24v24H0V0z" fill="none"/><path d="M17 10h-3.61l2.28 2.28zm0-8H7v1.61l6.13 6.13zm-13.59.86L2 4.27l5 5V13h3v9l3.58-6.15L17.73 20l1.41-1.41z"/></symbol>
<symbol id="flash_on" viewBox="0 0 24 24"><path d="M0 0h24v24H0V0z" fill="none"/><path d="M17 10h-4l3-8H7v11h3v9z"/></symbol>
<symbol id="flip" viewBox="0 0 24 24"><path d="M0 0h24v24H0V0z" fill="none"/><path d="M19 7h2v2h-2zm0 14c1.1 0 2-.9 2-2h-2v2zm0-6h2v2h-2zm0-4h2v2h-2zM9 5V3H5c-1.1 0-2 .9-2 2v14c0 1.1.9 2 2 2h4v-2H5V5h4zm10-2v2h2c0-1.1-.9-2-2-2zm-8-2h2v22h-2zm4 2h2v2h-2zm0 16h2v2h-2z"/></symbol>
<symbol id="flip_camera_android" viewBox="0 0 24 24"><g><rect fill="none" height="24" width="24"/></g><g><g><circle cx="12" cy="12" opacity=".3" r="1"/><path d="M9,12c0,1.66,1.34,3,3,3s3-1.34,3-3s-1.34-3-3-3S9,10.34,9,12z M13,12c0,0.55-0.45,1-1,1s-1-0.45-1-1s0.45-1,1-1 S13,11.45,13,12z"/><path d="M8,8H5.09C6.47,5.61,9.05,4,12,4c3.72,0,6.85,2.56,7.74,6h2.06c-0.93-4.56-4.96-8-9.8-8C8.73,2,5.82,3.58,4,6.01V4H2v6h6 V8z"/><path d="M16,14v2h2.91c-1.38,2.39-3.96,4-6.91,4c-3.72,0-6.85-2.56-7.74-6H2.2c0.93,4.56,4.96,8,9.8,8c3.27,0,6.18-1.58,8-4.01V20 h2v-6H16z"/></g></g></symbol>
<symbol id="flip_camera_ios" viewBox="0 0 24 24"><g><rect fill="none" height="24" width="24"/></g><g><g><path d="M14.12,5H9.88L8.05,7H4v12h16V7h-4.05L14.12,5z M12,18c-2.76,0-5-2.24-5-5H5l2.49-2.49L7.5,10.5L10,13H9.97 H8c0,2.21,1.79,4,4,4c0.58,0,1.13-0.13,1.62-0.35l0.74,0.74C13.65,17.76,12.86,18,12,18z M19,13l-2.49,2.49L16.5,15.5L14,13h0.03 H16c0-2.21-1.79-4-4-4c-0.58,0-1.13,0.13-1.62,0.35L9.64,8.62C10.35,8.24,11.14,8,12,8c2.76,0,5,2.24,5,5H19z" opacity=".3"/><path d="M20,5h-3.17L15,3H9L7.17,5H4C2.9,5,2,5.9,2,7v12c0,1.1,0.9,2,2,2h16c1.1,0,2-0.9,2-2V7C22,5.9,21.1,5,20,5z M20,19H4V7 h4.05l1.83-2h4.24l1.83,2H20V19z"/><g><path d="M12,17c-2.21,0-4-1.79-4-4h1.97H10l-2.5-2.5l-0.01,0.01L5,13h2c0,2.76,2.24,5,5,5c0.86,0,1.65-0.24,2.36-0.62l-0.74-0.74 C13.13,16.87,12.58,17,12,17z"/></g><g><path d="M12,8c-0.86,0-1.65,0.24-2.36,0.62l0.74,0.73C10.87,9.13,11.42,9,12,9c2.21,0,4,1.79,4,4h-1.97H14l2.5,2.5l0.01-0.01 L19,13h-2C17,10.24,14.76,8,12,8z"/></g></g></g></symbol>
<symbol id="gradient" viewBox="0 0 24 24"><path d="M0 0h24v24H0z" fill="none"/><path d="M13 11h2v2h-2zm6 10c1.1 0 2-.9 2-2V5c0-1.1-.9-2-2-2H5c-1.1 0-2 .9-2 2v14c0 1.1.9 2 2 2h14zM9 18H7v-2h2v2zm4 0h-2v-2h2v2zm4 0h-2v-2h2v2zM5 13h2v-2H5V5h14v6h-2v2h2v2h-2v-2h-2v2h-2v-2h-2v2H9v-2H7v2H5v-2zm2-4h2v2H7zm8 0h2v2h-2zm-4 0h2v2h-2zm-2 2h2v2H9z"/></symbol>
<symbol id="grain" viewBox="0 0 24 24"><path d="M0 0h24v24H0V0z" fill="none"/><path d="M18 8c1.1 0 2-.9 2-2s-.9-2-2-2-2 .9-2 2 .9 2 2 2zm0 8c1.1 0 2-.9 2-2s-.9-2-2-2-2 .9-2 2 .9 2 2 2zM6 8c-1.1 0-2 .9-2 2s.9 2 2 2 2-.9 2-2-.9-2-2-2zm8 0c-1.1 0-2 .9-2 2s.9 2 2 2 2-.9 2-2-.9-2-2-2zm-4 8c1.1 0 2-.9 2-2s-.9-2-2-2-2 .9-2 2 .9 2 2 2zm0-12c-1.1 0-2 .9-2 2s.9 2 2 2 2-.9 2-2-.9-2-2-2zm4 12c-1.1 0-2 .9-2 2s.9 2 2 2 2-.9 2-2-.9-2-2-2zm-8 4c1.1 0 2-.9 2-2s-.9-2-2-2-2 .9-2 2 .9 2 2 2z"/></symbol>
<symbol id="grid_off" viewBox="0 0 24 24"><path d="M0 0h24v24H0V0z" fill="none"/><path d="M20 14v-4h-4v2.89L17.11 14zm-10-1.45V14h1.45zM14 10h-.89l.89.89zm5.11 6l.89.89V16zM8 4h-.89l.89.89zm6 4V4h-4v2.89L11.11 8zm2-4h4v4h-4zm-6 12v4h4v-3.45l-.55-.55zm-6-6v4h4v-3.45L7.45 10zm12 10h1.45L16 18.55zM4 16h4v4H4zm0-9.45V8h1.45z" opacity=".3"/><path d="M8 4v.89l2 2V4h4v4h-2.89l2 2H14v.89l2 2V10h4v4h-2.89l2 2H20v.89l2 2V4c0-1.1-.9-2-2-2H5.11l2 2H8zm8 0h4v4h-4V4zM1.41 1.14L0 2.55l2 2V20c0 1.1.9 2 2 2h15.45l2.01 2.01 1.41-1.41L1.41 1.14zM10 12.55L11.45 14H10v-1.45zm-6-6L5.45 8H4V6.55zM8 20H4v-4h4v4zm0-6H4v-4h3.45l.55.55V14zm6 6h-4v-4h3.45l.55.55V20zm2 0v-1.45L17.45 20H16z"/></symbol>
<symbol id="grid_on" viewBox="0 0 24 24"><path d="M0 0h24v24H0V0z" fill="none"/><path d="M10 10h4v4h-4zm0 6h4v4h-4zM4 4h4v4H4zm0 6h4v4H4zm0 6h4v4H4zM16 4h4v4h-4zm0 6h4v4h-4zm0 6h4v4h-4zM10 4h4v4h-4z" opacity=".3"/><path d="M20 2H4c-1.1 0-2 .9-2 2v16c0 1.1.9 2 2 2h16c1.1 0 2-.9 2-2V4c0-1.1-.9-2-2-2zM8 20H4v-4h4v4zm0-6H4v-4h4v4zm0-6H4V4h4v4zm6 12h-4v-4h4v4zm0-6h-4v-4h4v4zm0-6h-4V4h4v4zm6 12h-4v-4h4v4zm0-6h-4v-4h4v4zm0-6h-4V4h4v4z"/></symbol>
<symbol id="hdr_off" viewBox="0 0 24 24"><path d="M0 0h24v24H0V0z" fill="none"/><path d="M17.5 15v-2h1.1l.9 2H21l-.9-2.1c.5-.3.9-.8.9-1.4v-1c0-.8-.7-1.5-1.5-1.5H16v4.86L17.14 15h.36zm0-4.5h2v1h-2v-1zm-4.5 0v.36l1.5 1.5V10.5c0-.8-.7-1.5-1.5-1.5h-1.86l1.5 1.5H13zM2.51 2.49L1.45 3.55 6.9 9h-.4v2h-2V9H3v6h1.5v-2.5h2V15H8v-4.9l1.5 1.5V15h3.4l7.6 7.6 1.06-1.06z"/></symbol>
<symbol id="hdr_on" viewBox="0 0 24 24"><path d="M0 0h24v24H0V0z" fill="none"/><path d="M13 9H9.5v6H13c.8 0 1.5-.7 1.5-1.5v-3c0-.8-.7-1.5-1.5-1.5zm0 4.5h-2v-3h2v3zm8-2v-1c0-.8-.7-1.5-1.5-1.5H16v6h1.5v-2h1.1l.9 2H21l-.9-2.1c.5-.3.9-.8.9-1.4zm-1.5 0h-2v-1h2v1zm-13-.5h-2V9H3v6h1.5v-2.5h2V15H8V9H6.5z"/></symbol>
<symbol id="hdr_strong" viewBox="0 0 24 24"><path d="M0 0h24v24H0V0z" fill="none"/><path d="M17 8c-2.21 0-4 1.79-4 4s1.79 4 4 4 4-1.79 4-4-1.79-4-4-4z" opacity=".3"/><path d="M17 6c-3.31 0-6 2.69-6 6s2.69 6 6 6 6-2.69 6-6-2.69-6-6-6zm0 10c-2.21 0-4-1.79-4-4s1.79-4 4-4 4 1.79 4 4-1.79 4-4 4zM5 16c2.21 0 4-1.79 4-4S7.21 8 5 8s-4 1.79-4 4 1.79 4 4 4zm0-6c1.1 0 2 .9 2 2s-.9 2-2 2-2-.9-2-2 .9-2 2-2z"/></symbol>
<symbol id="hdr_weak" viewBox="0 0 24 24"><path d="M0 0h24v24H0V0z" fill="none"/><path d="M17 6c-3.31 0-6 2.69-6 6s2.69 6 6 6 6-2.69 6-6-2.69-6-6-6zm0 10c-2.21 0-4-1.79-4-4s1.79-4 4-4 4 1.79 4 4-1.79 4-4 4z"/><circle cx="5" cy="12" opacity=".3" r="2"/><path d="M5 8c-2.21 0-4 1.79-4 4s1.79 4 4 4 4-1.79 4-4-1.79-4-4-4zm0 6c-1.1 0-2-.9-2-2s.9-2 2-2 2 .9 2 2-.9 2-2 2z"/></symbol>
<symbol id="healing" viewBox="0 0 24 24"><path d="M0 0h24v24H0V0z" fill="none"/><path d="M13.03 16.72l3.63 3.62 3.62-3.63-3.62-3.62zM7.29 3.71L3.66 7.34l3.63 3.62 3.62-3.63z" opacity=".3"/><path d="M17.73 12.02l3.98-3.98c.39-.39.39-1.02 0-1.41l-4.34-4.34c-.39-.39-1.02-.39-1.41 0l-3.98 3.98L8 2.29C7.8 2.1 7.55 2 7.29 2c-.25 0-.51.1-.7.29L2.25 6.63c-.39.39-.39 1.02 0 1.41l3.98 3.98L2.25 16c-.39.39-.39 1.02 0 1.41l4.34 4.34c.39.39 1.02.39 1.41 0l3.98-3.98 3.98 3.98c.2.2.45.29.71.29s.51-.1.71-.29l4.34-4.34c.39-.39.39-1.02 0-1.41l-3.99-3.98zM12 9c.55 0 1 .45 1 1s-.45 1-1 1-1-.45-1-1 .45-1 1-1zm-4.71 1.96L3.66 7.34l3.63-3.63 3.62 3.62-3.62 3.63zM10 13c-.55 0-1-.45-1-1s.45-1 1-1 1 .45 1 1-.45 1-1 1zm2 2c-.55 0-1-.45-1-1s.45-1 1-1 1 .45 1 1-.45 1-1 1zm2-4c.55 0 1 .45 1 1s-.45 1-1 1-1-.45-1-1 .45-1 1-1zm2.66 9.34l-3.63-3.62 3.63-3.63 3.62 3.62-3.62 3.63z"/></symbol>
<symbol id="image" viewBox="0 0 24 24"><path d="M0 0h24v24H0V0z" fill="none"/><path d="M5 19h14V5H5v14zm4-5.86l2.14 2.58 3-3.87L18 17H6l3-3.86z" opacity=".3"/><path d="M19 3H5c-1.1 0-2 .9-2 2v14c0 1.1.9 2 2 2h14c1.1 0 2-.9 2-2V5c0-1.1-.9-2-2-2zm0 16H5V5h14v14zm-4.86-7.14l-3 3.86L9 13.14 6 17h12z"/></symbol>
<symbol id="image_aspect_ratio" viewBox="0 0 24 24"><path d="M0 0h24v24H0z" fill="none"/><path d="M4 18h16V6H4v12zm10-8h2v2h-2v-2zm0 4h2v2h-2v-2zm-4-4h2v2h-2v-2zm-4 0h2v2H6v-2z" opacity=".3"/><path d="M14 10h2v2h-2zm0 4h2v2h-2zm-8-4h2v2H6zm4 0h2v2h-2zm10-6H4c-1.1 0-2 .9-2 2v12c0 1.1.9 2 2 2h16c1.1 0 2-.9 2-2V6c0-1.1-.9-2-2-2zm0 14H4V6h16v12z"/></symbol>
<symbol id="image_not_supported" viewBox="0 0 24 24"><g><rect fill="none" height="24" width="24"/><g><path d="M7.83,5H19v11.17L7.83,5z M16.17,19l-2-2H6l3-4l2,2.72l0.84-1.05L5,7.83V19H16.17z" opacity=".3"/><path d="M5.83,3H19c1.1,0,2,0.9,2,2v13.17l-2-2V5H7.83L5.83,3z M20.49,23.31L18.17,21H5c-1.1,0-2-0.9-2-2V5.83L0.69,3.51L2.1,2.1 l1.49,1.49L5,5l8.11,8.11l2.69,2.69L19,19l1.41,1.41l1.49,1.49L20.49,23.31z M16.17,19l-2-2H6l3-4l2,2.72l0.84-1.05L5,7.83V19 H16.17z"/></g></g></symbol>
<symbol id="image_search" viewBox="0 0 24 24"><path d="M0 0h24v24H0V0z" fill="none"/><path d="M17.7 11.53c-.7.31-1.45.47-2.21.47C12.46 12 10 9.53 10 6.5c0-.17.01-.34.03-.5H4v14h14v-8.17l-.3-.3zM5.5 18l2.75-3.53 1.96 2.36 2.75-3.54L16.5 18h-11z" opacity=".3"/><path d="M10.21 16.83l-1.96-2.36L5.5 18h11l-3.54-4.71zM20 6.5C20 4.01 17.99 2 15.5 2S11 4.01 11 6.5s2.01 4.5 4.49 4.5c.88 0 1.7-.26 2.39-.7L21 13.42 22.42 12 19.3 8.89c.44-.7.7-1.51.7-2.39zM15.5 9C14.12 9 13 7.88 13 6.5S14.12 4 15.5 4 18 5.12 18 6.5 16.88 9 15.5 9zM18 20H4V6h6.03c.06-.72.27-1.39.58-2H4c-1.1 0-2 .9-2 2v14c0 1.1.9 2 2 2h14c1.1 0 2-.9 2-2v-6.17l-2-2V20z"/></symbol>
<symbol id="iso" viewBox="0 0 24 24"><path d="M0 0h24v24H0V0z" fill="none"/><path d="M19 19V5L5 19h14zm-2-3.5V17h-5v-1.5h5z" opacity=".3"/><path d="M12 15.5h5V17h-5zM19 3H5c-1.1 0-2 .9-2 2v14c0 1.1.9 2 2 2h14c1.1 0 2-.9 2-2V5c0-1.1-.9-2-2-2zM5.5 7.5h2v-2H9v2h2V9H9v2H7.5V9h-2V7.5zM19 19H5L19 5v14z"/></symbol>
<symbol id="landscape" viewBox="0 0 24 24"><path d="M0 0h24v24H0V0z" fill="none"/><path d="M5 16h3.04l-1.52-2.03z" opacity=".3"/><path d="M9.78 11.63l1.25 1.67L14 9.33 19 16h-8.46l-4.01-5.37L1 18h22L14 6l-4.22 5.63zM5 16l1.52-2.03L8.04 16H5z"/></symbol>
<symbol id="leak_add" viewBox="0 0 24 24"><path d="M0 0h24v24H0V0z" fill="none"/><path d="M18 21h3v-3c-1.66 0-3 1.34-3 3zM3 14c6.08 0 11-4.93 11-11h-2c0 4.97-4.03 9-9 9v2zm11 7h2c0-2.76 2.24-5 5-5v-2c-3.87 0-7 3.13-7 7zM3 10c3.87 0 7-3.13 7-7H8c0 2.76-2.24 5-5 5v2zm7 11h2c0-4.97 4.03-9 9-9v-2c-6.07 0-11 4.93-11 11zM3 3v3c1.66 0 3-1.34 3-3H3z"/></symbol>
<symbol id="leak_remove" viewBox="0 0 24 24"><path d="M0 0h24v24H0V0z" fill="none"/><path d="M14 3h-2c0 1.35-.31 2.63-.84 3.77l1.49 1.49C13.51 6.7 14 4.91 14 3zm7 9v-2c-1.91 0-3.7.49-5.27 1.35l1.49 1.49c1.15-.53 2.43-.84 3.78-.84zm0 4v-2c-.79 0-1.54.13-2.24.37l1.68 1.68c.19-.01.37-.05.56-.05zM10 3H8c0 .19-.04.37-.06.56l1.68 1.68c.25-.7.38-1.46.38-2.24zm-5.59-.14L3 4.27l2.84 2.84C5.03 7.67 4.06 8 3 8v2c1.61 0 3.09-.55 4.27-1.46L8.7 9.97C7.14 11.24 5.16 12 3 12v2c2.72 0 5.2-.99 7.11-2.62l2.51 2.51C10.99 15.81 10 18.29 10 21h2c0-2.16.76-4.14 2.03-5.7l1.43 1.43C14.55 17.91 14 19.39 14 21h2c0-1.06.33-2.03.89-2.84L19.73 21l1.41-1.41L4.41 2.86z"/></symbol>
<symbol id="lens" viewBox="0 0 24 24"><path d="M0 0h24v24H0V0z" fill="none"/><path d="M12 4c-4.41 0-8 3.59-8 8s3.59 8 8 8 8-3.59 8-8-3.59-8-8-8z" opacity=".3"/><path d="M12 2C6.48 2 2 6.48 2 12s4.48 10 10 10 10-4.48 10-10S17.52 2 12 2zm0 18c-4.41 0-8-3.59-8-8s3.59-8 8-8 8 3.59 8 8-3.59 8-8 8z"/></symbol>
<symbol id="linked_camera" viewBox="0 0 24 24"><path d="M0 0h24v24H0V0z" fill="none"/><path d="M20 20H4V8h4.05l1.83-2H15V4H9L7.17 6H4c-1.1 0-2 .9-2 2v12c0 1.1.9 2 2 2h16c1.1 0 2-.9 2-2V9h-2v11zM16 2v1.33c2.58 0 4.66 2.09 4.67 4.66H22C21.99 4.68 19.31 2 16 2zm0 2.67V6c1.11 0 1.99.89 2 1.99h1.33c-.01-1.84-1.49-3.32-3.33-3.32z"/><path d="M14.98 10.01c-.13-.09-.26-.18-.39-.26.14.08.27.17.39.26zM17 9c0-.37-.11-.71-.28-1.01-.18-.3-.43-.55-.73-.72C15.7 7.1 15.36 7 15 7V6H9.88L8.05 8H4v12h16V9h-3zm-5 10c-2.76 0-5-2.24-5-5s2.24-5 5-5 5 2.24 5 5-2.24 5-5 5z" opacity=".3"/><path d="M12 9c-2.76 0-5 2.24-5 5s2.24 5 5 5 5-2.24 5-5-2.24-5-5-5zm0 8c-1.65 0-3-1.35-3-3s1.35-3 3-3 3 1.35 3 3-1.35 3-3 3z"/></symbol>
<symbol id="looks" viewBox="0 0 24 24"><path d="M0 0h24v24H0V0z" fill="none"/><path d="M12 6C5.93 6 1 10.93 1 17h2c0-4.96 4.04-9 9-9s9 4.04 9 9h2c0-6.07-4.93-11-11-11zm0 6c2.76 0 5 2.24 5 5h2c0-3.86-3.14-7-7-7s-7 3.14-7 7h2c0-2.76 2.24-5 5-5z"/></symbol>
<symbol id="looks_3" viewBox="0 0 24 24"><path d="M0 0h24v24H0V0z" fill="none"/><path d="M5 19h14V5H5v14zm4-4h4v-2h-2v-2h2V9H9V7h4c1.1 0 2 .89 2 2v1.5c0 .83-.67 1.5-1.5 1.5.83 0 1.5.67 1.5 1.5V15c0 1.11-.9 2-2 2H9v-2z" opacity=".3"/><path d="M19 3H5c-1.1 0-2 .9-2 2v14c0 1.1.9 2 2 2h14c1.1 0 2-.9 2-2V5c0-1.1-.9-2-2-2zm0 16H5V5h14v14zm-4-4v-1.5c0-.83-.67-1.5-1.5-1.5.83 0 1.5-.67 1.5-1.5V9c0-1.11-.9-2-2-2H9v2h4v2h-2v2h2v2H9v2h4c1.1 0 2-.89 2-2z"/></symbol>
<symbol id="looks_4" viewBox="0 0 24 24"><path d="M.04 0h24v24h-24V0z" fill="none"/><path d="M5.04 19h14V5h-14v14zm4-12h2v4h2V7h2v10h-2v-4h-4V7z" opacity=".3"/><path d="M19.04 3h-14c-1.1 0-2 .9-2 2v14c0 1.1.9 2 2 2h14c1.1 0 2-.9 2-2V5c0-1.1-.9-2-2-2zm0 16h-14V5h14v14zm-6-2h2V7h-2v4h-2V7h-2v6h4z"/></symbol>
<symbol id="looks_5" viewBox="0 0 24 24"><path d="M0 0h24v24H0V0z" fill="none"/><path d="M19 5H5v14h14V5zm-4 4h-4v2h2c1.1 0 2 .89 2 2v2c0 1.11-.9 2-2 2H9v-2h4v-2H9V7h6v2z" opacity=".3"/><path d="M5 21h14c1.1 0 2-.9 2-2V5c0-1.1-.9-2-2-2H5c-1.1 0-2 .9-2 2v14c0 1.1.9 2 2 2zM5 5h14v14H5V5zm4 8h4v2H9v2h4c1.1 0 2-.89 2-2v-2c0-1.11-.9-2-2-2h-2V9h4V7H9v6z"/></symbol>
<symbol id="looks_6" viewBox="0 0 24 24"><path d="M0 0h24v24H0V0z" fill="none"/><path d="M11 13h2v2h-2zm8-8H5v14h14V5zm-4 4h-4v2h2c1.1 0 2 .89 2 2v2c0 1.11-.9 2-2 2h-2c-1.1 0-2-.89-2-2V9c0-1.11.9-2 2-2h4v2z" opacity=".3"/><path d="M9 9v6c0 1.11.9 2 2 2h2c1.1 0 2-.89 2-2v-2c0-1.11-.9-2-2-2h-2V9h4V7h-4c-1.1 0-2 .89-2 2zm4 4v2h-2v-2h2zm-8 8h14c1.1 0 2-.9 2-2V5c0-1.1-.9-2-2-2H5c-1.1 0-2 .9-2 2v14c0 1.1.9 2 2 2zM5 5h14v14H5V5z"/></symbol>
<symbol id="looks_one" viewBox="0 0 24 24"><path d="M0 0h24v24H0V0z" fill="none"/><path d="M19 5H5v14h14V5zm-5 12h-2V9h-2V7h4v10z" opacity=".3"/><path d="M5 21h14c1.1 0 2-.9 2-2V5c0-1.1-.9-2-2-2H5c-1.1 0-2 .9-2 2v14c0 1.1.9 2 2 2zM5 5h14v14H5V5zm5 4h2v8h2V7h-4z"/></symbol>
<symbol id="looks_two" viewBox="0 0 24 24"><path d="M0 0h24v24H0V0z" fill="none"/><path d="M19 5H5v14h14V5zm-4 6c0 1.11-.9 2-2 2h-2v2h4v2H9v-4c0-1.11.9-2 2-2h2V9H9V7h4c1.1 0 2 .89 2 2v2z" opacity=".3"/><path d="M5 21h14c1.1 0 2-.9 2-2V5c0-1.1-.9-2-2-2H5c-1.1 0-2 .9-2 2v14c0 1.1.9 2 2 2zM5 5h14v14H5V5zm8 2H9v2h4v2h-2c-1.1 0-2 .89-2 2v4h6v-2h-4v-2h2c1.1 0 2-.89 2-2V9c0-1.11-.9-2-2-2z"/></symbol>
<symbol id="loupe" viewBox="0 0 24 24"><path d="M0 0h24v24H0V0z" fill="none"/><path d="M12 20c4.41 0 8-3.59 8-8s-3.59-8-8-8-8 3.59-8 8 3.59 8 8 8zm-5-9h4V7h2v4h4v2h-4v4h-2v-4H7v-2z" opacity=".3"/><path d="M11 17h2v-4h4v-2h-4V7h-2v4H7v2h4zm1 5h8c1.1 0 2-.9 2-2v-8c0-5.51-4.49-10-10-10S2 6.49 2 12s4.49 10 10 10zm0-18c4.41 0 8 3.59 8 8s-3.59 8-8 8-8-3.59-8-8 3.59-8 8-8z"/></symbol>
<symbol id="monochrome_photos" viewBox="0 0 24 24"><path d="M0 0h24v24H0V0z" fill="none"/><path d="M12 18v-1.8c-1.8 0-3.2-1.4-3.2-3.2s1.4-3.2 3.2-3.2V8c-2.8 0-5 2.2-5 5s2.2 5 5 5zm5-5c0 2.8-2.2 5-5 5v1h8V7h-8v1c2.8 0 5 2.2 5 5z" opacity=".3"/><path d="M4 21h16c1.1 0 2-.9 2-2V7c0-1.1-.9-2-2-2h-3.2L15 3H9L7.2 5H4c-1.1 0-2 .9-2 2v12c0 1.1.9 2 2 2zm8-13V7h8v12h-8v-1c-2.8 0-5-2.2-5-5s2.2-5 5-5zm3.2 5c0 1.8-1.4 3.2-3.2 3.2V18c2.8 0 5-2.2 5-5s-2.2-5-5-5v1.8c1.8 0 3.2 1.4 3.2 3.2zm-6.4 0c0 1.8 1.4 3.2 3.2 3.2V9.8c-1.8 0-3.2 1.4-3.2 3.2z"/></symbol>
<symbol id="motion_photos_on" viewBox="0 0 24 24"><g><rect fill="none" height="24" width="24" x="0" y="0"/><path d="M10,16.5v-9l6,4.5L10,16.5z M22,12c0,5.52-4.48,10-10,10S2,17.52,2,12c0-1.19,0.22-2.32,0.6-3.38L4.48,9.3 C4.17,10.14,4,11.05,4,12c0,4.41,3.59,8,8,8s8-3.59,8-8s-3.59-8-8-8c-0.95,0-1.85,0.17-2.69,0.48L8.63,2.59C9.69,2.22,10.82,2,12,2 C17.52,2,22,6.48,22,12z M5.5,4C4.67,4,4,4.67,4,5.5S4.67,7,5.5,7S7,6.33,7,5.5S6.33,4,5.5,4z"/></g></symbol>
<symbol id="motion_photos_pause" viewBox="0 0 24 24"><rect fill="none" height="24" width="24"/><path d="M22,12c0,5.52-4.48,10-10,10S2,17.52,2,12c0-1.19,0.22-2.32,0.6-3.38L4.48,9.3C4.17,10.14,4,11.05,4,12c0,4.41,3.59,8,8,8 s8-3.59,8-8s-3.59-8-8-8c-0.95,0-1.85,0.17-2.69,0.48L8.63,2.59C9.69,2.22,10.82,2,12,2C17.52,2,22,6.48,22,12z M5.5,7 C6.33,7,7,6.33,7,5.5S6.33,4,5.5,4S4,4.67,4,5.5S4.67,7,5.5,7z M9,9v6h2V9H9z M13,9v6h2V9H13z"/></symbol>
<symbol id="motion_photos_paused" viewBox="0 0 24 24"><g><rect fill="none" height="24" width="24"/><path d="M22,12c0,5.52-4.48,10-10,10S2,17.52,2,12c0-1.19,0.22-2.32,0.6-3.38L4.48,9.3C4.17,10.14,4,11.05,4,12c0,4.41,3.59,8,8,8 s8-3.59,8-8s-3.59-8-8-8c-0.95,0-1.85,0.17-2.69,0.48L8.63,2.59C9.69,2.22,10.82,2,12,2C17.52,2,22,6.48,22,12z M5.5,4 C4.67,4,4,4.67,4,5.5S4.67,7,5.5,7S7,6.33,7,5.5S6.33,4,5.5,4z M11,16V8H9v8H11z M15,16V8h-2v8H15z"/></g></symbol>
<symbol id="movie_creation" viewBox="0 0 24 24"><path d="M0 0h24v24H0V0z" fill="none"/><path d="M4 6.47V18h16v-8H5.76z" opacity=".3"/><path d="M18 4l2 4h-3l-2-4h-2l2 4h-3l-2-4H8l2 4H7L5 4H4c-1.1 0-2 .9-2 2v12c0 1.1.9 2 2 2h16c1.1 0 2-.9 2-2V4h-4zm2 14H4V6.47L5.76 10H20v8z"/></symbol>
<symbol id="movie_filter" viewBox="0 0 24 24"><path d="M0 0h24v24H0V0z" fill="none"/><path d="M16.63 11.37L18 12l-1.37.63L16 14l-.63-1.37L14 12l1.37-.63L16 10H5.77L4.01 6.47V18h16v-8H16l.63 1.37zm-5.69 3.57L10 17l-.94-2.06L7 14l2.06-.94L10 11l.94 2.06L13 14l-2.06.94z" opacity=".3"/><path d="M10 11l-.94 2.06L7 14l2.06.94L10 17l.94-2.06L13 14l-2.06-.94zm8.01-7l2 4h-3l-2-4h-2l2 4h-3l-2-4h-2l2 4h-3l-2-4h-1c-1.1 0-1.99.9-1.99 2l-.01 12c0 1.1.9 2 2 2h16c1.1 0 1.99-.9 1.99-2V4h-3.99zm2 14h-16V6.47L5.77 10H16l-.63 1.37L14 12l1.37.63L16 14l.63-1.37L18 12l-1.37-.63L16 10h4.01v8z"/></symbol>
<symbol id="music_note" viewBox="0 0 24 24"><path d="M0 0h24v24H0V0z" fill="none"/><circle cx="10.01" cy="17" opacity=".3" r="2"/><path d="M12 3l.01 10.55c-.59-.34-1.27-.55-2-.55C7.79 13 6 14.79 6 17s1.79 4 4.01 4S14 19.21 14 17V7h4V3h-6zm-1.99 16c-1.1 0-2-.9-2-2s.9-2 2-2 2 .9 2 2-.9 2-2 2z"/></symbol>
<symbol id="music_off" viewBox="0 0 24 24"><path d="M0 0h24v24H0V0z" fill="none"/><circle cx="10" cy="17" opacity=".3" r="2"/><path d="M14 7h4V3h-6v4.61l2 2zm-2 3.44L4.41 2.86 3 4.27l9 9v.28c-.94-.54-2.1-.75-3.33-.32-1.34.48-2.37 1.67-2.61 3.07-.46 2.74 1.86 5.08 4.59 4.65 1.96-.31 3.35-2.11 3.35-4.1v-1.58L19.73 21l1.41-1.41L12 10.44zM10 19c-1.1 0-2-.9-2-2s.9-2 2-2 2 .9 2 2-.9 2-2 2z"/></symbol>
<symbol id="nature" viewBox="0 0 24 24"><path d="M0 0h24v24H0V0z" fill="none"/><path d="M12.17 4.17c-2.76 0-5 2.24-5 5s2.24 5 5 5 5-2.24 5-5-2.25-5-5-5z" opacity=".3"/><path d="M19.17 9.17c0-3.87-3.13-7-7-7s-7 3.13-7 7c0 3.47 2.52 6.34 5.83 6.89V20H5v2h14v-2h-6v-3.88h-.03c3.49-.4 6.2-3.36 6.2-6.95zm-7 5c-2.76 0-5-2.24-5-5s2.24-5 5-5 5 2.24 5 5-2.25 5-5 5z"/></symbol>
<symbol id="nature_people" viewBox="0 0 24 24"><path d="M0 0h24v24H0V0z" fill="none"/><circle cx="15.17" cy="9.17" opacity=".3" r="5"/><circle cx="4.5" cy="9.5" r="1.5"/><path d="M15.17 2.17c-3.87 0-7 3.13-7 7 0 3.47 2.52 6.34 5.83 6.89V20H6v-3h1v-4c0-.55-.45-1-1-1H3c-.55 0-1 .45-1 1v4h1v5h16v-2h-3v-3.88c3.47-.41 6.17-3.36 6.17-6.95 0-3.87-3.13-7-7-7zm0 12c-2.76 0-5-2.24-5-5s2.24-5 5-5 5 2.24 5 5-2.24 5-5 5z"/></symbol>
<symbol id="navigate_before" viewBox="0 0 24 24"><path d="M0 0h24v24H0V0z" fill="none"/><path d="M14.2 6l-6 6 6 6 1.41-1.41L11.03 12l4.58-4.59z"/></symbol>
<symbol id="navigate_next" viewBox="0 0 24 24"><path d="M0 0h24v24H0V0z" fill="none"/><path d="M10.02 18l6-6-6-6-1.41 1.41L13.19 12l-4.58 4.59z"/></symbol>
<symbol id="palette" viewBox="0 0 24 24"><path d="M0 0h24v24H0V0z" fill="none"/><path d="M12 4c-4.41 0-8 3.59-8 8s3.59 8 8 8c.28 0 .5-.22.5-.5 0-.16-.08-.28-.14-.35-.41-.46-.63-1.05-.63-1.65 0-1.38 1.12-2.5 2.5-2.5H16c2.21 0 4-1.79 4-4 0-3.86-3.59-7-8-7zm-5.5 9c-.83 0-1.5-.67-1.5-1.5S5.67 10 6.5 10s1.5.67 1.5 1.5S7.33 13 6.5 13zm3-4C8.67 9 8 8.33 8 7.5S8.67 6 9.5 6s1.5.67 1.5 1.5S10.33 9 9.5 9zm5 0c-.83 0-1.5-.67-1.5-1.5S13.67 6 14.5 6s1.5.67 1.5 1.5S15.33 9 14.5 9zm4.5 2.5c0 .83-.67 1.5-1.5 1.5s-1.5-.67-1.5-1.5.67-1.5 1.5-1.5 1.5.67 1.5 1.5z" opacity=".3"/><path d="M12 2C6.49 2 2 6.49 2 12s4.49 10 10 10c1.38 0 2.5-1.12 2.5-2.5 0-.61-.23-1.21-.64-1.67-.08-.09-.13-.21-.13-.33 0-.28.22-.5.5-.5H16c3.31 0 6-2.69 6-6 0-4.96-4.49-9-10-9zm4 13h-1.77c-1.38 0-2.5 1.12-2.5 2.5 0 .61.22 1.19.63 1.65.06.07.14.19.14.35 0 .28-.22.5-.5.5-4.41 0-8-3.59-8-8s3.59-8 8-8 8 3.14 8 7c0 2.21-1.79 4-4 4z"/><circle cx="6.5" cy="11.5" r="1.5"/><circle cx="9.5" cy="7.5" r="1.5"/><circle cx="14.5" cy="7.5" r="1.5"/><circle cx="17.5" cy="11.5" r="1.5"/></symbol>
<symbol id="panorama" viewBox="0 0 24 24"><path d="M0 0h24v24H0V0z" fill="none"/><path d="M3 18h18V6H3v12zm5.5-5.5l2.5 3.01L14.5 11l4.5 6H5l3.5-4.5z" opacity=".3"/><path d="M21 4H3c-1.1 0-2 .9-2 2v12c0 1.1.9 2 2 2h18c1.1 0 2-.9 2-2V6c0-1.1-.9-2-2-2zm0 14H3V6h18v12zm-6.5-7L11 15.51 8.5 12.5 5 17h14z"/></symbol>
<symbol id="panorama_fish_eye" viewBox="0 0 24 24"><path d="M0 0h24v24H0V0z" fill="none"/><path d="M12 4c-4.41 0-8 3.59-8 8s3.59 8 8 8 8-3.59 8-8-3.59-8-8-8z" opacity=".3"/><path d="M12 2C6.47 2 2 6.47 2 12s4.47 10 10 10 10-4.47 10-10S17.53 2 12 2zm0 18c-4.41 0-8-3.59-8-8s3.59-8 8-8 8 3.59 8 8-3.59 8-8 8z"/></symbol>
<symbol id="panorama_horizontal" viewBox="0 0 24 24"><path d="M0 0h24v24H0V0z" fill="none"/><path d="M4 6.54v10.91c2.6-.77 5.28-1.16 8-1.16s5.4.39 8 1.16V6.54c-2.6.78-5.28 1.17-8 1.16-2.72 0-5.4-.39-8-1.16z" opacity=".3"/><path d="M21.43 4c-.1 0-.2.02-.31.06C18.18 5.16 15.09 5.7 12 5.7s-6.18-.55-9.12-1.64C2.77 4.02 2.66 4 2.57 4c-.34 0-.57.23-.57.63v14.75c0 .39.23.62.57.62.1 0 .2-.02.31-.06 2.94-1.1 6.03-1.64 9.12-1.64s6.18.55 9.12 1.64c.11.04.21.06.31.06.33 0 .57-.23.57-.63V4.63c0-.4-.24-.63-.57-.63zM20 17.45c-2.6-.77-5.28-1.16-8-1.16s-5.4.39-8 1.16V6.54c2.6.77 5.28 1.16 8 1.16 2.72.01 5.4-.38 8-1.16v10.91z"/></symbol>
<symbol id="panorama_vertical" viewBox="0 0 24 24"><path d="M0 0h24v24H0V0z" fill="none"/><path d="M6.54 4c.77 2.6 1.16 5.28 1.16 8 0 2.72-.39 5.4-1.16 8h10.91c-.77-2.6-1.16-5.28-1.16-8 0-2.72.39-5.4 1.16-8H6.54z" opacity=".3"/><path d="M19.94 21.12c-1.1-2.94-1.64-6.03-1.64-9.12 0-3.09.55-6.18 1.64-9.12.04-.11.06-.22.06-.31 0-.34-.23-.57-.63-.57H4.63c-.4 0-.63.23-.63.57 0 .1.02.2.06.31C5.16 5.82 5.71 8.91 5.71 12c0 3.09-.55 6.18-1.64 9.12-.05.11-.07.22-.07.31 0 .33.23.57.63.57h14.75c.39 0 .63-.24.63-.57-.01-.1-.03-.2-.07-.31zM17.45 20H6.54c.77-2.6 1.16-5.28 1.16-8 0-2.72-.39-5.4-1.16-8h10.91c-.77 2.6-1.16 5.28-1.16 8 0 2.72.39 5.4 1.16 8z"/></symbol>
<symbol id="panorama_wide_angle" viewBox="0 0 24 24"><path d="M0 0h24v24H0V0z" fill="none"/><path d="M12 6c-2.45 0-4.71.2-7.29.64C4.24 8.42 4 10.22 4 12c0 1.78.24 3.58.71 5.36 2.58.44 4.84.64 7.29.64s4.71-.2 7.29-.64c.47-1.78.71-3.58.71-5.36 0-1.78-.24-3.58-.71-5.36C16.71 6.2 14.45 6 12 6z" opacity=".3"/><path d="M21.13 5.78l-.25-.89-.93-.16C17.22 4.24 14.73 4 12 4s-5.22.24-7.95.72l-.93.16-.25.9C2.29 7.85 2 9.93 2 12s.29 4.15.87 6.22l.25.89.93.16c2.73.49 5.22.73 7.95.73s5.22-.24 7.95-.72l.93-.16.25-.89c.58-2.08.87-4.16.87-6.23s-.29-4.15-.87-6.22zm-1.84 11.58c-2.58.44-4.84.64-7.29.64s-4.71-.2-7.29-.64C4.24 15.58 4 13.78 4 12c0-1.78.24-3.58.71-5.36C7.29 6.2 9.55 6 12 6s4.71.2 7.29.64c.47 1.78.71 3.58.71 5.36 0 1.78-.24 3.58-.71 5.36z"/></symbol>
<symbol id="photo" viewBox="0 0 24 24"><path d="M0 0h24v24H0V0z" fill="none"/><path d="M19 5H5v14h14V5zM6 17l3-3.86 2.14 2.58 3-3.87L18 17H6z" opacity=".3"/><path d="M5 21h14c1.1 0 2-.9 2-2V5c0-1.1-.9-2-2-2H5c-1.1 0-2 .9-2 2v14c0 1.1.9 2 2 2zM5 5h14v14H5V5zm6.14 10.72L9 13.14 6 17h12l-3.86-5.14z"/></symbol>
<symbol id="photo_album" viewBox="0 0 24 24"><path d="M0 0h24v24H0V0z" fill="none"/><path d="M13 13l-3-2.25L7 13V4H6v16h12V4h-5v9zm4 6H7l2.5-3.19 1.78 2.15 2.5-3.22L17 19z" opacity=".3"/><path d="M18 2H6c-1.1 0-2 .9-2 2v16c0 1.1.9 2 2 2h12c1.1 0 2-.9 2-2V4c0-1.1-.9-2-2-2zM9 4h2v5l-1-.75L9 9V4zm9 16H6V4h1v9l3-2.25L13 13V4h5v16zm-8.5-4.19L7 19h10l-3.22-4.26-2.5 3.22z"/></symbol>
<symbol id="photo_camera" viewBox="0 0 24 24"><path d="M0 0h24v24H0V0z" fill="none"/><path d="M20 6h-4.05l-1.83-2H9.88L8.05 6H4v12h16V6zm-8 11c-2.76 0-5-2.24-5-5s2.24-5 5-5 5 2.24 5 5-2.24 5-5 5z" opacity=".3"/><path d="M4 20h16c1.1 0 2-.9 2-2V6c0-1.1-.9-2-2-2h-3.17L15 2H9L7.17 4H4c-1.1 0-2 .9-2 2v12c0 1.1.9 2 2 2zM4 6h4.05l1.83-2h4.24l1.83 2H20v12H4V6zm8 1c-2.76 0-5 2.24-5 5s2.24 5 5 5 5-2.24 5-5-2.24-5-5-5zm0 8c-1.65 0-3-1.35-3-3s1.35-3 3-3 3 1.35 3 3-1.35 3-3 3z"/></symbol>
<symbol id="photo_filter" viewBox="0 0 24 24"><path d="M0 0h24v24H0V0z" fill="none"/><path d="M19 10v9H4.98V5h9V3H5c-1.1 0-2 .9-2 2v14c0 1.1.9 2 2 2h14c1.1 0 2-.9 2-2v-9h-2zm-2.94-2.06L17 10l.94-2.06L20 7l-2.06-.94L17 4l-.94 2.06L14 7zM12 8l-1.25 2.75L8 12l2.75 1.25L12 16l1.25-2.75L16 12l-2.75-1.25z"/></symbol>
<symbol id="photo_library" viewBox="0 0 24 24"><path d="M0 0h24v24H0V0z" fill="none"/><path d="M8 16h12V4H8v12zm3.5-4.33l1.69 2.26 2.48-3.09L19 15H9l2.5-3.33z" opacity=".3"/><path d="M22 16V4c0-1.1-.9-2-2-2H8c-1.1 0-2 .9-2 2v12c0 1.1.9 2 2 2h12c1.1 0 2-.9 2-2zm-2 0H8V4h12v12zm-4.33-5.17l-2.48 3.09-1.69-2.25L9 15h10zM4 22h14v-2H4V6H2v14c0 1.1.9 2 2 2z"/></symbol>
<symbol id="photo_size_select_actual" viewBox="0 0 24 24"><path d="M0 0h24v24H0V0z" fill="none"/><path d="M3.08 5L3 5.08V19h17.92c.03-.02.06-.06.08-.08V5.08L20.92 5H3.08zM5 17l3.5-4.5 2.5 3.01L14.5 11l4.5 6H5z" opacity=".3"/><path d="M21 3H3C2 3 1 4 1 5v14c0 1.1.9 2 2 2h18c1 0 2-1 2-2V5c0-1-1-2-2-2zm0 15.92c-.02.03-.06.06-.08.08H3V5.08L3.08 5h17.83c.03.02.06.06.08.08v13.84zm-10-3.41L8.5 12.5 5 17h14l-4.5-6z"/></symbol>
<symbol id="photo_size_select_large" viewBox="0 0 24 24"><path d="M0 0h24v24H0V0z" fill="none"/><path d="M17 19h2v2h-2zM1 19c0 1.1.9 2 2 2h12V11H1v8zm4.5-3.21l1.79 2.15 2.5-3.22L13 19H3l2.5-3.21zM17 3h2v2h-2zm4 8h2v2h-2zm0 4h2v2h-2zM3 3C2 3 1 4 1 5h2V3zm18 4h2v2h-2zm-8-4h2v2h-2zm8 18c1 0 2-1 2-2h-2v2zM1 7h2v2H1zm8-4h2v2H9zM5 3h2v2H5zm16 0v2h2c0-1-1-2-2-2z"/></symbol>
<symbol id="photo_size_select_small" viewBox="0 0 24 24"><path d="M0 0h24v24H0V0z" fill="none"/><path d="M17 19h2v2h-2zm-4 0h2v2h-2zM1 19c0 1.1.9 2 2 2h8v-6H1v4zM9 3h2v2H9zM5 3h2v2H5zm12 0h2v2h-2zM1 11h2v2H1zm0-4h2v2H1zm2-4C2 3 1 4 1 5h2V3zm10 0h2v2h-2zm8 18c1 0 2-1 2-2h-2v2zm0-10h2v2h-2zm0-8v2h2c0-1-1-2-2-2zm0 12h2v2h-2zm0-8h2v2h-2z"/></symbol>
<symbol id="picture_as_pdf" viewBox="0 0 24 24"><path d="M0 0h24v24H0V0z" fill="none"/><path d="M4 6H2v14c0 1.1.9 2 2 2h14v-2H4V6z"/><path d="M10 9h1v1h-1zm4 0h1v3h-1zm-6 7h12V4H8v12zm9-8h2v1h-1v1h1v1h-1v2h-1V8zm-4 0h2c.55 0 1 .45 1 1v3c0 .55-.45 1-1 1h-2V8zM9 8h2c.55 0 1 .45 1 1v1c0 .55-.45 1-1 1h-1v2H9V8z" opacity=".3"/><path d="M20 2H8c-1.1 0-2 .9-2 2v12c0 1.1.9 2 2 2h12c1.1 0 2-.9 2-2V4c0-1.1-.9-2-2-2zm0 14H8V4h12v12zm-4-4V9c0-.55-.45-1-1-1h-2v5h2c.55 0 1-.45 1-1zm-2-3h1v3h-1V9zm4 2h1v-1h-1V9h1V8h-2v5h1zm-8 0h1c.55 0 1-.45 1-1V9c0-.55-.45-1-1-1H9v5h1v-2zm0-2h1v1h-1V9z"/></symbol>
<symbol id="portrait" viewBox="0 0 24 24"><path d="M0 0h24v24H0V0z" fill="none"/><path d="M5 19h14V5H5v14zm7-13c1.65 0 3 1.35 3 3s-1.35 3-3 3-3-1.35-3-3 1.35-3 3-3zM6 16.58C6 14.08 9.97 13 12 13s6 1.08 6 3.58V18H6v-1.42z" opacity=".3"/><path d="M12 12c1.65 0 3-1.35 3-3s-1.35-3-3-3-3 1.35-3 3 1.35 3 3 3zm0-4c.55 0 1 .45 1 1s-.45 1-1 1-1-.45-1-1 .45-1 1-1zm6 8.58c0-2.5-3.97-3.58-6-3.58s-6 1.08-6 3.58V18h12v-1.42zM8.48 16c.74-.51 2.23-1 3.52-1s2.78.49 3.52 1H8.48zM19 3H5c-1.11 0-2 .9-2 2v14c0 1.1.89 2 2 2h14c1.1 0 2-.9 2-2V5c0-1.1-.9-2-2-2zm0 16H5V5h14v14z"/></symbol>
<symbol id="receipt_long" viewBox="0 0 24 24"><path d="M19,19c0,0.55-0.45,1-1,1s-1-0.45-1-1v-3H8V5h11V19z" opacity=".3"/><path d="M0,0h24v24H0V0z" fill="none"/><g><path d="M19.5,3.5L18,2l-1.5,1.5L15,2l-1.5,1.5L12,2l-1.5,1.5L9,2L7.5,3.5L6,2v14H3v3c0,1.66,1.34,3,3,3h12c1.66,0,3-1.34,3-3V2 L19.5,3.5z M19,19c0,0.55-0.45,1-1,1s-1-0.45-1-1v-3H8V5h11V19z"/><rect height="2" width="6" x="9" y="7"/><rect height="2" width="2" x="16" y="7"/><rect height="2" width="6" x="9" y="10"/><rect height="2" width="2" x="16" y="10"/></g></symbol>
<symbol id="remove_red_eye" viewBox="0 0 24 24"><path d="M0 0h24v24H0V0z" fill="none"/><path d="M12 6.5c-3.79 0-7.17 2.13-8.82 5.5 1.65 3.37 5.02 5.5 8.82 5.5s7.17-2.13 8.82-5.5C19.17 8.63 15.79 6.5 12 6.5zm0 10c-2.48 0-4.5-2.02-4.5-4.5S9.52 7.5 12 7.5s4.5 2.02 4.5 4.5-2.02 4.5-4.5 4.5z" opacity=".3"/><path d="M12 4.5C7 4.5 2.73 7.61 1 12c1.73 4.39 6 7.5 11 7.5s9.27-3.11 11-7.5c-1.73-4.39-6-7.5-11-7.5zm0 13c-3.79 0-7.17-2.13-8.82-5.5C4.83 8.63 8.21 6.5 12 6.5s7.17 2.13 8.82 5.5c-1.65 3.37-5.03 5.5-8.82 5.5zm0-10c-2.48 0-4.5 2.02-4.5 4.5s2.02 4.5 4.5 4.5 4.5-2.02 4.5-4.5-2.02-4.5-4.5-4.5zm0 7c-1.38 0-2.5-1.12-2.5-2.5s1.12-2.5 2.5-2.5 2.5 1.12 2.5 2.5-1.12 2.5-2.5 2.5z"/></symbol>
<symbol id="rotate_90_degrees_ccw" viewBox="0 0 24 24"><path d="M0 0h24v24H0V0z" fill="none"/><path d="M7.35 9.24L3.69 12.9l3.65 3.66L11 12.9z" opacity=".3"/><path d="M7.34 6.41L.86 12.9l6.49 6.48 6.49-6.48-6.5-6.49zm0 10.15L3.69 12.9l3.66-3.66L11 12.9l-3.66 3.66zm12.02-9.92C17.61 4.88 15.3 4 13 4V.76L8.76 5 13 9.24V6c1.79 0 3.58.68 4.95 2.05 2.73 2.73 2.73 7.17 0 9.9C16.58 19.32 14.79 20 13 20c-.97 0-1.94-.21-2.84-.61l-1.49 1.49C10.02 21.62 11.51 22 13 22c2.3 0 4.61-.88 6.36-2.64 3.52-3.51 3.52-9.21 0-12.72z"/></symbol>
<symbol id="rotate_left" viewBox="0 0 24 24"><path d="M0 0h24v24H0V0z" fill="none"/><path d="M13 17.91v2.02c3.95-.49 7-3.85 7-7.93s-3.05-7.44-7-7.93V1L8.45 5.55 13 10V6.09c2.84.48 5 2.94 5 5.91s-2.16 5.43-5 5.91zm-7.31-1.02l1.41-1.42c-.52-.75-.87-1.59-1.01-2.47H4.07c.17 1.39.72 2.73 1.62 3.89zm1.42-8.36L5.7 7.11C4.8 8.27 4.24 9.61 4.07 11h2.02c.14-.87.49-1.72 1.02-2.47zM11 17.9c-.87-.15-1.71-.49-2.46-1.03L7.1 18.32c1.16.9 2.51 1.44 3.9 1.61V17.9z"/></symbol>
<symbol id="rotate_right" viewBox="0 0 24 24"><path d="M0 0h24v24H0V0z" fill="none"/><path d="M19.93 11c-.17-1.39-.72-2.73-1.62-3.89l-1.42 1.42c.54.75.88 1.6 1.02 2.47h2.02zM11 1v3.07C7.06 4.56 4 7.92 4 12s3.05 7.44 7 7.93v-2.02c-2.84-.48-5-2.94-5-5.91s2.16-5.43 5-5.91V10l4.55-4.45L11 1zm4.46 15.87c-.75.54-1.59.89-2.46 1.03v2.02c1.39-.17 2.74-.71 3.9-1.61l-1.44-1.44zm2.85.02c.9-1.16 1.45-2.5 1.62-3.89h-2.02c-.14.87-.48 1.72-1.02 2.48l1.42 1.41z"/></symbol>
<symbol id="shutter_speed" viewBox="0 0 24 24"><path d="M0 0h24v24H0V0z" fill="none"/><path d="M12 6c-3.87 0-7 3.13-7 7s3.13 7 7 7 7-3.13 7-7-3.13-7-7-7zm0 1c.46 0 .9.06 1.33.15l-2.72 4.7-2.32-3.56C9.31 7.49 10.6 7 12 7zm-6 6c0-1.54.59-2.95 1.55-4.01L10.81 14H6.09c-.05-.33-.09-.66-.09-1zm.35 2h5.33l-2.03 3.5.11.06c-1.59-.64-2.84-1.94-3.41-3.56zM12 19c-.48 0-.94-.06-1.39-.17l2.85-4.92 2.11 3.9c-1 .74-2.23 1.19-3.57 1.19zm6-6c0 1.6-.63 3.06-1.66 4.13L13.57 12h4.34c.05.33.09.66.09 1zm-5.74-2l2.05-3.54c1.56.65 2.77 1.94 3.34 3.54h-5.39z" opacity=".3"/><path d="M7.55 8.99C6.59 10.05 6 11.46 6 13c0 .34.04.67.09 1h4.72L7.55 8.99zm6.76-1.53L12.26 11h5.39c-.57-1.6-1.78-2.89-3.34-3.54zm-.98-.31C12.9 7.06 12.46 7 12 7c-1.4 0-2.69.49-3.71 1.29l2.32 3.56 2.72-4.7zM11.68 15H6.35c.57 1.62 1.82 2.92 3.41 3.56l-.11-.06 2.03-3.5zm7.35-7.61l1.42-1.42c-.43-.51-.9-.99-1.41-1.41l-1.42 1.42C16.07 4.74 14.12 4 12 4c-4.97 0-9 4.03-9 9s4.02 9 9 9 9-4.03 9-9c0-2.12-.74-4.07-1.97-5.61zM12 20c-3.87 0-7-3.13-7-7s3.13-7 7-7 7 3.13 7 7-3.13 7-7 7zM9 1h6v2H9zm7.34 16.13C17.37 16.06 18 14.6 18 13c0-.34-.04-.67-.09-1h-4.34l2.77 5.13zm-5.73 1.7c.45.11.91.17 1.39.17 1.34 0 2.57-.45 3.57-1.19l-2.11-3.9-2.85 4.92z"/></symbol>
<symbol id="slideshow" viewBox="0 0 24 24"><path d="M0 0h24v24H0V0z" fill="none"/><path d="M5 19h14V5H5v14zm5-11l5 4-5 4V8z" opacity=".3"/><path d="M19 3H5c-1.1 0-2 .9-2 2v14c0 1.1.9 2 2 2h14c1.1 0 2-.9 2-2V5c0-1.1-.9-2-2-2zm0 16H5V5h14v14zM10 8v8l5-4z"/></symbol>
<symbol id="straighten" viewBox="0 0 24 24"><path d="M0 0h24v24H0V0z" fill="none"/><path d="M19 12h-2V8h-2v4h-2V8h-2v4H9V8H7v4H5V8H3v8h18V8h-2z" opacity=".3"/><path d="M21 6H3c-1.1 0-2 .9-2 2v8c0 1.1.9 2 2 2h18c1.1 0 2-.9 2-2V8c0-1.1-.9-2-2-2zm0 10H3V8h2v4h2V8h2v4h2V8h2v4h2V8h2v4h2V8h2v8z"/></symbol>
<symbol id="style" viewBox="0 0 24 24"><path d="M0 0h24v24H0V0z" fill="none"/><path d="M15.22 4.75L7.87 7.79l4.96 11.96 7.35-3.05-4.96-11.95zM11 10c-.55 0-1-.45-1-1s.45-1 1-1 1 .45 1 1-.45 1-1 1z" opacity=".3"/><path d="M3.87 11.18l-2.43 5.86c-.41 1.02.08 2.19 1.09 2.61l1.34.56v-9.03zm18.16 4.77L17.07 3.98c-.31-.75-1.04-1.21-1.81-1.23-.26 0-.53.04-.79.15L7.1 5.95c-.75.31-1.21 1.03-1.23 1.8-.01.27.04.54.15.8l4.96 11.97c.31.76 1.05 1.22 1.83 1.23.26 0 .52-.05.77-.15l7.36-3.05c1.02-.42 1.51-1.59 1.09-2.6zm-9.2 3.8L7.87 7.79l7.35-3.04h.01l4.95 11.95-7.35 3.05z"/><circle cx="11" cy="9" r="1"/><path d="M9.33 21.75l-3.45-8.34v6.34c0 1.1.9 2 2 2h1.45z"/></symbol>
<symbol id="switch_camera" viewBox="0 0 24 24"><path d="M0 0h24v24H0V0z" fill="none"/><path d="M14.12 4H9.88L8.05 6H4v12h16V6h-4.05l-1.83-2zM15 15.5V13H9v2.5L5.5 12 9 8.5V11h6V8.5l3.5 3.5-3.5 3.5z" opacity=".3"/><path d="M20 4h-3.17L15 2H9L7.17 4H4c-1.1 0-2 .9-2 2v12c0 1.1.9 2 2 2h16c1.1 0 2-.9 2-2V6c0-1.1-.9-2-2-2zm0 14H4V6h4.05l1.83-2h4.24l1.83 2H20v12zm-5-7H9V8.5L5.5 12 9 15.5V13h6v2.5l3.5-3.5L15 8.5z"/></symbol>
<symbol id="switch_video" viewBox="0 0 24 24"><path d="M0 0h24v24H0V0z" fill="none"/><path d="M4 17h12V7H4v10zm4-8v2h4V9l3 3-3 3v-2H8v2l-3-3 3-3z" opacity=".3"/><path d="M8 13h4v2l3-3-3-3v2H8V9l-3 3 3 3zm10-3.5V6c0-.55-.45-1-1-1H3c-.55 0-1 .45-1 1v12c0 .55.45 1 1 1h14c.55 0 1-.45 1-1v-3.5l4 4v-13l-4 4zM16 17H4V7h12v10z"/></symbol>
<symbol id="tag_faces" viewBox="0 0 24 24"><path d="M0 0h24v24H0V0z" fill="none"/><path d="M12 4c-4.42 0-8 3.58-8 8s3.58 8 8 8 8-3.58 8-8-3.58-8-8-8zm3.5 4c.83 0 1.5.67 1.5 1.5s-.67 1.5-1.5 1.5-1.5-.67-1.5-1.5.67-1.5 1.5-1.5zm-7 0c.83 0 1.5.67 1.5 1.5S9.33 11 8.5 11 7 10.33 7 9.5 7.67 8 8.5 8zm3.5 9.5c-2.33 0-4.31-1.46-5.11-3.5h10.22c-.8 2.04-2.78 3.5-5.11 3.5z" opacity=".3"/><circle cx="8.5" cy="9.5" r="1.5"/><path d="M12 17.5c2.33 0 4.31-1.46 5.11-3.5H6.89c.8 2.04 2.78 3.5 5.11 3.5z"/><circle cx="15.5" cy="9.5" r="1.5"/><path d="M11.99 2C6.47 2 2 6.48 2 12s4.47 10 9.99 10C17.52 22 22 17.52 22 12S17.52 2 11.99 2zM12 20c-4.42 0-8-3.58-8-8s3.58-8 8-8 8 3.58 8 8-3.58 8-8 8z"/></symbol>
<symbol id="texture" viewBox="0 0 24 24"><path d="M0 0h24v24H0V0z" fill="none"/><path d="M11.88 3L3 11.88v2.83L14.71 3zM3 5v2l4-4H5c-1.1 0-2 .9-2 2zm16.51-1.92L3.08 19.51c.09.34.27.65.51.9.25.24.56.42.9.51L20.93 4.49c-.19-.69-.73-1.23-1.42-1.41zM21 9.29L9.29 21h2.83L21 12.12zm-.59 11.12c.37-.36.59-.86.59-1.41v-2l-4 4h2c.55 0 1.05-.22 1.41-.59z"/></symbol>
<symbol id="timelapse" viewBox="0 0 24 24"><path d="M0 0h24v24H0V0z" fill="none"/><path d="M12 3.99c-4.42 0-8 3.58-8 8s3.58 8 8 8 8-3.58 8-8-3.58-8-8-8zm4.25 12.24c-2.35 2.34-6.15 2.34-8.49 0L12 11.99v-6c1.54 0 3.07.59 4.24 1.76 2.35 2.34 2.35 6.14.01 8.48z" opacity=".3"/><path d="M16.24 7.75c-1.17-1.17-2.7-1.76-4.24-1.76v6l-4.24 4.24c2.34 2.34 6.14 2.34 8.49 0 2.34-2.34 2.34-6.14-.01-8.48zM12 1.99c-5.52 0-10 4.48-10 10s4.48 10 10 10 10-4.48 10-10-4.48-10-10-10zm0 18c-4.42 0-8-3.58-8-8s3.58-8 8-8 8 3.58 8 8-3.58 8-8 8z"/></symbol>
<symbol id="timer" viewBox="0 0 24 24"><path d="M0 0h24v24H0V0z" fill="none"/><path d="M12.07 6.01c-3.87 0-7 3.13-7 7s3.13 7 7 7 7-3.13 7-7-3.13-7-7-7zm1 8h-2v-6h2v6z" opacity=".3"/><path d="M9.07 1.01h6v2h-6zm2 7h2v6h-2zm8.03-.62l1.42-1.42c-.43-.51-.9-.99-1.41-1.41l-1.42 1.42C16.14 4.74 14.19 4 12.07 4c-4.97 0-9 4.03-9 9s4.02 9 9 9 9-4.03 9-9c0-2.11-.74-4.07-1.97-5.61zm-7.03 12.62c-3.87 0-7-3.13-7-7s3.13-7 7-7 7 3.13 7 7-3.13 7-7 7z"/></symbol>
<symbol id="timer_10" viewBox="0 0 24 24"><path d="M0 0h24v24H0V0z" fill="none"/><path d="M2.99 18h2V6h-.25L-.01 7.72V9.4l3-1zm9.59-11.83c-.47-.18-1.01-.27-1.59-.27s-1.11.09-1.59.27c-.48.18-.89.47-1.23.88-.34.41-.6.93-.79 1.59-.18.65-.28 1.45-.28 2.39v1.92c0 .94.09 1.74.28 2.39.19.66.45 1.19.8 1.6.34.41.75.71 1.23.89.48.18 1.01.28 1.59.28.59 0 1.12-.09 1.59-.28.48-.18.88-.48 1.22-.89.34-.41.6-.94.78-1.6.18-.65.28-1.45.28-2.39v-1.92c0-.94-.09-1.74-.28-2.39-.18-.66-.44-1.19-.78-1.59s-.75-.7-1.23-.88zm.32 7.05h-.01c0 .6-.04 1.11-.12 1.53-.08.42-.2.76-.36 1.02-.16.26-.36.45-.59.57s-.51.18-.82.18c-.3 0-.58-.06-.82-.18s-.44-.31-.6-.57c-.16-.26-.29-.6-.38-1.02-.09-.42-.13-.93-.13-1.53v-2.5c0-.6.04-1.11.13-1.52.09-.41.21-.74.38-1 .16-.25.36-.43.6-.55.24-.11.51-.17.81-.17.31 0 .58.06.81.17.24.11.44.29.6.55.16.25.29.58.37.99.08.41.13.92.13 1.52v2.51zm10.24.41c-.28-.21-.61-.39-1.01-.53s-.85-.27-1.35-.38c-.35-.07-.64-.15-.87-.23-.23-.08-.41-.16-.55-.25-.14-.09-.23-.19-.28-.3-.05-.11-.08-.24-.08-.39 0-.14.03-.28.09-.41.06-.13.15-.25.27-.34.12-.1.27-.18.45-.24s.4-.09.64-.09c.25 0 .47.04.66.11.19.07.35.17.48.29.13.12.22.26.29.42.06.16.1.32.1.49h1.95c0-.39-.08-.75-.24-1.09-.16-.34-.39-.63-.69-.88s-.66-.44-1.09-.59c-.43-.15-.92-.22-1.46-.22-.51 0-.98.07-1.39.21-.41.14-.77.33-1.06.57s-.51.52-.67.84c-.16.32-.23.65-.23 1.01s.08.69.23.96c.15.28.36.52.64.73.27.21.6.38.98.53.38.14.81.26 1.27.36.39.08.71.17.95.26s.43.19.57.29c.13.1.22.22.27.34s.07.25.07.39c0 .32-.13.57-.4.77-.27.2-.66.29-1.17.29-.22 0-.43-.02-.64-.08-.21-.05-.4-.13-.56-.24-.17-.11-.3-.26-.41-.44-.11-.18-.17-.41-.18-.67h-1.89c0 .36.08.71.24 1.05.16.34.39.65.7.93.31.27.69.49 1.15.66.46.17.98.25 1.58.25.53 0 1.01-.06 1.44-.19s.8-.31 1.11-.54c.31-.23.54-.51.71-.83.17-.32.25-.67.25-1.06-.02-.4-.09-.74-.24-1.02-.14-.28-.35-.53-.63-.74z"/></symbol>
<symbol id="timer_3" viewBox="0 0 24 24"><path d="M0 0h24v24H0V0z" fill="none"/><path d="M16.46 10.8c.12-.1.27-.18.45-.24s.4-.09.64-.09c.25 0 .47.04.66.11.19.07.35.17.48.29s.22.26.29.42c.06.16.1.32.1.49h1.95c0-.39-.08-.75-.24-1.09-.16-.34-.39-.63-.69-.88-.3-.25-.66-.44-1.09-.59-.43-.15-.92-.22-1.46-.22-.51 0-.98.07-1.39.21-.41.14-.77.33-1.06.57-.29.24-.51.52-.67.84-.16.32-.23.65-.23 1.01s.08.68.23.96c.15.28.37.52.64.73.27.21.6.38.98.53.38.14.81.26 1.27.36.39.08.71.17.95.26s.43.19.57.29c.13.1.22.22.27.34s.07.25.07.39c0 .32-.13.57-.4.77-.27.2-.66.29-1.17.29-.22 0-.43-.02-.64-.08-.21-.05-.4-.13-.56-.24-.17-.11-.3-.26-.41-.44s-.17-.41-.18-.67h-1.89c0 .36.08.71.24 1.05.16.34.39.65.7.93.31.27.69.49 1.15.66.46.17.98.25 1.58.25.53 0 1.01-.06 1.44-.19.43-.13.8-.31 1.11-.54.31-.23.54-.51.71-.83.17-.32.25-.67.25-1.06-.02-.4-.09-.74-.24-1.02-.14-.28-.35-.53-.63-.74-.28-.21-.61-.39-1.01-.53s-.85-.27-1.35-.38c-.35-.07-.64-.15-.87-.23s-.41-.16-.55-.25c-.14-.09-.23-.19-.28-.3-.05-.11-.08-.24-.08-.39s.03-.28.09-.41c.06-.13.15-.25.27-.34zm-8.34 5.71c-.29 0-.56-.04-.8-.13-.24-.08-.44-.2-.61-.36-.17-.16-.3-.34-.39-.56-.09-.22-.14-.46-.14-.72H4.19c0 .55.11 1.03.32 1.45.21.42.5.77.86 1.05s.77.49 1.24.63.96.21 1.48.21c.57 0 1.09-.08 1.58-.23.49-.15.91-.38 1.26-.68.36-.3.64-.66.84-1.1.2-.43.3-.93.3-1.48 0-.29-.04-.58-.11-.86-.08-.25-.19-.51-.35-.76-.16-.24-.36-.46-.62-.65-.25-.19-.56-.35-.93-.48.3-.14.57-.3.8-.5.23-.2.42-.41.57-.64.15-.23.27-.46.34-.71.08-.24.11-.49.11-.73 0-.55-.09-1.04-.28-1.46-.18-.42-.44-.77-.78-1.06-.33-.28-.73-.5-1.2-.64-.45-.13-.97-.2-1.53-.2-.55 0-1.06.08-1.52.24-.47.17-.87.4-1.2.69-.33.29-.6.63-.78 1.03-.2.39-.29.83-.29 1.29h1.98c0-.26.05-.49.14-.69.09-.2.22-.38.38-.52.17-.14.36-.25.58-.33.22-.08.46-.12.73-.12.61 0 1.06.16 1.36.47.3.31.44.75.44 1.32 0 .27-.04.52-.12.74-.08.22-.21.41-.38.57-.17.16-.38.28-.63.37-.25.09-.55.13-.89.13H6.72v1.57H7.9c.34 0 .64.04.91.11.27.08.5.19.69.35.19.16.34.36.44.61.1.24.16.54.16.87 0 .62-.18 1.09-.53 1.42-.35.33-.84.49-1.45.49z"/></symbol>
<symbol id="timer_off" viewBox="0 0 24 24"><path d="M0 0h24v24H0V0z" fill="none"/><path d="M12 6c-1.12 0-2.18.27-3.12.74L11 8.86V8h2v2.86l5.26 5.26c.47-.94.74-2 .74-3.12 0-3.87-3.13-7-7-7zm0 14c1.29 0 2.49-.35 3.52-.96L5.96 9.48C5.35 10.51 5 11.71 5 13c0 3.87 3.13 7 7 7z" opacity=".3"/><path d="M12 6c3.87 0 7 3.13 7 7 0 1.12-.27 2.18-.74 3.12l1.47 1.47C20.53 16.25 21 14.68 21 13c0-2.12-.74-4.07-1.97-5.61l1.42-1.42c-.43-.51-.9-.99-1.41-1.41l-1.42 1.42C16.07 4.74 14.12 4 12 4c-1.68 0-3.25.47-4.59 1.27l1.47 1.47c.94-.47 2-.74 3.12-.74zm-1 2v.86l2 2V8zM9 1h6v2H9zM3.16 3.86L1.75 5.27 4.5 8.02C3.56 9.45 3 11.16 3 13c0 4.97 4.02 9 9 9 1.84 0 3.55-.55 4.98-1.5l2.5 2.5 1.41-1.41L3.16 3.86zM12 20c-3.87 0-7-3.13-7-7 0-1.29.35-2.49.96-3.52l9.57 9.57c-1.04.6-2.24.95-3.53.95z"/></symbol>
<symbol id="tonality" viewBox="0 0 24 24"><path d="M0 0h24v24H0V0z" fill="none"/><path d="M4 12c0 4.08 3.06 7.44 7 7.93V4.07C7.05 4.56 4 7.92 4 12z" opacity=".3"/><path d="M12 2C6.48 2 2 6.48 2 12s4.48 10 10 10 10-4.48 10-10S17.52 2 12 2zm-1 17.93c-3.94-.49-7-3.85-7-7.93s3.05-7.44 7-7.93v15.86zm2-15.86c1.03.13 2 .45 2.87.93H13v-.93zM13 7h5.24c.25.31.48.65.68 1H13V7zm0 3h6.74c.08.33.15.66.19 1H13v-1zm0 9.93V19h2.87c-.87.48-1.84.8-2.87.93zM18.24 17H13v-1h5.92c-.2.35-.43.69-.68 1zm1.5-3H13v-1h6.93c-.04.34-.11.67-.19 1z"/></symbol>
<symbol id="transform" viewBox="0 0 24 24"><path d="M0 0h24v24H0V0z" fill="none"/><path d="M8 4h2L7 1 4 4h2v2H2v2h4v8c0 1.1.9 2 2 2h8v2h-2l3 3 3-3h-2v-2h4v-2H8V4zm10 10V8c0-1.1-.9-2-2-2h-6v2h6v6h2z"/></symbol>
<symbol id="tune" viewBox="0 0 24 24"><path d="M0 0h24v24H0V0z" fill="none"/><path d="M3 5h10v2H3zm4 6H3v2h4v2h2V9H7zm6 4h-2v6h2v-2h8v-2h-8zM3 17h6v2H3zm8-6h10v2H11zm6-8h-2v6h2V7h4V5h-4z"/></symbol>
<symbol id="view_comfy" viewBox="0 0 24 24"><path d="M0 0h24v24H0V0z" fill="none"/><path d="M9.25 11h2.25v2H9.25zm0 4h2.25v2H9.25zm0-8h2.25v2H9.25zm4.25 8h2.25v2H13.5zM5 15h2.25v2H5zm0-4h2.25v2H5zm0-4h2.25v2H5zm12.75 0H20v2h-2.25zm-4.25 4h2.25v2H13.5zm0-4h2.25v2H13.5zm4.25 8H20v2h-2.25zm0-4H20v2h-2.25z" opacity=".3"/><path d="M3 5v14h19V5H3zm4.25 12H5v-2h2.25v2zm0-4H5v-2h2.25v2zm0-4H5V7h2.25v2zm4.25 8H9.25v-2h2.25v2zm0-4H9.25v-2h2.25v2zm0-4H9.25V7h2.25v2zm4.25 8H13.5v-2h2.25v2zm0-4H13.5v-2h2.25v2zm0-4H13.5V7h2.25v2zM20 17h-2.25v-2H20v2zm0-4h-2.25v-2H20v2zm0-4h-2.25V7H20v2z"/></symbol>
<symbol id="view_compact" viewBox="0 0 24 24"><path d="M0 0h24v24H0V0z" fill="none"/><path d="M11 13h9v4h-9zm-6 0h4v4H5zm0-6h15v4H5z" opacity=".3"/><path d="M3 5v14h19V5H3zm6 12H5v-4h4v4zm11 0h-9v-4h9v4zm0-6H5V7h15v4z"/></symbol>
<symbol id="vignette" viewBox="0 0 24 24"><path d="M0 0h24v24H0V0z" fill="none"/><path d="M3 19h18V5H3v14zm9-13c4.42 0 8 2.69 8 6s-3.58 6-8 6-8-2.69-8-6 3.58-6 8-6z" opacity=".3"/><path d="M21 3H3c-1.1 0-2 .9-2 2v14c0 1.1.9 2 2 2h18c1.1 0 2-.9 2-2V5c0-1.1-.9-2-2-2zm0 16H3V5h18v14zm-9-1c4.42 0 8-2.69 8-6s-3.58-6-8-6-8 2.69-8 6 3.58 6 8 6zm0-10c3.25 0 6 1.83 6 4s-2.75 4-6 4-6-1.83-6-4 2.75-4 6-4z"/></symbol>
<symbol id="wb_auto" viewBox="0 0 24 24"><path d="M0 0h24v24H0V0z" fill="none"/><path d="M8 6c-3.31 0-6 2.69-6 6s2.69 6 6 6c2.35 0 4.38-1.36 5.36-3.32l.01-.01c.4-.81.63-1.71.63-2.67 0-3.31-2.69-6-6-6zm2.3 10l-.7-2H6.4l-.7 2H3.8L7 7h2l3.2 9h-1.9zm-3.45-3.35h2.3L8 9z" opacity=".3"/><path d="M7 7l-3.2 9h1.9l.7-2h3.2l.7 2h1.9L9 7H7zm-.15 5.65L8 9l1.15 3.65h-2.3zm13.95.64L19.3 7h-1.6l-1.49 6.29L15 7h-.76l-.01.01C12.76 5.18 10.53 4 8 4c-4.42 0-8 3.58-8 8s3.58 8 8 8c2.96 0 5.55-1.61 6.93-4 .03-.06.05-.12.08-.18.05-.08.09-.17.14-.25l.1.43H17l1.5-6.1L20 16h1.75l2.05-9H22l-1.2 6.29zm-7.43 1.38C12.38 16.64 10.35 18 8 18c-3.31 0-6-2.69-6-6s2.69-6 6-6 6 2.69 6 6c0 .96-.23 1.86-.63 2.67z"/></symbol>
<symbol id="wb_cloudy" viewBox="0 0 24 24"><path d="M0 0h24v24H0V0z" fill="none"/><path d="M19.23 12.04l-1.52-.11-.3-1.5C16.89 7.86 14.62 6 12.01 6 9.95 6 8.08 7.14 7.13 8.96l-.5.95-1.07.11c-2.02.22-3.55 1.93-3.55 3.98 0 2.21 1.79 4 4 4h13c1.65 0 3-1.35 3-3 0-1.55-1.23-2.86-2.78-2.96z" opacity=".3"/><path d="M19.36 10.04C18.67 6.59 15.65 4 12.01 4 9.11 4 6.6 5.64 5.35 8.04 2.35 8.36.01 10.91.01 14c0 3.31 2.69 6 6 6h13c2.76 0 5-2.24 5-5 0-2.64-2.05-4.78-4.65-4.96zM19.01 18h-13c-2.21 0-4-1.79-4-4 0-2.05 1.53-3.76 3.56-3.97l1.07-.11.5-.95C8.08 7.14 9.95 6 12.01 6c2.61 0 4.89 1.86 5.4 4.43l.3 1.5 1.52.11c1.56.11 2.78 1.41 2.78 2.96 0 1.65-1.35 3-3 3z"/></symbol>
<symbol id="wb_incandescent" viewBox="0 0 24 24"><path d="M0 0h24v24H0V0z" fill="none"/><path d="M14 8.59l-1-.58V4.05h-2v3.96l-1 .58c-1.24.72-2 2.04-2 3.46 0 2.21 1.79 4 4 4s4-1.79 4-4c0-1.42-.77-2.74-2-3.46z" opacity=".3"/><path d="M3.55 19.09l1.41 1.41 1.79-1.8-1.41-1.41zM11 20h2v3h-2zM1 11h3v2H1zm14-4.14V2.05H9v4.81C7.21 7.9 6 9.83 6 12.05c0 3.31 2.69 6 6 6s6-2.69 6-6c0-2.22-1.21-4.15-3-5.19zm-3 9.19c-2.21 0-4-1.79-4-4 0-1.42.77-2.74 2-3.46l1-.58V4.05h2v3.96l1 .58c1.24.72 2 2.04 2 3.46 0 2.21-1.79 4-4 4zM20 11h3v2h-3zm-2.76 7.71l1.79 1.8 1.41-1.41-1.8-1.79z"/></symbol>
<symbol id="wb_iridescent" viewBox="0 0 24 24"><path d="M0 0h24v24H0V0z" fill="none"/><path d="M7 11h10v2H7z" opacity=".3"/><path d="M5 15h14V9H5v6zm2-4h10v2H7v-2zm4-10h2v3h-2zm6.25 4.39l1.41 1.41 1.8-1.79-1.42-1.41zM11 20h2v3h-2zm6.24-1.29l1.79 1.8 1.42-1.42-1.8-1.79zM5.34 6.805l-1.788-1.79L4.96 3.61l1.788 1.788zM3.55 19.08l1.41 1.42 1.79-1.8-1.41-1.41z"/></symbol>
<symbol id="wb_sunny" viewBox="0 0 24 24"><path d="M0 0h24v24H0V0z" fill="none"/><path d="M12 7.5c-2.21 0-4 1.79-4 4s1.79 4 4 4 4-1.79 4-4-1.79-4-4-4z" opacity=".3"/><path d="M5.34 6.25l1.42-1.41-1.8-1.79-1.41 1.41zM1 10.5h3v2H1zM11 .55h2V3.5h-2zm7.66 5.705l-1.41-1.407 1.79-1.79 1.406 1.41zM17.24 18.16l1.79 1.8 1.41-1.41-1.8-1.79zM20 10.5h3v2h-3zm-8-5c-3.31 0-6 2.69-6 6s2.69 6 6 6 6-2.69 6-6-2.69-6-6-6zm0 10c-2.21 0-4-1.79-4-4s1.79-4 4-4 4 1.79 4 4-1.79 4-4 4zm-1 4h2v2.95h-2zm-7.45-.96l1.41 1.41 1.79-1.8-1.41-1.41z"/></symbol>
</svg>