<svg xmlns="http://www.w3.org/2000/svg">
<symbol id="360" viewBox="0 0 24 24"><path d="M0 0h24v24H0V0z" fill="none"/><path d="M9 16.77V20l4-4-4-4v2.73c-3.15-.56-5-1.9-5-2.73 0-1.06 3.04-3 8-3s8 1.94 8 3c0 .73-1.46 1.89-4 2.53v2.05c3.53-.77 6-2.53 6-4.58 0-2.76-4.48-5-10-5S2 9.24 2 12c0 2.24 2.94 4.13 7 4.77z"/></symbol>
<symbol id="add_business" viewBox="0 0 24 24"><g><rect fill="none" height="24" width="24"/></g><g><g><polygon opacity=".3" points="15.36,9 3.64,9 3.04,12 15.96,12"/><rect height="2" width="15" x="2" y="4"/><path d="M15,17h2v-3h1v-2l-1-5H2l-1,5v2h1v6h9v-6h4V17z M9,18H4v-4h5V18z M3.04,12l0.6-3h11.72l0.6,3H3.04z"/><polygon points="20,18 20,15 18,15 18,18 15,18 15,20 18,20 18,23 20,23 20,20 23,20 23,18"/></g></g></symbol>
<symbol id="add_location" viewBox="0 0 24 24"><rect fill="none" height="24" width="24"/><path d="M18.5,10.2c0,2.57-2.1,5.79-6.16,9.51L12,20.01l-0.34-0.31 C7.6,15.99,5.5,12.77,5.5,10.2c0-3.84,2.82-6.7,6.5-6.7S18.5,6.35,18.5,10.2z" enable-background="new" opacity=".3"/><g><g><path d="M13,6v3h3v2h-3v3h-2v-3H8V9h3V6H13z M18,10.2C18,6.57,15.35,4,12,4s-6,2.57-6,6.2c0,2.34,1.95,5.44,6,9.14 C16.05,15.64,18,12.54,18,10.2z M12,2c4.2,0,8,3.22,8,8.2c0,3.32-2.67,7.25-8,11.8c-5.33-4.55-8-8.48-8-11.8C4,5.22,7.8,2,12,2z"/></g></g></symbol>
<symbol id="add_location_alt" viewBox="0 0 24 24"><rect fill="none" height="24" width="24"/><path d="M14,4.8V7h3v3h1.41c0.06,0.39,0.09,0.79,0.09,1.2c0,2.57-2.1,5.79-6.16,9.51L12,21.01l-0.34-0.31 C7.6,16.99,5.5,13.77,5.5,11.2c0-3.84,2.82-6.7,6.5-6.7C12.7,4.5,13.37,4.6,14,4.8z" fill-opacity=".3"/><path d="M20,1v3h3v2h-3v3h-2V6h-3V4h3V1H20z M12,13c-1.1,0-2-0.9-2-2s0.9-2,2-2s2,0.9,2,2S13.1,13,12,13z M14,3.25v2.08 C13.38,5.11,12.7,5,12,5c-3.35,0-6,2.57-6,6.2c0,2.34,1.95,5.44,6,9.14c4.05-3.7,6-6.79,6-9.14c0-0.41-0.03-0.81-0.1-1.2h2.02 c0.05,0.39,0.08,0.79,0.08,1.2c0,3.32-2.67,7.25-8,11.8c-5.33-4.55-8-8.48-8-11.8C4,6.22,7.8,3,12,3C12.68,3,13.35,3.08,14,3.25z"/></symbol>
<symbol id="add_road" viewBox="0 0 24 24"><g><rect fill="none" height="24" width="24"/></g><g><g><polygon points="20,18 20,15 18,15 18,18 15,18 15,20 18,20 18,23 20,23 20,20 23,20 23,18"/><rect height="9" width="2" x="18" y="4"/><rect height="16" width="2" x="4" y="4"/><rect height="4" width="2" x="11" y="4"/><rect height="4" width="2" x="11" y="10"/><rect height="4" width="2" x="11" y="16"/></g></g></symbol>
<symbol id="agriculture" viewBox="0 0 24 24"><g><rect fill="none" height="24" width="24"/></g><g><g><g><path d="M4,9h5c0-1.1-0.9-2-2-2H4C3.45,7,3,7.45,3,8C3,8.55,3.45,9,4,9z"/><path d="M22,14.06V8c0-1.1-0.9-2-2-2h-6.29l-1.06-1.06l1.41-1.41l-0.71-0.71L9.82,6.35l0.71,0.71l1.41-1.41L13,6.71V9 c0,1.1-0.9,2-2,2H8.96c-0.22-0.16-0.45-0.3-0.69-0.43l-0.4,0.89l-0.46-0.21l0.4-0.9C7.26,10.13,6.64,10,6,10 c-0.53,0-1.04,0.11-1.52,0.26l0.34,0.91l-0.47,0.18L4,10.42c-1.06,0.46-1.91,1.28-2.43,2.31l0.89,0.4l-0.21,0.46l-0.9-0.4 C1.13,13.74,1,14.36,1,15c0,0.53,0.11,1.04,0.26,1.52l0.91-0.34l0.18,0.47L1.42,17c0.46,1.06,1.28,1.91,2.31,2.43l0.4-0.89 l0.46,0.21l-0.4,0.9C4.74,19.87,5.36,20,6,20c0.53,0,1.04-0.11,1.52-0.26l-0.34-0.91l0.47-0.18L8,19.58 c1.06-0.46,1.91-1.28,2.43-2.31l-0.89-0.4l0.21-0.46l0.9,0.4c0.1-0.26,0.18-0.54,0.24-0.82h5.16C16.03,16.16,16,16.33,16,16.5 c0,1.93,1.57,3.5,3.5,3.5s3.5-1.57,3.5-3.5C23,15.55,22.62,14.69,22,14.06z M6,18c-1.66,0-3-1.34-3-3s1.34-3,3-3s3,1.34,3,3 S7.66,18,6,18z M10.87,14c-0.04-0.18-0.08-0.35-0.13-0.52l-0.91,0.34l-0.18-0.47L10.58,13c0,0,0.42,0,0.42,0c2.21,0,4-1.79,4-4V8 h5v5.05C19.84,13.03,19.67,13,19.5,13c-0.95,0-1.81,0.38-2.44,1H10.87z M19.5,18c-0.83,0-1.5-0.67-1.5-1.5s0.67-1.5,1.5-1.5 s1.5,0.67,1.5,1.5S20.33,18,19.5,18z"/></g><path d="M20,13.05V8h-5v1c0,2.21-1.79,4-4,4c0,0-0.42,0-0.42,0c0.14,0.32,0.25,0.65,0.32,1h6.16 c0.63-0.62,1.49-1,2.44-1C19.67,13,19.84,13.03,20,13.05z" opacity=".3"/></g></g></symbol>
<symbol id="alt_route" viewBox="0 0 24 24"><g><rect fill="none" height="24" width="24"/><path d="M9.78,11.16l-1.42,1.42c-0.68-0.69-1.34-1.58-1.79-2.94l1.94-0.49C8.83,10.04,9.28,10.65,9.78,11.16z M11,6L7,2L3,6h3.02 C6.04,6.81,6.1,7.54,6.21,8.17l1.94-0.49C8.08,7.2,8.03,6.63,8.02,6H11z M21,6l-4-4l-4,4h2.99c-0.1,3.68-1.28,4.75-2.54,5.88 c-0.5,0.44-1.01,0.92-1.45,1.55c-0.34-0.49-0.73-0.88-1.13-1.24L9.46,13.6C10.39,14.45,11,15.14,11,17c0,0,0,0,0,0h0v5h2v-5 c0,0,0,0,0,0c0-2.02,0.71-2.66,1.79-3.63c1.38-1.24,3.08-2.78,3.2-7.37H21z"/></g></symbol>
<symbol id="atm" viewBox="0 0 24 24"><path d="M0 0h24v24H0V0z" fill="none"/><path d="M3.5 13.5h2V15H7v-5c0-.55-.45-1-1-1H3c-.55 0-1 .45-1 1v5h1.5v-1.5zm0-3h2V12h-2v-1.5zm13.5 0h1V14h1.5v-3.51h1V15H22v-5c0-.55-.45-1-1-1h-4.5c-.55 0-1 .45-1 1v5H17v-4.5zM10.25 15h1.5v-4.5H14V9H8v1.5h2.25z"/></symbol>
<symbol id="beenhere" viewBox="0 0 24 24"><path d="M0 0h24v24H0V0z" fill="none"/><path d="M19 3H5v12.93l7 4.66 7-4.67V3zm-9 13l-4-4 1.41-1.41 2.58 2.58 6.59-6.59L18 8l-8 8z" opacity=".3"/><path d="M19 1H5c-1.1 0-1.99.9-1.99 2L3 15.93c0 .69.35 1.3.88 1.66L12 23l8.11-5.41c.53-.36.88-.97.88-1.66L21 3c0-1.1-.9-2-2-2zm-7 19.6l-7-4.66V3h14v12.93l-7 4.67zm-2.01-7.42l-2.58-2.59L6 12l4 4 8-8-1.42-1.42z"/></symbol>
<symbol id="bike_scooter" viewBox="0 0 24 24"><g><rect fill="none" height="24" width="24"/></g><g><g><path d="M10,14h0.74L8.82,5.56C8.61,4.65,7.8,4,6.87,4H3v2h3.87l1.42,6.25c0,0-0.01,0-0.01,0C6.12,12.9,4.47,14.73,4.09,17H0v2h6 v-1C6,15.79,7.79,14,10,14z"/><path d="M19,8h-0.82l-1.35-3.69C16.55,3.52,15.8,3,14.96,3H11v2h3.96l1.1,3H10.4l0.46,2H15c-0.43,0.58-0.75,1.25-0.9,2h-2.79 l0.46,2h2.33c0.44,2.23,2.31,3.88,4.65,3.99c2.8,0.13,5.25-2.19,5.25-5C24,10.2,21.8,8,19,8z M19,16c-1.68,0-3-1.32-3-3 c0-0.93,0.41-1.73,1.05-2.28l0.96,2.64l1.88-0.68l-0.97-2.67c0.03,0,0.06-0.01,0.09-0.01c1.68,0,3,1.32,3,3S20.68,16,19,16z"/><path d="M10,15c-1.66,0-3,1.34-3,3s1.34,3,3,3s3-1.34,3-3S11.66,15,10,15z M10,19c-0.55,0-1-0.45-1-1s0.45-1,1-1s1,0.45,1,1 S10.55,19,10,19z"/></g></g></symbol>
<symbol id="category" viewBox="0 0 24 24"><path d="M0 0h24v24H0V0z" fill="none"/><circle cx="17.5" cy="17.5" opacity=".3" r="2.5"/><path d="M5 15.5h4v4H5zm7-9.66L10.07 9h3.86z" opacity=".3"/><path d="M12 2l-5.5 9h11L12 2zm0 3.84L13.93 9h-3.87L12 5.84zM17.5 13c-2.49 0-4.5 2.01-4.5 4.5s2.01 4.5 4.5 4.5 4.5-2.01 4.5-4.5-2.01-4.5-4.5-4.5zm0 7c-1.38 0-2.5-1.12-2.5-2.5s1.12-2.5 2.5-2.5 2.5 1.12 2.5 2.5-1.12 2.5-2.5 2.5zM11 13.5H3v8h8v-8zm-2 6H5v-4h4v4z"/></symbol>
<symbol id="cleaning_services" viewBox="0 0 24 24"><g><rect fill="none" height="24" width="24"/></g><g><g><rect height="8" opacity=".3" width="2" x="11" y="3"/><path d="M16,13H8c-1.65,0-3,1.35-3,3v5h2v-3c0-0.55,0.45-1,1-1s1,0.45,1,1v3h2v-3c0-0.55,0.45-1,1-1s1,0.45,1,1v3h2 v-3c0-0.55,0.45-1,1-1s1,0.45,1,1v3h2v-5C19,14.35,17.65,13,16,13z" opacity=".3"/><path d="M16,11h-1V3c0-1.1-0.9-2-2-2h-2C9.9,1,9,1.9,9,3v8H8c-2.76,0-5,2.24-5,5v7h18v-7C21,13.24,18.76,11,16,11z M11,3h2v8h-2V3 z M19,21h-2v-3c0-0.55-0.45-1-1-1s-1,0.45-1,1v3h-2v-3c0-0.55-0.45-1-1-1s-1,0.45-1,1v3H9v-3c0-0.55-0.45-1-1-1s-1,0.45-1,1v3H5 v-5c0-1.65,1.35-3,3-3h8c1.65,0,3,1.35,3,3V21z"/></g></g></symbol>
<symbol id="compass_calibration" viewBox="0 0 24 24"><path d="M0 0h24v24H0V0z" fill="none"/><path d="M4.94 7.26l2.21 2.21c1.44-.91 3.11-1.4 4.85-1.4 1.74 0 3.41.49 4.84 1.4l2.21-2.21C17 5.79 14.56 5 12 5c-2.56 0-5.01.79-7.06 2.26z" opacity=".3"/><circle cx="12" cy="17" opacity=".3" r="3"/><path d="M17 17c0-2.76-2.24-5-5-5s-5 2.24-5 5 2.24 5 5 5 5-2.24 5-5zm-8 0c0-1.65 1.35-3 3-3s3 1.35 3 3-1.35 3-3 3-3-1.35-3-3zM2 7.15l5 5c1.28-1.28 3.05-2.08 5-2.08s3.72.79 5 2.07l5-5C19.44 4.59 15.9 3 12 3 8.1 3 4.56 4.59 2 7.15zm14.84 2.32c-1.44-.91-3.1-1.4-4.84-1.4-1.74 0-3.41.49-4.85 1.41L4.94 7.26C6.99 5.79 9.44 5 12 5c2.56 0 5 .79 7.05 2.26l-2.21 2.21z"/></symbol>
<symbol id="departure_board" viewBox="0 0 24 24"><path d="M0 0h24v24H0V0z" fill="none"/><path d="M9.29 6H9c-3.69 0-5.11.46-5.66.99h5.74c.05-.33.12-.67.21-.99zM3 14v4c0 .37.21.62.34.73l.29.27h10.74l.29-.27c.13-.11.34-.36.34-.73v-3.08c-.94-.13-1.81-.45-2.59-.92H3zm2.5 4c-.83 0-1.5-.67-1.5-1.5S4.67 15 5.5 15s1.5.67 1.5 1.5S6.33 18 5.5 18zm8.5-1.5c0 .83-.67 1.5-1.5 1.5s-1.5-.67-1.5-1.5.67-1.5 1.5-1.5 1.5.67 1.5 1.5z" opacity=".3"/><circle cx="5.5" cy="16.5" r="1.5"/><circle cx="12.5" cy="16.5" r="1.5"/><path d="M16 1c-2.39 0-4.49 1.2-5.75 3.02C9.84 4.01 9.43 4 9 4c-4.42 0-8 .5-8 4v10c0 .88.39 1.67 1 2.22V22c0 .55.45 1 1 1h1c.55 0 1-.45 1-1v-1h8v1c0 .55.45 1 1 1h1c.55 0 1-.45 1-1v-1.78c.61-.55 1-1.34 1-2.22v-3.08c3.39-.49 6-3.39 6-6.92 0-3.87-3.13-7-7-7zM9 6h.29c-.09.32-.16.66-.21.99H3.34C3.89 6.46 5.31 6 9 6zM3 8.99h6.08c.16 1.11.57 2.13 1.18 3.01H3V8.99zM15 18c0 .37-.21.62-.34.73l-.29.27H3.63l-.29-.27C3.21 18.62 3 18.37 3 18v-4h9.41c.78.47 1.65.79 2.59.92V18zm1-5c-2.76 0-5-2.24-5-5s2.24-5 5-5 5 2.24 5 5-2.24 5-5 5zm.5-9H15v5l3.62 2.16.75-1.23-2.87-1.68z"/></symbol>
<symbol id="design_services" viewBox="0 0 24 24"><g><rect fill="none" height="24" width="24"/></g><g><g/><g><polygon opacity=".3" points="15.91,9.28 14.61,7.98 5,17.59 5,19 6.41,19 16.02,9.39"/><polygon opacity=".3" points="10.83,8.93 9.63,7.73 8.44,8.92 7.02,7.5 8.21,6.32 6.94,5.04 6.94,5.04 5.04,6.94 8.93,10.83"/><polygon opacity=".3" points="16.27,14.38 15.07,13.17 13.17,15.07 17.06,18.96 18.96,17.06 17.69,15.79 16.5,16.98 15.08,15.57"/><rect height="2" opacity=".3" transform="matrix(0.7071 -0.7071 0.7071 0.7071 0.4645 14.2513)" width="2" x="16.44" y="5.56"/><path d="M20.97,5.86l-2.83-2.83c-0.39-0.39-1.02-0.39-1.41,0l-4.49,4.49L8.35,3.63c-0.78-0.78-2.05-0.78-2.83,0l-1.9,1.9 c-0.78,0.78-0.78,2.05,0,2.83l3.89,3.89L3,16.76V21h4.24l4.52-4.52l3.89,3.89c0.95,0.95,2.23,0.6,2.83,0l1.9-1.9 c0.78-0.78,0.78-2.05,0-2.83l-3.89-3.89l4.49-4.49C21.36,6.88,21.36,6.25,20.97,5.86z M5.04,6.94l1.89-1.9c0,0,0,0,0,0l1.27,1.27 L7.02,7.5l1.41,1.41l1.19-1.19l1.2,1.2l-1.9,1.9L5.04,6.94z M6.41,19H5v-1.41l9.61-9.61l1.3,1.3l0.11,0.11L6.41,19z M16.5,16.98 l1.19-1.19l1.27,1.27l-1.9,1.9l-3.89-3.89l1.9-1.9l1.2,1.2l-1.19,1.19L16.5,16.98z M17.44,7.98l-1.41-1.41l1.41-1.41l1.41,1.41 L17.44,7.98z"/></g></g></symbol>
<symbol id="directions" viewBox="0 0 24 24"><path d="M0 0h24v24H0V0z" fill="none"/><path d="M3.01 12l9 9L21 12l-9-9-8.99 9zM14 7.5l3.5 3.5-3.5 3.5V12h-4v3H8v-4c0-.55.45-1 1-1h5V7.5z" opacity=".3"/><path d="M13.42 1.58c-.75-.75-2.07-.76-2.83 0l-9 9c-.78.78-.78 2.04 0 2.82l9 9c.39.39.9.58 1.41.58.51 0 1.02-.19 1.41-.58l8.99-8.99c.78-.76.79-2.03.02-2.82l-9-9.01zm-1.41 19.41l-9-9 9-9 9 9-9 9zM8 11v4h2v-3h4v2.5l3.5-3.5L14 7.5V10H9c-.55 0-1 .45-1 1z"/></symbol>
<symbol id="directions_bike" viewBox="0 0 24 24"><path d="M0 0h24v24H0V0z" fill="none"/><path d="M15.5 5.5c1.1 0 2-.9 2-2s-.9-2-2-2-2 .9-2 2 .9 2 2 2zM5 22c2.8 0 5-2.2 5-5s-2.2-5-5-5-5 2.2-5 5 2.2 5 5 5zm0-8.5c1.9 0 3.5 1.6 3.5 3.5S6.9 20.5 5 20.5 1.5 18.9 1.5 17s1.6-3.5 3.5-3.5zm2.8-2.3L11 14v5h2v-6.2l-2.2-2.3 2.4-2.4.8.8c1.3 1.3 3 2.1 5.1 2.1V9c-1.5 0-2.7-.6-3.6-1.5l-1.9-1.9c-.5-.4-1-.6-1.6-.6s-1.1.2-1.4.6L7.8 8.4c-.4.4-.6.9-.6 1.4 0 .6.2 1.1.6 1.4zM19 12c-2.8 0-5 2.2-5 5s2.2 5 5 5 5-2.2 5-5-2.2-5-5-5zm0 8.5c-1.9 0-3.5-1.6-3.5-3.5s1.6-3.5 3.5-3.5 3.5 1.6 3.5 3.5-1.6 3.5-3.5 3.5z"/></symbol>
<symbol id="directions_boat" viewBox="0 0 24 24"><path d="M0 0h24v24H0V0z" fill="none"/><path d="M6.49 15.68L8 13.96l1.51 1.72c.34.4 1.28 1.32 2.49 1.32 1.21 0 2.15-.92 2.49-1.32L16 13.96l1.51 1.72c.2.23.6.64 1.14.94l1.12-3.97-2.39-.78L12 10.11l-5.38 1.77-2.4.79 1.13 3.96c.55-.31.94-.72 1.14-.95zM11 3h2v1h-2z" opacity=".3"/><path d="M3.95 19H4c1.6 0 3.02-.88 4-2 .98 1.12 2.4 2 4 2s3.02-.88 4-2c.98 1.12 2.4 2 4 2h.05l1.89-6.68c.08-.26.06-.54-.06-.78s-.34-.42-.6-.5L20 10.62V6c0-1.1-.9-2-2-2h-3V1H9v3H6c-1.1 0-2 .9-2 2v4.62l-1.29.42c-.26.08-.48.26-.6.5s-.15.52-.06.78L3.95 19zM11 3h2v1h-2V3zM6 6h12v3.97L12 8 6 9.97V6zm.62 5.87L12 10.11l5.38 1.77 2.39.78-1.12 3.97c-.54-.3-.94-.71-1.14-.94L16 13.96l-1.51 1.72c-.34.4-1.28 1.32-2.49 1.32-1.21 0-2.15-.92-2.49-1.32L8 13.96l-1.51 1.72c-.2.23-.6.63-1.14.93l-1.13-3.96 2.4-.78zM8 22.01c1.26.64 2.63.97 4 .97s2.74-.32 4-.97c1.26.65 2.62.99 4 .99h2v-2h-2c-1.39 0-2.78-.47-4-1.32-1.22.85-2.61 1.28-4 1.28s-2.78-.43-4-1.28C6.78 20.53 5.39 21 4 21H2v2h2c1.38 0 2.74-.35 4-.99z"/></symbol>
<symbol id="directions_bus" viewBox="0 0 24 24"><path d="M0 0h24v24H0V0z" fill="none"/><path d="M17.37 17l.29-.27c.13-.11.34-.36.34-.73v-4H6v4c0 .37.21.62.34.73l.29.27h10.74zM8.5 16c-.83 0-1.5-.67-1.5-1.5S7.67 13 8.5 13s1.5.67 1.5 1.5S9.33 16 8.5 16zm5.5-1.5c0-.83.67-1.5 1.5-1.5s1.5.67 1.5 1.5-.67 1.5-1.5 1.5-1.5-.67-1.5-1.5zM12 4c-3.69 0-5.11.46-5.66.99h11.31C17.11 4.46 15.69 4 12 4z" opacity=".3"/><path d="M17 21h1c.55 0 1-.45 1-1v-1.78c.61-.55 1-1.34 1-2.22V6c0-3.5-3.58-4-8-4s-8 .5-8 4v10c0 .88.39 1.67 1 2.22V20c0 .55.45 1 1 1h1c.55 0 1-.45 1-1v-1h8v1c0 .55.45 1 1 1zM12 4c3.69 0 5.11.46 5.66.99H6.34C6.89 4.46 8.31 4 12 4zM6 6.99h12V10H6V6.99zM8 17H6.63l-.29-.27C6.21 16.62 6 16.37 6 16v-4h12v4c0 .37-.21.62-.34.73l-.29.27H8z"/><circle cx="8.5" cy="14.5" r="1.5"/><circle cx="15.5" cy="14.5" r="1.5"/></symbol>
<symbol id="directions_car" viewBox="0 0 24 24"><path d="M0 0h24v24H0V0z" fill="none"/><path d="M5 17h14v-5H5v5zm11.5-4c.83 0 1.5.67 1.5 1.5s-.67 1.5-1.5 1.5-1.5-.67-1.5-1.5.67-1.5 1.5-1.5zm-9 0c.83 0 1.5.67 1.5 1.5S8.33 16 7.5 16 6 15.33 6 14.5 6.67 13 7.5 13z" opacity=".3"/><path d="M18.92 6.01C18.72 5.42 18.16 5 17.5 5h-11c-.66 0-1.21.42-1.42 1.01L3 12v8c0 .55.45 1 1 1h1c.55 0 1-.45 1-1v-1h12v1c0 .55.45 1 1 1h1c.55 0 1-.45 1-1v-8l-2.08-5.99zM6.85 7h10.29l1.08 3.11H5.77L6.85 7zM19 17H5v-5h14v5z"/><circle cx="7.5" cy="14.5" r="1.5"/><circle cx="16.5" cy="14.5" r="1.5"/></symbol>
<symbol id="directions_railway" viewBox="0 0 24 24"><path d="M0 0h24v24H0V0z" fill="none"/><path d="M6 15.5c0 .83.67 1.5 1.5 1.5h9c.83 0 1.5-.67 1.5-1.5V12H6v3.5zm6-3c1.1 0 2 .9 2 2s-.9 2-2 2-2-.9-2-2 .9-2 2-2zM12 3C6 3 6 4.2 6 5h12c0-.8 0-2-6-2z" opacity=".3"/><path d="M20 15.5V5c0-3.5-3.58-4-8-4s-8 .5-8 4v10.5C4 17.43 5.57 19 7.5 19L6 20.5v.5h12v-.5L16.5 19c1.93 0 3.5-1.57 3.5-3.5zm-2 0c0 .83-.67 1.5-1.5 1.5h-9c-.83 0-1.5-.67-1.5-1.5V12h12v3.5zm0-5.5H6V7h12v3zM6 5c0-.8 0-2 6-2s6 1.2 6 2H6zm6 11.5c1.1 0 2-.9 2-2s-.9-2-2-2-2 .9-2 2 .9 2 2 2z"/></symbol>
<symbol id="directions_run" viewBox="0 0 24 24"><path d="M0 0h24v24H0V0z" fill="none"/><path d="M11.49 3.48c0 1.1.9 2 2 2s2-.9 2-2-.9-2-2-2-2 .9-2 2zm-.6 11.5l2.1 2v6h2v-7.5l-2.1-2 .6-3c1.3 1.5 3.3 2.5 5.5 2.5v-2c-1.9 0-3.5-1-4.3-2.4l-1-1.6c-.4-.6-1-1-1.7-1-.3 0-.5.1-.8.1l-5.2 2.2v4.7h2v-3.4l1.8-.7-1.6 8.1-4.9-1-.4 2 7 1.4 1-4.4z"/></symbol>
<symbol id="directions_subway" viewBox="0 0 24 24"><path d="M0 0h24v24H0V0z" fill="none"/><path d="M12 4c-3.51 0-4.96.48-5.57 1h11.23c-.54-.54-1.95-1-5.66-1zM6 15.5c0 .83.67 1.5 1.5 1.5h9c.83 0 1.5-.67 1.5-1.5V12H6v3.5zm9.5-2.5c.83 0 1.5.67 1.5 1.5s-.67 1.5-1.5 1.5-1.5-.67-1.5-1.5.67-1.5 1.5-1.5zm-7 0c.83 0 1.5.67 1.5 1.5S9.33 16 8.5 16 7 15.33 7 14.5 7.67 13 8.5 13z" opacity=".3"/><path d="M12 2c-4 0-8 .5-8 4v9.5C4 17.43 5.57 19 7.5 19L6 20.5v.5h12v-.5L16.5 19c1.93 0 3.5-1.57 3.5-3.5V6c0-3.5-3.58-4-8-4zm0 2c3.71 0 5.12.46 5.66 1H6.43c.61-.52 2.06-1 5.57-1zM6 7h5v3H6V7zm12 8.5c0 .83-.67 1.5-1.5 1.5h-9c-.83 0-1.5-.67-1.5-1.5V12h12v3.5zm0-5.5h-5V7h5v3z"/><circle cx="8.5" cy="14.5" r="1.5"/><circle cx="15.5" cy="14.5" r="1.5"/></symbol>
<symbol id="directions_transit" viewBox="0 0 24 24"><path d="M0 0h24v24H0V0z" fill="none"/><path d="M12 4c-3.51 0-4.96.48-5.57 1h11.23c-.54-.54-1.95-1-5.66-1zM7.5 17h9c.83 0 1.5-.67 1.5-1.5V12H6v3.5c0 .83.67 1.5 1.5 1.5zm8-4c.83 0 1.5.67 1.5 1.5s-.67 1.5-1.5 1.5-1.5-.67-1.5-1.5.67-1.5 1.5-1.5zm-7 0c.83 0 1.5.67 1.5 1.5S9.33 16 8.5 16 7 15.33 7 14.5 7.67 13 8.5 13z" opacity=".3"/><path d="M4 6v9.5C4 17.43 5.57 19 7.5 19L6 20.5v.5h12v-.5L16.5 19c1.93 0 3.5-1.57 3.5-3.5V6c0-3.5-3.58-4-8-4-4 0-8 .5-8 4zm14 4h-5V7h5v3zm-6-6c3.71 0 5.12.46 5.66 1H6.43c.61-.52 2.06-1 5.57-1zM6 7h5v3H6V7zm0 5h12v3.5c0 .83-.67 1.5-1.5 1.5h-9c-.83 0-1.5-.67-1.5-1.5V12z"/><circle cx="8.5" cy="14.5" r="1.5"/><circle cx="15.5" cy="14.5" r="1.5"/></symbol>
<symbol id="directions_walk" viewBox="0 0 24 24"><path d="M0 0h24v24H0V0z" fill="none"/><path d="M13.5 5.5c1.1 0 2-.9 2-2s-.9-2-2-2-2 .9-2 2 .9 2 2 2zM9.8 8.9L7 23h2.1l1.8-8 2.1 2v6h2v-7.5l-2.1-2 .6-3C14.8 12 16.8 13 19 13v-2c-1.9 0-3.5-1-4.3-2.4l-1-1.6c-.56-.89-1.68-1.25-2.65-.84L6 8.3V13h2V9.6l1.8-.7"/></symbol>
<symbol id="edit_attributes" viewBox="0 0 24 24"><path d="M0 0h24v24H0V0z" fill="none"/><path d="M17.63 9H6.37C5.09 9 4 10.37 4 12s1.09 3 2.37 3h11.26c1.28 0 2.37-1.37 2.37-3s-1.09-3-2.37-3zM7.24 14.46l-2.57-2.57.7-.7 1.87 1.87 3.52-3.52.7.7-4.22 4.22z" opacity=".3"/><path d="M17.63 7H6.37C3.96 7 2 9.24 2 12s1.96 5 4.37 5h11.26c2.41 0 4.37-2.24 4.37-5s-1.96-5-4.37-5zm0 8H6.37C5.09 15 4 13.63 4 12s1.09-3 2.37-3h11.26C18.91 9 20 10.37 20 12s-1.09 3-2.37 3zM7.24 13.06l-1.87-1.87-.7.7 2.57 2.57 4.22-4.22-.7-.7z"/></symbol>
<symbol id="edit_location" viewBox="0 0 24 24"><rect fill="none" height="24" width="24"/><path d="M14.11,14h-0.83H10H8v-2V8.74V7.91l0.59-0.59L11.91,4C8.61,4.05,6,6.6,6,10.2c0,2.34,1.95,5.44,6,9.14 c4.05-3.7,6-6.79,6-9.14c0-0.03,0-0.06,0-0.08l-3.3,3.3L14.11,14z" opacity=".3"/><path d="M18.17,4.91L17.1,3.84l-5.55,5.55v1.08h1.08L18.17,4.91z M16,2.74l1.29-1.29c0.58-0.59,1.52-0.59,2.11-0.01 c0,0,0.01,0.01,0.01,0.01l1.15,1.15c0.59,0.59,0.59,1.54,0,2.12L19.88,5.4l-0.02,0.02L19.28,6l-6,6H10V8.74L16,2.74z M13.72,2.19 l-0.55,0.55L11.9,4.01C8.6,4.06,6,6.61,6,10.21c0,2.34,1.95,5.44,6,9.14c4.05-3.7,6-6.79,6-9.14v-0.1l1.8-1.8 c0.13,0.6,0.2,1.24,0.2,1.9c0,3.32-2.67,7.25-8,11.8c-5.33-4.55-8-8.48-8-11.8c0-4.98,3.8-8.2,8-8.2 C12.58,2.01,13.16,2.07,13.72,2.19z"/><polygon opacity=".3" points="18.17,4.91 17.1,3.84 11.55,9.39 11.55,10.47 12.63,10.47"/></symbol>
<symbol id="edit_road" viewBox="0 0 24 24"><g><rect fill="none" height="24" width="24"/></g><g><g><polygon opacity=".3" points="15.55,17.42 15.55,18.45 16.58,18.45 20.03,15 19,13.97"/><polygon points="18,4 16,4 16,11.9 18,9.9"/><rect height="16" width="2" x="4" y="4"/><rect height="4" width="2" x="10" y="4"/><rect height="4" width="2" x="10" y="10"/><rect height="4" width="2" x="10" y="16"/><path d="M22.56,12.59l-1.15-1.15c-0.59-0.59-1.54-0.59-2.12,0L14,16.73V20h3.27l5.29-5.29C23.15,14.12,23.15,13.17,22.56,12.59z M16.58,18.45h-1.03v-1.03L19,13.97L20.03,15L16.58,18.45z"/></g></g></symbol>
<symbol id="electrical_services" viewBox="0 0 24 24"><g><rect fill="none" height="24" width="24"/></g><g><path d="M20,15h-2v-2h2c0.55,0,1,0.45,1,1v0C21,14.55,20.55,15,20,15z"/><path d="M20,19h-2v-2h2c0.55,0,1,0.45,1,1v0C21,18.55,20.55,19,20,19z"/><path d="M14,12L14,12L14,12c-1.1,0-2,0.9-2,2v0h-2v4h2v0c0,1.1,0.9,2,2,2h0h3l0,0v-8H14z"/><path d="M4,5L4,5c0,0.55,0.45,1,1,1h3.5C9.33,6,10,6.67,10,7.5v0C10,8.33,9.33,9,8.5,9H7c-2.21,0-4,1.79-4,4v0c0,2.21,1.79,4,4,4h2 v-2H7c-1.1,0-2-0.9-2-2v0c0-1.1,0.9-2,2-2h1.5c1.93,0,3.5-1.57,3.5-3.5v0C12,5.57,10.43,4,8.5,4H5C4.45,4,4,4.45,4,5z"/></g></symbol>
<symbol id="electric_bike" viewBox="0 0 24 24"><g><rect fill="none" height="24" width="24"/></g><g><g><path d="M19,7h-0.82l-1.7-4.68C16.19,1.53,15.44,1,14.6,1H12v2h2.6l1.46,4h-4.81l-0.36-1H12V4H7v2h1.75l1.82,5H9.9 C9.46,8.77,7.59,7.12,5.25,7.01C2.45,6.87,0,9.2,0,12c0,2.8,2.2,5,5,5c2.46,0,4.45-1.69,4.9-4h4.2c0.44,2.23,2.31,3.88,4.65,3.99 c2.8,0.13,5.25-2.19,5.25-5C24,9.2,21.8,7,19,7z M7.82,13c-0.4,1.17-1.49,2-2.82,2c-1.68,0-3-1.32-3-3s1.32-3,3-3 c1.33,0,2.42,0.83,2.82,2H5v2H7.82z M14.1,11h-1.4l-0.73-2H15C14.56,9.58,14.24,10.25,14.1,11z M19,15c-1.68,0-3-1.32-3-3 c0-0.93,0.41-1.73,1.05-2.28l0.96,2.64l1.88-0.68l-0.97-2.67C18.94,9.01,18.97,9,19,9c1.68,0,3,1.32,3,3S20.68,15,19,15z"/><polygon points="11,20 7,20 13,23 13,21 17,21 11,18"/></g></g></symbol>
<symbol id="electric_car" viewBox="0 0 24 24"><g><rect fill="none" height="24" width="24"/></g><g><g><path d="M5,13h14V8H5V13z M16.5,9c0.83,0,1.5,0.67,1.5,1.5c0,0.83-0.67,1.5-1.5,1.5S15,11.33,15,10.5 C15,9.67,15.67,9,16.5,9z M7.5,9C8.33,9,9,9.67,9,10.5C9,11.33,8.33,12,7.5,12S6,11.33,6,10.5C6,9.67,6.67,9,7.5,9z" opacity=".3"/><path d="M18.92,2.01C18.72,1.42,18.16,1,17.5,1h-11C5.84,1,5.29,1.42,5.08,2.01L3,8v8c0,0.55,0.45,1,1,1h1c0.55,0,1-0.45,1-1v-1 h12v1c0,0.55,0.45,1,1,1h1c0.55,0,1-0.45,1-1V8L18.92,2.01z M6.85,3h10.29l1.08,3.11H5.77L6.85,3z M19,13H5V8h14V13z"/><circle cx="7.5" cy="10.5" r="1.5"/><circle cx="16.5" cy="10.5" r="1.5"/></g><polygon points="7,20 11,20 11,18 17,21 13,21 13,23"/></g></symbol>
<symbol id="electric_moped" viewBox="0 0 24 24"><g><rect fill="none" height="24" width="24"/></g><g><g><path d="M4,11v1h4V9H6C4.9,9,4,9.9,4,11z" opacity=".3"/><path d="M19,5c0-1.1-0.9-2-2-2h-3v2h3v2.65L13.52,12H10V7H6c-2.21,0-4,1.79-4,4v3h2c0,1.66,1.34,3,3,3s3-1.34,3-3h4.48L19,8.35V5z M7,15c-0.55,0-1-0.45-1-1h2C8,14.55,7.55,15,7,15z M8,12H4v-1c0-1.1,0.9-2,2-2h2V12z"/><rect height="2" width="5" x="5" y="4"/><path d="M19,11c-1.66,0-3,1.34-3,3s1.34,3,3,3s3-1.34,3-3S20.66,11,19,11z M19,15c-0.55,0-1-0.45-1-1s0.45-1,1-1s1,0.45,1,1 S19.55,15,19,15z"/></g><polygon points="7,20 11,20 11,18 17,21 13,21 13,23"/></g></symbol>
<symbol id="electric_rickshaw" viewBox="0 0 24 24"><g><rect fill="none" height="24" width="24"/></g><g><g><path d="M21,11.18V9.72c0-0.47-0.16-0.92-0.46-1.28L16.6,3.72C16.22,3.26,15.66,3,15.06,3H3C1.9,3,1,3.9,1,5v8c0,1.1,0.9,2,2,2 h0.18C3.6,16.16,4.7,17,6,17s2.4-0.84,2.82-2h8.37c0.41,1.16,1.51,2,2.82,2c1.66,0,3-1.34,3-3C23,12.7,22.16,11.6,21,11.18z M6,15 c-0.55,0-1-0.45-1-1s0.45-1,1-1s1,0.45,1,1S6.55,15,6,15z M7,11.17C6.69,11.06,6.35,11,6,11c-1.3,0-2.42,0.84-2.83,2H3v-3h4V11.17 z M7,8H3V5h4V8z M14,13H9v-3h3V8H9V5h5V13z M16,6.12L18.4,9H16V6.12z M17.17,13H16v-2h3v0.17C18.15,11.47,17.47,12.15,17.17,13z M20,15c-0.55,0-1-0.45-1-1s0.45-1,1-1s1,0.45,1,1S20.55,15,20,15z"/></g><polygon points="7,20 11,20 11,18 17,21 13,21 13,23"/></g></symbol>
<symbol id="electric_scooter" viewBox="0 0 24 24"><g><rect fill="none" height="24" width="24"/></g><g><g><path d="M7.82,16H15v-1c0-2.21,1.79-4,4-4h0.74l-1.9-8.44C17.63,1.65,16.82,1,15.89,1H12v2h3.89l1.4,6.25c0,0-0.01,0-0.01,0 c-2.16,0.65-3.81,2.48-4.19,4.75H7.82c-0.48-1.34-1.86-2.24-3.42-1.94c-1.18,0.23-2.13,1.2-2.35,2.38C1.7,16.34,3.16,18,5,18 C6.3,18,7.4,17.16,7.82,16z M5,16c-0.55,0-1-0.45-1-1s0.45-1,1-1s1,0.45,1,1S5.55,16,5,16z"/><path d="M19,12c-1.66,0-3,1.34-3,3s1.34,3,3,3s3-1.34,3-3S20.66,12,19,12z M19,16c-0.55,0-1-0.45-1-1s0.45-1,1-1s1,0.45,1,1 S19.55,16,19,16z"/><polygon points="11,20 7,20 13,23 13,21 17,21 11,18"/></g></g></symbol>
<symbol id="ev_station" viewBox="0 0 24 24"><path d="M0 0h24v24H0V0z" fill="none"/><path d="M8 13.5H6V19h6v-8l-4 7zm-2 0L10 6v5h2V5H6z" opacity=".3"/><path d="M12 3H6c-1.1 0-2 .9-2 2v16h10v-7.5h1.5v5c0 1.38 1.12 2.5 2.5 2.5s2.5-1.12 2.5-2.5V9c0-.69-.28-1.32-.73-1.77l.01-.01-3.72-3.72L15 4.56l2.11 2.11c-.94.36-1.61 1.26-1.61 2.33 0 1.38 1.12 2.5 2.5 2.5.36 0 .69-.08 1-.21v7.21c0 .55-.45 1-1 1s-1-.45-1-1V14c0-1.1-.9-2-2-2h-1V5c0-1.1-.9-2-2-2zm0 8v8H6V5h6v6zm6-1c-.55 0-1-.45-1-1s.45-1 1-1 1 .45 1 1-.45 1-1 1zm-8-4l-4 7.5h2V18l4-7h-2z"/></symbol>
<symbol id="fastfood" viewBox="0 0 24 24"><path d="M0 0h24v24H0V0z" fill="none"/><path d="M1 21.98c0 .56.45 1.01 1.01 1.01H15c.56 0 1.01-.45 1.01-1.01V21H1v.98z"/><path d="M8.5 10.99c-1.42 0-3.77.46-4.88 2.01h9.77c-1.12-1.55-3.47-2.01-4.89-2.01z" opacity=".3"/><path d="M8.5 8.99C4.75 8.99 1 11 1 15h15c0-4-3.75-6.01-7.5-6.01zM3.62 13c1.11-1.55 3.47-2.01 4.88-2.01s3.77.46 4.88 2.01H3.62zM1 17h15v2H1zM18 5V1h-2v4h-5l.23 2h9.56l-1.4 14H18v2h1.72c.84 0 1.53-.65 1.63-1.47L23 5h-5z"/></symbol>
<symbol id="flight" viewBox="0 0 24 24"><path d="M0 0h24v24H0V0z" fill="none"/><path d="M10 19l-2 1.5V22l3.5-1 3.5 1v-1.5L13 19v-5.5l8 2.5v-2l-8-5V3.5c0-.83-.67-1.5-1.5-1.5S10 2.67 10 3.5V9l-8 5v2l8-2.5V19z"/></symbol>
<symbol id="handyman" viewBox="0 0 24 24"><g><rect fill="none" height="24" width="24"/></g><g><g><g opacity=".3"><polygon points="8.66,14.64 4.41,18.88 5.12,19.59 9.36,15.34 9.36,15.34 8.66,14.64"/></g><g opacity=".3"><rect height="6" transform="matrix(0.7071 -0.7071 0.7071 0.7071 -7.0983 17.0848)" width="1" x="16.57" y="14.11"/></g><g><path d="M21.67,18.17l-5.3-5.3h-0.99l-2.54,2.54v0.99l5.3,5.3c0.39,0.39,1.02,0.39,1.41,0l2.12-2.12 C22.06,19.2,22.06,18.56,21.67,18.17z M18.84,19.59l-4.24-4.24l0.71-0.71l4.24,4.24L18.84,19.59z"/></g><g><path d="M17.34,10.19l1.41-1.41l2.12,2.12c1.17-1.17,1.17-3.07,0-4.24l-3.54-3.54l-1.41,1.41V1.71L15.22,1l-3.54,3.54l0.71,0.71 h2.83l-1.41,1.41l1.06,1.06l-2.89,2.89L7.85,6.48V5.06L4.83,2.04L2,4.87l3.03,3.03h1.41l4.13,4.13l-0.85,0.85H7.6l-5.3,5.3 c-0.39,0.39-0.39,1.02,0,1.41l2.12,2.12c0.39,0.39,1.02,0.39,1.41,0l5.3-5.3v-2.12l5.15-5.15L17.34,10.19z M9.36,15.34 l-4.24,4.24l-0.71-0.71l4.24-4.24l0,0L9.36,15.34L9.36,15.34z"/></g></g></g></symbol>
<symbol id="home_repair_service" viewBox="0 0 24 24"><g><rect fill="none" height="24" width="24"/></g><g><g><g><path d="M20,8h-3V6c0-1.1-0.9-2-2-2H9C7.9,4,7,4.9,7,6v2H4c-1.1,0-2,0.9-2,2v10h20V10C22,8.9,21.1,8,20,8z M9,6h6v2H9V6z M20,18 H4v-3h2v1h2v-1h8v1h2v-1h2V18z M20,13h-2v-1h-2v1H8v-1H6v1H4v-3h3h10h3V13z"/></g></g><g><g opacity=".3"><polygon points="18,16 16,16 16,15 8,15 8,16 6,16 6,15 4,15 4,18 20,18 20,15 18,15"/></g><g opacity=".3"><polygon points="4,10 4,13 6,13 6,12 8,12 8,13 16,13 16,12 18,12 18,13 20,13 20,10 17,10 7,10"/></g></g></g></symbol>
<symbol id="hotel" viewBox="0 0 24 24"><path d="M0 0h24v24H0V0z" fill="none"/><path d="M19 9h-6v6h8v-4c0-1.1-.9-2-2-2z" opacity=".3"/><circle cx="7" cy="11" opacity=".3" r="1"/><path d="M4 11c0 1.66 1.34 3 3 3s3-1.34 3-3-1.34-3-3-3-3 1.34-3 3zm4 0c0 .55-.45 1-1 1s-1-.45-1-1 .45-1 1-1 1 .45 1 1zm11-4h-8v8H3V5H1v15h2v-3h18v3h2v-9c0-2.21-1.79-4-4-4zm2 8h-8V9h6c1.1 0 2 .9 2 2v4z"/></symbol>
<symbol id="hvac" viewBox="0 0 24 24"><g><rect fill="none" height="24" width="24"/></g><g><g><path d="M5,19h14V5H5V19z M12,6c3.31,0,6,2.69,6,6s-2.69,6-6,6s-6-2.69-6-6S8.69,6,12,6z" opacity=".3"/><path d="M19,3H5C3.9,3,3,3.9,3,5v14c0,1.1,0.9,2,2,2h14c1.1,0,2-0.9,2-2V5C21,3.9,20.1,3,19,3z M19,19H5V5h14V19z"/><path d="M12,18c3.31,0,6-2.69,6-6s-2.69-6-6-6s-6,2.69-6,6S8.69,18,12,18z M12,16c-1.01,0-1.91-0.39-2.62-1h5.24 C13.91,15.61,13.01,16,12,16z M12,8c1.01,0,1.91,0.39,2.62,1H9.38C10.09,8.39,10.99,8,12,8z M8.56,10h6.89 c0.26,0.45,0.44,0.96,0.51,1.5h-7.9C8.12,10.96,8.29,10.45,8.56,10z M15.95,12.5c-0.07,0.54-0.24,1.05-0.51,1.5H8.56 c-0.26-0.45-0.44-0.96-0.51-1.5H15.95z"/></g></g></symbol>
<symbol id="layers" viewBox="0 0 24 24"><path d="M0 0h24v24H0V0z" fill="none"/><path d="M6.26 9L12 13.47 17.74 9 12 4.53z" opacity=".3"/><path d="M19.37 12.8l-7.38 5.74-7.37-5.73L3 14.07l9 7 9-7zM12 2L3 9l1.63 1.27L12 16l7.36-5.73L21 9l-9-7zm0 11.47L6.26 9 12 4.53 17.74 9 12 13.47z"/></symbol>
<symbol id="layers_clear" viewBox="0 0 24 24"><path d="M0 0h24v24H0V0z" fill="none"/><path d="M12 13.47l.67-.53-5.02-5.02L6.26 9zm0-8.94l-1.17.91 5.02 5.03L17.74 9z" opacity=".3"/><path d="M12 4.53L17.74 9l-1.89 1.47 1.43 1.42L21 9l-9-7-2.59 2.02 1.42 1.42zm9 9.54l-1.63-1.27-.67.52 1.43 1.43zM3.41.86L2 2.27l4.22 4.22L3 9l9 7 2.1-1.63 1.42 1.42-3.53 2.75-7.37-5.73L3 14.07l9 7 4.95-3.85L20.73 21l1.41-1.41L3.41.86zM12 13.47L6.26 9l1.39-1.08 5.02 5.02-.67.53z"/></symbol>
<symbol id="local_activity" viewBox="0 0 24 24"><path d="M0 0h24v24H0V0z" fill="none"/><path d="M4.01 8.54C5.2 9.23 6 10.52 6 12s-.81 2.77-2 3.46V18h16v-2.54c-1.19-.69-2-1.99-2-3.46s.81-2.77 2-3.46V6H4l.01 2.54zm6.72 1.68L12 7l1.26 3.23 3.47.2-2.69 2.2.89 3.37L12 14.12 9.07 16l.88-3.37-2.69-2.2 3.47-.21z" opacity=".3"/><path d="M20 4H4c-1.1 0-1.99.9-1.99 2v4c1.1 0 1.99.9 1.99 2s-.89 2-2 2v4c0 1.1.9 2 2 2h16c1.1 0 2-.9 2-2v-4c-1.1 0-2-.9-2-2s.9-2 2-2V6c0-1.1-.9-2-2-2zm0 4.54c-1.19.69-2 1.99-2 3.46s.81 2.77 2 3.46V18H4v-2.54c1.19-.69 2-1.99 2-3.46 0-1.48-.8-2.77-1.99-3.46L4 6h16v2.54zM9.07 16L12 14.12 14.93 16l-.89-3.36 2.69-2.2-3.47-.21L12 7l-1.27 3.22-3.47.21 2.69 2.2z"/></symbol>
<symbol id="local_airport" viewBox="0 0 24 24"><g><path d="M22,16v-2l-8.5-5V3.5C13.5,2.67,12.83,2,12,2s-1.5,0.67-1.5,1.5V9L2,14v2l8.5-2.5V19L8,20.5L8,22l4-1l4,1l0-1.5L13.5,19 v-5.5L22,16z"/><path d="M0,0h24v24H0V0z" fill="none"/></g></symbol>
<symbol id="local_atm" viewBox="0 0 24 24"><path d="M0 0h24v24H0V0z" fill="none"/><path d="M4 18h16V6H4v12zm5-4h4v-1h-3c-.55 0-1-.45-1-1V9c0-.55.45-1 1-1h1V7h2v1h2v2h-4v1h3c.55 0 1 .45 1 1v3c0 .55-.45 1-1 1h-1v1h-2v-1H9v-2z" opacity=".3"/><path d="M20 4H4c-1.11 0-1.99.89-1.99 2L2 18c0 1.11.89 2 2 2h16c1.11 0 2-.89 2-2V6c0-1.11-.89-2-2-2zm0 14H4V6h16v12zm-9-1h2v-1h1c.55 0 1-.45 1-1v-3c0-.55-.45-1-1-1h-3v-1h4V8h-2V7h-2v1h-1c-.55 0-1 .45-1 1v3c0 .55.45 1 1 1h3v1H9v2h2v1z"/></symbol>
<symbol id="local_bar" viewBox="0 0 24 24"><path d="M0 0h24v24H0V0z" fill="none"/><path d="M9.23 9L12 12.11 14.77 9z" opacity=".3"/><path d="M21 5V3H3v2l8 9v5H6v2h12v-2h-5v-5l8-9zM5.66 5h12.69l-1.78 2H7.43L5.66 5zM12 12.11L9.23 9h5.54L12 12.11z"/></symbol>
<symbol id="local_cafe" viewBox="0 0 24 24"><path d="M0 0h24v24H0V0z" fill="none"/><path d="M8 15h6c1.1 0 2-.9 2-2V5H6v8c0 1.1.9 2 2 2z" opacity=".3"/><path d="M2 19h18v2H2zm2-6c0 2.21 1.79 4 4 4h6c2.21 0 4-1.79 4-4v-3h2c1.11 0 2-.89 2-2V5c0-1.11-.89-2-2-2H4v10zm14-8h2v3h-2V5zM6 5h10v8c0 1.1-.9 2-2 2H8c-1.1 0-2-.9-2-2V5z"/></symbol>
<symbol id="local_car_wash" viewBox="0 0 24 24"><path d="M0 0h24v24H0V0z" fill="none"/><path d="M5.12 14l-.12.34V19h14v-4.66l-.12-.34H5.12zm2.38 4c-.83 0-1.5-.67-1.5-1.5S6.67 15 7.5 15s1.5.67 1.5 1.5S8.33 18 7.5 18zm9 0c-.83 0-1.5-.67-1.5-1.5s.67-1.5 1.5-1.5 1.5.67 1.5 1.5-.67 1.5-1.5 1.5z" opacity=".3"/><path d="M15.5 3.5c0 .83.67 1.5 1.5 1.5s1.5-.67 1.5-1.5c0-1-1.5-2.7-1.5-2.7s-1.5 1.7-1.5 2.7zm-2 0c0-1-1.5-2.7-1.5-2.7s-1.5 1.7-1.5 2.7c0 .83.67 1.5 1.5 1.5s1.5-.67 1.5-1.5zm-5 0C8.5 2.5 7 .8 7 .8S5.5 2.5 5.5 3.5C5.5 4.33 6.17 5 7 5s1.5-.67 1.5-1.5zM21 14l-2.08-5.99C18.72 7.42 18.16 7 17.5 7h-11c-.66 0-1.21.42-1.42 1.01L3 14v8c0 .55.45 1 1 1h1c.55 0 1-.45 1-1v-1h12v1c0 .55.45 1 1 1h1c.55 0 1-.45 1-1v-8zM6.85 9h10.29l1.04 3H5.81l1.04-3zM19 19H5v-4.66l.12-.34h13.77l.11.34V19z"/><circle cx="7.5" cy="16.5" r="1.5"/><circle cx="16.5" cy="16.5" r="1.5"/></symbol>
<symbol id="local_convenience_store" viewBox="0 0 24 24"><path d="M0 0h24v24H0V0z" fill="none"/><path d="M14 14h2v4h4V9h-3V6H7v3H4v9h4v-4h6zm-1-7h1v2h1V7h1v5h-1v-2h-2V7zM8 9h2V8H8V7h3v3H9v1h2v1H8V9z" opacity=".3"/><path d="M10 16h4v4h8V7h-3V4H5v3H2v13h8v-4zm-2 0v2H4V9h3V6h10v3h3v9h-4v-4H8v2zm3-5H9v-1h2V7H8v1h2v1H8v3h3zm4 1h1V7h-1v2h-1V7h-1v3h2z"/></symbol>
<symbol id="local_dining" viewBox="0 0 24 24"><path d="M0 0h24v24H0V0z" fill="none"/><path d="M5.11 21.28L12 14.41l6.88 6.88 1.41-1.41L13.41 13l1.47-1.47c1.53.71 3.68.21 5.27-1.38 1.91-1.91 2.28-4.65.81-6.12-1.46-1.46-4.2-1.1-6.12.81-1.59 1.59-2.09 3.74-1.38 5.27L3.7 19.87l1.41 1.41zM3.91 9.16l4.19 4.18 2.83-2.83L3.91 3.5c-1.56 1.56-1.56 4.09 0 5.66z"/></symbol>
<symbol id="local_drink" viewBox="0 0 24 24"><path d="M0 0h24v24H0V0z" fill="none"/><path d="M7 20.01L17 20l1.1-10H5.89L7 20.01zm5-9.41s3 3.4 3 5.4c0 1.66-1.34 3-3 3s-3-1.34-3-3c0-2 3-5.4 3-5.4z" opacity=".3"/><path d="M5.01 20.23C5.13 21.23 5.97 22 7 22h10c1.03 0 1.87-.77 1.99-1.77L21 2H3l2.01 18.23zM17 20l-10 .01L5.89 10H18.1L17 20zm1.76-16l-.43 4H5.67l-.44-4h13.53zM12 19c1.66 0 3-1.34 3-3 0-2-3-5.4-3-5.4S9 14 9 16c0 1.66 1.34 3 3 3zm0-5.09c.59.91 1 1.73 1 2.09 0 .55-.45 1-1 1s-1-.45-1-1c0-.37.41-1.19 1-2.09z"/></symbol>
<symbol id="local_fire_department" viewBox="0 0 24 24"><g><rect fill="none" height="24" width="24" y="0"/></g><g><g><path d="M12.58,15.07c-0.2,0.92-0.94,1.96-2.38,2.31c2.9,2.37,5.64,0.2,5.56-2.32 c0-2.05-2.95-3.21-3.27-5.08C11.62,12.24,12.9,13.64,12.58,15.07z" enable-background="new" opacity=".3"/><path d="M19.48,12.35c-1.57-4.08-7.16-4.3-5.81-10.23c0.1-0.44-0.37-0.78-0.75-0.55C9.29,3.71,6.68,8,8.87,13.62 c0.18,0.46-0.36,0.89-0.75,0.59c-1.81-1.37-2-3.34-1.84-4.75c0.06-0.52-0.62-0.77-0.91-0.34C4.69,10.16,4,11.84,4,14.37 c0.38,5.6,5.11,7.32,6.81,7.54c2.43,0.31,5.06-0.14,6.95-1.87C19.84,18.11,20.6,15.03,19.48,12.35z M10.2,17.38 c1.44-0.35,2.18-1.39,2.38-2.31c0.33-1.43-0.96-2.83-0.09-5.09c0.33,1.87,3.27,3.04,3.27,5.08C15.84,17.59,13.1,19.76,10.2,17.38z"/></g></g></symbol>
<symbol id="local_florist" viewBox="0 0 24 24"><path d="M0 0h24v24H0V0z" fill="none"/><path d="M12 13c.62 0 1.12-.49 1.14-1.1l-.11-1.09c-.32.12-.67.19-1.03.19s-.7-.07-1.02-.19l-.12 1.09c.02.61.52 1.1 1.14 1.1zM8.17 7.1l.88.42c.12-.73.51-1.37 1.06-1.83l-.81-.56c-.18-.13-.41-.2-.64-.2-.63 0-1.14.51-1.14 1.14-.01.44.25.83.65 1.03zm7.66 1.8l-.88-.42c-.12.73-.51 1.37-1.06 1.83l.81.57c.18.13.41.2.64.2.63 0 1.14-.51 1.14-1.14.01-.45-.25-.84-.65-1.04zm-.88-1.38l.88-.42c.4-.19.66-.59.66-1.03 0-.63-.51-1.14-1.14-1.14-.24 0-.46.07-.65.2l-.81.55c.55.46.94 1.1 1.06 1.84zM12 5c.36 0 .71.07 1.03.19l.11-1.09C13.12 3.49 12.62 3 12 3s-1.12.49-1.14 1.1l.12 1.09C11.3 5.07 11.64 5 12 5zm-3.34 6.07c.24 0 .46-.07.65-.2l.81-.55c-.56-.46-.95-1.1-1.07-1.84l-.88.42c-.4.2-.66.59-.66 1.03 0 .63.52 1.14 1.15 1.14zm9.9 4.37c-1.9.71-3.42 2.22-4.12 4.12 1.9-.71 3.41-2.22 4.12-4.12zm-13.12 0c.71 1.9 2.22 3.42 4.12 4.12-.71-1.9-2.22-3.41-4.12-4.12z" opacity=".3"/><path d="M8.66 13.07c.15 0 .29-.01.43-.03C9.56 14.19 10.69 15 12 15s2.44-.81 2.91-1.96c.14.02.29.03.43.03 1.73 0 3.14-1.41 3.14-3.14 0-.71-.25-1.39-.67-1.93.43-.54.67-1.22.67-1.93 0-1.73-1.41-3.14-3.14-3.14-.15 0-.29.01-.43.03C14.44 1.81 13.31 1 12 1s-2.44.81-2.91 1.96c-.14-.02-.29-.03-.43-.03-1.73 0-3.14 1.41-3.14 3.14 0 .71.25 1.39.67 1.93-.43.54-.68 1.22-.68 1.93 0 1.73 1.41 3.14 3.15 3.14zm6.68-2c-.24 0-.46-.07-.64-.2l-.81-.57c.55-.45.94-1.09 1.06-1.83l.88.42c.4.19.66.59.66 1.03 0 .64-.52 1.15-1.15 1.15zm-.65-5.94c.2-.13.42-.2.65-.2.63 0 1.14.51 1.14 1.14 0 .44-.25.83-.66 1.03l-.88.42c-.12-.74-.51-1.38-1.07-1.83l.82-.56zM12 3c.62 0 1.12.49 1.14 1.1l-.11 1.09C12.71 5.07 12.36 5 12 5s-.7.07-1.02.19l-.12-1.09c.02-.61.52-1.1 1.14-1.1zm1 5c0 .55-.45 1-1 1s-1-.45-1-1 .45-1 1-1 1 .45 1 1zm-2.02 2.81c.32.12.66.19 1.02.19s.71-.07 1.03-.19l.11 1.09c-.02.61-.52 1.1-1.14 1.1s-1.12-.49-1.14-1.1l.12-1.09zM8.66 4.93c.24 0 .46.07.64.2l.81.56c-.55.45-.94 1.09-1.06 1.83l-.88-.42c-.4-.2-.66-.59-.66-1.03 0-.63.52-1.14 1.15-1.14zM8.17 8.9l.88-.42c.12.74.51 1.38 1.07 1.83l-.81.55c-.2.13-.42.2-.65.2-.63 0-1.14-.51-1.14-1.14-.01-.43.25-.82.65-1.02zM12 22c4.97 0 9-4.03 9-9-4.97 0-9 4.03-9 9zm6.56-6.56c-.71 1.9-2.22 3.42-4.12 4.12.71-1.9 2.22-3.41 4.12-4.12zM3 13c0 4.97 4.03 9 9 9 0-4.97-4.03-9-9-9zm2.44 2.44c1.9.71 3.42 2.22 4.12 4.12-1.9-.71-3.41-2.22-4.12-4.12z"/></symbol>
<symbol id="local_gas_station" viewBox="0 0 24 24"><path d="M0 0h24v24H0V0z" fill="none"/><path d="M6 19h6v-7H6z" opacity=".3"/><path d="M12 3H6c-1.1 0-2 .9-2 2v16h10v-7.5h1.5v5c0 1.38 1.12 2.5 2.5 2.5s2.5-1.12 2.5-2.5V9c0-.69-.28-1.32-.73-1.77l.01-.01-3.72-3.72L15 4.56l2.11 2.11c-.94.36-1.61 1.26-1.61 2.33 0 1.38 1.12 2.5 2.5 2.5.36 0 .69-.08 1-.21v7.21c0 .55-.45 1-1 1s-1-.45-1-1V14c0-1.1-.9-2-2-2h-1V5c0-1.1-.9-2-2-2zm0 10.5V19H6v-7h6v1.5zm0-3.5H6V5h6v5zm6 0c-.55 0-1-.45-1-1s.45-1 1-1 1 .45 1 1-.45 1-1 1z"/></symbol>
<symbol id="local_grocery_store" viewBox="0 0 24 24"><path d="M0 0h24v24H0V0z" fill="none"/><path d="M8.53 11h7.02l2.76-5H6.16z" opacity=".3"/><path d="M7 18c-1.1 0-1.99.9-1.99 2S5.9 22 7 22s2-.9 2-2-.9-2-2-2zm10 0c-1.1 0-1.99.9-1.99 2s.89 2 1.99 2 2-.9 2-2-.9-2-2-2zm-1.45-5c.75 0 1.41-.41 1.75-1.03l3.58-6.49c.37-.66-.11-1.48-.87-1.48H5.21l-.94-2H1v2h2l3.6 7.59-1.35 2.44C4.52 15.37 5.48 17 7 17h12v-2H7l1.1-2h7.45zM6.16 6h12.15l-2.76 5H8.53L6.16 6z"/></symbol>
<symbol id="local_hospital" viewBox="0 0 24 24"><path d="M0 0h24v24H0V0z" fill="none"/><path d="M5 19h14V5H5v14zm2-8.5h3.5V7h3v3.5H17v3h-3.5V17h-3v-3.5H7v-3z" opacity=".3"/><path d="M21 5c0-1.1-.9-2-2-2H5c-1.1 0-1.99.9-1.99 2L3 19c0 1.1.9 2 2 2h14c1.1 0 2-.9 2-2V5zm-2 14H5V5h14v14zm-8.5-2h3v-3.5H17v-3h-3.5V7h-3v3.5H7v3h3.5z"/></symbol>
<symbol id="local_hotel" viewBox="0 0 24 24"><path d="M0 0h24v24H0V0z" fill="none"/><circle cx="7" cy="11" opacity=".3" r="1"/><path d="M19 9h-6v6h8v-4c0-1.1-.9-2-2-2z" opacity=".3"/><path d="M4 11c0 1.66 1.34 3 3 3s3-1.34 3-3-1.34-3-3-3-3 1.34-3 3zm4 0c0 .55-.45 1-1 1s-1-.45-1-1 .45-1 1-1 1 .45 1 1zm11-4h-8v8H3V5H1v15h2v-3h18v3h2v-9c0-2.21-1.79-4-4-4zm2 8h-8V9h6c1.1 0 2 .9 2 2v4z"/></symbol>
<symbol id="local_laundry_service" viewBox="0 0 24 24"><path d="M0 0h24v24H0V0z" fill="none"/><path d="M5.99 4L6 20h12V4H5.99c.01 0 0 0 0 0zM11 5c.55 0 1 .45 1 1s-.45 1-1 1-1-.45-1-1 .45-1 1-1zM8 5c.55 0 1 .45 1 1s-.45 1-1 1-1-.45-1-1 .45-1 1-1zm4 4c2.76 0 5 2.24 5 5s-2.24 5-5 5-5-2.24-5-5 2.24-5 5-5z" opacity=".3"/><path d="M18 2.01L6 2c-1.11 0-2 .89-2 2v16c0 1.11.89 2 2 2h12c1.11 0 2-.89 2-2V4c0-1.11-.89-1.99-2-1.99zM18 20H6L5.99 4H18v16z"/><circle cx="8" cy="6" r="1"/><circle cx="11" cy="6" r="1"/><path d="M12 19c2.76 0 5-2.24 5-5s-2.24-5-5-5-5 2.24-5 5 2.24 5 5 5zm2.36-7.36c1.3 1.3 1.3 3.42 0 4.72-1.3 1.3-3.42 1.3-4.72 0l4.72-4.72z"/></symbol>
<symbol id="local_library" viewBox="0 0 24 24"><path d="M0 0h24v24H0V0z" fill="none"/><path d="M19 17.13v-6.95c-2.1.38-4.05 1.35-5.64 2.83L12 14.28l-1.36-1.27C9.05 11.53 7.1 10.56 5 10.18v6.95c2.53.34 4.94 1.3 7 2.83 2.07-1.52 4.47-2.49 7-2.83z" opacity=".3"/><circle cx="12" cy="5" opacity=".3" r="2"/><path d="M16 5c0-2.21-1.79-4-4-4S8 2.79 8 5s1.79 4 4 4 4-1.79 4-4zm-6 0c0-1.1.9-2 2-2s2 .9 2 2-.9 2-2 2-2-.9-2-2zM3 19c3.48 0 6.64 1.35 9 3.55 2.36-2.19 5.52-3.55 9-3.55V8c-3.48 0-6.64 1.35-9 3.55C9.64 9.35 6.48 8 3 8v11zm2-8.82c2.1.38 4.05 1.35 5.64 2.83L12 14.28l1.36-1.27c1.59-1.48 3.54-2.45 5.64-2.83v6.95c-2.53.34-4.93 1.3-7 2.82-2.06-1.52-4.47-2.49-7-2.83v-6.94z"/></symbol>
<symbol id="local_mall" viewBox="0 0 24 24"><path d="M0 0h24v24H0V0z" fill="none"/><path d="M5 8v12h14V8H5zm7 6c-2.76 0-5-2.24-5-5h2c0 1.66 1.34 3 3 3s3-1.34 3-3h2c0 2.76-2.24 5-5 5z" opacity=".3"/><path d="M17 6c0-2.76-2.24-5-5-5S7 3.24 7 6H5c-1.1 0-2 .9-2 2v12c0 1.1.9 2 2 2h14c1.1 0 2-.9 2-2V8c0-1.1-.9-2-2-2h-2zm-5-3c1.66 0 3 1.34 3 3H9c0-1.66 1.34-3 3-3zm7 17H5V8h14v12zm-7-8c-1.66 0-3-1.34-3-3H7c0 2.76 2.24 5 5 5s5-2.24 5-5h-2c0 1.66-1.34 3-3 3z"/></symbol>
<symbol id="local_movies" viewBox="0 0 24 24"><path d="M0 0h24v24H0V0z" fill="none"/><path d="M10 5h4v14h-4z" opacity=".3"/><path d="M20 21V3h-2v2h-2V3H8v2H6V3H4v18h2v-2h2v2h8v-2h2v2h2zM8 17H6v-2h2v2zm0-4H6v-2h2v2zm0-4H6V7h2v2zm6 10h-4V5h4v14zm2-12h2v2h-2V7zm0 4h2v2h-2v-2zm0 6v-2h2v2h-2z"/></symbol>
<symbol id="local_offer" viewBox="0 0 24 24"><path d="M0 0h24v24H0V0z" fill="none"/><path d="M11 4H4v7l9 9.01L20 13l-9-9zM6.5 8C5.67 8 5 7.33 5 6.5S5.67 5 6.5 5 8 5.67 8 6.5 7.33 8 6.5 8z" opacity=".3"/><path d="M12.41 2.58C12.05 2.22 11.55 2 11 2H4c-1.1 0-2 .9-2 2v7c0 .55.22 1.05.59 1.42l9 9c.36.36.86.58 1.41.58s1.05-.22 1.41-.59l7-7c.37-.36.59-.86.59-1.41s-.23-1.06-.59-1.42l-9-9zM13 20.01L4 11V4h7v-.01l9 9-7 7.02z"/><circle cx="6.5" cy="6.5" r="1.5"/></symbol>
<symbol id="local_parking" viewBox="0 0 24 24"><path d="M0 0h24v24H0V0z" fill="none"/><path d="M13 3H6v18h4v-6h3c3.31 0 6-2.69 6-6s-2.69-6-6-6zm.2 8H10V7h3.2c1.1 0 2 .9 2 2s-.9 2-2 2z"/></symbol>
<symbol id="local_pharmacy" viewBox="0 0 24 24"><path d="M0 0h24v24H0V0z" fill="none"/><path d="M5.11 19h13.78l-1.79-5.37-.21-.63.21-.63L18.89 7H5.11l1.79 5.37.21.63-.21.63L5.11 19zM8 12h3V9h2v3h3v2h-3v3h-2v-3H8v-2z" opacity=".3"/><path d="M3 21h18v-2l-2-6 2-6V5h-2.64l1.14-3.14L17.15 1l-1.46 4H3v2l2 6-2 6v2zm3.9-8.63L5.11 7h13.78l-1.79 5.37-.21.63.21.63L18.89 19H5.11l1.79-5.37.21-.63-.21-.63zM11 17h2v-3h3v-2h-3V9h-2v3H8v2h3z"/></symbol>
<symbol id="local_phone" viewBox="0 0 24 24"><path d="M0 0h24v24H0V0z" fill="none"/><path d="M19 17.47c-.88-.07-1.75-.22-2.6-.45l-1.19 1.19c1.2.41 2.48.67 3.8.75v-1.49zM6.99 7.59c-.24-.83-.39-1.7-.45-2.59h-1.5c.09 1.32.35 2.59.75 3.8l1.2-1.21z" opacity=".3"/><path d="M3 4c0 9.39 7.61 17 17 17 .55 0 1-.45 1-1v-3.49c0-.55-.45-1-1-1-1.24 0-2.45-.2-3.57-.57-.1-.04-.21-.05-.31-.05-.26 0-.51.1-.71.29l-2.2 2.2c-2.83-1.45-5.15-3.76-6.59-6.59l2.2-2.2c.28-.28.36-.67.25-1.02C8.7 6.45 8.5 5.25 8.5 4c0-.55-.45-1-1-1H4c-.55 0-1 .45-1 1zm13.4 13.02c.85.24 1.72.39 2.6.45v1.49c-1.32-.09-2.59-.35-3.8-.75l1.2-1.19zM6.54 5c.06.89.21 1.76.45 2.59l-1.2 1.2c-.41-1.2-.67-2.47-.76-3.79h1.51z"/></symbol>
<symbol id="local_pizza" viewBox="0 0 24 24"><path d="M0 0h24v24H0V0z" fill="none"/><path d="M5.51 6.36L12 17.92l6.49-11.55C16.68 4.85 14.38 4 12 4s-4.68.85-6.49 2.36zM9 8.5c-.83 0-1.5-.67-1.5-1.5S8.17 5.5 9 5.5s1.5.67 1.5 1.5S9.82 8.5 9 8.5zm4.5 4.5c0 .83-.68 1.5-1.5 1.5-.83 0-1.5-.67-1.5-1.5s.67-1.5 1.5-1.5 1.5.67 1.5 1.5z" opacity=".3"/><path d="M12 2C8.43 2 5.23 3.54 3.01 6L12 22l8.99-16C18.78 3.55 15.57 2 12 2zm0 15.92L5.51 6.36C7.32 4.85 9.62 4 12 4s4.68.85 6.49 2.36L12 17.92zM9 5.5c-.83 0-1.5.67-1.5 1.5S8.17 8.5 9 8.5s1.5-.67 1.5-1.5S9.82 5.5 9 5.5zm1.5 7.5c0 .83.67 1.5 1.5 1.5.82 0 1.5-.67 1.5-1.5s-.68-1.5-1.5-1.5-1.5.67-1.5 1.5z"/></symbol>
<symbol id="local_play" viewBox="0 0 24 24"><path d="M0 0h24v24H0V0z" fill="none"/><path d="M4.01 8.54C5.2 9.23 6 10.52 6 12s-.81 2.77-2 3.46V18h16v-2.54c-1.19-.69-2-1.99-2-3.46s.81-2.77 2-3.46V6H4l.01 2.54zm6.72 1.68L12 7l1.26 3.23 3.47.2-2.69 2.2.89 3.37L12 14.12 9.07 16l.88-3.37-2.69-2.2 3.47-.21z" opacity=".3"/><path d="M20 4H4c-1.1 0-1.99.9-1.99 2v4c1.1 0 1.99.9 1.99 2s-.89 2-2 2v4c0 1.1.9 2 2 2h16c1.1 0 2-.9 2-2v-4c-1.1 0-2-.9-2-2s.9-2 2-2V6c0-1.1-.9-2-2-2zm0 4.54c-1.19.69-2 1.99-2 3.46s.81 2.77 2 3.46V18H4v-2.54c1.19-.69 2-1.99 2-3.46 0-1.48-.8-2.77-1.99-3.46L4 6h16v2.54zM9.07 16L12 14.12 14.93 16l-.89-3.36 2.69-2.2-3.47-.21L12 7l-1.27 3.22-3.47.21 2.69 2.2z"/></symbol>
<symbol id="local_police" viewBox="0 0 24 24"><rect fill="none" height="24" width="24"/><path d="M12,3.19L5,6.3V11c0,4.52,2.98,8.69,7,9.93c4.02-1.23,7-5.41,7-9.93V6.3L12,3.19z M14.5,12.59l0.9,3.88 L12,14.42l-3.4,2.05l0.9-3.87l-3-2.59l3.96-0.34L12,6.02l1.54,3.64L17.5,10L14.5,12.59z" opacity=".3"/><path d="M14.5,12.59l0.9,3.88L12,14.42l-3.4,2.05l0.9-3.87l-3-2.59l3.96-0.34L12,6.02l1.54,3.64L17.5,10L14.5,12.59z M12,3.19 l7,3.11V11c0,4.52-2.98,8.69-7,9.93C7.98,19.69,5,15.52,5,11V6.3L12,3.19 M12,1L3,5v6c0,5.55,3.84,10.74,9,12c5.16-1.26,9-6.45,9-12 V5L12,1L12,1z"/></symbol>
<symbol id="local_post_office" viewBox="0 0 24 24"><path d="M0 0h24v24H0V0z" fill="none"/><path d="M12 11l8-5H4zM4 8v10h16V8l-8 5z" opacity=".3"/><path d="M20 4H4c-1.1 0-2 .9-2 2v12c0 1.1.9 2 2 2h16c1.1 0 2-.9 2-2V6c0-1.1-.9-2-2-2zm0 14H4V8l8 5 8-5v10zm-8-7L4 6h16l-8 5z"/></symbol>
<symbol id="local_printshop" viewBox="0 0 24 24"><path d="M0 0h24v24H0V0z" fill="none"/><path d="M8 5h8v3H8zm11 5H5c-.55 0-1 .45-1 1v4h2v-2h12v2h2v-4c0-.55-.45-1-1-1zm-1 2.5c-.55 0-1-.45-1-1s.45-1 1-1 1 .45 1 1-.45 1-1 1z" opacity=".3"/><path d="M19 8h-1V3H6v5H5c-1.66 0-3 1.34-3 3v6h4v4h12v-4h4v-6c0-1.66-1.34-3-3-3zM8 5h8v3H8V5zm8 14H8v-4h8v4zm4-4h-2v-2H6v2H4v-4c0-.55.45-1 1-1h14c.55 0 1 .45 1 1v4z"/><circle cx="18" cy="11.5" r="1"/></symbol>
<symbol id="local_see" viewBox="0 0 24 24"><path d="M0 0h24v24H0V0z" fill="none"/><path d="M20 6h-4.05l-.59-.65L14.12 4H9.88L8.65 5.35l-.6.65H4v12h16V6zm-8 11c-2.76 0-5-2.24-5-5s2.24-5 5-5 5 2.24 5 5-2.24 5-5 5z" opacity=".3"/><path d="M4 20h16c1.1 0 2-.9 2-2V6c0-1.1-.9-2-2-2h-3.17L15 2H9L7.17 4H4c-1.1 0-2 .9-2 2v12c0 1.1.9 2 2 2zM4 6h4.05l.59-.65L9.88 4h4.24l1.24 1.35.59.65H20v12H4V6zm8 1c-2.76 0-5 2.24-5 5s2.24 5 5 5 5-2.24 5-5-2.24-5-5-5zm0 8.2c-1.77 0-3.2-1.43-3.2-3.2 0-1.77 1.43-3.2 3.2-3.2s3.2 1.43 3.2 3.2c0 1.77-1.43 3.2-3.2 3.2z"/></symbol>
<symbol id="local_shipping" viewBox="0 0 24 24"><path d="M0 0h24v24H0V0z" fill="none"/><path d="M3 15h.78c.55-.61 1.34-1 2.22-1s1.67.39 2.22 1H15V6H3v9z" opacity=".3"/><path d="M17 8V4H3c-1.1 0-2 .9-2 2v11h2c0 1.66 1.34 3 3 3s3-1.34 3-3h6c0 1.66 1.34 3 3 3s3-1.34 3-3h2v-5l-3-4h-3zM6 18c-.55 0-1-.45-1-1s.45-1 1-1 1 .45 1 1-.45 1-1 1zm9-3H8.22c-.55-.61-1.33-1-2.22-1s-1.67.39-2.22 1H3V6h12v9zm3 3c-.55 0-1-.45-1-1s.45-1 1-1 1 .45 1 1-.45 1-1 1zm-1-6V9.5h2.5l1.96 2.5H17z"/></symbol>
<symbol id="local_taxi" viewBox="0 0 24 24"><path d="M0 0h24v24H0V0z" fill="none"/><path d="M5.12 12l-.12.34V17h14v-4.66l-.12-.34H5.12zm2.38 4c-.83 0-1.5-.67-1.5-1.5S6.67 13 7.5 13s1.5.67 1.5 1.5S8.33 16 7.5 16zm9 0c-.83 0-1.5-.67-1.5-1.5s.67-1.5 1.5-1.5 1.5.67 1.5 1.5-.67 1.5-1.5 1.5z" opacity=".3"/><path d="M17.5 5H15V3H9v2H6.5c-.66 0-1.21.42-1.42 1.01L3 12v8c0 .55.45 1 1 1h1c.55 0 1-.45 1-1v-1h12v1c0 .55.45 1 1 1h1c.55 0 1-.45 1-1v-8l-2.08-5.99C18.72 5.42 18.16 5 17.5 5zM6.85 7h10.29l1.04 3H5.81l1.04-3zM19 17H5v-4.66l.12-.34h13.77l.11.34V17z"/><circle cx="7.5" cy="14.5" r="1.5"/><circle cx="16.5" cy="14.5" r="1.5"/></symbol>
<symbol id="map" viewBox="0 0 24 24"><path d="M0 0h24v24H0V0z" fill="none"/><path d="M5 18.31l3-1.16V5.45L5 6.46zm11 .24l3-1.01V5.69l-3 1.17z" opacity=".3"/><path d="M20.5 3l-.16.03L15 5.1 9 3 3.36 4.9c-.21.07-.36.25-.36.48V20.5c0 .28.22.5.5.5l.16-.03L9 18.9l6 2.1 5.64-1.9c.21-.07.36-.25.36-.48V3.5c0-.28-.22-.5-.5-.5zM8 17.15l-3 1.16V6.46l3-1.01v11.7zm6 1.38l-4-1.4V5.47l4 1.4v11.66zm5-.99l-3 1.01V6.86l3-1.16v11.84z"/></symbol>
<symbol id="maps_ugc" viewBox="0 0 24 24"><rect fill="none" fill-rule="evenodd" height="24" width="24" y="0"/><path d="M12,4c4.41,0,8,3.59,8,8s-3.59,8-8,8c-1.18,0-2.34-0.26-3.43-0.78c-0.27-0.13-0.56-0.19-0.86-0.19 c-0.19,0-0.38,0.03-0.56,0.08l-3.2,0.94l0.94-3.2c0.14-0.47,0.1-0.98-0.11-1.42C4.26,14.34,4,13.18,4,12C4,7.59,7.59,4,12,4" fill-opacity=".3"/><g><path d="M12,4c4.41,0,8,3.59,8,8s-3.59,8-8,8c-1.18,0-2.34-0.26-3.43-0.78c-0.27-0.13-0.56-0.19-0.86-0.19 c-0.19,0-0.38,0.03-0.56,0.08l-3.2,0.94l0.94-3.2c0.14-0.47,0.1-0.98-0.11-1.42C4.26,14.34,4,13.18,4,12C4,7.59,7.59,4,12,4 M12,2 C6.48,2,2,6.48,2,12c0,1.54,0.36,2.98,0.97,4.29L1,23l6.71-1.97C9.02,21.64,10.46,22,12,22c5.52,0,10-4.48,10-10 C22,6.48,17.52,2,12,2L12,2z"/></g><polygon fill-rule="evenodd" points="13,8 11,8 11,11 8,11 8,13 11,13 11,16 13,16 13,13 16,13 16,11 13,11"/></symbol>
<symbol id="medical_services" viewBox="0 0 24 24"><g><rect fill="none" height="24" width="24"/></g><g><g><g opacity=".3"><path d="M4,20h16V8H4V20z M8,13h3v-3h2v3h3v2h-3v3h-2v-3H8V13z"/></g><path d="M20,6h-4V4c0-1.1-0.9-2-2-2h-4C8.9,2,8,2.9,8,4v2H4C2.9,6,2,6.9,2,8v12c0,1.1,0.9,2,2,2h16c1.1,0,2-0.9,2-2V8 C22,6.9,21.1,6,20,6z M10,4h4v2h-4V4z M20,20H4V8h16V20z"/><polygon points="11,18 13,18 13,15 16,15 16,13 13,13 13,10 11,10 11,13 8,13 8,15 11,15"/></g></g></symbol>
<symbol id="menu_book" viewBox="0 0 24 24"><g><rect fill="none" height="24" width="24"/></g><g><g/><g><path d="M21,5c-1.11-0.35-2.33-0.5-3.5-0.5c-1.95,0-4.05,0.4-5.5,1.5c-1.45-1.1-3.55-1.5-5.5-1.5S2.45,4.9,1,6v14.65 c0,0.25,0.25,0.5,0.5,0.5c0.1,0,0.15-0.05,0.25-0.05C3.1,20.45,5.05,20,6.5,20c1.95,0,4.05,0.4,5.5,1.5c1.35-0.85,3.8-1.5,5.5-1.5 c1.65,0,3.35,0.3,4.75,1.05c0.1,0.05,0.15,0.05,0.25,0.05c0.25,0,0.5-0.25,0.5-0.5V6C22.4,5.55,21.75,5.25,21,5z M3,18.5V7 c1.1-0.35,2.3-0.5,3.5-0.5c1.34,0,3.13,0.41,4.5,0.99v11.5C9.63,18.41,7.84,18,6.5,18C5.3,18,4.1,18.15,3,18.5z M21,18.5 c-1.1-0.35-2.3-0.5-3.5-0.5c-1.34,0-3.13,0.41-4.5,0.99V7.49c1.37-0.59,3.16-0.99,4.5-0.99c1.2,0,2.4,0.15,3.5,0.5V18.5z"/><path d="M11,7.49C9.63,6.91,7.84,6.5,6.5,6.5C5.3,6.5,4.1,6.65,3,7v11.5C4.1,18.15,5.3,18,6.5,18 c1.34,0,3.13,0.41,4.5,0.99V7.49z" opacity=".3"/></g><g><path d="M17.5,10.5c0.88,0,1.73,0.09,2.5,0.26V9.24C19.21,9.09,18.36,9,17.5,9c-1.28,0-2.46,0.16-3.5,0.47v1.57 C14.99,10.69,16.18,10.5,17.5,10.5z"/><path d="M17.5,13.16c0.88,0,1.73,0.09,2.5,0.26V11.9c-0.79-0.15-1.64-0.24-2.5-0.24c-1.28,0-2.46,0.16-3.5,0.47v1.57 C14.99,13.36,16.18,13.16,17.5,13.16z"/><path d="M17.5,15.83c0.88,0,1.73,0.09,2.5,0.26v-1.52c-0.79-0.15-1.64-0.24-2.5-0.24c-1.28,0-2.46,0.16-3.5,0.47v1.57 C14.99,16.02,16.18,15.83,17.5,15.83z"/></g></g></symbol>
<symbol id="miscellaneous_services" viewBox="0 0 24 24"><g><rect fill="none" height="24" width="24"/></g><g><g><path d="M14.17,13.71l1.4-2.42c0.09-0.15,0.05-0.34-0.08-0.45l-1.48-1.16c0.03-0.22,0.05-0.45,0.05-0.68s-0.02-0.46-0.05-0.69 l1.48-1.16c0.13-0.11,0.17-0.3,0.08-0.45l-1.4-2.42c-0.09-0.15-0.27-0.21-0.43-0.15L12,4.83c-0.36-0.28-0.75-0.51-1.18-0.69 l-0.26-1.85C10.53,2.13,10.38,2,10.21,2h-2.8C7.24,2,7.09,2.13,7.06,2.3L6.8,4.15C6.38,4.33,5.98,4.56,5.62,4.84l-1.74-0.7 c-0.16-0.06-0.34,0-0.43,0.15l-1.4,2.42C1.96,6.86,2,7.05,2.13,7.16l1.48,1.16C3.58,8.54,3.56,8.77,3.56,9s0.02,0.46,0.05,0.69 l-1.48,1.16C2,10.96,1.96,11.15,2.05,11.3l1.4,2.42c0.09,0.15,0.27,0.21,0.43,0.15l1.74-0.7c0.36,0.28,0.75,0.51,1.18,0.69 l0.26,1.85C7.09,15.87,7.24,16,7.41,16h2.8c0.17,0,0.32-0.13,0.35-0.3l0.26-1.85c0.42-0.18,0.82-0.41,1.18-0.69l1.74,0.7 C13.9,13.92,14.08,13.86,14.17,13.71z M8.81,11c-1.1,0-2-0.9-2-2c0-1.1,0.9-2,2-2s2,0.9,2,2C10.81,10.1,9.91,11,8.81,11z"/><path d="M21.92,18.67l-0.96-0.74c0.02-0.14,0.04-0.29,0.04-0.44c0-0.15-0.01-0.3-0.04-0.44l0.95-0.74 c0.08-0.07,0.11-0.19,0.05-0.29l-0.9-1.55c-0.05-0.1-0.17-0.13-0.28-0.1l-1.11,0.45c-0.23-0.18-0.48-0.33-0.76-0.44l-0.17-1.18 C18.73,13.08,18.63,13,18.53,13h-1.79c-0.11,0-0.21,0.08-0.22,0.19l-0.17,1.18c-0.27,0.12-0.53,0.26-0.76,0.44l-1.11-0.45 c-0.1-0.04-0.22,0-0.28,0.1l-0.9,1.55c-0.05,0.1-0.04,0.22,0.05,0.29l0.95,0.74c-0.02,0.14-0.03,0.29-0.03,0.44 c0,0.15,0.01,0.3,0.03,0.44l-0.95,0.74c-0.08,0.07-0.11,0.19-0.05,0.29l0.9,1.55c0.05,0.1,0.17,0.13,0.28,0.1l1.11-0.45 c0.23,0.18,0.48,0.33,0.76,0.44l0.17,1.18c0.02,0.11,0.11,0.19,0.22,0.19h1.79c0.11,0,0.21-0.08,0.22-0.19l0.17-1.18 c0.27-0.12,0.53-0.26,0.75-0.44l1.12,0.45c0.1,0.04,0.22,0,0.28-0.1l0.9-1.55C22.03,18.86,22,18.74,21.92,18.67z M17.63,18.83 c-0.74,0-1.35-0.6-1.35-1.35s0.6-1.35,1.35-1.35s1.35,0.6,1.35,1.35S18.37,18.83,17.63,18.83z"/></g></g></symbol>
<symbol id="money" viewBox="0 0 24 24"><path d="M0 0h24v24H0V0z" fill="none"/><path d="M10 10h1v4h-1zm6 0h1v4h-1zM4 18h16V6H4v12zm10-9c0-.55.45-1 1-1h3c.55 0 1 .45 1 1v6c0 .55-.45 1-1 1h-3c-.55 0-1-.45-1-1V9zM8 9c0-.55.45-1 1-1h3c.55 0 1 .45 1 1v6c0 .55-.45 1-1 1H9c-.55 0-1-.45-1-1V9zM5 8h2v8H5V8z" opacity=".3"/><path d="M15 16h3c.55 0 1-.45 1-1V9c0-.55-.45-1-1-1h-3c-.55 0-1 .45-1 1v6c0 .55.45 1 1 1zm1-6h1v4h-1v-4zm-7 6h3c.55 0 1-.45 1-1V9c0-.55-.45-1-1-1H9c-.55 0-1 .45-1 1v6c0 .55.45 1 1 1zm1-6h1v4h-1v-4zM5 8h2v8H5zM2 4v16h20V4H2zm18 14H4V6h16v12z"/></symbol>
<symbol id="moped" viewBox="0 0 24 24"><g><rect fill="none" height="24" width="24"/></g><g><g><path d="M4,13v1h4v-3H6C4.9,11,4,11.9,4,13z" opacity=".3"/><path d="M19,7c0-1.1-0.9-2-2-2h-3v2h3v2.65L13.52,14H10V9H6c-2.21,0-4,1.79-4,4v3h2c0,1.66,1.34,3,3,3s3-1.34,3-3h4.48L19,10.35V7 z M7,17c-0.55,0-1-0.45-1-1h2C8,16.55,7.55,17,7,17z M8,14H4v-1c0-1.1,0.9-2,2-2h2V14z"/><rect height="2" width="5" x="5" y="6"/><path d="M19,13c-1.66,0-3,1.34-3,3s1.34,3,3,3s3-1.34,3-3S20.66,13,19,13z M19,17c-0.55,0-1-0.45-1-1s0.45-1,1-1s1,0.45,1,1 S19.55,17,19,17z"/></g></g></symbol>
<symbol id="multiple_stop" viewBox="0 0 24 24"><g><rect fill="none" height="24" width="24"/><path d="M17,4l4,4l-4,4V9h-4V7h4V4z M10,7C9.45,7,9,7.45,9,8s0.45,1,1,1s1-0.45,1-1S10.55,7,10,7z M6,7C5.45,7,5,7.45,5,8 s0.45,1,1,1s1-0.45,1-1S6.55,7,6,7z M7,17h4v-2H7v-3l-4,4l4,4V17z M14,17c0.55,0,1-0.45,1-1c0-0.55-0.45-1-1-1s-1,0.45-1,1 C13,16.55,13.45,17,14,17z M18,17c0.55,0,1-0.45,1-1c0-0.55-0.45-1-1-1s-1,0.45-1,1C17,16.55,17.45,17,18,17z"/></g></symbol>
<symbol id="museum" viewBox="0 0 24 24"><g><rect fill="none" height="24" width="24"/></g><g><g><path d="M6,20h12V9H6V20z M8,11h2l2,3l2-3h2v7h-2v-4l-2,3l-2-3v4H8V11z" opacity=".3"/><path d="M22,11V9L12,2L2,9v2h2v9H2v2h20v-2h-2v-9H22z M18,20H6V9h12V20z"/><polygon points="10,14 12,17 14,14 14,18 16,18 16,11 14,11 12,14 10,11 8,11 8,18 10,18"/></g></g></symbol>
<symbol id="my_location" viewBox="0 0 24 24"><path d="M0 0h24v24H0V0z" fill="none"/><path d="M13 3.06V1h-2v2.06C6.83 3.52 3.52 6.83 3.06 11H1v2h2.06c.46 4.17 3.77 7.48 7.94 7.94V23h2v-2.06c4.17-.46 7.48-3.77 7.94-7.94H23v-2h-2.06c-.46-4.17-3.77-7.48-7.94-7.94zM12 19c-3.87 0-7-3.13-7-7s3.13-7 7-7 7 3.13 7 7-3.13 7-7 7z"/><circle cx="12" cy="12" opacity=".3" r="2"/><path d="M12 8c-2.21 0-4 1.79-4 4s1.79 4 4 4 4-1.79 4-4-1.79-4-4-4zm0 6c-1.1 0-2-.9-2-2s.9-2 2-2 2 .9 2 2-.9 2-2 2z"/></symbol>
<symbol id="navigation" viewBox="0 0 24 24"><path d="M0 0h24v24H0V0z" fill="none"/><path d="M7.72 17.7l3.47-1.53.81-.36.81.36 3.47 1.53L12 7.27z" opacity=".3"/><path d="M4.5 20.29l.71.71L12 18l6.79 3 .71-.71L12 2 4.5 20.29zm8.31-4.12l-.81-.36-.81.36-3.47 1.53L12 7.27l4.28 10.43-3.47-1.53z"/></symbol>
<symbol id="near_me" viewBox="0 0 24 24"><path d="M0 0h24v24H0V0z" fill="none"/><path d="M11.39 12.61l.32.83 1.32 3.42 4.24-10.13-10.13 4.24 3.42 1.33z" opacity=".3"/><path d="M3 11.51l6.84 2.65L12.48 21h.98L21 3 3 10.53v.98zm14.27-4.78l-4.24 10.13-1.32-3.42-.32-.83-.82-.32-3.43-1.33 10.13-4.23z"/></symbol>
<symbol id="near_me_disabled" viewBox="0 0 24 24"><rect fill="none" height="24" width="24"/><path d="M16.1,10.44l1.5-4.05l-4.05,1.5L16.1,10.44z M14.57,14.57L9.43,9.43l-2.71,1.01l4.89,1.95l1.95,4.89 L14.57,14.57z" opacity=".3"/><path d="M12,6.34L21,3l-3.34,9l-1.56-1.56l1.5-4.05l-4.05,1.5L12,6.34z M21.19,21.19l-5.07-5.07L14.31,21H12.9l-2.83-7.07L3,11.1 V9.69l4.88-1.81L2.81,2.81l1.41-1.41l18.38,18.38L21.19,21.19z M14.57,14.57L9.43,9.43l-2.71,1.01l4.89,1.95l1.95,4.89L14.57,14.57z"/></symbol>
<symbol id="not_listed_location" viewBox="0 0 24 24"><path d="M0,0h24v24H0V0z" fill="none"/><path d="M18.5,10.2c0,2.57-2.1,5.79-6.16,9.51L12,20.01l-0.34-0.31C7.6,15.99,5.5,12.77,5.5,10.2 c0-3.84,2.82-6.7,6.5-6.7S18.5,6.35,18.5,10.2z" fill-opacity=".3"/><path d="M12.01,16c-0.27,0-0.52-0.1-0.71-0.29c-0.2-0.2-0.29-0.43-0.29-0.71c-0.01-0.55,0.43-0.99,0.98-1c0.01,0,0.01,0,0.02,0 c0.28,0,0.51,0.1,0.71,0.29c0.18,0.19,0.28,0.43,0.28,0.7s-0.1,0.51-0.29,0.71S12.28,16,12.01,16z M11.13,12.34 c0-0.45,0.1-0.84,0.29-1.16c0.19-0.33,0.53-0.7,1-1.12c0.28-0.25,0.48-0.47,0.61-0.66s0.19-0.4,0.19-0.64 c0-0.29-0.11-0.53-0.32-0.74c-0.21-0.2-0.5-0.3-0.85-0.3c-0.37,0-0.74,0.1-0.96,0.3c-0.21,0.2-0.4,0.45-0.4,0.98H9 c0-1.01,0.46-1.73,0.97-2.21C10.53,6.28,11.25,6,12,6c0.59,0,1.11,0.12,1.57,0.35C14.45,6.78,15,7.68,15,8.66 c0,0.49-0.1,0.9-0.31,1.25S14.21,10.62,13.8,11c-0.32,0.3-0.53,0.56-0.65,0.77s-0.18,0.49-0.18,0.81V13h-1.85v-0.66H11.13z M18,10.2 C18,6.57,15.35,4,12,4s-6,2.57-6,6.2c0,2.34,1.95,5.44,6,9.14C16.05,15.64,18,12.54,18,10.2z M12,2c4.2,0,8,3.22,8,8.2 c0,3.32-2.67,7.25-8,11.8c-5.33-4.55-8-8.48-8-11.8C4,5.22,7.8,2,12,2z"/></symbol>
<symbol id="no_meals" viewBox="0 0 24 24"><rect fill="none" height="24" width="24"/><path d="M16,14V6c0-1.76,2.24-4,5-4v16.17l-2-2V14H16z M20.49,23.31L10.02,12.85C9.69,12.94,9.36,13,9,13v9H7v-9c-2.21,0-4-1.79-4-4 V5.83L0.69,3.51L2.1,2.1l19.8,19.8L20.49,23.31z M6.17,9L5,7.83V9H6.17z M9,2H7v2.17l2,2V2z M13,9V2h-2v6.17l1.85,1.85 C12.94,9.69,13,9.36,13,9z"/></symbol>
<symbol id="no_transfer" viewBox="0 0 24 24"><rect fill="none" height="24" width="24"/><path d="M14.83,12H18v3.17L14.83,12z M9.17,12l5,5H6.63l-0.29-0.27 C6.21,16.62,6,16.37,6,16v-4H9.17z M10,14.5c0-0.83-0.67-1.5-1.5-1.5S7,13.67,7,14.5C7,15.33,7.67,16,8.5,16S10,15.33,10,14.5z M7.82,4.99h9.83C17.11,4.46,15.69,4,12,4C9.6,4,8.17,4.2,7.31,4.48L7.82,4.99z" enable-background="new" opacity=".3"/><path d="M8.5,13c0.83,0,1.5,0.67,1.5,1.5S9.33,16,8.5,16S7,15.33,7,14.5S7.67,13,8.5,13z M7.31,4.48C8.17,4.2,9.6,4,12,4 c3.69,0,5.11,0.46,5.66,0.99H7.82l2,2H18V10h-5.17l2,2H18v3.17l1.81,1.81C19.92,16.67,20,16.35,20,16V6c0-3.5-3.58-4-8-4 C9.48,2,7.24,2.16,5.78,2.95L7.31,4.48z M19.78,22.61l-1.64-1.64C18.09,20.98,18.05,21,18,21h-1c-0.55,0-1-0.45-1-1v-1H8v1 c0,0.55-0.45,1-1,1H6c-0.55,0-1-0.45-1-1v-1.78C4.39,17.67,4,16.88,4,16V6.83L1.39,4.22l1.41-1.41l18.38,18.38L19.78,22.61z M6,8.83 V10h1.17L6,8.83z M14.17,17l-5-5H6v4c0,0.37,0.21,0.62,0.34,0.73L6.63,17H8H14.17z"/></symbol>
<symbol id="pedal_bike" viewBox="0 0 24 24"><g><rect fill="none" height="24" width="24"/></g><g><path d="M18.18,10l-1.7-4.68C16.19,4.53,15.44,4,14.6,4H12v2h2.6l1.46,4h-4.81l-0.36-1H12V7H7v2h1.75l1.82,5H9.9 c-0.44-2.23-2.31-3.88-4.65-3.99C2.45,9.87,0,12.2,0,15c0,2.8,2.2,5,5,5c2.46,0,4.45-1.69,4.9-4h4.2c0.44,2.23,2.31,3.88,4.65,3.99 c2.8,0.13,5.25-2.19,5.25-5c0-2.8-2.2-5-5-5H18.18z M7.82,16c-0.4,1.17-1.49,2-2.82,2c-1.68,0-3-1.32-3-3s1.32-3,3-3 c1.33,0,2.42,0.83,2.82,2H5v2H7.82z M14.1,14h-1.4l-0.73-2H15C14.56,12.58,14.24,13.25,14.1,14z M19,18c-1.68,0-3-1.32-3-3 c0-0.93,0.41-1.73,1.05-2.28l0.96,2.64l1.88-0.68l-0.97-2.67c0.03,0,0.06-0.01,0.09-0.01c1.68,0,3,1.32,3,3S20.68,18,19,18z"/></g></symbol>
<symbol id="person_pin" viewBox="0 0 24 24"><path d="M0 0h24v24H0V0z" fill="none"/><path d="M9.83 18l.59.59L12 20.17l1.59-1.59.58-.58H19V4H5v14h4.83zM12 5c1.65 0 3 1.35 3 3s-1.35 3-3 3-3-1.35-3-3 1.35-3 3-3zM6 15.58C6 13.08 9.97 12 12 12s6 1.08 6 3.58V17H6v-1.42z" opacity=".3"/><path d="M9 20l3 3 3-3h4c1.1 0 2-.9 2-2V4c0-1.1-.9-2-2-2H5c-1.11 0-2 .9-2 2v14c0 1.1.89 2 2 2h4zM5 4h14v14h-4.83l-.59.59L12 20.17l-1.59-1.59-.58-.58H5V4zm7 7c1.65 0 3-1.35 3-3s-1.35-3-3-3-3 1.35-3 3 1.35 3 3 3zm0-4c.55 0 1 .45 1 1s-.45 1-1 1-1-.45-1-1 .45-1 1-1zm6 8.58c0-2.5-3.97-3.58-6-3.58s-6 1.08-6 3.58V17h12v-1.42zM8.48 15c.74-.51 2.23-1 3.52-1s2.78.49 3.52 1H8.48z"/></symbol>
<symbol id="person_pin_circle" viewBox="0 0 24 24"><path d="M0,0h24v24H0V0z" fill="none"/><path d="M18.5,10.2c0,2.57-2.1,5.79-6.16,9.51L12,20.01l-0.34-0.31C7.6,15.99,5.5,12.77,5.5,10.2 c0-3.84,2.82-6.7,6.5-6.7S18.5,6.35,18.5,10.2z" fill-opacity=".3"/><path d="M12,11c1.33,0,4,0.67,4,2v0.16C15.03,14.28,13.6,15,12,15s-3.03-0.72-4-1.84V13C8,11.67,10.67,11,12,11z M12,10 c-1.1,0-2-0.9-2-2s0.9-2,2-2s2,0.9,2,2S13.1,10,12,10z M18,10.2C18,6.57,15.35,4,12,4s-6,2.57-6,6.2c0,2.34,1.95,5.44,6,9.14 C16.05,15.64,18,12.54,18,10.2z M12,2c4.2,0,8,3.22,8,8.2c0,3.32-2.67,7.25-8,11.8c-5.33-4.55-8-8.48-8-11.8C4,5.22,7.8,2,12,2z"/></symbol>
<symbol id="pest_control" viewBox="0 0 24 24"><g><rect fill="none" height="24" width="24"/></g><g><g><path d="M12,9c-2.21,0-4,2.24-4,5s1.79,5,4,5s4-2.24,4-5S14.21,9,12,9z M13,17h-2v-6h2V17z" opacity=".3"/><path d="M13.88,7.36C13.62,6.57,12.88,6,12,6s-1.62,0.57-1.88,1.36C10.71,7.13,11.34,7,12,7S13.29,7.13,13.88,7.36z" opacity=".3"/><path d="M21,15v-2h-3.07c-0.05-0.39-0.12-0.77-0.22-1.14l2.58-1.49l-1-1.73L16.92,10c-0.28-0.48-0.62-0.91-0.99-1.29 c0.1-0.56,0.2-1.69-0.58-2.89L17,4.17l-1.41-1.41l-1.72,1.72c-1.68-0.89-3.1-0.33-3.73,0L8.41,2.76L7,4.17l1.65,1.65 c-0.78,1.2-0.68,2.34-0.58,2.89C7.7,9.1,7.36,9.53,7.08,10L4.71,8.63l-1,1.73l2.58,1.49c-0.1,0.37-0.17,0.75-0.22,1.14H3v2h3.07 c0.05,0.39,0.12,0.77,0.22,1.14l-2.58,1.49l1,1.73L7.08,18c1.08,1.81,2.88,3,4.92,3s3.84-1.19,4.92-3l2.37,1.37l1-1.73l-2.58-1.49 c0.1-0.37,0.17-0.75,0.22-1.14H21z M12,6c0.88,0,1.62,0.57,1.88,1.36C13.29,7.13,12.66,7,12,7s-1.29,0.13-1.88,0.36 C10.38,6.57,11.12,6,12,6z M12,19c-2.21,0-4-2.24-4-5s1.79-5,4-5s4,2.24,4,5S14.21,19,12,19z"/><rect height="6" width="2" x="11" y="11"/></g></g></symbol>
<symbol id="pest_control_rodent" viewBox="0 0 24 24"><g><rect fill="none" height="24" width="24"/></g><g><g><path d="M17.65,14.75C17.87,14.38,18,13.96,18,13.5c0-1.38-1.12-2.5-2.5-2.5c-1.3,0-2.5,1.08-2.5,2.5 c0,0.69,0.28,1.32,0.73,1.77l-1.41,1.41C11.5,15.87,11,14.74,11,13.5c0-0.92,0.28-1.76,0.75-2.47c-0.22,0.01-0.44,0.02-0.67,0.07 c-1.48,0.32-2.68,1.53-2.99,3.01c-0.26,1.24,0.02,2.45,0.8,3.41C9.66,18.46,10.79,19,12,19h6.53c0.81,0,1.47-0.66,1.47-1.47 c0-0.41-0.17-0.81-0.48-1.09L17.65,14.75z M17,18c-0.55,0-1-0.45-1-1c0-0.55,0.45-1,1-1s1,0.45,1,1C18,17.55,17.55,18,17,18z" opacity=".3"/><circle cx="17" cy="17" r="1"/><path d="M20.86,14.97l-0.93-0.84c0.48-3.45-2.87-6.04-6.05-4.82C13.3,9.11,12.66,9,12,9c-4.26,0-5.65,3.58-5.89,4.85 C4.89,13.47,4,12.35,4,11c0-1.66,1.34-3,3-3h2.5C10.88,8,12,6.88,12,5.5C12,4.12,10.88,3,9.5,3H8C7.45,3,7,3.45,7,4 c0,0.55,0.45,1,1,1h1.5C9.78,5,10,5.22,10,5.5C10,5.78,9.78,6,9.5,6H7c-2.76,0-5,2.24-5,5c0,2.44,1.76,4.47,4.07,4.91 C6.51,18.79,8.99,21,12,21h6.53C21.64,21,23.23,17.11,20.86,14.97z M18.53,19H12c-1.21,0-2.34-0.54-3.11-1.48 c-0.78-0.95-1.06-2.16-0.8-3.41c0.31-1.48,1.51-2.69,2.99-3.01c0.22-0.05,0.45-0.06,0.67-0.07C11.28,11.74,11,12.58,11,13.5 c0,1.24,0.5,2.37,1.32,3.18l1.41-1.41C13.28,14.82,13,14.19,13,13.5c0-1.42,1.2-2.5,2.5-2.5c1.38,0,2.5,1.12,2.5,2.5 c0,0.46-0.13,0.88-0.35,1.25l1.87,1.7c0.31,0.28,0.48,0.67,0.48,1.09C20,18.34,19.34,19,18.53,19z"/></g></g></symbol>
<symbol id="pin_drop" viewBox="0 0 24 24"><path d="M12,3C9.19,3,6,5.11,6,9.13c0,2.68,2,5.49,6,8.44c4-2.95,6-5.77,6-8.44C18,5.11,14.81,3,12,3z" fill-opacity=".3"/><path d="M0,0h24v24H0V0z" fill="none"/><path d="M12,4c1.93,0,5,1.4,5,5.15c0,2.16-1.72,4.67-5,7.32c-3.28-2.65-5-5.17-5-7.32C7,5.4,10.07,4,12,4 M12,2 C8.73,2,5,4.46,5,9.15c0,3.12,2.33,6.41,7,9.85c4.67-3.44,7-6.73,7-9.85C19,4.46,15.27,2,12,2z"/><path d="M12,7c-1.1,0-2,0.9-2,2s0.9,2,2,2s2-0.9,2-2S13.1,7,12,7z M5,20h14v2H5V20z"/></symbol>
<symbol id="place" viewBox="0 0 24 24"><path d="M18.5,10.2c0,2.57-2.1,5.79-6.16,9.51L12,20.01l-0.34-0.31C7.6,15.99,5.5,12.77,5.5,10.2 c0-3.84,2.82-6.7,6.5-6.7S18.5,6.35,18.5,10.2z" fill-opacity=".3"/><path d="M12,2c4.2,0,8,3.22,8,8.2c0,3.32-2.67,7.25-8,11.8c-5.33-4.55-8-8.48-8-11.8C4,5.22,7.8,2,12,2z M18,10.2 C18,6.57,15.35,4,12,4s-6,2.57-6,6.2c0,2.34,1.95,5.44,6,9.14C16.05,15.64,18,12.54,18,10.2z M12,12c-1.1,0-2-0.9-2-2s0.9-2,2-2 s2,0.9,2,2S13.1,12,12,12z"/><path d="M0,0h24v24H0V0z" fill="none"/></symbol>
<symbol id="plumbing" viewBox="0 0 24 24"><g><rect fill="none" height="24" width="24"/></g><g><g><path d="M19.28,4.93l-2.12-2.12c-0.78-0.78-2.05-0.78-2.83,0L11.5,5.64l2.12,2.12l2.12-2.12l3.54,3.54 C20.45,8,20.45,6.1,19.28,4.93z"/><path d="M5.49,13.77c0.59,0.59,1.54,0.59,2.12,0l2.47-2.47L7.96,9.17l-2.47,2.47C4.9,12.23,4.9,13.18,5.49,13.77L5.49,13.77z"/><path d="M15.04,7.76l-0.71,0.71l-0.71,0.71l-3.18-3.18C9.85,5.4,8.9,5.4,8.32,5.99c-0.59,0.59-0.59,1.54,0,2.12l3.18,3.18 L10.79,12l-6.36,6.36c-0.78,0.78-0.78,2.05,0,2.83c0.78,0.78,2.05,0.78,2.83,0L16.45,12c0.39,0.39,1.02,0.39,1.41,0 c0.39-0.39,0.39-1.02,0-1.41L15.04,7.76z"/></g></g></symbol>
<symbol id="rate_review" viewBox="0 0 24 24"><path d="M0 0h24v24H0V0z" fill="none"/><path d="M4 17.17l.59-.59.58-.58H20V4H4v13.17zM18 14h-7.5l2-2H18v2zM6 11.53l5.88-5.88c.2-.2.51-.2.71 0l1.77 1.77c.2.2.2.51 0 .71L8.47 14H6v-2.47z" opacity=".3"/><path d="M20 2H4c-1.1 0-1.99.9-1.99 2L2 22l4-4h14c1.1 0 2-.9 2-2V4c0-1.1-.9-2-2-2zm0 14H5.17l-.59.59-.58.58V4h16v12zm-9.5-2H18v-2h-5.5zm3.86-5.87c.2-.2.2-.51 0-.71l-1.77-1.77c-.2-.2-.51-.2-.71 0L6 11.53V14h2.47l5.89-5.87z"/></symbol>
<symbol id="restaurant" viewBox="0 0 24 24"><path d="M0 0h24v24H0V0z" fill="none"/><path d="M16 6v8h3v8h2V2c-2.76 0-5 2.24-5 4zm-5 3H9V2H7v7H5V2H3v7c0 2.21 1.79 4 4 4v9h2v-9c2.21 0 4-1.79 4-4V2h-2v7z"/></symbol>
<symbol id="restaurant_menu" viewBox="0 0 24 24"><path d="M0 0h24v24H0V0z" fill="none"/><path d="M8.1 13.34l2.83-2.83L3.91 3.5c-1.56 1.56-1.56 4.09 0 5.66l4.19 4.18zm12.05-3.19c1.91-1.91 2.28-4.65.81-6.12-1.46-1.46-4.2-1.1-6.12.81-1.59 1.59-2.09 3.74-1.38 5.27L3.7 19.87l1.41 1.41L12 14.41l6.88 6.88 1.41-1.41L13.41 13l1.47-1.47c1.53.71 3.68.21 5.27-1.38z"/></symbol>
<symbol id="run_circle" viewBox="0 0 24 24"><g><rect fill="none" height="24" width="24"/></g><g><g><path d="M12,4c-4.42,0-8,3.58-8,8s3.58,8,8,8s8-3.58,8-8S16.42,4,12,4z M13.5,6c0.55,0,1,0.45,1,1 c0,0.55-0.45,1-1,1s-1-0.45-1-1C12.5,6.45,12.95,6,13.5,6z M16,12c-0.7,0-2.01-0.54-2.91-1.76l-0.41,2.35L14,14.03V18h-1v-3.58 l-1.11-1.21l-0.52,2.64L7.6,15.08l0.2-0.98l2.78,0.57l0.96-4.89L10,10.35V12H9V9.65l3.28-1.21c0.49-0.18,1.03,0.06,1.26,0.53 C14.37,10.67,15.59,11,16,11V12z" opacity=".3"/><path d="M12,2C6.48,2,2,6.48,2,12c0,5.52,4.48,10,10,10s10-4.48,10-10C22,6.48,17.52,2,12,2z M12,20c-4.42,0-8-3.58-8-8 s3.58-8,8-8s8,3.58,8,8S16.42,20,12,20z"/><path d="M13.54,8.97c-0.23-0.47-0.76-0.71-1.26-0.53L9,9.65V12h1v-1.65l1.54-0.57l-0.96,4.89L7.8,14.1l-0.2,0.98l3.76,0.77 l0.52-2.64L13,14.42V18h1v-3.97l-1.32-1.44l0.41-2.35C13.99,11.46,15.3,12,16,12v-1C15.59,11,14.37,10.67,13.54,8.97z"/><circle cx="13.5" cy="7" r="1"/></g></g></symbol>
<symbol id="satellite" viewBox="0 0 24 24"><path d="M0 0h24v24H0V0z" fill="none"/><path d="M5 19h14V5H5v14zM6 6h2.57c0 1.42-1.15 2.58-2.57 2.58V6zm0 4.29c2.37 0 4.28-1.93 4.28-4.29H12c0 3.31-2.68 6-6 6v-1.71zm3 2.86l2.14 2.58 3-3.86L18 17H6l3-3.85z" opacity=".3"/><path d="M19 3H5c-1.1 0-2 .9-2 2v14c0 1.1.9 2 2 2h14c1.1 0 2-.9 2-2V5c0-1.1-.9-2-2-2zm0 16H5V5h14v14zM8.57 6H6v2.58c1.42 0 2.57-1.16 2.57-2.58zM12 6h-1.72c0 2.36-1.91 4.29-4.28 4.29V12c3.32 0 6-2.69 6-6zm2.14 5.86l-3 3.87L9 13.15 6 17h12z"/></symbol>
<symbol id="set_meal" viewBox="0 0 24 24"><rect fill="none" height="24" width="24"/><path d="M21,13H3V4h18V13z M20,6c-1.68,0-3.04,0.98-3.21,2.23C16.15,7.5,14.06,5.5,10.25,5.5c-4.67,0-6.75,3-6.75,3 s2.08,3,6.75,3c3.81,0,5.9-2,6.54-2.73C16.96,10.02,18.32,11,20,11V6z" opacity=".3"/><path d="M21.05,17.56L3.08,18.5L3,17l17.98-0.94L21.05,17.56z M21,19.48H3v1.5h18V19.48z M23,13V4c0-1.1-0.9-2-2-2H3 C1.9,2,1,2.9,1,4v9c0,1.1,0.9,2,2,2h18C22.1,15,23,14.1,23,13z M21,13H3V4h18V13z M20,6c-1.68,0-3.04,0.98-3.21,2.23 C16.15,7.5,14.06,5.5,10.25,5.5c-4.67,0-6.75,3-6.75,3s2.08,3,6.75,3c3.81,0,5.9-2,6.54-2.73C16.96,10.02,18.32,11,20,11V6z"/></symbol>
<symbol id="store_mall_directory" viewBox="0 0 24 24"><path d="M0 0h24v24H0V0z" fill="none"/><path d="M5.64 9l-.6 3h13.92l-.6-3z" opacity=".3"/><path d="M4 7l-1 5v2h1v6h10v-6h4v6h2v-6h1v-2l-1-5H4zm8 11H6v-4h6v4zm-6.96-6l.6-3h12.72l.6 3H5.04zM4 4h16v2H4z"/></symbol>
<symbol id="streetview" viewBox="0 0 24 24"><path d="M0 0h24v24H0V0z" fill="none"/><path d="M12.56 14.33c-.34.27-.56.7-.56 1.17V21h7c1.1 0 2-.9 2-2v-5.98c-.94-.33-1.95-.52-3-.52-2.03 0-3.93.7-5.44 1.83z"/><circle cx="18" cy="6" r="5"/><path d="M11.5 6c0-1.08.27-2.1.74-3H5c-1.1 0-2 .9-2 2v14c0 .55.23 1.05.59 1.41l9.82-9.82C12.23 9.42 11.5 7.8 11.5 6z"/></symbol>
<symbol id="subway" viewBox="0 0 24 24"><path d="M0 0h24v24H0V0z" fill="none"/><path d="M10.67 18.5L9.17 20h5.66l-1.5-1.5zm6.4-13.84C15.59 4.08 13.68 4 12 4s-3.59.08-5.07.66C5.01 5.41 4 6.86 4 8.86V20h3.5v-.38l1.15-1.16C7.16 18.29 6 17.04 6 15.5V9c0-2.63 3-3 6-3s6 .37 6 3v6.5c0 1.54-1.16 2.79-2.65 2.96l1.15 1.16V20H20V8.86c0-2-1.01-3.45-2.93-4.2z" opacity=".3"/><path d="M17.8 2.8C16 2.09 13.86 2 12 2s-4 .09-5.8.8C3.53 3.84 2 6.05 2 8.86V22h20V8.86c0-2.81-1.53-5.02-4.2-6.06zM9.17 20l1.5-1.5h2.66l1.5 1.5H9.17zm-2.16-6V9h10v5h-10zm9.49 2c0 .55-.45 1-1 1s-1-.45-1-1 .45-1 1-1 1 .45 1 1zm-8-1c.55 0 1 .45 1 1s-.45 1-1 1-1-.45-1-1 .45-1 1-1zM20 20h-3.5v-.38l-1.15-1.16c1.49-.17 2.65-1.42 2.65-2.96V9c0-2.63-3-3-6-3s-6 .37-6 3v6.5c0 1.54 1.16 2.79 2.65 2.96L7.5 19.62V20H4V8.86c0-2 1.01-3.45 2.93-4.2C8.41 4.08 10.32 4 12 4s3.59.08 5.07.66c1.92.75 2.93 2.2 2.93 4.2V20z"/></symbol>
<symbol id="terrain" viewBox="0 0 24 24"><path d="M0 0h24v24H0V0z" fill="none"/><path d="M5 16h3.04l-1.52-2.03z" opacity=".3"/><path d="M9.78 11.63l1.25 1.67L14 9.33 19 16h-8.46l-4.01-5.37L1 18h22L14 6l-4.22 5.63zM5 16l1.52-2.03L8.04 16H5z"/></symbol>
<symbol id="traffic" viewBox="0 0 24 24"><path d="M0 0h24v24H0V0z" fill="none"/><path d="M9 19h6V5H9v14zm3-13c.83 0 1.5.67 1.5 1.5S12.83 9 12 9s-1.5-.67-1.5-1.5S11.17 6 12 6zm0 4.5c.83 0 1.5.67 1.5 1.5s-.67 1.5-1.5 1.5-1.5-.67-1.5-1.5.67-1.5 1.5-1.5zm0 4.5c.83 0 1.5.67 1.5 1.5S12.83 18 12 18s-1.5-.67-1.5-1.5.67-1.5 1.5-1.5z" opacity=".3"/><path d="M20 5h-3V4c0-.55-.45-1-1-1H8c-.55 0-1 .45-1 1v1H4c0 1.86 1.28 3.41 3 3.86V10H4c0 1.86 1.28 3.41 3 3.86V15H4c0 1.86 1.28 3.41 3 3.86V20c0 .55.45 1 1 1h8c.55 0 1-.45 1-1v-1.14c1.72-.45 3-2 3-3.86h-3v-1.14c1.72-.45 3-2 3-3.86h-3V8.86c1.72-.45 3-2 3-3.86zm-5 14H9V5h6v14zm-3-1c.83 0 1.5-.67 1.5-1.5S12.83 15 12 15s-1.5.67-1.5 1.5.67 1.5 1.5 1.5zm0-4.5c.83 0 1.5-.67 1.5-1.5s-.67-1.5-1.5-1.5-1.5.67-1.5 1.5.67 1.5 1.5 1.5zM12 9c.83 0 1.5-.67 1.5-1.5S12.83 6 12 6s-1.5.67-1.5 1.5S11.17 9 12 9z"/></symbol>
<symbol id="train" viewBox="0 0 24 24"><path d="M0 0h24v24H0V0z" fill="none"/><path d="M12 4c-3.51 0-4.96.48-5.57 1h11.13c-.6-.52-2.05-1-5.56-1zM6 15.5c0 .83.67 1.5 1.5 1.5h9c.83 0 1.5-.67 1.5-1.5V12H6v3.5zm9.5-2.5c.83 0 1.5.67 1.5 1.5s-.67 1.5-1.5 1.5-1.5-.67-1.5-1.5.67-1.5 1.5-1.5zm-7 0c.83 0 1.5.67 1.5 1.5S9.33 16 8.5 16 7 15.33 7 14.5 7.67 13 8.5 13z" opacity=".3"/><circle cx="8.5" cy="14.5" r="1.5"/><circle cx="15.5" cy="14.5" r="1.5"/><path d="M12 2c-4 0-8 .5-8 4v9.5C4 17.43 5.57 19 7.5 19L6 20.5v.5h2l2-2h4l2 2h2v-.5L16.5 19c1.93 0 3.5-1.57 3.5-3.5V6c0-3.5-4-4-8-4zm0 2c3.51 0 4.96.48 5.57 1H6.43c.61-.52 2.06-1 5.57-1zM6 7h5v3H6V7zm12 8.5c0 .83-.67 1.5-1.5 1.5h-9c-.83 0-1.5-.67-1.5-1.5V12h12v3.5zm0-5.5h-5V7h5v3z"/></symbol>
<symbol id="tram" viewBox="0 0 24 24"><path d="M0 0h24v24H0V0z" fill="none"/><path d="M12.97 7h-1.94c-2.75.08-3.62.58-3.9 1h9.74c-.28-.42-1.15-.92-3.9-1zM7 16v1c0 .45.3.84.74.95h3.11c-.22-.26-.35-.59-.35-.95 0-.39.15-.73.39-1H7zm6.5 1c0 .36-.13.69-.35.95h3.11c.44-.11.74-.5.74-.95v-1h-3.89c.24.27.39.61.39 1z" opacity=".3"/><path d="M13 5l.75-1.5H17V2H7v1.5h4.75L11 5c-3.13.09-6 .73-6 3.5V17c0 1.5 1.11 2.73 2.55 2.95L6 21.5v.5h2l2-2h4l2 2h2v-.5l-1.55-1.55h-.01.01C17.89 19.73 19 18.5 19 17V8.5c0-2.77-2.87-3.41-6-3.5zm-1.97 2h1.94c2.75.08 3.62.58 3.9 1H7.13c.28-.42 1.15-.92 3.9-1zm-.18 10.95H7.74C7.3 17.84 7 17.45 7 17v-1h3.89c-.24.27-.39.61-.39 1 0 .36.13.69.35.95zM17 17c0 .45-.3.84-.74.95h-3.11c.22-.26.35-.59.35-.95 0-.39-.15-.73-.39-1H17v1zm0-3H7v-4h10v4z"/></symbol>
<symbol id="transfer_within_a_station" viewBox="0 0 24 24"><path d="M0 0h24v24H0V0z" fill="none"/><path d="M16.49 13.75L14 16.25l2.49 2.5V17H22v-1.5h-5.51zm3.02 6H14v1.5h5.51V23L22 20.5 19.51 18zM7.5 3.5c0 1.1.9 2 2 2s2-.9 2-2-.9-2-2-2-2 .9-2 2zm2.05 6.9C10.85 12 12.8 13 15 13v-2c-1.85 0-3.45-1-4.35-2.45l-.95-1.6C9.35 6.35 8.7 6 8 6c-.25 0-.5.05-.75.15L2 8.3V13h2V9.65l1.75-.75L3 23h2.1l1.75-8L9 17v6h2v-7.55L8.95 13.4l.6-3z"/></symbol>
<symbol id="transit_enterexit" viewBox="0 0 24 24"><path d="M0 0h24v24H0V0z" fill="none"/><path d="M15.98 6L9 12.77V8H6v10h10v-3h-4.85L18 8.03z"/></symbol>
<symbol id="trip_origin" viewBox="0 0 24 24"><path d="M0 0h24v24H0V0z" fill="none"/><path d="M12 2C6.48 2 2 6.48 2 12s4.48 10 10 10 10-4.48 10-10S17.52 2 12 2zm0 16c-3.31 0-6-2.69-6-6s2.69-6 6-6 6 2.69 6 6-2.69 6-6 6z"/></symbol>
<symbol id="two_wheeler" viewBox="0 0 24 24"><g><rect fill="none" fill-rule="evenodd" height="24" width="24" x="0" y="0"/><path d="M4.17,11L4.17,11C4.12,11,4.06,11,4,11H4.17 M13.41,5H9v2h3.59l2,2H11l-4,2L5,9H0v2h4c-2.21,0-4,1.79-4,4 c0,2.21,1.79,4,4,4c2.21,0,4-1.79,4-4l2,2h3l3.49-6.1l1.01,1.01C16.59,12.64,16,13.75,16,15c0,2.21,1.79,4,4,4c2.21,0,4-1.79,4-4 c0-2.21-1.79-4-4-4c-0.18,0-0.36,0.03-0.53,0.05L17.41,9H20V6l-3.72,1.86L13.41,5L13.41,5z M20,17c-1.1,0-2-0.9-2-2 c0-1.1,0.9-2,2-2c1.1,0,2,0.9,2,2C22,16.1,21.1,17,20,17L20,17z M4,17c-1.1,0-2-0.9-2-2c0-1.1,0.9-2,2-2c1.1,0,2,0.9,2,2 C6,16.1,5.1,17,4,17L4,17z"/></g></symbol>
<symbol id="wine_bar" viewBox="0 0 24 24"><rect fill="none" height="24" width="24"/><path d="M12,13c-1.86,0-3.41-1.28-3.86-3h7.72C15.41,11.72,13.86,13,12,13z" opacity=".3"/><path d="M6,3l0,6c0,2.97,2.16,5.43,5,5.91V19H8v2h8v-2h-3v-4.09c2.84-0.48,5-2.94,5-5.91V3H6z M12,13c-1.86,0-3.41-1.28-3.86-3h7.72 C15.41,11.72,13.86,13,12,13z M16,8H8l0-3h8L16,8z"/></symbol>
<symbol id="wrong_location" viewBox="0 0 24 24"><g><rect fill="none" height="24" width="24"/></g><g><g><path d="M18,11c0,0.07,0,0.13,0,0.2c0,2.34-1.95,5.44-6,9.14c-4.05-3.7-6-6.79-6-9.14C6,7.57,8.65,5,12,5c0.34,0,0.68,0.03,1,0.08 V3.06C12.67,3.02,12.34,3,12,3c-4.2,0-8,3.22-8,8.2c0,3.32,2.67,7.25,8,11.8c5.33-4.55,8-8.48,8-11.8c0-0.07,0-0.13,0-0.2H18z"/><circle cx="12" cy="11" r="2"/><polygon points="22.54,2.88 21.12,1.46 19,3.59 16.88,1.46 15.46,2.88 17.59,5 15.46,7.12 16.88,8.54 19,6.41 21.12,8.54 22.54,7.12 20.41,5"/></g></g></symbol>
<symbol id="zoom_out_map" viewBox="0 0 24 24"><path d="M0 0h24v24H0V0z" fill="none"/><path d="M17.3 5.3l-2.89 2.87 1.42 1.42L18.7 6.7 21 9V3h-6zM9 3H3v6l2.3-2.3 2.87 2.89 1.42-1.42L6.7 5.3zm-.83 11.41L5.3 17.3 3 15v6h6l-2.3-2.3 2.89-2.87zm7.66 0l-1.42 1.42 2.89 2.87L15 21h6v-6l-2.3 2.3z"/></symbol>
</svg>