<svg xmlns="http://www.w3.org/2000/svg">
<symbol id="account_tree" viewBox="0 0 24 24"><rect fill="none" height="24" width="24"/><g><path d="M22,11V3h-7v3H9V3H2v8h7V8h2v10h4v3h7v-8h-7v3h-2V8h2v3H22z M7,9H4V5h3V9z M17,15h3v4h-3V15z M17,5h3v4h-3V5z"/><polyline opacity=".3" points="7,5 7,9 4,9 4,5 7,5"/><polyline opacity=".3" points="20,5 20,9 17,9 17,5 20,5"/><polyline opacity=".3" points="20,15 20,19 17,19 17,15 20,15"/></g></symbol>
<symbol id="adb" viewBox="0 0 24 24"><path d="M0 0h24v24H0V0z" fill="none"/><path d="M5 16c0 3.87 3.13 7 7 7s7-3.13 7-7v-4H5v4zM16.12 4.37l2.1-2.1-.82-.83-2.3 2.31C14.16 3.28 13.12 3 12 3s-2.16.28-3.09.75L6.6 1.44l-.82.83 2.1 2.1C6.14 5.64 5 7.68 5 10v1h14v-1c0-2.32-1.14-4.36-2.88-5.63zM9 9c-.55 0-1-.45-1-1s.45-1 1-1 1 .45 1 1-.45 1-1 1zm6 0c-.55 0-1-.45-1-1s.45-1 1-1 1 .45 1 1-.45 1-1 1z"/></symbol>
<symbol id="airline_seat_flat" viewBox="0 0 24 24"><path d="M0 0h24v24H0V0z" fill="none"/><path d="M5 11c.27 0 .52-.11.71-.3.39-.4.39-1.02-.01-1.41C5.51 9.11 5.26 9 5 9c-.27 0-.52.11-.71.3-.39.4-.39 1.02.01 1.41.19.18.44.29.7.29zm13-2h-7v2h9c0-1.1-.9-2-2-2z" opacity=".3"/><path d="M5 13c.78 0 1.55-.3 2.14-.9 1.16-1.19 1.14-3.08-.04-4.24C6.51 7.29 5.75 7 5 7c-.78 0-1.55.3-2.14.9-1.16 1.19-1.14 3.08.04 4.24.59.57 1.35.86 2.1.86zm-.71-3.7c.19-.19.44-.3.71-.3.26 0 .51.1.7.28.4.39.4 1.01.02 1.41-.2.2-.45.31-.72.31-.26 0-.51-.1-.7-.28-.4-.4-.4-1.02-.01-1.42zM18 7H9v6h13v-2c0-2.21-1.79-4-4-4zm-7 4V9h7c1.1 0 2 .9 2 2h-9zm-9 5h6v2h8v-2h6v-2H2z"/></symbol>
<symbol id="airline_seat_flat_angled" viewBox="0 0 24 24"><path d="M0 0h24v24H0V0z" fill="none"/><path d="M14 16.64l-4-1.45V17h4zM6 8.5c.15 0 .3-.03.44-.1.49-.24.7-.84.46-1.34-.19-.41-.59-.56-.9-.56-.15 0-.3.03-.44.1-.32.16-.45.42-.5.56-.05.15-.12.44.04.77.2.42.59.57.9.57zm13.16 2.52l-6.69-2.41-.7 1.91 8.59 3.11.01-.02c.19-.51.17-1.05-.06-1.53-.23-.5-.63-.87-1.15-1.06z" opacity=".3"/><path d="M1.5 12.14L8 14.48V19h8v-1.63L20.52 19l.69-1.89-19.02-6.86-.69 1.89zm8.5 3.05l4 1.44V17h-4v-1.81zm9.84-6.05l-8.56-3.09-2.08 5.66 12.36 4.47.69-1.89c.77-2.09-.31-4.39-2.41-5.15zm.53 4.46l-.01.02-8.59-3.11.7-1.91 6.69 2.41c.52.19.93.56 1.15 1.05.23.49.25 1.04.06 1.54zM6 10.5c.44 0 .88-.1 1.3-.3 1.49-.72 2.12-2.51 1.41-4C8.19 5.13 7.12 4.5 6 4.5c-.44 0-.88.1-1.3.3-1.49.71-2.12 2.5-1.4 4 .51 1.07 1.58 1.7 2.7 1.7zm-.94-3.34c.05-.14.18-.4.51-.56.14-.06.28-.1.43-.1.31 0 .7.15.9.56.24.5.02 1.1-.47 1.34-.14.06-.28.1-.43.1-.3 0-.7-.15-.89-.56-.17-.34-.1-.63-.05-.78z"/></symbol>
<symbol id="airline_seat_individual_suite" viewBox="0 0 24 24"><path d="M0 0h24v24H0V0z" fill="none"/><circle cx="7" cy="11" opacity=".3" r="1"/><path d="M19 9h-6v6h8v-4c0-1.1-.9-2-2-2z" opacity=".3"/><path d="M7 14c1.66 0 3-1.34 3-3S8.66 8 7 8s-3 1.34-3 3 1.34 3 3 3zm0-4c.55 0 1 .45 1 1s-.45 1-1 1-1-.45-1-1 .45-1 1-1zm12-3h-8v8H3V7H1v10h22v-6c0-2.21-1.79-4-4-4zm2 8h-8V9h6c1.1 0 2 .9 2 2v4z"/></symbol>
<symbol id="airline_seat_legroom_extra" viewBox="0 0 24 24"><path d="M0 0h24v24H0V0z" fill="none"/><path d="M4 12V3H2v9c0 2.76 2.24 5 5 5h6v-2H7c-1.66 0-3-1.34-3-3zm18.83 5.24c-.38-.72-1.29-.97-2.03-.63l-1.09.5-3.41-6.98C15.96 9.45 15.27 9 14.51 9H11V3H5v8c0 1.66 1.34 3 3 3h7l3.41 7 3.72-1.7c.77-.36 1.1-1.3.7-2.06z"/></symbol>
<symbol id="airline_seat_legroom_normal" viewBox="0 0 24 24"><path d="M0 0h24v24H0V0z" fill="none"/><path d="M5 12V3H3v9c0 2.76 2.24 5 5 5h6v-2H8c-1.66 0-3-1.34-3-3zm15.5 6H19v-7c0-1.1-.9-2-2-2h-5V3H6v8c0 1.65 1.35 3 3 3h7v7h4.5c.83 0 1.5-.67 1.5-1.5s-.67-1.5-1.5-1.5z"/></symbol>
<symbol id="airline_seat_legroom_reduced" viewBox="0 0 24 24"><path d="M0 0h24v24H0V0z" fill="none"/><path d="M19.97 19.2c.18.96-.55 1.8-1.47 1.8H14v-3l1-4H9c-1.65 0-3-1.35-3-3V3h6v6h5c1.1 0 2 .9 2 2l-2 7h1.44c.73 0 1.39.49 1.53 1.2zM5 12V3H3v9c0 2.76 2.24 5 5 5h4v-2H8c-1.66 0-3-1.34-3-3z"/></symbol>
<symbol id="airline_seat_recline_extra" viewBox="0 0 24 24"><path d="M0 0h24v24H0V0z" fill="none"/><path d="M5.35 5.64c-.9-.64-1.12-1.88-.49-2.79.63-.9 1.88-1.12 2.79-.49.9.64 1.12 1.88.49 2.79-.64.9-1.88 1.12-2.79.49zM16 19H8.93c-1.48 0-2.74-1.08-2.96-2.54L4 7H2l1.99 9.76C4.37 19.2 6.47 21 8.94 21H16v-2zm.23-4h-4.88l-1.03-4.1c1.58.89 3.28 1.54 5.15 1.22V9.99c-1.63.31-3.44-.27-4.69-1.25L9.14 7.47c-.23-.18-.49-.3-.76-.38-.32-.09-.66-.12-.99-.06h-.02c-1.23.22-2.05 1.39-1.84 2.61l1.35 5.92C7.16 16.98 8.39 18 9.83 18h6.85l3.82 3 1.5-1.5-5.77-4.5z"/></symbol>
<symbol id="airline_seat_recline_normal" viewBox="0 0 24 24"><path d="M0 0h24v24H0V0z" fill="none"/><path d="M7.59 5.41c-.78-.78-.78-2.05 0-2.83s2.05-.78 2.83 0 .78 2.05 0 2.83c-.79.79-2.05.79-2.83 0zM6 16V7H4v9c0 2.76 2.24 5 5 5h6v-2H9c-1.66 0-3-1.34-3-3zm14 4.07L14.93 15H11.5v-3.68c1.4 1.15 3.6 2.16 5.5 2.16v-2.16c-1.66.02-3.61-.87-4.67-2.04l-1.4-1.55c-.19-.21-.43-.38-.69-.5-.29-.14-.62-.23-.96-.23h-.03C8.01 7 7 8.01 7 9.25V15c0 1.66 1.34 3 3 3h5.07l3.5 3.5L20 20.07z"/></symbol>
<symbol id="bluetooth_audio" viewBox="0 0 24 24"><path d="M0 0h24v24H0V0z" fill="none"/><path d="M14.24 12.01l2.32 2.32c.28-.72.44-1.51.44-2.33s-.16-1.59-.43-2.31l-2.33 2.32zm5.29-5.3l-1.26 1.26c.63 1.21.98 2.57.98 4.02s-.36 2.82-.98 4.02l1.2 1.2c.97-1.54 1.54-3.36 1.54-5.31-.01-1.89-.55-3.67-1.48-5.19zm-3.82 1L10 2H9v7.59L4.41 5 3 6.41 8.59 12 3 17.59 4.41 19 9 14.41V22h1l5.71-5.71-4.3-4.29 4.3-4.29zM11 5.83l1.88 1.88L11 9.59V5.83zm1.88 10.46L11 18.17v-3.76l1.88 1.88z"/></symbol>
<symbol id="confirmation_number" viewBox="0 0 24 24"><path d="M0 0h24v24H0z" fill="none"/><path d="M4.01 8.54C5.2 9.23 6 10.52 6 12s-.81 2.77-2 3.46V18h16v-2.54c-1.19-.69-2-1.99-2-3.46s.81-2.77 2-3.46V6H4l.01 2.54zM11 7h2v2h-2V7zm0 4h2v2h-2v-2zm0 4h2v2h-2v-2z" opacity=".3"/><path d="M22 10V6c0-1.11-.9-2-2-2H4c-1.1 0-1.99.89-1.99 2v4c1.1 0 1.99.9 1.99 2s-.89 2-2 2v4c0 1.1.9 2 2 2h16c1.1 0 2-.9 2-2v-4c-1.1 0-2-.9-2-2s.9-2 2-2zm-2-1.46c-1.19.69-2 1.99-2 3.46s.81 2.77 2 3.46V18H4v-2.54c1.19-.69 2-1.99 2-3.46 0-1.48-.8-2.77-1.99-3.46L4 6h16v2.54zM11 15h2v2h-2zm0-4h2v2h-2zm0-4h2v2h-2z"/></symbol>
<symbol id="directions_off" viewBox="0 0 24 24"><g><rect fill="none" height="24" width="24"/></g><g><g><path d="M21.71,11.29l-9-9c-0.39-0.39-1.02-0.39-1.41,0L8.21,5.38l1.41,1.41L12,4.42L19.58,12l-2.38,2.38l1.41,1.41l3.09-3.09 C22.1,12.33,22.1,11.7,21.71,11.29z"/><polygon points="13,7.5 13,10.17 15.17,12.34 16.5,11"/><path d="M1.39,4.22l3.99,3.99l-3.09,3.09c-0.39,0.39-0.39,1.02,0,1.41l9,9c0.39,0.39,1.02,0.39,1.41,0l3.09-3.09l3.99,3.99 l1.41-1.41L2.81,2.81L1.39,4.22z M8.03,10.85C8.02,10.9,7.99,10.95,7.99,11v4h2v-2.18l4.38,4.38L12,19.58L4.42,12l2.38-2.38 L8.03,10.85z"/></g></g></symbol>
<symbol id="disc_full" viewBox="0 0 24 24"><path d="M0 0h24v24H0V0z" fill="none"/><path d="M10 6c-3.31 0-6 2.69-6 6s2.69 6 6 6 6-2.69 6-6-2.69-6-6-6zm0 8c-1.1 0-2-.9-2-2s.9-2 2-2 2 .9 2 2-.9 2-2 2z" opacity=".3"/><path d="M20 14h2v2h-2zM10 4c-4.42 0-8 3.58-8 8s3.58 8 8 8 8-3.58 8-8-3.58-8-8-8zm0 14c-3.31 0-6-2.69-6-6s2.69-6 6-6 6 2.69 6 6-2.69 6-6 6zM20 7h2v5h-2zm-10 3c-1.1 0-2 .9-2 2s.9 2 2 2 2-.9 2-2-.9-2-2-2z"/></symbol>
<symbol id="do_disturb" viewBox="0 0 24 24"><path d="M0 0h24v24H0V0z" fill="none"/><path d="M12 2C6.48 2 2 6.48 2 12s4.48 10 10 10 10-4.48 10-10S17.52 2 12 2zm0 18c-4.42 0-8-3.58-8-8 0-1.85.63-3.55 1.69-4.9L16.9 18.31C15.55 19.37 13.85 20 12 20zm6.31-3.1L7.1 5.69C8.45 4.63 10.15 4 12 4c4.42 0 8 3.58 8 8 0 1.85-.63 3.55-1.69 4.9z"/></symbol>
<symbol id="do_disturb_alt" viewBox="0 0 24 24"><path d="M0 0h24v24H0z" fill="none"/><path d="M12 2C6.5 2 2 6.5 2 12s4.5 10 10 10 10-4.5 10-10S17.5 2 12 2zM4 12c0-4.4 3.6-8 8-8 1.8 0 3.5.6 4.9 1.7L5.7 16.9C4.6 15.5 4 13.8 4 12zm8 8c-1.8 0-3.5-.6-4.9-1.7L18.3 7.1C19.4 8.5 20 10.2 20 12c0 4.4-3.6 8-8 8z"/></symbol>
<symbol id="do_disturb_off" viewBox="0 0 24 24"><path d="M0 0h24v24H0V0z" fill="none"/><path d="M12 4c-1.41 0-2.73.37-3.88 1.01l6 5.99H17v2h-.88L19 15.88c.63-1.15 1-2.47 1-3.88 0-4.41-3.59-8-8-8zm0 16c1.56 0 3-.45 4.23-1.23L10.46 13H7v-2h1.46L5.23 7.77C4.45 9 4 10.44 4 12c0 4.41 3.59 8 8 8z" opacity=".3"/><path d="M12 4c4.41 0 8 3.59 8 8 0 1.41-.37 2.73-1.01 3.88l1.46 1.46C21.43 15.79 22 13.96 22 12c0-5.52-4.48-10-10-10-1.96 0-3.79.57-5.33 1.55l1.46 1.46C9.27 4.37 10.59 4 12 4zm5 7h-2.88l2 2H17zM2.41 2.13L1 3.54l2.78 2.78C2.66 7.93 2 9.89 2 12c0 5.52 4.48 10 10 10 2.11 0 4.07-.66 5.68-1.78L20.46 23l1.41-1.41L2.41 2.13zM12 20c-4.41 0-8-3.59-8-8 0-1.56.45-3 1.23-4.23L8.46 11H7v2h3.46l5.77 5.77C15 19.55 13.56 20 12 20z"/></symbol>
<symbol id="do_disturb_on" viewBox="0 0 24 24"><path d="M0 0h24v24H0V0z" fill="none"/><path d="M12 4c-4.41 0-8 3.59-8 8s3.59 8 8 8 8-3.59 8-8-3.59-8-8-8zm5 9H7v-2h10v2z" opacity=".3"/><path d="M12 2C6.48 2 2 6.48 2 12s4.48 10 10 10 10-4.48 10-10S17.52 2 12 2zm0 18c-4.41 0-8-3.59-8-8s3.59-8 8-8 8 3.59 8 8-3.59 8-8 8zm-5-9h10v2H7z"/></symbol>
<symbol id="drive_eta" viewBox="0 0 24 24"><path d="M0 0h24v24H0V0z" fill="none"/><path d="M5.12 11l-.12.34V16h14v-4.66l-.12-.34H5.12zm2.38 4c-.83 0-1.5-.67-1.5-1.5S6.67 12 7.5 12s1.5.67 1.5 1.5S8.33 15 7.5 15zm9 0c-.83 0-1.5-.67-1.5-1.5s.67-1.5 1.5-1.5 1.5.67 1.5 1.5-.67 1.5-1.5 1.5z" opacity=".3"/><path d="M18.92 5.01C18.72 4.42 18.16 4 17.5 4h-11c-.66 0-1.21.42-1.42 1.01L3 11v8c0 .55.45 1 1 1h1c.55 0 1-.45 1-1v-1h12v1c0 .55.45 1 1 1h1c.55 0 1-.45 1-1v-8l-2.08-5.99zM6.85 6h10.29l1.04 3H5.81l1.04-3zM19 16H5v-4.66l.12-.34h13.77l.11.34V16z"/><circle cx="7.5" cy="13.5" r="1.5"/><circle cx="16.5" cy="13.5" r="1.5"/></symbol>
<symbol id="enhanced_encryption" viewBox="0 0 24 24"><path d="M0 0h24v24H0V0zm0 0h24v24H0V0z" fill="none"/><path d="M6 20h12V10H6v10zm2-6h3v-3h2v3h3v2h-3v3h-2v-3H8v-2z" opacity=".3"/><path d="M18 8h-1V6c0-2.76-2.24-5-5-5S7 3.24 7 6v2H6c-1.1 0-2 .9-2 2v10c0 1.1.9 2 2 2h12c1.1 0 2-.9 2-2V10c0-1.1-.9-2-2-2zM8.9 6c0-1.71 1.39-3.1 3.1-3.1 1.71 0 3.1 1.39 3.1 3.1v2H8.9V6zM18 20H6V10h12v10zm-7-1h2v-3h3v-2h-3v-3h-2v3H8v2h3z"/></symbol>
<symbol id="event_available" viewBox="0 0 24 24"><path d="M0 0h24v24H0V0z" fill="none"/><path d="M5 5h14v2H5z" opacity=".3"/><path d="M19 3h-1V1h-2v2H8V1H6v2H5c-1.1 0-2 .9-2 2v14c0 1.1.9 2 2 2h14c1.1 0 2-.9 2-2V5c0-1.1-.9-2-2-2zm0 16H5V9h14v10zm0-12H5V5h14v2zm-2.51 4.53l-1.06-1.06-4.87 4.87-2.11-2.11-1.06 1.06 3.17 3.17z"/></symbol>
<symbol id="event_busy" viewBox="0 0 24 24"><path d="M0 0h24v24H0V0z" fill="none"/><path d="M5 5h14v2H5z" opacity=".3"/><path d="M19 3h-1V1h-2v2H8V1H6v2H5c-1.1 0-2 .9-2 2v14c0 1.1.9 2 2 2h14c1.1 0 2-.9 2-2V5c0-1.1-.9-2-2-2zm0 16H5V9h14v10zm0-12H5V5h14v2zM9.29 17.47l2.44-2.44 2.44 2.44 1.06-1.06-2.44-2.44 2.44-2.44-1.06-1.06-2.44 2.44-2.44-2.44-1.06 1.06 2.44 2.44-2.44 2.44z"/></symbol>
<symbol id="event_note" viewBox="0 0 24 24"><path d="M0 0h24v24H0V0z" fill="none"/><path d="M5 5h14v2H5z" opacity=".3"/><path d="M19 3h-1V1h-2v2H8V1H6v2H5c-1.1 0-2 .9-2 2v14c0 1.1.9 2 2 2h14c1.1 0 2-.9 2-2V5c0-1.1-.9-2-2-2zm0 16H5V9h14v10zm0-12H5V5h14v2zM7 11h10v2H7zm0 4h7v2H7z"/></symbol>
<symbol id="folder_special" viewBox="0 0 24 24"><path d="M0 0h24v24H0V0z" fill="none"/><path d="M11.17 8l-2-2H4v12h16V8h-8.83zM15 9l1.19 2.79 3.03.26-2.3 1.99.69 2.96L15 15.47 12.39 17l.69-2.96-2.3-1.99 3.03-.26L15 9z" opacity=".3"/><path d="M20 6h-8l-2-2H4c-1.1 0-2 .9-2 2v12c0 1.1.9 2 2 2h16c1.1 0 2-.9 2-2V8c0-1.1-.9-2-2-2zm0 12H4V6h5.17l2 2H20v10zm-6.92-3.96L12.39 17 15 15.47 17.61 17l-.69-2.96 2.3-1.99-3.03-.26L15 9l-1.19 2.79-3.03.26z"/></symbol>
<symbol id="live_tv" viewBox="0 0 24 24"><path d="M0 0h24v24H0V0z" fill="none"/><path d="M3 20h18V8H3v12zm6-10l7 4-7 4v-8z" opacity=".3"/><path d="M9 10v8l7-4zm12-4h-7.58l3.29-3.29L16 2l-4 4h-.03l-4-4-.69.71L10.56 6H3c-1.1 0-2 .9-2 2v12c0 1.1.9 2 2 2h18c1.1 0 2-.9 2-2V8c0-1.1-.9-2-2-2zm0 14H3V8h18v12z"/></symbol>
<symbol id="mms" viewBox="0 0 24 24"><path d="M0 0h24v24H0V0z" fill="none"/><path d="M4 17.17L5.17 16H20V4H4v13.17zM8.5 9.5l2.5 3.01L14.5 8l4.5 6H5l3.5-4.5z" opacity=".3"/><path d="M20 2H4c-1.1 0-2 .9-2 2v18l4-4h14c1.1 0 2-.9 2-2V4c0-1.1-.9-2-2-2zm0 14H5.17L4 17.17V4h16v12zm-5.5-8L11 12.51 8.5 9.5 5 14h14z"/></symbol>
<symbol id="more" viewBox="0 0 24 24"><path d="M0 0h24v24H0V0z" fill="none"/><path d="M7.06 5L2.4 12l4.67 7H22V5H7.06c.01 0 .01 0 0 0zM19 10.5c.83 0 1.5.67 1.5 1.5s-.67 1.5-1.5 1.5-1.5-.67-1.5-1.5.67-1.5 1.5-1.5zm-5 0c.83 0 1.5.67 1.5 1.5s-.67 1.5-1.5 1.5-1.5-.67-1.5-1.5.67-1.5 1.5-1.5zm-5 0c.83 0 1.5.67 1.5 1.5s-.67 1.5-1.5 1.5-1.5-.67-1.5-1.5.67-1.5 1.5-1.5z" opacity=".3"/><path d="M22 3H7c-.69 0-1.23.35-1.59.88L0 12l5.41 8.11c.36.53.97.89 1.66.89H22c1.1 0 2-.9 2-2V5c0-1.1-.9-2-2-2zm0 16H7.07L2.4 12l4.66-7H22v14z"/><circle cx="9" cy="12" r="1.5"/><circle cx="14" cy="12" r="1.5"/><circle cx="19" cy="12" r="1.5"/></symbol>
<symbol id="network_check" viewBox="0 0 24 24"><path d="M0 0h24v24H0V0z" fill="none"/><path d="M15.9 5c-.17 0-.32.09-.41.23l-.07.15-5.18 11.65c-.16.29-.26.61-.26.96 0 1.11.9 2.01 2.01 2.01.96 0 1.77-.68 1.96-1.59l.01-.03L16.4 5.5c0-.28-.22-.5-.5-.5zM1 9l2 2c2.88-2.88 6.79-4.08 10.53-3.62l1.19-2.68C9.89 3.84 4.74 5.27 1 9zm20 2l2-2c-1.64-1.64-3.55-2.82-5.59-3.57l-.53 2.82c1.5.62 2.9 1.53 4.12 2.75zm-4 4l2-2c-.8-.8-1.7-1.42-2.66-1.89l-.55 2.92c.42.27.83.59 1.21.97zM5 13l2 2c1.13-1.13 2.56-1.79 4.03-2l1.28-2.88c-2.63-.08-5.3.87-7.31 2.88z"/></symbol>
<symbol id="network_locked" viewBox="0 0 24 24"><path d="M0 0h24v24H0V0zm0 0h24v24H0V0z" fill="none"/><path d="M22 16v-.5c0-1.38-1.12-2.5-2.5-2.5S17 14.12 17 15.5v.5c-.55 0-1 .45-1 1v4c0 .55.45 1 1 1h5c.55 0 1-.45 1-1v-4c0-.55-.45-1-1-1zm-1 0h-3v-.5c0-.83.67-1.5 1.5-1.5s1.5.67 1.5 1.5v.5zM18 5.83v5.43c.47-.16.97-.26 1.5-.26.17 0 .33.03.5.05V1L1 20h13v-2H5.83L18 5.83z"/></symbol>
<symbol id="no_encryption" viewBox="0 0 24 24"><path d="M0 0h24v24H0V0zm0 0h24v24H0V0zm0 0h24v24H0V0zm0 0h24v24H0V0z" fill="none"/><path d="M6 20h10.78l-10-10H6zm6.44-10L18 15.56V10z" opacity=".3"/><path d="M8.9 6c0-1.71 1.39-3.1 3.1-3.1s3.1 1.39 3.1 3.1v2h-4.66l2 2H18v5.56l2 2V10c0-1.1-.9-2-2-2h-1V6c0-2.76-2.24-5-5-5-2.32 0-4.26 1.59-4.82 3.74L8.9 6.46V6zM4.41 4.81L3 6.22l2.04 2.04C4.42 8.6 4 9.25 4 10v10c0 1.1.9 2 2 2h12.78l1 1 1.41-1.41L4.41 4.81zM6 20V10h.78l10 10H6z"/></symbol>
<symbol id="no_encryption_gmailerrorred" viewBox="0 0 24 24"><path d="M0 0h24v24H0V0zm0 0h24v24H0V0zm0 0h24v24H0V0zm0 0h24v24H0V0z" fill="none"/><path d="M6 20h10.78l-10-10H6zm6.44-10L18 15.56V10z" opacity=".3"/><path d="M8.9 6c0-1.71 1.39-3.1 3.1-3.1s3.1 1.39 3.1 3.1v2h-4.66l2 2H18v5.56l2 2V10c0-1.1-.9-2-2-2h-1V6c0-2.76-2.24-5-5-5-2.32 0-4.26 1.59-4.82 3.74L8.9 6.46V6zM4.41 4.81L3 6.22l2.04 2.04C4.42 8.6 4 9.25 4 10v10c0 1.1.9 2 2 2h12.78l1 1 1.41-1.41L4.41 4.81zM6 20V10h.78l10 10H6z"/></symbol>
<symbol id="ondemand_video" viewBox="0 0 24 24"><path d="M0 0h24v24H0V0z" fill="none"/><path d="M3 17h18V5H3v12zM9 7l7 4-7 4V7z" opacity=".3"/><path d="M9 7v8l7-4zm12-4H3c-1.1 0-2 .9-2 2v12c0 1.1.9 2 2 2h5v2h8v-2h5c1.1 0 2-.9 2-2V5c0-1.1-.9-2-2-2zm0 14H3V5h18v12z"/></symbol>
<symbol id="personal_video" viewBox="0 0 24 24"><path d="M0 0h24v24H0V0z" fill="none"/><path d="M3 5h18v12H3z" opacity=".3"/><path d="M21 3H3c-1.11 0-2 .89-2 2v12c0 1.1.89 2 2 2h5v2h8v-2h5c1.1 0 1.99-.9 1.99-2L23 5c0-1.11-.9-2-2-2zm0 14H3V5h18v12z"/></symbol>
<symbol id="phone_bluetooth_speaker" viewBox="0 0 24 24"><path d="M0 0h24v24H0V0z" fill="none"/><path d="M15.2 18.21c1.21.41 2.48.67 3.8.76v-1.5c-.88-.07-1.75-.22-2.6-.45l-1.2 1.19zM6.54 5h-1.5c.09 1.32.34 2.58.75 3.79l1.2-1.21c-.24-.83-.39-1.7-.45-2.58z" opacity=".3"/><path d="M20 15.5c-1.25 0-2.45-.2-3.57-.57-.1-.03-.21-.05-.31-.05-.26 0-.51.1-.71.29l-2.2 2.2c-2.83-1.44-5.15-3.75-6.59-6.59l2.2-2.21c.28-.26.36-.65.25-1C8.7 6.45 8.5 5.25 8.5 4c0-.55-.45-1-1-1H4c-.55 0-1 .45-1 1 0 9.39 7.61 17 17 17 .55 0 1-.45 1-1v-3.5c0-.55-.45-1-1-1zM5.03 5h1.5c.07.88.22 1.75.45 2.58l-1.2 1.21c-.4-1.21-.66-2.47-.75-3.79zM19 18.97c-1.32-.09-2.6-.35-3.8-.76l1.2-1.2c.85.24 1.72.39 2.6.45v1.51zM14.71 9.5L17 7.21V11h.5l2.85-2.85L18.21 6l2.15-2.15L17.5 1H17v3.79L14.71 2.5l-.71.71L16.79 6 14 8.79l.71.71zM18 2.91l.94.94-.94.94V2.91zm0 4.3l.94.94-.94.94V7.21z"/></symbol>
<symbol id="phone_callback" viewBox="0 0 24 24"><path d="M0 0h24v24H0V0z" fill="none"/><path d="M6.54 5h-1.5c.09 1.32.35 2.59.75 3.8l1.2-1.2c-.24-.84-.39-1.71-.45-2.6zm8.66 13.21c1.2.41 2.48.67 3.8.75v-1.49c-.88-.07-1.75-.22-2.6-.45l-1.2 1.19z" opacity=".3"/><path d="M20 15.51c-1.24 0-2.45-.2-3.57-.57-.1-.04-.21-.05-.31-.05-.26 0-.51.1-.71.29l-2.2 2.2c-2.83-1.45-5.15-3.76-6.59-6.59l2.2-2.2c.28-.28.36-.67.25-1.02C8.7 6.45 8.5 5.25 8.5 4c0-.55-.45-1-1-1H4c-.55 0-1 .45-1 1 0 9.39 7.61 17 17 17 .55 0 1-.45 1-1v-3.49c0-.55-.45-1-1-1zM5.03 5h1.5c.07.89.22 1.76.46 2.59l-1.2 1.2c-.41-1.2-.67-2.47-.76-3.79zM19 18.97c-1.32-.09-2.59-.35-3.8-.75l1.19-1.19c.85.24 1.72.39 2.6.45v1.49zM18 9h-2.59l5.02-5.02-1.41-1.41L14 7.59V5h-2v6h6z"/></symbol>
<symbol id="phone_forwarded" viewBox="0 0 24 24"><path d="M0 0h24v24H0V0z" fill="none"/><path d="M15.2 18.21c1.21.41 2.48.67 3.8.76v-1.5c-.88-.07-1.75-.22-2.6-.45l-1.2 1.19zM6.54 5h-1.5c.09 1.32.34 2.58.75 3.79l1.2-1.21c-.24-.83-.39-1.7-.45-2.58z" opacity=".3"/><path d="M20 15.5c-1.25 0-2.45-.2-3.57-.57-.1-.03-.21-.05-.31-.05-.26 0-.51.1-.71.29l-2.2 2.2c-2.83-1.44-5.15-3.75-6.59-6.59l2.2-2.21c.28-.26.36-.65.25-1C8.7 6.45 8.5 5.25 8.5 4c0-.55-.45-1-1-1H4c-.55 0-1 .45-1 1 0 9.39 7.61 17 17 17 .55 0 1-.45 1-1v-3.5c0-.55-.45-1-1-1zM5.03 5h1.5c.07.88.22 1.75.45 2.58l-1.2 1.21c-.4-1.21-.66-2.47-.75-3.79zM19 18.97c-1.32-.09-2.6-.35-3.8-.76l1.2-1.2c.85.24 1.72.39 2.6.45v1.51zM18 11l5-5-5-5v3h-4v4h4z"/></symbol>
<symbol id="phone_in_talk" viewBox="0 0 24 24"><path d="M0 0h24v24H0V0z" fill="none"/><path d="M6.54 5h-1.5c.09 1.32.34 2.58.75 3.79l1.2-1.21c-.24-.83-.39-1.7-.45-2.58zm8.66 13.21c1.21.41 2.48.67 3.8.76v-1.5c-.88-.07-1.75-.22-2.6-.45l-1.2 1.19z" opacity=".3"/><path d="M15 12h2c0-2.76-2.24-5-5-5v2c1.66 0 3 1.34 3 3zm4 0h2c0-4.97-4.03-9-9-9v2c3.87 0 7 3.13 7 7zm1 3.5c-1.25 0-2.45-.2-3.57-.57-.1-.03-.21-.05-.31-.05-.26 0-.51.1-.71.29l-2.2 2.2c-2.83-1.44-5.15-3.75-6.59-6.59l2.2-2.21c.28-.26.36-.65.25-1C8.7 6.45 8.5 5.25 8.5 4c0-.55-.45-1-1-1H4c-.55 0-1 .45-1 1 0 9.39 7.61 17 17 17 .55 0 1-.45 1-1v-3.5c0-.55-.45-1-1-1zM5.03 5h1.5c.07.88.22 1.75.45 2.58l-1.2 1.21c-.4-1.21-.66-2.47-.75-3.79zM19 18.97c-1.32-.09-2.6-.35-3.8-.76l1.2-1.2c.85.24 1.72.39 2.6.45v1.51z"/></symbol>
<symbol id="phone_locked" viewBox="0 0 24 24"><path d="M0 0h24v24H0V0z" fill="none"/><path d="M6.54 5h-1.5c.09 1.32.34 2.58.75 3.79l1.2-1.21c-.24-.83-.39-1.7-.45-2.58zm8.66 13.21c1.21.41 2.48.67 3.8.76v-1.5c-.88-.07-1.75-.22-2.6-.45l-1.2 1.19z" opacity=".3"/><path d="M20 15.5c-1.25 0-2.45-.2-3.57-.57-.1-.03-.21-.05-.31-.05-.26 0-.51.1-.71.29l-2.2 2.2c-2.83-1.44-5.15-3.75-6.59-6.59l2.2-2.21c.28-.26.36-.65.25-1C8.7 6.45 8.5 5.25 8.5 4c0-.55-.45-1-1-1H4c-.55 0-1 .45-1 1 0 9.39 7.61 17 17 17 .55 0 1-.45 1-1v-3.5c0-.55-.45-1-1-1zM5.03 5h1.5c.07.88.22 1.75.45 2.58l-1.2 1.21c-.4-1.21-.66-2.47-.75-3.79zM19 18.97c-1.32-.09-2.6-.35-3.8-.76l1.2-1.2c.85.24 1.72.39 2.6.45v1.51zM20 4v-.5C20 2.12 18.88 1 17.5 1S15 2.12 15 3.5V4c-.55 0-1 .45-1 1v4c0 .55.45 1 1 1h5c.55 0 1-.45 1-1V5c0-.55-.45-1-1-1zm-1 0h-3v-.5c0-.83.67-1.5 1.5-1.5s1.5.67 1.5 1.5V4z"/></symbol>
<symbol id="phone_missed" viewBox="0 0 24 24"><path d="M0 0h24v24H0V0z" fill="none"/><path d="M18.6 17.22c.66.37 1.28.79 1.88 1.27l1.07-1.07c-.91-.75-1.9-1.39-2.95-1.9v1.7zM3.53 18.5c.58-.47 1.21-.89 1.87-1.27v-1.71c-1.05.51-2.03 1.15-2.95 1.9l1.08 1.08z" opacity=".3"/><path d="M23.71 16.67C20.66 13.78 16.54 12 12 12S3.34 13.78.29 16.67c-.18.18-.29.43-.29.71 0 .28.11.53.29.71l2.48 2.48c.18.18.43.29.71.29.27 0 .52-.11.7-.28.79-.74 1.69-1.36 2.66-1.85.33-.16.56-.5.56-.9v-3.1c1.45-.48 3-.73 4.6-.73s3.15.25 4.6.72v3.1c0 .39.23.74.56.9.98.49 1.87 1.12 2.67 1.85.18.18.43.28.7.28.28 0 .53-.11.71-.29l2.48-2.48c.18-.18.29-.43.29-.71 0-.28-.12-.52-.3-.7zm-18.31.56c-.66.37-1.29.8-1.87 1.27l-1.07-1.07c.91-.75 1.9-1.39 2.95-1.9v1.7zm15.08 1.26c-.6-.48-1.22-.9-1.88-1.27v-1.7c1.05.51 2.03 1.15 2.95 1.9l-1.07 1.07zM7 6.43l4.94 4.94 7.07-7.07-1.41-1.42-5.66 5.66L8.4 5H11V3H5v6h2z"/></symbol>
<symbol id="phone_paused" viewBox="0 0 24 24"><path d="M0 0h24v24H0V0z" fill="none"/><path d="M6.54 5h-1.5c.09 1.32.34 2.58.75 3.79l1.2-1.21c-.24-.83-.39-1.7-.45-2.58zm8.66 13.21c1.21.41 2.48.67 3.8.76v-1.5c-.88-.07-1.75-.22-2.6-.45l-1.2 1.19z" opacity=".3"/><path d="M20 15.5c-1.25 0-2.45-.2-3.57-.57-.1-.03-.21-.05-.31-.05-.26 0-.51.1-.71.29l-2.2 2.2c-2.83-1.44-5.15-3.75-6.59-6.59l2.2-2.21c.28-.26.36-.65.25-1C8.7 6.45 8.5 5.25 8.5 4c0-.55-.45-1-1-1H4c-.55 0-1 .45-1 1 0 9.39 7.61 17 17 17 .55 0 1-.45 1-1v-3.5c0-.55-.45-1-1-1zM5.03 5h1.5c.07.88.22 1.75.45 2.58l-1.2 1.21c-.4-1.21-.66-2.47-.75-3.79zM19 18.97c-1.32-.09-2.6-.35-3.8-.76l1.2-1.2c.85.24 1.72.39 2.6.45v1.51zM15 3h2v7h-2zm4 0h2v7h-2z"/></symbol>
<symbol id="power" viewBox="0 0 24 24"><path d="M0 0h24v24H0V0z" fill="none"/><path d="M8 13.65l3.5 3.52V19h1v-1.83l3.5-3.51V9H8z" opacity=".3"/><path d="M16 7V3h-2v4h-4V3H8v4h-.01C6.89 7 6 7.89 6 8.98v5.52L9.5 18v3h5v-3l3.5-3.5V9c0-1.1-.9-2-2-2zm0 6.66l-3.5 3.51V19h-1v-1.83L8 13.65V9h8v4.66z"/></symbol>
<symbol id="power_off" viewBox="0 0 24 24"><path d="M0 0h24v24H0V0z" fill="none"/><path d="M12.12 9L16 12.88V9zm-.62 8.17V19h1v-1.83l1.07-1.06L8 10.54v3.11z" opacity=".3"/><path d="M10 3H8v1.88l2 2zm6 6v3.88l1.8 1.8.2-.2V9c0-1.1-.9-2-2-2V3h-2v4h-3.88l2 2H16zM4.12 3.84L2.71 5.25 6 8.54v5.96L9.5 18v3h5v-3l.48-.48 4.47 4.47 1.41-1.41L4.12 3.84zm8.38 13.33V19h-1v-1.83L8 13.65v-3.11l5.57 5.57-1.07 1.06z"/></symbol>
<symbol id="priority_high" viewBox="0 0 24 24"><path d="M0 0h24v24H0V0z" fill="none"/><circle cx="12" cy="19" r="2"/><path d="M10 3h4v12h-4z"/></symbol>
<symbol id="sd_card" viewBox="0 0 24 24"><path d="M0 0h24v24H0V0z" fill="none"/><path d="M6 8.83V20h12V4h-7.17L6 8.83zM15 7h2v4h-2V7zm-3 0h2v4h-2V7zm-1 4H9V7h2v4z" opacity=".3"/><path d="M18 2h-8L4 8v12c0 1.1.9 2 2 2h12c1.1 0 2-.9 2-2V4c0-1.1-.9-2-2-2zm0 18H6V8.83L10.83 4H18v16zM9 7h2v4H9zm3 0h2v4h-2zm3 0h2v4h-2z"/></symbol>
<symbol id="sd_card_alert" viewBox="0 0 24 24"><path d="M0 0h24v24H0V0z" fill="none"/><path d="M6 8.83V20h12V4h-7.17L6 8.83zM11 8h2v5h-2V8zm0 7h2v2h-2v-2z" opacity=".3"/><path d="M18 2h-8L4 8v12c0 1.1.9 2 2 2h12c1.1 0 2-.9 2-2V4c0-1.1-.9-2-2-2zm0 18H6V8.83L10.83 4H18v16zm-7-5h2v2h-2zm0-7h2v5h-2z"/></symbol>
<symbol id="sms" viewBox="0 0 24 24"><path d="M0 0h24v24H0V0z" fill="none"/><path d="M4 17.17L5.17 16H20V4H4v13.17zM15 9h2v2h-2V9zm-4 0h2v2h-2V9zM7 9h2v2H7V9z" opacity=".3"/><path d="M20 2H4c-1.1 0-2 .9-2 2v18l4-4h14c1.1 0 2-.9 2-2V4c0-1.1-.9-2-2-2zm0 14H5.17L4 17.17V4h16v12zM7 9h2v2H7zm8 0h2v2h-2zm-4 0h2v2h-2z"/></symbol>
<symbol id="sms_failed" viewBox="0 0 24 24"><path d="M0 0h24v24H0V0z" fill="none"/><path d="M4 17.17L5.17 16H20V4H4v13.17zM11 6h2v4h-2V6zm0 6h2v2h-2v-2z" opacity=".3"/><path d="M20 2H4c-1.1 0-2 .9-2 2v18l4-4h14c1.1 0 2-.9 2-2V4c0-1.1-.9-2-2-2zm0 14H5.17L4 17.17V4h16v12zm-9-4h2v2h-2zm0-6h2v4h-2z"/></symbol>
<symbol id="support_agent" viewBox="0 0 24 24"><g><rect fill="none" height="24" width="24"/></g><g><g><path d="M21,12.22C21,6.73,16.74,3,12,3c-4.69,0-9,3.65-9,9.28C2.4,12.62,2,13.26,2,14v2c0,1.1,0.9,2,2,2h1v-6.1 c0-3.87,3.13-7,7-7s7,3.13,7,7V19h-8v2h8c1.1,0,2-0.9,2-2v-1.22c0.59-0.31,1-0.92,1-1.64v-2.3C22,13.14,21.59,12.53,21,12.22z"/><circle cx="9" cy="13" r="1"/><circle cx="15" cy="13" r="1"/><path d="M18,11.03C17.52,8.18,15.04,6,12.05,6c-3.03,0-6.29,2.51-6.03,6.45c2.47-1.01,4.33-3.21,4.86-5.89 C12.19,9.19,14.88,11,18,11.03z"/></g></g></symbol>
<symbol id="sync" viewBox="0 0 24 24"><path d="M.01 0h24v24h-24V0z" fill="none"/><path d="M12.01 4V1l-4 4 4 4V6c3.31 0 6 2.69 6 6 0 1.01-.25 1.97-.7 2.8l1.46 1.46c.78-1.23 1.24-2.69 1.24-4.26 0-4.42-3.58-8-8-8zm0 14c-3.31 0-6-2.69-6-6 0-1.01.25-1.97.7-2.8L5.25 7.74C4.47 8.97 4.01 10.43 4.01 12c0 4.42 3.58 8 8 8v3l4-4-4-4v3z"/></symbol>
<symbol id="sync_disabled" viewBox="0 0 24 24"><path d="M0 0h24v24H0V0zm0 0h24v24H0V0z" fill="none"/><path d="M10 6.35V4.26c-.66.17-1.29.43-1.88.75l1.5 1.5c.13-.05.25-.11.38-.16zM20 12c0-2.21-.91-4.2-2.36-5.64L20 4h-6v6l2.24-2.24C17.32 8.85 18 10.34 18 12c0 .85-.19 1.65-.51 2.38l1.5 1.5C19.63 14.74 20 13.41 20 12zM4.27 4L2.86 5.41l2.36 2.36C4.45 8.99 4 10.44 4 12c0 2.21.91 4.2 2.36 5.64L4 20h6v-6l-2.24 2.24C6.68 15.15 6 13.66 6 12c0-1 .25-1.94.68-2.77l8.08 8.08c-.25.13-.5.24-.76.34v2.09c.8-.21 1.55-.54 2.23-.96l2.58 2.58 1.41-1.41L4.27 4z"/></symbol>
<symbol id="sync_problem" viewBox="0 0 24 24"><path d="M0 0h24v24H0V0z" fill="none"/><path d="M3 12c0 2.21.91 4.2 2.36 5.64L3 20h6v-6l-2.24 2.24C5.68 15.15 5 13.66 5 12c0-2.61 1.67-4.83 4-5.65V4.26C5.55 5.15 3 8.27 3 12zm8 5h2v-2h-2v2zM21 4h-6v6l2.24-2.24C18.32 8.85 19 10.34 19 12c0 2.61-1.67 4.83-4 5.65v2.09c3.45-.89 6-4.01 6-7.74 0-2.21-.91-4.2-2.36-5.64L21 4zm-10 9h2V7h-2v6z"/></symbol>
<symbol id="system_update" viewBox="0 0 24 24"><path d="M0 0h24v24H0V0z" fill="none"/><path d="M7 19h10V5H7v14zm4-6V8h2v5h3l-4 4-4-4h3z" opacity=".3"/><path d="M16 13h-3V8h-2v5H8l4 4zm1-11.99L7 1c-1.1 0-2 .9-2 2v18c0 1.1.9 2 2 2h10c1.1 0 2-.9 2-2V3c0-1.1-.9-1.99-2-1.99zM17 19H7V5h10v14z"/></symbol>
<symbol id="tap_and_play" viewBox="0 0 24 24"><path d="M0 0h24v24H0V0z" fill="none"/><path d="M2 16v2c2.76 0 5 2.24 5 5h2c0-3.87-3.13-7-7-7zm0 4v3h3c0-1.66-1.34-3-3-3zm0-8v2c4.97 0 9 4.03 9 9h2c0-6.08-4.92-11-11-11zM17 1.01L7 1c-1.1 0-2 .9-2 2v7.37c.69.16 1.36.37 2 .64V5h10v13h-3.03c.52 1.25.84 2.59.95 4H17c1.1 0 2-.9 2-2V3c0-1.1-.9-1.99-2-1.99z"/></symbol>
<symbol id="time_to_leave" viewBox="0 0 24 24"><path d="M0 0h24v24H0V0z" fill="none"/><path d="M5.12 11l-.12.34V16h14v-4.66l-.12-.34H5.12zm2.38 4c-.83 0-1.5-.67-1.5-1.5S6.67 12 7.5 12s1.5.67 1.5 1.5S8.33 15 7.5 15zm9 0c-.83 0-1.5-.67-1.5-1.5s.67-1.5 1.5-1.5 1.5.67 1.5 1.5-.67 1.5-1.5 1.5z" opacity=".3"/><path d="M18.92 5.01C18.72 4.42 18.16 4 17.5 4h-11c-.66 0-1.21.42-1.42 1.01L3 11v8c0 .55.45 1 1 1h1c.55 0 1-.45 1-1v-1h12v1c0 .55.45 1 1 1h1c.55 0 1-.45 1-1v-8l-2.08-5.99zM6.85 6h10.29l1.04 3H5.81l1.04-3zM19 16H5v-4.66l.12-.34h13.77l.11.34V16z"/><circle cx="7.5" cy="13.5" r="1.5"/><circle cx="16.5" cy="13.5" r="1.5"/></symbol>
<symbol id="tv_off" viewBox="0 0 24 24"><path d="M0 0h24v24H0V0z" fill="none"/><path d="M3 19h13.46l-12-12H3zm7.12-12L21 17.88V7z" opacity=".3"/><path d="M21 7v10.88l1.85 1.85c.09-.23.15-.47.15-.73V7c0-1.11-.89-2-2-2h-7.58l3.29-3.3L16 1l-4 4-4-4-.7.7L10.58 5H8.12l2 2H21zm-.54 16l1.26-1.27-1.26 1.26zM2.41 2.13l-.14.14L1 3.54l1.53 1.53C1.65 5.28 1 6.06 1 7v12c0 1.1.9 2 2 2h15.46l1.99 1.99 1.26-1.26.15-.15L2.41 2.13zM3 19V7h1.46l12 12H3z"/></symbol>
<symbol id="vibration" viewBox="0 0 24 24"><path d="M0 0h24v24H0V0z" fill="none"/><path d="M8 5h8v14H8z" opacity=".3"/><path d="M19 7h2v10h-2zm3 2h2v6h-2zM0 9h2v6H0zm16.5-6h-9C6.67 3 6 3.67 6 4.5v15c0 .83.67 1.5 1.5 1.5h9c.83 0 1.5-.67 1.5-1.5v-15c0-.83-.67-1.5-1.5-1.5zM16 19H8V5h8v14zM3 7h2v10H3z"/></symbol>
<symbol id="voice_chat" viewBox="0 0 24 24"><path d="M0 0h24v24H0V0z" fill="none"/><path d="M4 17.17L5.17 16H20V4H4v13.17zM7 7h7v2.4L17 7v6l-3-2.4V13H7V7z" opacity=".3"/><path d="M20 2H4c-1.1 0-1.99.9-1.99 2L2 22l4-4h14c1.1 0 2-.9 2-2V4c0-1.1-.9-2-2-2zm0 14H5.17L4 17.17V4h16v12zm-6-5.4l3 2.4V7l-3 2.4V7H7v6h7z"/></symbol>
<symbol id="vpn_lock" viewBox="0 0 24 24"><path d="M0 0h24v24H0V0z" fill="none"/><path d="M12 8h-2v2c0 .55-.45 1-1 1H7v2h6c.55 0 1 .45 1 1v3h1c.9 0 1.64.58 1.9 1.39C18.2 16.97 19 15.08 19 13c0-.34-.04-.67-.08-1H17c-1.65 0-3-1.35-3-3V6c0 1.1-.9 2-2 2zm-4 9v-1l-4.79-4.79C3.08 11.79 3 12.38 3 13c0 4.08 3.05 7.44 7 7.93V19c-1.1 0-2-.9-2-2z" opacity=".3"/><path d="M18.92 12c.04.33.08.66.08 1 0 2.08-.8 3.97-2.1 5.39-.26-.81-1-1.39-1.9-1.39h-1v-3c0-.55-.45-1-1-1H7v-2h2c.55 0 1-.45 1-1V8h2c1.1 0 2-.9 2-2V3.46c-.95-.3-1.95-.46-3-.46C5.48 3 1 7.48 1 13s4.48 10 10 10 10-4.48 10-10c0-.34-.02-.67-.05-1h-2.03zM10 20.93c-3.95-.49-7-3.85-7-7.93 0-.62.08-1.21.21-1.79L8 16v1c0 1.1.9 2 2 2v1.93zM22 4v-.5C22 2.12 20.88 1 19.5 1S17 2.12 17 3.5V4c-.55 0-1 .45-1 1v4c0 .55.45 1 1 1h5c.55 0 1-.45 1-1V5c0-.55-.45-1-1-1zm-1 0h-3v-.5c0-.83.67-1.5 1.5-1.5s1.5.67 1.5 1.5V4z"/></symbol>
<symbol id="wc" viewBox="0 0 24 24"><path d="M.01 0h24v24h-24V0z" fill="none"/><path d="M5.5 22v-7.5H4V9c0-1.1.9-2 2-2h3c1.1 0 2 .9 2 2v5.5H9.5V22h-4zM18 22v-6h3l-2.54-7.63C18.18 7.55 17.42 7 16.56 7h-.12c-.86 0-1.63.55-1.9 1.37L12 16h3v6h3zM7.5 6c1.11 0 2-.89 2-2s-.89-2-2-2-2 .89-2 2 .89 2 2 2zm9 0c1.11 0 2-.89 2-2s-.89-2-2-2-2 .89-2 2 .89 2 2 2z"/></symbol>
<symbol id="wifi" viewBox="0 0 24 24"><path d="M0 0h24v24H0V0zm0 0h24v24H0V0z" fill="none"/><path d="M1 9l2 2c4.97-4.97 13.03-4.97 18 0l2-2C16.93 2.93 7.08 2.93 1 9zm8 8l3 3 3-3c-1.65-1.66-4.34-1.66-6 0zm-4-4l2 2c2.76-2.76 7.24-2.76 10 0l2-2C15.14 9.14 8.87 9.14 5 13z"/></symbol>
<symbol id="wifi_off" viewBox="0 0 24 24"><path d="M0 0h24v24H0V0z" fill="none"/><path d="M21 11l2-2c-3.73-3.73-8.87-5.15-13.7-4.31l2.58 2.58c3.3-.02 6.61 1.22 9.12 3.73zm-2 2c-1.08-1.08-2.36-1.85-3.72-2.33l3.02 3.02.7-.69zM9 17l3 3 3-3c-1.65-1.66-4.34-1.66-6 0zM3.41 1.64L2 3.05 5.05 6.1C3.59 6.83 2.22 7.79 1 9l2 2c1.23-1.23 2.65-2.16 4.17-2.78l2.24 2.24C7.79 10.89 6.27 11.74 5 13l2 2c1.35-1.35 3.11-2.04 4.89-2.06l7.08 7.08 1.41-1.41L3.41 1.64z"/></symbol>
</svg>