<svg xmlns="http://www.w3.org/2000/svg">
<symbol id="6_ft_apart" viewBox="0 0 24 24"><rect fill="none" height="24" width="24" x="0"/><path d="M6,6c1.1,0,2-0.9,2-2S7.1,2,6,2S4,2.9,4,4S4.9,6,6,6z M10,9.43c0-0.81-0.48-1.53-1.22-1.85C7.93,7.21,6.99,7,6,7 C5.01,7,4.07,7.21,3.22,7.58C2.48,7.9,2,8.62,2,9.43V10h8V9.43z M18,6c1.1,0,2-0.9,2-2s-0.9-2-2-2s-2,0.9-2,2S16.9,6,18,6z M22,9.43 c0-0.81-0.48-1.53-1.22-1.85C19.93,7.21,18.99,7,18,7c-0.99,0-1.93,0.21-2.78,0.58C14.48,7.9,14,8.62,14,9.43V10h8V9.43z M19,17 v-2.01L5,15v2l-3-3l3-3v2.01L19,13v-2l3,3L19,17z M10,19v-1H7.5C7.22,18,7,18.22,7,18.5v3C7,21.78,7.22,22,7.5,22h2 c0.28,0,0.5-0.22,0.5-0.5V20c0-0.28-0.22-0.5-0.5-0.5H8V19H10z M9,20.5V21H8v-0.5H9z M17.5,19h-1v3h-1v-3h-1v-1h3V19z M12.5,19v0.5 h1v1h-1V22h-1v-4H14v1H12.5z"/></symbol>
<symbol id="architecture" viewBox="0 0 24 24"><g><rect fill="none" height="24" width="24"/></g><g><g><path d="M6.36,18.78L6.61,21l1.62-1.54l2.77-7.6c-0.68-0.17-1.28-0.51-1.77-0.98L6.36,18.78z"/><path d="M14.77,10.88c-0.49,0.47-1.1,0.81-1.77,0.98l2.77,7.6L17.39,21l0.26-2.22L14.77,10.88z"/><path d="M15,8c0-1.3-0.84-2.4-2-2.82V3h-2v2.18C9.84,5.6,9,6.7,9,8c0,1.66,1.34,3,3,3S15,9.66,15,8z M12,9c-0.55,0-1-0.45-1-1 c0-0.55,0.45-1,1-1s1,0.45,1,1C13,8.55,12.55,9,12,9z"/></g></g></symbol>
<symbol id="cake" viewBox="0 0 24 24"><path d="M0 0h24v24H0V0z" fill="none"/><path d="M15.53 14.92l-1.08 1.07c-1.3 1.3-3.58 1.31-4.89 0l-1.07-1.07-1.09 1.07c-.64.64-1.5 1-2.4 1.01v3h14v-3c-.9-.01-1.76-.37-2.4-1.01l-1.07-1.07zM18 11H6c-.55 0-1 .45-1 1v3.5c.51-.01.99-.21 1.34-.57l2.14-2.13 2.13 2.13c.74.74 2.03.74 2.77 0l2.14-2.13 2.13 2.13c.36.36.84.56 1.35.57V12c0-.55-.45-1-1-1z" opacity=".3"/><path d="M12 6c1.11 0 2-.9 2-2 0-.38-.1-.73-.29-1.03L12 0l-1.71 2.97c-.19.3-.29.65-.29 1.03 0 1.1.9 2 2 2zm6 3h-5V7h-2v2H6c-1.66 0-3 1.34-3 3v9c0 .55.45 1 1 1h16c.55 0 1-.45 1-1v-9c0-1.66-1.34-3-3-3zm1 11H5v-3c.9-.01 1.76-.37 2.4-1.01l1.09-1.07 1.07 1.07c1.31 1.31 3.59 1.3 4.89 0l1.08-1.07 1.07 1.07c.64.64 1.5 1 2.4 1.01v3zm0-4.5c-.51-.01-.99-.2-1.35-.57l-2.13-2.13-2.14 2.13c-.74.74-2.03.74-2.77 0L8.48 12.8l-2.14 2.13c-.35.36-.83.56-1.34.57V12c0-.55.45-1 1-1h12c.55 0 1 .45 1 1v3.5z"/></symbol>
<symbol id="clean_hands" viewBox="0 0 24 24"><rect fill="none" height="24" width="24"/><path d="M9.24,9.5H7.42C7.94,8.61,8.89,8,10,8c1.62,0,2.94,1.29,2.99,2.9L9.24,9.5z M5,20v-7H3v7H5z M19.9,18.57 c-0.16-0.33-0.51-0.56-0.9-0.56h-5.35c-0.54,0-1.07-0.09-1.58-0.26l-2.38-0.79l0.63-1.9l2.38,0.79C13.01,15.95,15,16,15,16 c0-0.37-0.23-0.7-0.57-0.83L8.61,13H7v5.48l6.97,1.93L19.9,18.57z" opacity=".3"/><path d="M16.99,5l0.63,1.37L18.99,7l-1.37,0.63L16.99,9l-0.63-1.37L14.99,7l1.37-0.63L16.99,5 M20,14c1.1,0,2-0.9,2-2c0-1.1-2-4-2-4 s-2,2.9-2,4C18,13.1,18.9,14,20,14z M11,6.1V4h2c0.57,0,1.1,0.17,1.55,0.45l1.43-1.43C15.15,2.39,14.13,2,13,2c-1.47,0-5.44,0-5.5,0 v2H9v2.11C7.22,6.48,5.8,7.79,5.25,9.5h2.16C7.94,8.61,8.89,8,10,8c1.62,0,2.94,1.29,2.99,2.9L15,11.65V11 C15,8.58,13.28,6.56,11,6.1z M22,19v1l-8,2.5l-7-1.94V22H1V11h7.97l6.16,2.3C16.25,13.72,17,14.8,17,16h2C20.66,16,22,17.34,22,19z M5,20v-7H3v7H5z M19.9,18.57c-0.16-0.33-0.51-0.56-0.9-0.56h-5.35c-0.54,0-1.07-0.09-1.58-0.26l-2.38-0.79l0.63-1.9l2.38,0.79 C13.01,15.95,15,16,15,16c0-0.37-0.23-0.7-0.57-0.83L8.61,13H7v5.48l6.97,1.93L19.9,18.57z"/></symbol>
<symbol id="connect_without_contact" viewBox="0 0 24 24"><rect fill="none" height="24" width="24"/><path d="M11,14H9c0-4.97,4.03-9,9-9v2C14.13,7,11,10.13,11,14z M18,11V9c-2.76,0-5,2.24-5,5h2C15,12.34,16.34,11,18,11z M7,4 c0-1.11-0.89-2-2-2S3,2.89,3,4s0.89,2,2,2S7,5.11,7,4z M11.45,4.5h-2C9.21,5.92,7.99,7,6.5,7h-3C2.67,7,2,7.67,2,8.5V11h6V8.74 C9.86,8.15,11.25,6.51,11.45,4.5z M19,17c1.11,0,2-0.89,2-2s-0.89-2-2-2s-2,0.89-2,2S17.89,17,19,17z M20.5,18h-3 c-1.49,0-2.71-1.08-2.95-2.5h-2c0.2,2.01,1.59,3.65,3.45,4.24V22h6v-2.5C22,18.67,21.33,18,20.5,18z"/></symbol>
<symbol id="construction" viewBox="0 0 24 24"><g><rect fill="none" height="24" width="24"/></g><g><g><rect height="8.48" transform="matrix(0.7071 -0.7071 0.7071 0.7071 -6.8717 17.6255)" width="3" x="16.34" y="12.87"/><path d="M17.5,10c1.93,0,3.5-1.57,3.5-3.5c0-0.58-0.16-1.12-0.41-1.6l-2.7,2.7L16.4,6.11l2.7-2.7C18.62,3.16,18.08,3,17.5,3 C15.57,3,14,4.57,14,6.5c0,0.41,0.08,0.8,0.21,1.16l-1.85,1.85l-1.78-1.78l0.71-0.71L9.88,5.61L12,3.49 c-1.17-1.17-3.07-1.17-4.24,0L4.22,7.03l1.41,1.41H2.81L2.1,9.15l3.54,3.54l0.71-0.71V9.15l1.41,1.41l0.71-0.71l1.78,1.78 l-7.41,7.41l2.12,2.12L16.34,9.79C16.7,9.92,17.09,10,17.5,10z"/></g></g></symbol>
<symbol id="coronavirus" viewBox="0 0 24 24"><rect fill="none" height="24" width="24"/><path d="M12,7c-2.76,0-5,2.24-5,5s2.24,5,5,5s5-2.24,5-5S14.76,7,12,7z M13.75,8c0.55,0,1,0.45,1,1s-0.45,1-1,1 s-1-0.45-1-1S13.2,8,13.75,8z M10.25,8c0.55,0,1,0.45,1,1s-0.45,1-1,1s-1-0.45-1-1S9.7,8,10.25,8z M8.5,13c-0.55,0-1-0.45-1-1 c0-0.55,0.45-1,1-1s1,0.45,1,1C9.5,12.55,9.05,13,8.5,13z M10.25,16c-0.55,0-1-0.45-1-1c0-0.55,0.45-1,1-1s1,0.45,1,1 C11.25,15.55,10.8,16,10.25,16z M12,13c-0.55,0-1-0.45-1-1c0-0.55,0.45-1,1-1s1,0.45,1,1C13,12.55,12.55,13,12,13z M13.75,16 c-0.55,0-1-0.45-1-1c0-0.55,0.45-1,1-1s1,0.45,1,1C14.75,15.55,14.3,16,13.75,16z M15.5,13c-0.55,0-1-0.45-1-1c0-0.55,0.45-1,1-1 s1,0.45,1,1C16.5,12.55,16.05,13,15.5,13z" opacity=".3"/><path d="M9.5,12c0,0.55-0.45,1-1,1s-1-0.45-1-1c0-0.55,0.45-1,1-1S9.5,11.45,9.5,12z M13.75,10c0.55,0,1-0.45,1-1s-0.45-1-1-1 s-1,0.45-1,1S13.2,10,13.75,10z M10.25,10c0.55,0,1-0.45,1-1s-0.45-1-1-1s-1,0.45-1,1S9.7,10,10.25,10z M10.25,14 c-0.55,0-1,0.45-1,1c0,0.55,0.45,1,1,1s1-0.45,1-1C11.25,14.45,10.8,14,10.25,14z M22,11.25v1.5c0,0.41-0.34,0.75-0.75,0.75 c-0.41,0-0.75-0.34-0.75-0.75h-1.54c-0.15,1.37-0.69,2.63-1.52,3.65l1.09,1.09l0.01-0.01c0.29-0.29,0.77-0.29,1.06,0 c0.29,0.29,0.29,0.77,0,1.06l-1.06,1.06c-0.29,0.29-0.77,0.29-1.06,0c-0.29-0.29-0.29-0.76-0.01-1.05l-1.09-1.09 c-1.02,0.82-2.27,1.36-3.64,1.51v1.54h0.01c0.41,0,0.75,0.34,0.75,0.75c0,0.41-0.34,0.75-0.75,0.75h-1.5 c-0.41,0-0.75-0.34-0.75-0.75c0-0.41,0.33-0.74,0.74-0.75v-1.55c-1.37-0.15-2.62-0.69-3.63-1.51l-1.09,1.09l0.01,0.01 c0.29,0.29,0.29,0.77,0,1.06c-0.29,0.29-0.77,0.29-1.06,0L4.4,18.54c-0.29-0.29-0.29-0.77,0-1.06c0.29-0.29,0.76-0.29,1.05-0.01 l1.09-1.09c-0.82-1.02-1.36-2.26-1.5-3.63H3.5c0,0.41-0.34,0.75-0.75,0.75C2.34,13.5,2,13.16,2,12.75v-1.5 c0-0.41,0.34-0.75,0.75-0.75c0.41,0,0.75,0.34,0.75,0.75h1.54c0.15-1.37,0.69-2.61,1.5-3.63L5.45,6.53C5.16,6.81,4.69,6.81,4.4,6.52 c-0.29-0.29-0.29-0.77,0-1.06L5.46,4.4c0.29-0.29,0.77-0.29,1.06,0c0.29,0.29,0.29,0.77,0,1.06L6.51,5.47L7.6,6.56 c1.02-0.82,2.26-1.36,3.63-1.51V3.5c-0.41-0.01-0.74-0.34-0.74-0.75C10.5,2.34,10.84,2,11.25,2h1.5c0.41,0,0.75,0.34,0.75,0.75 c0,0.41-0.34,0.75-0.75,0.75h-0.01v1.54c1.37,0.14,2.62,0.69,3.64,1.51l1.09-1.09c-0.29-0.29-0.28-0.76,0.01-1.05 c0.29-0.29,0.77-0.29,1.06,0l1.06,1.06c0.29,0.29,0.29,0.77,0,1.06s-0.77,0.29-1.06,0l-0.01-0.01L17.44,7.6 c0.82,1.02,1.37,2.27,1.52,3.65h1.54c0-0.41,0.34-0.75,0.75-0.75C21.66,10.5,22,10.84,22,11.25z M17,12c0-2.76-2.24-5-5-5 s-5,2.24-5,5s2.24,5,5,5S17,14.76,17,12z M12,11c-0.55,0-1,0.45-1,1c0,0.55,0.45,1,1,1s1-0.45,1-1C13,11.45,12.55,11,12,11z M15.5,11c-0.55,0-1,0.45-1,1c0,0.55,0.45,1,1,1s1-0.45,1-1C16.5,11.45,16.05,11,15.5,11z M13.75,14c-0.55,0-1,0.45-1,1 c0,0.55,0.45,1,1,1s1-0.45,1-1C14.75,14.45,14.3,14,13.75,14z"/></symbol>
<symbol id="deck" viewBox="0 0 24 24"><g><rect fill="none" height="24" width="24"/></g><g><g><polygon opacity=".3" points="12,4.44 8.34,7 15.66,7"/><path d="M22,9L12,2L2,9h9v13h2V9H22z M12,4.44L15.66,7H8.34L12,4.44z"/><polygon points="4.14,12 2.18,12.37 3,16.74 3,22 5,22 5.02,18 7,18 7,22 9,22 9,16 4.9,16"/><polygon points="19.1,16 15,16 15,22 17,22 17,18 18.98,18 19,22 21,22 21,16.74 21.82,12.37 19.86,12"/></g></g></symbol>
<symbol id="domain" viewBox="0 0 24 24"><path d="M0 0h24v24H0V0z" fill="none"/><path d="M12 11h2v2h-2v2h2v2h-2v2h8V9h-8v2zm4 0h2v2h-2v-2zm0 4h2v2h-2v-2z" opacity=".3"/><path d="M12 7V3H2v18h20V7H12zM6 19H4v-2h2v2zm0-4H4v-2h2v2zm0-4H4V9h2v2zm0-4H4V5h2v2zm4 12H8v-2h2v2zm0-4H8v-2h2v2zm0-4H8V9h2v2zm0-4H8V5h2v2zm10 12h-8v-2h2v-2h-2v-2h2v-2h-2V9h8v10zm-4-8h2v2h-2zm0 4h2v2h-2z"/></symbol>
<symbol id="elderly" viewBox="0 0 24 24"><rect fill="none" height="24" width="24"/><path d="M13.5,5.5c1.1,0,2-0.9,2-2s-0.9-2-2-2s-2,0.9-2,2S12.4,5.5,13.5,5.5z M20,12.5V23h-1V12.5c0-0.28-0.22-0.5-0.5-0.5 S18,12.22,18,12.5v1h-1v-0.69c-1.46-0.38-2.7-1.29-3.51-2.52C13.18,11.16,13,12.07,13,13c0,0.23,0.02,0.46,0.03,0.69L15,16.5V23h-2 v-5l-1.78-2.54L11,19l-3,4l-1.6-1.2L9,18.33V13c0-1.15,0.18-2.29,0.5-3.39L8,10.46V14H6V9.3l5.4-3.07l0,0.01 c0.59-0.31,1.32-0.33,1.94,0.03c0.36,0.21,0.63,0.51,0.8,0.85l0,0l0.79,1.67C15.58,10.1,16.94,11,18.5,11C19.33,11,20,11.67,20,12.5 z"/></symbol>
<symbol id="emoji_emotions" viewBox="0 0 24 24"><g><rect fill="none" height="24" width="24"/></g><g><g/><g><path d="M20,12c0-4.42-3.58-8-8-8s-8,3.58-8,8s3.58,8,8,8S20,16.42,20,12z M8.5,8C9.33,8,10,8.67,10,9.5 S9.33,11,8.5,11S7,10.33,7,9.5S7.67,8,8.5,8z M12,18c-2.28,0-4.22-1.66-5-4h10C16.22,16.34,14.28,18,12,18z M15.5,11 c-0.83,0-1.5-0.67-1.5-1.5S14.67,8,15.5,8S17,8.67,17,9.5S16.33,11,15.5,11z" opacity=".3"/><circle cx="15.5" cy="9.5" r="1.5"/><circle cx="8.5" cy="9.5" r="1.5"/><path d="M11.99,2C6.47,2,2,6.48,2,12c0,5.52,4.47,10,9.99,10C17.52,22,22,17.52,22,12C22,6.48,17.52,2,11.99,2z M12,20 c-4.42,0-8-3.58-8-8c0-4.42,3.58-8,8-8s8,3.58,8,8C20,16.42,16.42,20,12,20z"/><path d="M12,18c2.28,0,4.22-1.66,5-4H7C7.78,16.34,9.72,18,12,18z"/></g></g></symbol>
<symbol id="emoji_events" viewBox="0 0 24 24"><rect fill="none" height="24" width="24"/><path d="M12,14c-1.65,0-3-1.35-3-3V5h6v6C15,12.65,13.65,14,12,14z" opacity=".3"/><path d="M19,5h-2V3H7v2H5C3.9,5,3,5.9,3,7v1c0,2.55,1.92,4.63,4.39,4.94c0.63,1.5,1.98,2.63,3.61,2.96V19H7v2h10v-2h-4v-3.1 c1.63-0.33,2.98-1.46,3.61-2.96C19.08,12.63,21,10.55,21,8V7C21,5.9,20.1,5,19,5z M5,8V7h2v3.82C5.84,10.4,5,9.3,5,8z M12,14 c-1.65,0-3-1.35-3-3V5h6v6C15,12.65,13.65,14,12,14z M19,8c0,1.3-0.84,2.4-2,2.82V7h2V8z"/></symbol>
<symbol id="emoji_flags" viewBox="0 0 24 24"><g><rect fill="none" height="24" width="24"/></g><g><g/><g><polygon opacity=".3" points="12,9 7,9 7,15 13,15 14,17 18,17 18,11 13,11"/><path d="M14,9l-1-2H7V5.72C7.6,5.38,8,4.74,8,4c0-1.1-0.9-2-2-2S4,2.9,4,4c0,0.74,0.4,1.38,1,1.72V21h2v-4h5l1,2h7V9H14z M18,17 h-4l-1-2H7V9h5l1,2h5V17z"/></g></g></symbol>
<symbol id="emoji_food_beverage" viewBox="0 0 24 24"><g><rect fill="none" height="24" width="24"/></g><g><g/><g><path d="M10,6.4l1.81,1.45C11.93,7.94,12,8.09,12,8.24v4.26c0,0.28-0.22,0.5-0.5,0.5h-4C7.22,13,7,12.78,7,12.5 V8.24c0-0.15,0.07-0.3,0.19-0.39L9,6.4V5H6v8c0,1.1,0.9,2,2,2h6c1.1,0,2-0.9,2-2V5h-6V6.4z" opacity=".3"/><rect height="2" width="18" x="2" y="19"/><path d="M20,3H4v10c0,2.21,1.79,4,4,4h6c2.21,0,4-1.79,4-4v-3h2c1.11,0,2-0.89,2-2V5C22,3.89,21.11,3,20,3z M9.5,7.28l1.5,1.2V12 H8V8.48L9.5,7.28z M16,13c0,1.1-0.9,2-2,2H8c-1.1,0-2-0.9-2-2V5h3v1.4L7.19,7.85C7.07,7.94,7,8.09,7,8.24v4.26 C7,12.78,7.22,13,7.5,13h4c0.28,0,0.5-0.22,0.5-0.5V8.24c0-0.15-0.07-0.3-0.19-0.39L10,6.4V5h6V13z M20,8h-2V5h2V8z"/></g></g></symbol>
<symbol id="emoji_nature" viewBox="0 0 24 24"><g><rect fill="none" height="24" width="24"/></g><g><g><circle cx="18" cy="6" opacity=".3" r="1"/><g><path d="M21.94,4.88C21.75,4.33,21.19,3.96,20.58,4H19.6l-0.31-0.97C19.15,2.43,18.61,2,18,2h0c-0.61,0-1.15,0.43-1.29,1.04 L16.4,4h-0.98c-0.61-0.04-1.16,0.32-1.35,0.88c-0.19,0.56,0.04,1.17,0.56,1.48l0.87,0.52L15.1,8.12 c-0.23,0.58-0.04,1.25,0.45,1.62c0.5,0.37,1.17,0.35,1.64-0.06L18,8.98l0.81,0.7c0.47,0.4,1.15,0.43,1.64,0.06 c0.5-0.37,0.68-1.04,0.45-1.62l-0.39-1.24l0.87-0.52C21.89,6.05,22.12,5.44,21.94,4.88z M18,7c-0.55,0-1-0.45-1-1 c0-0.55,0.45-1,1-1s1,0.45,1,1C19,6.55,18.55,7,18,7z"/></g></g><g><path d="M6.1,17.9c0.53,0.53,1.27,0.69,1.94,0.5c-0.03-1.19,0.35-2.37,0.92-3.36c-1,0.57-2.17,0.95-3.36,0.92 C5.41,16.63,5.58,17.37,6.1,17.9z" opacity=".3"/><path d="M9.65,11.55l1.61,0.66c0.25,0.1,0.44,0.3,0.54,0.54l0.66,1.61c0.75-0.78,0.74-2.01-0.03-2.78 C11.66,10.8,10.43,10.8,9.65,11.55z" opacity=".3"/><path d="M14.86,12c-0.17-0.67-0.5-1.31-1.03-1.84C13.31,9.64,12.67,9.31,12,9.14V7h-1v2c-1.01,0.01-2.02,0.39-2.79,1.16 c-0.13,0.13-0.33,0.33-0.56,0.56l-1.53-0.63c-1.52-0.63-3.27,0.1-3.89,1.62c-0.6,1.46,0.05,3.11,1.44,3.8 c-0.33,1.31,0,2.76,1.03,3.79c1.03,1.03,2.48,1.36,3.79,1.03c0.69,1.39,2.34,2.04,3.8,1.44c1.52-0.63,2.25-2.37,1.62-3.89 l-0.63-1.53c0.23-0.23,0.43-0.43,0.56-0.56c0.77-0.77,1.16-1.78,1.16-2.79h2v-1H14.86z M4.58,13.8c-0.51-0.21-0.75-0.79-0.54-1.3 c0.21-0.51,0.79-0.75,1.3-0.54l2.92,1.2C7.22,13.84,5.83,14.31,4.58,13.8z M8.04,18.4c-0.67,0.19-1.41,0.02-1.94-0.5 c-0.53-0.53-0.69-1.27-0.5-1.94c1.19,0.03,2.37-0.35,3.36-0.92C8.39,16.03,8.01,17.21,8.04,18.4z M11.5,19.96 c-0.51,0.21-1.09-0.03-1.3-0.54c-0.51-1.25-0.04-2.64,0.64-3.67l1.2,2.92C12.25,19.17,12.01,19.76,11.5,19.96z M12.45,14.35 l-0.66-1.61c-0.1-0.25-0.3-0.44-0.54-0.54l-1.61-0.66c0.78-0.75,2.01-0.74,2.78,0.03C13.2,12.34,13.2,13.57,12.45,14.35z"/></g></g></symbol>
<symbol id="emoji_objects" viewBox="0 0 24 24"><g><rect fill="none" height="24" width="24"/></g><g><g/><g><rect height="1" opacity=".3" width="4" x="10" y="18"/><rect height="1" opacity=".3" width="4" x="10" y="16"/><path d="M12,3c-0.46,0-0.93,0.04-1.4,0.14C7.84,3.67,5.64,5.9,5.12,8.66c-0.48,2.61,0.48,5.01,2.22,6.56 C7.77,15.6,8,16.13,8,16.69V19c0,1.1,0.9,2,2,2h0.28c0.35,0.6,0.98,1,1.72,1s1.38-0.4,1.72-1H14c1.1,0,2-0.9,2-2v-2.31 c0-0.55,0.22-1.09,0.64-1.46C18.09,13.95,19,12.08,19,10C19,6.13,15.87,3,12,3z M14,19h-4v-1h4V19z M14,17h-4v-1h4V17z M15.31,13.74c-0.09,0.08-0.16,0.18-0.24,0.26H8.92c-0.08-0.09-0.15-0.19-0.24-0.27c-1.32-1.18-1.91-2.94-1.59-4.7 c0.36-1.94,1.96-3.55,3.89-3.93C11.32,5.03,11.66,5,12,5c2.76,0,5,2.24,5,5C17,11.43,16.39,12.79,15.31,13.74z"/></g><g><rect height="3" width="1" x="11.5" y="11"/><rect height="3" transform="matrix(0.7071 -0.7071 0.7071 0.7071 -4.0312 10.8536)" width="1" x="10.59" y="8.79"/><rect height="3" transform="matrix(-0.7071 -0.7071 0.7071 -0.7071 14.7678 26.7028)" width="1" x="12.41" y="8.79"/></g></g></symbol>
<symbol id="emoji_people" viewBox="0 0 24 24"><g><rect fill="none" height="24" width="24"/></g><g><g/><g><circle cx="12" cy="4" r="2"/><path d="M15.89,8.11C15.5,7.72,14.83,7,13.53,7c-0.21,0-1.42,0-2.54,0C8.24,6.99,6,4.75,6,2H4c0,3.16,2.11,5.84,5,6.71V22h2v-6h2 v6h2V10.05L18.95,14l1.41-1.41L15.89,8.11z"/></g></g></symbol>
<symbol id="emoji_symbols" viewBox="0 0 24 24"><g><rect fill="none" height="24" width="24"/></g><g><g/><g><rect height="2" width="8" x="3" y="2"/><polygon points="6,11 8,11 8,7 11,7 11,5 3,5 3,7 6,7"/><rect height="2" transform="matrix(0.7071 -0.7071 0.7071 0.7071 -7.0416 16.9999)" width="11" x="11.5" y="16"/><circle cx="14.5" cy="14.5" r="1.5"/><circle cx="19.5" cy="19.5" r="1.5"/><path d="M15.5,11c1.38,0,2.5-1.12,2.5-2.5V4h3V2h-4v4.51C16.58,6.19,16.07,6,15.5,6C14.12,6,13,7.12,13,8.5 C13,9.88,14.12,11,15.5,11z"/><path d="M9.74,15.96l-1.41,1.41l-0.71-0.71l0.35-0.35c0.98-0.98,0.98-2.56,0-3.54c-0.49-0.49-1.13-0.73-1.77-0.73 c-0.64,0-1.28,0.24-1.77,0.73c-0.98,0.98-0.98,2.56,0,3.54l0.35,0.35l-1.06,1.06c-0.98,0.98-0.98,2.56,0,3.54 C4.22,21.76,4.86,22,5.5,22s1.28-0.24,1.77-0.73l1.06-1.06l1.41,1.41l1.41-1.41l-1.41-1.41l1.41-1.41L9.74,15.96z M5.85,14.2 c0.12-0.12,0.26-0.15,0.35-0.15s0.23,0.03,0.35,0.15c0.19,0.2,0.19,0.51,0,0.71l-0.35,0.35L5.85,14.9 C5.66,14.71,5.66,14.39,5.85,14.2z M5.85,19.85C5.73,19.97,5.59,20,5.5,20s-0.23-0.03-0.35-0.15c-0.19-0.19-0.19-0.51,0-0.71 l1.06-1.06l0.71,0.71L5.85,19.85z"/></g></g></symbol>
<symbol id="emoji_transportation" viewBox="0 0 24 24"><g><rect fill="none" height="24" width="24"/></g><g><g/><g><path d="M20.57,10.66C20.43,10.26,20.05,10,19.6,10h-7.19c-0.46,0-0.83,0.26-0.98,0.66L10,14.77l0.01,5.51 c0,0.38,0.31,0.72,0.69,0.72h0.62C11.7,21,12,20.62,12,20.24V19h8v1.24c0,0.38,0.31,0.76,0.69,0.76h0.61 c0.38,0,0.69-0.34,0.69-0.72L22,18.91v-4.14L20.57,10.66z M12.41,11h7.19l1.03,3h-9.25L12.41,11z M12,17c-0.55,0-1-0.45-1-1 s0.45-1,1-1s1,0.45,1,1S12.55,17,12,17z M20,17c-0.55,0-1-0.45-1-1s0.45-1,1-1s1,0.45,1,1S20.55,17,20,17z"/><polygon points="14,9 15,9 15,3 7,3 7,8 2,8 2,21 3,21 3,9 8,9 8,4 14,4"/><rect height="2" width="2" x="5" y="11"/><rect height="2" width="2" x="10" y="5"/><rect height="2" width="2" x="5" y="15"/><rect height="2" width="2" x="5" y="19"/></g></g></symbol>
<symbol id="engineering" viewBox="0 0 24 24"><g><rect fill="none" height="24" width="24"/></g><g><g><path d="M9,11c1.1,0,2-0.9,2-2H7C7,10.1,7.9,11,9,11z" opacity=".3"/><path d="M7.5,6C7.78,6,8,5.78,8,5.5V4.14C7.64,4.23,7.31,4.37,7,4.55V5.5C7,5.78,7.22,6,7.5,6z" opacity=".3"/><path d="M10.5,6C10.78,6,11,5.78,11,5.5V4.55c-0.31-0.18-0.64-0.32-1-0.41V5.5C10,5.78,10.22,6,10.5,6z" opacity=".3"/><path d="M9,17c-2.69,0-5.77,1.28-6,2h12C14.8,18.29,11.7,17,9,17z" opacity=".3"/><path d="M9,15c-2.67,0-8,1.34-8,4v2h16v-2C17,16.34,11.67,15,9,15z M3,19c0.22-0.72,3.31-2,6-2c2.7,0,5.8,1.29,6,2H3z"/><path d="M4.74,9H5c0,2.21,1.79,4,4,4s4-1.79,4-4h0.26c0.27,0,0.49-0.22,0.49-0.49V8.49c0-0.27-0.22-0.49-0.49-0.49H13 c0-1.48-0.81-2.75-2-3.45V5.5C11,5.78,10.78,6,10.5,6S10,5.78,10,5.5V4.14C9.68,4.06,9.35,4,9,4S8.32,4.06,8,4.14V5.5 C8,5.78,7.78,6,7.5,6S7,5.78,7,5.5V4.55C5.81,5.25,5,6.52,5,8H4.74C4.47,8,4.25,8.22,4.25,8.49v0.03C4.25,8.78,4.47,9,4.74,9z M11,9c0,1.1-0.9,2-2,2s-2-0.9-2-2H11z"/><path d="M21.98,6.23l0.93-0.83l-0.75-1.3l-1.19,0.39c-0.14-0.11-0.3-0.2-0.47-0.27L20.25,3h-1.5L18.5,4.22 c-0.17,0.07-0.33,0.16-0.48,0.27L16.84,4.1l-0.75,1.3l0.93,0.83C17,6.4,17,6.58,17.02,6.75L16.09,7.6l0.75,1.3l1.2-0.38 c0.13,0.1,0.28,0.18,0.43,0.25L18.75,10h1.5l0.27-1.22c0.16-0.07,0.3-0.15,0.44-0.25l1.19,0.38l0.75-1.3l-0.93-0.85 C22,6.57,21.99,6.4,21.98,6.23z M19.5,7.75c-0.69,0-1.25-0.56-1.25-1.25s0.56-1.25,1.25-1.25s1.25,0.56,1.25,1.25 S20.19,7.75,19.5,7.75z"/><path d="M19.27,12.31l0.66-0.59l-0.54-0.93l-0.85,0.28c-0.1-0.08-0.21-0.14-0.33-0.19L18.04,10h-1.07l-0.18,0.87 c-0.12,0.05-0.24,0.12-0.34,0.19l-0.84-0.28l-0.54,0.93l0.66,0.59c-0.01,0.13-0.01,0.25,0,0.37l-0.66,0.61l0.54,0.93l0.86-0.27 c0.1,0.07,0.2,0.13,0.31,0.18L16.96,15h1.07l0.19-0.87c0.11-0.05,0.22-0.11,0.32-0.18l0.85,0.27l0.54-0.93l-0.66-0.61 C19.28,12.55,19.28,12.43,19.27,12.31z M17.5,13.39c-0.49,0-0.89-0.4-0.89-0.89s0.4-0.89,0.89-0.89s0.89,0.4,0.89,0.89 S17.99,13.39,17.5,13.39z"/></g></g></symbol>
<symbol id="facebook" viewBox="0 0 24 24"><rect fill="none" height="24" width="24"/><path d="M22,12c0-5.52-4.48-10-10-10S2,6.48,2,12c0,4.84,3.44,8.87,8,9.8V15H8v-3h2V9.5C10,7.57,11.57,6,13.5,6H16v3h-2 c-0.55,0-1,0.45-1,1v2h3v3h-3v6.95C18.05,21.45,22,17.19,22,12z"/></symbol>
<symbol id="fireplace" viewBox="0 0 24 24"><g><rect fill="none" height="24" width="24"/></g><g><g><path d="M4,20h2v-2h2.23c-0.75-0.93-1.2-2.04-1.23-3c-0.02-0.53-0.73-4.43,6-8c0,0-0.8,2.61,2.15,4.63 C15.91,12.15,17,13.11,17,15c0,1.13-0.39,2.16-1.02,3H18v2h2V4H4V20z" opacity=".3"/><path d="M12.01,12.46c-0.15,0.42-0.15,0.82-0.08,1.28c0.1,0.55,0.33,1.04,0.2,1.6c-0.13,0.59-0.77,1.38-1.53,1.63 c1.28,1.05,3.2,0.37,3.39-1.32C14.16,14.11,12.55,13.67,12.01,12.46z"/><path d="M2,2v20h20V2H2z M12,18c-1.58,0-2.97-1.88-3-3.06c0-0.05-0.01-0.13-0.01-0.22c-0.13-1.73,1-3.2,2.47-4.37 c0.47,1.01,1.27,2.03,2.57,2.92C14.61,13.69,15,14.13,15,15C15,16.65,13.65,18,12,18z M20,20h-2v-2h-2.02 c0.63-0.84,1.02-1.87,1.02-3c0-1.89-1.09-2.85-1.85-3.37C12.2,9.61,13,7,13,7c-6.73,3.57-6.02,7.47-6,8 c0.03,0.96,0.49,2.07,1.23,3H6v2H4V4h16V20z"/></g></g></symbol>
<symbol id="follow_the_signs" viewBox="0 0 24 24"><rect fill="none" height="24" width="24"/><path d="M17.64,7.75V6h-3.51V4.5h3.51V2.75l2.49,2.5L17.64,7.75z" opacity=".3"/><path d="M9.12,5.25c1.1,0,2-0.9,2-2s-0.9-2-2-2s-2,0.9-2,2S8.02,5.25,9.12,5.25z M5.38,8.65l-2.75,14.1h2.1l1.75-8l2.15,2v6h2V15.2 l-2.05-2.05l0.6-3c1.3,1.6,3.25,2.6,5.45,2.6v-2c-1.85,0-3.45-1-4.35-2.45L9.32,6.7c-0.35-0.6-1-0.95-1.7-0.95 c-0.25,0-0.5,0.05-0.75,0.15L1.62,8.05v4.7h2V9.4L5.38,8.65 M12.62,1.75v7h3.75v14h1.5v-14h3.75v-7H12.62z M17.64,7.75V6h-3.51V4.5 h3.51V2.75l2.49,2.5L17.64,7.75z"/></symbol>
<symbol id="group" viewBox="0 0 24 24"><path d="M0 0h24v24H0V0z" fill="none"/><circle cx="9" cy="8.5" opacity=".3" r="1.5"/><path d="M4.34 17h9.32c-.84-.58-2.87-1.25-4.66-1.25s-3.82.67-4.66 1.25z" opacity=".3"/><path d="M9 12c1.93 0 3.5-1.57 3.5-3.5S10.93 5 9 5 5.5 6.57 5.5 8.5 7.07 12 9 12zm0-5c.83 0 1.5.67 1.5 1.5S9.83 10 9 10s-1.5-.67-1.5-1.5S8.17 7 9 7zm0 6.75c-2.34 0-7 1.17-7 3.5V19h14v-1.75c0-2.33-4.66-3.5-7-3.5zM4.34 17c.84-.58 2.87-1.25 4.66-1.25s3.82.67 4.66 1.25H4.34zm11.7-3.19c1.16.84 1.96 1.96 1.96 3.44V19h4v-1.75c0-2.02-3.5-3.17-5.96-3.44zM15 12c1.93 0 3.5-1.57 3.5-3.5S16.93 5 15 5c-.54 0-1.04.13-1.5.35.63.89 1 1.98 1 3.15s-.37 2.26-1 3.15c.46.22.96.35 1.5.35z"/></symbol>
<symbol id="groups" viewBox="0 0 24 24"><rect fill="none" height="24" width="24"/><g opacity=".3"><path d="M8.07,16c0.09-0.23,0.13-0.39,0.91-0.69c0.97-0.38,1.99-0.56,3.02-0.56s2.05,0.18,3.02,0.56c0.77,0.3,0.81,0.46,0.91,0.69 H8.07z M12,8c0.55,0,1,0.45,1,1s-0.45,1-1,1s-1-0.45-1-1S11.45,8,12,8"/></g><g><path d="M4,13c1.1,0,2-0.9,2-2c0-1.1-0.9-2-2-2s-2,0.9-2,2C2,12.1,2.9,13,4,13z M5.13,14.1C4.76,14.04,4.39,14,4,14 c-0.99,0-1.93,0.21-2.78,0.58C0.48,14.9,0,15.62,0,16.43V18l4.5,0v-1.61C4.5,15.56,4.73,14.78,5.13,14.1z M20,13c1.1,0,2-0.9,2-2 c0-1.1-0.9-2-2-2s-2,0.9-2,2C18,12.1,18.9,13,20,13z M24,16.43c0-0.81-0.48-1.53-1.22-1.85C21.93,14.21,20.99,14,20,14 c-0.39,0-0.76,0.04-1.13,0.1c0.4,0.68,0.63,1.46,0.63,2.29V18l4.5,0V16.43z M16.24,13.65c-1.17-0.52-2.61-0.9-4.24-0.9 c-1.63,0-3.07,0.39-4.24,0.9C6.68,14.13,6,15.21,6,16.39V18h12v-1.61C18,15.21,17.32,14.13,16.24,13.65z M8.07,16 c0.09-0.23,0.13-0.39,0.91-0.69c0.97-0.38,1.99-0.56,3.02-0.56s2.05,0.18,3.02,0.56c0.77,0.3,0.81,0.46,0.91,0.69H8.07z M12,8 c0.55,0,1,0.45,1,1s-0.45,1-1,1s-1-0.45-1-1S11.45,8,12,8 M12,6c-1.66,0-3,1.34-3,3c0,1.66,1.34,3,3,3s3-1.34,3-3 C15,7.34,13.66,6,12,6L12,6z"/></g></symbol>
<symbol id="group_add" viewBox="0 0 24 24"><path d="M0 0h24v24H0V0z" fill="none"/><path d="M5 15v-3h3v-2H5V7H3v3H0v2h3v3z"/><circle cx="12" cy="8.5" opacity=".3" r="1.5"/><path d="M7.34 17h9.32c-.84-.58-2.87-1.25-4.66-1.25s-3.82.67-4.66 1.25z" opacity=".3"/><path d="M12 12c1.93 0 3.5-1.57 3.5-3.5S13.93 5 12 5 8.5 6.57 8.5 8.5 10.07 12 12 12zm0-5c.83 0 1.5.67 1.5 1.5S12.83 10 12 10s-1.5-.67-1.5-1.5S11.17 7 12 7zm0 6.75c-2.34 0-7 1.17-7 3.5V19h14v-1.75c0-2.33-4.66-3.5-7-3.5zM7.34 17c.84-.58 2.87-1.25 4.66-1.25s3.82.67 4.66 1.25H7.34zM17 12c1.93 0 3.5-1.57 3.5-3.5S18.93 5 17 5c-.24 0-.48.02-.71.07.76.94 1.21 2.13 1.21 3.43 0 1.3-.47 2.48-1.23 3.42.24.05.48.08.73.08zm2.32 2.02c1 .81 1.68 1.87 1.68 3.23V19h3v-1.75c0-1.69-2.44-2.76-4.68-3.23z"/></symbol>
<symbol id="history_edu" viewBox="0 0 24 24"><g><rect fill="none" height="24" width="24"/></g><g><g><g opacity=".3"><path d="M11.34,9.76L9.93,8.34C8.98,7.4,7.73,6.88,6.39,6.88C5.76,6.88,5.14,7,4.57,7.22l1.04,1.04h2.28v2.14 c0.4,0.23,0.86,0.35,1.33,0.35c0.73,0,1.41-0.28,1.92-0.8L11.34,9.76z"/></g><g opacity=".3"><path d="M11,6.62l6,5.97V14h-1.41l-2.83-2.83l-0.2,0.2c-0.46,0.46-0.99,0.8-1.56,1.03V15h6v2c0,0.55,0.45,1,1,1s1-0.45,1-1V6h-8 V6.62z"/></g><g><path d="M9,4v1.38c-0.83-0.33-1.72-0.5-2.61-0.5c-1.79,0-3.58,0.68-4.95,2.05l3.33,3.33h1.11v1.11c0.86,0.86,1.98,1.31,3.11,1.36 V15H6v3c0,1.1,0.9,2,2,2h10c1.66,0,3-1.34,3-3V4H9z M7.89,10.41V8.26H5.61L4.57,7.22C5.14,7,5.76,6.88,6.39,6.88 c1.34,0,2.59,0.52,3.54,1.46l1.41,1.41l-0.2,0.2c-0.51,0.51-1.19,0.8-1.92,0.8C8.75,10.75,8.29,10.63,7.89,10.41z M19,17 c0,0.55-0.45,1-1,1s-1-0.45-1-1v-2h-6v-2.59c0.57-0.23,1.1-0.57,1.56-1.03l0.2-0.2L15.59,14H17v-1.41l-6-5.97V6h8V17z"/></g></g></g></symbol>
<symbol id="king_bed" viewBox="0 0 24 24"><g><rect fill="none" height="24" width="24"/></g><g><g><rect height="3" opacity=".3" width="16" x="4" y="12"/><path d="M20,10V7c0-1.1-0.9-2-2-2H6C4.9,5,4,5.9,4,7v3c-1.1,0-2,0.9-2,2v5h1.33L4,19h1l0.67-2h12.67L19,19h1l0.67-2H22v-5 C22,10.9,21.1,10,20,10z M13,7h5v3h-5V7z M6,7h5v3H6V7z M20,15H4v-3h16V15z"/></g></g></symbol>
<symbol id="location_city" viewBox="0 0 24 24"><path d="M0 0h24v24H0V0z" fill="none"/><path d="M15 11V5l-3-3-3 3v2H3v14h18V11h-6zm-8 8H5v-2h2v2zm0-4H5v-2h2v2zm0-4H5V9h2v2zm6 8h-2v-2h2v2zm0-4h-2v-2h2v2zm0-4h-2V9h2v2zm0-4h-2V5h2v2zm6 12h-2v-2h2v2zm0-4h-2v-2h2v2z"/></symbol>
<symbol id="luggage" viewBox="0 0 24 24"><rect fill="none" height="24" width="24"/><g opacity=".3"><path d="M7,8v11h10V8H7z M9.5,18H8V9h1.5V18z M12.75,18h-1.5V9h1.5V18z M16,18h-1.5V9H16V18z"/></g><g><path d="M9.5,18H8V9h1.5V18z M12.75,18h-1.5V9h1.5V18z M16,18h-1.5V9H16V18z M17,6h-2V3c0-0.55-0.45-1-1-1h-4C9.45,2,9,2.45,9,3v3 H7C5.9,6,5,6.9,5,8v11c0,1.1,0.9,2,2,2c0,0.55,0.45,1,1,1s1-0.45,1-1h6c0,0.55,0.45,1,1,1s1-0.45,1-1c1.1,0,2-0.9,2-2V8 C19,6.9,18.1,6,17,6z M10.5,3.5h3V6h-3V3.5z M17,19H7V8h10V19z"/></g></symbol>
<symbol id="masks" viewBox="0 0 24 24"><rect fill="none" height="24" width="24"/><path d="M14.34,8.78C13.52,8.33,12.93,8,12,8c-0.93,0-1.52,0.33-2.34,0.77C8.95,9.16,8.12,9.62,7,9.85v1.65 c0,2.76,2.24,5,5,5s5-2.24,5-5V9.85C15.88,9.62,15.05,9.16,14.34,8.78z M15,11.25c-0.75-0.21-1.26-0.51-1.71-0.78 C12.83,10.2,12.49,10,12,10c-0.49,0-0.84,0.2-1.31,0.48c-0.44,0.26-0.96,0.56-1.69,0.76V10.2c0.48-0.17,0.84-0.38,1.18-0.58 C10.72,9.3,11.23,9,12,9s1.27,0.3,1.8,0.62c0.34,0.2,0.71,0.42,1.2,0.59V11.25z" opacity=".3"/><path d="M19.5,6c-1.31,0-2.37,1.01-2.48,2.3C15.14,7.8,14.18,6.5,12,6.5c-2.19,0-3.14,1.3-5.02,1.8C6.87,7.02,5.81,6,4.5,6 C3.12,6,2,7.12,2,8.5V9c0,6,3.6,7.81,6.52,7.98C9.53,17.62,10.72,18,12,18s2.47-0.38,3.48-1.02C18.4,16.81,22,15,22,9V8.5 C22,7.12,20.88,6,19.5,6z M3.5,9V8.5c0-0.55,0.45-1,1-1s1,0.45,1,1v3c0,1.28,0.38,2.47,1.01,3.48C4.99,14.27,3.5,12.65,3.5,9z M7,11.5V9.85c1.12-0.23,1.95-0.69,2.66-1.08C10.48,8.33,11.07,8,12,8c0.93,0,1.52,0.33,2.34,0.78c0.71,0.39,1.54,0.84,2.66,1.08 v1.65c0,2.76-2.24,5-5,5S7,14.26,7,11.5z M20.5,9c0,3.65-1.49,5.27-3.01,5.98c0.64-1.01,1.01-2.2,1.01-3.48v-3c0-0.55,0.45-1,1-1 s1,0.45,1,1V9z M10.69,10.48c-0.44,0.26-0.96,0.56-1.69,0.76V10.2c0.48-0.17,0.84-0.38,1.18-0.58C10.72,9.3,11.23,9,12,9 s1.27,0.3,1.8,0.62c0.34,0.2,0.71,0.42,1.2,0.59v1.04c-0.75-0.21-1.26-0.51-1.71-0.78C12.83,10.2,12.49,10,12,10 C11.51,10,11.16,10.2,10.69,10.48z"/></symbol>
<symbol id="military_tech" viewBox="0 0 24 24"><g><rect fill="none" height="24" width="24"/></g><g><g><polygon opacity=".3" points="13,11.07 15,9.87 15,4 13,4"/><polygon opacity=".3" points="9,4 9,9.87 11,11.07 11,4"/><path d="M17,10.43V2H7v8.43c0,0.35,0.18,0.68,0.49,0.86l4.18,2.51l-0.99,2.34l-3.41,0.29l2.59,2.24L9.07,22L12,20.23L14.93,22 l-0.78-3.33l2.59-2.24l-3.41-0.29l-0.99-2.34l4.18-2.51C16.82,11.11,17,10.79,17,10.43z M11,11.07l-2-1.2V4h2V11.07z M15,9.87 l-2,1.2V4h2V9.87z"/></g></g></symbol>
<symbol id="mood" viewBox="0 0 24 24"><path d="M0 0h24v24H0V0z" fill="none"/><path d="M12 4c-4.42 0-8 3.58-8 8s3.58 8 8 8 8-3.58 8-8-3.58-8-8-8zm3.5 4c.83 0 1.5.67 1.5 1.5s-.67 1.5-1.5 1.5-1.5-.67-1.5-1.5.67-1.5 1.5-1.5zm-7 0c.83 0 1.5.67 1.5 1.5S9.33 11 8.5 11 7 10.33 7 9.5 7.67 8 8.5 8zm3.5 9.5c-2.33 0-4.31-1.46-5.11-3.5h10.22c-.8 2.04-2.78 3.5-5.11 3.5z" opacity=".3"/><circle cx="8.5" cy="9.5" r="1.5"/><path d="M11.99 2C6.47 2 2 6.48 2 12s4.47 10 9.99 10C17.52 22 22 17.52 22 12S17.52 2 11.99 2zM12 20c-4.42 0-8-3.58-8-8s3.58-8 8-8 8 3.58 8 8-3.58 8-8 8z"/><circle cx="15.5" cy="9.5" r="1.5"/><path d="M12 17.5c2.33 0 4.31-1.46 5.11-3.5H6.89c.8 2.04 2.78 3.5 5.11 3.5z"/></symbol>
<symbol id="mood_bad" viewBox="0 0 24 24"><path d="M0 0h24v24H0V0z" fill="none"/><path d="M12 4c-4.42 0-8 3.58-8 8s3.58 8 8 8 8-3.58 8-8-3.58-8-8-8zm3.5 4c.83 0 1.5.67 1.5 1.5s-.67 1.5-1.5 1.5-1.5-.67-1.5-1.5.67-1.5 1.5-1.5zm-7 0c.83 0 1.5.67 1.5 1.5S9.33 11 8.5 11 7 10.33 7 9.5 7.67 8 8.5 8zm-1.61 9c.8-2.04 2.78-3.5 5.11-3.5s4.31 1.46 5.11 3.5H6.89z" opacity=".3"/><circle cx="8.5" cy="9.5" r="1.5"/><path d="M11.99 2C6.47 2 2 6.48 2 12s4.47 10 9.99 10C17.52 22 22 17.52 22 12S17.52 2 11.99 2zM12 20c-4.42 0-8-3.58-8-8s3.58-8 8-8 8 3.58 8 8-3.58 8-8 8zm0-6.5c-2.33 0-4.31 1.46-5.11 3.5h10.22c-.8-2.04-2.78-3.5-5.11-3.5z"/><circle cx="15.5" cy="9.5" r="1.5"/></symbol>
<symbol id="nights_stay" viewBox="0 0 24 24"><g><rect fill="none" height="24" width="24"/></g><g><g><path d="M8.1,14.15C9.77,14.63,11,16.17,11,18c0,0.68-0.19,1.31-0.48,1.87c0.48,0.09,0.97,0.14,1.48,0.14 c1.48,0,2.9-0.41,4.13-1.15c-2.62-0.92-5.23-2.82-6.8-5.86C7.74,9.94,7.78,7.09,8.29,4.9c-2.57,1.33-4.3,4.01-4.3,7.1c0,0,0,0,0,0 c0.01,0,0.01,0,0.02,0C5.66,12,7.18,12.83,8.1,14.15z" opacity=".3"/><path d="M19.78,17.51c-2.47,0-6.57-1.33-8.68-5.43C8.77,7.57,10.6,3.6,11.63,2.01C6.27,2.2,1.98,6.59,1.98,12 c0,0.14,0.02,0.28,0.02,0.42C2.61,12.16,3.28,12,3.98,12c0,0,0,0,0,0c0-3.09,1.73-5.77,4.3-7.1C7.78,7.09,7.74,9.94,9.32,13 c1.57,3.04,4.18,4.95,6.8,5.86c-1.23,0.74-2.65,1.15-4.13,1.15c-0.5,0-1-0.05-1.48-0.14c-0.37,0.7-0.94,1.27-1.64,1.64 c0.98,0.32,2.03,0.5,3.11,0.5c3.5,0,6.58-1.8,8.37-4.52C20.18,17.5,19.98,17.51,19.78,17.51z"/><path d="M7,16l-0.18,0C6.4,14.84,5.3,14,4,14c-1.66,0-3,1.34-3,3s1.34,3,3,3c0.62,0,2.49,0,3,0c1.1,0,2-0.9,2-2 C9,16.9,8.1,16,7,16z"/></g></g></symbol>
<symbol id="notifications" viewBox="0 0 24 24"><path d="M0 0h24v24H0V0z" fill="none"/><path d="M12 6.5c-2.49 0-4 2.02-4 4.5v6h8v-6c0-2.48-1.51-4.5-4-4.5z" opacity=".3"/><path d="M12 22c1.1 0 2-.9 2-2h-4c0 1.1.9 2 2 2zm6-6v-5c0-3.07-1.63-5.64-4.5-6.32V4c0-.83-.67-1.5-1.5-1.5s-1.5.67-1.5 1.5v.68C7.64 5.36 6 7.92 6 11v5l-2 2v1h16v-1l-2-2zm-2 1H8v-6c0-2.48 1.51-4.5 4-4.5s4 2.02 4 4.5v6z"/></symbol>
<symbol id="notifications_active" viewBox="0 0 24 24"><path d="M0 0h24v24H0V0z" fill="none"/><path d="M12 6.5c-2.49 0-4 2.02-4 4.5v6h8v-6c0-2.48-1.51-4.5-4-4.5z" opacity=".3"/><path d="M12 22c1.1 0 2-.9 2-2h-4c0 1.1.9 2 2 2zm6-11c0-3.07-1.63-5.64-4.5-6.32V4c0-.83-.67-1.5-1.5-1.5s-1.5.67-1.5 1.5v.68C7.64 5.36 6 7.92 6 11v5l-2 2v1h16v-1l-2-2v-5zm-2 6H8v-6c0-2.48 1.51-4.5 4-4.5s4 2.02 4 4.5v6zM7.58 4.08L6.15 2.65C3.75 4.48 2.17 7.3 2.03 10.5h2c.15-2.65 1.51-4.97 3.55-6.42zm12.39 6.42h2c-.15-3.2-1.73-6.02-4.12-7.85l-1.42 1.43c2.02 1.45 3.39 3.77 3.54 6.42z"/></symbol>
<symbol id="notifications_none" viewBox="0 0 24 24"><path d="M0 0h24v24H0V0z" fill="none"/><path d="M12 6.5c-2.49 0-4 2.02-4 4.5v6h8v-6c0-2.48-1.51-4.5-4-4.5z" opacity=".3"/><path d="M18 16v-5c0-3.07-1.63-5.64-4.5-6.32V4c0-.83-.67-1.5-1.5-1.5s-1.5.67-1.5 1.5v.68C7.64 5.36 6 7.92 6 11v5l-2 2v1h16v-1l-2-2zm-2 1H8v-6c0-2.48 1.51-4.5 4-4.5s4 2.02 4 4.5v6zm-4 5c1.1 0 2-.9 2-2h-4c0 1.1.9 2 2 2z"/></symbol>
<symbol id="notifications_off" viewBox="0 0 24 24"><path d="M0 0h24v24H0V0z" fill="none"/><path d="M8 17h8v-.24L8.34 9.1C8.12 9.68 8 10.32 8 11v6zm4-10.5c-.19 0-.37.03-.55.06L16 11.1V11c0-2.48-1.51-4.5-4-4.5z" opacity=".3"/><path d="M12 22c1.1 0 2-.9 2-2h-4c0 1.1.9 2 2 2zm0-15.5c2.49 0 4 2.02 4 4.5v.1l2 2V11c0-3.07-1.63-5.64-4.5-6.32V4c0-.83-.67-1.5-1.5-1.5s-1.5.67-1.5 1.5v.68c-.24.06-.47.15-.69.23l1.64 1.64c.18-.02.36-.05.55-.05zM5.41 3.35L4 4.76l2.81 2.81C6.29 8.57 6 9.74 6 11v5l-2 2v1h14.24l1.74 1.74 1.41-1.41L5.41 3.35zM16 17H8v-6c0-.68.12-1.32.34-1.9L16 16.76V17z"/></symbol>
<symbol id="notifications_paused" viewBox="0 0 24 24"><path d="M0 0h24v24H0V0z" fill="none"/><path d="M12 6.5c-2.49 0-4 2.02-4 4.5v6h8v-6c0-2.48-1.51-4.5-4-4.5zm2.5 3.3l-2.8 3.4h2.8V15h-5v-1.8l2.8-3.4H9.5V8h5v1.8z" opacity=".3"/><path d="M9.5 9.8h2.8l-2.8 3.4V15h5v-1.8h-2.8l2.8-3.4V8h-5zM18 16v-5c0-3.07-1.63-5.64-4.5-6.32V4c0-.83-.67-1.5-1.5-1.5s-1.5.67-1.5 1.5v.68C7.64 5.36 6 7.92 6 11v5l-2 2v1h16v-1l-2-2zm-2 1H8v-6c0-2.48 1.51-4.5 4-4.5s4 2.02 4 4.5v6zm-4 5c1.1 0 2-.9 2-2h-4c0 1.1.9 2 2 2z"/></symbol>
<symbol id="no_luggage" viewBox="0 0 24 24"><rect fill="none" height="24" width="24"/><g opacity=".3"><g><path d="M16.17,19l-3.42-3.42V18h-1.5v-3.92L9.5,12.33V18H8v-7.17l-1-1V19H16.17z M17,8v6.17l-1-1V9h-1.5v2.67l-1.75-1.75V9h-0.92 l-1-1H17z"/></g></g><g><g><path d="M16,13.17l-1.5-1.5V9H16V13.17z M19.78,22.61l-1.85-1.85C17.65,20.91,17.34,21,17,21c0,0.55-0.45,1-1,1s-1-0.45-1-1H9 c0,0.55-0.45,1-1,1c-0.55,0-1-0.45-1-1c-1.1,0-2-0.9-2-2V8c0-0.05,0.02-0.1,0.02-0.15L1.39,4.22l1.41-1.41l18.38,18.38 L19.78,22.61z M16.17,19l-3.42-3.42V18h-1.5v-3.92L9.5,12.33V18H8v-7.17l-1-1V19H16.17z M12.75,9h-0.92l0.92,0.92V9z M19,8v8.17 l-2-2V8h-6.17L9.84,7.01L9,6.17V6V3c0-0.55,0.45-1,1-1h4c0.55,0,1,0.45,1,1v3h2C18.1,6,19,6.9,19,8z M10.5,6h3V3.5h-3V6z"/></g></g></symbol>
<symbol id="outdoor_grill" viewBox="0 0 24 24"><g><rect fill="none" height="24" width="24"/></g><g><g><path d="M16.58,10H7.42c0.77,1.76,2.54,3,4.58,3S15.81,11.76,16.58,10z" opacity=".3"/><path d="M17,22c1.66,0,3-1.34,3-3s-1.34-3-3-3c-1.3,0-2.4,0.84-2.82,2H9.14l1.99-3.06C11.42,14.98,11.71,15,12,15 s0.58-0.02,0.87-0.06l1.02,1.57c0.42-0.53,0.96-0.95,1.6-1.21l-0.6-0.93C17.31,13.27,19,10.84,19,8H5c0,2.84,1.69,5.27,4.12,6.37 l-3.95,6.08c-0.3,0.46-0.17,1.08,0.29,1.38h0c0.46,0.3,1.08,0.17,1.38-0.29l1-1.55h6.34C14.6,21.16,15.7,22,17,22z M17,18 c0.55,0,1,0.45,1,1c0,0.55-0.45,1-1,1s-1-0.45-1-1C16,18.45,16.45,18,17,18z M7.42,10h9.16c-0.77,1.76-2.54,3-4.58,3 S8.19,11.76,7.42,10z"/><circle cx="17" cy="19" opacity=".3" r="1"/><path d="M9.41,7h1c0.15-1.15,0.23-1.64-0.89-2.96C9.1,3.54,8.84,3.27,9.06,2H8.07C7.86,3.11,8.1,4.05,8.96,4.96 C9.18,5.2,9.75,5.63,9.41,7z"/><path d="M11.89,7h1c0.15-1.15,0.23-1.64-0.89-2.96c-0.42-0.5-0.68-0.78-0.46-2.04h-0.99c-0.21,1.11,0.03,2.05,0.89,2.96 C11.67,5.2,12.24,5.63,11.89,7z"/><path d="M14.41,7h1c0.15-1.15,0.23-1.64-0.89-2.96C14.1,3.54,13.84,3.27,14.06,2h-0.99c-0.21,1.11,0.03,2.05,0.89,2.96 C14.18,5.2,14.75,5.63,14.41,7z"/></g></g></symbol>
<symbol id="pages" viewBox="0 0 24 24"><path d="M0 0h24v24H0V0z" fill="none"/><path d="M7 7l4 1V5H5v6h3zm1 6H5v6h6v-3l-4 1zm9 4l-4-1v3h6v-6h-3zm-4-9l4-1-1 4h3V5h-6z" opacity=".3"/><path d="M19 3H5c-1.1 0-2 .9-2 2v14c0 1.1.9 2 2 2h14c1.1 0 2-.9 2-2V5c0-1.1-.9-2-2-2zM5 5h6v3L7 7l1 4H5V5zm6 14H5v-6h3l-1 4 4-1v3zm-1.63-4.37l.91-2.63-.91-2.63 2.63.91 2.63-.91-.91 2.63.91 2.63-2.63-.91-2.63.91zM19 19h-6v-3l4 1-1-4h3v6zm0-8h-3l1-4-4 1V5h6v6z"/></symbol>
<symbol id="party_mode" viewBox="0 0 24 24"><path d="M0 0h24v24H0V0z" fill="none"/><path d="M15.95 6l-.59-.65L14.12 4H9.88L8.65 5.35l-.6.65H4v12h16V6h-4.05zM7 12c0-2.76 2.24-5 5-5 1.63 0 3.06.79 3.98 2H12c-1.66 0-3 1.34-3 3 0 .35.07.69.18 1H7.1c-.06-.32-.1-.66-.1-1zm10 0c0 2.76-2.24 5-5 5-1.63 0-3.06-.79-3.98-2H12c1.66 0 3-1.34 3-3 0-.35-.07-.69-.18-1h2.08c.07.32.1.66.1 1z" opacity=".3"/><path d="M20 4h-3.17L15 2H9L7.17 4H4c-1.1 0-2 .9-2 2v12c0 1.1.9 2 2 2h16c1.1 0 2-.9 2-2V6c0-1.1-.9-2-2-2zm0 14H4V6h4.05l.59-.65L9.88 4h4.24l1.24 1.35.59.65H20v12zM9 12c0-1.66 1.34-3 3-3h3.98c-.92-1.21-2.35-2-3.98-2-2.76 0-5 2.24-5 5 0 .34.04.68.1 1h2.08c-.11-.31-.18-.65-.18-1zm6 0c0 1.66-1.34 3-3 3H8.02c.92 1.21 2.35 2 3.98 2 2.76 0 5-2.24 5-5 0-.34-.03-.68-.1-1h-2.08c.11.31.18.65.18 1z"/></symbol>
<symbol id="people" viewBox="0 0 24 24"><path d="M0 0h24v24H0V0z" fill="none"/><circle cx="9" cy="8.5" opacity=".3" r="1.5"/><path d="M4.34 17h9.32c-.84-.58-2.87-1.25-4.66-1.25s-3.82.67-4.66 1.25z" opacity=".3"/><path d="M9 12c1.93 0 3.5-1.57 3.5-3.5S10.93 5 9 5 5.5 6.57 5.5 8.5 7.07 12 9 12zm0-5c.83 0 1.5.67 1.5 1.5S9.83 10 9 10s-1.5-.67-1.5-1.5S8.17 7 9 7zm0 6.75c-2.34 0-7 1.17-7 3.5V19h14v-1.75c0-2.33-4.66-3.5-7-3.5zM4.34 17c.84-.58 2.87-1.25 4.66-1.25s3.82.67 4.66 1.25H4.34zm11.7-3.19c1.16.84 1.96 1.96 1.96 3.44V19h4v-1.75c0-2.02-3.5-3.17-5.96-3.44zM15 12c1.93 0 3.5-1.57 3.5-3.5S16.93 5 15 5c-.54 0-1.04.13-1.5.35.63.89 1 1.98 1 3.15s-.37 2.26-1 3.15c.46.22.96.35 1.5.35z"/></symbol>
<symbol id="people_alt" viewBox="0 0 24 24"><g><rect fill="none" height="24" width="24"/></g><g><g/><g><circle cx="9" cy="8" opacity=".3" r="2"/><path d="M9,15c-2.7,0-5.8,1.29-6,2.01L3,18h12v-1C14.8,16.29,11.7,15,9,15z" opacity=".3"/><path d="M16.67,13.13C18.04,14.06,19,15.32,19,17v3h4v-3C23,14.82,19.43,13.53,16.67,13.13z"/><path d="M15,12c2.21,0,4-1.79,4-4c0-2.21-1.79-4-4-4c-0.47,0-0.91,0.1-1.33,0.24C14.5,5.27,15,6.58,15,8s-0.5,2.73-1.33,3.76 C14.09,11.9,14.53,12,15,12z"/><path d="M9,12c2.21,0,4-1.79,4-4c0-2.21-1.79-4-4-4S5,5.79,5,8C5,10.21,6.79,12,9,12z M9,6c1.1,0,2,0.9,2,2c0,1.1-0.9,2-2,2 S7,9.1,7,8C7,6.9,7.9,6,9,6z"/><path d="M9,13c-2.67,0-8,1.34-8,4v3h16v-3C17,14.34,11.67,13,9,13z M15,18H3l0-0.99C3.2,16.29,6.3,15,9,15s5.8,1.29,6,2V18z"/></g></g></symbol>
<symbol id="people_outline" viewBox="0 0 24 24"><path d="M0 0h24v24H0V0z" fill="none"/><circle cx="9" cy="8.5" opacity=".3" r="1.5"/><path d="M4.34 17h9.32c-.84-.58-2.87-1.25-4.66-1.25s-3.82.67-4.66 1.25z" opacity=".3"/><path d="M9 12c1.93 0 3.5-1.57 3.5-3.5S10.93 5 9 5 5.5 6.57 5.5 8.5 7.07 12 9 12zm0-5c.83 0 1.5.67 1.5 1.5S9.83 10 9 10s-1.5-.67-1.5-1.5S8.17 7 9 7zm0 6.75c-2.34 0-7 1.17-7 3.5V19h14v-1.75c0-2.33-4.66-3.5-7-3.5zM4.34 17c.84-.58 2.87-1.25 4.66-1.25s3.82.67 4.66 1.25H4.34zm11.7-3.19c1.16.84 1.96 1.96 1.96 3.44V19h4v-1.75c0-2.02-3.5-3.17-5.96-3.44zM15 12c1.93 0 3.5-1.57 3.5-3.5S16.93 5 15 5c-.54 0-1.04.13-1.5.35.63.89 1 1.98 1 3.15s-.37 2.26-1 3.15c.46.22.96.35 1.5.35z"/></symbol>
<symbol id="person" viewBox="0 0 24 24"><path d="M0 0h24v24H0V0z" fill="none"/><path d="M12 16c-2.69 0-5.77 1.28-6 2h12c-.2-.71-3.3-2-6-2z" opacity=".3"/><circle cx="12" cy="8" opacity=".3" r="2"/><path d="M12 14c-2.67 0-8 1.34-8 4v2h16v-2c0-2.66-5.33-4-8-4zm-6 4c.22-.72 3.31-2 6-2 2.7 0 5.8 1.29 6 2H6zm6-6c2.21 0 4-1.79 4-4s-1.79-4-4-4-4 1.79-4 4 1.79 4 4 4zm0-6c1.1 0 2 .9 2 2s-.9 2-2 2-2-.9-2-2 .9-2 2-2z"/></symbol>
<symbol id="person_add" viewBox="0 0 24 24"><path d="M0 0h24v24H0V0z" fill="none"/><path d="M15 16c-2.69 0-5.77 1.28-6 2h12c-.2-.71-3.3-2-6-2z" opacity=".3"/><circle cx="15" cy="8" opacity=".3" r="2"/><path d="M15 12c2.21 0 4-1.79 4-4s-1.79-4-4-4-4 1.79-4 4 1.79 4 4 4zm0-6c1.1 0 2 .9 2 2s-.9 2-2 2-2-.9-2-2 .9-2 2-2zm0 8c-2.67 0-8 1.34-8 4v2h16v-2c0-2.66-5.33-4-8-4zm-6 4c.22-.72 3.31-2 6-2 2.7 0 5.8 1.29 6 2H9zm-3-3v-3h3v-2H6V7H4v3H1v2h3v3z"/></symbol>
<symbol id="person_add_alt_1" viewBox="0 0 24 24"><g><rect fill="none" height="24" width="24"/></g><g><g><circle cx="9" cy="8" opacity=".3" r="2"/><path d="M9,16c-2.7,0-5.8,1.29-6,2h12C14.78,17.28,11.69,16,9,16z" opacity=".3"/><path d="M9,14c-2.67,0-8,1.34-8,4v2h16v-2C17,15.34,11.67,14,9,14z M3,18c0.2-0.71,3.3-2,6-2c2.69,0,5.78,1.28,6,2H3z"/><polygon points="20,10 20,7 18,7 18,10 15,10 15,12 18,12 18,15 20,15 20,12 23,12 23,10"/><path d="M9,12c2.21,0,4-1.79,4-4c0-2.21-1.79-4-4-4S5,5.79,5,8C5,10.21,6.79,12,9,12z M9,6c1.1,0,2,0.9,2,2c0,1.1-0.9,2-2,2 S7,9.1,7,8C7,6.9,7.9,6,9,6z"/></g></g></symbol>
<symbol id="person_outline" viewBox="0 0 24 24"><path d="M0 0h24v24H0V0z" fill="none"/><circle cx="12" cy="8" opacity=".3" r="2.1"/><path d="M12 14.9c-2.97 0-6.1 1.46-6.1 2.1v1.1h12.2V17c0-.64-3.13-2.1-6.1-2.1z" opacity=".3"/><path d="M12 13c-2.67 0-8 1.34-8 4v3h16v-3c0-2.66-5.33-4-8-4zm6.1 5.1H5.9V17c0-.64 3.13-2.1 6.1-2.1s6.1 1.46 6.1 2.1v1.1zM12 12c2.21 0 4-1.79 4-4s-1.79-4-4-4-4 1.79-4 4 1.79 4 4 4zm0-6.1c1.16 0 2.1.94 2.1 2.1 0 1.16-.94 2.1-2.1 2.1S9.9 9.16 9.9 8c0-1.16.94-2.1 2.1-2.1z"/></symbol>
<symbol id="person_remove" viewBox="0 0 24 24"><g><rect fill="none" height="24" width="24"/></g><g><g><path d="M10,16c2.69,0,5.77,1.28,6,2H4C4.2,17.29,7.3,16,10,16z" opacity=".3"/><circle cx="10" cy="8" opacity=".3" r="2"/><path d="M14,8c0-2.21-1.79-4-4-4C7.79,4,6,5.79,6,8c0,2.21,1.79,4,4,4C12.21,12,14,10.21,14,8z M12,8c0,1.1-0.9,2-2,2 c-1.1,0-2-0.9-2-2s0.9-2,2-2C11.1,6,12,6.9,12,8z"/><path d="M2,18v2h16v-2c0-2.66-5.33-4-8-4C7.33,14,2,15.34,2,18z M4,18c0.2-0.71,3.3-2,6-2c2.69,0,5.77,1.28,6,2H4z"/><rect height="2" width="6" x="17" y="10"/></g></g></symbol>
<symbol id="person_remove_alt_1" viewBox="0 0 24 24"><g><rect fill="none" height="24" width="24"/></g><g><g><path d="M10,16c2.69,0,5.77,1.28,6,2H4C4.2,17.29,7.3,16,10,16z" opacity=".3"/><circle cx="10" cy="8" opacity=".3" r="2"/><path d="M14,8c0-2.21-1.79-4-4-4C7.79,4,6,5.79,6,8c0,2.21,1.79,4,4,4C12.21,12,14,10.21,14,8z M12,8c0,1.1-0.9,2-2,2 c-1.1,0-2-0.9-2-2s0.9-2,2-2C11.1,6,12,6.9,12,8z"/><path d="M2,18v2h16v-2c0-2.66-5.33-4-8-4C7.33,14,2,15.34,2,18z M4,18c0.2-0.71,3.3-2,6-2c2.69,0,5.77,1.28,6,2H4z"/><rect height="2" width="6" x="17" y="10"/></g></g></symbol>
<symbol id="plus_one" viewBox="0 0 24 24"><path d="M0 0h24v24H0V0z" fill="none"/><path d="M10 8H8v4H4v2h4v4h2v-4h4v-2h-4V8zm4.5-1.92V7.9l2.5-.5V18h2V5l-4.5 1.08z"/></symbol>
<symbol id="poll" viewBox="0 0 24 24"><path d="M0 0h24v24H0V0z" fill="none"/><path d="M5 19h14V5H5v14zm10-6h2v4h-2v-4zm-4-6h2v10h-2V7zm-4 3h2v7H7v-7z" opacity=".3"/><path d="M19 3H5c-1.1 0-2 .9-2 2v14c0 1.1.9 2 2 2h14c1.1 0 2-.9 2-2V5c0-1.1-.9-2-2-2zm0 16H5V5h14v14zM7 10h2v7H7zm4-3h2v10h-2zm4 6h2v4h-2z"/></symbol>
<symbol id="precision_manufacturing" viewBox="0 0 24 24"><g><rect fill="none" height="24" width="24"/></g><g><g><polygon opacity=".3" points="6.71,10 9.17,18 11.11,18 6.81,10"/><circle cx="6" cy="7" opacity=".3" r="1"/><path d="M19.93,8.35l-3.6,1.68L14,7.7V6.3l2.33-2.33l3.6,1.68c0.38,0.18,0.82,0.01,1-0.36c0.18-0.38,0.01-0.82-0.36-1l-3.92-1.83 c-0.38-0.18-0.83-0.1-1.13,0.2L13.78,4.4C13.6,4.16,13.32,4,13,4c-0.55,0-1,0.45-1,1v1H8.82C8.4,4.84,7.3,4,6,4C4.34,4,3,5.34,3,7 c0,1.1,0.6,2.05,1.48,2.58L7.08,18H6c-1.1,0-2,0.9-2,2v1h13v-1c0-1.1-0.9-2-2-2h-1.62L8.41,8.77C8.58,8.53,8.72,8.28,8.82,8H12v1 c0,0.55,0.45,1,1,1c0.32,0,0.6-0.16,0.78-0.4l1.74,1.74c0.3,0.3,0.75,0.38,1.13,0.2l3.92-1.83c0.38-0.18,0.54-0.62,0.36-1 C20.75,8.34,20.31,8.17,19.93,8.35z M6,8C5.45,8,5,7.55,5,7c0-0.55,0.45-1,1-1s1,0.45,1,1C7,7.55,6.55,8,6,8z M11.11,18H9.17 l-2.46-8h0.1L11.11,18z"/></g></g></symbol>
<symbol id="psychology" viewBox="0 0 24 24"><g><rect fill="none" height="24" width="24"/></g><g><g><path d="M13,5c-2.65,0-4.79,2.06-4.97,4.67L6.7,12H8v4h3v3h3v-3.95l0.89-0.43C16.71,13.88,18,12.09,18,10 C18,7.24,15.76,5,13,5z M16.82,8.95l-0.85,0.66C15.99,9.73,16,9.86,16,10c0,0.13-0.01,0.26-0.02,0.39l0.83,0.66 c0.08,0.06,0.1,0.16,0.05,0.25l-0.8,1.39c-0.05,0.09-0.16,0.12-0.24,0.09l-0.99-0.4c-0.21,0.16-0.43,0.29-0.67,0.39L14,13.83 c-0.01,0.1-0.1,0.17-0.2,0.17h-1.6c-0.1,0-0.18-0.07-0.2-0.17l-0.15-1.06c-0.25-0.1-0.47-0.23-0.68-0.39l-0.99,0.4 c-0.09,0.03-0.2,0-0.25-0.09l-0.8-1.39c-0.05-0.08-0.03-0.19,0.05-0.25l0.84-0.66C10.01,10.26,10,10.13,10,10 c0-0.13,0.02-0.27,0.04-0.39L9.19,8.95c-0.08-0.06-0.1-0.16-0.05-0.26l0.8-1.38c0.05-0.09,0.15-0.12,0.24-0.09l1,0.4 c0.2-0.15,0.43-0.29,0.67-0.39l0.15-1.06C12.02,6.07,12.1,6,12.2,6h1.6c0.1,0,0.18,0.07,0.2,0.17l0.15,1.06 c0.24,0.1,0.46,0.23,0.67,0.39l1-0.4c0.09-0.03,0.2,0,0.24,0.09l0.8,1.38C16.91,8.78,16.89,8.89,16.82,8.95z" opacity=".3"/><path d="M15.82,7.22l-1,0.4c-0.21-0.16-0.43-0.29-0.67-0.39L14,6.17C13.98,6.07,13.9,6,13.8,6h-1.6c-0.1,0-0.18,0.07-0.19,0.17 l-0.15,1.06c-0.24,0.1-0.47,0.23-0.67,0.39l-1-0.4c-0.09-0.03-0.2,0-0.24,0.09l-0.8,1.38c-0.05,0.09-0.03,0.2,0.05,0.26l0.85,0.66 C10.02,9.73,10,9.87,10,10c0,0.13,0.01,0.26,0.03,0.39l-0.84,0.66c-0.08,0.06-0.1,0.17-0.05,0.25l0.8,1.39 c0.05,0.09,0.15,0.12,0.25,0.09l0.99-0.4c0.21,0.16,0.43,0.29,0.68,0.39L12,13.83c0.02,0.1,0.1,0.17,0.2,0.17h1.6 c0.1,0,0.18-0.07,0.2-0.17l0.15-1.06c0.24-0.1,0.47-0.23,0.67-0.39l0.99,0.4c0.09,0.04,0.2,0,0.24-0.09l0.8-1.39 c0.05-0.09,0.03-0.19-0.05-0.25l-0.83-0.66C15.99,10.26,16,10.13,16,10c0-0.14-0.01-0.27-0.03-0.39l0.85-0.66 c0.08-0.06,0.1-0.17,0.05-0.26l-0.8-1.38C16.02,7.22,15.91,7.19,15.82,7.22z M13,11.43c-0.79,0-1.43-0.64-1.43-1.43 S12.21,8.57,13,8.57s1.43,0.64,1.43,1.43S13.79,11.43,13,11.43z"/><path d="M19.94,9.06c-0.43-3.27-3.23-5.86-6.53-6.05C13.27,3,13.14,3,13,3C9.47,3,6.57,5.61,6.08,9l-1.93,3.48 C3.74,13.14,4.22,14,5,14h1v2c0,1.1,0.9,2,2,2h1v3h7v-4.68C18.62,15.07,20.35,12.24,19.94,9.06z M14.89,14.63L14,15.05V19h-3v-3H8 v-4H6.7l1.33-2.33C8.21,7.06,10.35,5,13,5c2.76,0,5,2.24,5,5C18,12.09,16.71,13.88,14.89,14.63z"/></g></g></symbol>
<symbol id="public" viewBox="0 0 24 24"><path d="M0 0h24v24H0V0z" fill="none"/><path d="M14.99 4.59V5c0 1.1-.9 2-2 2h-2v2c0 .55-.45 1-1 1h-2v2h6c.55 0 1 .45 1 1v3h1c.89 0 1.64.59 1.9 1.4C19.19 15.98 20 14.08 20 12c0-3.35-2.08-6.23-5.01-7.41zM8.99 16v-1l-4.78-4.78C4.08 10.79 4 11.39 4 12c0 4.07 3.06 7.43 6.99 7.93V18c-1.1 0-2-.9-2-2z" opacity=".3"/><path d="M12 2C6.48 2 2 6.48 2 12s4.48 10 10 10 10-4.48 10-10S17.52 2 12 2zm-1.01 17.93C7.06 19.43 4 16.07 4 12c0-.61.08-1.21.21-1.78L8.99 15v1c0 1.1.9 2 2 2v1.93zm6.9-2.53c-.26-.81-1-1.4-1.9-1.4h-1v-3c0-.55-.45-1-1-1h-6v-2h2c.55 0 1-.45 1-1V7h2c1.1 0 2-.9 2-2v-.41C17.92 5.77 20 8.65 20 12c0 2.08-.81 3.98-2.11 5.4z"/></symbol>
<symbol id="public_off" viewBox="0 0 24 24"><g><rect fill="none" height="24" width="24"/><path d="M11,8.17l7.88,7.88C19.59,14.87,20,13.48,20,12c0-3.35-2.07-6.22-5-7.41V5c0,1.1-0.9,2-2,2h-2V8.17z M11,18 c-1.1,0-2-0.9-2-2v-1l-4.79-4.79C4.08,10.79,4,11.38,4,12c0,4.08,3.05,7.44,7,7.93V18z" opacity=".3"/><path d="M11,8.17L6.49,3.66C8.07,2.61,9.96,2,12,2c5.52,0,10,4.48,10,10c0,2.04-0.61,3.93-1.66,5.51l-1.46-1.46 C19.59,14.87,20,13.48,20,12c0-3.35-2.07-6.22-5-7.41V5c0,1.1-0.9,2-2,2h-2V8.17z M21.19,21.19l-1.41,1.41l-2.27-2.27 C15.93,21.39,14.04,22,12,22C6.48,22,2,17.52,2,12c0-2.04,0.61-3.93,1.66-5.51L1.39,4.22l1.41-1.41L21.19,21.19z M11,18 c-1.1,0-2-0.9-2-2v-1l-4.79-4.79C4.08,10.79,4,11.38,4,12c0,4.08,3.05,7.44,7,7.93V18z"/></g></symbol>
<symbol id="reduce_capacity" viewBox="0 0 24 24"><rect fill="none" height="24" width="24"/><path d="M16,4c0-1.1,0.9-2,2-2s2,0.9,2,2s-0.9,2-2,2S16,5.1,16,4z M20.78,7.58C19.93,7.21,18.99,7,18,7c-0.67,0-1.31,0.1-1.92,0.28 C16.66,7.83,17,8.6,17,9.43V10h5V9.43C22,8.62,21.52,7.9,20.78,7.58z M6,6c1.1,0,2-0.9,2-2S7.1,2,6,2S4,2.9,4,4S4.9,6,6,6z M7.92,7.28C7.31,7.1,6.67,7,6,7C5.01,7,4.07,7.21,3.22,7.58C2.48,7.9,2,8.62,2,9.43V10h5V9.43C7,8.6,7.34,7.83,7.92,7.28z M10,4 c0-1.1,0.9-2,2-2s2,0.9,2,2s-0.9,2-2,2S10,5.1,10,4z M16,10H8V9.43C8,8.62,8.48,7.9,9.22,7.58C10.07,7.21,11.01,7,12,7 c0.99,0,1.93,0.21,2.78,0.58C15.52,7.9,16,8.62,16,9.43V10z M15,16c0-1.1,0.9-2,2-2s2,0.9,2,2s-0.9,2-2,2S15,17.1,15,16z M21,22h-8 v-0.57c0-0.81,0.48-1.53,1.22-1.85C15.07,19.21,16.01,19,17,19c0.99,0,1.93,0.21,2.78,0.58C20.52,19.9,21,20.62,21,21.43V22z M5,16 c0-1.1,0.9-2,2-2s2,0.9,2,2s-0.9,2-2,2S5,17.1,5,16z M11,22H3v-0.57c0-0.81,0.48-1.53,1.22-1.85C5.07,19.21,6.01,19,7,19 c0.99,0,1.93,0.21,2.78,0.58C10.52,19.9,11,20.62,11,21.43V22z M12.75,13v-2h-1.5v2H9l3,3l3-3H12.75z"/></symbol>
<symbol id="sanitizer" viewBox="0 0 24 24"><rect fill="none" height="24" width="24"/><path d="M10,8c-2.21,0-4,1.79-4,4v8h8v-8C14,9.79,12.21,8,10,8z M13,16h-2v2H9v-2H7v-2h2v-2h2v2h2V16z" opacity=".3"/><path d="M15.5,6.5C15.5,5.66,17,4,17,4s1.5,1.66,1.5,2.5C18.5,7.33,17.83,8,17,8S15.5,7.33,15.5,6.5z M19.5,15 c1.38,0,2.5-1.12,2.5-2.5c0-1.67-2.5-4.5-2.5-4.5S17,10.83,17,12.5C17,13.88,18.12,15,19.5,15z M13,14h-2v-2H9v2H7v2h2v2h2v-2h2V14z M16,12v8c0,1.1-0.9,2-2,2H6c-1.1,0-2-0.9-2-2v-8c0-2.97,2.16-5.43,5-5.91V4H7V2h6c1.13,0,2.15,0.39,2.99,1.01l-1.43,1.43 C14.1,4.17,13.57,4,13,4h-2v2.09C13.84,6.57,16,9.03,16,12z M14,12c0-2.21-1.79-4-4-4s-4,1.79-4,4v8h8V12z"/></symbol>
<symbol id="school" viewBox="0 0 24 24"><path d="M0 0h24v24H0V0z" fill="none"/><path d="M7 12.27v3.72l5 2.73 5-2.73v-3.72L12 15zM5.18 9L12 12.72 18.82 9 12 5.28z" opacity=".3"/><path d="M12 3L1 9l4 2.18v6L12 21l7-3.82v-6l2-1.09V17h2V9L12 3zm5 12.99l-5 2.73-5-2.73v-3.72L12 15l5-2.73v3.72zm-5-3.27L5.18 9 12 5.28 18.82 9 12 12.72z"/></symbol>
<symbol id="science" viewBox="0 0 24 24"><g><rect fill="none" height="24" width="24"/></g><g><g><polygon opacity=".3" points="13,6 11,6 11,11.33 6,18 18,18 13,11.33"/><path d="M20.8,18.4L15,10.67V6.5l1.35-1.69C16.61,4.48,16.38,4,15.96,4H8.04C7.62,4,7.39,4.48,7.65,4.81L9,6.5v4.17L3.2,18.4 C2.71,19.06,3.18,20,4,20h16C20.82,20,21.29,19.06,20.8,18.4z M6,18l5-6.67V6h2v5.33L18,18H6z"/></g></g></symbol>
<symbol id="self_improvement" viewBox="0 0 24 24"><g><rect fill="none" height="24" width="24"/></g><g><g><circle cx="12" cy="6" r="2"/><path d="M21,16v-2c-2.24,0-4.16-0.96-5.6-2.68l-1.34-1.6C13.68,9.26,13.12,9,12.53,9h-1.05c-0.59,0-1.15,0.26-1.53,0.72l-1.34,1.6 C7.16,13.04,5.24,14,3,14v2c2.77,0,5.19-1.17,7-3.25V15l-3.88,1.55C5.45,16.82,5,17.48,5,18.21C5,19.2,5.8,20,6.79,20H9v-0.5 c0-1.38,1.12-2.5,2.5-2.5h3c0.28,0,0.5,0.22,0.5,0.5S14.78,18,14.5,18h-3c-0.83,0-1.5,0.67-1.5,1.5V20h7.21 C18.2,20,19,19.2,19,18.21c0-0.73-0.45-1.39-1.12-1.66L14,15v-2.25C15.81,14.83,18.23,16,21,16z"/></g></g></symbol>
<symbol id="sentiment_dissatisfied" viewBox="0 0 24 24"><path d="M0 0h24v24H0V0z" fill="none"/><path d="M12 4c-4.42 0-8 3.58-8 8s3.58 8 8 8 8-3.58 8-8-3.58-8-8-8zm3.5 4c.83 0 1.5.67 1.5 1.5s-.67 1.5-1.5 1.5-1.5-.67-1.5-1.5.67-1.5 1.5-1.5zm-7 0c.83 0 1.5.67 1.5 1.5S9.33 11 8.5 11 7 10.33 7 9.5 7.67 8 8.5 8zm6.95 9.5c-.7-1.19-1.97-2-3.45-2s-2.76.81-3.45 2H6.88C7.68 15.45 9.67 14 12 14s4.32 1.45 5.12 3.5h-1.67z" opacity=".3"/><circle cx="15.5" cy="9.5" r="1.5"/><circle cx="8.5" cy="9.5" r="1.5"/><path d="M11.99 2C6.47 2 2 6.48 2 12s4.47 10 9.99 10C17.52 22 22 17.52 22 12S17.52 2 11.99 2zM12 20c-4.42 0-8-3.58-8-8s3.58-8 8-8 8 3.58 8 8-3.58 8-8 8zm0-6c-2.33 0-4.32 1.45-5.12 3.5h1.67c.69-1.19 1.97-2 3.45-2s2.75.81 3.45 2h1.67c-.8-2.05-2.79-3.5-5.12-3.5z"/></symbol>
<symbol id="sentiment_neutral" viewBox="0 0 24 24"><path d="M0 0h24v24H0V0z" fill="none"/><path d="M12 4c-4.42 0-8 3.58-8 8s3.58 8 8 8 8-3.58 8-8-3.58-8-8-8zM7 9.5C7 8.67 7.67 8 8.5 8s1.5.67 1.5 1.5S9.33 11 8.5 11 7 10.33 7 9.5zm8 6H9V14h6v1.5zm.5-4.5c-.83 0-1.5-.67-1.5-1.5S14.67 8 15.5 8s1.5.67 1.5 1.5-.67 1.5-1.5 1.5z" opacity=".3"/><path d="M9 14h6v1.5H9z"/><circle cx="15.5" cy="9.5" r="1.5"/><circle cx="8.5" cy="9.5" r="1.5"/><path d="M11.99 2C6.47 2 2 6.48 2 12s4.47 10 9.99 10C17.52 22 22 17.52 22 12S17.52 2 11.99 2zM12 20c-4.42 0-8-3.58-8-8s3.58-8 8-8 8 3.58 8 8-3.58 8-8 8z"/></symbol>
<symbol id="sentiment_satisfied" viewBox="0 0 24 24"><path d="M0 0h24v24H0V0z" fill="none"/><path d="M12 4c-4.42 0-8 3.58-8 8s3.58 8 8 8 8-3.58 8-8-3.58-8-8-8zm3.5 4c.83 0 1.5.67 1.5 1.5s-.67 1.5-1.5 1.5-1.5-.67-1.5-1.5.67-1.5 1.5-1.5zm-7 0c.83 0 1.5.67 1.5 1.5S9.33 11 8.5 11 7 10.33 7 9.5 7.67 8 8.5 8zm3.5 9.5c-2.33 0-4.32-1.45-5.12-3.5h1.67c.7 1.19 1.97 2 3.45 2s2.75-.81 3.45-2h1.67c-.8 2.05-2.79 3.5-5.12 3.5z" opacity=".3"/><circle cx="15.5" cy="9.5" r="1.5"/><circle cx="8.5" cy="9.5" r="1.5"/><path d="M12 16c-1.48 0-2.75-.81-3.45-2H6.88c.8 2.05 2.79 3.5 5.12 3.5s4.32-1.45 5.12-3.5h-1.67c-.7 1.19-1.97 2-3.45 2zm-.01-14C6.47 2 2 6.48 2 12s4.47 10 9.99 10C17.52 22 22 17.52 22 12S17.52 2 11.99 2zM12 20c-4.42 0-8-3.58-8-8s3.58-8 8-8 8 3.58 8 8-3.58 8-8 8z"/></symbol>
<symbol id="sentiment_very_dissatisfied" viewBox="0 0 24 24"><path d="M0 0h24v24H0V0z" fill="none"/><path d="M12 4c-4.42 0-8 3.58-8 8s3.58 8 8 8 8-3.58 8-8-3.58-8-8-8zM6.76 8.82l1.06-1.06 1.06 1.06 1.06-1.06L11 8.82 9.94 9.88 11 10.94 9.94 12l-1.06-1.06L7.82 12l-1.06-1.06 1.06-1.06-1.06-1.06zM6.89 17c.8-2.04 2.78-3.5 5.11-3.5s4.31 1.46 5.11 3.5H6.89zm10.35-6.06L16.18 12l-1.06-1.06L14.06 12 13 10.94l1.06-1.06L13 8.82l1.06-1.06 1.06 1.06 1.06-1.06 1.06 1.06-1.06 1.06 1.06 1.06z" opacity=".3"/><path d="M12 13.5c-2.33 0-4.31 1.46-5.11 3.5h10.22c-.8-2.04-2.78-3.5-5.11-3.5zM7.82 12l1.06-1.06L9.94 12 11 10.94 9.94 9.88 11 8.82 9.94 7.76 8.88 8.82 7.82 7.76 6.76 8.82l1.06 1.06-1.06 1.06zm4.17-10C6.47 2 2 6.47 2 12s4.47 10 9.99 10S22 17.53 22 12 17.52 2 11.99 2zM12 20c-4.42 0-8-3.58-8-8s3.58-8 8-8 8 3.58 8 8-3.58 8-8 8zm4.18-12.24l-1.06 1.06-1.06-1.06L13 8.82l1.06 1.06L13 10.94 14.06 12l1.06-1.06L16.18 12l1.06-1.06-1.06-1.06 1.06-1.06z"/></symbol>
<symbol id="sentiment_very_satisfied" viewBox="0 0 24 24"><path d="M0 0h24v24H0V0z" fill="none"/><path d="M12 4c-4.42 0-8 3.58-8 8s3.58 8 8 8 8-3.58 8-8-3.58-8-8-8zM8.88 7.82L11 9.94 9.94 11 8.88 9.94 7.82 11 6.76 9.94l2.12-2.12zM12 17.5c-2.33 0-4.31-1.46-5.11-3.5h10.22c-.8 2.04-2.78 3.5-5.11 3.5zm4.18-6.5l-1.06-1.06L14.06 11 13 9.94l2.12-2.12 2.12 2.12L16.18 11z" opacity=".3"/><path d="M8.88 9.94L9.94 11 11 9.94 8.88 7.82 6.76 9.94 7.82 11zm4.12 0L14.06 11l1.06-1.06L16.18 11l1.06-1.06-2.12-2.12zM11.99 2C6.47 2 2 6.47 2 12s4.47 10 9.99 10S22 17.53 22 12 17.52 2 11.99 2zM12 20c-4.42 0-8-3.58-8-8s3.58-8 8-8 8 3.58 8 8-3.58 8-8 8zm0-2.5c2.33 0 4.31-1.46 5.11-3.5H6.89c.8 2.04 2.78 3.5 5.11 3.5z"/></symbol>
<symbol id="share" viewBox="0 0 24 24"><path d="M0 0h24v24H0V0z" fill="none"/><circle cx="18" cy="5" opacity=".3" r="1"/><circle cx="6" cy="12" opacity=".3" r="1"/><circle cx="18" cy="19.02" opacity=".3" r="1"/><path d="M18 16.08c-.76 0-1.44.3-1.96.77L8.91 12.7c.05-.23.09-.46.09-.7s-.04-.47-.09-.7l7.05-4.11c.54.5 1.25.81 2.04.81 1.66 0 3-1.34 3-3s-1.34-3-3-3-3 1.34-3 3c0 .24.04.47.09.7L8.04 9.81C7.5 9.31 6.79 9 6 9c-1.66 0-3 1.34-3 3s1.34 3 3 3c.79 0 1.5-.31 2.04-.81l7.12 4.16c-.05.21-.08.43-.08.65 0 1.61 1.31 2.92 2.92 2.92s2.92-1.31 2.92-2.92c0-1.61-1.31-2.92-2.92-2.92zM18 4c.55 0 1 .45 1 1s-.45 1-1 1-1-.45-1-1 .45-1 1-1zM6 13c-.55 0-1-.45-1-1s.45-1 1-1 1 .45 1 1-.45 1-1 1zm12 7.02c-.55 0-1-.45-1-1s.45-1 1-1 1 .45 1 1-.45 1-1 1z"/></symbol>
<symbol id="sick" viewBox="0 0 24 24"><rect fill="none" height="24" width="24"/><path d="M7.32,10.56L8.38,9.5L7.32,8.44l1.06-1.06L10.5,9.5l-2.12,2.12L7.32,10.56z M4.5,9c0.03,0,0.05,0.01,0.08,0.01 C5.77,6.07,8.64,4,12,4c2.19,0,4.16,0.88,5.61,2.3c0.15-0.6,0.45-1.29,0.81-1.96C16.68,2.88,14.44,2,11.99,2 c-4.88,0-8.94,3.51-9.81,8.14C2.74,9.44,3.59,9,4.5,9z M21,10.5c-0.42,0-0.82-0.09-1.19-0.22C19.93,10.83,20,11.41,20,12 c0,4.42-3.58,8-8,8c-3.36,0-6.23-2.07-7.42-5.01C4.55,14.99,4.53,15,4.5,15c-0.52,0-1.04-0.14-1.5-0.4 c-0.32-0.18-0.59-0.42-0.82-0.7c0.89,4.61,4.93,8.1,9.8,8.1C17.52,22,22,17.52,22,12c0-0.55-0.06-1.09-0.14-1.62 C21.58,10.45,21.3,10.5,21,10.5z M21,3c0,0-2,2.9-2,4c0,1.1,0.9,2,2,2s2-0.9,2-2C23,5.9,21,3,21,3z M15.62,7.38L13.5,9.5l2.12,2.12 l1.06-1.06L15.62,9.5l1.06-1.06L15.62,7.38z M8.56,17c0.69-1.19,1.97-2,3.44-2s2.75,0.81,3.44,2h1.68c-0.8-2.05-2.79-3.5-5.12-3.5 c-0.87,0-1.7,0.2-2.43,0.57l0,0L5.99,12c0-0.52-0.26-1.02-0.74-1.29c-0.72-0.41-1.63-0.17-2.05,0.55c-0.41,0.72-0.17,1.63,0.55,2.05 c0.48,0.28,1.05,0.25,1.49,0l2.97,1.72l0,0C7.64,15.56,7.18,16.24,6.88,17H8.56z"/></symbol>
<symbol id="single_bed" viewBox="0 0 24 24"><g><rect fill="none" height="24" width="24"/></g><g><g><rect height="3" opacity=".3" width="12" x="6" y="12"/><path d="M18,10V7c0-1.1-0.9-2-2-2H8C6.9,5,6,5.9,6,7v3c-1.1,0-2,0.9-2,2v5h1.33L6,19h1l0.67-2h8.67L17,19h1l0.67-2H20v-5 C20,10.9,19.1,10,18,10z M13,7h3v3h-3V7z M8,7h3v3H8V7z M18,15H6v-3h12V15z"/></g></g></symbol>
<symbol id="sports" viewBox="0 0 24 24"><g><rect fill="none" height="24" width="24"/></g><g><g><g><path d="M11.23,6C9.57,6,8.01,6.66,6.87,7.73C6.54,6.73,5.61,6,4.5,6C3.12,6,2,7.12,2,8.5C2,9.88,3.12,11,4.5,11 c0.21,0,0.41-0.03,0.61-0.08c-0.05,0.25-0.09,0.51-0.1,0.78c-0.18,3.68,2.95,6.68,6.68,6.27c2.55-0.28,4.68-2.26,5.19-4.77 c0.15-0.71,0.15-1.4,0.06-2.06c-0.09-0.6,0.38-1.13,0.99-1.13H22V6H11.23z M4.5,9C4.22,9,4,8.78,4,8.5C4,8.22,4.22,8,4.5,8 S5,8.22,5,8.5C5,8.78,4.78,9,4.5,9z M11,15c-1.66,0-3-1.34-3-3s1.34-3,3-3s3,1.34,3,3S12.66,15,11,15z"/></g><g><circle cx="11" cy="12" r="2"/></g></g></g></symbol>
<symbol id="sports_baseball" viewBox="0 0 24 24"><g><rect fill="none" height="24" width="24"/></g><g><g><path d="M5.61,7.22C4.6,8.55,4,10.2,4,12s0.6,3.45,1.61,4.78C7.06,15.69,8,13.95,8,12S7.06,8.31,5.61,7.22z" opacity=".3"/><path d="M14,12c0-2.52,1.17-4.77,3-6.24C15.63,4.66,13.89,4,12,4S8.37,4.66,7,5.76c1.83,1.47,3,3.71,3,6.24 s-1.17,4.77-3,6.24c1.37,1.1,3.11,1.76,5,1.76s3.63-0.66,5-1.76C15.17,16.77,14,14.52,14,12z" opacity=".3"/><path d="M18.39,7.22C16.94,8.31,16,10.05,16,12s0.94,3.69,2.39,4.78C19.4,15.45,20,13.8,20,12S19.4,8.55,18.39,7.22 z" opacity=".3"/><path d="M12,2C6.48,2,2,6.48,2,12c0,5.52,4.48,10,10,10s10-4.48,10-10C22,6.48,17.52,2,12,2z M5.61,16.78C4.6,15.45,4,13.8,4,12 s0.6-3.45,1.61-4.78C7.06,8.31,8,10.05,8,12S7.06,15.69,5.61,16.78z M12,20c-1.89,0-3.63-0.66-5-1.76c1.83-1.47,3-3.71,3-6.24 S8.83,7.23,7,5.76C8.37,4.66,10.11,4,12,4s3.63,0.66,5,1.76c-1.83,1.47-3,3.71-3,6.24s1.17,4.77,3,6.24 C15.63,19.34,13.89,20,12,20z M18.39,16.78C16.94,15.69,16,13.95,16,12s0.94-3.69,2.39-4.78C19.4,8.55,20,10.2,20,12 S19.4,15.45,18.39,16.78z"/></g></g></symbol>
<symbol id="sports_basketball" viewBox="0 0 24 24"><g><rect fill="none" height="24" width="24"/></g><g><g><path d="M8.93,11H11V4.07C9.27,4.29,7.71,5.06,6.5,6.2C7.81,7.44,8.69,9.12,8.93,11z" opacity=".3"/><path d="M19.93,11c-0.15-1.18-0.56-2.28-1.16-3.25C17.9,8.62,17.3,9.74,17.09,11H19.93z" opacity=".3"/><path d="M5.23,7.75C4.63,8.72,4.22,9.82,4.07,11h2.84C6.7,9.74,6.1,8.62,5.23,7.75z" opacity=".3"/><path d="M4.07,13c0.15,1.18,0.56,2.28,1.16,3.25C6.1,15.38,6.7,14.26,6.91,13H4.07z" opacity=".3"/><path d="M6.51,17.79c1.2,1.14,2.76,1.92,4.49,2.14V13H8.93C8.7,14.88,7.81,16.55,6.51,17.79z" opacity=".3"/><path d="M17.5,6.2c-1.21-1.14-2.77-1.92-4.5-2.13V11h2.07C15.31,9.12,16.19,7.44,17.5,6.2z" opacity=".3"/><path d="M18.77,16.25c0.61-0.96,1.02-2.07,1.16-3.25h-2.84C17.3,14.26,17.9,15.38,18.77,16.25z" opacity=".3"/><path d="M13,13v6.93c1.73-0.22,3.29-1,4.49-2.14c-1.3-1.24-2.19-2.91-2.42-4.79H13z" opacity=".3"/><path d="M12,2C6.48,2,2,6.48,2,12c0,5.52,4.48,10,10,10s10-4.48,10-10C22,6.48,17.52,2,12,2z M5.23,7.75 C6.1,8.62,6.7,9.74,6.91,11H4.07C4.22,9.82,4.63,8.72,5.23,7.75z M4.07,13h2.84c-0.21,1.26-0.81,2.38-1.68,3.25 C4.63,15.28,4.22,14.18,4.07,13z M11,19.93c-1.73-0.22-3.29-1-4.49-2.14c1.3-1.24,2.19-2.91,2.42-4.79H11V19.93z M11,11H8.93 C8.69,9.12,7.81,7.44,6.5,6.2C7.71,5.06,9.27,4.29,11,4.07V11z M19.93,11h-2.84c0.21-1.26,0.81-2.38,1.68-3.25 C19.37,8.72,19.78,9.82,19.93,11z M13,4.07c1.73,0.22,3.29,0.99,4.5,2.13c-1.31,1.24-2.19,2.92-2.43,4.8H13V4.07z M13,19.93V13 h2.07c0.24,1.88,1.12,3.55,2.42,4.79C16.29,18.93,14.73,19.71,13,19.93z M18.77,16.25c-0.87-0.86-1.46-1.99-1.68-3.25h2.84 C19.78,14.18,19.37,15.28,18.77,16.25z"/></g></g></symbol>
<symbol id="sports_cricket" viewBox="0 0 24 24"><g><rect fill="none" height="24" width="24"/></g><g><g><rect height="10.02" opacity=".3" transform="matrix(0.7071 -0.7071 0.7071 0.7071 -5.0045 9.2536)" width="2.01" x="7.66" y="5.66"/><circle cx="18.5" cy="5.5" opacity=".3" r="1.5"/><path d="M15.04,12.79l-8.5-8.5C6.35,4.1,6.09,4,5.83,4S5.32,4.1,5.13,4.29L2.29,7.13c-0.39,0.39-0.39,1.03,0,1.42l8.5,8.5 c0.2,0.2,0.45,0.29,0.71,0.29c0.26,0,0.51-0.1,0.71-0.29l2.83-2.83C15.43,13.82,15.43,13.18,15.04,12.79z M11.5,14.92L4.41,7.83 l1.42-1.42l7.09,7.09L11.5,14.92z"/><rect height="6" transform="matrix(0.7071 -0.7071 0.7071 0.7071 -8.5264 17.7562)" width="2" x="16.17" y="16.17"/><path d="M18.5,2C16.57,2,15,3.57,15,5.5C15,7.43,16.57,9,18.5,9S22,7.43,22,5.5C22,3.57,20.43,2,18.5,2z M18.5,7 C17.67,7,17,6.33,17,5.5S17.67,4,18.5,4S20,4.67,20,5.5S19.33,7,18.5,7z"/></g></g></symbol>
<symbol id="sports_esports" viewBox="0 0 24 24"><g><rect fill="none" height="24" width="24"/></g><g><g><path d="M16.53,7H7.47C6.48,7,5.63,7.74,5.49,8.72L4.4,16.37c-0.03,0.21,0.05,0.35,0.13,0.44 C4.6,16.9,4.73,17,4.94,17c0.15,0,0.29-0.06,0.39-0.16L8.17,14h7.66l2.84,2.84c0.1,0.1,0.24,0.16,0.39,0.16 c0.21,0,0.34-0.1,0.42-0.19c0.08-0.09,0.16-0.23,0.13-0.44l-1.09-7.66C18.37,7.74,17.52,7,16.53,7z M11,11H9v2H8v-2H6v-1h2V8h1v2 h2V11z M15,10c-0.55,0-1-0.45-1-1c0-0.55,0.45-1,1-1s1,0.45,1,1C16,9.55,15.55,10,15,10z M17,13c-0.55,0-1-0.45-1-1 c0-0.55,0.45-1,1-1s1,0.45,1,1C18,12.55,17.55,13,17,13z" opacity=".3"/><path d="M21.58,16.09l-1.09-7.66C20.21,6.46,18.52,5,16.53,5H7.47C5.48,5,3.79,6.46,3.51,8.43l-1.09,7.66 C2.2,17.63,3.39,19,4.94,19h0c0.68,0,1.32-0.27,1.8-0.75L9,16h6l2.25,2.25c0.48,0.48,1.13,0.75,1.8,0.75h0 C20.61,19,21.8,17.63,21.58,16.09z M19.48,16.81C19.4,16.9,19.27,17,19.06,17c-0.15,0-0.29-0.06-0.39-0.16L15.83,14H8.17 l-2.84,2.84C5.23,16.94,5.09,17,4.94,17c-0.21,0-0.34-0.1-0.42-0.19c-0.08-0.09-0.16-0.23-0.13-0.44l1.09-7.66 C5.63,7.74,6.48,7,7.47,7h9.06c0.99,0,1.84,0.74,1.98,1.72l1.09,7.66C19.63,16.58,19.55,16.72,19.48,16.81z"/><polygon points="9,8 8,8 8,10 6,10 6,11 8,11 8,13 9,13 9,11 11,11 11,10 9,10"/><circle cx="17" cy="12" r="1"/><circle cx="15" cy="9" r="1"/></g></g></symbol>
<symbol id="sports_football" viewBox="0 0 24 24"><g><rect fill="none" height="24" width="24"/></g><g><g><path d="M16.26,5c-0.35,0-0.8,0.01-1.33,0.06l4.03,4.03c0.14-1.63,0.01-3.07-0.17-3.86C18.28,5.12,17.4,5,16.26,5z" opacity=".3"/><path d="M5.21,18.77C5.72,18.88,6.6,19,7.74,19c0.34,0,0.79-0.01,1.3-0.05l-4.01-4.01 C4.91,16.56,5.03,17.98,5.21,18.77z" opacity=".3"/><path d="M7.87,7.87c-1.28,1.28-2.03,2.97-2.45,4.65l6.04,6.04c1.6-0.39,3.33-1.11,4.66-2.44 c1.28-1.28,2.03-2.95,2.44-4.63l-6.05-6.05C10.92,5.83,9.2,6.55,7.87,7.87z M15.5,9.9l-5.6,5.6l-1.4-1.4l5.6-5.6L15.5,9.9z" opacity=".3"/><path d="M20.31,3.69C19.99,3.36,18.37,3,16.26,3c-3.03,0-7.09,0.75-9.8,3.46C1.87,11.05,2.9,19.52,3.69,20.31 C4.01,20.64,5.63,21,7.74,21c3.03,0,7.09-0.75,9.8-3.46C22.13,12.95,21.1,4.48,20.31,3.69z M7.74,19c-1.14,0-2.02-0.12-2.53-0.23 c-0.18-0.79-0.3-2.21-0.17-3.83l4.01,4.01C8.53,18.99,8.08,19,7.74,19z M16.13,16.13c-1.33,1.33-3.06,2.05-4.66,2.44l-6.04-6.04 c0.42-1.68,1.16-3.37,2.45-4.65c1.32-1.32,3.05-2.04,4.64-2.43l6.05,6.05C18.15,13.17,17.4,14.85,16.13,16.13z M18.96,9.09 l-4.03-4.03C15.45,5.01,15.91,5,16.26,5c1.14,0,2.02,0.12,2.53,0.23C18.97,6.02,19.09,7.45,18.96,9.09z"/><rect height="1.98" transform="matrix(0.7071 -0.7071 0.7071 0.7071 -4.9706 12.0001)" width="7.92" x="8.04" y="11.01"/></g></g></symbol>
<symbol id="sports_golf" viewBox="0 0 24 24"><g><rect fill="none" height="24" width="24"/></g><g><g><path d="M12,14c2.76,0,5-2.24,5-5s-2.24-5-5-5S7,6.24,7,9S9.24,14,12,14z M14,7c0.55,0,1,0.45,1,1 c0,0.55-0.45,1-1,1s-1-0.45-1-1C13,7.45,13.45,7,14,7z M12,5c0.55,0,1,0.45,1,1c0,0.55-0.45,1-1,1s-1-0.45-1-1 C11,5.45,11.45,5,12,5z M10,7c0.55,0,1,0.45,1,1c0,0.55-0.45,1-1,1S9,8.55,9,8C9,7.45,9.45,7,10,7z" opacity=".3"/><path d="M12,16c3.87,0,7-3.13,7-7c0-3.87-3.13-7-7-7C8.13,2,5,5.13,5,9C5,12.87,8.13,16,12,16z M12,4c2.76,0,5,2.24,5,5 s-2.24,5-5,5s-5-2.24-5-5S9.24,4,12,4z"/><circle cx="10" cy="8" r="1"/><circle cx="14" cy="8" r="1"/><circle cx="12" cy="6" r="1"/><path d="M7,19h2c1.1,0,2,0.9,2,2v1h2v-1c0-1.1,0.9-2,2-2h2v-2H7V19z"/></g></g></symbol>
<symbol id="sports_handball" viewBox="0 0 24 24"><g><rect fill="none" height="24" width="24"/></g><g><g><path d="M14.27,6C13.72,6.95,14.05,8.18,15,8.73c0.95,0.55,2.18,0.22,2.73-0.73c0.55-0.95,0.22-2.18-0.73-2.73 C16.05,4.72,14.82,5.05,14.27,6z"/><path d="M15.84,10.41c0,0-1.63-0.94-2.6-1.5c-2.38-1.38-3.2-4.44-1.82-6.82l-1.73-1C8.1,3.83,8.6,7.21,10.66,9.4l-5.15,8.92 l1.73,1l1.5-2.6l1.73,1l-3,5.2l1.73,1l6.29-10.89c1.14,1.55,1.33,3.69,0.31,5.46l1.73,1C19.13,16.74,18.81,12.91,15.84,10.41z"/><path d="M12.75,3.8c0.72,0.41,1.63,0.17,2.05-0.55c0.41-0.72,0.17-1.63-0.55-2.05c-0.72-0.41-1.63-0.17-2.05,0.55 C11.79,2.47,12.03,3.39,12.75,3.8z"/></g></g></symbol>
<symbol id="sports_hockey" viewBox="0 0 24 24"><g><rect fill="none" height="24" width="24"/></g><g><g><path d="M2,17v3l2,0v-4H3C2.45,16,2,16.45,2,17z"/><path d="M9,16H5v4l4.69-0.01c0.38,0,0.72-0.21,0.89-0.55l0.87-1.9l-1.59-3.48L9,16z"/><g><path d="M21.71,16.29C21.53,16.11,21.28,16,21,16h-1v4l2,0v-3C22,16.72,21.89,16.47,21.71,16.29z"/></g><path d="M13.6,12.84L17.65,4H14.3l-1.76,3.97l-0.49,1.1L12,9.21L9.7,4H6.35l4.05,8.84l1.52,3.32L12,16.34l1.42,3.1 c0.17,0.34,0.51,0.55,0.89,0.55L19,20v-4h-4L13.6,12.84z"/></g></g></symbol>
<symbol id="sports_kabaddi" viewBox="0 0 24 24"><g><rect fill="none" height="24" width="24"/></g><g><g><circle cx="16.5" cy="2.38" r="2"/><path d="M24,11.88v-4.7l-5.05-2.14c-0.97-0.41-2.09-0.06-2.65,0.84l0,0l-1,1.6c-0.67,1.18-1.91,2.06-3.41,2.32l0.06,0.06 c0.69,0.69,1.52,1.07,2.46,1.17c0.8-0.42,1.52-0.98,2.09-1.64l0.6,3l-1.16,1.1L15,14.38v0.76v6.74h2v-6l2.1-2l1.8,8H23l-2.18-11 l-0.62-3.1l1.8,0.7v3.4H24z"/><path d="M10.29,8.09c0.22,0.15,0.47,0.24,0.72,0.29c0.13,0.02,0.25,0.04,0.38,0.04s0.26-0.01,0.38-0.04 c0.13-0.02,0.25-0.06,0.37-0.11c0.24-0.1,0.47-0.24,0.66-0.44c0.49-0.49,0.67-1.17,0.55-1.8C13.28,5.66,13.1,5.29,12.8,5 c-0.19-0.19-0.42-0.34-0.66-0.44c-0.12-0.05-0.24-0.09-0.37-0.11s-0.25-0.04-0.38-0.04c-0.12,0-0.23,0.01-0.35,0.03 c-0.14,0.02-0.28,0.06-0.41,0.11C10.4,4.66,10.17,4.81,9.98,5C9.68,5.29,9.5,5.66,9.43,6.03c-0.12,0.63,0.06,1.31,0.55,1.8 C10.07,7.93,10.18,8.01,10.29,8.09z"/><path d="M11.24,10.56l-2-2c-0.1-0.1-0.2-0.18-0.31-0.26C8.71,8.16,8.46,8.06,8.21,8.02C8.08,7.99,7.96,7.98,7.83,7.98 c-0.51,0-1.02,0.2-1.41,0.59l-3.34,3.34c-0.41,0.41-0.62,0.98-0.58,1.54C2.5,13.63,2.54,13.82,2.61,14l1.07,2.95l-3.63,3.63 L1.46,22l4.24-4.24v-2.22L7,16.75v5.13h2v-6l-2.12-2.12l2.36-2.36l0.71,0.71l0,0c1.29,1.26,2.97,2.04,5.03,2.04l-0.14-2.07 C13.34,12.06,12.14,11.46,11.24,10.56z"/></g></g></symbol>
<symbol id="sports_mma" viewBox="0 0 24 24"><g><rect fill="none" height="24" width="24"/></g><g><g><path d="M15,5H7v5.6C7,10.74,7.64,14,7.64,14h8.72c0,0,0.64-3.26,0.64-3.4V10h-2V5z M14,10H8V7h6V10z" opacity=".3"/><path d="M7,20c0,0.55,0.45,1,1,1h8c0.55,0,1-0.45,1-1v-3H7V20z"/><path d="M18,7c-0.55,0-1,0.45-1,1V5c0-1.1-0.9-2-2-2H7C5.9,3,5,3.9,5,5v5.8c0,0.13,0.01,0.26,0.04,0.39l0.8,4 c0.09,0.47,0.5,0.8,0.98,0.8H17c0.55,0,1.09-0.44,1.2-0.98l0.77-3.83C18.99,11.06,19,10.93,19,10.8V9V8C19,7.45,18.55,7,18,7z M17,10.6c0,0.13-0.64,3.4-0.64,3.4H7.64c0,0-0.64-3.26-0.64-3.4V5h8v5h2V10.6z"/><rect height="3" width="6" x="8" y="7"/></g></g></symbol>
<symbol id="sports_motorsports" viewBox="0 0 24 24"><g><rect fill="none" height="24" width="24"/></g><g><g><path d="M13.56,6c-0.15,0-0.29,0-0.44,0.01c-1.45,0.1-2.72,0.43-3.82,0.99l2.5,1.06c1.33,0.57,2.2,1.87,2.2,3.32 c0,1.99-1.62,3.61-3.61,3.61H4.24C4.01,16.28,4,17.19,4,17.2V18h10c1.68,0,3.3-0.71,4.44-1.96c1.15-1.27,1.7-2.91,1.54-4.63 C19.69,8.37,16.87,6,13.56,6z" opacity=".3"/><path d="M21.96,11.22C21.57,7.01,17.76,4,13.56,4c-0.19,0-0.38,0.01-0.57,0.02C2,4.74,2,17.2,2,17.2V18c0,1.1,0.9,2,2,2h10 C18.67,20,22.41,15.99,21.96,11.22z M5.26,11.56c0.57-1.29,1.28-2.35,2.14-3.19l3.62,1.53c0.6,0.25,0.98,0.83,0.98,1.48 c0,0.89-0.72,1.61-1.61,1.61H4.72C4.87,12.53,5.04,12.05,5.26,11.56z M18.44,16.04C17.3,17.29,15.68,18,14,18H4v-0.8 c0-0.02,0.01-0.92,0.24-2.2h6.15c1.99,0,3.61-1.62,3.61-3.61c0-1.45-0.87-2.76-2.2-3.32L9.3,7.01c1.1-0.57,2.37-0.9,3.82-0.99 C13.27,6,13.42,6,13.56,6c3.31,0,6.13,2.37,6.41,5.41C20.13,13.13,19.59,14.77,18.44,16.04z"/></g></g></symbol>
<symbol id="sports_rugby" viewBox="0 0 24 24"><g><rect fill="none" height="24" width="24"/></g><g><g><path d="M18.29,5.71c-1.93,0.64-5.02,2.19-7.7,4.88c-2.71,2.71-4.24,5.81-4.87,7.7c1.93-0.64,5.03-2.2,7.7-4.87 C16.13,10.7,17.66,7.6,18.29,5.71z" opacity=".3"/><path d="M9.17,9.17c2.15-2.15,4.56-3.67,6.61-4.61C14.1,4.64,10.4,5.12,7.76,7.76c-2.32,2.32-3.1,5.58-3.2,8.04 C5.5,13.75,7.01,11.33,9.17,9.17z" opacity=".3"/><path d="M14.83,14.83c-2.15,2.15-4.56,3.67-6.61,4.61c1.68-0.08,5.39-0.55,8.03-3.19c2.32-2.32,3.1-5.58,3.2-8.04 C18.5,10.25,16.99,12.67,14.83,14.83z" opacity=".3"/><path d="M20.49,3.51c-0.56-0.56-2.15-0.97-4.16-0.97c-3.08,0-7.15,0.96-9.98,3.79C1.66,11.03,2.1,19.07,3.51,20.49 c0.56,0.56,2.15,0.97,4.16,0.97c3.08,0,7.15-0.96,9.98-3.79C22.34,12.97,21.9,4.93,20.49,3.51z M5.71,18.29 c0.63-1.89,2.16-4.99,4.87-7.7c2.68-2.68,5.78-4.23,7.7-4.88c-0.63,1.89-2.16,4.99-4.88,7.7C10.74,16.09,7.64,17.64,5.71,18.29z M7.76,7.76c2.64-2.64,6.34-3.12,8.03-3.19c-2.05,0.94-4.46,2.46-6.61,4.61c-2.16,2.16-3.67,4.58-4.61,6.63 C4.66,13.33,5.44,10.07,7.76,7.76z M16.24,16.24c-2.64,2.64-6.34,3.12-8.03,3.19c2.05-0.94,4.46-2.46,6.61-4.61 c2.16-2.16,3.67-4.58,4.62-6.63C19.34,10.67,18.56,13.93,16.24,16.24z"/></g></g></symbol>
<symbol id="sports_soccer" viewBox="0 0 24 24"><g><rect fill="none" height="24" width="24"/></g><g><g><g opacity=".3"><path d="M7.01,9.49L11,6.7V5.3L9.65,4.35C7.83,4.92,6.28,6.12,5.27,7.69l0.39,1.34L7.01,9.49z"/></g><g opacity=".3"><path d="M5.01,10.92l-1,0.73C4.01,11.77,4,11.88,4,12c0,1.99,0.73,3.81,1.94,5.21l1.14-0.1l0.79-1.37L6.4,11.4L5.01,10.92z"/></g><g opacity=".3"><path d="M18.34,9.03l0.39-1.34c-1.01-1.57-2.55-2.77-4.38-3.34L13,5.3v1.4l3.99,2.79L18.34,9.03z"/></g><g opacity=".3"><polygon points="8.37,10.98 9.73,15 14.27,15 15.63,10.98 12,8.44"/></g><g opacity=".3"><path d="M9.45,17l-0.64,1.11l0.69,1.49C10.29,19.85,11.13,20,12,20s1.71-0.15,2.5-0.41l0.69-1.49L14.55,17H9.45z"/></g><g opacity=".3"><path d="M19.98,11.65l-1-0.73L17.6,11.4l-1.46,4.34l0.79,1.37l1.14,0.1C19.27,15.81,20,13.99,20,12 C20,11.88,19.99,11.77,19.98,11.65z"/></g><g><path d="M12,2C6.48,2,2,6.48,2,12c0,5.52,4.48,10,10,10s10-4.48,10-10C22,6.48,17.52,2,12,2z M13,5.3l1.35-0.95 c1.82,0.56,3.37,1.76,4.38,3.34l-0.39,1.34l-1.35,0.46L13,6.7V5.3z M9.65,4.35L11,5.3v1.4L7.01,9.49L5.66,9.03L5.27,7.69 C6.28,6.12,7.83,4.92,9.65,4.35z M7.08,17.11l-1.14,0.1C4.73,15.81,4,13.99,4,12c0-0.12,0.01-0.23,0.02-0.35l1-0.73L6.4,11.4 l1.46,4.34L7.08,17.11z M14.5,19.59C13.71,19.85,12.87,20,12,20s-1.71-0.15-2.5-0.41l-0.69-1.49L9.45,17h5.11l0.64,1.11 L14.5,19.59z M14.27,15H9.73l-1.35-4.02L12,8.44l3.63,2.54L14.27,15z M18.06,17.21l-1.14-0.1l-0.79-1.37l1.46-4.34l1.39-0.47 l1,0.73C19.99,11.77,20,11.88,20,12C20,13.99,19.27,15.81,18.06,17.21z"/></g></g></g></symbol>
<symbol id="sports_tennis" viewBox="0 0 24 24"><g><rect fill="none" height="24" width="24"/></g><g><path d="M19.52,2.49c-2.34-2.34-6.62-1.87-9.55,1.06c-1.6,1.6-2.52,3.87-2.54,5.46c-0.02,1.58,0.26,3.89-1.35,5.5l-4.24,4.24 l1.42,1.42l4.24-4.24c1.61-1.61,3.92-1.33,5.5-1.35s3.86-0.94,5.46-2.54C21.38,9.11,21.86,4.83,19.52,2.49z M10.32,11.68 c-1.53-1.53-1.05-4.61,1.06-6.72s5.18-2.59,6.72-1.06c1.53,1.53,1.05,4.61-1.06,6.72S11.86,13.21,10.32,11.68z"/><path d="M18,17c0.53,0,1.04,0.21,1.41,0.59c0.78,0.78,0.78,2.05,0,2.83C19.04,20.79,18.53,21,18,21s-1.04-0.21-1.41-0.59 c-0.78-0.78-0.78-2.05,0-2.83C16.96,17.21,17.47,17,18,17 M18,15c-1.02,0-2.05,0.39-2.83,1.17c-1.56,1.56-1.56,4.09,0,5.66 C15.95,22.61,16.98,23,18,23s2.05-0.39,2.83-1.17c1.56-1.56,1.56-4.09,0-5.66C20.05,15.39,19.02,15,18,15L18,15z"/></g></symbol>
<symbol id="sports_volleyball" viewBox="0 0 24 24"><g><rect fill="none" height="24" width="24"/></g><g><g><path d="M6,6.73C4.76,8.14,4,9.98,4,12c0,1.1,0.23,2.14,0.63,3.1L6,14.31V6.73z" opacity=".3"/><path d="M11,4.08c-0.25,0.06-1.98,0.42-3,1.01v8.07l3-1.73V4.08z" opacity=".3"/><path d="M13,4.07v1.58l6.54,3.79C18.57,6.59,16.07,4.45,13,4.07z" opacity=".3"/><path d="M12,13.15l-6.36,3.67c0.64,0.85,1.46,1.55,2.38,2.09L15,14.89L12,13.15z" opacity=".3"/><path d="M13,7.96v3.46l6.37,3.68c0.4-0.95,0.63-1.99,0.63-3.09L13,7.96z" opacity=".3"/><path d="M10.42,19.84C10.93,19.94,11.46,20,12,20c2.6,0,4.9-1.25,6.36-3.17L17,16.04L10.42,19.84z" opacity=".3"/><path d="M12,2C6.48,2,2,6.48,2,12c0,5.52,4.48,10,10,10s10-4.48,10-10C22,6.48,17.52,2,12,2z M13,4.07 c3.07,0.38,5.57,2.52,6.54,5.36L13,5.65V4.07z M8,5.08c1.02-0.59,2.75-0.95,3-1.01v7.35l-3,1.73V5.08z M4.63,15.1 C4.23,14.14,4,13.1,4,12c0-2.02,0.76-3.86,2-5.27v7.58L4.63,15.1z M5.64,16.83L12,13.15l3,1.73l-6.98,4.03 C7.09,18.38,6.28,17.68,5.64,16.83z M12,20c-0.54,0-1.07-0.06-1.58-0.16l6.58-3.8l1.36,0.78C16.9,18.75,14.6,20,12,20z M13,11.42 V7.96l7,4.05c0,1.1-0.23,2.14-0.63,3.09L13,11.42z"/></g></g></symbol>
<symbol id="thumb_down_alt" viewBox="0 0 24 24"><path d="M0 0h24v24H0V0z" fill="none" opacity=".87"/><path d="M3 12v2h8.77l-1.11 5.34L15 15V5H6z" opacity=".3"/><path d="M15 3H6c-.83 0-1.54.5-1.84 1.22l-3.02 7.05c-.09.23-.14.47-.14.73v2c0 1.1.9 2 2 2h6.31l-.95 4.57-.03.32c0 .41.17.79.44 1.06L9.83 23l6.58-6.59c.37-.36.59-.86.59-1.41V5c0-1.1-.9-2-2-2zm0 12l-4.34 4.34L11.77 14H3v-2l3-7h9v10zm4-12h4v12h-4z"/></symbol>
<symbol id="thumb_up_alt" viewBox="0 0 24 24"><path d="M0 0h24v24H0V0z" fill="none" opacity=".87"/><path d="M13.34 4.66L9 9v10h9l3-7v-2h-8.77z" opacity=".3"/><path d="M21 8h-6.31l.95-4.57.03-.32c0-.41-.17-.79-.44-1.06L14.17 1 7.59 7.59C7.22 7.95 7 8.45 7 9v10c0 1.1.9 2 2 2h9c.83 0 1.54-.5 1.84-1.22l3.02-7.05c.09-.23.14-.47.14-.73v-2c0-1.1-.9-2-2-2zm0 4l-3 7H9V9l4.34-4.34L12.23 10H21v2zM1 9h4v12H1z"/></symbol>
<symbol id="whatshot" viewBox="0 0 24 24"><path d="M0 0h24v24H0V0z" fill="none"/><path d="M16.11 6.77c-.53 2.6-2.62 4.43-5.28 4.43-1.56 0-2.96-.62-3.97-1.63C6.3 10.96 6 12.47 6 14c0 3.31 2.69 6 6 6s6-2.69 6-6c0-2.56-.66-5.03-1.89-7.23zm-4.22 11.22c-1.37 0-2.49-1.08-2.49-2.42 0-1.25.81-2.13 2.17-2.41 1.37-.28 2.78-.93 3.57-1.99.3 1 .46 2.05.46 3.12 0 2.04-1.66 3.7-3.71 3.7z" opacity=".3"/><path d="M11.57 13.16c-1.36.28-2.17 1.16-2.17 2.41 0 1.34 1.11 2.42 2.49 2.42 2.05 0 3.71-1.66 3.71-3.71 0-1.07-.15-2.12-.46-3.12-.79 1.07-2.2 1.72-3.57 2zM13.5.67s.74 2.65.74 4.8c0 2.06-1.35 3.73-3.41 3.73-2.07 0-3.63-1.67-3.63-3.73l.03-.36C5.21 7.51 4 10.62 4 14c0 4.42 3.58 8 8 8s8-3.58 8-8C20 8.61 17.41 3.8 13.5.67zM12 20c-3.31 0-6-2.69-6-6 0-1.53.3-3.04.86-4.43 1.01 1.01 2.41 1.63 3.97 1.63 2.66 0 4.75-1.83 5.28-4.43C17.34 8.97 18 11.44 18 14c0 3.31-2.69 6-6 6z"/></symbol>
</svg>